<svg width="23" height="23" viewBox="0 0 23 23" fill="none" xmlns="http://www.w3.org/2000/svg">
<rect width="23" height="23" transform="matrix(-1 0 0 1 23 0)" fill="white"/>
<path d="M3.36914 12.0461H5.62053C5.92695 12.0461 6.22361 12.088 6.50595 12.165C7.06289 11.0701 8.19995 10.3179 9.51019 10.3179H13.4898C14.8001 10.3179 15.9371 11.0701 16.4941 12.165C16.7764 12.088 17.0731 12.0461 17.3795 12.0461H19.6309C21.4886 12.0461 23 13.5575 23 15.4152V19.0143C23 20.1289 22.0932 21.0358 20.9785 21.0358H2.02148C0.906837 21.0358 0 20.1289 0 19.0143V15.4152C0 13.5575 1.5114 12.0461 3.36914 12.0461ZM16.859 13.6871V19.6882H20.9785C21.3501 19.6882 21.6523 19.3859 21.6523 19.0143V15.4153C21.6523 14.3006 20.7455 13.3938 19.6309 13.3938H17.3795C17.1965 13.3938 17.0194 13.4186 16.8508 13.4644C16.8556 13.5381 16.859 13.6123 16.859 13.6871ZM7.4887 19.6882H15.5113V13.6871C15.5113 12.5724 14.6045 11.6656 13.4898 11.6656H9.51019C8.39554 11.6656 7.4887 12.5724 7.4887 13.6871V19.6882ZM1.34766 19.0143C1.34766 19.3859 1.64993 19.6882 2.02148 19.6882H6.14104V13.6871C6.14104 13.6122 6.14437 13.5381 6.14922 13.4644C5.98058 13.4186 5.80346 13.3938 5.62053 13.3938H3.36914C2.25449 13.3938 1.34766 14.3006 1.34766 15.4152V19.0143Z" fill="#006AFF"/>
<path d="M18.5052 5.68262C20.156 5.68262 21.499 7.02565 21.499 8.67648C21.4991 10.3273 20.156 11.6703 18.5052 11.6703C16.8544 11.6703 15.5113 10.3273 15.5113 8.67648C15.5113 7.02565 16.8543 5.68262 18.5052 5.68262ZM18.5052 10.3227C19.4129 10.3227 20.1514 9.58422 20.1514 8.67648C20.1514 7.76874 19.4129 7.03027 18.5052 7.03027C17.5975 7.03027 16.859 7.76874 16.859 8.67648C16.859 9.58422 17.5975 10.3227 18.5052 10.3227Z" fill="#006AFF"/>
<path d="M11.4998 1.96436C13.7052 1.96436 15.4995 3.75862 15.4995 5.96411C15.4995 8.16959 13.7052 9.96386 11.4998 9.96386C9.29427 9.96386 7.50001 8.16959 7.50001 5.96411C7.50001 3.75867 9.29427 1.96436 11.4998 1.96436ZM11.4998 8.61621C12.9621 8.61621 14.1519 7.4265 14.1519 5.96411C14.1519 4.50177 12.9621 3.31201 11.4998 3.31201C10.0374 3.31201 8.84766 4.50172 8.84766 5.96411C8.84766 7.4265 10.0374 8.61621 11.4998 8.61621Z" fill="#006AFF"/>
<path d="M4.49491 5.68262C6.1457 5.68262 7.48877 7.02565 7.48877 8.67648C7.48872 10.3273 6.1457 11.6703 4.49491 11.6703C2.84407 11.6703 1.50104 10.3273 1.50104 8.67648C1.50104 7.02565 2.84407 5.68262 4.49491 5.68262ZM4.49491 10.3227C5.4026 10.3227 6.14111 9.58422 6.14111 8.67648C6.14107 7.76874 5.4026 7.03027 4.49491 7.03027C3.58717 7.03027 2.8487 7.76874 2.8487 8.67648C2.8487 9.58422 3.58717 10.3227 4.49491 10.3227Z" fill="#006AFF"/>
</svg>
