<svg width="13" height="13" viewBox="0 0 13 13" fill="none" xmlns="http://www.w3.org/2000/svg">
<path d="M9.32205 7.57861H3.67785C1.78303 7.57861 0.241455 9.12019 0.241455 11.015V13.0002H12.7585V11.015C12.7584 9.12019 11.2169 7.57861 9.32205 7.57861ZM12.0127 12.2544H0.987183V11.0151C0.987183 9.53146 2.1942 8.32444 3.6778 8.32444H9.322C10.8056 8.32444 12.0126 9.53146 12.0126 11.0151L12.0127 12.2544Z" fill="#006AFF"/>
<path d="M6.4999 7.22539C8.49193 7.22539 10.1126 5.60472 10.1126 3.6127C10.1126 1.62067 8.49198 0 6.4999 0C4.50783 0 2.88721 1.62063 2.88721 3.6127C2.88721 5.60477 4.50788 7.22539 6.4999 7.22539ZM6.4999 0.745778C8.08075 0.745778 9.36682 2.03185 9.36682 3.6127C9.36682 5.19355 8.08075 6.47962 6.4999 6.47962C4.91905 6.47962 3.63298 5.1935 3.63298 3.6127C3.63298 2.0319 4.91905 0.745778 6.4999 0.745778Z" fill="#006AFF"/>
</svg>
