<svg width="23" height="23" viewBox="0 0 23 23" fill="none" xmlns="http://www.w3.org/2000/svg">
<path d="M6.46594 17.1967C7.30331 16.5446 7.84343 15.5279 7.84343 14.3869C7.84343 12.4235 6.2459 10.8262 4.28249 10.8262C2.31909 10.8262 0.721733 12.4235 0.721733 14.3869C0.721733 15.5279 1.26185 16.5446 2.09904 17.1967C0.917389 17.8996 0 19.2273 0 20.8827V22.3262C0 22.6984 0.301643 23 0.673828 23H7.89133C8.26334 23 8.56516 22.6984 8.56516 22.3262V20.8827C8.56516 19.2276 7.64795 17.8998 6.46594 17.1967ZM2.06939 14.3869C2.06939 13.1667 3.06223 12.1738 4.28267 12.1738C5.50293 12.1738 6.49577 13.1667 6.49577 14.3869C6.49577 15.6074 5.50293 16.6002 4.28267 16.6002C3.06223 16.6002 2.06939 15.6074 2.06939 14.3869ZM7.21751 21.6523H1.34766V20.8827C1.34766 19.2617 2.65916 17.9479 4.28249 17.9479C5.90354 17.9479 7.21733 19.2594 7.21733 20.8827V21.6523H7.21751Z" fill="#006AFF"/>
<path d="M20.1606 0H11.4997C9.93162 0 8.66064 1.26869 8.66064 2.83903V15.8304C8.66064 16.3816 9.29271 16.7039 9.73877 16.3695L12.446 14.339H20.1606C21.7287 14.339 22.9997 13.0703 22.9997 11.5V2.83903C22.9997 1.27097 21.731 0 20.1606 0V0ZM21.652 11.5C21.652 12.3244 20.9854 12.9914 20.1606 12.9914H12.2214C12.0756 12.9914 11.9338 13.0388 11.8171 13.1261L10.0083 14.4827V2.83903C10.0083 2.01464 10.6749 1.34766 11.4997 1.34766H20.1606C20.985 1.34766 21.652 2.01429 21.652 2.83903V11.5Z" fill="#006AFF"/>
<path d="M19.4392 3.60864H12.2217C11.8495 3.60864 11.5479 3.91046 11.5479 4.28247C11.5479 4.65466 11.8495 4.9563 12.2217 4.9563H19.4392C19.8112 4.9563 20.113 4.65466 20.113 4.28247C20.113 3.91046 19.8114 3.60864 19.4392 3.60864Z" fill="#006AFF"/>
<path d="M19.4392 6.49585H12.2217C11.8495 6.49585 11.5479 6.79749 11.5479 7.16968C11.5479 7.54169 11.8495 7.84351 12.2217 7.84351H19.4392C19.8112 7.84351 20.113 7.54169 20.113 7.16968C20.113 6.79749 19.8114 6.49585 19.4392 6.49585Z" fill="#006AFF"/>
<path d="M15.8303 9.38281H12.2217C11.8495 9.38281 11.5479 9.68446 11.5479 10.0566C11.5479 10.4288 11.8495 10.7305 12.2217 10.7305H15.8303C16.2025 10.7305 16.5042 10.4288 16.5042 10.0566C16.5042 9.68446 16.2025 9.38281 15.8303 9.38281Z" fill="#006AFF"/>
</svg>
