<svg width="619" height="646" viewBox="0 0 619 646" fill="none" xmlns="http://www.w3.org/2000/svg">
<path d="M6.80908 606.423V645.537H15.0221C15.0221 645.537 14.242 637.751 15.0221 633.133C15.8023 628.515 24.7246 616.627 24.4551 606.423H6.80908Z" fill="#EBEBEB"/>
<path d="M72.5132 606.423V645.537H80.7262C80.7262 645.537 79.9461 637.751 80.7262 633.133C81.5064 628.515 90.4287 616.627 90.1592 606.423H72.5132Z" fill="#E0E0E0"/>
<path d="M136.813 606.423V645.537H128.6C128.6 645.537 129.38 637.751 128.6 633.133C127.82 628.515 118.898 616.627 119.167 606.423H136.813Z" fill="#EBEBEB"/>
<path d="M193.68 606.423V645.537H185.467C185.467 645.537 186.247 637.751 185.467 633.133C184.687 628.515 175.765 616.627 176.034 606.423H193.68Z" fill="#E0E0E0"/>
<path d="M197.993 413.338H1.21997V607.687H197.993V413.338Z" fill="#F5F5F5"/>
<path d="M144.984 413.338L146.445 607.687H197.993V413.338H144.984Z" fill="#E0E0E0"/>
<path d="M136.402 427.629H10.0715V477.086H136.402V427.629Z" fill="#EBEBEB"/>
<path d="M136.402 486.946H10.0715V536.403H136.402V486.946Z" fill="#EBEBEB"/>
<path d="M136.402 546.263H10.0715V595.721H136.402V546.263Z" fill="#EBEBEB"/>
<path d="M58.4985 357.484L53.0515 413.104H122.87L128.657 357.484H58.4985Z" fill="#E0E0E0"/>
<path d="M61.3779 361.494L56.0728 410.155H119.082L124.174 361.494H61.3779Z" fill="white"/>
<path d="M71.9742 369.669L68.7117 401.964H108.472L110.515 369.669H71.9742Z" fill="#EBEBEB"/>
<path d="M126.16 381.448L140.586 413.338L122.869 413.104L126.16 381.448Z" fill="#EBEBEB"/>
<path d="M77.8609 454.947C77.8609 457.756 75.7899 460.033 73.2366 460.033C70.6833 460.033 68.6123 457.756 68.6123 454.947C68.6123 452.139 70.6833 449.861 73.2366 449.861C75.7899 449.861 77.8609 452.139 77.8609 454.947Z" fill="#E0E0E0"/>
<path d="M77.8609 514.842C77.8609 517.65 75.7899 519.928 73.2366 519.928C70.6833 519.928 68.6123 517.65 68.6123 514.842C68.6123 512.033 70.6833 509.756 73.2366 509.756C75.7899 509.771 77.8609 512.033 77.8609 514.842Z" fill="#E0E0E0"/>
<path d="M77.8609 574.752C77.8609 577.56 75.7899 579.838 73.2366 579.838C70.6833 579.838 68.6123 577.56 68.6123 574.752C68.6123 571.944 70.6833 569.666 73.2366 569.666C75.7899 569.666 77.8609 571.944 77.8609 574.752Z" fill="#E0E0E0"/>
<path d="M136.203 97.4047L24.6392 96.2034L27.7598 256.136L139.31 256.588L136.203 97.4047Z" fill="#E0E0E0"/>
<path d="M129.012 104.535L31.3489 101.742L34.1717 246.79L131.806 248.101L129.012 104.535Z" fill="#FAFAFA"/>
<path d="M112.344 126.205L47.5479 125.02L49.5195 226.399L114.259 224.87L112.344 126.205Z" fill="#EBEBEB"/>
<path d="M49.5195 226.399L113.252 172.792L47.5479 125.02L49.5195 226.399Z" fill="#F5F5F5"/>
<path d="M616.291 14.0453L518.415 13L521.139 153.29L619 153.695L616.291 14.0453Z" fill="#E0E0E0"/>
<path d="M609.978 20.3015L524.287 17.8521L526.77 145.099L612.418 146.253L609.978 20.3015Z" fill="#FAFAFA"/>
<path d="M595.34 39.3044L538.501 38.2747L540.232 127.204L597.028 125.862L595.34 39.3044Z" fill="#EBEBEB"/>
<path d="M540.232 127.204L596.148 80.1806L538.501 38.2747L540.232 127.204Z" fill="#F5F5F5"/>
<path d="M446.642 541.536C446.23 542.909 460.826 603.943 460.826 603.943L470.841 601.649L457.067 541.536H446.642Z" fill="#EBEBEB"/>
<path d="M524.247 532.815L504.218 603.943H515.906L535.098 537.854L524.247 532.815Z" fill="#F5F5F5"/>
<path d="M542.602 521.8L519.651 603.942H531.339L553.453 526.839L542.602 521.8Z" fill="#EBEBEB"/>
<path d="M453.734 598.887L465.422 643.399H524.247L535.098 598.887H453.734Z" fill="#E0E0E0"/>
<path d="M484.09 598.888C484.076 598.888 484.033 598.731 483.962 598.435C483.877 598.092 483.778 597.639 483.65 597.078C483.38 595.83 482.997 594.067 482.515 591.82C481.551 587.186 480.175 580.571 478.472 572.38C475.111 555.858 470.458 533.033 465.266 507.556L465.621 507.868C463.976 507.868 462.202 507.868 460.429 507.868C458.685 507.868 456.94 507.868 455.323 507.868L455.677 507.368C460.897 532.877 465.578 555.718 468.954 572.24C470.6 580.446 471.933 587.093 472.869 591.726C473.309 593.989 473.65 595.752 473.891 597.015C473.99 597.593 474.075 598.045 474.146 598.388C474.203 598.7 474.217 598.856 474.203 598.856C474.189 598.856 474.146 598.7 474.075 598.404C473.99 598.061 473.891 597.608 473.763 597.047C473.494 595.798 473.096 594.035 472.614 591.789C471.635 587.155 470.217 580.54 468.486 572.349C465.039 555.827 460.287 533.002 454.982 507.524L454.883 507.025H455.351C456.968 507.025 458.713 507.025 460.458 507.025C462.231 507.025 464.004 507.025 465.649 507.025H465.947L466.004 507.337C471.111 532.846 475.678 555.687 478.983 572.209C480.586 580.415 481.891 587.062 482.799 591.695C483.224 593.957 483.565 595.72 483.792 596.984C483.891 597.561 483.976 598.014 484.033 598.357C484.076 598.731 484.09 598.888 484.09 598.888Z" fill="#E0E0E0"/>
<path d="M601.567 645.271C601.567 645.49 466.895 645.677 300.805 645.677C134.643 645.677 0 645.49 0 645.271C0 645.053 134.643 644.865 300.805 644.865C466.895 644.865 601.567 645.037 601.567 645.271Z" fill="#263238"/>
<path d="M549.6 319.563C549.6 319.563 549.274 319.392 548.593 319.22C547.912 319.048 546.848 318.939 545.515 319.267C544.182 319.594 542.607 320.39 541.047 321.794C539.458 323.183 537.983 325.211 536.508 327.614C533.6 332.513 531.316 339.284 528.649 347.178C526.025 355.088 523.089 364.231 520.649 374.684L520.635 374.715L520.621 374.731C520.195 375.573 519.656 376.337 518.961 376.977C518.28 377.586 517.344 378.085 516.379 377.882C515.429 377.71 514.663 377.024 514.01 376.369C513.344 375.698 512.72 374.98 512.096 374.247C510.847 372.796 509.599 371.314 508.166 370.034C506.748 368.802 505.046 367.601 503.202 367.803C501.4 368.053 499.684 369.395 498.648 371.142C497.613 372.936 497.173 375.136 497.074 377.336C496.833 381.798 498.01 386.307 498.719 390.972C499.514 395.637 500.322 400.411 501.145 405.31C501.556 407.759 501.982 410.224 502.393 412.72C502.606 413.969 502.819 415.232 503.031 416.48C503.287 417.682 503.429 419.242 502.62 420.474C502.223 421.13 501.372 421.379 500.733 421.177C500.081 421.005 499.542 420.599 499.06 420.209C498.109 419.429 497.145 418.633 496.18 417.838C494.251 416.262 492.279 414.733 490.166 413.391C488.066 412.065 485.839 410.848 483.442 410.318C482.25 410.053 481.016 410.006 479.867 410.349C478.718 410.677 477.683 411.441 476.96 412.502C475.484 414.639 475.087 417.526 475.045 420.303C475.002 423.111 475.328 425.935 475.782 428.759C476.733 434.407 478.279 440.008 480.109 445.577C480.534 446.982 481.158 448.308 481.343 449.915C481.428 450.695 481.343 451.631 480.818 452.317C480.69 452.489 480.563 452.645 480.406 452.77C480.222 452.91 480.179 453.019 479.853 453.129C479.286 453.269 478.945 453.004 478.619 452.832C477.357 452.021 476.378 450.976 475.342 449.962C474.335 448.932 473.314 447.902 472.307 446.857C470.278 444.797 468.193 442.754 465.853 441.147C464.69 440.351 463.441 439.649 462.136 439.29C460.831 438.884 459.427 439.009 458.349 439.805C457.257 440.616 456.533 441.958 456.207 443.424C455.852 444.891 455.711 446.436 455.696 447.996C455.682 451.1 456.079 454.236 456.76 457.31C458.051 463.488 460.292 469.464 462.916 475.236C465.541 481.024 468.69 486.61 472.094 492.008C473.711 494.785 475.74 497.25 477.626 499.856C479.541 502.43 481.456 505.02 483.385 507.625L483.456 507.719L483.116 507.578C486.137 507.095 489.144 506.611 492.137 506.143C495.116 505.613 498.152 505.332 501.031 504.458C506.861 502.991 512.606 501.166 518.096 498.826C523.571 496.486 528.89 493.724 533.628 490.105C536.011 488.326 538.238 486.313 540.125 483.989C541.075 482.834 541.898 481.586 542.55 480.229C543.203 478.903 543.487 477.374 543.175 475.969C542.848 474.581 541.898 473.442 540.692 472.771C539.501 472.069 538.153 471.663 536.791 471.398C534.068 470.852 531.288 470.837 528.522 470.852C527.131 470.868 525.756 470.883 524.38 470.899C522.99 470.868 521.628 470.93 520.195 470.602C519.855 470.493 519.429 470.431 519.103 469.916C518.918 469.588 518.961 469.479 518.918 469.245C518.89 469.042 518.876 468.824 518.89 468.605C518.933 467.716 519.429 466.952 519.968 466.437C521.089 465.392 522.38 464.861 523.543 464.143C528.295 461.366 532.876 458.371 537.033 454.892C539.104 453.144 541.075 451.288 542.749 449.181C544.409 447.106 545.884 444.673 546.097 441.989C546.21 440.663 545.898 439.337 545.246 438.245C544.593 437.137 543.657 436.263 542.607 435.577C540.508 434.204 538.111 433.455 535.742 432.893C533.359 432.332 530.961 432.004 528.578 431.739C527.373 431.614 526.181 431.489 525.004 431.364C524.408 431.286 523.755 431.193 523.174 430.834C522.578 430.506 522.11 429.664 522.224 428.899C522.394 427.402 523.443 426.356 524.38 425.654C525.316 424.874 526.238 424.11 527.16 423.33C529.004 421.801 530.82 420.272 532.621 418.774C536.224 415.763 539.742 412.83 543.175 409.959C546.565 407.026 550.182 404.561 552.721 401.082C553.998 399.381 555.019 397.431 555.345 395.34C555.643 393.281 555.189 391.019 554.012 389.505C553.416 388.741 552.565 388.288 551.686 387.976C550.806 387.649 549.884 387.555 548.962 387.477C547.118 387.383 545.274 387.539 543.472 387.695C542.565 387.773 541.671 387.836 540.763 387.851C539.884 387.851 538.891 387.789 538.082 387.212C537.245 386.65 536.862 385.589 536.735 384.638C536.621 383.655 536.692 382.687 536.891 381.751V381.72L536.905 381.689C541.487 372.172 544.891 363.248 547.785 355.463C550.636 347.662 553.076 340.969 553.955 335.212C554.352 332.357 554.537 329.767 554.239 327.567C553.969 325.367 553.345 323.604 552.593 322.356C551.842 321.108 550.99 320.374 550.395 320C549.799 319.61 549.444 319.501 549.444 319.501C549.444 319.501 549.799 319.579 550.423 319.953C551.033 320.312 551.912 321.03 552.693 322.293C553.487 323.542 554.125 325.336 554.423 327.551C554.749 329.767 554.579 332.388 554.196 335.274C553.345 341.078 550.934 347.802 548.111 355.619C545.246 363.435 541.87 372.359 537.302 381.938L537.316 381.876C537.132 382.734 537.075 383.67 537.189 384.56C537.316 385.433 537.657 386.323 538.352 386.791C539.033 387.274 539.898 387.352 540.777 387.337C541.657 387.321 542.55 387.243 543.444 387.165C545.246 387.009 547.104 386.837 548.99 386.931C549.941 387.009 550.905 387.103 551.842 387.446C552.764 387.758 553.714 388.257 554.395 389.115C555.728 390.831 556.168 393.187 555.87 395.418C555.53 397.665 554.466 399.693 553.147 401.456C550.522 405.044 546.877 407.541 543.515 410.474C540.082 413.345 536.579 416.293 532.976 419.304C531.174 420.818 529.359 422.331 527.529 423.876C526.607 424.64 525.685 425.42 524.763 426.2C524.28 426.606 523.841 426.949 523.5 427.417C523.174 427.885 522.89 428.431 522.848 428.977C522.791 429.523 523.046 429.976 523.486 430.257C523.94 430.538 524.493 430.631 525.089 430.709C526.266 430.834 527.458 430.959 528.663 431.084C531.061 431.333 533.486 431.676 535.912 432.238C538.323 432.815 540.763 433.564 542.976 435C544.068 435.717 545.104 436.653 545.827 437.886C546.565 439.103 546.905 440.616 546.778 442.083C546.536 445.047 544.976 447.559 543.274 449.696C541.543 451.865 539.557 453.753 537.458 455.516C533.259 459.026 528.663 462.053 523.883 464.845C522.706 465.579 521.401 466.125 520.45 467.045C519.982 467.498 519.628 468.059 519.599 468.683C519.585 468.84 519.599 468.996 519.613 469.167C519.628 469.292 519.67 469.588 519.713 469.557C519.755 469.666 520.082 469.822 520.379 469.885C521.628 470.181 523.032 470.15 524.394 470.166C525.77 470.15 527.146 470.134 528.536 470.119C531.302 470.103 534.125 470.119 536.933 470.665C538.338 470.946 539.742 471.367 541.047 472.116C542.352 472.834 543.515 474.144 543.898 475.813C544.267 477.452 543.912 479.199 543.217 480.619C542.536 482.054 541.671 483.365 540.692 484.55C538.749 486.937 536.494 488.997 534.068 490.791C529.273 494.457 523.912 497.25 518.394 499.606C512.861 501.962 507.102 503.787 501.23 505.269C498.308 506.143 495.286 506.439 492.293 506.97C489.3 507.454 486.279 507.937 483.258 508.421L483.045 508.452L482.917 508.28L482.846 508.187C480.917 505.581 478.988 502.991 477.073 500.417C475.186 497.812 473.158 495.347 471.527 492.538C468.08 487.093 464.945 481.492 462.292 475.657C459.654 469.822 457.384 463.816 456.079 457.544C455.398 454.424 454.973 451.241 455.001 448.027C455.016 446.436 455.157 444.829 455.54 443.253C455.895 441.693 456.704 440.133 457.98 439.196C459.271 438.245 460.945 438.136 462.349 438.572C463.782 438.978 465.073 439.711 466.278 440.538C468.69 442.208 470.789 444.283 472.832 446.342C473.853 447.372 474.86 448.417 475.867 449.447C476.889 450.445 477.896 451.506 479.002 452.208C479.257 452.38 479.598 452.505 479.697 452.442C479.711 452.489 479.924 452.302 480.009 452.224C480.123 452.115 480.236 452.005 480.321 451.881C480.69 451.397 480.775 450.726 480.704 450.04C480.562 448.667 479.938 447.294 479.499 445.874C477.669 440.273 476.123 434.641 475.158 428.931C474.69 426.075 474.364 423.205 474.406 420.334C474.463 417.495 474.846 414.483 476.463 412.112C477.257 410.942 478.435 410.068 479.726 409.709C481.016 409.335 482.35 409.397 483.598 409.678C486.109 410.255 488.378 411.488 490.52 412.845C492.648 414.218 494.648 415.763 496.591 417.354C497.556 418.15 498.506 418.93 499.457 419.726C499.925 420.116 500.407 420.443 500.918 420.584C501.414 420.708 501.897 420.568 502.18 420.131C502.478 419.71 502.62 419.086 502.663 418.493C502.705 417.9 502.592 417.307 502.478 416.652C502.265 415.388 502.053 414.14 501.84 412.892C501.414 410.396 501.003 407.931 500.592 405.481C499.769 400.598 498.974 395.824 498.194 391.159C497.499 386.51 496.322 381.954 496.563 377.367C496.662 375.105 497.116 372.812 498.237 370.893C499.386 369.02 501.145 367.601 503.187 367.304C504.209 367.164 505.216 367.491 506.095 367.944C507.003 368.381 507.769 369.036 508.521 369.676C509.982 371.002 511.244 372.499 512.493 373.95C513.117 374.668 513.727 375.386 514.365 376.057C515.018 376.712 515.698 377.305 516.493 377.445C517.287 377.617 518.082 377.211 518.72 376.65C519.344 376.072 519.869 375.323 520.266 374.559L520.252 374.621C522.734 364.137 525.699 355.01 528.366 347.1C531.061 339.221 533.401 332.435 536.352 327.52C537.855 325.102 539.359 323.074 540.976 321.685C542.579 320.296 544.182 319.485 545.543 319.189C546.905 318.877 547.983 319.002 548.664 319.204C549.288 319.36 549.6 319.563 549.6 319.563Z" fill="#263238"/>
<path d="M542.167 340.797C542.182 340.797 542.125 340.969 542.026 341.312C541.898 341.686 541.742 342.17 541.543 342.779C541.075 344.105 540.423 345.992 539.6 348.395C537.884 353.31 535.415 360.33 532.38 369.005C526.337 386.463 518.011 410.521 508.819 437.09C499.655 463.707 491.272 487.749 485.045 505.098C481.938 513.772 479.399 520.777 477.612 525.614C476.718 527.985 476.023 529.842 475.541 531.168C475.314 531.761 475.13 532.245 474.988 532.603C474.86 532.931 474.789 533.087 474.775 533.087C474.761 533.087 474.818 532.915 474.917 532.572C475.045 532.198 475.201 531.714 475.399 531.106C475.867 529.78 476.52 527.892 477.343 525.505C479.059 520.59 481.527 513.569 484.563 504.895C490.605 487.437 498.932 463.379 508.124 436.81C517.287 410.209 525.67 386.151 531.883 368.802C534.99 360.128 537.529 353.122 539.316 348.286C540.21 345.914 540.905 344.042 541.387 342.732C541.614 342.139 541.799 341.655 541.941 341.296C542.082 340.953 542.153 340.782 542.167 340.797Z" fill="#263238"/>
<path d="M542.919 394.638C542.962 394.747 541.6 395.605 539.373 396.963C536.947 398.445 533.969 400.27 530.678 402.283C527.287 404.358 524.195 406.214 521.911 407.463C519.628 408.726 518.167 409.382 518.124 409.272C518.081 409.163 519.457 408.336 521.67 406.948C524.096 405.434 527.06 403.593 530.323 401.565C533.713 399.49 536.834 397.68 539.132 396.448C541.43 395.215 542.877 394.529 542.919 394.638Z" fill="#263238"/>
<path d="M516.975 408.321C516.791 408.414 513.415 401.347 509.443 392.501C505.471 383.67 502.393 376.431 502.577 376.322C502.762 376.228 506.138 383.296 510.11 392.142C514.081 400.988 517.159 408.227 516.975 408.321Z" fill="#263238"/>
<path d="M504.578 449.884C504.507 449.962 503.301 448.776 501.457 446.763C499.613 444.735 497.145 441.849 494.577 438.51C492.01 435.171 489.825 432.02 488.322 429.68C486.818 427.339 485.953 425.842 486.038 425.779C486.123 425.717 487.13 427.09 488.747 429.336C490.364 431.583 492.591 434.656 495.159 437.98C497.712 441.303 500.109 444.236 501.854 446.358C503.57 448.479 504.649 449.79 504.578 449.884Z" fill="#263238"/>
<path d="M530.522 443.175C530.55 443.284 529.117 443.736 526.777 444.376C524.436 445.016 521.216 445.858 517.642 446.716C514.067 447.59 510.819 448.339 508.45 448.838C506.081 449.337 504.62 449.587 504.592 449.478C504.563 449.369 505.996 448.916 508.337 448.277C510.663 447.637 513.897 446.794 517.486 445.921C521.06 445.047 524.309 444.298 526.678 443.799C529.032 443.315 530.493 443.066 530.522 443.175Z" fill="#263238"/>
<path d="M523.812 481.399C523.826 481.508 521.982 482.038 518.989 482.818C515.996 483.598 511.84 484.597 507.244 485.674C502.648 486.75 498.478 487.671 495.457 488.295C492.435 488.919 490.549 489.262 490.52 489.153C490.506 489.043 492.35 488.513 495.343 487.733C498.336 486.953 502.492 485.954 507.088 484.878C511.684 483.817 515.855 482.881 518.876 482.257C521.911 481.617 523.784 481.289 523.812 481.399Z" fill="#263238"/>
<path d="M491.272 488.7C491.229 488.732 490.86 488.357 490.208 487.639C489.555 486.922 488.633 485.845 487.527 484.519C485.3 481.836 482.307 478.06 479.158 473.723C476.009 469.401 473.3 465.345 471.413 462.38C470.463 460.898 469.725 459.666 469.228 458.808C468.732 457.95 468.477 457.466 468.519 457.435C468.562 457.404 468.902 457.825 469.47 458.636C470.136 459.588 470.916 460.727 471.838 462.053C473.839 464.939 476.59 468.918 479.74 473.239C482.874 477.561 485.811 481.383 487.924 484.16C490.038 486.906 491.343 488.622 491.272 488.7Z" fill="#263238"/>
<path d="M490.049 545.421C465.424 523.594 461.85 486.244 464.942 453.153C465.453 447.63 465.268 441.748 467.963 437.068C470.659 432.387 476.46 429.485 480.815 432.169C484.432 434.384 485.765 439.299 487.61 443.402C490.064 448.878 493.936 453.543 498.645 456.694C501.738 458.769 505.639 460.189 508.915 458.504C513.426 456.195 514.348 449.642 514.66 444.119C515.242 433.854 515.823 423.588 516.405 413.322C516.717 407.814 517.057 402.182 518.93 397.081C520.816 391.979 524.561 387.376 529.412 386.269C534.264 385.161 539.966 388.624 540.633 394.085C540.916 396.363 540.349 398.656 540.349 400.95C540.349 403.243 541.157 405.849 543.087 406.629C545.044 407.424 547.144 406.02 548.746 404.523C554.264 399.358 558.208 392.447 561.938 385.582C565.655 378.702 569.3 371.65 574.364 365.94C579.428 360.23 586.223 355.908 593.415 356.001C600.621 356.095 607.954 361.54 609.273 369.419C610.607 377.313 605.997 384.88 601.117 390.824C593.883 399.639 585.514 407.3 576.322 413.462C574.662 414.57 572.875 415.771 572.137 417.768C570.818 421.357 573.754 425.241 576.974 426.692C580.62 428.346 584.691 428.221 588.563 429.017C592.436 429.813 596.549 432.028 597.769 436.194C599.472 441.982 594.819 447.552 590.365 451.093C581.457 458.192 571.442 463.575 560.903 466.945C557.13 468.146 553.172 469.16 550.023 471.781C546.874 474.402 544.775 479.223 546.321 483.233C547.881 487.258 552.406 488.834 556.307 488.35C560.208 487.851 563.811 485.807 567.584 484.559C574.648 482.219 583.499 483.42 587.499 490.285C590.124 494.809 590.01 500.8 588.223 505.824C586.436 510.832 583.187 515.029 579.783 518.867C567.868 532.269 553.03 542.659 536.689 547.543C520.405 552.457 505.511 552.988 490.049 545.421Z" fill="#467BFB"/>
<path d="M488.12 569.978C490.035 556.919 493.624 541.598 499.128 525.217C504.617 508.819 511.979 491.377 520.249 473.435C522.334 468.957 524.391 464.526 526.419 460.173C528.448 455.821 530.476 451.514 532.675 447.427C537.058 439.236 541.852 431.732 546.59 424.773C551.328 417.799 556.066 411.372 560.534 405.396C565.016 399.436 569.286 393.96 573.371 389.155C581.513 379.513 588.918 372.601 594.166 368.077C596.791 365.815 598.876 364.114 600.308 363.006C600.989 362.476 601.528 362.055 601.94 361.743C602.308 361.462 602.507 361.322 602.507 361.337C602.521 361.353 602.337 361.509 601.982 361.821C601.585 362.148 601.074 362.601 600.408 363.162C599.018 364.333 596.961 366.08 594.379 368.389C589.202 372.992 581.896 379.965 573.839 389.654C569.797 394.475 565.57 399.967 561.116 405.942C556.676 411.933 551.98 418.377 547.257 425.335C542.548 432.293 537.796 439.782 533.441 447.942C531.242 451.998 529.256 456.289 527.214 460.641C525.185 464.994 523.128 469.425 521.043 473.903C512.773 491.829 505.412 509.209 499.894 525.544C494.361 541.863 490.716 557.106 488.73 570.102" fill="#263238"/>
<path d="M532.959 447.411C532.902 447.411 532.774 446.569 532.618 445.024C532.448 443.48 532.278 441.249 532.093 438.472C531.724 432.933 531.455 425.273 531.2 416.817C530.93 408.36 530.561 400.716 530.122 395.208C529.909 392.447 529.71 390.216 529.568 388.687C529.427 387.142 529.37 386.284 529.441 386.269C529.497 386.253 529.668 387.095 529.923 388.624C530.178 390.153 530.476 392.369 530.774 395.13C531.384 400.653 531.852 408.314 532.122 416.77C532.363 425.117 532.59 432.652 532.76 438.425C532.845 441.03 532.93 443.23 532.987 444.977C533.015 446.538 533.015 447.396 532.959 447.411Z" fill="#263238"/>
<path d="M598.152 439.033C598.152 439.096 597.23 439.158 595.556 439.174C593.896 439.205 591.485 439.252 588.52 439.408C582.577 439.657 574.392 440.328 565.371 441.498C556.363 442.684 548.25 444.15 542.405 445.383C539.483 445.976 537.129 446.538 535.497 446.912C533.866 447.286 532.958 447.474 532.944 447.396C532.93 447.333 533.809 447.021 535.412 446.522C537.015 446.038 539.356 445.367 542.278 444.681C548.108 443.261 556.221 441.67 565.271 440.484C574.307 439.314 582.534 438.752 588.506 438.69C591.485 438.628 593.896 438.706 595.57 438.784C597.23 438.877 598.152 438.955 598.152 439.033Z" fill="#263238"/>
<path d="M500.007 523.969C499.979 523.984 499.851 523.672 499.624 523.079C499.369 522.362 499.057 521.488 498.688 520.443C497.879 518.149 496.787 514.779 495.496 510.614C492.9 502.267 489.638 490.612 486.191 477.71C482.744 464.792 479.595 453.122 477.155 444.728C475.964 440.64 474.971 437.286 474.247 434.79C473.935 433.713 473.68 432.808 473.467 432.075C473.297 431.451 473.226 431.123 473.254 431.108C473.283 431.092 473.41 431.404 473.637 432.013C473.893 432.73 474.205 433.604 474.574 434.649C475.382 436.943 476.474 440.313 477.765 444.478C480.361 452.825 483.624 464.48 487.07 477.398C490.517 490.316 493.666 501.97 496.106 510.364C497.298 514.436 498.291 517.806 499.014 520.287C499.326 521.363 499.582 522.268 499.794 523.001C499.965 523.625 500.035 523.953 500.007 523.969Z" fill="#263238"/>
<path d="M587.443 500.098C587.443 500.129 587.145 500.238 586.563 500.425C585.882 500.628 585.045 500.862 584.024 501.159C581.683 501.798 578.506 502.672 574.662 503.733C566.761 505.902 555.867 509.053 543.838 512.548C531.809 516.043 520.887 519.069 512.929 521.066C508.958 522.065 505.738 522.845 503.496 523.329C502.461 523.547 501.61 523.719 500.915 523.875C500.319 523.984 500.007 524.031 500.007 524C500.007 523.968 500.305 523.859 500.886 523.672C501.567 523.485 502.404 523.235 503.425 522.939C505.766 522.299 508.929 521.425 512.787 520.364C520.688 518.196 531.582 515.044 543.611 511.549C555.64 508.055 566.562 505.028 574.506 503.031C578.478 502.032 581.698 501.252 583.939 500.769C584.974 500.55 585.825 500.379 586.521 500.223C587.116 500.113 587.428 500.067 587.443 500.098Z" fill="#263238"/>
<path d="M87 0L87 298H605V0H87Z" fill="#455A64"/>
<path d="M97 9L97 289H595V9H97Z" fill="white"/>
<path d="M299 20V207L585 207V20L299 20Z" fill="#FBFBFB"/>
<rect x="490" y="40" width="80" height="86" rx="1" fill="#F4F4F4"/>
<circle cx="530" cy="64" r="15" fill="#E6E6E6"/>
<rect x="515" y="87" width="30" height="3" rx="1.5" fill="#E6E6E6"/>
<rect x="319" y="30" width="50" height="5" rx="2.5" fill="#E6E6E6"/>
<rect x="431" y="123" width="22" height="3" rx="1.5" fill="#E6E6E6"/>
<rect x="460" y="123" width="22" height="3" rx="1.5" fill="#E6E6E6"/>
<rect x="319" y="141" width="34" height="5" rx="2.5" fill="#E6E6E6"/>
<rect x="319" y="156" width="150" height="5" rx="2.5" fill="#E6E6E6"/>
<rect x="319" y="186" width="116" height="5" rx="2.5" fill="#E6E6E6"/>
<rect x="319" y="171" width="251" height="5" rx="2.5" fill="#E6E6E6"/>
<rect x="510" y="95" width="40" height="3" rx="1.5" fill="#E6E6E6"/>
<rect x="510" y="103" width="40" height="3" rx="1.5" fill="#E6E6E6"/>
<rect x="514" y="113" width="31" height="3" rx="1.5" fill="#E6E6E6"/>
<rect x="322" y="42" width="162" height="71" rx="1" fill="#F3F3F3"/>
<path d="M301 256.779H170V256.845H301V256.779Z" fill="#E0E0E0"/>
<path d="M276.244 259.629H270.862V259.695H276.244V259.629Z" fill="#E0E0E0"/>
<path d="M281.489 259.595H278.164V259.661H281.489V259.595Z" fill="#E0E0E0"/>
<path d="M252.714 259.595H242.545V259.661H252.714V259.595Z" fill="#E0E0E0"/>
<path d="M222.838 260.745H210.403V260.811H222.838V260.745Z" fill="#E0E0E0"/>
<path d="M196.857 258.673H195.005V258.739H196.857V258.673Z" fill="#E0E0E0"/>
<path d="M212.591 258.673H198.314V258.739H212.591V258.673Z" fill="#E0E0E0"/>
<path d="M195.933 260.256H188.432V260.321H195.933V260.256Z" fill="#E0E0E0"/>
<path d="M232.094 245.094H181.504C181.108 245.093 180.728 244.935 180.448 244.654C180.168 244.374 180.011 243.994 180.011 243.598V172.483C180.014 172.089 180.173 171.712 180.453 171.434C180.732 171.157 181.11 171.001 181.504 171H232.094C232.491 171 232.871 171.158 233.152 171.438C233.432 171.719 233.59 172.099 233.59 172.496V243.598C233.59 243.994 233.432 244.375 233.152 244.655C232.871 244.936 232.491 245.094 232.094 245.094ZM181.504 171.052C181.125 171.053 180.762 171.204 180.495 171.472C180.227 171.741 180.076 172.104 180.076 172.483V243.598C180.076 243.977 180.227 244.34 180.495 244.608C180.762 244.876 181.125 245.027 181.504 245.028H232.094C232.473 245.027 232.837 244.876 233.105 244.608C233.373 244.34 233.524 243.977 233.524 243.598V172.483C233.524 172.104 233.373 171.74 233.105 171.472C232.837 171.204 232.473 171.053 232.094 171.052H181.504Z" fill="#E0E0E0"/>
<path d="M288.767 245.094H238.175C237.778 245.093 237.398 244.935 237.118 244.655C236.837 244.374 236.68 243.994 236.679 243.598V172.483C236.683 172.089 236.842 171.712 237.122 171.434C237.403 171.157 237.781 171.001 238.175 171H288.767C289.161 171.001 289.538 171.158 289.817 171.435C290.096 171.713 290.255 172.089 290.258 172.483V243.598C290.258 243.993 290.101 244.373 289.822 244.654C289.542 244.934 289.163 245.092 288.767 245.094ZM238.175 171.052C237.796 171.053 237.432 171.204 237.164 171.472C236.896 171.74 236.745 172.104 236.744 172.483V243.598C236.745 243.977 236.896 244.34 237.164 244.608C237.432 244.876 237.796 245.027 238.175 245.028H288.767C289.146 245.027 289.51 244.876 289.778 244.608C290.046 244.34 290.197 243.977 290.198 243.598V172.483C290.197 172.104 290.046 171.74 289.778 171.472C289.51 171.204 289.146 171.053 288.767 171.052H238.175Z" fill="#E0E0E0"/>
<path d="M190.234 256.779H184.85C184.85 256.779 181.528 253.834 180.456 249.883C179.956 248.062 182.406 246.807 183.886 248.107C187.35 251.151 190.234 256.779 190.234 256.779Z" fill="#EBEBEB"/>
<path d="M192.501 256.779H187.116C187.116 256.779 184.038 250.454 185.227 245.851C185.32 245.49 185.508 245.161 185.772 244.899C186.037 244.636 186.367 244.451 186.729 244.362C187.091 244.272 187.47 244.283 187.826 244.392C188.182 244.501 188.502 244.705 188.751 244.981C192.823 249.461 192.501 256.779 192.501 256.779Z" fill="#EBEBEB"/>
<path d="M192.506 256.779H195.983C195.983 256.779 198.162 252.935 200.209 248.211C202.119 243.807 198.865 241.968 196.821 246.296C194.222 251.803 192.506 256.779 192.506 256.779Z" fill="#EBEBEB"/>
<path d="M193.457 256.779H198.841C198.841 256.779 204.262 254.214 203.96 249.359C203.879 248.088 202.428 247.263 201.141 247.755C195.362 249.972 193.457 256.779 193.457 256.779Z" fill="#EBEBEB"/>
<path d="M190.436 256.779H195.818C195.818 256.779 197.445 247.797 195.516 242.141C194.94 240.451 192.896 240.155 191.948 241.617C188.44 247.087 190.436 256.779 190.436 256.779Z" fill="#EBEBEB"/>
<path d="M226.097 208.99L241.264 196.946L285.477 211.173H226.097V208.99Z" fill="#E0E0E0"/>
<path d="M258.354 256.779H283.621V213.358H258.354V256.779Z" fill="#EBEBEB"/>
<path d="M277.113 256.779H272.253C272.253 256.779 269.259 254.421 268.284 251.235C267.836 249.77 270.045 248.759 271.381 249.804C274.509 252.254 277.113 256.779 277.113 256.779Z" fill="#F5F5F5"/>
<path d="M279.162 256.779H274.3C274.3 256.779 271.52 251.693 272.594 247.991C272.966 246.708 274.774 246.312 275.775 247.292C279.453 250.894 279.162 256.779 279.162 256.779Z" fill="#F5F5F5"/>
<path d="M279.167 256.779H282.311C283.701 254.549 284.975 252.25 286.131 249.891C287.855 246.348 284.916 244.868 283.071 248.35C281.623 251.089 280.32 253.902 279.167 256.779Z" fill="#F5F5F5"/>
<path d="M280.024 256.779H284.887C284.887 256.779 289.784 254.717 289.509 250.813C289.438 249.791 288.125 249.129 286.965 249.524C281.746 251.306 280.024 256.779 280.024 256.779Z" fill="#F5F5F5"/>
<path d="M277.297 256.779H282.157C282.157 256.779 283.627 249.558 281.895 245.007C281.773 244.698 281.571 244.428 281.309 244.224C281.047 244.02 280.735 243.891 280.406 243.848C280.077 243.806 279.742 243.853 279.437 243.984C279.132 244.115 278.868 244.325 278.672 244.593C275.494 248.984 277.297 256.779 277.297 256.779Z" fill="#F5F5F5"/>
<path d="M258.352 213.357H283.622L285.477 211.172H258.352V213.357Z" fill="#E0E0E0"/>
<path d="M272.458 216.97H247.235V238.077H272.458V216.97Z" fill="#E0E0E0"/>
<path d="M271.273 236.743V218.301H248.422V236.743H271.273Z" fill="#F5F5F5"/>
<path d="M271.97 226.628H247.728V228.415H271.97V226.628Z" fill="#E0E0E0"/>
<path d="M258.352 205.807H193.842V256.776H258.352V205.807Z" fill="#F5F5F5"/>
<path d="M229.018 214.898H198.841V240.15H229.018V214.898Z" fill="#EBEBEB"/>
<path d="M227.598 238.557V216.491H200.258V238.557H227.598Z" fill="#FAFAFA"/>
<path d="M227.601 233.998V216.489H200.261V233.998H227.601Z" fill="#F5F5F5"/>
<path d="M228.431 232.929H199.428V235.067H228.431V232.929Z" fill="#EBEBEB"/>
<path d="M235.93 250.53H253.172V213.868H235.93V250.53Z" fill="#E0E0E0"/>
<path d="M252.263 250.53V214.702H236.836V250.53H252.263Z" fill="#EBEBEB"/>
<path d="M250.898 230.215V216.137H238.196V230.215H250.898Z" fill="#E0E0E0"/>
<path d="M250.9 246.446V232.368H238.199V246.446H250.9Z" fill="#E0E0E0"/>
<path d="M259.4 209.36H192.794V204.759L226.097 187.409L259.4 204.759V209.36Z" fill="#EBEBEB"/>
<path d="M262.345 207.18L226.097 188.297L189.849 207.18L189.124 205.786L226.097 186.523L263.07 205.786L262.345 207.18Z" fill="#E0E0E0"/>
<path d="M226.097 206.299C224.678 206.3 223.291 205.88 222.111 205.092C220.931 204.304 220.011 203.183 219.467 201.873C218.924 200.562 218.782 199.12 219.058 197.728C219.335 196.336 220.018 195.058 221.021 194.054C222.024 193.051 223.302 192.367 224.694 192.09C226.085 191.813 227.528 191.955 228.839 192.498C230.15 193.041 231.27 193.96 232.059 195.14C232.847 196.32 233.268 197.707 233.268 199.126C233.266 201.027 232.51 202.85 231.165 204.195C229.821 205.54 227.998 206.296 226.097 206.299ZM226.097 193.527C224.989 193.526 223.905 193.854 222.984 194.47C222.062 195.085 221.344 195.96 220.92 196.983C220.495 198.007 220.384 199.134 220.6 200.22C220.816 201.307 221.35 202.306 222.133 203.089C222.917 203.873 223.915 204.406 225.002 204.622C226.089 204.838 227.215 204.727 228.239 204.303C229.263 203.879 230.138 203.16 230.753 202.239C231.368 201.317 231.696 200.234 231.696 199.126C231.692 197.642 231.101 196.221 230.052 195.172C229.002 194.124 227.58 193.534 226.097 193.532V193.527Z" fill="#E0E0E0"/>
<path d="M226.097 204.347C228.981 204.347 231.318 202.01 231.318 199.126C231.318 196.242 228.981 193.904 226.097 193.904C223.213 193.904 220.875 196.242 220.875 199.126C220.875 202.01 223.213 204.347 226.097 204.347Z" fill="#F5F5F5"/>
<path d="M255.383 249.92H233.716V251.044H255.383V249.92Z" fill="#EBEBEB"/>
<path d="M254.888 251.046H234.211V253.349H254.888V251.046Z" fill="#E0E0E0"/>
<path d="M257.028 253.349H232.07V254.473H257.028V253.349Z" fill="#EBEBEB"/>
<path d="M256.457 254.473H232.642V256.776H256.457V254.473Z" fill="#E0E0E0"/>
<path d="M251.417 230.424C251.417 230.612 251.361 230.796 251.256 230.953C251.152 231.109 251.003 231.231 250.829 231.303C250.656 231.375 250.464 231.394 250.28 231.357C250.095 231.32 249.926 231.23 249.793 231.097C249.66 230.964 249.569 230.794 249.533 230.61C249.496 230.425 249.515 230.234 249.587 230.06C249.659 229.886 249.781 229.738 249.937 229.633C250.093 229.529 250.277 229.473 250.465 229.473C250.718 229.473 250.96 229.573 251.138 229.752C251.316 229.93 251.417 230.172 251.417 230.424Z" fill="#FAFAFA"/>
<path d="M91.7656 274.314C91.7656 274.314 104.444 288.791 120.576 282.736C120.576 282.736 124.029 274.632 124.077 268.714C124.077 267.985 124.077 267.257 124.124 266.574C124.219 259.881 124.455 256.103 124.455 256.103C123.698 255.829 99.7606 246.36 99.8079 247.134C100.186 265.254 91.7656 274.314 91.7656 274.314Z" fill="#FFCDAA"/>
<path d="M129.468 255.418C129.468 255.418 102.55 261.519 98.86 245.311C95.17 229.103 89.2093 218.996 106.24 214.398C123.271 209.845 128.049 215.308 130.651 220.407C133.205 225.552 136.375 253.415 129.468 255.418Z" fill="#FFCDAA"/>
<path d="M99.7602 249.728C99.3817 249.956 93.6102 251.686 82.6348 230.607C80.9318 227.283 79.7491 220.181 83.7702 213.852C87.7914 207.524 102.031 202.562 113.858 200.422C125.685 198.282 128.523 204.656 131.314 211.121C134.247 217.859 142.668 223.459 142.668 223.459C132.45 228.922 120.197 221.091 115.939 222.366C111.682 223.641 110.168 230.106 109.837 232.2C109.506 234.249 109.032 235.979 103.687 234.158C98.341 232.291 101.274 241.442 102.126 243.218C102.126 243.172 102.835 247.816 99.7602 249.728Z" fill="#263238"/>
<path d="M151.649 313.275L192.237 335.589L233 271.458L183.715 254.326L151.649 313.275Z" fill="#292C47"/>
<path d="M154.197 311.385L192.192 332.25L230.276 272.247L184.198 256.214L154.197 311.385Z" fill="white"/>
<path d="M140.316 300.142C140.316 300.142 147.388 296.76 150.463 295.003C153.582 293.246 161.533 290.83 162.191 290.215C162.85 289.644 185.824 288.238 187.229 287.008C188.635 285.778 189.997 289.819 184.023 291.137C178.049 292.455 169.747 295.618 169.307 297.946C168.868 300.274 175.413 300.845 176.116 302.733C176.775 304.666 175.94 304.227 174.974 304.622C174.051 305.018 167.155 301.24 164.124 302.294C161.093 303.392 156.481 301.899 154.153 302.69C151.825 303.48 140.536 307.258 140.536 307.258L140.316 300.142Z" fill="#FFCDAA"/>
<path d="M194.214 327.55C194.214 327.55 200.144 322.191 203.043 319.951C205.898 317.711 211.301 311.122 212.092 310.771C212.882 310.375 223.161 289.247 224.874 288.412C226.543 287.578 223.293 284.723 219.735 289.818C216.177 294.913 209.939 301.502 207.567 301.019C205.195 300.536 207.216 294.123 205.678 292.761C204.141 291.399 204.185 292.366 203.438 293.068C202.691 293.771 203.614 301.766 201.418 304.182C199.221 306.598 198.826 311.561 197.201 313.45C195.575 315.339 187.581 324.475 187.581 324.475L194.214 327.55Z" fill="#FFCDAA"/>
<path d="M66.3889 613.068C66.3889 613.068 65.1151 621.985 64.9394 623.303C64.7637 624.621 50.6635 622.512 50.6635 622.512L49.5214 611.882C49.5214 611.926 64.6319 611.838 66.3889 613.068Z" fill="#424773"/>
<path d="M65.0701 622.207C65.0701 622.207 69.5505 627.565 73.8552 629.937C78.2039 632.266 84.9685 633.188 87.5601 635.648C89.405 637.405 94.2808 644.916 76.3151 644.784C58.3494 644.653 49.696 645.839 47.7633 642.94C45.8306 640.04 50.5306 621.635 50.5306 621.635C50.5306 621.635 54.7914 623.129 65.0701 622.207Z" fill="black"/>
<path d="M167.595 613.068C167.595 613.068 166.321 621.985 166.145 623.303C165.97 624.621 151.87 622.512 151.87 622.512L150.727 611.882C150.684 611.926 165.794 611.838 167.595 613.068Z" fill="#424773"/>
<path d="M166.277 622.203C166.277 622.203 170.758 627.562 175.062 629.934C179.411 632.262 195.312 634.195 197.86 636.611C199.705 638.368 202.78 645.396 177.478 644.737C159.513 644.254 150.859 645.792 148.927 642.892C146.994 639.993 151.694 621.588 151.694 621.588C151.694 621.588 155.735 623.214 166.277 622.203Z" fill="black"/>
<path d="M78.0741 384.082C78.0741 384.082 64.8085 405.167 65.7749 424.231C66.7852 443.294 60.9431 464.115 58.9664 484.014C56.7262 506.196 47.6335 558.731 47.326 570.635C46.9746 582.495 48.7316 620.403 48.7316 620.403L66.917 620.799C66.917 620.799 82.2031 528.95 86.1565 519.55C90.1098 510.193 109.745 443.338 110.404 435.871C111.15 428.403 78.0741 384.082 78.0741 384.082Z" fill="#467BFB"/>
<path d="M147.915 386.94C147.915 386.94 157.93 439.168 159.248 450.852C160.566 462.536 161.444 507.297 162.103 514.588C162.762 521.88 166.496 609.995 170.01 620.801H146.729C146.729 620.801 128.851 556.757 128.851 526.448C128.851 496.139 115.059 460.559 106.142 440.573C97.2248 420.587 76.8433 420.104 71.3525 383.03C71.3965 383.03 140.536 375.168 147.915 386.94Z" fill="#467BFB"/>
<path d="M206.425 318.766C206.425 318.766 206.381 318.766 206.425 318.766C206.514 318.855 206.558 318.855 206.425 318.766Z" fill="#323657"/>
<path d="M63.0937 434.335C63.0937 434.335 74.0312 437.542 92.6558 439.606C111.28 441.671 157.842 438.859 158.105 436.663C158.413 434.467 148.09 354.741 148.661 350.612C149.232 346.527 149.584 331.856 149.584 331.856C149.803 335.853 153.888 352.238 158.808 361.155C160.609 364.361 166.583 374.508 169.438 372.18C183.363 361.067 204.974 319.117 206.336 318.766C205.194 318.283 196.101 314.066 194.827 313.671C193.729 313.319 183.67 323.949 177.564 330.538C174.841 333.481 172.908 335.634 172.908 335.634C171.151 331.68 164.738 306.73 162.761 298.077C158.281 278.618 158.94 277.783 158.94 277.783C145.323 273.654 124.634 265.264 124.634 265.264L97.3558 264.166C97.3558 264.166 72.3181 269.701 62.4348 274.137C61.5123 274.577 61.5123 296.496 58.9207 302.25L67.091 319.513C67.091 319.513 71.8349 353.687 72.8013 368.886C73.2845 375.87 63.0937 434.335 63.0937 434.335Z" fill="#444444"/>
<path d="M57.822 330.713C58.5248 332.997 61.7753 334.974 63.8837 335.808C65.2454 336.336 66.7389 336.511 68.2324 336.248L69.2866 336.028L87.9991 332.558C87.9991 332.558 92.0841 285.425 62.4342 274.136C61.6874 274.4 51.277 309.629 57.822 330.713Z" fill="#444444"/>
<path d="M63.8847 335.809C65.2464 336.336 66.7399 336.511 68.2334 336.248L69.2876 336.028L67.4427 311.957L63.8847 335.809Z" fill="#444444"/>
<path d="M172.951 335.631L175.236 345.294C175.236 345.294 177.695 335.587 177.608 330.535C174.884 333.478 172.951 335.631 172.951 335.631Z" fill="#444444"/>
</svg>
