<svg width="319" height="449" viewBox="0 0 319 449" fill="none" xmlns="http://www.w3.org/2000/svg">
<path d="M319 313.577C319 324.996 291.093 334.253 256.665 334.253C222.242 334.253 194.332 324.996 194.332 313.577C194.332 302.158 222.242 292.901 256.665 292.901C291.093 292.901 319 302.158 319 313.577Z" fill="#006AFF" fill-opacity="0.1"/>
<path d="M246.349 296.088L247.057 301.794L227.061 308.888C227.061 308.888 223.507 310.129 225.764 311.717C225.764 311.717 230.101 314.715 236.506 311.786L250.177 305.635L253.487 304.421L253.312 295.942L246.349 296.088Z" fill="#FCC3A2"/>
<path d="M253.55 304.188L250.033 305.749L236.567 311.55C230.165 314.48 225.831 311.484 225.831 311.484C223.568 309.893 226.847 308.444 226.847 308.444L231.7 306.461L245.149 300.645L244.871 298.096C244.871 298.096 244.719 297.022 246.029 296.821L249.896 297.061C249.896 297.061 251.402 297.449 250.994 298.636L250.407 300.115L253.445 298.79L253.55 304.188Z" fill="#006AFF"/>
<path d="M232.147 308.85C229.985 308.85 229.027 307.553 229.027 307.553L231.7 306.461L244.322 301.002C245.657 301.295 247.44 301.577 249.357 301.577C249.586 301.577 249.816 301.573 250.048 301.565L248.48 302.257C248.356 302.149 248.195 302.084 248.018 302.084C248.006 302.084 247.993 302.084 247.981 302.084C247.615 302.109 247.338 302.407 247.333 302.764L245.916 303.39C245.815 303.333 245.7 303.3 245.577 303.3C245.562 303.3 245.546 303.3 245.53 303.302C245.217 303.319 244.965 303.546 244.897 303.838L242.929 304.707C242.818 304.632 242.686 304.589 242.543 304.589C242.528 304.589 242.514 304.589 242.5 304.59C242.168 304.611 241.904 304.864 241.858 305.181L240.247 305.892C240.159 305.852 240.063 305.83 239.961 305.83C239.946 305.83 239.931 305.83 239.916 305.831C239.622 305.849 239.384 306.045 239.301 306.31L237.601 307.06C237.538 307.041 237.472 307.032 237.404 307.032C237.388 307.032 237.372 307.032 237.355 307.033C237.095 307.047 236.877 307.205 236.773 307.425L235.474 307.999C235.17 308.143 234.879 308.265 234.598 308.369C234.535 308.349 234.467 308.339 234.398 308.339C234.383 308.339 234.369 308.339 234.354 308.341C234.143 308.351 233.96 308.456 233.842 308.612C233.211 308.781 232.647 308.85 232.147 308.85Z" fill="#444444"/>
<path d="M225.031 310.288C225.031 310.288 224.565 311.518 225.625 312.92C225.625 312.92 230.493 316.387 236.281 313.503L253.656 305.909L253.551 304.188L234.724 311.714C234.724 311.714 228.71 313.947 225.031 310.288Z" fill="#EBEBEC"/>
<path d="M234.395 309.723C234.03 309.723 233.726 309.442 233.703 309.074C233.692 308.9 233.746 308.739 233.842 308.612C234.085 308.545 234.337 308.465 234.598 308.369C234.864 308.452 235.066 308.693 235.085 308.988C235.109 309.369 234.818 309.698 234.438 309.721C234.423 309.723 234.41 309.723 234.395 309.723Z" fill="#892A28"/>
<path d="M233.842 308.612C233.96 308.456 234.143 308.352 234.354 308.341C234.369 308.339 234.383 308.339 234.398 308.339C234.467 308.339 234.534 308.349 234.598 308.369C234.337 308.465 234.085 308.545 233.842 308.612Z" fill="#5C110C"/>
<path d="M237.4 308.415C237.037 308.415 236.729 308.134 236.709 307.764C236.701 307.643 236.724 307.528 236.773 307.425L237.601 307.061C237.869 307.14 238.069 307.383 238.088 307.678C238.111 308.058 237.823 308.388 237.439 308.414C237.427 308.415 237.414 308.415 237.4 308.415Z" fill="#892A28"/>
<path d="M236.773 307.424C236.877 307.205 237.095 307.046 237.355 307.033C237.372 307.031 237.388 307.031 237.404 307.031C237.472 307.031 237.538 307.041 237.601 307.06L236.773 307.424Z" fill="#5C110C"/>
<path d="M239.957 307.212C239.592 307.212 239.292 306.93 239.271 306.564C239.265 306.475 239.275 306.389 239.301 306.309L240.247 305.892C240.472 305.994 240.634 306.213 240.652 306.477C240.674 306.858 240.382 307.186 240.002 307.21C239.987 307.21 239.972 307.212 239.957 307.212Z" fill="#892A28"/>
<path d="M239.301 306.31C239.384 306.046 239.622 305.849 239.916 305.831C239.931 305.83 239.946 305.83 239.961 305.83C240.063 305.83 240.159 305.852 240.247 305.892L239.301 306.31Z" fill="#5C110C"/>
<path d="M242.542 305.973C242.178 305.973 241.874 305.692 241.851 305.326C241.848 305.276 241.85 305.228 241.858 305.181L242.93 304.707C243.103 304.823 243.221 305.015 243.236 305.239C243.259 305.62 242.967 305.95 242.587 305.972C242.572 305.972 242.557 305.973 242.542 305.973Z" fill="#892A28"/>
<path d="M241.858 305.181C241.904 304.864 242.168 304.611 242.5 304.59C242.513 304.589 242.528 304.589 242.543 304.589C242.686 304.589 242.818 304.632 242.929 304.707L241.858 305.181Z" fill="#5C110C"/>
<path d="M245.578 304.684C245.214 304.684 244.904 304.401 244.881 304.032C244.878 303.966 244.883 303.901 244.897 303.839L245.916 303.39C246.111 303.501 246.248 303.706 246.263 303.947C246.286 304.329 245.998 304.657 245.616 304.683C245.604 304.684 245.591 304.684 245.578 304.684Z" fill="#892A28"/>
<path d="M244.897 303.838C244.965 303.546 245.217 303.319 245.53 303.302C245.546 303.3 245.562 303.3 245.577 303.3C245.7 303.3 245.815 303.333 245.916 303.39L244.897 303.838Z" fill="#5C110C"/>
<path d="M248.021 303.47C247.661 303.47 247.355 303.187 247.334 302.82C247.333 302.801 247.333 302.783 247.333 302.764L248.48 302.257C248.615 302.375 248.704 302.543 248.715 302.733C248.739 303.114 248.451 303.444 248.064 303.469C248.05 303.469 248.036 303.47 248.021 303.47Z" fill="#892A28"/>
<path d="M247.333 302.764C247.338 302.407 247.615 302.109 247.98 302.083C247.993 302.083 248.006 302.083 248.018 302.083C248.195 302.083 248.356 302.149 248.48 302.257L247.333 302.764Z" fill="#5C110C"/>
<path d="M234.021 305.92L234.028 305.713L234.017 305.92H234.021L234.028 305.713L234.017 305.92C234.032 305.92 234.493 305.947 235.071 306.198C235.651 306.451 236.345 306.915 236.893 307.824C237.057 308.095 237.408 308.183 237.678 308.02C237.949 307.856 238.037 307.506 237.874 307.235C237.168 306.06 236.216 305.433 235.453 305.118C234.688 304.801 234.104 304.78 234.058 304.778C233.741 304.767 233.478 305.015 233.468 305.331C233.457 305.647 233.705 305.911 234.021 305.92Z" fill="white"/>
<path d="M236.586 304.751L236.59 304.596L236.582 304.751H236.586L236.59 304.596L236.582 304.751C236.597 304.751 237.057 304.777 237.636 305.028C238.214 305.28 238.909 305.743 239.458 306.652C239.621 306.923 239.972 307.011 240.243 306.849C240.514 306.685 240.602 306.334 240.439 306.063C239.732 304.887 238.781 304.262 238.017 303.948C237.251 303.632 236.667 303.611 236.621 303.609C236.304 303.598 236.041 303.848 236.032 304.163C236.022 304.478 236.27 304.742 236.586 304.751Z" fill="white"/>
<path d="M239.065 303.402L239.072 303.164L239.061 303.402H239.065L239.072 303.164L239.061 303.402C239.076 303.402 239.535 303.428 240.114 303.678C240.694 303.932 241.388 304.395 241.938 305.306C242.1 305.577 242.451 305.663 242.722 305.501C242.993 305.338 243.081 304.987 242.919 304.716C242.21 303.539 241.26 302.913 240.496 302.599C239.731 302.283 239.148 302.261 239.1 302.259C238.783 302.249 238.521 302.497 238.511 302.813C238.502 303.128 238.75 303.393 239.065 303.402Z" fill="white"/>
<path d="M242.206 302.306L242.211 302.116L242.202 302.306H242.206L242.211 302.116L242.202 302.306C242.217 302.306 242.677 302.333 243.256 302.583C243.836 302.837 244.531 303.3 245.082 304.21C245.245 304.48 245.596 304.568 245.867 304.404C246.137 304.242 246.225 303.891 246.062 303.62C245.353 302.445 244.402 301.818 243.638 301.503C242.873 301.188 242.289 301.165 242.243 301.163C241.925 301.154 241.663 301.4 241.653 301.716C241.642 302.032 241.89 302.296 242.206 302.306Z" fill="white"/>
<path d="M244.557 301.12L244.562 300.913L244.553 301.12H244.557L244.562 300.913L244.553 301.12C244.566 301.12 245.027 301.146 245.605 301.396C246.184 301.65 246.879 302.113 247.429 303.025C247.592 303.295 247.943 303.383 248.214 303.22C248.485 303.057 248.573 302.705 248.409 302.434C247.701 301.258 246.75 300.631 245.986 300.317C245.221 300.001 244.639 299.979 244.592 299.978C244.275 299.968 244.012 300.216 244.003 300.532C243.993 300.848 244.241 301.11 244.557 301.12Z" fill="white"/>
<path d="M231.024 307.303L231.029 307.111L231.02 307.303H231.024L231.029 307.111L231.02 307.303C231.035 307.303 231.496 307.327 232.073 307.578C232.653 307.83 233.346 308.293 233.895 309.203C234.058 309.474 234.41 309.561 234.681 309.399C234.951 309.236 235.039 308.885 234.876 308.614C234.17 307.437 233.218 306.811 232.455 306.498C231.688 306.182 231.104 306.162 231.058 306.159C230.741 306.149 230.479 306.399 230.47 306.714C230.46 307.03 230.708 307.293 231.024 307.303Z" fill="white"/>
<path d="M256.411 87.6326L243.992 123.85C243.992 123.85 245.852 130.119 239.405 135.798L213.745 164.689L208.492 160.944L232.978 124.706L240.298 83.4812C240.298 83.4812 244.428 70.9078 253.817 73.7693C253.817 73.7693 263.016 75.5076 256.411 87.6326Z" fill="#F4B78E"/>
<path d="M205.655 169.775C204.785 169.453 203.506 171.707 200.926 170.3C202.321 167.579 203.295 166.076 203.848 165.517C204.666 164.692 205.213 164.888 206.377 165.014C207.32 165.121 208.254 165.536 209.203 165.594C210.167 165.65 212.123 163.703 213.054 163.096L214.148 163.764C214.148 163.764 212.298 168.481 210.252 171.713L205.655 169.775Z" fill="#F8B78F"/>
<path d="M199.83 166.216C201.054 164.886 203.552 162.13 203.959 162.04L207.748 160.685L209.823 159.119C211.454 161.282 213.054 163.096 213.054 163.096C210.546 165.568 210.011 166.224 210.011 166.224C210.011 166.224 208.659 167.492 205.291 166.174L203.711 165.806C203.711 165.806 201.463 168.082 199.83 166.216Z" fill="#F8B78F"/>
<path d="M210.847 170.842C211.449 169.858 210.403 169.559 210.403 169.559C209.484 168.96 209.04 169.765 209.04 169.765L209.292 169.353C209.312 168.74 208.423 168.532 208.423 168.532C207.537 168.116 207.116 169.053 207.116 169.053L207.534 168.251C207.632 167.688 206.74 167.36 206.74 167.36C205.616 166.891 205.277 167.793 205.277 167.793L205.074 168.129C205.074 168.129 203.383 166.216 201.707 169.023L200.926 170.3C200.926 170.3 201.577 171.469 203.478 170.897C203.478 170.897 204.341 172.382 205.763 171.68C205.763 171.68 206.601 172.682 207.796 172.205C207.796 172.205 208.842 173.237 209.588 172.618L210.847 170.842Z" fill="#F8B78F"/>
<path d="M255.119 300.491C249.38 303.01 241.97 300.359 241.97 300.359L241.19 213.449L243.195 149.18H266.697L261.124 232.069L255.119 300.491Z" fill="#1D2B4F"/>
<path d="M282.542 302.933L283.25 308.641L263.251 315.734C263.251 315.734 259.7 316.975 261.958 318.563C261.958 318.563 266.297 321.56 272.702 318.631L286.371 312.481L289.683 311.269L289.508 302.791L282.542 302.933Z" fill="#FCC3A2"/>
<path d="M289.746 311.037L286.229 312.597L272.764 318.398C266.361 321.328 262.021 318.33 262.021 318.33C259.764 316.742 263.043 315.291 263.043 315.291L267.896 313.307L281.342 307.494L281.063 304.942C281.063 304.942 280.915 303.868 282.225 303.666L286.088 303.907C286.088 303.907 287.598 304.296 287.192 305.484L286.602 306.964L289.638 305.635L289.746 311.037Z" fill="#006AFF"/>
<path d="M265.222 314.401L265.22 314.4L267.896 313.308L265.222 314.401Z" fill="#5E6781"/>
<path d="M268.346 315.697C266.216 315.697 265.25 314.44 265.221 314.401L267.896 313.307L281.342 307.494L281.063 304.942C281.063 304.942 281.059 304.906 281.059 304.845C281.059 304.576 281.156 303.831 282.225 303.666L286.088 303.907C286.088 303.907 287.259 304.209 287.262 305.093C287.262 305.213 287.24 305.343 287.192 305.484L286.602 306.964L286.327 308.374L284.675 309.103C284.552 308.996 284.392 308.931 284.217 308.931C284.202 308.931 284.187 308.931 284.172 308.932C283.811 308.956 283.532 309.254 283.529 309.61L282.11 310.236C282.009 310.179 281.892 310.146 281.769 310.146C281.754 310.146 281.74 310.146 281.725 310.148C281.41 310.167 281.156 310.393 281.09 310.687L279.127 311.554C279.014 311.478 278.88 311.435 278.737 311.435C278.722 311.435 278.707 311.435 278.693 311.436C278.36 311.457 278.098 311.711 278.052 312.028L276.443 312.74C276.353 312.698 276.256 312.676 276.153 312.676C276.139 312.676 276.124 312.676 276.109 312.677C275.817 312.695 275.578 312.894 275.493 313.158L273.797 313.908C273.733 313.887 273.665 313.876 273.595 313.876C273.58 313.876 273.565 313.878 273.551 313.878C273.287 313.894 273.069 314.054 272.965 314.275L271.669 314.847C271.367 314.99 271.076 315.112 270.796 315.216C270.73 315.195 270.661 315.184 270.591 315.184C270.576 315.184 270.562 315.185 270.548 315.185C270.338 315.2 270.156 315.305 270.038 315.459C269.408 315.628 268.846 315.697 268.346 315.697Z" fill="#444444"/>
<path d="M261.225 317.134C261.225 317.134 260.761 318.364 261.822 319.766C261.822 319.766 266.686 323.236 272.48 320.349L289.852 312.756L289.746 311.037L270.918 318.56C270.918 318.56 264.906 320.793 261.225 317.134Z" fill="#EBEBEC"/>
<path d="M270.584 316.569C270.221 316.569 269.922 316.287 269.896 315.921C269.886 315.747 269.941 315.586 270.038 315.459C270.281 315.394 270.533 315.313 270.796 315.216C271.061 315.299 271.262 315.54 271.278 315.837C271.301 316.215 271.011 316.545 270.632 316.567C270.615 316.569 270.599 316.569 270.584 316.569Z" fill="#892A28"/>
<path d="M270.038 315.46C270.156 315.305 270.338 315.201 270.548 315.186C270.563 315.186 270.576 315.185 270.591 315.185C270.661 315.185 270.731 315.195 270.796 315.217C270.533 315.313 270.281 315.395 270.038 315.46Z" fill="#5C110C"/>
<path d="M273.592 315.261C273.23 315.261 272.925 314.975 272.9 314.61C272.893 314.49 272.917 314.377 272.965 314.275L273.797 313.908C274.063 313.99 274.265 314.23 274.284 314.524C274.307 314.905 274.019 315.235 273.635 315.26C273.62 315.261 273.607 315.261 273.592 315.261Z" fill="#892A28"/>
<path d="M272.965 314.275C273.069 314.054 273.287 313.894 273.551 313.878C273.565 313.878 273.58 313.876 273.595 313.876C273.665 313.876 273.733 313.887 273.797 313.908L272.965 314.275Z" fill="#5C110C"/>
<path d="M276.153 314.057C275.791 314.057 275.485 313.777 275.462 313.411C275.456 313.323 275.469 313.237 275.493 313.159L276.443 312.74C276.666 312.843 276.829 313.063 276.845 313.323C276.869 313.708 276.575 314.033 276.197 314.056C276.183 314.057 276.168 314.057 276.153 314.057Z" fill="#892A28"/>
<path d="M275.493 313.158C275.578 312.894 275.817 312.695 276.109 312.677C276.124 312.676 276.139 312.676 276.153 312.676C276.256 312.676 276.353 312.697 276.443 312.739L275.493 313.158Z" fill="#5C110C"/>
<path d="M278.735 312.822C278.374 312.822 278.07 312.541 278.047 312.173C278.044 312.124 278.046 312.075 278.052 312.029L279.127 311.555C279.299 311.671 279.417 311.864 279.43 312.087C279.452 312.466 279.161 312.797 278.78 312.82C278.765 312.821 278.75 312.822 278.735 312.822Z" fill="#892A28"/>
<path d="M278.052 312.028C278.099 311.711 278.36 311.456 278.693 311.436C278.707 311.435 278.722 311.435 278.737 311.435C278.88 311.435 279.014 311.478 279.127 311.554L278.052 312.028Z" fill="#5C110C"/>
<path d="M281.769 311.53C281.407 311.53 281.1 311.244 281.074 310.878C281.071 310.812 281.077 310.748 281.09 310.687L282.11 310.236C282.305 310.348 282.444 310.552 282.459 310.793C282.482 311.173 282.193 311.504 281.812 311.528C281.797 311.53 281.784 311.53 281.769 311.53Z" fill="#892A28"/>
<path d="M281.09 310.687C281.156 310.393 281.41 310.167 281.726 310.148C281.74 310.146 281.754 310.146 281.769 310.146C281.892 310.146 282.009 310.179 282.11 310.236L281.09 310.687Z" fill="#5C110C"/>
<path d="M284.217 310.316C283.854 310.316 283.551 310.033 283.53 309.666C283.529 309.647 283.527 309.629 283.529 309.61L284.675 309.104C284.808 309.221 284.897 309.391 284.908 309.582C284.932 309.963 284.641 310.29 284.26 310.315C284.246 310.315 284.231 310.316 284.217 310.316Z" fill="#892A28"/>
<path d="M283.529 309.61C283.532 309.254 283.811 308.956 284.173 308.932C284.187 308.931 284.202 308.931 284.217 308.931C284.392 308.931 284.552 308.996 284.675 309.103L283.529 309.61Z" fill="#5C110C"/>
<path d="M270.217 312.767L270.224 312.528L270.213 312.767H270.217L270.224 312.528L270.213 312.767C270.227 312.767 270.689 312.792 271.267 313.044C271.847 313.298 272.541 313.761 273.089 314.67C273.252 314.941 273.604 315.029 273.874 314.865C274.145 314.703 274.233 314.352 274.07 314.081C273.363 312.905 272.412 312.279 271.649 311.964C270.884 311.647 270.3 311.626 270.252 311.624C269.937 311.614 269.674 311.861 269.663 312.177C269.653 312.493 269.901 312.757 270.217 312.767Z" fill="white"/>
<path d="M272.778 311.598L272.783 311.442L272.775 311.598H272.778L272.783 311.442L272.775 311.598C272.789 311.598 273.251 311.624 273.829 311.874C274.409 312.128 275.104 312.591 275.652 313.499C275.813 313.77 276.165 313.856 276.436 313.694C276.707 313.531 276.794 313.18 276.631 312.909C275.927 311.735 274.975 311.109 274.211 310.794C273.444 310.479 272.862 310.457 272.814 310.454C272.499 310.445 272.234 310.693 272.225 311.009C272.215 311.324 272.462 311.587 272.778 311.598Z" fill="white"/>
<path d="M275.261 310.25L275.267 310.06L275.259 310.25H275.261L275.267 310.06L275.259 310.25C275.272 310.25 275.731 310.276 276.31 310.526C276.889 310.78 277.584 311.242 278.134 312.155C278.296 312.424 278.647 312.512 278.918 312.35C279.189 312.187 279.277 311.835 279.115 311.565C278.406 310.387 277.455 309.761 276.691 309.446C275.925 309.131 275.343 309.11 275.295 309.108C274.98 309.098 274.717 309.347 274.707 309.663C274.698 309.979 274.946 310.242 275.263 310.251L275.261 310.25Z" fill="white"/>
<path d="M278.402 309.152L278.409 308.913L278.398 309.152H278.402L278.409 308.913L278.398 309.152C278.411 309.152 278.872 309.178 279.451 309.43C280.029 309.683 280.724 310.148 281.274 311.058C281.437 311.329 281.789 311.417 282.059 311.253C282.33 311.091 282.418 310.74 282.255 310.469C281.547 309.291 280.597 308.665 279.833 308.35C279.067 308.033 278.486 308.011 278.437 308.01C278.121 307.999 277.859 308.247 277.848 308.562C277.838 308.878 278.086 309.142 278.402 309.152Z" fill="white"/>
<path d="M280.75 307.97L280.757 307.731L280.746 307.97H280.75L280.757 307.731L280.746 307.97C280.759 307.97 281.22 307.995 281.797 308.246C282.377 308.498 283.071 308.961 283.622 309.872C283.785 310.142 284.137 310.228 284.407 310.066C284.677 309.903 284.765 309.551 284.602 309.281C283.893 308.105 282.944 307.481 282.179 307.166C281.414 306.851 280.833 306.829 280.784 306.827C280.468 306.817 280.205 307.066 280.196 307.382C280.186 307.696 280.434 307.96 280.75 307.97Z" fill="white"/>
<path d="M267.216 314.148L267.223 313.958L267.213 314.148H267.216L267.223 313.958L267.213 314.148C267.227 314.148 267.688 314.174 268.267 314.426C268.847 314.679 269.544 315.142 270.095 316.053C270.258 316.324 270.609 316.41 270.88 316.248C271.151 316.084 271.237 315.733 271.073 315.462C270.365 314.286 269.412 313.66 268.648 313.346C267.881 313.029 267.299 313.008 267.251 313.006C266.936 312.996 266.671 313.244 266.663 313.56C266.652 313.875 266.9 314.138 267.217 314.149L267.216 314.148Z" fill="white"/>
<path d="M241.984 294.953C241.984 294.953 241.279 294.886 241.312 295.688L241.52 299.779C241.52 299.779 241.356 300.605 242.004 300.864C242.004 300.864 247.096 303.835 255.585 301.05C255.585 301.05 256.488 300.898 256.514 299.967L256.618 296.106C256.618 296.106 256.957 294.978 255.85 294.981C255.85 294.981 250.288 297.046 241.984 294.953Z" fill="#3C698B"/>
<path d="M290.649 307.086C284.908 309.604 278.624 307.397 278.624 307.397L269.09 220.192L268.139 207.959L266.938 180.459H261.447L260.389 136.43L290.955 135.803C290.955 135.803 297.637 148.375 294.192 165.009L290.83 225.376L290.649 307.086Z" fill="#1D2B4F"/>
<path d="M277.684 301.303C277.684 301.303 277.031 301.266 277.094 302.121L277.486 306.474C277.486 306.474 277.375 307.363 277.981 307.611C277.981 307.611 282.817 310.536 290.513 307.157C290.513 307.157 291.341 306.95 291.318 305.955L291.233 301.83C291.233 301.83 291.493 300.612 290.474 300.667C290.474 300.667 285.438 303.14 277.684 301.303Z" fill="#3C698B"/>
<path d="M246.953 102.161L244.971 151.554C271.902 162.345 290.722 149.655 290.722 149.655C293.522 139.563 287.253 117.329 289.547 123.887C290.54 126.718 289.924 117.723 290.389 113.609C291.201 106.468 297.324 93.1402 297.91 85.8021C298.37 80.0506 299.567 77.3354 296.224 74.8058C292.151 71.7261 283.773 68.2833 279.696 66.5504L261.838 62.1362C259.576 61.1065 259.206 61.5699 256.671 60.826C255.053 60.3491 252.551 60.2231 250.935 60.2014C247.09 60.1513 246.212 60.3125 245.585 63.3949C245.222 65.182 245.038 66.9975 244.725 68.7887L246.953 102.161Z" fill="#F4B78E"/>
<path d="M250.936 60.2013C250.936 60.2013 245.175 56.3479 241.592 68.5867L235.278 92.9747C235.278 92.9747 234.99 99.0541 249.788 100.345C249.788 100.345 260.864 64.0654 250.936 60.2013Z" fill="#5D9EF9"/>
<path d="M261.447 73.3457L279.696 73.8281L281.837 45.229H261.447V73.3457Z" fill="#F4B78E"/>
<path d="M249.083 40.7751C249.56 45.0037 251.041 49.3732 253.845 54.9987C256.721 60.7679 265.99 56.4444 270.931 54.8714C275.879 53.2997 280.593 50.9259 284.674 47.6972C295.242 39.3335 298.101 8.12624 276.933 1.53062C261.597 -3.24808 248.331 8.60451 248.104 25.3022C248.104 25.3022 247.532 34.0535 249.083 40.7751Z" fill="#F4B78E"/>
<path d="M266.938 70.9328C257.477 69.1443 261.447 61.9241 261.447 61.9241C259.126 60.58 256.879 60.3429 256.879 60.3429C255.263 59.866 250.917 59.5517 249.3 59.5273C245.458 59.4798 244.23 63.531 243.6 66.6161C243.24 68.4005 243.24 68.4005 242.737 72.0099L242.862 119.018L241.814 159.554C264.768 177.9 295.178 167.405 295.178 167.405L297.91 85.8027C298.37 80.0512 299.567 77.336 296.224 74.8064L280.354 65.0105C280.354 65.0105 278.952 73.2036 266.938 70.9328Z" fill="#5D9EF9"/>
<path d="M305.045 87.1721L307.532 125.106C307.532 125.106 309.596 131.087 306.386 139.058L294.054 183.672L287.679 182.689L295.661 132.042L288.789 90.7111C288.789 90.7111 284.403 78.8422 294.078 77.1743C294.078 77.1743 303.079 74.5892 305.045 87.1721Z" fill="#F4B78E"/>
<path d="M289.116 191.854C288.192 191.956 288.065 194.544 285.13 194.444C285.149 191.387 285.343 189.61 285.588 188.861C285.946 187.755 286.526 187.686 287.621 187.275C288.505 186.945 289.531 186.897 290.405 186.521C291.291 186.14 292.162 183.518 292.72 182.558L293.998 182.666C293.998 182.666 294.467 187.709 294.091 191.518L289.116 191.854Z" fill="#F8B78F"/>
<path d="M282.312 191.292C282.811 189.551 283.8 185.967 284.122 185.706L286.898 182.792L288.047 180.458C290.477 181.658 292.72 182.557 292.72 182.557C291.593 185.896 291.41 186.722 291.41 186.722C291.41 186.722 290.773 188.463 287.168 188.799L285.594 189.183C285.594 189.183 284.61 192.223 282.312 191.292Z" fill="#F8B78F"/>
<path d="M294.231 190.472C294.327 189.321 293.26 189.525 293.26 189.525C292.17 189.4 292.135 190.321 292.135 190.321L292.173 189.84C291.918 189.283 291.029 189.496 291.029 189.496C290.053 189.522 290.096 190.549 290.096 190.549L290.111 189.646C289.944 189.099 289 189.207 289 189.207C287.784 189.291 287.889 190.252 287.889 190.252L287.856 190.641C287.856 190.641 285.485 189.694 285.249 192.954L285.13 194.444C285.13 194.444 286.234 195.199 287.673 193.836C287.673 193.836 289.116 194.769 290.072 193.505C290.072 193.505 291.265 194.024 292.123 193.058C292.123 193.058 293.517 193.511 293.906 192.62L294.231 190.472Z" fill="#F8B78F"/>
<path d="M291.702 71.9536C291.702 71.9536 284.583 75.5237 287.518 86.8046C287.518 86.8046 288.547 100.629 291.218 109.517C291.218 109.517 303.932 110.08 309.665 101.803C309.665 101.803 307.754 75.4831 291.702 71.9536Z" fill="#5D9EF9"/>
<path d="M268.79 18.0468C268.79 18.0468 273.53 16.8748 273.043 22.1643C273.043 22.1643 273.167 28.3426 272.087 30.8545C272.087 30.8545 274.11 31.5428 273.897 38.4338L276.708 38.3037C276.708 38.3037 276.229 30.4237 280.904 30.6771C280.904 30.6771 280.873 42.4443 278.68 49.0765L282.217 53.8295C282.217 53.8295 284.274 50.1225 288.195 43.6542C288.195 43.6542 300.794 27.4036 292.281 16.9818C292.281 16.9818 295.036 8.3945 286.102 4.1022C262.852 -7.07024 250.407 8.11945 250.407 8.11945C250.407 8.11945 246.665 12.0812 244.545 6.8174C244.545 6.81876 240.84 22.7469 268.79 18.0468Z" fill="#303443"/>
<path d="M278.164 40.0773C280.249 40.9552 282.889 39.4134 284.061 36.6345C285.235 33.8502 284.494 30.8843 282.408 30.0023C280.323 29.127 277.684 30.6662 276.509 33.4505C275.337 36.2294 276.078 39.1979 278.164 40.0773Z" fill="#F4B78E"/>
<path d="M278.306 37.1264C278.975 36.9069 278.877 36.5912 278.907 36.0099C278.925 35.5737 279.1 35.2526 279.349 34.9071C279.621 34.529 279.918 34.5074 280.215 34.5765C280.457 34.5426 280.727 34.5575 280.984 34.5846C281.807 34.6672 282.09 34.3434 281.918 33.4546C281.72 32.4357 280.609 32.0306 279.587 31.9493C279.155 31.9155 278.955 31.5998 279.526 31.3586C281.301 30.6175 282.8 32.0726 282.942 33.8123C282.989 34.4342 282.778 35.1509 282.181 35.4287L282.023 35.4626C281.72 36.0072 281.206 36.3568 280.904 36.9096L280.727 37.0925C280.64 37.3255 280.543 37.5532 280.404 37.751C279.991 38.3647 279.174 37.8892 278.605 38.0531C278.002 38.2279 277.708 37.3201 278.306 37.1264Z" fill="#DD957C"/>
<path d="M253.845 54.9989C253.845 54.9989 253.923 55.11 254.071 55.3187C254.22 55.53 254.45 55.8105 254.79 56.1248C255.129 56.4351 255.577 56.7725 256.163 57.0014C256.745 57.2277 257.432 57.3998 258.205 57.4445C259.756 57.5407 261.578 57.1735 263.49 56.6424C265.411 56.1086 267.414 55.3525 269.479 54.6602C269.973 54.4827 270.565 54.3187 270.997 54.1507C271.535 53.9733 271.942 53.7592 272.363 53.5424C273.219 53.0492 273.952 52.3785 274.601 51.6645C275.912 50.2324 276.756 48.5361 277.401 47.0769C278.059 45.6109 278.505 44.3318 278.799 43.4335C279.101 42.5339 279.274 42.019 279.274 42.019C279.274 42.019 279.2 42.5569 279.027 43.4932C278.836 44.424 278.566 45.7626 278.052 47.3289C277.5 48.8721 276.769 50.6944 275.451 52.3785C274.792 53.2132 273.974 53.9922 273.005 54.6087C272.491 54.9054 271.95 55.1994 271.464 55.3647C270.889 55.5896 270.436 55.7156 269.912 55.9121C267.889 56.6478 265.819 57.3754 263.802 57.851C261.794 58.3414 259.803 58.5189 258.112 58.2547C257.271 58.126 256.507 57.8659 255.913 57.496C255.309 57.141 254.881 56.6993 254.579 56.3199C254.27 55.9419 254.098 55.5869 254 55.3593C253.899 55.1236 253.845 54.9989 253.845 54.9989Z" fill="#DC9E7F"/>
<path d="M269.928 427.568C269.928 438.986 244.95 448.242 214.134 448.242C183.324 448.242 158.345 438.986 158.345 427.568C158.345 416.152 183.324 406.895 214.134 406.895C244.95 406.895 269.928 416.152 269.928 427.568Z" fill="#006AFF" fill-opacity="0.1"/>
<path d="M241.936 263.294C243.079 268.874 241.523 276.709 239.957 282.107C236.559 293.831 220.866 299.371 210.438 301.333C210.438 301.333 189.54 303.733 190.455 275.266L241.936 263.294Z" fill="#2A3348"/>
<path d="M250.211 217.563C250.211 217.563 243.339 225.657 229.676 245.189L232.036 249.196C232.036 249.196 255.442 237.401 262.91 224.168L250.211 217.563Z" fill="#F4B78E"/>
<path d="M246.262 212.722C246.262 212.722 252.49 224.971 259.068 225.596C259.068 225.596 262.716 225.826 263.449 223.077C263.449 223.077 266.009 219.787 259.059 203.564L246.262 212.722Z" fill="#F4B78E"/>
<path d="M233.008 165.475C233.008 165.475 240.76 164.443 244.76 172.297L261.142 204.792C261.142 204.792 259.434 213.452 243.339 215.128L228.48 185.368C228.48 185.368 223.732 169.567 233.008 165.475Z" fill="#1A2235"/>
<path d="M234.926 165.475C234.711 165.457 234.51 165.445 234.325 165.438C234.509 165.445 234.711 165.456 234.926 165.475ZM233.008 165.475C233.01 165.475 233.173 165.453 233.459 165.441C233.173 165.453 233.01 165.475 233.008 165.475ZM234.323 165.438C234.319 165.438 234.316 165.438 234.312 165.438C234.316 165.438 234.319 165.438 234.323 165.438ZM234.306 165.437C234.303 165.437 234.3 165.437 234.297 165.437C234.3 165.437 234.303 165.437 234.306 165.437Z" fill="#BCBEC0"/>
<path d="M243.339 215.128L242.182 212.81C240.661 191.962 238.924 176.447 238.924 176.447C238.227 171.788 237.857 166.03 232.91 165.519C232.943 165.505 232.974 165.49 233.008 165.475C233.01 165.475 233.173 165.454 233.459 165.441C233.586 165.435 233.738 165.431 233.911 165.431C234.03 165.431 234.159 165.433 234.297 165.437C234.3 165.437 234.303 165.437 234.306 165.437C234.307 165.437 234.31 165.437 234.312 165.439C234.316 165.439 234.319 165.439 234.323 165.439H234.324C234.51 165.446 234.711 165.458 234.926 165.475C237.811 166.908 240.237 168.956 241.443 172.055C243.131 176.392 242.87 181.142 242.917 185.709C242.965 190.682 243.225 195.649 243.545 200.61C243.738 203.595 243.015 209.975 245.897 211.958C246.551 212.407 247.356 212.58 248.2 212.58C249.663 212.58 251.244 212.062 252.365 211.563C256.329 209.798 259.431 207.596 260.523 203.564L261.142 204.792C261.142 204.792 260.99 205.564 260.348 206.693C259.028 209.008 255.644 212.823 247.27 214.532C246.066 214.777 244.757 214.98 243.339 215.128Z" fill="#0F1729"/>
<path d="M218.682 427.263L219.418 435.782C218.804 437.52 213.065 438.266 213.065 438.266C210.144 438.144 197.653 432.675 193.572 430.793C188.044 428.248 186.198 424.529 187.674 420.248C188.365 418.713 194.29 418.882 205.533 423.355C205.533 423.355 212.287 426.724 218.682 427.263Z" fill="#0B1225"/>
<path d="M213.065 436.348C210.144 436.224 197.653 430.754 193.572 428.875C189.701 427.092 187.639 424.731 187.258 422.005C186.79 425.543 188.818 428.605 193.572 430.793C197.653 432.675 210.144 438.145 213.065 438.267C213.065 438.267 218.804 437.52 219.418 435.782L219.276 434.124C218.218 435.676 213.065 436.348 213.065 436.348Z" fill="#000015"/>
<path d="M245.599 417.816L246.332 426.334C245.718 428.076 239.977 428.821 239.977 428.821C237.059 428.698 224.568 423.228 220.486 421.349C214.959 418.801 213.112 415.083 214.587 410.804C215.278 409.269 221.202 409.436 232.449 413.911C232.449 413.911 239.2 417.279 245.599 417.816Z" fill="#0B1225"/>
<path d="M239.977 426.9C237.059 426.78 224.568 421.309 220.486 419.428C216.613 417.644 214.555 415.283 214.173 412.56C213.706 416.096 215.73 419.158 220.486 421.349C224.568 423.228 237.059 428.698 239.977 428.821C239.977 428.821 245.718 428.076 246.332 426.334L246.188 424.676C245.13 426.228 239.977 426.9 239.977 426.9Z" fill="#000015"/>
<path d="M190.734 282.753L190.453 335.661L203.356 425.432C203.356 425.432 208.964 430.976 219.003 427.883L214.137 336.472L221.8 281.671L190.734 282.753Z" fill="#2A3348"/>
<path d="M219.418 339.143L231.947 419.251C231.947 419.251 240.129 424.382 245.76 419.637L241.515 330.897L242.245 269.929L217.51 280.588L219.418 339.143Z" fill="#2A3348"/>
<path d="M198.855 163.401L203.001 182.508L216.418 175.378L213.303 159.188L198.855 163.401Z" fill="#F4B78E"/>
<path d="M203.38 168.521C218.129 164.719 221.239 163.476 227.532 152.617C232.144 144.66 230.3 131.577 224.698 123.749C221.944 119.9 216.391 116.403 211.572 115.961C201.918 115.072 190.235 119.669 185.173 128.269C182.096 133.501 187.346 136.737 182.458 145.441C182.458 145.441 177.957 148.894 181.705 151.445C181.705 151.445 184.128 152.332 185.237 154.186C185.237 154.186 185.767 157.846 186.631 162.835C187.552 168.124 188.205 170.848 196.209 169.681C196.209 169.681 202.592 168.726 203.38 168.521Z" fill="#F4B78E"/>
<path d="M244.203 279.328C245.674 236.737 238.924 176.447 238.924 176.447C238.13 171.147 237.762 164.423 230.592 165.624C225.531 166.474 218.704 169.191 215.584 170.194C214.5 172.861 209.997 174.613 209.997 174.613C203.83 177.447 201.662 176.614 201.662 176.614C198.95 178.083 190.476 182.788 188.097 184.749C185.623 186.784 184.128 189.952 184.906 195.288L188.377 293.423C188.377 293.423 210.438 301.333 244.203 279.328Z" fill="#1A2235"/>
<path d="M188.097 184.748C189.246 183.801 191.811 182.217 194.461 180.667C191.808 182.219 189.245 183.802 188.097 184.748ZM194.479 180.658C194.48 180.656 194.481 180.655 194.484 180.654C194.481 180.655 194.48 180.656 194.479 180.658ZM200.371 177.319C200.775 177.097 201.134 176.899 201.437 176.735C201.132 176.901 200.773 177.097 200.371 177.319Z" fill="#BCBEC0"/>
<path d="M199.173 294.798C192.243 294.798 188.392 293.428 188.377 293.423L184.906 195.288C184.767 194.329 184.7 193.44 184.699 192.615C184.696 188.848 186.067 186.417 188.097 184.748C189.245 183.802 191.808 182.219 194.461 180.667C194.466 180.665 194.472 180.66 194.478 180.658C194.48 180.656 194.481 180.655 194.484 180.654C196.626 179.402 198.822 178.173 200.371 177.319C200.773 177.097 201.132 176.901 201.437 176.735C196.209 182.509 199.725 200.862 198.822 210.933C197.944 220.727 196.931 230.155 195.235 239.838C193.358 250.558 193.25 262.369 195.702 273.003C196.767 277.625 198.658 282.017 202.046 285.402C205.269 288.62 209.625 290.414 213.998 291.408C215.134 291.665 216.275 291.859 217.418 292.018C210.062 294.16 203.902 294.798 199.173 294.798Z" fill="#0F1729"/>
<path d="M176.702 227.139L172.696 254.19C172.696 254.19 172.035 261.652 177.695 263.674C177.695 263.674 183.26 264.987 186.317 256.195L192.242 230.005L176.702 227.139Z" fill="#F4B78E"/>
<path d="M186.459 186.526C186.459 186.526 178.546 189.63 177.641 202.735L173.86 230.272C173.86 230.272 183.871 238.976 193.877 233.379L196.209 199.961C196.209 199.961 196.209 187.958 186.459 186.526Z" fill="#1A2235"/>
<path d="M175.964 250.9C175.964 250.9 162.198 255.478 136.902 270.596L138.543 276.618C138.543 276.618 173.86 268.394 183.604 261.159L175.964 250.9Z" fill="#F4B78E"/>
<path d="M128.964 278.027C128.342 277.35 126.193 278.763 124.553 276.349C127.013 274.577 128.551 273.689 129.295 273.447C130.389 273.086 130.786 273.51 131.755 274.15C132.538 274.666 133.176 275.457 133.995 275.94C134.817 276.423 137.427 275.587 138.524 275.473L139.189 276.556C139.189 276.556 135.417 279.89 132.147 281.816L128.964 278.027Z" fill="#F8B78F"/>
<path d="M125.428 272.245C127.113 271.626 130.567 270.321 130.967 270.424L134.926 270.943L137.469 270.496C137.932 273.144 138.524 275.473 138.524 275.473C135.19 276.521 134.417 276.859 134.417 276.859C134.417 276.859 132.649 277.37 130.272 274.679L129.04 273.642C129.04 273.642 126.027 274.632 125.428 272.245Z" fill="#F8B78F"/>
<path d="M133.071 281.318C134.048 280.721 133.256 279.982 133.256 279.982C132.716 279.038 131.96 279.551 131.96 279.551L132.369 279.297C132.663 278.767 131.975 278.18 131.975 278.18C131.38 277.412 130.583 278.047 130.583 278.047L131.316 277.529C131.655 277.076 131.014 276.384 131.014 276.384C130.236 275.46 129.528 276.106 129.528 276.106L129.197 276.309C129.197 276.309 128.567 273.853 125.817 275.576L124.553 276.348C124.553 276.348 124.595 277.678 126.532 278.031C126.532 278.031 126.624 279.736 128.199 279.76C128.199 279.76 128.484 281.021 129.758 281.143C129.758 281.143 130.213 282.525 131.155 282.317L133.071 281.318Z" fill="#F8B78F"/>
<path d="M221.655 162.39C234.785 149.526 231.395 133.468 231.387 133.437C230.647 129.173 229.027 124.228 226.306 120.804C224.443 118.464 221.822 116.596 218.929 115.196C215.838 113.7 212.443 112.737 209.35 112.303C205.971 111.829 202.546 112.079 199.233 112.856C197.27 113.317 192.556 116.185 190.765 115.852C186.947 115.138 188.14 112.745 188.14 112.745C180.5 117.281 181.058 122.135 181.058 122.135C179.945 130.409 188.923 130.611 188.923 130.611C188.923 130.611 196.113 130.134 194.713 137.911C194.713 137.911 200.183 140.606 199.1 147.978L200.619 148.306C201.043 146.525 202.289 141.969 204.014 141.749C208.706 141.153 208.503 142.257 209.264 143.669C209.264 143.669 211.057 148.705 202.845 154.4L208.064 167.282L215.156 168.82L221.655 162.39Z" fill="#444444"/>
<path d="M185.321 129.79C195.901 131.466 207.002 131.394 217.821 130.409C222.411 129.992 227.175 128.059 228.032 124.689C228.177 124.114 227.883 123.515 227.747 122.95C227.302 122.193 226.831 121.463 226.306 120.804C224.443 118.464 221.822 116.596 218.929 115.196C215.838 113.7 212.443 112.737 209.35 112.303C205.971 111.829 202.546 112.079 199.233 112.856C197.27 113.317 192.556 116.185 190.765 115.852C186.947 115.138 188.14 112.745 188.14 112.745C180.5 117.281 181.058 122.135 181.058 122.135C180.439 126.724 182.927 128.826 185.263 129.792L185.321 129.79Z" fill="#444444"/>
<path d="M202.731 150.566C204.716 151.551 207.391 150.202 208.704 147.553C210.016 144.904 209.472 141.956 207.484 140.974C205.496 139.99 202.823 141.34 201.512 143.988C200.199 146.64 200.744 149.586 202.731 150.566Z" fill="#F4B78E"/>
<path d="M203.048 147.689C203.719 147.517 203.639 147.203 203.703 146.634C203.747 146.21 203.936 145.906 204.2 145.584C204.491 145.229 204.78 145.226 205.066 145.313C205.305 145.293 205.571 145.324 205.819 145.363C206.616 145.493 206.915 145.194 206.799 144.316C206.666 143.308 205.602 142.847 204.61 142.705C204.189 142.646 204.012 142.325 204.586 142.125C206.362 141.506 207.743 143.019 207.781 144.726C207.79 145.337 207.54 146.026 206.937 146.259L206.782 146.284C206.452 146.801 205.927 147.111 205.599 147.634L205.417 147.801C205.316 148.023 205.208 148.241 205.063 148.428C204.624 149.002 203.85 148.489 203.284 148.616C202.684 148.75 202.451 147.844 203.048 147.689Z" fill="#DD957C"/>
<path d="M124.669 374.545C124.669 385.961 96.761 395.218 62.3332 395.218C27.9108 395.218 0 385.961 0 374.545C0 363.126 27.9108 353.869 62.3332 353.869C96.761 353.869 124.669 363.126 124.669 374.545Z" fill="#006AFF" fill-opacity="0.1"/>
<path d="M72.3038 374.391L71.3866 358.111H82.3842L81.471 374.391H72.3038Z" fill="#F8B78F"/>
<path d="M71.0844 378.628C76.5229 380.955 82.3842 378.517 82.3842 378.517L101.601 370.818C105.759 368.139 100.368 366.251 100.368 366.251C97.139 364.779 92.0297 366.587 92.0297 366.587L81.7786 368.947C78.3304 372.634 72.064 370.149 72.064 370.149C72.064 370.149 70.4462 372.876 71.0844 378.628Z" fill="#231F20"/>
<path d="M71.0844 378.628C71.0844 378.628 77.0364 380.661 82.3842 378.517L101.252 370.958C101.252 370.958 104.043 369.601 102.522 367.513C102.522 367.513 103.988 367.973 103.176 372.615C102.694 373.351 100.926 374.301 97.4709 375.91C91.569 378.654 85.5777 381.631 79.0972 382.811C77.3169 383.135 75.355 383.116 73.595 382.658C73.2549 382.571 71.0844 381.949 71.0844 381.505V378.628Z" fill="#EBEBEC"/>
<path d="M71.0844 378.628L72.0585 378.918L73.0395 379.136C73.702 379.254 74.3659 379.328 75.0298 379.353C75.6964 379.376 76.3617 379.347 77.0229 379.292C77.6841 379.228 78.3398 379.143 78.9888 379.006C79.6392 378.884 80.2773 378.704 80.9101 378.518C81.5577 378.32 82.12 378.109 82.7405 377.81L86.4489 376.158L90.1721 374.547C91.4132 374.012 92.657 373.478 93.9062 372.967C96.4019 371.918 98.9071 370.905 101.422 369.911L101.355 369.944C101.77 369.722 102.162 369.458 102.414 369.145C102.67 368.839 102.747 368.516 102.561 368.132C102.385 367.748 102.027 367.386 101.641 367.079C101.247 366.777 100.815 366.502 100.368 366.251C100.873 366.362 101.364 366.537 101.834 366.774C102.3 367.018 102.777 367.298 103.13 367.793C103.302 368.042 103.43 368.365 103.427 368.711C103.427 369.058 103.302 369.383 103.138 369.649C102.797 370.172 102.347 370.527 101.895 370.837L101.878 370.847L101.828 370.868C99.3596 371.977 96.8856 373.067 94.3953 374.126C93.1569 374.663 91.9077 375.185 90.6585 375.7L86.9068 377.246L83.1375 378.749C82.5292 379.003 81.8124 379.242 81.1567 379.4C80.4833 379.57 79.8045 379.704 79.1189 379.784C78.4333 379.878 77.7423 379.919 77.054 379.937C76.363 379.931 75.6761 379.889 74.9932 379.8C74.3104 379.706 73.6411 379.564 72.9812 379.379C72.656 379.27 72.3255 379.17 72.0138 379.045L71.0844 378.628Z" fill="#919191"/>
<path d="M33.1758 365.446L32.2586 349.166H43.2535L42.343 365.446H33.1758Z" fill="#F8B78F"/>
<path d="M31.9565 369.683C37.3951 372.012 43.2536 369.569 43.2536 369.569L62.4741 361.871C66.6309 359.196 61.2371 357.306 61.2371 357.306C58.0125 355.834 52.8991 357.645 52.8991 357.645L42.648 360.005C39.1998 363.686 32.9361 361.207 32.9361 361.207C32.9361 361.207 31.3157 363.933 31.9565 369.683Z" fill="#231F20"/>
<path d="M31.9566 369.683C31.9566 369.683 37.9086 371.715 43.2537 369.569L62.1219 362.014C62.1219 362.014 64.9157 360.657 63.3914 358.569C63.3914 358.569 64.8601 359.032 64.0485 363.669C63.5635 364.406 61.7967 365.357 58.3404 366.965C52.4412 369.71 46.4471 372.687 39.9667 373.867C38.1891 374.192 36.2272 374.17 34.4685 373.714C34.1271 373.626 31.9566 373.004 31.9566 372.559V369.683Z" fill="#EBEBEC"/>
<path d="M31.9566 369.684L32.9307 369.975L33.9117 370.192C34.5715 370.311 35.2354 370.385 35.902 370.408C36.5686 370.433 37.2339 370.403 37.8951 370.347C38.5535 370.284 39.2134 370.2 39.861 370.064C40.5127 369.94 41.1495 369.761 41.7795 369.575C42.4285 369.376 42.9895 369.165 43.6141 368.865L47.3183 367.215L51.0416 365.603C52.2827 365.066 53.5265 364.536 54.7784 364.023C57.2714 362.976 59.7793 361.962 62.294 360.966L62.2249 361.001C62.6435 360.779 63.0324 360.514 63.2858 360.202C63.5405 359.897 63.6191 359.572 63.4334 359.189C63.2546 358.805 62.8996 358.442 62.5107 358.137C62.1165 357.834 61.687 357.559 61.2372 357.307C61.7425 357.418 62.2357 357.593 62.7031 357.834C63.1692 358.075 63.6462 358.355 64.0025 358.853C64.1719 359.098 64.2992 359.424 64.2965 359.769C64.2965 360.114 64.1746 360.441 64.0106 360.705C63.6665 361.229 63.2167 361.581 62.7668 361.893L62.7492 361.904L62.6991 361.927C60.2318 363.034 57.7578 364.123 55.2675 365.183C54.0264 365.719 52.7799 366.241 51.528 366.757L47.779 368.302L44.011 369.806C43.3986 370.059 42.6846 370.297 42.0261 370.456C41.3541 370.625 40.6767 370.761 39.9884 370.842C39.3028 370.936 38.6118 370.975 37.9235 370.994C37.2339 370.988 36.5456 370.946 35.8654 370.856C35.1826 370.763 34.5105 370.62 33.8521 370.436C33.5255 370.327 33.1977 370.226 32.8833 370.1L31.9566 369.684Z" fill="#919191"/>
<path d="M35.6959 204.82C34.5551 210.398 36.1091 218.235 37.6754 223.633C41.0762 235.356 58.2711 242.162 68.697 244.126C68.697 244.126 88.095 245.258 87.1764 216.792L35.6959 204.82Z" fill="#142B4E"/>
<path d="M24.7133 159.087C24.7133 159.087 31.5866 167.182 45.2548 186.712L42.8905 190.721C42.8905 190.721 19.4847 178.927 12.0166 165.695L24.7133 159.087Z" fill="#F4B78E"/>
<path d="M28.6641 154.247C28.6641 154.247 22.4356 166.5 15.859 167.122C15.859 167.122 12.2103 167.352 11.4773 164.603C11.4773 164.603 8.91788 161.313 15.8644 145.088L28.6641 154.247Z" fill="#F4B78E"/>
<path d="M41.9203 107C41.9203 107 34.169 105.968 30.1653 113.822L13.7846 146.317C13.7846 146.317 15.4945 154.977 31.5865 156.653L46.447 126.893C46.447 126.893 51.1945 111.092 41.9203 107Z" fill="#006AFF"/>
<path d="M41.9203 107C41.9149 107 41.5789 106.956 41.0166 106.956C40.8432 106.956 40.6494 106.96 40.4367 106.97C40.6494 106.96 40.8445 106.956 41.0166 106.956C41.5802 106.956 41.9149 107 41.9203 107Z" fill="#D1D3D4"/>
<path d="M31.5865 156.653C30.1666 156.504 28.8605 156.302 27.656 156.057C19.2814 154.348 15.8969 150.53 14.5786 148.215C13.9377 147.087 13.7846 146.317 13.7846 146.317L14.4038 145.088C15.4999 149.121 18.5985 151.323 22.5643 153.088C23.6821 153.587 25.2619 154.106 26.7238 154.106C27.5679 154.106 28.3741 153.932 29.0271 153.483C31.9117 151.5 31.1896 145.12 31.3792 142.138C31.7031 137.176 31.9618 132.205 32.012 127.234C32.0567 122.668 31.7952 117.917 33.4834 113.578C34.6906 110.48 37.1172 108.432 40.0031 107C40.1549 106.987 40.2998 106.977 40.4367 106.97C40.6494 106.96 40.8432 106.956 41.0166 106.956C41.5789 106.956 41.9149 107 41.9203 107C41.9528 107.015 41.9853 107.029 42.0179 107.044C37.0657 107.554 36.6986 113.315 36.0021 117.972C36.0021 117.972 35.0971 131.64 34.4752 150.866L31.5865 156.653Z" fill="#006AFF"/>
<path d="M86.9014 224.282L87.1819 277.185L84.525 366.957C84.525 366.957 78.9144 372.502 68.8773 369.411L61.256 279.583L59.6288 219.457L86.9014 224.282Z" fill="#142B4E"/>
<path d="M59.6289 224.476L35.3858 211.455L36.1188 272.422L31.8726 361.159C37.5062 365.907 45.6884 360.776 45.6884 360.776L58.6317 278.627L59.6289 224.476Z" fill="#142B4E"/>
<path d="M76.0731 104.929L71.9258 124.031L58.5096 116.903L61.6218 100.712L76.0731 104.929Z" fill="#F4B78E"/>
<path d="M76.0149 106.939C72.4787 106.62 68.8801 106.114 65.4657 105.288C60.7588 104.151 57.0031 96.8144 53.6673 93.3404C51.5388 91.1225 50.2395 87.91 48.7789 85.2084C44.1668 76.6793 44.6248 67.6449 50.2259 59.2568C52.9845 55.1311 58.5355 51.3862 63.3521 50.9133C73.0084 49.9595 84.6944 54.8845 89.7508 64.1018C92.8319 69.7097 88.5626 76.8853 93.4104 81.7764C93.4104 81.7764 97.7772 84.4564 94.0282 87.1879C94.0282 87.1879 90.1248 89.1091 89.6898 91.8717C89.6898 91.8717 89.4527 92.5627 89.0422 97.6544C88.7726 99.3629 89.1791 102.991 88.0233 104.426C85.6658 107.35 81.3789 107.347 77.9727 107.098C77.321 107.051 76.6707 106.998 76.0149 106.939Z" fill="#F4B78E"/>
<path d="M70.5046 97.9408C70.7119 101.426 72.1833 105.998 76.0149 106.94C76.6517 107.096 77.321 107.051 77.9727 107.099C81.3789 107.348 85.6658 107.351 88.0233 104.427C89.179 102.992 88.7726 99.3634 89.0422 97.6549C89.2251 96.4843 89.4704 93.2637 89.5693 92.5185C88.3621 92.2394 87.1345 92.1188 85.8989 92.1717C84.586 92.2299 83.2365 92.463 82.0401 93.0239C80.9819 93.5184 79.5742 94.3327 78.4537 93.555C77.6584 93.0049 77.2709 91.9441 77.0202 91.0498C76.4539 89.0297 75.4215 85.339 75.0638 83.2822L73.5476 83.6074L71.9787 90.6786C71.4069 93.2556 70.3406 95.1619 70.5046 97.9408Z" fill="black"/>
<path d="M90.2276 224.476L90.0217 136.813C90.7994 131.475 89.3036 128.309 86.8296 126.274C84.4477 124.315 75.9769 119.61 73.2644 118.139C73.2644 118.139 71.0979 118.972 64.9291 116.138C64.9291 116.138 60.4281 114.389 59.3428 111.721C56.2198 110.718 49.3952 108 44.3361 107.148C37.1619 105.948 36.7934 112.675 36.0021 117.972C36.0021 117.972 32.8249 165.911 34.2936 208.503C34.2936 208.503 56.2388 228.882 90.2276 224.476Z" fill="#006AFF"/>
<path d="M86.9041 224.833C88.0002 224.741 89.1058 224.621 90.2276 224.476C89.1071 224.621 87.9988 224.741 86.9041 224.833ZM86.8296 126.274C86.8255 126.27 86.8214 126.267 86.8174 126.263C86.8214 126.267 86.8255 126.27 86.8296 126.274ZM86.8106 126.258C86.8092 126.256 86.8079 126.255 86.8065 126.255C86.8079 126.255 86.8092 126.256 86.8106 126.258Z" fill="#D1D3D4"/>
<path d="M86.6236 224.857C86.6277 224.856 86.6304 224.856 86.6345 224.856C86.6318 224.856 86.6263 224.856 86.6236 224.857ZM86.6984 224.85C86.7677 224.845 86.8357 224.839 86.905 224.833C86.8357 224.839 86.7663 224.845 86.6984 224.85Z" fill="#0C2344"/>
<path d="M80.6391 225.1C69.6428 225.1 60.2317 222.621 52.815 219.582C57.7685 218.915 62.6 217.732 67.1173 215.403C75.4187 211.124 78.6311 202.828 78.7165 193.908C78.8059 184.396 76.027 175.145 75.4078 165.698C74.9607 158.886 75.0407 151.964 75.5691 145.16C75.8021 142.173 76.1015 139.343 77.4429 136.628C78.4645 134.562 79.8776 132.705 81.0875 130.745C82.8123 127.952 83.1402 125.453 82.1146 123.173C84.1157 124.375 85.892 125.509 86.8065 126.255C86.8079 126.255 86.8092 126.257 86.8106 126.258C86.8133 126.261 86.816 126.262 86.8174 126.263C86.8214 126.267 86.8255 126.27 86.8296 126.274C88.8592 127.943 90.2304 130.374 90.2276 134.141C90.2276 134.966 90.1613 135.855 90.0217 136.814L90.2276 224.477C89.1058 224.622 88.0002 224.741 86.9041 224.833C86.835 224.84 86.7673 224.845 86.6982 224.851C86.6765 224.852 86.6562 224.855 86.6345 224.856C86.6304 224.856 86.6277 224.856 86.6236 224.858C84.5804 225.023 82.5847 225.1 80.6391 225.1Z" fill="#006AFF"/>
<path d="M85.2525 368.148C83.0982 369.818 78.7002 373.095 69.0303 371.046C69.0303 371.046 68.2052 370.646 68.0941 369.649L67.7188 362.898C67.7188 362.898 67.6836 361.135 68.7187 361.581C68.7187 361.581 75.3767 364.583 84.4328 359.635C84.4328 359.635 85.369 358.802 85.7023 360.357L85.7998 366.327C85.7998 366.327 85.9611 367.598 85.2525 368.148Z" fill="#7C9EC2"/>
<path d="M46.657 360.274C44.5 361.943 39.8527 365.963 31.9537 362.131C31.9537 362.131 31.1286 361.731 31.0175 360.734L31.5378 354.938C31.5378 354.938 31.5012 353.178 32.539 353.622C32.539 353.622 37.7256 357.514 46.7789 352.564C46.7789 352.564 47.7152 351.731 48.0485 353.286L47.6379 358.365C47.6379 358.365 47.3656 359.725 46.657 360.274Z" fill="#7C9EC2"/>
<path d="M104.701 194.124C104.701 194.124 115.491 207.117 128.093 232.508L123.303 235.549C123.303 235.549 94.8194 212.721 92.2762 197.744L104.701 194.124Z" fill="#F4B78E"/>
<path d="M98.2243 168.664L104.935 195.715C104.935 195.715 105.6 203.176 99.9368 205.199C99.9368 205.199 94.3737 206.51 91.3157 197.72L82.685 171.53L98.2243 168.664Z" fill="#F4B78E"/>
<path d="M123.303 235.549C127.598 245.341 128.911 247.335 128.911 247.335C131.591 253.018 134.973 250.884 134.973 250.884C137.9 252.827 138.246 248.976 138.246 248.976C139.412 247.982 138.731 246.513 138.731 246.513L133.229 239.18C132.682 237.653 134.315 238.031 134.315 238.031L138.799 239.675C141.02 240.267 140.493 238.084 140.493 238.084L127.86 232.035L123.303 235.549Z" fill="#F4B78E"/>
<path d="M88.4677 128.055C88.4677 128.055 96.3802 131.156 97.2853 144.261L101.067 171.8C101.067 171.8 91.0555 180.501 81.0496 174.904L78.7192 141.487C78.7192 141.487 78.7192 129.484 88.4677 128.055Z" fill="#006AFF"/>
<path d="M60.5257 106.413L53.6673 109.75C53.6673 109.75 60.7899 119.447 76.8454 120.182C77.0676 120.192 74.5136 112.111 74.5136 112.111L60.5257 106.413Z" fill="#E0E0E0"/>
<path d="M42.7767 68.7384C42.7713 68.7696 38.9884 83.0678 52.1214 95.9311L60.79 103.888L66.9006 102.253L67.7921 89.4059C67.933 88.3071 66.7393 86.9048 66.3424 85.9577C65.8505 84.7722 65.692 83.668 65.6988 82.3876C65.7123 79.9447 66.4955 77.1347 69.5683 77.7566C72.1006 78.2701 73.022 81.4107 73.5477 83.607L75.0638 83.2818C73.9826 75.9072 79.4523 73.2136 79.4523 73.2136C78.0527 65.4352 85.2418 65.9148 85.2418 65.9148C85.2418 65.9148 94.2206 65.7129 93.1096 57.4359C93.1096 57.4359 93.6651 52.5827 86.0249 48.0465C71.2295 46.3163 64.8154 47.6075 64.8154 47.6075C61.7222 48.0411 58.3268 49.0017 55.2363 50.5002C52.3463 51.8971 49.7205 53.7655 47.8576 56.1081C47.8576 56.1081 45.9743 58.9209 48.3318 62.5032C48.3318 62.5032 43.526 62.5032 42.7767 68.7384Z" fill="#554F49"/>
<path d="M42.7767 68.7384C42.7713 68.7696 38.9884 83.0678 52.1214 95.9311L60.79 103.888L66.9006 102.253L67.7921 89.4059C67.933 88.3071 66.7393 86.9048 66.3424 85.9577C65.8505 84.7722 65.692 83.668 65.6988 82.3876C65.7123 79.9447 66.4955 77.1347 69.5683 77.7566C72.1006 78.2701 73.022 81.4107 73.5477 83.607L75.0638 83.2818C73.9826 75.9072 79.4523 73.2136 79.4523 73.2136C78.0527 65.4352 85.2418 65.9148 85.2418 65.9148C85.2418 65.9148 94.2206 65.7129 93.1096 57.4359C93.1096 57.4359 93.6651 52.5827 86.0249 48.0465C71.2295 46.3163 64.8154 47.6075 64.8154 47.6075C61.7222 48.0411 58.3268 49.0017 55.2363 50.5002C52.3463 51.8971 49.7205 53.7655 47.8576 56.1081C47.8576 56.1081 45.9743 58.9209 48.3318 62.5032C48.3318 62.5032 43.526 62.5032 42.7767 68.7384Z" fill="black"/>
<path d="M72.4663 89.2178C70.0465 90.4169 66.7948 88.7734 65.196 85.5501C63.6013 82.3269 64.2652 78.7418 66.6809 77.5454C69.0994 76.3464 72.3525 77.9899 73.95 81.2131C75.546 84.4391 74.8821 88.0215 72.4663 89.2178Z" fill="#F4B78E"/>
<path d="M72.0788 85.7171C71.2645 85.5084 71.3594 85.125 71.2822 84.434C71.2266 83.9178 70.9977 83.5465 70.6765 83.1549C70.3243 82.7214 69.9733 82.7214 69.6238 82.8244C69.3325 82.7986 69.01 82.8379 68.7079 82.888C67.7337 83.0439 67.3747 82.6794 67.5142 81.6104C67.6755 80.3869 68.9694 79.8233 70.1766 79.6512C70.6901 79.5808 70.9069 79.1919 70.2064 78.9453C68.0467 78.1906 66.3666 80.036 66.3233 82.113C66.3084 82.8542 66.6119 83.6901 67.3476 83.9787L67.5359 84.0072C67.9356 84.6345 68.5724 85.0139 68.9721 85.6507L69.1943 85.8526C69.3162 86.1222 69.449 86.3864 69.6265 86.6167C70.1603 87.3131 71.1033 86.6885 71.7903 86.8443C72.5192 87.0083 72.8051 85.9054 72.0788 85.7171Z" fill="#DD957C"/>
</svg>
