<svg width="286" height="160" viewBox="0 0 286 160" fill="none" xmlns="http://www.w3.org/2000/svg">
<g opacity="0.34">
<g opacity="0.6">
<path opacity="0.6" d="M248.48 102.896C250.467 111.167 250.136 118.771 247.486 126.885C244.173 137.038 236.72 146.484 226.036 152.286C222.309 154.324 218.293 155.853 214.11 156.95C213.448 157.97 212.702 158.989 211.916 159.929H247.61C256.679 149.699 261.896 136.567 262.725 123.24C262.932 119.634 262.849 115.988 262.435 112.421C260.778 98.5056 254.236 85.2565 244.463 74.7122C244.339 75.4569 244.215 76.2017 244.09 76.9465C242.972 85.8053 246.409 94.3898 248.48 102.896Z" fill="#53D0F7"/>
</g>
<g opacity="0.41">
<path opacity="0.41" d="M137.915 157.891C135.803 155.147 134.188 151.659 131.952 148.875C127.19 149.777 122.511 151.11 117.749 152.286C108.018 154.638 97.9969 156.402 87.9759 156.519C76.8369 156.676 65.4494 154.638 55.7596 149.189C48.3474 145.034 41.8462 138.723 38.3264 131.197C39.3202 141.585 43.2955 151.737 50.0038 159.969H139.613C138.992 159.263 138.454 158.597 137.915 157.891Z" fill="#53D0F7"/>
</g>
<g opacity="0.41">
<path opacity="0.41" d="M152.038 15.0914C154.73 15.013 157.67 14.8562 160.858 14.621C175.683 13.5626 190.383 16.7769 204.628 21.1671C205.994 21.5983 207.361 22.0687 208.727 22.5391C202.599 16.1497 194.773 11.1715 186.159 8.34925C169.099 2.74388 148.436 4.97819 133.446 13.7978C139.616 13.837 145.827 14.2682 152.038 15.0914Z" fill="#53D0F7"/>
</g>
<g opacity="0.35">
<path opacity="0.35" d="M55.3893 149.307C65.0791 154.598 76.4252 156.637 87.5642 156.558C97.5852 156.48 107.648 154.834 117.379 152.599C122.141 151.502 126.861 150.247 131.624 149.385C129.677 146.994 127.276 145.112 123.714 144.72C109.884 143.153 95.3491 148.562 81.6013 149.463C72.3671 150.091 62.5531 148.875 55.0581 143.662C50.2132 140.252 46.6934 135.391 44.2503 130.139C39.2398 119.242 39.1156 106.737 43.3393 95.5657C46.1965 88.0396 53.1532 82.2774 55.555 74.5945C57.584 68.166 55.2237 61.4631 55.8862 54.9953C56.0105 53.6626 56.3003 52.369 56.7144 51.0755C59.0747 44.1766 70.5037 34.2202 77.5018 30.8883C94.2725 22.8919 111.789 19.0112 129.677 18.6192C119.532 17.0121 109.925 14.1114 92.906 10.7012C72.7397 6.54613 50.0061 20.5792 38.0803 36.9249C36.8795 38.6104 35.8028 40.3351 34.8918 42.1383C30.7509 50.2523 29.5915 59.6208 31.4963 68.4012C33.7324 78.7104 40.6891 86.6676 38.2045 97.6432C36.6724 104.346 36.2997 110.539 35.513 117.164C34.8918 122.338 35.927 127.277 38.0389 131.785C41.5173 139.076 48.0185 145.23 55.3893 149.307Z" fill="#53D0F7"/>
</g>
<g opacity="0.47">
<path opacity="0.47" d="M160.857 14.621C157.669 14.8562 154.77 15.013 152.037 15.0914C161.23 16.3066 170.506 18.4233 179.74 21.2848L214.317 32.0643C230.59 37.1209 241.357 51.8595 240.322 68.0484C240.322 68.166 240.322 68.2444 240.28 68.362C239.618 77.7304 236.346 86.9421 230.88 94.625C225.953 101.602 219.12 109.403 217.422 117.987C216.056 124.808 218.996 131.707 219.369 138.645C219.7 145.23 217.629 151.502 214.027 156.911C218.209 155.814 222.226 154.285 225.953 152.247C236.595 146.445 244.09 136.998 247.402 126.846C250.053 118.732 250.384 111.127 248.396 102.857C246.367 94.3506 242.93 85.7661 244.007 76.9073C244.09 76.1625 244.214 75.4177 244.38 74.673C245.415 69.2636 247.692 64.011 247.195 58.5624C246.823 54.4466 244.918 50.566 242.558 47.1165C234.773 35.553 222.267 27.4389 208.644 22.5391C207.277 22.0687 205.911 21.5983 204.544 21.1672C190.382 16.7769 175.682 13.5627 160.857 14.621Z" fill="#53D0F7"/>
</g>
<g opacity="0.7">
<path opacity="0.7" d="M56.589 47.7045C56.1335 49.0372 55.8851 50.4092 55.7608 51.7811C55.1397 58.484 57.5 65.3829 55.5124 72.0075C53.1106 79.9647 46.1953 85.8837 43.3795 93.6842C39.1972 105.209 39.4042 118.105 44.4561 129.355C46.8993 134.764 50.4605 139.781 55.3053 143.27C62.8004 148.64 72.6143 149.816 81.8486 149.111C95.5964 148.092 110.09 142.447 123.92 144.015C127.481 144.407 129.925 146.328 131.871 148.797C134.107 151.58 135.722 155.069 137.834 157.813C138.372 158.518 138.952 159.224 139.531 159.89H211.832C212.619 158.91 213.364 157.93 214.026 156.911C217.629 151.502 219.7 145.23 219.368 138.645C218.996 131.707 216.056 124.808 217.422 117.987C219.12 109.442 225.952 101.602 230.88 94.6249C236.346 86.9029 239.617 77.7304 240.28 68.362C240.28 68.2444 240.28 68.166 240.321 68.0484C241.315 51.8595 230.549 37.1209 214.316 32.0643L179.74 21.2847C170.464 18.3841 161.23 16.3065 152.037 15.0914C145.826 14.2682 139.614 13.7979 133.444 13.7979C132.078 13.7979 130.753 13.7979 129.386 13.837C111.539 14.3466 94.0229 18.4233 77.2936 26.7333C70.2954 30.2612 58.9493 40.6096 56.589 47.7045Z" fill="#53D0F7"/>
</g>
<g opacity="0.35">
<path opacity="0.35" d="M120.483 10.662C123.593 10.662 126.115 8.2752 126.115 5.33098C126.115 2.38676 123.593 0 120.483 0C117.373 0 114.851 2.38676 114.851 5.33098C114.851 8.2752 117.373 10.662 120.483 10.662Z" fill="#53D0F7"/>
</g>
<g opacity="0.35">
<path opacity="0.35" d="M272.539 80.6703C279.56 80.6703 285.251 75.2826 285.251 68.6364C285.251 61.9903 279.56 56.6025 272.539 56.6025C265.518 56.6025 259.826 61.9903 259.826 68.6364C259.826 75.2826 265.518 80.6703 272.539 80.6703Z" fill="#53D0F7"/>
</g>
<g opacity="0.35">
<path opacity="0.35" d="M26.0252 100.94C31.4257 96.6929 32.1668 89.1058 27.6804 83.9936C23.194 78.8814 15.1791 78.1799 9.77852 82.4268C4.37799 86.6737 3.63694 94.2607 8.12334 99.3729C12.6097 104.485 20.6247 105.187 26.0252 100.94Z" fill="#53D0F7"/>
</g>
<g opacity="0.35">
<path opacity="0.35" d="M219.74 20.1872C221.867 20.1872 223.592 18.555 223.592 16.5417C223.592 14.5284 221.867 12.8962 219.74 12.8962C217.614 12.8962 215.889 14.5284 215.889 16.5417C215.889 18.555 217.614 20.1872 219.74 20.1872Z" fill="#53D0F7"/>
</g>
</g>
<g opacity="0.22">
<path opacity="0.22" d="M84.9234 104.47C84.6583 104.47 84.4263 104.25 84.4263 104C84.4263 95.6544 86.2159 87.5917 89.7621 80.0309C93.1757 72.7211 98.0476 66.227 104.245 60.7368C106.466 58.7603 108.885 56.9093 111.371 55.2779C111.603 55.1211 111.901 55.1838 112.067 55.4034C112.232 55.623 112.166 55.9054 111.934 56.0622C109.482 57.6936 107.095 59.4819 104.908 61.427C92.5129 72.4073 85.4205 87.9368 85.4205 104C85.4205 104.25 85.1885 104.47 84.9234 104.47Z" fill="#3AAED5"/>
<path opacity="0.22" d="M209.206 104.47C208.941 104.47 208.709 104.251 208.709 104C208.709 97.3486 207.549 90.7917 205.229 84.58C205.129 84.329 205.262 84.078 205.527 83.9839C205.792 83.8898 206.057 84.0153 206.157 84.2662C208.51 90.6035 209.703 97.2231 209.703 104C209.703 104.251 209.471 104.47 209.206 104.47Z" fill="#3AAED5"/>
<path opacity="0.22" d="M204.334 81.5995C204.135 81.5995 203.969 81.5054 203.87 81.3171C199.031 70.4622 190.911 61.3328 180.406 54.9015C180.174 54.776 180.107 54.4623 180.273 54.2427C180.439 54.023 180.737 53.9603 180.969 54.1172C191.641 60.6426 199.893 69.8975 204.798 80.9407C204.897 81.1916 204.798 81.4426 204.533 81.5681C204.467 81.5995 204.4 81.5995 204.334 81.5995Z" fill="#3AAED5"/>
<path opacity="0.22" d="M115.713 53.6466C115.547 53.6466 115.381 53.5525 115.282 53.427C115.149 53.2074 115.216 52.9251 115.448 52.7682C124.992 47.4662 135.929 44.6741 147.032 44.6741C156.312 44.6741 165.227 46.5564 173.545 50.227C173.81 50.3525 173.91 50.6035 173.777 50.8545C173.645 51.1055 173.38 51.1996 173.114 51.0741C164.928 47.4349 156.146 45.6153 147.032 45.6153C136.095 45.6153 125.324 48.376 115.945 53.5839C115.878 53.6466 115.812 53.6466 115.713 53.6466Z" fill="#3AAED5"/>
<path opacity="0.22" d="M73.8541 104.47C73.5889 104.47 73.3569 104.251 73.3569 104C73.3569 76.3289 90.657 51.2623 117.403 40.125C117.668 40.0309 117.933 40.125 118.065 40.376C118.165 40.627 118.065 40.878 117.8 41.0035C91.4193 51.9525 74.3512 76.7054 74.3512 104C74.3512 104.251 74.1192 104.47 73.8541 104.47Z" fill="#3AAED5"/>
<path opacity="0.22" d="M220.275 104.47C220.01 104.47 219.778 104.251 219.778 104C219.778 82.2897 208.775 61.6152 190.348 48.6897C190.116 48.5329 190.083 48.2505 190.249 48.0309C190.414 47.8113 190.713 47.7799 190.945 47.9368C199.992 54.3054 207.516 62.6505 212.653 72.125C218.055 82.0387 220.772 92.7682 220.772 104C220.772 104.251 220.54 104.47 220.275 104.47Z" fill="#3AAED5"/>
<path opacity="0.22" d="M186.272 45.929C186.172 45.929 186.073 45.8976 186.007 45.8662C184.515 44.9564 182.957 44.1093 181.4 43.325C181.168 43.1995 181.068 42.9172 181.201 42.6976C181.334 42.478 181.632 42.3838 181.864 42.5093C183.455 43.325 185.012 44.1721 186.504 45.0819C186.736 45.2074 186.802 45.5211 186.669 45.7407C186.57 45.8348 186.437 45.929 186.272 45.929Z" fill="#3AAED5"/>
<path opacity="0.22" d="M178.417 41.8191C178.351 41.8191 178.284 41.8191 178.218 41.7877C168.441 37.3956 157.968 35.1681 147.098 35.1681C139.144 35.1681 131.289 36.3916 123.832 38.776C123.567 38.8701 123.302 38.7132 123.203 38.4936C123.103 38.2426 123.269 37.9916 123.501 37.8975C131.09 35.4818 139.011 34.2583 147.098 34.2583C158.134 34.2583 168.773 36.5171 178.649 40.972C178.881 41.0975 179.013 41.3485 178.881 41.5995C178.782 41.725 178.583 41.8191 178.417 41.8191Z" fill="#3AAED5"/>
<path opacity="0.22" d="M232.538 104.47C232.273 104.47 232.041 104.25 232.041 103.999C232.041 95.1524 230.516 86.4308 227.567 78.1171C227.467 77.8661 227.633 77.6151 227.865 77.521C228.13 77.4269 228.395 77.5838 228.495 77.8034C231.511 86.2112 233.035 95.0269 233.035 103.968C233.035 104.25 232.803 104.47 232.538 104.47Z" fill="#3AAED5"/>
<path opacity="0.22" d="M226.241 73.9133C226.042 73.9133 225.843 73.7878 225.777 73.6309C219.778 59.7015 209.769 47.6545 196.877 38.8074C196.645 38.6505 196.612 38.3682 196.777 38.1486C196.943 37.929 197.241 37.8976 197.473 38.0545C210.531 47.027 220.64 59.1996 226.738 73.2858C226.837 73.5368 226.705 73.7878 226.473 73.9133C226.34 73.9133 226.274 73.9133 226.241 73.9133Z" fill="#3AAED5"/>
<path opacity="0.22" d="M192.238 35.7643C192.138 35.7643 192.072 35.7329 191.972 35.7015C178.517 27.7642 163.006 23.5603 147.065 23.5603C139.873 23.5603 132.748 24.4074 125.854 26.0701C125.589 26.1329 125.324 25.976 125.258 25.725C125.191 25.474 125.357 25.2231 125.622 25.1603C132.582 23.4662 139.807 22.6191 147.065 22.6191C163.172 22.6191 178.915 26.8544 192.503 34.9172C192.735 35.0427 192.801 35.3564 192.668 35.576C192.569 35.7015 192.403 35.7643 192.238 35.7643Z" fill="#3AAED5"/>
<path opacity="0.22" d="M109.482 31.7799C109.283 31.7799 109.117 31.6858 109.051 31.5289C108.919 31.3093 109.018 31.0269 109.283 30.9014C111.901 29.6779 114.619 28.5799 117.37 27.6387C117.635 27.5446 117.9 27.67 117.999 27.921C118.099 28.172 117.966 28.423 117.701 28.5171C114.984 29.4583 112.299 30.5563 109.714 31.7485C109.648 31.7485 109.548 31.7799 109.482 31.7799Z" fill="#3AAED5"/>
<path opacity="0.22" d="M61.5919 104.47C61.3267 104.47 61.0947 104.25 61.0947 103.999C61.0947 89.5367 65.138 75.3563 72.8269 62.9642C80.2839 50.9171 90.9224 40.8465 103.616 33.7877C103.848 33.6622 104.146 33.725 104.312 33.9446C104.444 34.1642 104.378 34.4465 104.146 34.6034C78.1959 48.972 62.089 75.576 62.089 103.999C62.089 104.25 61.8901 104.47 61.5919 104.47Z" fill="#3AAED5"/>
</g>
<path d="M169.969 67.4383H132.859V45.9531C132.859 44.8746 131.985 44 130.906 44H84.0312C82.9525 44 82.0781 44.8746 82.0781 45.9531V142.047C82.0781 143.125 82.9525 144 84.0312 144H130.906H169.969C171.047 144 171.922 143.125 171.922 142.047V69.3914C171.922 68.3127 171.047 67.4383 169.969 67.4383ZM132.859 71.3445H168.016V120.562H132.859V71.3445ZM101.609 140.094V124.469H113.328V140.094H101.609ZM115.281 120.562H99.6562C98.5775 120.562 97.7031 121.437 97.7031 122.515V140.094H85.9844V47.9062H128.953V140.094H117.234V122.515C117.234 121.437 116.36 120.562 115.281 120.562ZM132.859 140.094V124.469H168.015V140.094H132.859Z" fill="#006AFF"/>
<path d="M105.515 59.6252H109.421C110.5 59.6252 111.374 58.7508 111.374 57.6721V53.7659C111.374 52.6872 110.5 51.8127 109.421 51.8127H105.515C104.437 51.8127 103.562 52.6872 103.562 53.7659V57.6721C103.562 58.7508 104.437 59.6252 105.515 59.6252Z" fill="#006AFF"/>
<path d="M105.515 73.2971H109.421C110.5 73.2971 111.374 72.4227 111.374 71.344V67.4377C111.374 66.359 110.5 65.4846 109.421 65.4846H105.515C104.437 65.4846 103.562 66.359 103.562 67.4377V71.344C103.562 72.4227 104.437 73.2971 105.515 73.2971Z" fill="#006AFF"/>
<path d="M105.515 86.969H109.421C110.5 86.969 111.374 86.0946 111.374 85.0159V81.1096C111.374 80.0309 110.5 79.1565 109.421 79.1565H105.515C104.437 79.1565 103.562 80.0309 103.562 81.1096V85.0159C103.562 86.0946 104.437 86.969 105.515 86.969Z" fill="#006AFF"/>
<path d="M105.515 100.641H109.421C110.5 100.641 111.374 99.7662 111.374 98.6875V94.7812C111.374 93.7025 110.5 92.8281 109.421 92.8281H105.515C104.437 92.8281 103.562 93.7025 103.562 94.7812V98.6875C103.562 99.7662 104.437 100.641 105.515 100.641Z" fill="#006AFF"/>
<path d="M105.515 114.312H109.421C110.5 114.312 111.374 113.438 111.374 112.359V108.453C111.374 107.374 110.5 106.5 109.421 106.5H105.515C104.437 106.5 103.562 107.374 103.562 108.453V112.359C103.562 113.438 104.437 114.312 105.515 114.312Z" fill="#006AFF"/>
<path d="M91.844 59.6252H95.7497C96.8284 59.6252 97.7028 58.7508 97.7028 57.6721V53.7659C97.7028 52.6872 96.8284 51.8127 95.7497 51.8127H91.844C90.7653 51.8127 89.8909 52.6872 89.8909 53.7659V57.6721C89.8909 58.7508 90.7653 59.6252 91.844 59.6252Z" fill="#006AFF"/>
<path d="M91.844 73.2971H95.7497C96.8284 73.2971 97.7028 72.4227 97.7028 71.344V67.4377C97.7028 66.359 96.8284 65.4846 95.7497 65.4846H91.844C90.7653 65.4846 89.8909 66.359 89.8909 67.4377V71.344C89.8909 72.4227 90.7653 73.2971 91.844 73.2971Z" fill="#006AFF"/>
<path d="M91.844 86.969H95.7497C96.8284 86.969 97.7028 86.0946 97.7028 85.0159V81.1096C97.7028 80.0309 96.8284 79.1565 95.7497 79.1565H91.844C90.7653 79.1565 89.8909 80.0309 89.8909 81.1096V85.0159C89.8909 86.0946 90.7653 86.969 91.844 86.969Z" fill="#006AFF"/>
<path d="M91.844 100.641H95.7497C96.8284 100.641 97.7028 99.7662 97.7028 98.6875V94.7812C97.7028 93.7025 96.8284 92.8281 95.7497 92.8281H91.844C90.7653 92.8281 89.8909 93.7025 89.8909 94.7812V98.6875C89.8909 99.7662 90.7653 100.641 91.844 100.641Z" fill="#006AFF"/>
<path d="M91.844 114.312H95.7497C96.8284 114.312 97.7028 113.438 97.7028 112.359V108.453C97.7028 107.374 96.8284 106.5 95.7497 106.5H91.844C90.7653 106.5 89.8909 107.374 89.8909 108.453V112.359C89.8909 113.438 90.7653 114.312 91.844 114.312Z" fill="#006AFF"/>
<path d="M123.093 51.8127H119.188C118.109 51.8127 117.235 52.6872 117.235 53.7659V57.6721C117.235 58.7508 118.109 59.6252 119.188 59.6252H123.093C124.172 59.6252 125.047 58.7508 125.047 57.6721V53.7659C125.047 52.6872 124.172 51.8127 123.093 51.8127Z" fill="#006AFF"/>
<path d="M123.093 65.4844H119.188C118.109 65.4844 117.235 66.3588 117.235 67.4375V71.3438C117.235 72.4225 118.109 73.2969 119.188 73.2969H123.093C124.172 73.2969 125.047 72.4225 125.047 71.3438V67.4375C125.047 66.359 124.172 65.4844 123.093 65.4844Z" fill="#006AFF"/>
<path d="M123.093 79.1562H119.188C118.109 79.1562 117.235 80.0307 117.235 81.1094V85.0156C117.235 86.0943 118.109 86.9688 119.188 86.9688H123.093C124.172 86.9688 125.047 86.0943 125.047 85.0156V81.1094C125.047 80.0309 124.172 79.1562 123.093 79.1562Z" fill="#006AFF"/>
<path d="M123.093 92.8281H119.188C118.109 92.8281 117.235 93.7025 117.235 94.7812V98.6875C117.235 99.7662 118.109 100.641 119.188 100.641H123.093C124.172 100.641 125.047 99.7662 125.047 98.6875V94.7812C125.047 93.7027 124.172 92.8281 123.093 92.8281Z" fill="#006AFF"/>
<path d="M123.093 106.5H119.188C118.109 106.5 117.235 107.374 117.235 108.453V112.359C117.235 113.438 118.109 114.312 119.188 114.312H123.093C124.172 114.312 125.047 113.438 125.047 112.359V108.453C125.047 107.374 124.172 106.5 123.093 106.5Z" fill="#006AFF"/>
<path d="M159.226 79.1562H155.32C154.242 79.1562 153.367 80.0307 153.367 81.1094V85.0156C153.367 86.0943 154.242 86.9688 155.32 86.9688H159.226C160.305 86.9688 161.179 86.0943 161.179 85.0156V81.1094C161.179 80.0309 160.304 79.1562 159.226 79.1562Z" fill="#006AFF"/>
<path d="M159.226 92.8281H155.32C154.242 92.8281 153.367 93.7025 153.367 94.7812V98.6875C153.367 99.7662 154.242 100.641 155.32 100.641H159.226C160.305 100.641 161.179 99.7662 161.179 98.6875V94.7812C161.179 93.7027 160.304 92.8281 159.226 92.8281Z" fill="#006AFF"/>
<path d="M159.226 106.5H155.32C154.242 106.5 153.367 107.374 153.367 108.453V112.359C153.367 113.438 154.242 114.312 155.32 114.312H159.226C160.305 114.312 161.179 113.438 161.179 112.359V108.453C161.179 107.374 160.304 106.5 159.226 106.5Z" fill="#006AFF"/>
<path d="M145.555 79.1562H141.649C140.57 79.1562 139.696 80.0307 139.696 81.1094V85.0156C139.696 86.0943 140.57 86.9688 141.649 86.9688H145.555C146.633 86.9688 147.508 86.0943 147.508 85.0156V81.1094C147.508 80.0309 146.633 79.1562 145.555 79.1562Z" fill="#006AFF"/>
<path d="M145.555 92.8281H141.649C140.57 92.8281 139.696 93.7025 139.696 94.7812V98.6875C139.696 99.7662 140.57 100.641 141.649 100.641H145.555C146.633 100.641 147.508 99.7662 147.508 98.6875V94.7812C147.508 93.7027 146.633 92.8281 145.555 92.8281Z" fill="#006AFF"/>
<path d="M145.555 106.5H141.649C140.57 106.5 139.696 107.374 139.696 108.453V112.359C139.696 113.438 140.57 114.312 141.649 114.312H145.555C146.633 114.312 147.508 113.438 147.508 112.359V108.453C147.508 107.374 146.633 106.5 145.555 106.5Z" fill="#006AFF"/>
<g clip-path="url(#clip0)">
<path d="M162 60.625C161.633 60.625 161.336 60.3277 161.336 59.9609C161.336 59.5942 161.633 59.2969 162 59.2969C162.367 59.2969 162.664 59.5942 162.664 59.9609C162.664 60.3277 162.367 60.625 162 60.625Z" fill="#006AFF"/>
<path d="M172.227 60.625H164.988C164.622 60.625 164.324 60.3277 164.324 59.9609C164.324 59.5942 164.622 59.2969 164.988 59.2969H172.227C175.178 59.2969 177.672 56.864 177.672 53.9844C177.672 50.2549 173.838 47.7736 170.449 48.9763C170.241 49.0501 170.01 49.0157 169.833 48.8846C169.655 48.7536 169.554 48.5429 169.564 48.3224C169.739 44.1637 166.101 40.7031 162 40.7031C157.868 40.7031 154.259 44.1402 154.436 48.3224C154.446 48.5428 154.345 48.7536 154.167 48.8847C153.99 49.0158 153.759 49.0501 153.551 48.9763C150.137 47.7646 146.328 50.2779 146.328 53.9844C146.328 56.864 148.822 59.2969 151.773 59.2969H159.012C159.378 59.2969 159.676 59.5942 159.676 59.9609C159.676 60.3277 159.378 60.625 159.012 60.625H151.773C148.088 60.625 145 57.6422 145 53.9844C145 49.6784 149.081 46.6468 153.12 47.4803C153.419 42.9425 157.43 39.375 162 39.375C166.533 39.375 170.574 42.9551 170.879 47.4805C174.915 46.647 179 49.676 179 53.9844C179 57.6399 175.914 60.625 172.227 60.625Z" fill="#006AFF"/>
</g>
<g clip-path="url(#clip1)">
<path d="M70 41.625C69.6332 41.625 69.3359 41.3277 69.3359 40.9609C69.3359 40.5942 69.6332 40.2969 70 40.2969C70.3668 40.2969 70.6641 40.5942 70.6641 40.9609C70.6641 41.3277 70.3668 41.625 70 41.625Z" fill="#006AFF"/>
<path d="M80.2266 41.625H72.9883C72.6216 41.625 72.3242 41.3277 72.3242 40.9609C72.3242 40.5942 72.6216 40.2969 72.9883 40.2969H80.2266C83.1782 40.2969 85.6719 37.864 85.6719 34.9844C85.6719 31.2549 81.8383 28.7736 78.4491 29.9763C78.2412 30.0501 78.0101 30.0157 77.8326 29.8846C77.655 29.7536 77.5542 29.5429 77.5635 29.3224C77.7394 25.1637 74.1013 21.7031 70 21.7031C65.8679 21.7031 62.2593 25.1402 62.4365 29.3224C62.4458 29.5428 62.345 29.7536 62.1674 29.8847C61.9899 30.0158 61.759 30.0501 61.5509 29.9763C58.1369 28.7646 54.3281 31.2779 54.3281 34.9844C54.3281 37.864 56.8218 40.2969 59.7734 40.2969H67.0117C67.3784 40.2969 67.6758 40.5942 67.6758 40.9609C67.6758 41.3277 67.3784 41.625 67.0117 41.625H59.7734C56.0884 41.625 53 38.6422 53 34.9844C53 30.6784 57.0813 27.6468 61.1199 28.4803C61.4192 23.9425 65.4299 20.375 70 20.375C74.5328 20.375 78.5741 23.9551 78.8793 28.4805C82.9154 27.647 87 30.676 87 34.9844C87 38.6399 83.9136 41.625 80.2266 41.625Z" fill="#006AFF"/>
</g>
<path d="M112.526 31.6628C112.526 32.0289 112.713 32.3256 112.942 32.3256C113.639 32.3256 114.205 33.228 114.205 34.3372C114.205 34.7032 114.391 35 114.621 35C114.851 35 115.037 34.7032 115.037 34.3372C115.037 33.228 115.603 32.3256 116.299 32.3256C116.529 32.3256 116.715 32.0289 116.715 31.6628C116.715 31.2968 116.529 31 116.299 31C115.613 31 115.003 31.5284 114.621 32.3431C114.239 31.5285 113.628 31 112.942 31C112.713 31 112.526 31.2968 112.526 31.6628Z" fill="#006AFF"/>
<path d="M126.141 18.6628C126.141 19.0289 126.327 19.3256 126.557 19.3256C127.253 19.3256 127.819 20.228 127.819 21.3372C127.819 21.7032 128.005 22 128.235 22C128.465 22 128.651 21.7032 128.651 21.3372C128.651 20.228 129.217 19.3256 129.914 19.3256C130.143 19.3256 130.329 19.0289 130.329 18.6628C130.329 18.2968 130.143 18 129.914 18C129.227 18 128.617 18.5284 128.235 19.3431C127.853 18.5285 127.243 18 126.557 18C126.327 18 126.141 18.2968 126.141 18.6628Z" fill="#006AFF"/>
<defs>
<clipPath id="clip0">
<rect width="34" height="34" fill="white" transform="matrix(-1 0 0 1 179 33)"/>
</clipPath>
<clipPath id="clip1">
<rect width="34" height="34" fill="white" transform="matrix(-1 0 0 1 87 14)"/>
</clipPath>
</defs>
</svg>
