<?xml version="1.0" encoding="utf-8"?>
<!-- Generator: Adobe Illustrator 25.0.1, SVG Export Plug-In . SVG Version: 6.00 Build 0)  -->
<svg version="1.1" id="Layer_1" xmlns="http://www.w3.org/2000/svg" xmlns:xlink="http://www.w3.org/1999/xlink" x="0px" y="0px"
	 viewBox="0 0 132 103" style="enable-background:new 0 0 132 103;" xml:space="preserve">
<style type="text/css">
	.st0{fill:#006AFF;}
	.st1{fill:#006AFF;stroke:#006AFF;stroke-width:0.5;}
</style>
<path class="st0" d="M125.2,40.2H118c-0.4,0-0.7-0.3-0.7-0.7c0-0.4,0.3-0.7,0.7-0.7h7.2c3,0,5.4-2.4,5.4-5.3c0-3.7-3.8-6.2-7.2-5
	c-0.2,0.1-0.4,0-0.6-0.1c-0.2-0.1-0.3-0.3-0.3-0.6c0.2-4.2-3.5-7.6-7.6-7.6c-4.1,0-7.7,3.4-7.6,7.6c0,0.2-0.1,0.4-0.3,0.6
	c-0.2,0.1-0.4,0.2-0.6,0.1c-3.4-1.2-7.2,1.3-7.2,5c0,2.9,2.5,5.3,5.4,5.3h7.2c0.4,0,0.7,0.3,0.7,0.7c0,0.4-0.3,0.7-0.7,0.7h-7.2
	c-3.7,0-6.8-3-6.8-6.6c0-4.3,4.1-7.3,8.1-6.5c0.3-4.5,4.3-8.1,8.9-8.1c4.5,0,8.6,3.6,8.9,8.1c4-0.8,8.1,2.2,8.1,6.5
	C132,37.3,128.9,40.2,125.2,40.2z"/>
<path class="st1" d="M6.4,102.1h19.3c0.7,0,1.3-0.6,1.3-1.3V27.1c0-0.6-0.4-1.1-0.9-1.3L6.7,20.1c0,0,0,0,0,0
	c-0.4-0.1-0.8,0-1.2,0.2C5.2,20.6,5,21,5,21.4v79.4C5,101.5,5.6,102.1,6.4,102.1z M24.4,28.1v71.3H7.7V23.2L24.4,28.1z"/>
<path class="st1" d="M96.9,56.6L96.9,56.6l-19.3-5.8c0,0,0,0,0,0c-0.4-0.1-0.8,0-1.2,0.2c-0.3,0.2-0.5,0.6-0.5,1.1v48.7
	c0,0.7,0.6,1.3,1.3,1.3h19.3c0.7,0,1.3-0.6,1.3-1.3v0V57.9C97.8,57.3,97.4,56.8,96.9,56.6z M95.2,58.9v40.6H78.5V53.9L95.2,58.9z"/>
<path class="st1" d="M51,27.7L51,27.7c-0.5,0.2-0.9,0.7-0.9,1.2v71.8c0,0.7,0.6,1.3,1.3,1.3h25.8c0.7,0,1.3-0.6,1.3-1.3v0V19.2
	c0-0.4-0.2-0.8-0.6-1.1c-0.4-0.2-0.8-0.3-1.2-0.2L51,27.7z M75.9,21.2v78.3H52.8V29.9L75.9,21.2z"/>
<path class="st1" d="M25.2,10.7L25.2,10.7c-0.5,0.2-0.9,0.7-0.9,1.2v88.8c0,0.7,0.6,1.3,1.3,1.3h25.8c0.7,0,1.3-0.6,1.3-1.3v0V2.2
	c0-0.4-0.2-0.8-0.6-1.1C51.8,0.9,51.4,0.9,51,1L25.2,10.7z M50.1,4.2v95.3H27V12.9L50.1,4.2z"/>
<path class="st1" d="M2.1,102.1h98.7c0.7,0,1.3-0.6,1.3-1.3c0-0.7-0.6-1.3-1.3-1.3H2.1c-0.7,0-1.3,0.6-1.3,1.3
	C0.8,101.5,1.3,102.1,2.1,102.1z"/>
<path class="st0" d="M34.3,21.4H30V30h4.3V21.4z"/>
<path class="st0" d="M40.7,21.4h-4.3V30h4.3V21.4z"/>
<path class="st0" d="M47.1,21.4h-4.3V30h4.3V21.4z"/>
<path class="st0" d="M34.3,32.1H30v8.6h4.3V32.1z"/>
<path class="st0" d="M40.7,32.1h-4.3v8.6h4.3V32.1z"/>
<path class="st0" d="M47.1,32.1h-4.3v8.6h4.3V32.1z"/>
<path class="st0" d="M34.3,42.8H30v8.6h4.3V42.8z"/>
<path class="st0" d="M40.7,42.8h-4.3v8.6h4.3V42.8z"/>
<path class="st0" d="M47.1,42.8h-4.3v8.6h4.3V42.8z"/>
<path class="st0" d="M60,32.1h-4.3v4.3H60V32.1z"/>
<path class="st0" d="M66.5,32.1h-4.3v4.3h4.3V32.1z"/>
<path class="st0" d="M72.9,32.1h-4.3v4.3h4.3V32.1z"/>
<path class="st0" d="M60,38.6h-4.3v4.3H60V38.6z"/>
<path class="st0" d="M66.5,38.6h-4.3v4.3h4.3V38.6z"/>
<path class="st0" d="M72.9,38.6h-4.3v4.3h4.3V38.6z"/>
<path class="st0" d="M60,45h-4.3v4.3H60V45z"/>
<path class="st0" d="M66.5,45h-4.3v4.3h4.3V45z"/>
<path class="st0" d="M72.9,45h-4.3v4.3h4.3V45z"/>
<path class="st0" d="M60,51.4h-4.3v4.3H60V51.4z"/>
<path class="st0" d="M66.5,51.4h-4.3v4.3h4.3V51.4z"/>
<path class="st0" d="M72.9,51.4h-4.3v4.3h4.3V51.4z"/>
<path class="st0" d="M60,57.9h-4.3v4.3H60V57.9z"/>
<path class="st0" d="M66.5,57.9h-4.3v4.3h4.3V57.9z"/>
<path class="st0" d="M72.9,57.9h-4.3v4.3h4.3V57.9z"/>
<path class="st0" d="M60,64.3h-4.3v4.3H60V64.3z"/>
<path class="st0" d="M66.5,64.3h-4.3v4.3h4.3V64.3z"/>
<path class="st0" d="M72.9,64.3h-4.3v4.3h4.3V64.3z"/>
<path class="st0" d="M60,70.8h-4.3V75H60V70.8z"/>
<path class="st0" d="M66.5,70.8h-4.3V75h4.3V70.8z"/>
<path class="st0" d="M72.9,70.8h-4.3V75h4.3V70.8z"/>
<path class="st0" d="M92.2,64.3H81.5v4.3h10.7V64.3z"/>
<path class="st0" d="M92.2,70.8H81.5V75h10.7V70.8z"/>
<path class="st0" d="M92.2,77.2H81.5v4.3h10.7V77.2z"/>
<path class="st0" d="M21.4,40.7H10.7V45h10.7V40.7z"/>
<path class="st0" d="M21.4,47.1H10.7v4.3h10.7V47.1z"/>
<path class="st0" d="M21.4,53.6H10.7v4.3h10.7V53.6z"/>
<path class="st0" d="M21.4,60H10.7v4.3h10.7V60z"/>
<path class="st0" d="M21.4,66.5H10.7v4.3h10.7V66.5z"/>
<path class="st0" d="M21.4,72.9H10.7v4.3h10.7V72.9z"/>
<path class="st0" d="M21.4,79.3H10.7v4.3h10.7V79.3z"/>
<path class="st0" d="M21.4,85.8H10.7v4.3h10.7V85.8z"/>
<path class="st0" d="M21.4,92.2H10.7v4.3h10.7V92.2z"/>
<path class="st0" d="M92.2,83.6H81.5v4.3h10.7V83.6z"/>
<path class="st0" d="M60,77.2h-4.3v4.3H60V77.2z"/>
<path class="st0" d="M66.5,77.2h-4.3v4.3h4.3V77.2z"/>
<path class="st0" d="M72.9,77.2h-4.3v4.3h4.3V77.2z"/>
<path class="st0" d="M60,83.6h-4.3v4.3H60V83.6z"/>
<path class="st0" d="M66.5,83.6h-4.3v4.3h4.3V83.6z"/>
<path class="st0" d="M72.9,83.6h-4.3v4.3h4.3V83.6z"/>
<path class="st0" d="M60,90.1h-4.3v4.3H60V90.1z"/>
<path class="st0" d="M66.5,90.1h-4.3v4.3h4.3V90.1z"/>
<path class="st0" d="M72.9,90.1h-4.3v4.3h4.3V90.1z"/>
<path class="st0" d="M34.3,53.6H30v8.6h4.3V53.6z"/>
<path class="st0" d="M40.7,53.6h-4.3v8.6h4.3V53.6z"/>
<path class="st0" d="M47.1,53.6h-4.3v8.6h4.3V53.6z"/>
<path class="st0" d="M34.3,64.3H30v8.6h4.3V64.3z"/>
<path class="st0" d="M40.7,64.3h-4.3v8.6h4.3V64.3z"/>
<path class="st0" d="M47.1,64.3h-4.3v8.6h4.3V64.3z"/>
<path class="st0" d="M34.3,75H30v8.6h4.3V75z"/>
<path class="st0" d="M40.7,75h-4.3v8.6h4.3V75z"/>
<path class="st0" d="M47.1,75h-4.3v8.6h4.3V75z"/>
<path class="st0" d="M34.3,85.8H30v8.6h4.3V85.8z"/>
<path class="st0" d="M40.7,85.8h-4.3v8.6h4.3V85.8z"/>
<path class="st0" d="M47.1,85.8h-4.3v8.6h4.3V85.8z"/>
</svg>
