<?xml version="1.0" encoding="utf-8"?>
<!-- Generator: Adobe Illustrator 25.0.1, SVG Export Plug-In . SVG Version: 6.00 Build 0)  -->
<svg version="1.1" id="Layer_1" xmlns="http://www.w3.org/2000/svg" xmlns:xlink="http://www.w3.org/1999/xlink" x="0px" y="0px"
	 viewBox="0 0 286 160" style="enable-background:new 0 0 286 160;" xml:space="preserve">
<style type="text/css">
	.st0{opacity:0.34;}
	.st1{opacity:0.6;}
	.st2{opacity:0.6;fill:#53D0F7;enable-background:new    ;}
	.st3{opacity:0.41;}
	.st4{opacity:0.41;fill:#53D0F7;enable-background:new    ;}
	.st5{opacity:0.35;}
	.st6{opacity:0.35;fill:#53D0F7;enable-background:new    ;}
	.st7{opacity:0.47;}
	.st8{opacity:0.47;fill:#53D0F7;enable-background:new    ;}
	.st9{opacity:0.7;}
	.st10{opacity:0.7;fill:#53D0F7;enable-background:new    ;}
	.st11{fill:#006AFF;}
	.st12{fill:#006AFF;stroke:#006AFF;stroke-width:0.5;}
</style>
<g class="st0">
	<g class="st1">
		<path class="st2" d="M248.5,102.9c2,8.3,1.7,15.9-1,24c-3.3,10.2-10.8,19.6-21.4,25.4c-3.7,2-7.7,3.6-11.9,4.7c-0.7,1-1.4,2-2.2,3
			h35.7c9.1-10.2,14.3-23.4,15.1-36.7c0.2-3.6,0.1-7.3-0.3-10.8c-1.7-13.9-8.2-27.2-18-37.7c-0.1,0.7-0.2,1.5-0.4,2.2
			C243,85.8,246.4,94.4,248.5,102.9z"/>
	</g>
	<g class="st3">
		<path class="st4" d="M137.9,157.9c-2.1-2.7-3.7-6.2-6-9c-4.8,0.9-9.4,2.2-14.2,3.4c-9.7,2.4-19.8,4.1-29.8,4.2
			c-11.1,0.2-22.5-1.9-32.2-7.3c-7.4-4.2-13.9-10.5-17.4-18c1,10.4,5,20.5,11.7,28.8h89.6C139,159.3,138.5,158.6,137.9,157.9z"/>
	</g>
	<g class="st3">
		<path class="st4" d="M152,15.1c2.7-0.1,5.6-0.2,8.8-0.5c14.8-1.1,29.5,2.2,43.8,6.5c1.4,0.4,2.7,0.9,4.1,1.4
			c-6.1-6.4-14-11.4-22.6-14.2c-17.1-5.6-37.7-3.4-52.7,5.4C139.6,13.8,145.8,14.3,152,15.1z"/>
	</g>
	<g class="st5">
		<path class="st6" d="M55.4,149.3c9.7,5.3,21,7.3,32.2,7.3c10-0.1,20.1-1.7,29.8-4c4.8-1.1,9.5-2.4,14.2-3.2
			c-1.9-2.4-4.3-4.3-7.9-4.7c-13.8-1.6-28.4,3.8-42.1,4.7c-9.2,0.6-19-0.6-26.5-5.8c-4.8-3.4-8.4-8.3-10.8-13.5
			c-5-10.9-5.1-23.4-0.9-34.6c2.9-7.5,9.8-13.3,12.2-21c2-6.4-0.3-13.1,0.3-19.6c0.1-1.3,0.4-2.6,0.8-3.9
			c2.4-6.9,13.8-16.9,20.8-20.2c16.8-8,34.3-11.9,52.2-12.3c-10.1-1.6-19.8-4.5-36.8-7.9C72.7,6.5,50,20.6,38.1,36.9
			c-1.2,1.7-2.3,3.4-3.2,5.2c-4.1,8.1-5.3,17.5-3.4,26.3c2.2,10.3,9.2,18.3,6.7,29.2c-1.5,6.7-1.9,12.9-2.7,19.5
			c-0.6,5.2,0.4,10.1,2.5,14.6C41.5,139.1,48,145.2,55.4,149.3z"/>
	</g>
	<g class="st7">
		<path class="st8" d="M160.9,14.6c-3.2,0.2-6.1,0.4-8.8,0.5c9.2,1.2,18.5,3.3,27.7,6.2l34.6,10.8c16.3,5.1,27,19.8,26,36
			c0,0.1,0,0.2,0,0.3c-0.7,9.4-3.9,18.6-9.4,26.3c-4.9,7-11.8,14.8-13.5,23.4c-1.4,6.8,1.6,13.7,1.9,20.7c0.3,6.6-1.7,12.9-5.3,18.3
			c4.2-1.1,8.2-2.6,11.9-4.7c10.6-5.8,18.1-15.2,21.4-25.4c2.6-8.1,3-15.7,1-24c-2-8.5-5.5-17.1-4.4-25.9c0.1-0.7,0.2-1.5,0.4-2.2
			c1-5.4,3.3-10.7,2.8-16.1c-0.4-4.1-2.3-8-4.6-11.4c-7.8-11.6-20.3-19.7-33.9-24.6c-1.4-0.5-2.7-0.9-4.1-1.4
			C190.4,16.8,175.7,13.6,160.9,14.6z"/>
	</g>
	<g class="st9">
		<path class="st10" d="M56.6,47.7c-0.5,1.3-0.7,2.7-0.8,4.1c-0.6,6.7,1.7,13.6-0.2,20.2c-2.4,8-9.3,13.9-12.1,21.7
			c-4.2,11.5-4,24.4,1.1,35.7c2.4,5.4,6,10.4,10.8,13.9c7.5,5.4,17.3,6.5,26.5,5.8c13.7-1,28.2-6.7,42.1-5.1c3.6,0.4,6,2.3,8,4.8
			c2.2,2.8,3.9,6.3,6,9c0.5,0.7,1.1,1.4,1.7,2.1h72.3c0.8-1,1.5-2,2.2-3c3.6-5.4,5.7-11.7,5.3-18.3c-0.4-6.9-3.3-13.8-1.9-20.7
			c1.7-8.5,8.5-16.4,13.5-23.4c5.5-7.7,8.7-16.9,9.4-26.3c0-0.1,0-0.2,0-0.3c1-16.2-9.8-30.9-26-36l-34.6-10.8
			c-9.3-2.9-18.5-5-27.7-6.2c-6.2-0.8-12.4-1.3-18.6-1.3c-1.4,0-2.7,0-4.1,0c-17.8,0.5-35.4,4.6-52.1,12.9
			C70.3,30.3,58.9,40.6,56.6,47.7z"/>
	</g>
	<g class="st5">
		<path class="st6" d="M120.5,10.7c3.1,0,5.6-2.4,5.6-5.3S123.6,0,120.5,0s-5.6,2.4-5.6,5.3S117.4,10.7,120.5,10.7z"/>
	</g>
	<g class="st5">
		<path class="st6" d="M272.5,80.7c7,0,12.7-5.4,12.7-12c0-6.6-5.7-12-12.7-12s-12.7,5.4-12.7,12C259.8,75.3,265.5,80.7,272.5,80.7z
			"/>
	</g>
	<g class="st5">
		<path class="st6" d="M26,100.9c5.4-4.2,6.1-11.8,1.7-16.9s-12.5-5.8-17.9-1.6c-5.4,4.2-6.1,11.8-1.7,16.9
			C12.6,104.5,20.6,105.2,26,100.9z"/>
	</g>
	<g class="st5">
		<path class="st6" d="M219.7,20.2c2.1,0,3.9-1.6,3.9-3.6s-1.7-3.6-3.9-3.6c-2.1,0-3.9,1.6-3.9,3.6S217.6,20.2,219.7,20.2z"/>
	</g>
</g>
<path class="st11" d="M201.2,69.2H194c-0.4,0-0.7-0.3-0.7-0.7c0-0.4,0.3-0.7,0.7-0.7h7.2c3,0,5.4-2.4,5.4-5.3c0-3.7-3.8-6.2-7.2-5
	c-0.2,0.1-0.4,0-0.6-0.1c-0.2-0.1-0.3-0.3-0.3-0.6c0.2-4.2-3.5-7.6-7.6-7.6c-4.1,0-7.7,3.4-7.6,7.6c0,0.2-0.1,0.4-0.3,0.6
	c-0.2,0.1-0.4,0.2-0.6,0.1c-3.4-1.2-7.2,1.3-7.2,5c0,2.9,2.5,5.3,5.4,5.3h7.2c0.4,0,0.7,0.3,0.7,0.7c0,0.4-0.3,0.7-0.7,0.7h-7.2
	c-3.7,0-6.8-3-6.8-6.6c0-4.3,4.1-7.3,8.1-6.5c0.3-4.5,4.3-8.1,8.9-8.1c4.5,0,8.6,3.6,8.9,8.1c4-0.8,8.1,2.2,8.1,6.5
	C208,66.3,204.9,69.2,201.2,69.2z"/>
<path class="st12" d="M82.4,131.1h19.3c0.7,0,1.3-0.6,1.3-1.3V56.1c0-0.6-0.4-1.1-0.9-1.3l-19.3-5.8c0,0,0,0,0,0
	c-0.4-0.1-0.8,0-1.2,0.2C81.2,49.6,81,50,81,50.4v79.4C81,130.5,81.6,131.1,82.4,131.1z M100.4,57.1v71.3H83.7V52.2L100.4,57.1z"/>
<path class="st12" d="M172.9,85.6L172.9,85.6l-19.3-5.8c0,0,0,0,0,0c-0.4-0.1-0.8,0-1.2,0.2c-0.3,0.2-0.5,0.6-0.5,1.1v48.7
	c0,0.7,0.6,1.3,1.3,1.3h19.3c0.7,0,1.3-0.6,1.3-1.3v0V86.9C173.8,86.3,173.4,85.8,172.9,85.6z M171.2,87.9v40.6h-16.7V82.9
	L171.2,87.9z"/>
<path class="st12" d="M127,56.7L127,56.7c-0.5,0.2-0.9,0.7-0.9,1.2v71.8c0,0.7,0.6,1.3,1.3,1.3h25.8c0.7,0,1.3-0.6,1.3-1.3v0V48.2
	c0-0.4-0.2-0.8-0.6-1.1c-0.4-0.2-0.8-0.3-1.2-0.2L127,56.7z M151.9,50.2v78.3h-23.1V58.9L151.9,50.2z"/>
<path class="st12" d="M101.2,39.7L101.2,39.7c-0.5,0.2-0.9,0.7-0.9,1.2v88.8c0,0.7,0.6,1.3,1.3,1.3h25.8c0.7,0,1.3-0.6,1.3-1.3v0
	V31.2c0-0.4-0.2-0.8-0.6-1.1c-0.4-0.2-0.8-0.3-1.2-0.2L101.2,39.7z M126.1,33.2v95.3H103V41.9L126.1,33.2z"/>
<path class="st12" d="M78.1,131.1h98.7c0.7,0,1.3-0.6,1.3-1.3c0-0.7-0.6-1.3-1.3-1.3H78.1c-0.7,0-1.3,0.6-1.3,1.3
	C76.8,130.5,77.3,131.1,78.1,131.1z"/>
<path class="st11" d="M110.3,50.4H106V59h4.3V50.4z"/>
<path class="st11" d="M116.7,50.4h-4.3V59h4.3V50.4z"/>
<path class="st11" d="M123.1,50.4h-4.3V59h4.3V50.4z"/>
<path class="st11" d="M110.3,61.1H106v8.6h4.3V61.1z"/>
<path class="st11" d="M116.7,61.1h-4.3v8.6h4.3V61.1z"/>
<path class="st11" d="M123.1,61.1h-4.3v8.6h4.3V61.1z"/>
<path class="st11" d="M110.3,71.8H106v8.6h4.3V71.8z"/>
<path class="st11" d="M116.7,71.8h-4.3v8.6h4.3V71.8z"/>
<path class="st11" d="M123.1,71.8h-4.3v8.6h4.3V71.8z"/>
<path class="st11" d="M136,61.1h-4.3v4.3h4.3V61.1z"/>
<path class="st11" d="M142.5,61.1h-4.3v4.3h4.3V61.1z"/>
<path class="st11" d="M148.9,61.1h-4.3v4.3h4.3V61.1z"/>
<path class="st11" d="M136,67.6h-4.3v4.3h4.3V67.6z"/>
<path class="st11" d="M142.5,67.6h-4.3v4.3h4.3V67.6z"/>
<path class="st11" d="M148.9,67.6h-4.3v4.3h4.3V67.6z"/>
<path class="st11" d="M136,74h-4.3v4.3h4.3V74z"/>
<path class="st11" d="M142.5,74h-4.3v4.3h4.3V74z"/>
<path class="st11" d="M148.9,74h-4.3v4.3h4.3V74z"/>
<path class="st11" d="M136,80.4h-4.3v4.3h4.3V80.4z"/>
<path class="st11" d="M142.5,80.4h-4.3v4.3h4.3V80.4z"/>
<path class="st11" d="M148.9,80.4h-4.3v4.3h4.3V80.4z"/>
<path class="st11" d="M136,86.9h-4.3v4.3h4.3V86.9z"/>
<path class="st11" d="M142.5,86.9h-4.3v4.3h4.3V86.9z"/>
<path class="st11" d="M148.9,86.9h-4.3v4.3h4.3V86.9z"/>
<path class="st11" d="M136,93.3h-4.3v4.3h4.3V93.3z"/>
<path class="st11" d="M142.5,93.3h-4.3v4.3h4.3V93.3z"/>
<path class="st11" d="M148.9,93.3h-4.3v4.3h4.3V93.3z"/>
<path class="st11" d="M136,99.8h-4.3v4.3h4.3V99.8z"/>
<path class="st11" d="M142.5,99.8h-4.3v4.3h4.3V99.8z"/>
<path class="st11" d="M148.9,99.8h-4.3v4.3h4.3V99.8z"/>
<path class="st11" d="M168.2,93.3h-10.7v4.3h10.7V93.3z"/>
<path class="st11" d="M168.2,99.8h-10.7v4.3h10.7V99.8z"/>
<path class="st11" d="M168.2,106.2h-10.7v4.3h10.7V106.2z"/>
<path class="st11" d="M97.4,69.7H86.7V74h10.7V69.7z"/>
<path class="st11" d="M97.4,76.1H86.7v4.3h10.7V76.1z"/>
<path class="st11" d="M97.4,82.6H86.7v4.3h10.7V82.6z"/>
<path class="st11" d="M97.4,89H86.7v4.3h10.7V89z"/>
<path class="st11" d="M97.4,95.5H86.7v4.3h10.7V95.5z"/>
<path class="st11" d="M97.4,101.9H86.7v4.3h10.7V101.9z"/>
<path class="st11" d="M97.4,108.3H86.7v4.3h10.7V108.3z"/>
<path class="st11" d="M97.4,114.8H86.7v4.3h10.7V114.8z"/>
<path class="st11" d="M97.4,121.2H86.7v4.3h10.7V121.2z"/>
<path class="st11" d="M168.2,112.6h-10.7v4.3h10.7V112.6z"/>
<path class="st11" d="M136,106.2h-4.3v4.3h4.3V106.2z"/>
<path class="st11" d="M142.5,106.2h-4.3v4.3h4.3V106.2z"/>
<path class="st11" d="M148.9,106.2h-4.3v4.3h4.3V106.2z"/>
<path class="st11" d="M136,112.6h-4.3v4.3h4.3V112.6z"/>
<path class="st11" d="M142.5,112.6h-4.3v4.3h4.3V112.6z"/>
<path class="st11" d="M148.9,112.6h-4.3v4.3h4.3V112.6z"/>
<path class="st11" d="M136,119.1h-4.3v4.3h4.3V119.1z"/>
<path class="st11" d="M142.5,119.1h-4.3v4.3h4.3V119.1z"/>
<path class="st11" d="M148.9,119.1h-4.3v4.3h4.3V119.1z"/>
<path class="st11" d="M110.3,82.6H106v8.6h4.3V82.6z"/>
<path class="st11" d="M116.7,82.6h-4.3v8.6h4.3V82.6z"/>
<path class="st11" d="M123.1,82.6h-4.3v8.6h4.3V82.6z"/>
<path class="st11" d="M110.3,93.3H106v8.6h4.3V93.3z"/>
<path class="st11" d="M116.7,93.3h-4.3v8.6h4.3V93.3z"/>
<path class="st11" d="M123.1,93.3h-4.3v8.6h4.3V93.3z"/>
<path class="st11" d="M110.3,104H106v8.6h4.3V104z"/>
<path class="st11" d="M116.7,104h-4.3v8.6h4.3V104z"/>
<path class="st11" d="M123.1,104h-4.3v8.6h4.3V104z"/>
<path class="st11" d="M110.3,114.8H106v8.6h4.3V114.8z"/>
<path class="st11" d="M116.7,114.8h-4.3v8.6h4.3V114.8z"/>
<path class="st11" d="M123.1,114.8h-4.3v8.6h4.3V114.8z"/>
</svg>
