<svg width="132" height="103" viewBox="0 0 132 103" fill="none" xmlns="http://www.w3.org/2000/svg">
<path d="M6.36236 102.123H25.6798C26.4104 102.123 27.0018 101.531 27.0018 100.798V27.1468C27.0018 26.5635 26.6196 26.0461 26.0581 25.88C26.0581 25.88 26.058 25.88 26.0579 25.8799L6.74289 20.1209C6.74256 20.1208 6.74222 20.1207 6.74188 20.1206C6.3411 19.998 5.90738 20.078 5.57352 20.3255C5.23739 20.5746 5.04041 20.9694 5.04041 21.3871V100.801C5.04041 101.531 5.63231 102.123 6.36236 102.123ZM24.3579 28.1331V99.4758H7.68751V23.1624L24.3579 28.1331Z" fill="#006AFF" stroke="#006AFF" stroke-width="0.5"/>
<path d="M96.889 56.6055L96.8879 56.6052L77.5724 50.846C77.572 50.8459 77.5717 50.8458 77.5713 50.8457C77.1706 50.7231 76.7368 50.8031 76.403 51.0506C76.0669 51.2997 75.8699 51.6945 75.8699 52.1122V100.801C75.8699 101.531 76.4618 102.123 77.1918 102.123H96.5061C97.2367 102.123 97.8266 101.531 97.8345 100.804V100.801V57.8751C97.8345 57.2866 97.4473 56.7746 96.889 56.6055ZM95.1842 58.8614V99.4759H78.5138V53.8907L95.1842 58.8614Z" fill="#006AFF" stroke="#006AFF" stroke-width="0.5"/>
<path d="M50.9679 27.7132L50.9695 27.7126L76.7247 18.0044L50.9679 27.7132ZM50.9679 27.7132C50.4568 27.9098 50.1133 28.4016 50.1133 28.9513V100.801C50.1133 101.531 50.7052 102.123 51.4352 102.123H77.1876C77.9206 102.123 78.512 101.531 78.516 100.802V100.801M50.9679 27.7132L78.516 100.801M78.516 100.801V19.243C78.516 18.8089 78.3029 18.4029 77.945 18.1547M78.516 100.801L77.945 18.1547M77.945 18.1547C77.5886 17.9055 77.1308 17.8508 76.7251 18.0043L77.945 18.1547ZM75.8657 21.1532V99.4756H52.7572V29.8666L75.8657 21.1532Z" fill="#006AFF" stroke="#006AFF" stroke-width="0.5"/>
<path d="M50.881 0.869201L50.8819 0.868822C51.2905 0.684158 51.7676 0.714842 52.1476 0.960226C52.5256 1.20438 52.7547 1.6224 52.7547 2.07259V100.8V100.801L50.881 0.869201ZM50.881 0.869201L25.1259 12.622L50.881 0.869201ZM50.1108 4.12861V99.4756H27.0024V14.6743L50.1108 4.12861Z" fill="#006AFF" stroke="#006AFF" stroke-width="0.5"/>
<path d="M2.07195 102.123H100.797C101.53 102.123 102.122 101.531 102.122 100.801C102.122 100.071 101.53 99.4789 100.8 99.4789H2.07195C1.3419 99.4789 0.75 100.071 0.75 100.801C0.75 101.531 1.34191 102.123 2.07195 102.123Z" fill="#006AFF" stroke="#006AFF" stroke-width="0.5"/>
<path d="M34.263 21.3865H29.972V29.9717H34.263V21.3865Z" fill="#006AFF"/>
<path d="M40.7003 21.3865H36.4093V29.9717H40.7003V21.3865Z" fill="#006AFF"/>
<path d="M47.1422 21.3865H42.8512V29.9717H47.1422V21.3865Z" fill="#006AFF"/>
<path d="M34.263 32.1188H29.972V40.704H34.263V32.1188Z" fill="#006AFF"/>
<path d="M40.7003 32.1188H36.4093V40.704H40.7003V32.1188Z" fill="#006AFF"/>
<path d="M47.1422 32.1188H42.8512V40.704H47.1422V32.1188Z" fill="#006AFF"/>
<path d="M34.263 42.848H29.972V51.4332H34.263V42.848Z" fill="#006AFF"/>
<path d="M40.7003 42.848H36.4093V51.4332H40.7003V42.848Z" fill="#006AFF"/>
<path d="M47.1422 42.848H42.8512V51.4332H47.1422V42.848Z" fill="#006AFF"/>
<path d="M60.0212 32.1188H55.7271V36.4098H60.0212V32.1188Z" fill="#006AFF"/>
<path d="M66.4601 32.1188H62.1659V36.4098H66.4601V32.1188Z" fill="#006AFF"/>
<path d="M72.894 32.1188H68.603V36.4098H72.894V32.1188Z" fill="#006AFF"/>
<path d="M60.0212 38.5576H55.7271V42.8486H60.0212V38.5576Z" fill="#006AFF"/>
<path d="M66.4601 38.5576H62.1659V42.8486H66.4601V38.5576Z" fill="#006AFF"/>
<path d="M72.894 38.5576H68.603V42.8486H72.894V38.5576Z" fill="#006AFF"/>
<path d="M60.0212 44.9956H55.7271V49.2898H60.0212V44.9956Z" fill="#006AFF"/>
<path d="M66.4601 44.9956H62.1659V49.2898H66.4601V44.9956Z" fill="#006AFF"/>
<path d="M72.894 44.9956H68.603V49.2898H72.894V44.9956Z" fill="#006AFF"/>
<path d="M60.0212 51.4336H55.7271V55.7278H60.0212V51.4336Z" fill="#006AFF"/>
<path d="M66.4601 51.4336H62.1659V55.7278H66.4601V51.4336Z" fill="#006AFF"/>
<path d="M72.894 51.4336H68.603V55.7278H72.894V51.4336Z" fill="#006AFF"/>
<path d="M60.0212 57.8747H55.7271V62.1689H60.0212V57.8747Z" fill="#006AFF"/>
<path d="M66.4601 57.8747H62.1659V62.1689H66.4601V57.8747Z" fill="#006AFF"/>
<path d="M72.894 57.8747H68.603V62.1689H72.894V57.8747Z" fill="#006AFF"/>
<path d="M60.0212 64.3127H55.7271V68.6069H60.0212V64.3127Z" fill="#006AFF"/>
<path d="M66.4601 64.3127H62.1659V68.6069H66.4601V64.3127Z" fill="#006AFF"/>
<path d="M72.894 64.3127H68.603V68.6069H72.894V64.3127Z" fill="#006AFF"/>
<path d="M60.0212 70.7506H55.7271V75.0448H60.0212V70.7506Z" fill="#006AFF"/>
<path d="M66.4601 70.7506H62.1659V75.0448H66.4601V70.7506Z" fill="#006AFF"/>
<path d="M72.894 70.7506H68.603V75.0448H72.894V70.7506Z" fill="#006AFF"/>
<path d="M92.2113 64.3127H81.4822V68.6069H92.2113V64.3127Z" fill="#006AFF"/>
<path d="M92.2113 70.7506H81.4822V75.0448H92.2113V70.7506Z" fill="#006AFF"/>
<path d="M92.2113 77.1894H81.4822V81.4836H92.2113V77.1894Z" fill="#006AFF"/>
<path d="M21.3896 40.7044H10.6573V44.9986H21.3896V40.7044Z" fill="#006AFF"/>
<path d="M21.3896 47.1424H10.6573V51.4366H21.3896V47.1424Z" fill="#006AFF"/>
<path d="M21.3896 53.5803H10.6573V57.8745H21.3896V53.5803Z" fill="#006AFF"/>
<path d="M21.3896 60.0183H10.6573V64.3125H21.3896V60.0183Z" fill="#006AFF"/>
<path d="M21.3896 66.4602H10.6573V70.7512H21.3896V66.4602Z" fill="#006AFF"/>
<path d="M21.3896 72.8982H10.6573V77.1924H21.3896V72.8982Z" fill="#006AFF"/>
<path d="M21.3896 79.3362H10.6573V83.6304H21.3896V79.3362Z" fill="#006AFF"/>
<path d="M21.3896 85.7742H10.6573V90.0684H21.3896V85.7742Z" fill="#006AFF"/>
<path d="M21.3896 92.2153H10.6573V96.5063H21.3896V92.2153Z" fill="#006AFF"/>
<path d="M92.2113 83.6305H81.4822V87.9215H92.2113V83.6305Z" fill="#006AFF"/>
<path d="M60.0212 77.1894H55.7271V81.4836H60.0212V77.1894Z" fill="#006AFF"/>
<path d="M66.4601 77.1894H62.1659V81.4836H66.4601V77.1894Z" fill="#006AFF"/>
<path d="M72.894 77.1894H68.603V81.4836H72.894V77.1894Z" fill="#006AFF"/>
<path d="M60.0212 83.6305H55.7271V87.9215H60.0212V83.6305Z" fill="#006AFF"/>
<path d="M66.4601 83.6305H62.1659V87.9215H66.4601V83.6305Z" fill="#006AFF"/>
<path d="M72.894 83.6305H68.603V87.9215H72.894V83.6305Z" fill="#006AFF"/>
<path d="M60.0212 90.0685H55.7271V94.3627H60.0212V90.0685Z" fill="#006AFF"/>
<path d="M66.4601 90.0685H62.1659V94.3627H66.4601V90.0685Z" fill="#006AFF"/>
<path d="M72.894 90.0685H68.603V94.3627H72.894V90.0685Z" fill="#006AFF"/>
<path d="M34.263 53.5803H29.972V62.1655H34.263V53.5803Z" fill="#006AFF"/>
<path d="M40.7003 53.5803H36.4093V62.1655H40.7003V53.5803Z" fill="#006AFF"/>
<path d="M47.1422 53.5803H42.8512V62.1655H47.1422V53.5803Z" fill="#006AFF"/>
<path d="M34.263 64.3127H29.972V72.8979H34.263V64.3127Z" fill="#006AFF"/>
<path d="M40.7003 64.3127H36.4093V72.8979H40.7003V64.3127Z" fill="#006AFF"/>
<path d="M47.1422 64.3127H42.8512V72.8979H47.1422V64.3127Z" fill="#006AFF"/>
<path d="M34.263 75.045H29.972V83.6302H34.263V75.045Z" fill="#006AFF"/>
<path d="M40.7003 75.045H36.4093V83.6302H40.7003V75.045Z" fill="#006AFF"/>
<path d="M47.1422 75.045H42.8512V83.6302H47.1422V75.045Z" fill="#006AFF"/>
<path d="M34.263 85.7742H29.972V94.3594H34.263V85.7742Z" fill="#006AFF"/>
<path d="M40.7003 85.7742H36.4093V94.3594H40.7003V85.7742Z" fill="#006AFF"/>
<path d="M47.1422 85.7742H42.8512V94.3594H47.1422V85.7742Z" fill="#006AFF"/>
<path d="M125.227 40.25H117.988C117.622 40.25 117.324 39.9527 117.324 39.5859C117.324 39.2192 117.622 38.9219 117.988 38.9219H125.227C128.178 38.9219 130.672 36.489 130.672 33.6094C130.672 29.8799 126.838 27.3986 123.449 28.6013C123.241 28.6751 123.01 28.6407 122.833 28.5096C122.655 28.3786 122.554 28.1679 122.564 27.9474C122.739 23.7887 119.101 20.3281 115 20.3281C110.868 20.3281 107.259 23.7652 107.436 27.9474C107.446 28.1678 107.345 28.3786 107.167 28.5097C106.99 28.6408 106.759 28.6751 106.551 28.6013C103.137 27.3896 99.3281 29.9029 99.3281 33.6094C99.3281 36.489 101.822 38.9219 104.773 38.9219H112.012C112.378 38.9219 112.676 39.2192 112.676 39.5859C112.676 39.9527 112.378 40.25 112.012 40.25H104.773C101.088 40.25 98 37.2672 98 33.6094C98 29.3034 102.081 26.2718 106.12 27.1053C106.419 22.5675 110.43 19 115 19C119.533 19 123.574 22.5801 123.879 27.1055C127.915 26.272 132 29.301 132 33.6094C132 37.2649 128.914 40.25 125.227 40.25V40.25Z" fill="#006AFF"/>
</svg>
