<svg width="88" height="88" viewBox="0 0 88 88" fill="none" xmlns="http://www.w3.org/2000/svg">
<g clip-path="url(#clip0)">
<path d="M80.6667 13.2H7.33333C3.28533 13.2047 0.00476667 16.4853 0 20.5333V67.4666C0.00476667 71.5146 3.28533 74.7952 7.33333 74.8H80.6667C81.0782 74.8016 81.4891 74.7657 81.8943 74.6929C85.4232 74.1022 88.0068 71.0447 88 67.4666V20.5333C87.9952 16.4851 84.7147 13.2047 80.6667 13.2ZM7.33333 71.8666C5.05358 71.8663 3.1515 70.1248 2.95093 67.8538L32.1933 48.7344L61.9315 71.8666H7.33333ZM85.0667 67.4666C85.069 69.6193 83.5098 71.4561 81.3853 71.8036C81.1481 71.8463 80.9076 71.8674 80.6667 71.8666H66.7084L47.2765 56.7438L64.6536 42.8486L85.0667 55.0968V67.4666ZM85.0667 51.6765L65.2887 39.8097C64.7629 39.4934 64.0959 39.538 63.6167 39.9212L44.8917 54.8958L33.1657 45.7761C32.6716 45.3922 31.9885 45.3638 31.4644 45.7057L2.93333 64.3602V20.5333C2.93333 18.1032 4.90325 16.1333 7.33333 16.1333H80.6667C83.0967 16.1333 85.0667 18.1032 85.0667 20.5333V51.6765Z" fill="#FFA502"/>
<path d="M44 22C39.1398 22 35.2 25.9398 35.2 30.8C35.2048 35.6581 39.1419 39.5952 44 39.6C48.8602 39.6 52.8 35.6602 52.8 30.8C52.8 25.9398 48.8602 22 44 22ZM44 36.6667C40.76 36.6667 38.1333 34.04 38.1333 30.8C38.1333 27.5599 40.76 24.9333 44 24.9333C47.2401 24.9333 49.8667 27.5599 49.8667 30.8C49.8667 34.04 47.2401 36.6667 44 36.6667Z" fill="#FFA502"/>
</g>
<defs>
<clipPath id="clip0">
<rect width="88" height="88" fill="white"/>
</clipPath>
</defs>
</svg>
