<svg width="762" height="504" viewBox="0 0 762 504" fill="none" xmlns="http://www.w3.org/2000/svg">
<path d="M408.605 421.516H311.218L321.793 379.955L324.252 370.61L328.925 352.288H391.021L395.694 370.61L398.03 379.955L408.605 421.516Z" fill="#407BFF"/>
<path d="M398.03 379.955H321.793L324.253 370.609H395.694L398.03 379.955Z" fill="#407BFF"/>
<path d="M566.12 123.085V360.526C566.12 366.183 561.571 370.732 555.915 370.732H164.032C158.376 370.732 153.826 366.183 153.826 360.526V123.085C153.826 117.429 158.376 112.879 164.032 112.879H555.792C561.448 112.879 566.12 117.429 566.12 123.085Z" fill="#407BFF"/>
<path d="M445.986 433.075H273.838C269.657 433.075 266.337 429.755 266.337 425.575C266.337 421.394 269.657 418.074 273.838 418.074H445.986C450.167 418.074 453.487 421.394 453.487 425.575C453.487 429.755 450.167 433.075 445.986 433.075Z" fill="#407BFF"/>
<path d="M557.759 120.381H161.45V329.663H557.759V120.381Z" fill="#BED2FF"/>
<path d="M359.912 359.051C354.624 359.051 350.443 354.747 350.443 349.583C350.443 344.295 354.747 340.115 359.912 340.115C365.199 340.115 369.38 344.418 369.38 349.583C369.38 354.87 365.199 359.051 359.912 359.051Z" fill="#E0E0E0"/>
<path opacity="0.5" d="M417.213 302.365H410.204V317.735H417.213V302.365Z" fill="#407BFF"/>
<path opacity="0.5" d="M425.205 302.365H418.196V317.735H425.205V302.365Z" fill="#407BFF"/>
<path opacity="0.5" d="M433.197 302.365H426.188V317.735H433.197V302.365Z" fill="#407BFF"/>
<path d="M288.84 302.365H281.831V317.735H288.84V302.365Z" fill="#407BFF"/>
<path d="M296.832 302.365H289.823V317.735H296.832V302.365Z" fill="#407BFF"/>
<path d="M304.947 302.365H297.938V317.735H304.947V302.365Z" fill="#407BFF"/>
<path d="M312.94 302.365H305.931V317.735H312.94V302.365Z" fill="#407BFF"/>
<path d="M320.933 302.365H313.924V317.735H320.933V302.365Z" fill="#407BFF"/>
<path d="M328.925 302.365H321.916V317.735H328.925V302.365Z" fill="#407BFF"/>
<path d="M336.918 302.365H329.909V317.735H336.918V302.365Z" fill="#407BFF"/>
<path d="M345.033 302.365H338.025V317.735H345.033V302.365Z" fill="#407BFF"/>
<path opacity="0.5" d="M353.026 302.365H346.017V317.735H353.026V302.365Z" fill="#407BFF"/>
<path opacity="0.5" d="M361.019 302.365H354.01V317.735H361.019V302.365Z" fill="#407BFF"/>
<path opacity="0.5" d="M369.011 302.365H362.002V317.735H369.011V302.365Z" fill="#407BFF"/>
<path opacity="0.5" d="M377.126 302.365H370.118V317.735H377.126V302.365Z" fill="#407BFF"/>
<path opacity="0.5" d="M385.119 302.365H378.11V317.735H385.119V302.365Z" fill="#407BFF"/>
<path opacity="0.5" d="M393.111 302.365H386.103V317.735H393.111V302.365Z" fill="#407BFF"/>
<path opacity="0.5" d="M401.104 302.365H394.095V317.735H401.104V302.365Z" fill="#407BFF"/>
<path opacity="0.5" d="M409.22 302.365H402.211V317.735H409.22V302.365Z" fill="#407BFF"/>
<path d="M435.288 300.52H280.355V319.334H435.288V300.52Z" stroke="#407BFF" stroke-width="0.75" stroke-miterlimit="10"/>
<path opacity="0.25" d="M289.086 136.119C287.118 136.119 285.643 137.718 285.643 139.562V287.24C285.643 289.208 287.241 290.683 289.086 290.683H437.01C438.977 290.683 440.453 289.085 440.453 287.24V184.321L392.251 136.119H289.086Z" fill="#007CF4"/>
<path d="M283.921 130.956C281.954 130.956 280.478 132.554 280.478 134.399V282.077C280.478 284.044 282.077 285.52 283.921 285.52H431.845C433.813 285.52 435.288 283.921 435.288 282.077V179.157L387.087 130.956H283.921Z" fill="#007CF4"/>
<path d="M390.53 179.156H435.288L387.087 130.955V175.713C387.087 177.558 388.685 179.156 390.53 179.156Z" fill="white"/>
<path d="M360.035 161.818L338.147 184.32H346.509V221.209H373.438V184.32H381.799L360.035 161.818Z" fill="#83A9FF"/>
<path d="M399.506 213.833V242.975H320.441V213.833H333.229V230.678H386.841V213.833H399.506Z" fill="#83A9FF"/>
<path opacity="0.2" d="M389.054 370.61H361.265L434.428 112.88H462.34L389.054 370.61Z" fill="url(#paint0_linear)"/>
<path opacity="0.2" d="M459.02 370.61H399.998L473.161 112.88H532.306L459.02 370.61Z" fill="url(#paint1_linear)"/>
<path d="M0 433.075H719.824" stroke="#DFDBF8" stroke-miterlimit="10"/>
<path d="M760.77 211.864H642.234C641.619 211.864 641.127 211.372 641.127 210.758V119.642C641.127 117.675 642.726 116.076 644.693 116.076H756.589C759.54 116.076 761.999 118.536 761.999 121.487V210.881C761.876 211.372 761.385 211.864 760.77 211.864Z" fill="#94B5FF"/>
<path d="M708.51 204.364H652.317C650.964 204.364 649.734 203.257 649.734 201.782V186.903C649.734 185.551 650.841 184.321 652.317 184.321H708.51C709.863 184.321 711.093 185.428 711.093 186.903V201.782C711.093 203.257 709.863 204.364 708.51 204.364Z" fill="white"/>
<path opacity="0.31" d="M709.249 131.694H651.579C650.596 131.694 649.735 130.833 649.735 129.849C649.735 128.865 650.596 128.005 651.579 128.005H709.249C710.233 128.005 711.093 128.865 711.093 129.849C711.093 130.833 710.233 131.694 709.249 131.694Z" fill="white"/>
<path opacity="0.31" d="M709.248 139.071H651.579C650.595 139.071 649.734 138.21 649.734 137.227C649.734 136.243 650.595 135.382 651.579 135.382H709.248C710.232 135.382 711.093 136.243 711.093 137.227C711.093 138.21 710.232 139.071 709.248 139.071Z" fill="white"/>
<path opacity="0.31" d="M709.248 146.449H651.579C650.595 146.449 649.734 145.589 649.734 144.605C649.734 143.621 650.595 142.76 651.579 142.76H709.248C710.232 142.76 711.093 143.621 711.093 144.605C711.093 145.589 710.232 146.449 709.248 146.449Z" fill="white"/>
<path opacity="0.31" d="M709.248 153.826H651.579C650.595 153.826 649.734 152.966 649.734 151.982C649.734 150.998 650.595 150.138 651.579 150.138H709.248C710.232 150.138 711.093 150.998 711.093 151.982C711.093 153.089 710.232 153.826 709.248 153.826Z" fill="white"/>
<path opacity="0.31" d="M709.248 161.205H651.579C650.595 161.205 649.734 160.344 649.734 159.36C649.734 158.377 650.595 157.516 651.579 157.516H709.248C710.232 157.516 711.093 158.377 711.093 159.36C711.093 160.467 710.232 161.205 709.248 161.205Z" fill="white"/>
<path opacity="0.31" d="M700.272 168.705H651.579C650.595 168.705 649.734 167.844 649.734 166.86C649.734 165.876 650.595 165.016 651.579 165.016H700.272C701.256 165.016 702.117 165.876 702.117 166.86C701.994 167.844 701.256 168.705 700.272 168.705Z" fill="white"/>
<path d="M719.454 191.577L720.315 193.421L722.282 193.79L720.807 195.143L721.176 197.11L719.454 196.249L717.61 197.11L717.979 195.143L716.503 193.79L718.471 193.421L719.454 191.577Z" fill="#F7C148"/>
<path d="M728.308 191.577L729.169 193.421L731.136 193.79L729.661 195.143L730.029 197.11L728.308 196.249L726.464 197.11L726.832 195.143L725.357 193.79L727.324 193.421L728.308 191.577Z" fill="#F7C148"/>
<path d="M737.161 191.577L738.022 193.421L739.989 193.79L738.636 195.143L738.882 197.11L737.161 196.249L735.317 197.11L735.685 195.143L734.21 193.79L736.3 193.421L737.161 191.577Z" fill="#F7C148"/>
<path d="M746.014 191.577L746.875 193.421L748.966 193.79L747.49 195.143L747.859 197.11L746.014 196.249L744.17 197.11L744.539 195.143L743.063 193.79L745.154 193.421L746.014 191.577Z" fill="#F7C148"/>
<path d="M754.867 191.577L755.728 193.421L757.819 193.79L756.343 195.143L756.712 197.11L754.867 196.249L753.146 197.11L753.392 195.143L752.039 193.79L754.007 193.421L754.867 191.577Z" fill="#F7C148"/>
<path d="M760.647 112.879H642.234C641.496 112.879 641.004 113.371 641.004 114.109V123.208H761.876V114.109C761.876 113.371 761.384 112.879 760.647 112.879Z" fill="#407BFF"/>
<path d="M742.817 119.151C743.428 119.151 743.924 118.655 743.924 118.044C743.924 117.433 743.428 116.937 742.817 116.937C742.206 116.937 741.71 117.433 741.71 118.044C741.71 118.655 742.206 119.151 742.817 119.151Z" fill="white"/>
<path d="M748.35 119.151C748.961 119.151 749.457 118.656 749.457 118.044C749.457 117.433 748.961 116.938 748.35 116.938C747.739 116.938 747.243 117.433 747.243 118.044C747.243 118.656 747.739 119.151 748.35 119.151Z" fill="white"/>
<path d="M753.884 119.151C754.495 119.151 754.99 118.656 754.99 118.044C754.99 117.433 754.495 116.938 753.884 116.938C753.272 116.938 752.777 117.433 752.777 118.044C752.777 118.656 753.272 119.151 753.884 119.151Z" fill="white"/>
<path d="M757.205 129.233V167.475C757.205 168.09 756.713 168.704 755.975 168.704H718.225C717.611 168.704 717.119 168.213 717.119 167.475V129.233C717.119 128.619 717.611 128.127 718.225 128.127H756.098C756.713 128.004 757.205 128.619 757.205 129.233Z" fill="white"/>
<path d="M757.204 160.343V167.475C757.204 168.089 756.712 168.704 755.975 168.704H737.161L737.899 160.343L746.752 150.506L757.204 160.343Z" fill="#8EB1FF"/>
<path d="M752.039 168.704H718.225C717.61 168.704 717.118 168.213 717.118 167.475V160.343L730.398 146.448L752.039 168.704Z" fill="#407BFF"/>
<path d="M747.244 143.744C749.825 143.744 751.917 141.652 751.917 139.071C751.917 136.49 749.825 134.398 747.244 134.398C744.664 134.398 742.572 136.49 742.572 139.071C742.572 141.652 744.664 143.744 747.244 143.744Z" fill="#407BFF"/>
<path d="M57.423 186.043H143.374L133.414 178.665V149.769C133.414 148.539 132.43 147.556 131.201 147.556H57.423C56.1934 147.556 55.2097 148.539 55.2097 149.769V183.83C55.2097 185.059 56.1934 186.043 57.423 186.043Z" fill="white" stroke="#D6D4FF" stroke-width="0.75" stroke-miterlimit="10"/>
<path opacity="0.24" d="M99.3528 153.335H60.0048V157.147H99.3528V153.335Z" fill="#A4A4F7"/>
<path opacity="0.24" d="M99.3528 158.99H60.0048V162.802H99.3528V158.99Z" fill="#A4A4F7"/>
<path opacity="0.24" d="M99.3528 164.647H60.0048V168.459H99.3528V164.647Z" fill="#A4A4F7"/>
<path opacity="0.24" d="M99.3528 170.058H60.0048V173.869H99.3528V170.058Z" fill="#A4A4F7"/>
<path opacity="0.24" d="M87.4255 176.697H60.0048V180.509H87.4255V176.697Z" fill="#A4A4F7"/>
<path opacity="0.24" d="M129.355 153.949V179.649C129.355 180.141 128.986 180.386 128.617 180.386H103.164C102.795 180.386 102.426 180.018 102.426 179.649V153.949C102.426 153.581 102.795 153.212 103.164 153.212H128.617C128.986 153.089 129.355 153.458 129.355 153.949Z" fill="#A4A4F7"/>
<path d="M129.356 174.854V179.649C129.356 180.141 128.987 180.387 128.618 180.387H115.953L116.445 174.731L122.347 168.214L129.356 174.854Z" fill="#83A9FF"/>
<path d="M125.79 180.387H103.042C102.673 180.387 102.304 180.018 102.304 179.649V174.853L111.157 165.508L125.79 180.387Z" fill="#407BFF"/>
<path d="M122.593 163.54C124.29 163.54 125.667 162.164 125.667 160.466C125.667 158.769 124.29 157.392 122.593 157.392C120.895 157.392 119.519 158.769 119.519 160.466C119.519 162.164 120.895 163.54 122.593 163.54Z" fill="#407BFF"/>
<path d="M604.238 112.019C608.041 112.019 611.124 108.936 611.124 105.133C611.124 101.33 608.041 98.2469 604.238 98.2469C600.435 98.2469 597.352 101.33 597.352 105.133C597.352 108.936 600.435 112.019 604.238 112.019Z" fill="#83A9FF"/>
<path d="M601.287 104.274L602.763 107.717L607.927 104.519" stroke="white" stroke-width="1.0564" stroke-miterlimit="10" stroke-linecap="round" stroke-linejoin="round"/>
<path d="M161.326 96.6482C165.129 96.6482 168.212 93.5652 168.212 89.7622C168.212 85.9593 165.129 82.8763 161.326 82.8763C157.523 82.8763 154.441 85.9593 154.441 89.7622C154.441 93.5652 157.523 96.6482 161.326 96.6482Z" fill="#83A9FF"/>
<path d="M158.498 90.9918L161.941 92.5903L163.786 86.811" stroke="white" stroke-width="1.0564" stroke-miterlimit="10" stroke-linecap="round" stroke-linejoin="round"/>
<path d="M685.517 259.696C691.289 259.696 695.968 255.017 695.968 249.245C695.968 243.472 691.289 238.793 685.517 238.793C679.744 238.793 675.065 243.472 675.065 249.245C675.065 255.017 679.744 259.696 685.517 259.696Z" fill="#83A9FF"/>
<path d="M680.844 249.491L684.656 253.672L690.681 246.663" stroke="white" stroke-width="1.6155" stroke-miterlimit="10" stroke-linecap="round" stroke-linejoin="round"/>
<path d="M661.293 251.335C662.651 251.335 663.752 250.234 663.752 248.876C663.752 247.518 662.651 246.417 661.293 246.417C659.935 246.417 658.833 247.518 658.833 248.876C658.833 250.234 659.935 251.335 661.293 251.335Z" fill="#9999F1"/>
<path opacity="0.3" d="M576.449 78.2028C577.807 78.2028 578.908 77.1018 578.908 75.7436C578.908 74.3853 577.807 73.2843 576.449 73.2843C575.09 73.2843 573.989 74.3853 573.989 75.7436C573.989 77.1018 575.09 78.2028 576.449 78.2028Z" fill="#83A9FF"/>
<path d="M128.741 218.874C130.982 218.874 132.799 217.057 132.799 214.816C132.799 212.575 130.982 210.758 128.741 210.758C126.5 210.758 124.683 212.575 124.683 214.816C124.683 217.057 126.5 218.874 128.741 218.874Z" fill="#83A9FF"/>
<path opacity="0.3" d="M523.206 77.8341C526.602 77.8341 529.354 75.0815 529.354 71.686C529.354 68.2905 526.602 65.5378 523.206 65.5378C519.81 65.5378 517.058 68.2905 517.058 71.686C517.058 75.0815 519.81 77.8341 523.206 77.8341Z" fill="#83A9FF"/>
<path opacity="0.3" d="M97.7548 266.828C101.15 266.828 103.903 264.075 103.903 260.68C103.903 257.284 101.15 254.532 97.7548 254.532C94.3593 254.532 91.6067 257.284 91.6067 260.68C91.6067 264.075 94.3593 266.828 97.7548 266.828Z" fill="#9999F1"/>
<path opacity="0.3" d="M345.033 75.7447C347.274 75.7447 349.09 73.928 349.09 71.6869C349.09 69.4459 347.274 67.6292 345.033 67.6292C342.792 67.6292 340.975 69.4459 340.975 71.6869C340.975 73.928 342.792 75.7447 345.033 75.7447Z" fill="#83A9FF"/>
<path opacity="0.3" d="M381.799 102.304C384.04 102.304 385.857 100.487 385.857 98.2464C385.857 96.0053 384.04 94.1886 381.799 94.1886C379.558 94.1886 377.741 96.0053 377.741 98.2464C377.741 100.487 379.558 102.304 381.799 102.304Z" fill="#83A9FF"/>
<path opacity="0.2" d="M444.51 79.8021C446.751 79.8021 448.568 77.9853 448.568 75.7443C448.568 73.5033 446.751 71.6865 444.51 71.6865C442.269 71.6865 440.452 73.5033 440.452 75.7443C440.452 77.9853 442.269 79.8021 444.51 79.8021Z" fill="#83A9FF"/>
<path d="M92.8362 206.208C92.3443 206.208 91.9755 205.839 91.9755 205.347V199.691C91.9755 199.199 92.3443 198.83 92.8362 198.83C93.3281 198.83 93.697 199.199 93.697 199.691V205.347C93.574 205.839 93.2051 206.208 92.8362 206.208Z" fill="#83A9FF"/>
<path d="M95.6645 203.38H90.0082C89.5164 203.38 89.1475 203.011 89.1475 202.519C89.1475 202.027 89.5164 201.658 90.0082 201.658H95.6645C96.1563 201.658 96.5252 202.027 96.5252 202.519C96.4023 203.011 96.0334 203.38 95.6645 203.38Z" fill="#83A9FF"/>
<g opacity="0.3">
<g opacity="0.3">
<g opacity="0.3">
<path opacity="0.3" d="M137.225 63.9393C136.733 63.9393 136.365 63.5704 136.365 63.0786V57.4223C136.365 56.9304 136.733 56.5615 137.225 56.5615C137.717 56.5615 138.086 56.9304 138.086 57.4223V63.0786C138.086 63.5704 137.717 63.9393 137.225 63.9393Z" fill="#9999F1"/>
</g>
<g opacity="0.3">
<path opacity="0.3" d="M140.054 61.111H134.397C133.905 61.111 133.536 60.7421 133.536 60.2503C133.536 59.7584 133.905 59.3895 134.397 59.3895H140.054C140.545 59.3895 140.914 59.7584 140.914 60.2503C140.914 60.7421 140.545 61.111 140.054 61.111Z" fill="#9999F1"/>
</g>
</g>
</g>
<path d="M608.542 131.691C608.05 131.691 607.681 131.322 607.681 130.831V125.174C607.681 124.682 608.05 124.313 608.542 124.313C609.033 124.313 609.402 124.682 609.402 125.174V130.831C609.402 131.322 609.033 131.691 608.542 131.691Z" fill="#83A9FF"/>
<path d="M611.37 128.863H605.714C605.222 128.863 604.853 128.494 604.853 128.002C604.853 127.51 605.222 127.142 605.714 127.142H611.37C611.862 127.142 612.231 127.51 612.231 128.002C612.231 128.494 611.862 128.863 611.37 128.863Z" fill="#83A9FF"/>
<path d="M280.355 81.5234C279.863 81.5234 279.494 81.1545 279.494 80.6627V75.0064C279.494 74.5145 279.863 74.1456 280.355 74.1456C280.846 74.1456 281.215 74.5145 281.215 75.0064V80.6627C281.215 81.1545 280.846 81.5234 280.355 81.5234Z" fill="#83A9FF"/>
<path d="M283.183 78.6951H277.527C277.035 78.6951 276.666 78.3262 276.666 77.8344C276.666 77.3425 277.035 76.9736 277.527 76.9736H283.183C283.675 76.9736 284.044 77.3425 284.044 77.8344C284.044 78.3262 283.675 78.6951 283.183 78.6951Z" fill="#83A9FF"/>
<path d="M611.862 16.1073H585.179C584.195 16.1073 583.457 16.8451 583.457 17.8288V44.5117C583.457 45.4954 584.195 46.2332 585.179 46.2332H611.862C612.845 46.2332 613.583 45.4954 613.583 44.5117V17.7058C613.583 16.8451 612.845 16.1073 611.862 16.1073ZM603.869 30.7399V40.208H593.294V30.7399H589.974L598.582 21.8865L607.189 30.7399H603.869Z" fill="#83A9FF"/>
<path opacity="0.3" d="M200.306 20.5348C200.306 20.2889 200.183 20.1659 200.183 19.92C200.06 19.0592 199.814 18.3214 199.568 17.4607C198.953 15.7392 198.092 14.0178 197.109 12.5422L199.568 10.0829L193.789 4.30369L193.666 4.42666L191.329 6.76295C188.993 5.16443 186.288 4.05777 183.337 3.44296V0H175.098V3.44296C172.147 4.05777 169.442 5.16443 167.106 6.76295L164.646 4.30369L158.867 10.0829L161.326 12.5422C159.728 14.8785 158.621 17.5837 158.006 20.5348H154.563V28.6503H158.006C158.621 31.6014 159.728 34.3066 161.326 36.6429L158.867 39.1021L164.646 44.8814L167.106 42.4221C169.442 44.0206 172.147 45.1273 175.098 45.7421V49.1851H183.337V45.7421C186.288 45.1273 188.993 44.0206 191.329 42.4221L193.666 44.7584L193.789 44.8814L197.232 41.4384L199.568 39.1021L197.232 36.7659L197.109 36.6429L197.232 36.5199C198.83 34.1836 199.814 31.6014 200.429 28.6503H203.872V20.4118H200.306V20.5348ZM179.033 38.2414C171.409 38.2414 165.384 32.0933 165.384 24.5925C165.384 16.9689 171.532 10.9437 179.033 10.9437C186.657 10.9437 192.682 17.0918 192.682 24.5925C192.805 32.0933 186.657 38.2414 179.033 38.2414Z" fill="#83A9FF"/>
<path d="M233.137 68.613L211.372 91.1152H219.611V128.004H246.663V91.1152H255.024L233.137 68.613Z" fill="#407BFF"/>
<path d="M728.308 235.351L713.921 250.106H719.454V274.33H737.161V250.106H742.571L728.308 235.351Z" fill="#407BFF"/>
<path d="M467.996 109.928C469.225 109.928 470.332 110.174 471.439 110.543C471.685 101.444 479.185 94.189 488.285 94.189C497.63 94.189 505.13 101.69 505.13 111.035C505.13 111.404 505.13 111.896 505.13 112.264C506.729 109.559 509.803 107.715 513.123 107.715C518.287 107.715 522.468 111.896 522.468 117.06C522.468 117.798 522.345 118.536 522.222 119.15C523.206 118.659 524.313 118.29 525.419 118.29C529.108 118.29 532.059 121.241 532.059 124.93C532.059 128.619 529.108 131.57 525.419 131.57C521.73 131.57 472.545 131.57 467.873 131.57C461.848 131.57 456.929 126.651 456.929 120.626C457.175 114.724 461.971 109.928 467.996 109.928Z" fill="#407BFF"/>
<path d="M489.022 104.272L481.644 112.019H484.473V124.561H493.695V112.019H496.523L489.022 104.272Z" fill="white"/>
<path d="M87.4261 294.249L73.1625 309.005H78.5728V333.228H96.2795V309.005H101.69L87.4261 294.249Z" fill="#83A9FF"/>
<path d="M181.732 199.727C183.722 191.803 180.82 188.101 178.222 186.153C176.974 183.23 175.556 181.119 174.105 180.34C171.473 178.878 168.302 178.748 166.074 178.846C166.648 178.294 167.762 178.066 167.762 178.066C166.378 177.872 163.307 179.171 163.307 179.171C144.175 172.091 141.172 199.175 141.577 205.475C141.981 211.775 141.914 219.179 131.96 224.147C112.962 233.597 138.27 269.286 138.27 269.286C137.797 264.188 162.16 237.364 174.915 229.311C178.02 224.927 179.1 217.165 179.201 216.548C178.661 222.686 177.581 226.128 176.602 228.077C182.406 222.978 183.25 210.638 181.732 199.727Z" fill="#A9453D"/>
<path d="M174.173 229.699C174.241 229.731 168.032 232.816 163.375 231.615C158.989 230.478 156.12 224.99 156.188 224.957C158.044 224.6 158.584 222.132 158.55 211.578L159.394 211.74L173.532 214.436C173.532 214.436 173.195 218.722 173.195 222.749C173.161 226.127 173.363 229.341 174.173 229.699Z" fill="#FFB27D"/>
<path d="M173.498 214.438C173.498 214.438 173.161 218.724 173.161 222.751C165.265 222.524 161.08 215.607 159.359 211.742L173.498 214.438Z" fill="#ED975D"/>
<path d="M188.615 280.229C188.513 301.012 191.787 309.91 191.787 309.91C191.787 309.91 172.35 319.425 149.269 312.41C148.999 312.313 132.735 307.896 132.735 307.896C133.106 307.052 136.346 293.153 136.717 292.374C141.576 282.307 142.926 278.053 143.499 274.968C144.579 269.187 144.579 263.212 144.073 257.562C142.656 242.624 138.471 230.218 138.471 230.218C144.748 228.855 150.653 226.419 157.199 224.048C158.718 225.867 163.307 227.75 167.289 227.653C171.878 227.556 173.396 225.672 173.126 223.594C178.019 226.224 181.933 228.692 181.933 228.692C186.084 235.642 194.554 242.429 195.161 253.113C195.33 255.776 188.615 279.644 188.615 280.229Z" fill="white"/>
<path d="M149.575 282.536C147.584 285.231 143.805 301.663 134.323 303.709C139.182 292.018 142.893 286.887 143.467 283.283C144.547 276.56 144.547 269.611 144.041 263.051C147.213 257.693 149.575 254.056 149.575 254.056C149.811 253.179 154.603 238.955 156.155 251.685C157.673 264.415 151.802 279.516 149.575 282.536Z" fill="#5F9AA8"/>
<path d="M176.131 218.27C176.131 218.27 157.404 218.562 157.404 207.359C157.404 196.123 154.974 188.621 166.919 187.939C178.865 187.29 181.193 191.544 182.138 195.311C183.083 199.045 180.991 217.88 176.131 218.27Z" fill="#FFB27D"/>
<path d="M175.422 187.646C175.422 187.646 170.293 200.798 162.431 202.747C154.568 204.695 151.16 202.649 151.16 202.649C151.16 202.649 157.2 198.038 158.449 189.985C158.449 190.017 171.575 181.379 175.422 187.646Z" fill="#A9453D"/>
<path d="M174.173 188.717C174.173 188.717 177.986 191.672 178.93 194.53C179.875 197.388 180.28 203.265 182.069 203.07C182.069 203.07 185.915 194.108 181.596 189.074C176.973 183.683 174.173 188.717 174.173 188.717Z" fill="#A9453D"/>
<path d="M155.851 269.61C155.412 280.034 152.881 300.266 130.172 311.08C130.104 311.112 130.037 311.145 130.003 311.177C136.144 291.433 143.77 265.973 147.347 249.898C151.498 255.906 156.087 263.862 155.851 269.61Z" fill="#ED7D2B"/>
<rect x="136.709" y="230.508" width="16.3249" height="2.65705" transform="rotate(-25.4885 136.709 230.508)" fill="#A9453D"/>
<path opacity="0.5" d="M169.702 503.969C200.466 503.969 225.404 500.17 225.404 495.484C225.404 490.799 200.466 487 169.702 487C138.939 487 114 490.799 114 495.484C114 500.17 138.939 503.969 169.702 503.969Z" fill="#B5D0FF"/>
<path d="M138.604 231.82L156.003 224.247L161.689 234.359L142.399 245.853L138.604 231.82Z" fill="#F99746"/>
<path d="M181.024 483.477C180.265 486.713 184.88 488.234 190.337 489.344C195.793 490.455 193.971 491.266 201.319 493.771C208.676 496.244 211.97 494.712 212.642 493.837C213.252 493.044 209.936 491.123 206.425 489.036C205.983 488.757 205.531 488.509 205.089 488.23C201.156 485.803 199.294 481.791 196.499 477.922C193.857 474.238 192.361 463.589 192.361 463.589L182.416 459.906C182.416 459.906 183.986 469.556 184.446 473.628C184.701 476.03 183.488 478.471 182.433 480.315C181.87 481.293 181.286 482.334 181.024 483.477Z" fill="#FFB27D"/>
<path d="M190.336 489.347C195.792 490.457 193.971 491.269 201.318 493.773C208.675 496.247 211.969 494.715 212.641 493.84C213.251 493.047 209.935 491.125 206.424 489.039L206.372 489.09C206.372 489.09 200.832 490 194.951 487.457C190.154 485.399 185.76 481.765 182.433 480.318C181.859 481.327 181.286 482.336 181.013 483.511C180.232 486.705 184.879 488.237 190.336 489.347Z" fill="#233862"/>
<path d="M137.013 490.714C137.249 494.026 142.142 494.091 147.676 493.474C153.21 492.857 151.726 494.221 159.487 494.318C167.248 494.416 169.913 491.98 170.285 490.909C170.622 489.967 166.877 489.155 162.895 488.213C162.389 488.083 161.882 487.986 161.376 487.856C156.888 486.752 153.885 483.505 150.038 480.679C146.394 477.984 150.038 462.104 150.038 462.104L138.397 461C138.397 461 138.97 474.379 138.937 480.452C138.937 482.855 137.789 485.161 137.351 487.239C137.148 488.376 136.946 489.545 137.013 490.714Z" fill="#FFB27D"/>
<path d="M147.677 493.475C153.211 492.858 151.726 494.222 159.487 494.32C167.248 494.417 169.914 491.981 170.285 490.91C170.623 489.968 166.877 489.156 162.895 488.214L162.861 488.279C162.861 488.279 157.867 490.845 151.49 490.228C146.293 489.708 140.996 487.63 137.419 487.24C137.182 488.377 136.946 489.513 137.047 490.683C137.284 494.027 142.143 494.092 147.677 493.475Z" fill="#233862"/>
<path d="M124.78 346.204C125.451 356.534 131.256 392.82 133.04 402.004C130.983 419.202 134.157 470.242 134.157 470.242C148.876 473.203 156.688 470.972 156.688 470.972C156.688 470.972 161.842 418.424 164.617 403.05C165.447 393.41 162.961 353.193 162.961 353.193C167.042 362.3 182.394 399.132 182.394 399.132C182.394 399.132 180.695 407.322 179.87 412.156C177.406 427.027 174.698 469.142 174.698 469.142C183.686 472.663 197.931 471.204 197.931 471.204C197.931 471.204 214.242 403.374 214.025 396.849C213.841 391.309 210.019 375.169 210.015 375.046C207.437 351.839 193.729 324.935 191.954 320.927C179.679 322.321 149.541 325.047 129.414 322.511C125.86 329.284 124.427 340.547 124.78 346.204Z" fill="#2A4E96"/>
<path d="M156.255 336.111C156.255 336.111 153.488 345.724 143.938 344.49C134.389 343.256 120.79 337.735 120.79 337.735C120.79 337.735 124.873 325.33 129.935 308.995C136.076 289.251 143.702 263.791 147.279 247.717C148.291 243.203 148.966 239.468 149.236 236.773L157.166 221.965C157.166 221.965 168.976 247.489 169.617 253.919C170.258 260.349 156.255 336.111 156.255 336.111Z" fill="#F99746"/>
<path d="M173.161 223.629C173.161 223.629 183.993 249.381 184.297 254.577C184.6 259.773 185.579 339.789 185.579 339.789C185.579 339.789 184.938 343.458 192.26 341.932C199.582 340.406 201.506 338.879 201.506 338.879C201.506 338.879 194.487 289.519 196.411 272.373C198.334 255.226 181.766 227.201 181.766 227.201L173.161 223.629Z" fill="#F99746"/>
<path d="M200.994 236.216C196.53 229.97 181.307 227.294 181.307 227.294C165.821 236.918 193.808 266.294 193.808 266.294C193.808 266.294 217.8 285.923 228.226 289.616C227.334 288.909 211.464 258.556 210.425 255.358C209.386 252.16 205.459 242.463 200.994 236.216Z" fill="#F99746"/>
<path d="M250.577 241L157 250.576L166.576 344.153L260.153 334.577L250.577 241Z" fill="#FFEC94"/>
<path d="M246.714 245.566L161.821 254.254L169.332 327.648L254.224 318.96L246.714 245.566Z" fill="white"/>
<path d="M203.865 309.092L225.875 283.27L252.927 306.264L254.279 319.052L205.463 323.971L203.865 309.092Z" fill="#F4A34A"/>
<path d="M168.083 314.75L196.241 276.139L247.762 319.668L169.435 327.661L168.083 314.75Z" fill="#F7C148"/>
<path d="M219.112 275.647C224.817 275.647 229.441 271.022 229.441 265.318C229.441 259.613 224.817 254.989 219.112 254.989C213.408 254.989 208.783 259.613 208.783 265.318C208.783 271.022 213.408 275.647 219.112 275.647Z" fill="#FFEC94"/>
<path d="M255.509 276.138C254.526 276.261 253.419 275.892 253.296 275.769C251.451 275.032 249.484 271.835 249.484 271.835C249.484 271.835 246.656 271.466 243.705 268.884C240.631 266.178 241.246 262.981 244.074 261.137C246.902 259.415 252.927 259.661 252.927 259.661C255.386 259.784 255.509 260.399 256.985 265.318C258.091 272.941 256.616 276.015 255.509 276.138Z" fill="#FFB27D"/>
<path d="M170.664 311.992C170.664 311.992 169.203 312.673 168.426 312.67C168.426 312.67 167.005 312.557 165.989 312.529C165.674 312.539 165.397 312.532 165.213 312.527C164.471 312.599 162.833 312.998 160.955 312.687C159.077 312.377 151.388 308.893 151.388 308.893L152.072 304.196L152.083 299.721C152.083 299.721 162.925 295.488 164.698 295.574C164.882 295.579 165.03 295.602 165.177 295.624C166.65 295.85 167.701 296.637 168.453 296.879C168.727 296.979 171.494 297.924 171.785 298.746C172.217 299.867 172.042 300.861 171.525 301.512C171.525 301.512 172.258 303.77 171.68 305.27C171.68 305.27 172.419 307.343 171.172 308.973C171.172 308.973 171.685 311.151 170.664 311.992Z" fill="#FFB27D"/>
<path d="M159.063 231.831C159.063 231.831 138.388 225.785 130.208 238.035C122.033 250.243 114.09 293.522 120.517 307.449C120.517 307.449 131.394 311.906 151.757 311.207C151.995 311.196 152.279 311.192 152.517 311.181C152.517 311.181 160.8 297.82 155.473 294.245C155.473 294.245 138.569 292.776 141.023 287.92C143.377 283.095 159.063 231.831 159.063 231.831Z" fill="#F99746"/>
<path opacity="0.5" d="M579.255 474.908C616.877 474.908 647.376 471.109 647.376 466.423C647.376 461.738 616.877 457.939 579.255 457.939C541.632 457.939 511.133 461.738 511.133 466.423C511.133 471.109 541.632 474.908 579.255 474.908Z" fill="#B5D0FF"/>
<path d="M587.739 177.214L567.573 177.952C567.573 177.952 567.819 180.411 567.573 183.977C567.45 185.207 567.327 186.559 567.081 187.912C567.081 188.035 566.589 190.863 565.851 192.092C565.483 192.83 564.376 193.691 562.163 193.568C562.163 193.568 562.409 199.47 571.631 200.577C580.607 201.684 583.435 197.134 583.435 197.134C583.435 197.134 583.312 197.011 583.189 196.888C582.328 196.15 581.714 195.167 581.468 194.06C581.345 193.445 583.804 182.01 587.739 177.214Z" fill="#FFB27D"/>
<path d="M581.345 181.886C577.164 185.821 569.541 187.42 567.204 187.788C567.45 186.436 567.573 185.083 567.696 183.854C574.09 181.763 584.911 178.443 581.345 181.886Z" fill="#EF998B"/>
<path d="M563.269 152.867C562.654 153.973 562.163 155.08 561.794 156.31C559.949 161.966 553.801 181.886 558.597 184.837C564.13 188.157 574.213 185.575 579.254 182.993C588.968 177.951 591.919 176.722 593.149 165.778C594.994 150.653 571.877 138.972 563.269 152.867Z" fill="#FFB27D"/>
<path d="M561.671 440.971C561.794 444.168 563.392 452.037 563.392 452.037L562.163 458.554L558.474 459.538L549.866 449.455C549.866 449.455 549.989 442.569 550.112 442.692L561.671 440.971Z" fill="#FFB27D"/>
<path d="M529.332 468.023C529.455 468.146 529.578 468.269 529.824 468.392C531.914 469.621 537.817 470.236 541.997 470.113C546.67 469.99 551.711 468.269 553.679 467.531C555.646 466.793 563.393 467.285 564.254 466.179C565.114 465.195 564.745 461.998 564.745 461.998C565.483 458.063 564.622 451.915 563.885 451.546C563.147 451.3 562.778 453.759 562.163 454.62C561.548 455.481 559.827 456.464 557.737 455.235C555.769 454.005 555.277 450.931 552.941 450.07C550.605 449.21 549.498 449.456 549.498 449.456C546.67 450.685 541.874 455.973 538.677 457.94C535.48 459.907 531.054 461.014 530.193 461.629C529.332 462.244 529.455 463.965 529.455 463.965C529.455 463.965 527.979 466.547 529.332 468.023Z" fill="#233862"/>
<path d="M529.332 468.022C529.455 468.145 529.578 468.268 529.824 468.391C531.914 469.621 537.817 470.235 541.997 470.112C546.67 469.989 551.711 468.268 553.679 467.53C555.646 466.792 563.393 467.284 564.254 466.178C565.114 465.194 564.745 461.997 564.745 461.997C562.409 461.751 556.507 462.858 553.433 463.595C550.359 464.333 549.129 466.424 539.907 466.424C530.808 466.424 529.455 463.964 529.455 463.964C529.455 463.964 527.979 466.547 529.332 468.022Z" fill="#233862"/>
<path d="M622.784 434.33C623.644 437.404 627.087 444.659 627.087 444.659L627.579 451.176L624.259 453.02L613.562 445.397C613.562 445.397 611.963 438.634 612.209 438.757L622.784 434.33Z" fill="#FFB27D"/>
<path d="M597.944 468.513C598.067 468.636 598.313 468.636 598.559 468.759C600.896 469.497 606.798 468.513 610.856 467.407C615.405 466.177 619.832 463.349 621.553 461.996C623.275 460.644 630.899 459.291 631.513 458.185C632.128 456.955 630.899 454.004 630.899 454.004C630.653 449.946 628.316 444.29 627.579 444.167C626.841 444.044 627.087 446.626 626.718 447.61C626.349 448.594 624.873 449.946 622.66 449.208C620.447 448.471 619.217 445.642 616.758 445.274C614.176 445.028 613.192 445.519 613.192 445.519C610.733 447.487 607.413 453.635 604.83 456.34C602.248 458.922 598.19 461.136 597.453 461.996C596.715 462.857 597.33 464.456 597.33 464.456C597.33 464.456 596.223 467.407 597.944 468.513Z" fill="#233862"/>
<path d="M597.945 468.514C598.068 468.637 598.314 468.637 598.56 468.76C600.896 469.497 606.798 468.514 610.856 467.407C615.406 466.177 619.832 463.349 621.554 461.997C623.275 460.644 630.899 459.292 631.514 458.185C632.129 456.955 630.899 454.004 630.899 454.004C628.563 454.373 623.029 456.832 620.324 458.308C617.496 459.783 616.758 461.997 607.905 464.333C599.052 466.669 597.207 464.579 597.207 464.579C597.207 464.579 596.223 467.407 597.945 468.514Z" fill="#233862"/>
<path d="M489 139.711C489 138.85 490.107 139.219 490.476 139.834C490.476 139.957 490.599 140.08 490.721 140.449C490.476 139.096 490.353 137.99 490.353 137.744C490.353 137.006 491.336 137.129 491.828 137.744C491.705 137.252 491.705 136.76 491.705 136.637C491.705 135.653 492.812 135.899 493.181 136.76C493.304 136.883 493.427 137.498 493.55 138.113C493.55 137.744 493.427 137.498 493.427 137.375C493.427 136.514 494.41 136.637 494.779 137.375C494.902 137.621 495.025 137.99 495.148 138.973C495.394 139.834 495.64 140.695 495.763 141.556C495.886 142.293 497.116 145.859 498.96 146.105C501.788 146.474 499.575 141.801 501.419 140.572C502.034 140.203 502.895 143.769 503.141 145.859C503.387 147.95 503.51 148.933 503.387 150.286C503.264 151.516 502.772 153.36 502.895 154.098C503.141 155.327 504.739 157.664 504.739 157.664L497.976 159.754C497.976 159.754 496.009 156.065 495.148 155.327C492.812 153.36 491.336 151.147 490.353 148.318C489.738 146.474 489.369 144.63 489.123 142.785C489.123 142.539 489 139.957 489 139.711Z" fill="#FFB27D"/>
<path d="M558.966 194.061C558.966 194.061 540.89 189.019 523.921 181.396C513.347 168.853 502.895 154.836 502.157 153.606C500.313 154.467 496.501 156.68 496.501 156.68C496.501 156.68 511.256 185.822 516.667 191.724C522.815 196.889 531.914 208.201 552.695 211.767C561.425 199.84 558.966 194.061 558.966 194.061Z" fill="#FFB27D"/>
<path d="M543.964 368.422C542.735 351.822 548.391 299.809 549.006 295.259C549.497 290.832 552.694 290.217 555.154 289.48C567.204 285.914 581.345 304.481 577.656 321.204C577.656 321.45 579.5 323.049 579.377 323.294C577.164 333.009 568.065 365.717 566.343 371.619C571.877 392.645 566.22 428.919 563.884 445.396C557.121 446.38 548.268 444.782 548.268 444.782C548.268 444.782 545.317 385.022 543.964 368.422Z" fill="#F99746"/>
<path d="M550.973 277.552C550.973 277.552 555.523 278.659 564.622 278.413C576.181 278.167 590.813 272.265 590.813 272.265C605.569 288.25 597.453 306.817 597.945 312.966C598.437 319.114 601.388 350.223 602.741 366.454C616.881 387.727 625.366 437.281 625.366 437.527C618.234 441.339 611.102 441.83 611.102 441.83C611.102 441.83 585.526 388.219 580.484 373.094C575.812 359.445 563.884 318.007 563.639 318.007L548.391 320.589C548.268 294.275 550.973 277.552 550.973 277.552Z" fill="#F99746"/>
<path d="M600.896 295.382C598.068 295.874 595.24 296.366 592.535 296.612C566.59 299.809 547.038 295.013 547.038 295.013C547.038 295.013 544.825 231.934 554.539 198.488C556.261 192.462 559.335 191.233 565.36 191.848C570.77 201.562 581.96 193.323 581.96 193.323C586.509 195.659 593.887 198.857 597.453 201.685C599.789 203.652 595.609 231.688 596.715 247.673C597.33 258.248 599.421 286.16 600.896 295.382Z" fill="#2A4E96"/>
<path d="M560.81 191.97C560.81 191.97 545.932 188.527 537.447 186.313C530.807 194.06 531.545 206.479 531.545 206.479C531.545 206.479 545.317 215.21 555.277 216.07C557.49 201.438 560.81 191.97 560.81 191.97Z" fill="#2A4E96"/>
<path d="M558.966 194.06C558.966 194.06 552.818 201.93 550.727 215.21C543.842 213.857 533.021 207.832 531.668 206.479C534.742 207.463 547.776 212.258 549.498 208.324C552.695 200.823 558.966 194.06 558.966 194.06Z" fill="#2A4E96"/>
<path d="M561.548 311.367C561.548 311.367 561.794 312.228 562.409 313.826C562.901 315.425 563.638 317.638 564.499 320.343C565.36 323.048 566.344 326.122 567.327 329.442C568.311 332.762 569.418 336.328 570.524 340.017C571.631 343.583 572.615 347.149 573.598 350.592C574.582 353.912 575.443 357.109 576.181 359.814C577.779 365.225 578.763 368.791 578.763 368.791C578.763 368.791 578.394 367.93 577.779 366.454C577.164 364.856 576.426 362.765 575.443 360.06C574.582 357.355 573.475 354.281 572.492 350.961C571.508 347.641 570.401 344.075 569.295 340.386C568.311 336.82 567.204 333.131 566.221 329.811C565.237 326.491 564.499 323.294 563.761 320.589C563.024 317.884 562.532 315.548 562.04 313.949C561.794 312.228 561.548 311.367 561.548 311.367Z" fill="#2B269B"/>
<path d="M636.146 220.602L549.849 213.788L543.034 300.085L629.332 306.899L636.146 220.602Z" fill="#FFEC94"/>
<path d="M631.727 224.183L553.52 218.008L548.178 285.673L626.385 291.848L631.727 224.183Z" fill="white"/>
<path d="M582.452 274.602L606.675 254.805L627.333 280.012L626.349 291.817L581.345 288.251L582.452 274.602Z" fill="#F4A34A"/>
<path d="M549.129 273.741L580.976 243.492L620.447 291.324L548.145 285.668L549.129 273.741Z" fill="#F7C148"/>
<path d="M603.601 247.059C608.898 247.059 613.192 242.765 613.192 237.468C613.192 232.171 608.898 227.877 603.601 227.877C598.304 227.877 594.01 232.171 594.01 237.468C594.01 242.765 598.304 247.059 603.601 247.059Z" fill="#FFEC94"/>
<path d="M589.583 230.334C589.583 230.334 596.346 250.991 597.822 253.082C599.297 255.172 607.29 255.418 608.151 250.499C609.011 245.704 605.568 227.628 605.568 227.628" fill="#FFB27D"/>
<path d="M597.453 201.683C597.453 201.683 605.445 210.291 608.151 231.809C608.151 231.809 600.158 234.638 590.444 234.76C590.444 234.76 585.402 227.998 582.943 215.947C580.607 204.02 588.231 197.011 597.453 201.683Z" fill="#2A4E96"/>
<path d="M595.855 247.18C595.855 247.18 593.887 269.313 592.289 284.806C591.797 289.356 591.305 293.168 590.567 296.119C590.567 296.119 592.043 297.717 596.346 297.348C596.346 297.348 609.012 258.492 608.151 248.286" fill="#FFB27D"/>
<path d="M591.059 294.029C591.059 294.029 588.723 296.366 587.862 296.98C587.124 297.472 585.157 300.792 585.157 301.161C585.157 301.407 586.141 301.53 586.755 301.161C587.37 300.792 589.215 298.948 589.461 298.825C589.706 298.702 592.903 298.702 593.518 296.98" fill="#FFB27D"/>
<path d="M591.673 296.612C591.673 296.612 590.321 300.178 589.829 301.284C589.337 302.391 587.739 303.252 587.739 303.743C587.739 304.235 592.411 305.711 595.362 305.465C597.453 305.219 598.805 301.899 598.436 298.825C598.313 297.595 596.961 295.751 597.699 293.783" fill="#FFB27D"/>
<path d="M591.089 175.883C591.451 176.093 596.978 177.689 607.488 158.24C609.119 155.173 610.251 148.62 606.401 142.781C602.55 136.942 588.914 132.364 577.589 130.389C566.263 128.415 563.545 134.296 560.872 140.261C558.064 146.478 550 151.645 550 151.645C559.785 156.685 571.518 149.46 575.596 150.637C579.673 151.813 581.122 157.778 581.439 159.71C581.757 161.6 582.21 163.197 587.329 161.516C592.448 159.794 589.639 168.237 588.824 169.876C588.824 169.834 588.144 174.118 591.089 175.883Z" fill="#A9453D"/>
<defs>
<linearGradient id="paint0_linear" x1="411.776" y1="110.106" x2="411.776" y2="369.452" gradientUnits="userSpaceOnUse">
<stop stop-color="white"/>
<stop offset="1" stop-color="white" stop-opacity="0"/>
</linearGradient>
<linearGradient id="paint1_linear" x1="466.115" y1="110.106" x2="466.115" y2="369.452" gradientUnits="userSpaceOnUse">
<stop stop-color="white"/>
<stop offset="1" stop-color="white" stop-opacity="0"/>
</linearGradient>
</defs>
</svg>
