<svg width="248" height="38" viewBox="0 0 248 38" fill="none" xmlns="http://www.w3.org/2000/svg">
<path d="M152.208 18.6918C152.208 21.9165 151.148 24.9775 149.142 27.5445C148.746 28.0511 148.002 28.1493 147.48 27.7674C146.958 27.3848 146.855 26.6646 147.25 26.1588C148.942 23.9943 149.836 21.4121 149.836 18.6918C149.836 11.8373 144.101 6.29665 137.024 6.29665C129.941 6.29665 124.211 11.8416 124.211 18.6918C124.211 21.4121 125.106 23.9943 126.797 26.1588C127.192 26.6646 127.089 27.3848 126.567 27.7674C126.044 28.15 125.3 28.0502 124.905 27.5445C122.899 24.9775 121.839 21.9165 121.839 18.6918C121.839 10.5674 128.635 4 137.024 4C145.417 4 152.208 10.5719 152.208 18.6918ZM144.54 11.7761C145.003 12.2244 145.003 12.9515 144.54 13.3999L140.673 17.1429C140.992 17.711 141.173 18.3615 141.173 19.0518C141.173 21.2666 139.311 23.0682 137.024 23.0682C134.736 23.0682 132.874 21.2666 132.874 19.0518C132.874 16.8372 134.736 15.0353 137.024 15.0353C137.737 15.0353 138.409 15.2107 138.996 15.5189L142.862 11.7759C143.326 11.3275 144.077 11.3275 144.54 11.7761ZM138.8 19.052C138.8 18.1038 138.003 17.3322 137.024 17.3322C136.044 17.3322 135.247 18.1038 135.247 19.052C135.247 20.0003 136.044 20.7718 137.024 20.7718C138.003 20.7718 138.8 20.0003 138.8 19.052Z" fill="#006AFF"/>
<path d="M14.025 15.8C14.025 16.6833 13.8167 17.5167 13.4 18.3C12.9833 19.0833 12.3167 19.725 11.4 20.225C10.4833 20.7083 9.30833 20.95 7.875 20.95H4.725V28H1.875V10.625H7.875C9.20833 10.625 10.3333 10.8583 11.25 11.325C12.1833 11.775 12.875 12.3917 13.325 13.175C13.7917 13.9583 14.025 14.8333 14.025 15.8ZM7.875 18.625C8.95833 18.625 9.76667 18.3833 10.3 17.9C10.8333 17.4 11.1 16.7 11.1 15.8C11.1 13.9 10.025 12.95 7.875 12.95H4.725V18.625H7.875ZM28.2682 28L24.2682 21.05H22.0932V28H19.2432V10.625H25.2432C26.5765 10.625 27.7015 10.8583 28.6182 11.325C29.5515 11.7917 30.2432 12.4167 30.6932 13.2C31.1598 13.9833 31.3932 14.8583 31.3932 15.825C31.3932 16.9583 31.0598 17.9917 30.3932 18.925C29.7432 19.8417 28.7348 20.4667 27.3682 20.8L31.6682 28H28.2682ZM22.0932 18.775H25.2432C26.3098 18.775 27.1098 18.5083 27.6432 17.975C28.1932 17.4417 28.4682 16.725 28.4682 15.825C28.4682 14.925 28.2015 14.225 27.6682 13.725C27.1348 13.2083 26.3265 12.95 25.2432 12.95H22.0932V18.775ZM40.3891 10.625V28H37.5391V10.625H40.3891ZM45.6809 19.275C45.6809 17.575 46.0725 16.05 46.8559 14.7C47.6559 13.35 48.7309 12.3 50.0809 11.55C51.4475 10.7833 52.9392 10.4 54.5559 10.4C56.4059 10.4 58.0475 10.8583 59.4809 11.775C60.9309 12.675 61.9809 13.9583 62.6309 15.625H59.2059C58.7559 14.7083 58.1309 14.025 57.3309 13.575C56.5309 13.125 55.6059 12.9 54.5559 12.9C53.4059 12.9 52.3809 13.1583 51.4809 13.675C50.5809 14.1917 49.8725 14.9333 49.3559 15.9C48.8559 16.8667 48.6059 17.9917 48.6059 19.275C48.6059 20.5583 48.8559 21.6833 49.3559 22.65C49.8725 23.6167 50.5809 24.3667 51.4809 24.9C52.3809 25.4167 53.4059 25.675 54.5559 25.675C55.6059 25.675 56.5309 25.45 57.3309 25C58.1309 24.55 58.7559 23.8667 59.2059 22.95H62.6309C61.9809 24.6167 60.9309 25.9 59.4809 26.8C58.0475 27.7 56.4059 28.15 54.5559 28.15C52.9225 28.15 51.4309 27.775 50.0809 27.025C48.7309 26.2583 47.6559 25.2 46.8559 23.85C46.0725 22.5 45.6809 20.975 45.6809 19.275ZM71.3168 10.625V28H68.4668V10.625H71.3168Z" fill="#444444"/>
<path d="M91.8336 28H88.9836L80.4086 15.025V28H77.5586V10.6H80.4086L88.9836 23.55V10.6H91.8336V28ZM110.651 15.625C110.201 14.7583 109.576 14.1083 108.776 13.675C107.976 13.225 107.051 13 106.001 13C104.851 13 103.826 13.2583 102.926 13.775C102.026 14.2917 101.318 15.025 100.801 15.975C100.301 16.925 100.051 18.025 100.051 19.275C100.051 20.525 100.301 21.6333 100.801 22.6C101.318 23.55 102.026 24.2833 102.926 24.8C103.826 25.3167 104.851 25.575 106.001 25.575C107.551 25.575 108.81 25.1417 109.776 24.275C110.743 23.4083 111.335 22.2333 111.551 20.75H105.026V18.475H114.601V20.7C114.418 22.05 113.935 23.2917 113.151 24.425C112.385 25.5583 111.376 26.4667 110.126 27.15C108.893 27.8167 107.518 28.15 106.001 28.15C104.368 28.15 102.876 27.775 101.526 27.025C100.176 26.2583 99.1012 25.2 98.3012 23.85C97.5178 22.5 97.1262 20.975 97.1262 19.275C97.1262 17.575 97.5178 16.05 98.3012 14.7C99.1012 13.35 100.176 12.3 101.526 11.55C102.893 10.7833 104.385 10.4 106.001 10.4C107.851 10.4 109.493 10.8583 110.926 11.775C112.376 12.675 113.426 13.9583 114.076 15.625H110.651Z" fill="#006AFF"/>
<path d="M179.175 10.625V28H176.325V16.1L171.025 28H169.05L163.725 16.1V28H160.875V10.625H163.95L170.05 24.25L176.125 10.625H179.175ZM188.271 12.925V18.025H194.271V20.35H188.271V25.675H195.021V28H185.421V10.6H195.021V12.925H188.271Z" fill="#006AFF"/>
<path d="M212.256 10.625V12.95H207.631V28H204.781V12.95H200.131V10.625H212.256ZM220.493 12.925V18.025H226.493V20.35H220.493V25.675H227.243V28H217.643V10.6H227.243V12.925H220.493ZM242.278 28L238.278 21.05H236.103V28H233.253V10.625H239.253C240.586 10.625 241.711 10.8583 242.628 11.325C243.561 11.7917 244.253 12.4167 244.703 13.2C245.17 13.9833 245.403 14.8583 245.403 15.825C245.403 16.9583 245.07 17.9917 244.403 18.925C243.753 19.8417 242.745 20.4667 241.378 20.8L245.678 28H242.278ZM236.103 18.775H239.253C240.32 18.775 241.12 18.5083 241.653 17.975C242.203 17.4417 242.478 16.725 242.478 15.825C242.478 14.925 242.211 14.225 241.678 13.725C241.145 13.2083 240.336 12.95 239.253 12.95H236.103V18.775Z" fill="#444444"/>
</svg>
