<svg width="21" height="26" viewBox="0 0 21 26" fill="none" xmlns="http://www.w3.org/2000/svg">
<path d="M6.79852 26.0002C3.07775 25.9788 0 18.3834 0 14.5153C0 8.19669 4.74001 6.81338 6.56678 6.81338C7.39003 6.81338 8.26908 7.13667 9.04443 7.42276C9.58662 7.62232 10.1474 7.82833 10.4592 7.82833C10.6459 7.82833 11.0858 7.65308 11.4742 7.49932C12.3025 7.16958 13.3331 6.75977 14.5333 6.75977C14.5355 6.75977 14.5384 6.75977 14.5405 6.75977C15.4366 6.75977 18.1539 6.95645 19.7876 9.40978L20.1703 9.98483L19.6195 10.4004C18.8328 10.9941 17.3972 12.077 17.3972 14.2221C17.3972 16.7626 19.023 17.7397 19.8041 18.2096C20.1488 18.417 20.5057 18.6309 20.5057 19.0987C20.5057 19.4041 18.0681 25.9623 14.5283 25.9623C13.6621 25.9623 13.0499 25.7019 12.5098 25.4724C11.9634 25.2399 11.492 25.0396 10.7131 25.0396C10.3183 25.0396 9.81899 25.2263 9.29043 25.4245C8.56811 25.694 7.75053 26.0002 6.82284 26.0002H6.79852Z" fill="white"/>
<path d="M14.9089 0C15.0011 3.32404 12.6239 5.63011 10.2494 5.48548C9.85818 2.83278 12.6236 0 14.9089 0Z" fill="white"/>
</svg>
