<svg width="286" height="160" viewBox="0 0 286 160" fill="none" xmlns="http://www.w3.org/2000/svg">
<g opacity="0.34">
<g opacity="0.6">
<path opacity="0.6" d="M248.48 102.896C250.467 111.167 250.136 118.771 247.486 126.885C244.173 137.038 236.72 146.484 226.036 152.286C222.309 154.324 218.293 155.853 214.11 156.95C213.448 157.97 212.702 158.989 211.916 159.929H247.61C256.679 149.699 261.896 136.567 262.724 123.24C262.932 119.634 262.849 115.988 262.435 112.421C260.778 98.5056 254.236 85.2565 244.463 74.7122C244.339 75.4569 244.215 76.2017 244.09 76.9465C242.972 85.8053 246.409 94.3898 248.48 102.896Z" fill="#53D0F7"/>
</g>
<g opacity="0.41">
<path opacity="0.41" d="M137.915 157.891C135.803 155.147 134.189 151.659 131.952 148.875C127.19 149.777 122.511 151.11 117.749 152.286C108.018 154.638 97.9969 156.402 87.9759 156.519C76.8369 156.676 65.4494 154.638 55.7596 149.189C48.3474 145.034 41.8462 138.723 38.3264 131.197C39.3202 141.585 43.2955 151.737 50.0038 159.969H139.613C138.992 159.263 138.454 158.597 137.915 157.891Z" fill="#53D0F7"/>
</g>
<g opacity="0.41">
<path opacity="0.41" d="M152.038 15.0914C154.73 15.013 157.67 14.8562 160.858 14.621C175.683 13.5626 190.383 16.7769 204.628 21.1671C205.994 21.5983 207.361 22.0687 208.727 22.5391C202.599 16.1497 194.772 11.1715 186.159 8.34925C169.099 2.74388 148.436 4.97819 133.446 13.7978C139.616 13.837 145.827 14.2682 152.038 15.0914Z" fill="#53D0F7"/>
</g>
<g opacity="0.35">
<path opacity="0.35" d="M55.3893 149.307C65.0791 154.598 76.4252 156.637 87.5642 156.558C97.5852 156.48 107.648 154.834 117.379 152.599C122.141 151.502 126.861 150.247 131.624 149.385C129.677 146.994 127.276 145.112 123.714 144.72C109.884 143.153 95.3491 148.562 81.6013 149.463C72.3671 150.091 62.5531 148.875 55.0581 143.662C50.2132 140.252 46.6934 135.391 44.2503 130.139C39.2398 119.242 39.1156 106.737 43.3393 95.5657C46.1965 88.0396 53.1532 82.2774 55.555 74.5945C57.584 68.166 55.2237 61.4631 55.8862 54.9953C56.0105 53.6626 56.3003 52.3691 56.7144 51.0755C59.0748 44.1766 70.5037 34.2202 77.5018 30.8883C94.2725 22.8919 111.789 19.0112 129.677 18.6192C119.532 17.0121 109.925 14.1114 92.906 10.7012C72.7398 6.54613 50.0062 20.5792 38.0803 36.9249C36.8795 38.6104 35.8028 40.3351 34.8918 42.1383C30.7509 50.2523 29.5915 59.6208 31.4963 68.4012C33.7324 78.7104 40.6891 86.6676 38.2046 97.6432C36.6724 104.346 36.2997 110.539 35.513 117.164C34.8918 122.338 35.9271 127.277 38.0389 131.785C41.5173 139.076 48.0185 145.23 55.3893 149.307Z" fill="#53D0F7"/>
</g>
<g opacity="0.47">
<path opacity="0.47" d="M160.857 14.621C157.669 14.8562 154.77 15.013 152.037 15.0914C161.23 16.3066 170.506 18.4233 179.74 21.2848L214.317 32.0643C230.59 37.1209 241.357 51.8595 240.322 68.0484C240.322 68.166 240.322 68.2444 240.28 68.362C239.618 77.7304 236.346 86.9421 230.88 94.625C225.953 101.602 219.12 109.403 217.422 117.987C216.056 124.808 218.996 131.707 219.369 138.645C219.7 145.23 217.629 151.502 214.027 156.911C218.209 155.814 222.226 154.285 225.953 152.247C236.595 146.445 244.09 136.998 247.402 126.846C250.053 118.732 250.384 111.127 248.396 102.857C246.367 94.3506 242.93 85.7661 244.007 76.9073C244.09 76.1625 244.214 75.4177 244.38 74.673C245.415 69.2636 247.692 64.011 247.195 58.5624C246.823 54.4466 244.918 50.566 242.558 47.1165C234.773 35.553 222.267 27.4389 208.644 22.5391C207.277 22.0687 205.911 21.5983 204.544 21.1672C190.382 16.7769 175.682 13.5627 160.857 14.621Z" fill="#53D0F7"/>
</g>
<g opacity="0.7">
<path opacity="0.7" d="M56.5892 47.7045C56.1337 49.0372 55.8853 50.4092 55.7611 51.7811C55.1399 58.484 57.5002 65.3829 55.5126 72.0075C53.1109 79.9647 46.1956 85.8837 43.3797 93.6842C39.1974 105.209 39.4045 118.105 44.4564 129.355C46.8995 134.764 50.4607 139.781 55.3056 143.27C62.8006 148.64 72.6146 149.816 81.8488 149.111C95.5966 148.092 110.09 142.447 123.92 144.015C127.482 144.407 129.925 146.328 131.871 148.797C134.107 151.58 135.722 155.069 137.834 157.813C138.372 158.518 138.952 159.224 139.532 159.89H211.832C212.619 158.91 213.364 157.93 214.027 156.911C217.629 151.502 219.7 145.23 219.368 138.645C218.996 131.707 216.056 124.808 217.422 117.987C219.12 109.442 225.952 101.602 230.88 94.6249C236.346 86.9029 239.617 77.7304 240.28 68.362C240.28 68.2444 240.28 68.166 240.321 68.0484C241.315 51.8595 230.549 37.1209 214.317 32.0643L179.74 21.2847C170.464 18.3841 161.23 16.3065 152.037 15.0914C145.826 14.2682 139.615 13.7979 133.445 13.7979C132.078 13.7979 130.753 13.7979 129.386 13.837C111.539 14.3466 94.0231 18.4233 77.2938 26.7333C70.2957 30.2612 58.9496 40.6096 56.5892 47.7045Z" fill="#53D0F7"/>
</g>
<g opacity="0.35">
<path opacity="0.35" d="M120.483 10.662C123.593 10.662 126.115 8.2752 126.115 5.33098C126.115 2.38676 123.593 0 120.483 0C117.373 0 114.851 2.38676 114.851 5.33098C114.851 8.2752 117.373 10.662 120.483 10.662Z" fill="#53D0F7"/>
</g>
<g opacity="0.35">
<path opacity="0.35" d="M272.539 80.6703C279.56 80.6703 285.251 75.2826 285.251 68.6364C285.251 61.9903 279.56 56.6025 272.539 56.6025C265.518 56.6025 259.826 61.9903 259.826 68.6364C259.826 75.2826 265.518 80.6703 272.539 80.6703Z" fill="#53D0F7"/>
</g>
<g opacity="0.35">
<path opacity="0.35" d="M26.0252 100.94C31.4258 96.6929 32.1668 89.1058 27.6804 83.9936C23.194 78.8814 15.1791 78.1799 9.77853 82.4268C4.378 86.6737 3.63695 94.2607 8.12335 99.3729C12.6098 104.485 20.6247 105.187 26.0252 100.94Z" fill="#53D0F7"/>
</g>
<g opacity="0.35">
<path opacity="0.35" d="M219.741 20.1872C221.868 20.1872 223.592 18.555 223.592 16.5417C223.592 14.5284 221.868 12.8962 219.741 12.8962C217.614 12.8962 215.89 14.5284 215.89 16.5417C215.89 18.555 217.614 20.1872 219.741 20.1872Z" fill="#53D0F7"/>
</g>
</g>
<g clip-path="url(#clip0)">
<path d="M158.594 74.875L195.303 82.1667C198.261 82.7917 200.261 85.2917 200.261 88.25V130.75C200.261 134.208 197.469 137 194.011 137H156.511C157.678 137 158.594 136.083 158.594 134.917V132.833H194.011C195.136 132.833 196.094 131.917 196.094 130.75V88.25C196.094 87.2917 195.428 86.4167 194.469 86.2083L158.594 79.125V74.875Z" fill="#006AFF"/>
<path d="M181.51 95.3334C182.677 95.3334 183.594 96.25 183.594 97.4167C183.594 98.5834 182.677 99.5 181.51 99.5H173.177C172.01 99.5 171.094 98.5834 171.094 97.4167C171.094 96.25 172.01 95.3334 173.177 95.3334H181.51Z" fill="#006AFF"/>
<path d="M181.51 107.833C182.677 107.833 183.594 108.75 183.594 109.917C183.594 111.083 182.677 112 181.51 112H173.177C172.01 112 171.094 111.083 171.094 109.917C171.094 108.75 172.01 107.833 173.177 107.833H181.51Z" fill="#006AFF"/>
<path d="M181.51 120.333C182.677 120.333 183.594 121.25 183.594 122.417C183.594 123.583 182.677 124.5 181.51 124.5H173.177C172.01 124.5 171.094 123.583 171.094 122.417C171.094 121.25 172.01 120.333 173.177 120.333H181.51Z" fill="#006AFF"/>
<path d="M158.595 134.917C158.595 136.083 157.678 137 156.512 137C155.345 137 154.428 136.083 154.428 134.917V132.833V76.5833C154.428 75.9583 154.72 75.375 155.178 74.9583C155.678 74.5833 156.303 74.4166 156.928 74.5416L158.595 74.875V79.125V132.833V134.917Z" fill="#006AFF"/>
<path d="M154.427 132.833V134.917C154.427 136.083 155.344 137 156.511 137H139.844C141.011 137 141.927 136.083 141.927 134.917V132.833H154.427Z" fill="#006AFF"/>
<path d="M144.01 57.8334C145.177 57.8334 146.094 58.75 146.094 59.9167C146.094 61.0834 145.177 62 144.01 62H135.677C134.51 62 133.594 61.0834 133.594 59.9167C133.594 58.75 134.51 57.8334 135.677 57.8334H144.01Z" fill="#006AFF"/>
<path d="M146.094 72.4166C146.094 73.5833 145.177 74.4999 144.01 74.4999H135.677C134.51 74.4999 133.594 73.5833 133.594 72.4166C133.594 71.2499 134.51 70.3333 135.677 70.3333H144.01C145.177 70.3333 146.094 71.2499 146.094 72.4166Z" fill="#006AFF"/>
<path d="M144.01 82.8334C145.177 82.8334 146.094 83.75 146.094 84.9167C146.094 86.0834 145.177 87 144.01 87H135.677C134.51 87 133.594 86.0834 133.594 84.9167C133.594 83.75 134.51 82.8334 135.677 82.8334H144.01Z" fill="#006AFF"/>
<path d="M144.01 95.3334C145.177 95.3334 146.094 96.25 146.094 97.4167C146.094 98.5834 145.177 99.5 144.01 99.5H135.677C134.51 99.5 133.594 98.5834 133.594 97.4167C133.594 96.25 134.51 95.3334 135.677 95.3334H144.01Z" fill="#006AFF"/>
<path d="M125.261 97.4167C125.261 98.5834 124.344 99.5 123.178 99.5H114.844C113.678 99.5 112.761 98.5834 112.761 97.4167C112.761 96.25 113.678 95.3334 114.844 95.3334H123.178C124.344 95.3334 125.261 96.25 125.261 97.4167Z" fill="#006AFF"/>
<path d="M123.178 57.8334C124.344 57.8334 125.261 58.75 125.261 59.9167C125.261 61.0834 124.344 62 123.178 62H114.844C113.678 62 112.761 61.0834 112.761 59.9167C112.761 58.75 113.678 57.8334 114.844 57.8334H123.178Z" fill="#006AFF"/>
<path d="M123.178 70.3333C124.344 70.3333 125.261 71.2499 125.261 72.4166C125.261 73.5833 124.344 74.4999 123.178 74.4999H114.844C113.678 74.4999 112.761 73.5833 112.761 72.4166C112.761 71.2499 113.678 70.3333 114.844 70.3333H123.178Z" fill="#006AFF"/>
<path d="M123.178 82.8334C124.344 82.8334 125.261 83.75 125.261 84.9167C125.261 86.0834 124.344 87 123.178 87H114.844C113.678 87 112.761 86.0834 112.761 84.9167C112.761 83.75 113.678 82.8334 114.844 82.8334H123.178Z" fill="#006AFF"/>
<path d="M137.762 114.083C137.762 112.917 136.803 112 135.678 112H123.178C122.012 112 121.095 112.917 121.095 114.083V132.833H116.928V114.083C116.928 110.625 119.72 107.833 123.178 107.833H135.678C139.137 107.833 141.928 110.625 141.928 114.083V132.833H137.762V114.083Z" fill="#006AFF"/>
<path d="M121.095 132.833H137.762H141.928V134.917C141.928 136.083 141.012 137 139.845 137H119.012C117.845 137 116.928 136.083 116.928 134.917V132.833H121.095Z" fill="#006AFF"/>
<path d="M107.553 37.8333L153.344 44.7917C156.386 45.2917 158.594 47.875 158.594 50.9583V74.875L156.928 74.5416C156.303 74.4166 155.678 74.5833 155.178 74.9583C154.719 75.375 154.428 75.9583 154.428 76.5833V50.9583C154.428 49.9166 153.678 49.0416 152.678 48.875L106.886 41.9583C106.761 41.9167 106.636 41.9167 106.511 41.9167C106.011 41.9167 105.553 42.0833 105.178 42.4167C104.678 42.8333 104.428 43.375 104.428 44V130.75C104.428 131.917 105.386 132.833 106.511 132.833H116.928V134.917C116.928 136.083 117.844 137 119.011 137H106.511C103.053 137 100.261 134.208 100.261 130.75V44C100.261 42.1667 101.053 40.4167 102.469 39.25C103.886 38.0417 105.719 37.5417 107.553 37.8333Z" fill="#006AFF"/>
</g>
<g clip-path="url(#clip1)">
<path d="M211.907 50.625C211.54 50.625 211.243 50.3277 211.243 49.9609C211.243 49.5942 211.54 49.2969 211.907 49.2969C212.274 49.2969 212.571 49.5942 212.571 49.9609C212.571 50.3277 212.274 50.625 211.907 50.625Z" fill="#006AFF"/>
<path d="M222.134 50.625H214.895C214.529 50.625 214.231 50.3277 214.231 49.9609C214.231 49.5942 214.529 49.2969 214.895 49.2969H222.134C225.085 49.2969 227.579 46.864 227.579 43.9844C227.579 40.2549 223.745 37.7736 220.356 38.9763C220.148 39.0501 219.917 39.0157 219.74 38.8846C219.562 38.7536 219.461 38.5429 219.471 38.3224C219.646 34.1637 216.008 30.7031 211.907 30.7031C207.775 30.7031 204.166 34.1402 204.343 38.3224C204.353 38.5428 204.252 38.7536 204.074 38.8847C203.897 39.0158 203.666 39.0501 203.458 38.9763C200.044 37.7646 196.235 40.2779 196.235 43.9844C196.235 46.864 198.729 49.2969 201.68 49.2969H208.919C209.285 49.2969 209.583 49.5942 209.583 49.9609C209.583 50.3277 209.285 50.625 208.919 50.625H201.68C197.995 50.625 194.907 47.6422 194.907 43.9844C194.907 39.6784 198.988 36.6468 203.027 37.4803C203.326 32.9425 207.337 29.375 211.907 29.375C216.44 29.375 220.481 32.9551 220.786 37.4805C224.822 36.647 228.907 39.676 228.907 43.9844C228.907 47.6399 225.821 50.625 222.134 50.625Z" fill="#006AFF"/>
</g>
<path d="M83.8735 80.625H76.4632C76.0878 80.625 75.7834 80.3277 75.7834 79.9609C75.7834 79.5942 76.0878 79.2969 76.4632 79.2969H83.8735C86.8952 79.2969 89.4482 76.864 89.4482 73.9844C89.4482 70.2549 85.5235 67.7736 82.0537 68.9763C81.841 69.0501 81.6043 69.0157 81.4226 68.8846C81.2409 68.7536 81.1377 68.5429 81.1472 68.3224C81.3272 64.1637 77.6027 60.7031 73.4039 60.7031C69.1737 60.7031 65.4793 64.1402 65.6607 68.3224C65.6703 68.5428 65.567 68.7536 65.3853 68.8847C65.2035 69.0158 64.9671 69.0501 64.754 68.9763C61.259 67.7646 57.3597 70.2779 57.3597 73.9844C57.3597 76.864 59.9126 79.2969 62.9344 79.2969H70.3446C70.72 79.2969 71.0245 79.5942 71.0245 79.9609C71.0245 80.3277 70.72 80.625 70.3446 80.625H62.9344C59.1617 80.625 56 77.6422 56 73.9844C56 69.6784 60.1782 66.6468 64.3128 67.4803C64.6192 62.9425 68.7253 59.375 73.4039 59.375C78.0445 59.375 82.1818 62.9551 82.4942 67.4805C86.6262 66.647 90.8079 69.676 90.8079 73.9844C90.8079 77.6399 87.6482 80.625 83.8735 80.625Z" fill="#006AFF"/>
<defs>
<clipPath id="clip0">
<rect width="100" height="100" fill="white" transform="translate(100.261 37)"/>
</clipPath>
<clipPath id="clip1">
<rect width="34" height="34" fill="white" transform="matrix(-1 0 0 1 228.907 23)"/>
</clipPath>
</defs>
</svg>
