<svg width="174" height="114" viewBox="0 0 174 114" fill="none" xmlns="http://www.w3.org/2000/svg">
<g clip-path="url(#clip0)">
<path d="M103.333 51.875L140.042 59.1667C143 59.7917 145 62.2917 145 65.25V107.75C145 111.208 142.208 114 138.75 114H101.25C102.417 114 103.333 113.083 103.333 111.917V109.833H138.75C139.875 109.833 140.833 108.917 140.833 107.75V65.25C140.833 64.2917 140.167 63.4167 139.208 63.2083L103.333 56.125V51.875Z" fill="#006AFF"/>
<path d="M126.249 72.3334C127.416 72.3334 128.333 73.25 128.333 74.4167C128.333 75.5834 127.416 76.5 126.249 76.5H117.916C116.749 76.5 115.833 75.5834 115.833 74.4167C115.833 73.25 116.749 72.3334 117.916 72.3334H126.249Z" fill="#006AFF"/>
<path d="M126.249 84.8334C127.416 84.8334 128.333 85.75 128.333 86.9167C128.333 88.0834 127.416 89 126.249 89H117.916C116.749 89 115.833 88.0834 115.833 86.9167C115.833 85.75 116.749 84.8334 117.916 84.8334H126.249Z" fill="#006AFF"/>
<path d="M126.249 97.3334C127.416 97.3334 128.333 98.25 128.333 99.4167C128.333 100.583 127.416 101.5 126.249 101.5H117.916C116.749 101.5 115.833 100.583 115.833 99.4167C115.833 98.25 116.749 97.3334 117.916 97.3334H126.249Z" fill="#006AFF"/>
<path d="M103.334 111.917C103.334 113.083 102.417 114 101.251 114C100.084 114 99.1672 113.083 99.1672 111.917V109.833V53.5833C99.1672 52.9583 99.4589 52.375 99.9172 51.9583C100.417 51.5833 101.042 51.4166 101.667 51.5416L103.334 51.875V56.125V109.833V111.917Z" fill="#006AFF"/>
<path d="M99.1663 109.833V111.917C99.1663 113.083 100.083 114 101.25 114H84.583C85.7497 114 86.6663 113.083 86.6663 111.917V109.833H99.1663Z" fill="#006AFF"/>
<path d="M88.7494 34.8334C89.9161 34.8334 90.8328 35.75 90.8328 36.9167C90.8328 38.0834 89.9161 39 88.7494 39H80.4161C79.2494 39 78.3328 38.0834 78.3328 36.9167C78.3328 35.75 79.2494 34.8334 80.4161 34.8334H88.7494Z" fill="#006AFF"/>
<path d="M90.8328 49.4166C90.8328 50.5833 89.9161 51.4999 88.7494 51.4999H80.4161C79.2494 51.4999 78.3328 50.5833 78.3328 49.4166C78.3328 48.2499 79.2494 47.3333 80.4161 47.3333H88.7494C89.9161 47.3333 90.8328 48.2499 90.8328 49.4166Z" fill="#006AFF"/>
<path d="M88.7494 59.8334C89.9161 59.8334 90.8328 60.75 90.8328 61.9167C90.8328 63.0834 89.9161 64 88.7494 64H80.4161C79.2494 64 78.3328 63.0834 78.3328 61.9167C78.3328 60.75 79.2494 59.8334 80.4161 59.8334H88.7494Z" fill="#006AFF"/>
<path d="M88.7494 72.3334C89.9161 72.3334 90.8328 73.25 90.8328 74.4167C90.8328 75.5834 89.9161 76.5 88.7494 76.5H80.4161C79.2494 76.5 78.3328 75.5834 78.3328 74.4167C78.3328 73.25 79.2494 72.3334 80.4161 72.3334H88.7494Z" fill="#006AFF"/>
<path d="M70 74.4167C70 75.5834 69.0833 76.5 67.9167 76.5H59.5833C58.4167 76.5 57.5 75.5834 57.5 74.4167C57.5 73.25 58.4167 72.3334 59.5833 72.3334H67.9167C69.0833 72.3334 70 73.25 70 74.4167Z" fill="#006AFF"/>
<path d="M67.9167 34.8334C69.0833 34.8334 70 35.75 70 36.9167C70 38.0834 69.0833 39 67.9167 39H59.5833C58.4167 39 57.5 38.0834 57.5 36.9167C57.5 35.75 58.4167 34.8334 59.5833 34.8334H67.9167Z" fill="#006AFF"/>
<path d="M67.9167 47.3333C69.0833 47.3333 70 48.2499 70 49.4166C70 50.5833 69.0833 51.4999 67.9167 51.4999H59.5833C58.4167 51.4999 57.5 50.5833 57.5 49.4166C57.5 48.2499 58.4167 47.3333 59.5833 47.3333H67.9167Z" fill="#006AFF"/>
<path d="M67.9167 59.8334C69.0833 59.8334 70 60.75 70 61.9167C70 63.0834 69.0833 64 67.9167 64H59.5833C58.4167 64 57.5 63.0834 57.5 61.9167C57.5 60.75 58.4167 59.8334 59.5833 59.8334H67.9167Z" fill="#006AFF"/>
<path d="M82.5006 91.0834C82.5006 89.9167 81.5422 89 80.4172 89H67.9172C66.7506 89 65.8339 89.9167 65.8339 91.0834V109.833H61.6672V91.0834C61.6672 87.625 64.4589 84.8334 67.9172 84.8334H80.4172C83.8756 84.8334 86.6672 87.625 86.6672 91.0834V109.833H82.5006V91.0834Z" fill="#006AFF"/>
<path d="M65.8339 109.833H82.5006H86.6672V111.917C86.6672 113.083 85.7506 114 84.5839 114H63.7506C62.5839 114 61.6672 113.083 61.6672 111.917V109.833H65.8339Z" fill="#006AFF"/>
<path d="M52.2917 14.8333L98.0833 21.7917C101.125 22.2917 103.333 24.875 103.333 27.9583V51.875L101.667 51.5416C101.042 51.4166 100.417 51.5833 99.9167 51.9583C99.4583 52.375 99.1667 52.9583 99.1667 53.5833V27.9583C99.1667 26.9166 98.4167 26.0416 97.4167 25.875L51.625 18.9583C51.5 18.9167 51.375 18.9167 51.25 18.9167C50.75 18.9167 50.2917 19.0833 49.9167 19.4167C49.4167 19.8333 49.1667 20.375 49.1667 21V107.75C49.1667 108.917 50.125 109.833 51.25 109.833H61.6667V111.917C61.6667 113.083 62.5833 114 63.75 114H51.25C47.7917 114 45 111.208 45 107.75V21C45 19.1667 45.7917 17.4167 47.2083 16.25C48.625 15.0417 50.4583 14.5417 52.2917 14.8333Z" fill="#006AFF"/>
</g>
<g clip-path="url(#clip1)">
<path d="M156.646 27.625C156.279 27.625 155.982 27.3277 155.982 26.9609C155.982 26.5942 156.279 26.2969 156.646 26.2969C157.013 26.2969 157.31 26.5942 157.31 26.9609C157.31 27.3277 157.013 27.625 156.646 27.625Z" fill="#006AFF"/>
<path d="M166.873 27.625H159.634C159.268 27.625 158.97 27.3277 158.97 26.9609C158.97 26.5942 159.268 26.2969 159.634 26.2969H166.873C169.824 26.2969 172.318 23.864 172.318 20.9844C172.318 17.2549 168.484 14.7736 165.095 15.9763C164.887 16.0501 164.656 16.0157 164.479 15.8846C164.301 15.7536 164.2 15.5429 164.21 15.3224C164.385 11.1637 160.747 7.70312 156.646 7.70312C152.514 7.70312 148.905 11.1402 149.082 15.3224C149.092 15.5428 148.991 15.7536 148.813 15.8847C148.636 16.0158 148.405 16.0501 148.197 15.9763C144.783 14.7646 140.974 17.2779 140.974 20.9844C140.974 23.864 143.468 26.2969 146.419 26.2969H153.658C154.024 26.2969 154.322 26.5942 154.322 26.9609C154.322 27.3277 154.024 27.625 153.658 27.625H146.419C142.734 27.625 139.646 24.6422 139.646 20.9844C139.646 16.6784 143.727 13.6468 147.766 14.4803C148.065 9.94254 152.076 6.375 156.646 6.375C161.179 6.375 165.22 9.95509 165.525 14.4805C169.561 13.647 173.646 16.676 173.646 20.9844C173.646 24.6399 170.56 27.625 166.873 27.625Z" fill="#006AFF"/>
</g>
<path d="M28.6125 57.625H21.2022C20.8268 57.625 20.5224 57.3277 20.5224 56.9609C20.5224 56.5942 20.8268 56.2969 21.2022 56.2969H28.6125C31.6343 56.2969 34.1872 53.864 34.1872 50.9844C34.1872 47.2549 30.2625 44.7736 26.7928 45.9763C26.58 46.0501 26.3433 46.0157 26.1616 45.8846C25.9799 45.7536 25.8767 45.5429 25.8862 45.3224C26.0662 41.1637 22.3417 37.7031 18.1429 37.7031C13.9127 37.7031 10.2183 41.1402 10.3997 45.3224C10.4093 45.5428 10.306 45.7536 10.1243 45.8847C9.94256 46.0158 9.70611 46.0501 9.49305 45.9763C5.99798 44.7646 2.09869 47.2779 2.09869 50.9844C2.09869 53.864 4.65162 56.2969 7.67338 56.2969H15.0837C15.4591 56.2969 15.7635 56.5942 15.7635 56.9609C15.7635 57.3277 15.4591 57.625 15.0837 57.625H7.67338C3.90074 57.625 0.739002 54.6422 0.739002 50.9844C0.739002 46.6784 4.91724 43.6468 9.05183 44.4803C9.35823 39.9425 13.4643 36.375 18.1429 36.375C22.7835 36.375 26.9208 39.9551 27.2332 44.4805C31.3652 43.647 35.5469 46.676 35.5469 50.9844C35.5469 54.6399 32.3872 57.625 28.6125 57.625Z" fill="#006AFF"/>
<defs>
<clipPath id="clip0">
<rect width="100" height="100" fill="white" transform="translate(45 14)"/>
</clipPath>
<clipPath id="clip1">
<rect width="34" height="34" fill="white" transform="matrix(-1 0 0 1 173.646 0)"/>
</clipPath>
</defs>
</svg>
