<svg width="24" height="24" viewBox="0 0 24 24" fill="none" xmlns="http://www.w3.org/2000/svg">
<path d="M12.3871 10.1953C12.3871 9.2597 11.7186 8.45924 10.7977 8.2912L8.12903 7.80582V7.05866C8.83594 6.49049 9.29032 5.62065 9.29032 4.64516V3.09677C9.29032 1.38924 7.90108 0 6.19355 0C4.48601 0 3.09677 1.38924 3.09677 3.09677V4.64516C3.09677 5.62065 3.55116 6.49086 4.25806 7.05866V7.80582L1.58902 8.2912C0.668536 8.45924 0 9.2597 0 10.1953V16.2581H12.3871V10.1953ZM8.3772 8.63804L7.89995 10.5469L6.77306 9.64529L7.87198 8.54637L8.3772 8.63804ZM6.1599 12H6.22681L6.54341 15.4839H5.84331L6.1599 12ZM6.37349 11.2258H6.01361L5.61838 10.6333L6.19355 10.1732L6.76871 10.6333L6.37349 11.2258ZM6.19355 0.774194C7.47051 0.774194 8.50951 1.80998 8.51575 3.086C8.09028 3.05878 7.69317 2.88773 7.38886 2.58342L6.96774 2.1623L6.54662 2.58342C6.21566 2.91438 5.77545 3.09677 5.30708 3.09677H3.87097C3.87097 1.81584 4.91261 0.774194 6.19355 0.774194ZM3.87097 4.64516V3.87097H5.30708C5.92421 3.87097 6.5075 3.65152 6.96774 3.24931C7.39945 3.62676 7.94134 3.83581 8.51613 3.86133V4.64516C8.51613 5.9261 7.47448 6.96774 6.19355 6.96774C4.91261 6.96774 3.87097 5.9261 3.87097 4.64516ZM6.19355 7.74194C6.60427 7.74194 6.99609 7.6599 7.35484 7.51399V7.96875L6.19355 9.13004L5.03226 7.96875V7.51399C5.391 7.6599 5.78282 7.74194 6.19355 7.74194ZM4.51512 8.54637L5.61404 9.64529L4.48715 10.5469L4.00989 8.63804L4.51512 8.54637ZM0.774194 10.1953C0.774194 9.63414 1.17528 9.15367 1.72757 9.05273L3.24666 8.77659L4.0286 11.9047L5.01128 11.1186L5.4082 11.714L5.0659 15.4839H3.09677V11.6129H2.32258V15.4839H0.774194V10.1953ZM11.6129 15.4839H10.0645V11.6129H9.29032V15.4839H7.32119L6.97852 11.714L7.37544 11.1186L8.35811 11.9047L9.14006 8.77659L10.6591 9.05273C11.2118 9.15329 11.6129 9.63414 11.6129 10.1953V15.4839Z" fill="white"/>
<path d="M17.8064 3.09673C18.0196 3.09673 18.1935 3.27024 18.1935 3.48382H18.9677C18.9677 2.97992 18.643 2.55407 18.1935 2.39379V1.54834H17.4193V2.32253H16.6451V3.48382C16.6451 4.12401 17.1662 4.64511 17.8064 4.64511C18.0196 4.64511 18.1935 4.81863 18.1935 5.03221V5.41931H17.8064C17.5932 5.41931 17.4193 5.24579 17.4193 5.03221H16.6451C16.6451 5.53612 16.9699 5.96196 17.4193 6.12224V6.96769H18.1935V6.1935H18.9677V5.03221C18.9677 4.39203 18.4466 3.87092 17.8064 3.87092C17.5932 3.87092 17.4193 3.69741 17.4193 3.48382V3.09673H17.8064Z" fill="white"/>
<path d="M22.0645 17.0323V9.29032H21.2903V7.74194H20.2472C21.3442 6.97077 22.0645 5.69815 22.0645 4.25806C22.0645 1.91035 20.1542 0 17.8065 0C15.4587 0 13.5484 1.91035 13.5484 4.25806C13.5484 5.69815 14.2687 6.97077 15.3658 7.74194H14.3226V9.29032H13.5484V17.0323H11.6129V24H24V17.0323H22.0645ZM14.3226 4.25806C14.3226 2.33695 15.8857 0.774194 17.8065 0.774194C19.7272 0.774194 21.2903 2.33695 21.2903 4.25806C21.2903 6.17918 19.7272 7.74194 17.8065 7.74194C15.8857 7.74194 14.3226 6.17918 14.3226 4.25806ZM15.0968 8.51613H20.5161V9.29032H15.0968V8.51613ZM14.3226 10.0645H21.2903V17.0323H14.3226V10.0645ZM16.6452 23.2258H15.0968V19.3548H16.6452V23.2258ZM20.5161 23.2258H18.9678V19.3548H20.5161V23.2258ZM23.2258 23.2258H21.2903V18.5806H18.1936V23.2258H17.4194V18.5806H14.3226V23.2258H12.3871V17.8065H23.2258V23.2258Z" fill="white"/>
<path d="M15.0968 10.8387V16.2581H20.5162V10.8387H15.0968ZM19.742 13.1613H18.1936V11.6129H19.742V13.1613ZM17.4194 11.6129V13.1613H15.871V11.6129H17.4194ZM15.871 13.9355H17.4194V15.4839H15.871V13.9355ZM18.1936 15.4839V13.9355H19.742V15.4839H18.1936Z" fill="white"/>
<path d="M7.74194 18.5806H0V19.3548H8.51613V18.6479L10.2437 20.129L8.51613 21.6101V20.9032H0V21.6774H7.74194V23.2931L11.4337 20.129L7.74194 16.965V18.5806Z" fill="white"/>
<path d="M0 17.0322H0.774194V17.8064H0V17.0322Z" fill="white"/>
<path d="M1.54834 17.0322H2.32253V17.8064H1.54834V17.0322Z" fill="white"/>
<path d="M3.0968 17.0322H3.871V17.8064H3.0968V17.0322Z" fill="white"/>
<path d="M0 22.4517H0.774194V23.2259H0V22.4517Z" fill="white"/>
<path d="M1.54834 22.4517H2.32253V23.2259H1.54834V22.4517Z" fill="white"/>
<path d="M3.0968 22.4517H3.871V23.2259H3.0968V22.4517Z" fill="white"/>
</svg>
