<svg width="16" height="16" viewBox="0 0 16 16" fill="none" xmlns="http://www.w3.org/2000/svg">
<path d="M8 16C5.86312 16 3.85416 15.1678 2.34313 13.6569C0.832156 12.1458 0 10.1369 0 8C0 5.86312 0.832156 3.85416 2.34313 2.34313C3.85416 0.832156 5.86312 0 8 0C10.1369 0 12.1458 0.832156 13.6569 2.34313C15.1678 3.85416 16 5.86312 16 8C16 10.1369 15.1678 12.1458 13.6569 13.6569C12.1458 15.1678 10.1369 16 8 16ZM8 1.25C4.27803 1.25 1.25 4.27803 1.25 8C1.25 11.722 4.27803 14.75 8 14.75C11.722 14.75 14.75 11.722 14.75 8C14.75 4.27803 11.722 1.25 8 1.25ZM10.8223 10.8726C11.0663 10.6285 11.0664 10.2328 10.8223 9.98875C10.5782 9.74466 10.1824 9.74469 9.93841 9.98875C8.84178 11.0853 7.05753 11.0854 5.96091 9.98875C5.42972 9.45753 5.13716 8.75125 5.13716 8C5.13716 7.24875 5.42972 6.54247 5.96091 6.01125C7.05753 4.91463 8.84178 4.91469 9.93841 6.01125C10.1825 6.25534 10.5782 6.25534 10.8223 6.01125C11.0663 5.76716 11.0663 5.37144 10.8223 5.12738C9.23828 3.54341 6.66097 3.54344 5.07703 5.12738C4.30969 5.89469 3.88713 6.91488 3.88713 8C3.88713 9.08512 4.30969 10.1053 5.07703 10.8726C5.869 11.6646 6.90931 12.0606 7.94966 12.0606C8.99 12.0606 10.0303 11.6646 10.8223 10.8726Z" fill="black"/>
</svg>
