<svg width="19" height="19" viewBox="0 0 19 19" fill="none" xmlns="http://www.w3.org/2000/svg">
<g clip-path="url(#clip0)">
<path d="M12.1207 6.88379C11.875 6.88379 11.6758 7.08298 11.6758 7.32875V15.7386C11.6758 15.9842 11.875 16.1836 12.1207 16.1836C12.3665 16.1836 12.5657 15.9842 12.5657 15.7386V7.32875C12.5657 7.08298 12.3665 6.88379 12.1207 6.88379Z" fill="#FF4757"/>
<path d="M6.87017 6.88379C6.62439 6.88379 6.4252 7.08298 6.4252 7.32875V15.7386C6.4252 15.9842 6.62439 16.1836 6.87017 16.1836C7.11594 16.1836 7.31513 15.9842 7.31513 15.7386V7.32875C7.31513 7.08298 7.11594 6.88379 6.87017 6.88379Z" fill="#FF4757"/>
<path d="M3.04352 5.65648V16.6194C3.04352 17.2674 3.28113 17.8759 3.69619 18.3126C4.10935 18.7504 4.68433 18.999 5.28607 19H13.7049C14.3068 18.999 14.8818 18.7504 15.2948 18.3126C15.7099 17.8759 15.9475 17.2674 15.9475 16.6194V5.65648C16.7726 5.43748 17.3072 4.64037 17.1968 3.79372C17.0863 2.94725 16.3651 2.31404 15.5114 2.31387H13.2332V1.75766C13.2358 1.28993 13.0509 0.840796 12.7197 0.510376C12.3886 0.18013 11.9388 -0.00376544 11.4711 5.84646e-05H7.51993C7.05219 -0.00376544 6.60236 0.18013 6.27125 0.510376C5.94013 0.840796 5.75519 1.28993 5.7578 1.75766V2.31387H3.47962C2.62585 2.31404 1.9047 2.94725 1.79415 3.79372C1.68378 4.64037 2.21843 5.43748 3.04352 5.65648ZM13.7049 18.1101H5.28607C4.52529 18.1101 3.93345 17.4565 3.93345 16.6194V5.69559H15.0575V16.6194C15.0575 17.4565 14.4657 18.1101 13.7049 18.1101ZM6.64773 1.75766C6.64477 1.52597 6.73585 1.30297 6.90028 1.13941C7.06453 0.97585 7.28806 0.885988 7.51993 0.889986H11.4711C11.7029 0.885988 11.9265 0.97585 12.0907 1.13941C12.2551 1.30279 12.3462 1.52597 12.3433 1.75766V2.31387H6.64773V1.75766ZM3.47962 3.2038H15.5114C15.9537 3.2038 16.3123 3.56237 16.3123 4.00473C16.3123 4.44709 15.9537 4.80566 15.5114 4.80566H3.47962C3.03727 4.80566 2.67869 4.44709 2.67869 4.00473C2.67869 3.56237 3.03727 3.2038 3.47962 3.2038Z" fill="#FF4757"/>
<path d="M9.49549 6.88379C9.24972 6.88379 9.05054 7.08298 9.05054 7.32875V15.7386C9.05054 15.9842 9.24972 16.1836 9.49549 16.1836C9.74126 16.1836 9.94045 15.9842 9.94045 15.7386V7.32875C9.94045 7.08298 9.74126 6.88379 9.49549 6.88379Z" fill="#FF4757"/>
</g>
<defs>
<clipPath id="clip0">
<rect width="19" height="19" fill="white"/>
</clipPath>
</defs>
</svg>
