<svg width="144" height="101" viewBox="0 0 144 101" fill="none" xmlns="http://www.w3.org/2000/svg">
<path d="M27.2266 21.25H19.9883C19.6216 21.25 19.3242 20.9527 19.3242 20.5859C19.3242 20.2192 19.6216 19.9219 19.9883 19.9219H27.2266C30.1782 19.9219 32.6719 17.489 32.6719 14.6094C32.6719 10.8799 28.8383 8.3986 25.4491 9.60128C25.2412 9.67506 25.0101 9.64073 24.8326 9.50964C24.655 9.37855 24.5542 9.16791 24.5635 8.94738C24.7394 4.78869 21.1013 1.32812 17 1.32812C12.8679 1.32812 9.25929 4.76518 9.43646 8.94738C9.44582 9.16785 9.34495 9.37862 9.16745 9.50971C8.98994 9.64079 8.75898 9.67513 8.55087 9.60135C5.13692 8.38963 1.32812 10.9029 1.32812 14.6094C1.32812 17.489 3.82181 19.9219 6.77344 19.9219H14.0117C14.3784 19.9219 14.6758 20.2192 14.6758 20.5859C14.6758 20.9527 14.3784 21.25 14.0117 21.25H6.77344C3.08836 21.25 0 18.2672 0 14.6094C0 10.3034 4.08126 7.27175 8.11989 8.10535C8.41918 3.56754 12.4299 0 17 0C21.5328 0 25.5741 3.58009 25.8793 8.10555C29.9154 7.27202 34 10.301 34 14.6094C34 18.2649 30.9136 21.25 27.2266 21.25Z" fill="#006AFF"/>
<path d="M51.7782 47.3352H58.0916C58.9006 47.3352 59.5565 46.6793 59.5565 45.8704V33.6379C59.5565 32.829 58.9006 32.1731 58.0916 32.1731H51.7782C50.9692 32.1731 50.3133 32.829 50.3133 33.6379V45.8704C50.3133 46.6793 50.9692 47.3352 51.7782 47.3352ZM53.243 35.1026H56.6268V44.4053H53.243V35.1026Z" fill="#006AFF"/>
<path d="M50.3133 64.4163C50.3133 65.2252 50.9692 65.8811 51.7782 65.8811H58.0916C58.9006 65.8811 59.5565 65.2252 59.5565 64.4163V52.1838C59.5565 51.3749 58.9006 50.719 58.0916 50.719H51.7782C50.9692 50.719 50.3133 51.3749 50.3133 52.1838V64.4163ZM53.243 53.6487H56.6268V62.9514H53.243V53.6487Z" fill="#006AFF"/>
<path d="M50.3133 93.2217C50.3133 94.0307 50.9692 94.6865 51.7782 94.6865H58.0916C58.9006 94.6865 59.5565 94.0307 59.5565 93.2217V80.9893C59.5565 80.1803 58.9006 79.5244 58.0916 79.5244H51.7782C50.9692 79.5244 50.3133 80.1803 50.3133 80.9893V93.2217ZM53.243 82.4541H56.6268V91.7568H53.243V82.4541Z" fill="#006AFF"/>
<path d="M142.535 32.0547C143.344 32.0547 144 31.3988 144 30.5898V22.5893C144 21.7803 143.344 21.1244 142.535 21.1244H125.059V10.2432H125.568C126.377 10.2432 127.032 9.58731 127.032 8.77832V2.46484C127.032 1.65586 126.377 1 125.568 1H62.4324C61.6234 1 60.9676 1.65586 60.9676 2.46484V8.77832C60.9676 9.58731 61.6234 10.2432 62.4324 10.2432H62.9414V21.1242H45.4648C44.6559 21.1242 44 21.7801 44 22.5891V30.5898C44 31.3988 44.6559 32.0547 45.4648 32.0547C46.2738 32.0547 46.9297 31.3988 46.9297 30.5898V24.0541H62.9414V69.2648H62.4324C61.6234 69.2648 60.9676 69.9207 60.9676 70.7297V77.0432C60.9676 77.8521 61.6234 78.508 62.4324 78.508H62.9414V98.0703H46.9297V37.4367C46.9297 36.6277 46.2738 35.9719 45.4648 35.9719C44.6559 35.9719 44 36.6277 44 37.4367V99.5352C44 100.344 44.6559 101 45.4648 101H142.535C143.344 101 144 100.344 144 99.5352V37.4367C144 36.6277 143.344 35.9719 142.535 35.9719C141.726 35.9719 141.07 36.6277 141.07 37.4367V98.0703H125.059V78.508H125.568C126.377 78.508 127.032 77.8521 127.032 77.0432V70.7297C127.032 69.9207 126.377 69.2648 125.568 69.2648H125.059V24.0541H141.07V30.5898C141.07 31.3988 141.726 32.0547 142.535 32.0547ZM124.103 72.1945V75.5783H63.8973V72.1945H124.103ZM92.5352 98.0703H87.5729V84.8217H92.5352V98.0703ZM95.4648 98.0703V84.8217H100.427V98.0703H95.4648ZM122.129 98.0703H103.357V83.3568C103.357 82.5479 102.701 81.892 101.892 81.892H86.1082C85.2992 81.892 84.6434 82.5479 84.6434 83.3568V98.0703H65.8711V78.508H122.129V98.0703ZM65.8711 69.2648V10.2432H111.016C111.825 10.2432 112.481 9.58731 112.481 8.77832C112.481 7.96934 111.825 7.31348 111.016 7.31348H63.8973V3.92969H124.103V7.31348H117.863C117.054 7.31348 116.398 7.96934 116.398 8.77832C116.398 9.58731 117.054 10.2432 117.863 10.2432H122.129V69.2648H65.8711Z" fill="#006AFF"/>
<path d="M77.0326 13.627H70.7191C69.9101 13.627 69.2543 14.2828 69.2543 15.0918V27.3242C69.2543 28.1332 69.9101 28.7891 70.7191 28.7891H77.0326C77.8416 28.7891 78.4974 28.1332 78.4974 27.3242V15.0918C78.4974 14.2828 77.8416 13.627 77.0326 13.627ZM75.5678 25.8594H72.184V16.5566H75.5678V25.8594Z" fill="#006AFF"/>
<path d="M90.4485 13.627H84.135C83.326 13.627 82.6702 14.2828 82.6702 15.0918V27.3242C82.6702 28.1332 83.326 28.7891 84.135 28.7891H90.4485C91.2575 28.7891 91.9133 28.1332 91.9133 27.3242V15.0918C91.9133 14.2828 91.2575 13.627 90.4485 13.627ZM88.9836 25.8594H85.5999V16.5566H88.9836V25.8594Z" fill="#006AFF"/>
<path d="M103.865 13.627H97.5517C96.7425 13.627 96.0869 14.2828 96.0869 15.0918V27.3242C96.0869 28.1332 96.7425 28.7891 97.5517 28.7891H103.865C104.674 28.7891 105.33 28.1332 105.33 27.3242V15.0918C105.33 14.2828 104.674 13.627 103.865 13.627ZM102.4 25.8594H99.0165V16.5566H102.4V25.8594Z" fill="#006AFF"/>
<path d="M117.281 13.627H110.968C110.158 13.627 109.503 14.2828 109.503 15.0918V27.3242C109.503 28.1332 110.158 28.7891 110.968 28.7891H117.281C118.09 28.7891 118.746 28.1332 118.746 27.3242V15.0918C118.746 14.2828 118.09 13.627 117.281 13.627ZM115.816 25.8594H112.432V16.5566H115.816V25.8594Z" fill="#006AFF"/>
<path d="M77.0326 32.1729H70.7191C69.9101 32.1729 69.2543 32.8287 69.2543 33.6377V45.8701C69.2543 46.6791 69.9101 47.335 70.7191 47.335H77.0326C77.8416 47.335 78.4974 46.6791 78.4974 45.8701V33.6377C78.4974 32.8287 77.8416 32.1729 77.0326 32.1729ZM75.5678 44.4055H72.184V35.1027H75.5678V44.4055Z" fill="#006AFF"/>
<path d="M90.4485 32.1729H84.135C83.326 32.1729 82.6702 32.8287 82.6702 33.6377V45.8701C82.6702 46.6791 83.326 47.335 84.135 47.335H90.4485C91.2575 47.335 91.9133 46.6791 91.9133 45.8701V33.6377C91.9133 32.8287 91.2575 32.1729 90.4485 32.1729ZM88.9836 44.4055H85.5999V35.1027H88.9836V44.4055Z" fill="#006AFF"/>
<path d="M103.865 32.1729H97.5517C96.7425 32.1729 96.0869 32.8287 96.0869 33.6377V45.8701C96.0869 46.6791 96.7425 47.335 97.5517 47.335H103.865C104.674 47.335 105.33 46.6791 105.33 45.8701V33.6377C105.33 32.8287 104.674 32.1729 103.865 32.1729ZM102.4 44.4055H99.0165V35.1027H102.4V44.4055Z" fill="#006AFF"/>
<path d="M117.281 32.1729H110.968C110.158 32.1729 109.503 32.8287 109.503 33.6377V45.8701C109.503 46.6791 110.158 47.335 110.968 47.335H117.281C118.09 47.335 118.746 46.6791 118.746 45.8701V33.6377C118.746 32.8287 118.09 32.1729 117.281 32.1729ZM115.816 44.4055H112.432V35.1027H115.816V44.4055Z" fill="#006AFF"/>
<path d="M77.0326 50.719H70.7191C69.9101 50.719 69.2543 51.3749 69.2543 52.1838V64.4163C69.2543 65.2252 69.9101 65.8811 70.7191 65.8811H77.0326C77.8416 65.8811 78.4974 65.2252 78.4974 64.4163V52.1838C78.4974 51.3749 77.8416 50.719 77.0326 50.719ZM75.5678 62.9514H72.184V53.6487H75.5678V62.9514Z" fill="#006AFF"/>
<path d="M90.4485 50.719H84.135C83.326 50.719 82.6702 51.3749 82.6702 52.1838V64.4163C82.6702 65.2252 83.326 65.8811 84.135 65.8811H90.4485C91.2575 65.8811 91.9133 65.2252 91.9133 64.4163V52.1838C91.9133 51.3749 91.2575 50.719 90.4485 50.719ZM88.9836 62.9514H85.5999V53.6487H88.9836V62.9514Z" fill="#006AFF"/>
<path d="M103.865 50.719H97.5517C96.7425 50.719 96.0869 51.3749 96.0869 52.1838V64.4163C96.0869 65.2252 96.7425 65.8811 97.5517 65.8811H103.865C104.674 65.8811 105.33 65.2252 105.33 64.4163V52.1838C105.33 51.3749 104.674 50.719 103.865 50.719ZM102.4 62.9514H99.0165V53.6487H102.4V62.9514Z" fill="#006AFF"/>
<path d="M117.281 50.719H110.968C110.158 50.719 109.503 51.3749 109.503 52.1838V64.4163C109.503 65.2252 110.158 65.8811 110.968 65.8811H117.281C118.09 65.8811 118.746 65.2252 118.746 64.4163V52.1838C118.746 51.3749 118.09 50.719 117.281 50.719ZM115.816 62.9514H112.432V53.6487H115.816V62.9514Z" fill="#006AFF"/>
<path d="M70.7191 94.6865H79.7947C80.6037 94.6865 81.2595 94.0306 81.2595 93.2217V83.3568C81.2595 82.5478 80.6037 81.892 79.7947 81.892H70.7191C69.9101 81.892 69.2543 82.5478 69.2543 83.3568V93.2217C69.2543 94.0306 69.9101 94.6865 70.7191 94.6865ZM72.184 84.8217H78.3299V91.7568H72.184V84.8217Z" fill="#006AFF"/>
<path d="M108.205 94.6865H117.281C118.09 94.6865 118.746 94.0306 118.746 93.2217V83.3568C118.746 82.5478 118.09 81.892 117.281 81.892H108.205C107.396 81.892 106.74 82.5478 106.74 83.3568V93.2217C106.74 94.0306 107.396 94.6865 108.205 94.6865ZM109.67 84.8217H115.816V91.7568H109.67V84.8217Z" fill="#006AFF"/>
<path d="M137.687 33.6377C137.687 32.8287 137.031 32.1729 136.222 32.1729H129.909C129.099 32.1729 128.444 32.8287 128.444 33.6377V45.8701C128.444 46.6791 129.099 47.335 129.909 47.335H136.222C137.031 47.335 137.687 46.6791 137.687 45.8701V33.6377ZM134.757 44.4055H131.373V35.1027H134.757V44.4055Z" fill="#006AFF"/>
<path d="M137.687 52.1838C137.687 51.3749 137.031 50.719 136.222 50.719H129.909C129.099 50.719 128.444 51.3749 128.444 52.1838V64.4163C128.444 65.2252 129.099 65.8811 129.909 65.8811H136.222C137.031 65.8811 137.687 65.2252 137.687 64.4163V52.1838ZM134.757 62.9514H131.373V53.6487H134.757V62.9514Z" fill="#006AFF"/>
<path d="M136.222 79.5244H129.909C129.099 79.5244 128.444 80.1803 128.444 80.9893V93.2217C128.444 94.0307 129.099 94.6865 129.909 94.6865H136.222C137.031 94.6865 137.687 94.0307 137.687 93.2217V80.9893C137.687 80.1803 137.031 79.5244 136.222 79.5244ZM134.757 91.7568H131.373V82.4541H134.757V91.7568Z" fill="#006AFF"/>
</svg>
