<svg width="286" height="160" viewBox="0 0 286 160" fill="none" xmlns="http://www.w3.org/2000/svg">
<g opacity="0.34">
<g opacity="0.6">
<path opacity="0.6" d="M248.48 102.896C250.467 111.167 250.136 118.771 247.486 126.885C244.173 137.038 236.72 146.484 226.036 152.286C222.309 154.324 218.293 155.853 214.11 156.95C213.448 157.97 212.702 158.989 211.916 159.929H247.61C256.679 149.699 261.896 136.567 262.725 123.24C262.932 119.634 262.849 115.988 262.435 112.421C260.778 98.5056 254.236 85.2565 244.463 74.7122C244.339 75.4569 244.215 76.2017 244.09 76.9465C242.972 85.8053 246.409 94.3898 248.48 102.896Z" fill="#53D0F7"/>
</g>
<g opacity="0.41">
<path opacity="0.41" d="M137.915 157.891C135.803 155.147 134.188 151.659 131.952 148.875C127.19 149.777 122.511 151.11 117.749 152.286C108.018 154.638 97.9969 156.402 87.9759 156.519C76.8368 156.676 65.4493 154.638 55.7596 149.189C48.3474 145.034 41.8461 138.723 38.3264 131.197C39.3202 141.585 43.2954 151.737 50.0037 159.969H139.613C138.992 159.263 138.454 158.597 137.915 157.891Z" fill="#53D0F7"/>
</g>
<g opacity="0.41">
<path opacity="0.41" d="M152.038 15.0914C154.73 15.013 157.67 14.8562 160.858 14.621C175.683 13.5626 190.383 16.7769 204.628 21.1671C205.994 21.5983 207.361 22.0687 208.727 22.5391C202.599 16.1497 194.772 11.1715 186.159 8.34925C169.099 2.74388 148.436 4.97819 133.446 13.7978C139.616 13.837 145.827 14.2682 152.038 15.0914Z" fill="#53D0F7"/>
</g>
<g opacity="0.35">
<path opacity="0.35" d="M55.3894 149.307C65.0791 154.598 76.4252 156.637 87.5643 156.558C97.5853 156.48 107.648 154.834 117.379 152.599C122.141 151.502 126.862 150.247 131.624 149.385C129.677 146.994 127.276 145.112 123.714 144.72C109.884 143.153 95.3492 148.562 81.6014 149.463C72.3671 150.091 62.5532 148.875 55.0581 143.662C50.2133 140.252 46.6935 135.391 44.2503 130.139C39.2398 119.242 39.1156 106.737 43.3393 95.5657C46.1966 88.0396 53.1533 82.2774 55.555 74.5945C57.5841 68.166 55.2238 61.4631 55.8863 54.9953C56.0105 53.6626 56.3004 52.369 56.7145 51.0755C59.0748 44.1766 70.5037 34.2202 77.5019 30.8883C94.2726 22.8919 111.789 19.0112 129.677 18.6192C119.532 17.0121 109.925 14.1114 92.9061 10.7012C72.7398 6.54613 50.0062 20.5792 38.0804 36.9249C36.8795 38.6104 35.8029 40.3351 34.8919 42.1383C30.751 50.2523 29.5915 59.6208 31.4963 68.4012C33.7324 78.7104 40.6892 86.6676 38.2046 97.6432C36.6725 104.346 36.2998 110.539 35.513 117.164C34.8919 122.338 35.9271 127.277 38.039 131.785C41.5173 139.076 48.0186 145.23 55.3894 149.307Z" fill="#53D0F7"/>
</g>
<g opacity="0.47">
<path opacity="0.47" d="M160.858 14.621C157.669 14.8562 154.77 15.013 152.037 15.0914C161.23 16.3066 170.506 18.4233 179.74 21.2848L214.317 32.0643C230.59 37.1209 241.357 51.8595 240.322 68.0484C240.322 68.166 240.322 68.2444 240.28 68.362C239.618 77.7304 236.346 86.9421 230.88 94.625C225.953 101.602 219.12 109.403 217.422 117.987C216.056 124.808 218.996 131.707 219.369 138.645C219.7 145.23 217.629 151.502 214.027 156.911C218.209 155.814 222.226 154.285 225.953 152.247C236.595 146.445 244.09 136.998 247.403 126.846C250.053 118.732 250.384 111.127 248.396 102.857C246.367 94.3506 242.93 85.7661 244.007 76.9073C244.09 76.1625 244.214 75.4177 244.38 74.673C245.415 69.2636 247.692 64.011 247.196 58.5624C246.823 54.4466 244.918 50.566 242.558 47.1165C234.773 35.553 222.267 27.4389 208.644 22.5391C207.277 22.0687 205.911 21.5983 204.544 21.1672C190.382 16.7769 175.682 13.5627 160.858 14.621Z" fill="#53D0F7"/>
</g>
<g opacity="0.7">
<path opacity="0.7" d="M56.5892 47.7045C56.1337 49.0372 55.8852 50.4092 55.761 51.7811C55.1399 58.484 57.5002 65.3829 55.5125 72.0075C53.1108 79.9647 46.1955 85.8837 43.3797 93.6842C39.1974 105.209 39.4044 118.105 44.4563 129.355C46.8995 134.764 50.4606 139.781 55.3055 143.27C62.8006 148.64 72.6145 149.816 81.8487 149.111C95.5966 148.092 110.09 142.447 123.92 144.015C127.482 144.407 129.925 146.328 131.871 148.797C134.107 151.58 135.722 155.069 137.834 157.813C138.372 158.518 138.952 159.224 139.532 159.89H211.832C212.619 158.91 213.364 157.93 214.027 156.911C217.629 151.502 219.7 145.23 219.368 138.645C218.996 131.707 216.056 124.808 217.422 117.987C219.12 109.442 225.952 101.602 230.88 94.6249C236.346 86.9029 239.617 77.7304 240.28 68.362C240.28 68.2444 240.28 68.166 240.321 68.0484C241.315 51.8595 230.549 37.1209 214.316 32.0643L179.74 21.2847C170.464 18.3841 161.23 16.3065 152.037 15.0914C145.826 14.2682 139.614 13.7979 133.444 13.7979C132.078 13.7979 130.753 13.7979 129.386 13.837C111.539 14.3466 94.023 18.4233 77.2937 26.7333C70.2956 30.2612 58.9495 40.6096 56.5892 47.7045Z" fill="#53D0F7"/>
</g>
<g opacity="0.35">
<path opacity="0.35" d="M120.483 10.662C123.593 10.662 126.115 8.2752 126.115 5.33098C126.115 2.38676 123.593 0 120.483 0C117.373 0 114.851 2.38676 114.851 5.33098C114.851 8.2752 117.373 10.662 120.483 10.662Z" fill="#53D0F7"/>
</g>
<g opacity="0.35">
<path opacity="0.35" d="M272.539 80.6703C279.56 80.6703 285.251 75.2826 285.251 68.6364C285.251 61.9903 279.56 56.6025 272.539 56.6025C265.518 56.6025 259.826 61.9903 259.826 68.6364C259.826 75.2826 265.518 80.6703 272.539 80.6703Z" fill="#53D0F7"/>
</g>
<g opacity="0.35">
<path opacity="0.35" d="M26.0252 100.94C31.4258 96.6929 32.1668 89.1058 27.6804 83.9936C23.194 78.8814 15.1791 78.1799 9.77853 82.4268C4.378 86.6737 3.63695 94.2607 8.12335 99.3729C12.6098 104.485 20.6247 105.187 26.0252 100.94Z" fill="#53D0F7"/>
</g>
<g opacity="0.35">
<path opacity="0.35" d="M219.741 20.1872C221.867 20.1872 223.592 18.555 223.592 16.5417C223.592 14.5284 221.867 12.8962 219.741 12.8962C217.614 12.8962 215.89 14.5284 215.89 16.5417C215.89 18.555 217.614 20.1872 219.741 20.1872Z" fill="#53D0F7"/>
</g>
</g>
<path d="M122.778 76.3352H129.092C129.901 76.3352 130.556 75.6793 130.556 74.8704V62.6379C130.556 61.829 129.901 61.1731 129.092 61.1731H122.778C121.969 61.1731 121.313 61.829 121.313 62.6379V74.8704C121.313 75.6793 121.969 76.3352 122.778 76.3352ZM124.243 64.1026H127.627V73.4053H124.243V64.1026Z" fill="#006AFF"/>
<path d="M121.313 93.4163C121.313 94.2252 121.969 94.8811 122.778 94.8811H129.092C129.901 94.8811 130.556 94.2252 130.556 93.4163V81.1838C130.556 80.3749 129.901 79.719 129.092 79.719H122.778C121.969 79.719 121.313 80.3749 121.313 81.1838V93.4163ZM124.243 82.6487H127.627V91.9514H124.243V82.6487Z" fill="#006AFF"/>
<path d="M121.313 122.222C121.313 123.031 121.969 123.687 122.778 123.687H129.092C129.901 123.687 130.556 123.031 130.556 122.222V109.989C130.556 109.18 129.901 108.524 129.092 108.524H122.778C121.969 108.524 121.313 109.18 121.313 109.989V122.222ZM124.243 111.454H127.627V120.757H124.243V111.454Z" fill="#006AFF"/>
<path d="M213.535 61.0547C214.344 61.0547 215 60.3988 215 59.5898V51.5893C215 50.7803 214.344 50.1244 213.535 50.1244H196.059V39.2432H196.568C197.377 39.2432 198.032 38.5873 198.032 37.7783V31.4648C198.032 30.6559 197.377 30 196.568 30H133.432C132.623 30 131.968 30.6559 131.968 31.4648V37.7783C131.968 38.5873 132.623 39.2432 133.432 39.2432H133.941V50.1242H116.465C115.656 50.1242 115 50.7801 115 51.5891V59.5898C115 60.3988 115.656 61.0547 116.465 61.0547C117.274 61.0547 117.93 60.3988 117.93 59.5898V53.0541H133.941V98.2648H133.432C132.623 98.2648 131.968 98.9207 131.968 99.7297V106.043C131.968 106.852 132.623 107.508 133.432 107.508H133.941V127.07H117.93V66.4367C117.93 65.6277 117.274 64.9719 116.465 64.9719C115.656 64.9719 115 65.6277 115 66.4367V128.535C115 129.344 115.656 130 116.465 130H213.535C214.344 130 215 129.344 215 128.535V66.4367C215 65.6277 214.344 64.9719 213.535 64.9719C212.726 64.9719 212.07 65.6277 212.07 66.4367V127.07H196.059V107.508H196.568C197.377 107.508 198.032 106.852 198.032 106.043V99.7297C198.032 98.9207 197.377 98.2648 196.568 98.2648H196.059V53.0541H212.07V59.5898C212.07 60.3988 212.726 61.0547 213.535 61.0547ZM195.103 101.195V104.578H134.897V101.195H195.103ZM163.535 127.07H158.573V113.822H163.535V127.07ZM166.465 127.07V113.822H171.427V127.07H166.465ZM193.129 127.07H174.357V112.357C174.357 111.548 173.701 110.892 172.892 110.892H157.108C156.299 110.892 155.643 111.548 155.643 112.357V127.07H136.871V107.508H193.129V127.07ZM136.871 98.2648V39.2432H182.016C182.825 39.2432 183.481 38.5873 183.481 37.7783C183.481 36.9693 182.825 36.3135 182.016 36.3135H134.897V32.9297H195.103V36.3135H188.863C188.054 36.3135 187.398 36.9693 187.398 37.7783C187.398 38.5873 188.054 39.2432 188.863 39.2432H193.129V98.2648H136.871Z" fill="#006AFF"/>
<path d="M148.033 42.627H141.719C140.91 42.627 140.254 43.2828 140.254 44.0918V56.3242C140.254 57.1332 140.91 57.7891 141.719 57.7891H148.033C148.842 57.7891 149.497 57.1332 149.497 56.3242V44.0918C149.497 43.2828 148.842 42.627 148.033 42.627ZM146.568 54.8594H143.184V45.5566H146.568V54.8594Z" fill="#006AFF"/>
<path d="M161.448 42.627H155.135C154.326 42.627 153.67 43.2828 153.67 44.0918V56.3242C153.67 57.1332 154.326 57.7891 155.135 57.7891H161.448C162.257 57.7891 162.913 57.1332 162.913 56.3242V44.0918C162.913 43.2828 162.257 42.627 161.448 42.627ZM159.984 54.8594H156.6V45.5566H159.984V54.8594Z" fill="#006AFF"/>
<path d="M174.865 42.627H168.552C167.743 42.627 167.087 43.2828 167.087 44.0918V56.3242C167.087 57.1332 167.743 57.7891 168.552 57.7891H174.865C175.674 57.7891 176.33 57.1332 176.33 56.3242V44.0918C176.33 43.2828 175.674 42.627 174.865 42.627ZM173.4 54.8594H170.017V45.5566H173.4V54.8594Z" fill="#006AFF"/>
<path d="M188.281 42.627H181.968C181.158 42.627 180.503 43.2828 180.503 44.0918V56.3242C180.503 57.1332 181.158 57.7891 181.968 57.7891H188.281C189.09 57.7891 189.746 57.1332 189.746 56.3242V44.0918C189.746 43.2828 189.09 42.627 188.281 42.627ZM186.816 54.8594H183.432V45.5566H186.816V54.8594Z" fill="#006AFF"/>
<path d="M148.033 61.1729H141.719C140.91 61.1729 140.254 61.8287 140.254 62.6377V74.8701C140.254 75.6791 140.91 76.335 141.719 76.335H148.033C148.842 76.335 149.497 75.6791 149.497 74.8701V62.6377C149.497 61.8287 148.842 61.1729 148.033 61.1729ZM146.568 73.4055H143.184V64.1027H146.568V73.4055Z" fill="#006AFF"/>
<path d="M161.448 61.1729H155.135C154.326 61.1729 153.67 61.8287 153.67 62.6377V74.8701C153.67 75.6791 154.326 76.335 155.135 76.335H161.448C162.257 76.335 162.913 75.6791 162.913 74.8701V62.6377C162.913 61.8287 162.257 61.1729 161.448 61.1729ZM159.984 73.4055H156.6V64.1027H159.984V73.4055Z" fill="#006AFF"/>
<path d="M174.865 61.1729H168.552C167.743 61.1729 167.087 61.8287 167.087 62.6377V74.8701C167.087 75.6791 167.743 76.335 168.552 76.335H174.865C175.674 76.335 176.33 75.6791 176.33 74.8701V62.6377C176.33 61.8287 175.674 61.1729 174.865 61.1729ZM173.4 73.4055H170.017V64.1027H173.4V73.4055Z" fill="#006AFF"/>
<path d="M188.281 61.1729H181.968C181.158 61.1729 180.503 61.8287 180.503 62.6377V74.8701C180.503 75.6791 181.158 76.335 181.968 76.335H188.281C189.09 76.335 189.746 75.6791 189.746 74.8701V62.6377C189.746 61.8287 189.09 61.1729 188.281 61.1729ZM186.816 73.4055H183.432V64.1027H186.816V73.4055Z" fill="#006AFF"/>
<path d="M148.033 79.719H141.719C140.91 79.719 140.254 80.3749 140.254 81.1838V93.4163C140.254 94.2252 140.91 94.8811 141.719 94.8811H148.033C148.842 94.8811 149.497 94.2252 149.497 93.4163V81.1838C149.497 80.3749 148.842 79.719 148.033 79.719ZM146.568 91.9514H143.184V82.6487H146.568V91.9514Z" fill="#006AFF"/>
<path d="M161.448 79.719H155.135C154.326 79.719 153.67 80.3749 153.67 81.1838V93.4163C153.67 94.2252 154.326 94.8811 155.135 94.8811H161.448C162.257 94.8811 162.913 94.2252 162.913 93.4163V81.1838C162.913 80.3749 162.257 79.719 161.448 79.719ZM159.984 91.9514H156.6V82.6487H159.984V91.9514Z" fill="#006AFF"/>
<path d="M174.865 79.719H168.552C167.743 79.719 167.087 80.3749 167.087 81.1838V93.4163C167.087 94.2252 167.743 94.8811 168.552 94.8811H174.865C175.674 94.8811 176.33 94.2252 176.33 93.4163V81.1838C176.33 80.3749 175.674 79.719 174.865 79.719ZM173.4 91.9514H170.017V82.6487H173.4V91.9514Z" fill="#006AFF"/>
<path d="M188.281 79.719H181.968C181.158 79.719 180.503 80.3749 180.503 81.1838V93.4163C180.503 94.2252 181.158 94.8811 181.968 94.8811H188.281C189.09 94.8811 189.746 94.2252 189.746 93.4163V81.1838C189.746 80.3749 189.09 79.719 188.281 79.719ZM186.816 91.9514H183.432V82.6487H186.816V91.9514Z" fill="#006AFF"/>
<path d="M141.719 123.687H150.795C151.604 123.687 152.26 123.031 152.26 122.222V112.357C152.26 111.548 151.604 110.892 150.795 110.892H141.719C140.91 110.892 140.254 111.548 140.254 112.357V122.222C140.254 123.031 140.91 123.687 141.719 123.687ZM143.184 113.822H149.33V120.757H143.184V113.822Z" fill="#006AFF"/>
<path d="M179.205 123.687H188.281C189.09 123.687 189.746 123.031 189.746 122.222V112.357C189.746 111.548 189.09 110.892 188.281 110.892H179.205C178.396 110.892 177.74 111.548 177.74 112.357V122.222C177.74 123.031 178.396 123.687 179.205 123.687ZM180.67 113.822H186.816V120.757H180.67V113.822Z" fill="#006AFF"/>
<path d="M208.687 62.6377C208.687 61.8287 208.031 61.1729 207.222 61.1729H200.909C200.099 61.1729 199.444 61.8287 199.444 62.6377V74.8701C199.444 75.6791 200.099 76.335 200.909 76.335H207.222C208.031 76.335 208.687 75.6791 208.687 74.8701V62.6377ZM205.757 73.4055H202.373V64.1027H205.757V73.4055Z" fill="#006AFF"/>
<path d="M208.687 81.1838C208.687 80.3749 208.031 79.719 207.222 79.719H200.909C200.099 79.719 199.444 80.3749 199.444 81.1838V93.4163C199.444 94.2252 200.099 94.8811 200.909 94.8811H207.222C208.031 94.8811 208.687 94.2252 208.687 93.4163V81.1838ZM205.757 91.9514H202.373V82.6487H205.757V91.9514Z" fill="#006AFF"/>
<path d="M207.222 108.524H200.909C200.099 108.524 199.444 109.18 199.444 109.989V122.222C199.444 123.031 200.099 123.687 200.909 123.687H207.222C208.031 123.687 208.687 123.031 208.687 122.222V109.989C208.687 109.18 208.031 108.524 207.222 108.524ZM205.757 120.757H202.373V111.454H205.757V120.757Z" fill="#006AFF"/>
<path d="M98.2266 50.25H90.9883C90.6216 50.25 90.3242 49.9527 90.3242 49.5859C90.3242 49.2192 90.6216 48.9219 90.9883 48.9219H98.2266C101.178 48.9219 103.672 46.489 103.672 43.6094C103.672 39.8799 99.8383 37.3986 96.4491 38.6013C96.2412 38.6751 96.0101 38.6407 95.8326 38.5096C95.655 38.3786 95.5542 38.1679 95.5635 37.9474C95.7394 33.7887 92.1013 30.3281 88 30.3281C83.8679 30.3281 80.2593 33.7652 80.4365 37.9474C80.4458 38.1678 80.345 38.3786 80.1674 38.5097C79.9899 38.6408 79.759 38.6751 79.5509 38.6013C76.1369 37.3896 72.3281 39.9029 72.3281 43.6094C72.3281 46.489 74.8218 48.9219 77.7734 48.9219H85.0117C85.3784 48.9219 85.6758 49.2192 85.6758 49.5859C85.6758 49.9527 85.3784 50.25 85.0117 50.25H77.7734C74.0884 50.25 71 47.2672 71 43.6094C71 39.3034 75.0813 36.2718 79.1199 37.1053C79.4192 32.5675 83.4299 29 88 29C92.5328 29 96.5741 32.5801 96.8793 37.1055C100.915 36.272 105 39.301 105 43.6094C105 47.2649 101.914 50.25 98.2266 50.25Z" fill="#006AFF"/>
</svg>
