<svg width="142" height="100" viewBox="0 0 142 100" fill="none" xmlns="http://www.w3.org/2000/svg">
<path d="M27.2266 62.25H19.9883C19.6216 62.25 19.3242 61.9527 19.3242 61.5859C19.3242 61.2192 19.6216 60.9219 19.9883 60.9219H27.2266C30.1782 60.9219 32.6719 58.489 32.6719 55.6094C32.6719 51.8799 28.8383 49.3986 25.4491 50.6013C25.2412 50.6751 25.0101 50.6407 24.8326 50.5096C24.655 50.3786 24.5542 50.1679 24.5635 49.9474C24.7394 45.7887 21.1013 42.3281 17 42.3281C12.8679 42.3281 9.25929 45.7652 9.43646 49.9474C9.44582 50.1678 9.34495 50.3786 9.16745 50.5097C8.98994 50.6408 8.75898 50.6751 8.55087 50.6013C5.13692 49.3896 1.32812 51.9029 1.32812 55.6094C1.32812 58.489 3.82181 60.9219 6.77344 60.9219H14.0117C14.3784 60.9219 14.6758 61.2192 14.6758 61.5859C14.6758 61.9527 14.3784 62.25 14.0117 62.25H6.77344C3.08836 62.25 0 59.2672 0 55.6094C0 51.3034 4.08126 48.2718 8.11989 49.1053C8.41918 44.5675 12.4299 41 17 41C21.5328 41 25.5741 44.5801 25.8793 49.1055C29.9154 48.272 34 51.301 34 55.6094C34 59.2649 30.9136 62.25 27.2266 62.25V62.25Z" fill="#006AFF"/>
<path d="M49.7782 46.3351H56.0917C56.9007 46.3351 57.5565 45.6793 57.5565 44.8703V32.6379C57.5565 31.8289 56.9007 31.173 56.0917 31.173H49.7782C48.9692 31.173 48.3134 31.8289 48.3134 32.6379V44.8703C48.3134 45.6793 48.9692 46.3351 49.7782 46.3351ZM51.243 34.1025H54.6268V43.4053H51.243V34.1025Z" fill="#006AFF"/>
<path d="M48.3134 63.4162C48.3134 64.2252 48.9692 64.881 49.7782 64.881H56.0917C56.9007 64.881 57.5565 64.2252 57.5565 63.4162V51.1838C57.5565 50.3748 56.9007 49.7189 56.0917 49.7189H49.7782C48.9692 49.7189 48.3134 50.3748 48.3134 51.1838V63.4162ZM51.243 52.6486H54.6268V61.9514H51.243V52.6486Z" fill="#006AFF"/>
<path d="M48.3134 92.2217C48.3134 93.0307 48.9692 93.6865 49.7782 93.6865H56.0917C56.9007 93.6865 57.5565 93.0307 57.5565 92.2217V79.9893C57.5565 79.1803 56.9007 78.5244 56.0917 78.5244H49.7782C48.9692 78.5244 48.3134 79.1803 48.3134 79.9893V92.2217ZM51.243 81.4541H54.6268V90.7568H51.243V81.4541Z" fill="#006AFF"/>
<path d="M140.535 31.0547C141.344 31.0547 142 30.3988 142 29.5898V21.5893C142 20.7803 141.344 20.1244 140.535 20.1244H123.059V9.24316H123.568C124.377 9.24316 125.032 8.5873 125.032 7.77832V1.46484C125.032 0.655859 124.377 0 123.568 0H60.4324C59.6234 0 58.9676 0.655859 58.9676 1.46484V7.77832C58.9676 8.5873 59.6234 9.24316 60.4324 9.24316H60.9414V20.1242H43.4648C42.6559 20.1242 42 20.7801 42 21.5891V29.5898C42 30.3988 42.6559 31.0547 43.4648 31.0547C44.2738 31.0547 44.9297 30.3988 44.9297 29.5898V23.0541H60.9414V68.2648H60.4324C59.6234 68.2648 58.9676 68.9207 58.9676 69.7297V76.0432C58.9676 76.8521 59.6234 77.508 60.4324 77.508H60.9414V97.0703H44.9297V36.4367C44.9297 35.6277 44.2738 34.9719 43.4648 34.9719C42.6559 34.9719 42 35.6277 42 36.4367V98.5352C42 99.3441 42.6559 100 43.4648 100H140.535C141.344 100 142 99.3441 142 98.5352V36.4367C142 35.6277 141.344 34.9719 140.535 34.9719C139.726 34.9719 139.07 35.6277 139.07 36.4367V97.0703H123.059V77.508H123.568C124.377 77.508 125.032 76.8521 125.032 76.0432V69.7297C125.032 68.9207 124.377 68.2648 123.568 68.2648H123.059V23.0541H139.07V29.5898C139.07 30.3988 139.726 31.0547 140.535 31.0547V31.0547ZM122.103 71.1945V74.5783H61.8973V71.1945H122.103ZM90.5352 97.0703H85.5729V83.8217H90.5352V97.0703ZM93.4648 97.0703V83.8217H98.427V97.0703H93.4648ZM120.129 97.0703H101.357V82.3568C101.357 81.5478 100.701 80.892 99.892 80.892H84.1082C83.2992 80.892 82.6434 81.5478 82.6434 82.3568V97.0703H63.8711V77.508H120.129V97.0703ZM63.8711 68.2648V9.24316H109.016C109.825 9.24316 110.481 8.5873 110.481 7.77832C110.481 6.96934 109.825 6.31348 109.016 6.31348H61.8973V2.92969H122.103V6.31348H115.863C115.054 6.31348 114.398 6.96934 114.398 7.77832C114.398 8.5873 115.054 9.24316 115.863 9.24316H120.129V68.2648H63.8711Z" fill="#006AFF"/>
<path d="M75.0326 12.627H68.7191C67.9101 12.627 67.2543 13.2828 67.2543 14.0918V26.3242C67.2543 27.1332 67.9101 27.7891 68.7191 27.7891H75.0326C75.8416 27.7891 76.4974 27.1332 76.4974 26.3242V14.0918C76.4974 13.2828 75.8416 12.627 75.0326 12.627V12.627ZM73.5678 24.8594H70.184V15.5566H73.5678V24.8594Z" fill="#006AFF"/>
<path d="M88.4485 12.627H82.135C81.326 12.627 80.6702 13.2828 80.6702 14.0918V26.3242C80.6702 27.1332 81.326 27.7891 82.135 27.7891H88.4485C89.2575 27.7891 89.9133 27.1332 89.9133 26.3242V14.0918C89.9133 13.2828 89.2575 12.627 88.4485 12.627ZM86.9836 24.8594H83.5999V15.5566H86.9836V24.8594Z" fill="#006AFF"/>
<path d="M101.865 12.627H95.5516C94.7425 12.627 94.0868 13.2828 94.0868 14.0918V26.3242C94.0868 27.1332 94.7425 27.7891 95.5516 27.7891H101.865C102.674 27.7891 103.33 27.1332 103.33 26.3242V14.0918C103.33 13.2828 102.674 12.627 101.865 12.627ZM100.4 24.8594H97.0165V15.5566H100.4V24.8594Z" fill="#006AFF"/>
<path d="M115.281 12.627H108.968C108.158 12.627 107.503 13.2828 107.503 14.0918V26.3242C107.503 27.1332 108.158 27.7891 108.968 27.7891H115.281C116.09 27.7891 116.746 27.1332 116.746 26.3242V14.0918C116.746 13.2828 116.09 12.627 115.281 12.627ZM113.816 24.8594H110.432V15.5566H113.816V24.8594Z" fill="#006AFF"/>
<path d="M75.0326 31.1729H68.7191C67.9101 31.1729 67.2543 31.8287 67.2543 32.6377V44.8701C67.2543 45.6791 67.9101 46.335 68.7191 46.335H75.0326C75.8416 46.335 76.4974 45.6791 76.4974 44.8701V32.6377C76.4974 31.8287 75.8416 31.1729 75.0326 31.1729V31.1729ZM73.5678 43.4055H70.184V34.1027H73.5678V43.4055Z" fill="#006AFF"/>
<path d="M88.4485 31.1729H82.135C81.326 31.1729 80.6702 31.8287 80.6702 32.6377V44.8701C80.6702 45.6791 81.326 46.335 82.135 46.335H88.4485C89.2575 46.335 89.9133 45.6791 89.9133 44.8701V32.6377C89.9133 31.8287 89.2575 31.1729 88.4485 31.1729ZM86.9836 43.4055H83.5999V34.1027H86.9836V43.4055Z" fill="#006AFF"/>
<path d="M101.865 31.1729H95.5516C94.7425 31.1729 94.0868 31.8287 94.0868 32.6377V44.8701C94.0868 45.6791 94.7425 46.335 95.5516 46.335H101.865C102.674 46.335 103.33 45.6791 103.33 44.8701V32.6377C103.33 31.8287 102.674 31.1729 101.865 31.1729ZM100.4 43.4055H97.0165V34.1027H100.4V43.4055Z" fill="#006AFF"/>
<path d="M115.281 31.1729H108.968C108.158 31.1729 107.503 31.8287 107.503 32.6377V44.8701C107.503 45.6791 108.158 46.335 108.968 46.335H115.281C116.09 46.335 116.746 45.6791 116.746 44.8701V32.6377C116.746 31.8287 116.09 31.1729 115.281 31.1729ZM113.816 43.4055H110.432V34.1027H113.816V43.4055Z" fill="#006AFF"/>
<path d="M75.0326 49.7189H68.7191C67.9101 49.7189 67.2543 50.3748 67.2543 51.1838V63.4162C67.2543 64.2252 67.9101 64.881 68.7191 64.881H75.0326C75.8416 64.881 76.4974 64.2252 76.4974 63.4162V51.1838C76.4974 50.3748 75.8416 49.7189 75.0326 49.7189V49.7189ZM73.5678 61.9514H70.184V52.6486H73.5678V61.9514Z" fill="#006AFF"/>
<path d="M88.4485 49.7189H82.135C81.326 49.7189 80.6702 50.3748 80.6702 51.1838V63.4162C80.6702 64.2252 81.326 64.881 82.135 64.881H88.4485C89.2575 64.881 89.9133 64.2252 89.9133 63.4162V51.1838C89.9133 50.3748 89.2575 49.7189 88.4485 49.7189V49.7189ZM86.9836 61.9514H83.5999V52.6486H86.9836V61.9514Z" fill="#006AFF"/>
<path d="M101.865 49.7189H95.5516C94.7425 49.7189 94.0868 50.3748 94.0868 51.1838V63.4162C94.0868 64.2252 94.7425 64.881 95.5516 64.881H101.865C102.674 64.881 103.33 64.2252 103.33 63.4162V51.1838C103.33 50.3748 102.674 49.7189 101.865 49.7189V49.7189ZM100.4 61.9514H97.0165V52.6486H100.4V61.9514Z" fill="#006AFF"/>
<path d="M115.281 49.7189H108.968C108.158 49.7189 107.503 50.3748 107.503 51.1838V63.4162C107.503 64.2252 108.158 64.881 108.968 64.881H115.281C116.09 64.881 116.746 64.2252 116.746 63.4162V51.1838C116.746 50.3748 116.09 49.7189 115.281 49.7189V49.7189ZM113.816 61.9514H110.432V52.6486H113.816V61.9514Z" fill="#006AFF"/>
<path d="M68.7191 93.6865H77.7947C78.6037 93.6865 79.2595 93.0307 79.2595 92.2217V82.3568C79.2595 81.5479 78.6037 80.892 77.7947 80.892H68.7191C67.9101 80.892 67.2543 81.5479 67.2543 82.3568V92.2217C67.2543 93.0307 67.9101 93.6865 68.7191 93.6865ZM70.184 83.8217H76.3299V90.7568H70.184V83.8217Z" fill="#006AFF"/>
<path d="M106.205 93.6865H115.281C116.09 93.6865 116.746 93.0307 116.746 92.2217V82.3568C116.746 81.5479 116.09 80.892 115.281 80.892H106.205C105.396 80.892 104.74 81.5479 104.74 82.3568V92.2217C104.74 93.0307 105.396 93.6865 106.205 93.6865ZM107.67 83.8217H113.816V90.7568H107.67V83.8217Z" fill="#006AFF"/>
<path d="M135.687 32.6377C135.687 31.8287 135.031 31.1729 134.222 31.1729H127.909C127.099 31.1729 126.444 31.8287 126.444 32.6377V44.8701C126.444 45.6791 127.099 46.335 127.909 46.335H134.222C135.031 46.335 135.687 45.6791 135.687 44.8701V32.6377ZM132.757 43.4055H129.373V34.1027H132.757V43.4055Z" fill="#006AFF"/>
<path d="M135.687 51.1838C135.687 50.3748 135.031 49.7189 134.222 49.7189H127.909C127.099 49.7189 126.444 50.3748 126.444 51.1838V63.4162C126.444 64.2252 127.099 64.881 127.909 64.881H134.222C135.031 64.881 135.687 64.2252 135.687 63.4162V51.1838ZM132.757 61.9514H129.373V52.6486H132.757V61.9514Z" fill="#006AFF"/>
<path d="M134.222 78.5244H127.909C127.099 78.5244 126.444 79.1803 126.444 79.9893V92.2217C126.444 93.0307 127.099 93.6865 127.909 93.6865H134.222C135.031 93.6865 135.687 93.0307 135.687 92.2217V79.9893C135.687 79.1803 135.031 78.5244 134.222 78.5244ZM132.757 90.7568H129.373V81.4541H132.757V90.7568Z" fill="#006AFF"/>
</svg>
