<svg width="790" height="639" viewBox="0 0 790 639" fill="none" xmlns="http://www.w3.org/2000/svg">
<path d="M856 561.554H0V561.982H856V561.554Z" fill="#EBEBEB"/>
<path d="M540.427 573.232H496.84V573.661H540.427V573.232Z" fill="#EBEBEB"/>
<path d="M779.714 582.51H676.429V582.939H779.714V582.51Z" fill="#EBEBEB"/>
<path d="M487.561 573.438H380.852V573.867H487.561V573.438Z" fill="#EBEBEB"/>
<path d="M311.653 586.266H289.328V586.695H311.653V586.266Z" fill="#EBEBEB"/>
<path d="M435.002 586.266H333.344V586.695H435.002V586.266Z" fill="#EBEBEB"/>
<path d="M155.638 579.029H89.8115V579.458H155.638V579.029Z" fill="#EBEBEB"/>
<path d="M405.761 485.068H75.1906C69.7978 485.068 65.415 480.678 65.415 475.276V9.79225C65.415 4.39022 69.7978 0 75.1906 0H405.778C411.171 0 415.553 4.39022 415.553 9.79225V475.276C415.536 480.678 411.153 485.068 405.761 485.068ZM75.1906 0.428732C70.0374 0.428732 65.843 4.63031 65.843 9.79225V475.276C65.843 480.438 70.0374 484.639 75.1906 484.639H405.778C410.931 484.639 415.125 480.438 415.125 475.276V9.79225C415.125 4.63031 410.931 0.428732 405.778 0.428732H75.1906Z" fill="#EBEBEB"/>
<path d="M776.067 485.068H445.48C440.087 485.068 435.704 480.678 435.704 475.276V9.79225C435.704 4.39022 440.087 0 445.48 0H776.067C781.46 0 785.842 4.39022 785.842 9.79225V475.276C785.842 480.678 781.46 485.068 776.067 485.068ZM445.48 0.428732C440.326 0.428732 436.132 4.63031 436.132 9.79225V475.276C436.132 480.438 440.326 484.639 445.48 484.639H776.067C781.22 484.639 785.414 480.438 785.414 475.276V9.79225C785.414 4.63031 781.22 0.428732 776.067 0.428732H445.48Z" fill="#EBEBEB"/>
<path d="M335.483 412.801H221.807L214.907 333.057H328.584L335.483 412.801Z" fill="#E6E6E6"/>
<path d="M341.373 412.801H227.696L220.797 333.057H334.474L341.373 412.801Z" fill="#F0F0F0"/>
<path d="M243.241 395.686L239.44 350.189H318.929L322.729 395.686H243.241Z" fill="white"/>
<path d="M361.043 412.801H347.707V561.537H361.043V412.801Z" fill="#E6E6E6"/>
<path d="M365.255 412.801H355.993V561.537H365.255V412.801Z" fill="#F0F0F0"/>
<path d="M236.149 429.231H365.251V412.82H236.149V429.231Z" fill="#F0F0F0"/>
<path d="M240.708 429.23H227.371V561.554H240.708V429.23Z" fill="#E6E6E6"/>
<path d="M244.919 429.23H235.657V561.554H244.919V429.23Z" fill="#F0F0F0"/>
<path d="M145.777 429.23H132.44V561.554H145.777V429.23Z" fill="#E6E6E6"/>
<path d="M149.988 429.23H140.727V561.554H149.988V429.23Z" fill="#F0F0F0"/>
<path d="M276.642 429.23H263.306V561.554H276.642V429.23Z" fill="#E6E6E6"/>
<path d="M280.836 429.23H271.574V561.554H280.836V429.23Z" fill="#F0F0F0"/>
<path d="M236.153 412.801H132.44V429.213H236.153V412.801Z" fill="#E6E6E6"/>
<path d="M622.894 41.9471H221.721V265.677H622.894V41.9471Z" fill="#E0E0E0"/>
<path d="M644.926 41.9471H223.74V265.677H644.926V41.9471Z" fill="#F5F5F5"/>
<path d="M638.041 258.783V48.8408L230.619 48.8408L230.619 258.783L638.041 258.783Z" fill="white"/>
<path d="M395.591 258.783L472.511 48.8412H345.567L268.646 258.783H395.591Z" fill="#F5F5F5"/>
<path d="M517.777 258.783L594.697 48.8412H498.928L422.008 258.783H517.777Z" fill="#F5F5F5"/>
<path d="M750.044 347.874H715.941V561.554H750.044V347.874Z" fill="#E6E6E6"/>
<path d="M741.073 561.554H750.044V545.091H731.674L741.073 561.554Z" fill="#FAFAFA"/>
<path d="M435.635 347.874H401.532V561.554H435.635V347.874Z" fill="#E6E6E6"/>
<path d="M750.044 347.874H427.794V557.112H750.044V347.874Z" fill="#FAFAFA"/>
<path d="M743.949 415.39H433.906V356.294H743.949V415.39ZM435.618 413.675H742.237V358.009H435.618V413.675Z" fill="#E6E6E6"/>
<path d="M689.371 384.985H494.494C485.437 384.985 476.723 377.679 470.594 364.92L469.995 363.685H713.835L713.236 364.92C707.124 377.662 698.41 384.985 689.371 384.985ZM472.751 365.4C478.538 376.77 486.413 383.27 494.494 383.27H689.354C697.434 383.27 705.309 376.787 711.113 365.4H472.751Z" fill="#E6E6E6"/>
<path d="M436.765 561.554H427.794V545.091H446.164L436.765 561.554Z" fill="#FAFAFA"/>
<path d="M743.949 482.033H433.906V422.936H743.949V482.033ZM435.618 480.318H742.237V424.651H435.618V480.318Z" fill="#E6E6E6"/>
<path d="M689.371 451.627H494.494C485.437 451.627 476.723 444.321 470.594 431.562L469.995 430.327H713.835L713.236 431.562C707.124 444.321 698.41 451.627 689.371 451.627ZM472.751 432.059C478.538 443.429 486.413 449.912 494.494 449.912H689.354C697.434 449.912 705.309 443.429 711.113 432.059H472.751Z" fill="#E6E6E6"/>
<path d="M743.949 548.692H433.906V489.595H743.949V548.692ZM435.618 546.977H742.237V491.31H435.618V546.977Z" fill="#E6E6E6"/>
<path d="M689.371 518.286H494.494C485.437 518.286 476.723 510.98 470.594 498.221L469.995 496.987H713.835L713.236 498.221C707.124 510.98 698.41 518.286 689.371 518.286ZM472.751 498.719C478.538 510.089 486.413 516.588 494.494 516.588H689.354C697.434 516.588 705.309 510.106 711.113 498.719H472.751Z" fill="#E6E6E6"/>
<path d="M207.118 376.135V380.286H204.464L202.29 412.801H170.036L167.862 380.286H165.208V376.135H207.118Z" fill="#E6E6E6"/>
<path d="M196.503 295.414C193.849 276.035 167.759 270.513 134.631 269.793C103.113 269.124 93.0127 257.943 93.0127 257.943C93.0127 257.943 93.1154 303.182 138.535 319.56C181.66 335.114 199.157 314.827 196.503 295.414Z" fill="#E6E6E6"/>
<path d="M180.41 339.333C180.958 331.359 193.661 316.713 224.22 323.384C246.305 328.203 254.523 316.73 254.523 316.73C254.523 316.73 252.486 349.108 219.256 358.849C187.703 368.075 179.434 353.344 180.41 339.333Z" fill="#E6E6E6"/>
<path d="M187.379 388.346C187.721 388.346 188.046 388.208 188.286 387.934C190.494 385.31 188.697 379.034 186.18 370.339C182.962 359.192 178.956 345.301 182.345 335.234C184.263 329.541 186.625 324.533 188.919 319.68C193.713 309.527 197.856 300.747 194.398 291.589C194.175 290.972 193.49 290.68 192.874 290.903C192.258 291.126 191.967 291.812 192.189 292.43C195.288 300.661 191.539 308.601 186.779 318.685C184.571 323.367 182.054 328.683 180.103 334.497C176.473 345.284 180.599 359.552 183.903 371.025C185.855 377.782 187.875 384.779 186.471 386.442C186.043 386.939 186.112 387.677 186.608 388.106C186.848 388.26 187.105 388.346 187.379 388.346Z" fill="#E6E6E6"/>
<path d="M428 639C611.325 639 759.94 630.309 759.94 619.587C759.94 608.866 611.325 600.174 428 600.174C244.675 600.174 96.0605 608.866 96.0605 619.587C96.0605 630.309 244.675 639 428 639Z" fill="#F5F5F5"/>
<path d="M427.932 524.94H184.828L171.525 133.302H414.629L427.932 524.94Z" fill="#407BFF"/>
<path d="M440.07 512.781H196.966L183.646 121.143H426.75L440.07 512.781Z" fill="#407BFF"/>
<path opacity="0.3" d="M440.07 512.781H196.966L183.646 121.143H426.75L440.07 512.781Z" fill="white"/>
<path d="M358.63 282.327C384.662 255.804 383.557 212.432 356.163 185.452C328.768 158.473 285.457 158.102 259.425 184.625C233.393 211.148 234.498 254.52 261.892 281.5C289.287 308.48 332.598 308.85 358.63 282.327Z" fill="#407BFF"/>
<path d="M365.46 233.471C365.785 243.229 363.628 252.403 359.554 260.395C350.634 278.007 332.402 289.995 310.95 289.995C289.499 289.995 270.444 278.007 260.326 260.395C255.704 252.403 252.93 243.229 252.588 233.471C251.527 202.242 275.923 176.929 307.098 176.929C338.274 176.929 364.399 202.242 365.46 233.471Z" fill="white"/>
<path opacity="0.6" d="M359.554 260.395C350.634 278.007 332.401 289.995 310.95 289.995C289.499 289.995 270.444 278.007 260.326 260.395C274.21 250.894 291.074 245.338 309.426 245.338C327.779 245.338 345.019 250.877 359.554 260.395Z" fill="#407BFF"/>
<path opacity="0.6" d="M326.616 232.085C336.188 222.332 335.782 206.384 325.709 196.463C315.636 186.543 299.71 186.406 290.138 196.159C280.566 205.912 280.972 221.86 291.045 231.781C301.118 241.702 317.044 241.838 326.616 232.085Z" fill="#407BFF"/>
<path d="M391.226 370.957H236.153L235.108 340.088H390.181L391.226 370.957Z" fill="white"/>
<path d="M393.11 426.126H238.02L236.976 395.257H392.066L393.11 426.126Z" fill="white"/>
<path d="M333.258 399.51L295.885 404.603C294.344 404.809 293.334 406.215 293.625 407.707L298.539 432.797C298.83 434.289 300.319 435.352 301.86 435.129L339.233 430.036C340.774 429.83 341.784 428.441 341.493 426.932L336.579 401.842C336.288 400.35 334.782 399.287 333.258 399.51ZM322.524 424.908L315.761 425.834L315.076 417.74C313.638 417.105 312.594 415.819 312.303 414.31C311.824 411.857 313.484 409.577 315.984 409.251C318.483 408.908 320.914 410.623 321.394 413.075C321.685 414.584 321.188 416.076 320.058 417.054L322.524 424.908Z" fill="#407BFF"/>
<path d="M329.56 398.155C328.19 398.344 326.872 397.418 326.615 396.08L326.136 393.628C324.818 386.871 318.363 381.761 311.378 382.378C303.914 383.03 298.915 389.632 300.302 396.766L300.85 399.579C301.106 400.916 300.216 402.151 298.847 402.323C297.477 402.511 296.159 401.585 295.902 400.248L295.44 397.847C293.591 388.432 299.514 379.377 309.084 377.696C319.151 375.947 329.081 382.738 330.998 392.548L331.546 395.36C331.82 396.732 330.929 397.967 329.56 398.155Z" fill="#407BFF"/>
<path d="M367.515 469.359H266.559L265.874 449.26H366.831L367.515 469.359Z" fill="#407BFF"/>
<path d="M318.809 355.522C318.912 358.643 316.481 361.164 313.365 361.164C310.249 361.164 307.647 358.643 307.544 355.522C307.441 352.401 309.872 349.88 312.988 349.88C316.104 349.88 318.706 352.401 318.809 355.522Z" fill="#263238"/>
<path d="M294.533 355.522C294.635 358.643 292.204 361.164 289.089 361.164C285.973 361.164 283.371 358.643 283.268 355.522C283.165 352.401 285.596 349.88 288.712 349.88C291.828 349.88 294.43 352.401 294.533 355.522Z" fill="#263238"/>
<path d="M270.274 355.522C270.377 358.643 267.946 361.164 264.83 361.164C261.714 361.164 259.112 358.643 259.009 355.522C258.906 352.401 261.337 349.88 264.453 349.88C267.569 349.88 270.171 352.401 270.274 355.522Z" fill="#263238"/>
<path d="M343.068 355.522C343.171 358.643 340.74 361.164 337.624 361.164C334.508 361.164 331.906 358.643 331.803 355.522C331.7 352.401 334.131 349.88 337.247 349.88C340.363 349.88 342.965 352.401 343.068 355.522Z" fill="#263238"/>
<path d="M367.327 355.522C367.429 358.643 364.998 361.164 361.883 361.164C358.767 361.164 356.164 358.643 356.062 355.522C355.959 352.401 358.39 349.88 361.506 349.88C364.622 349.88 367.224 352.401 367.327 355.522Z" fill="#263238"/>
<path d="M571.654 204.643C573.931 208.295 575.832 211.811 577.783 215.464C579.735 219.082 581.498 222.787 583.228 226.542C586.634 234.054 589.682 241.805 591.959 250.088C592.267 251.1 592.49 252.18 592.746 253.244L593.123 254.839L593.311 255.627L593.534 256.931C594.03 260.412 593.585 263.259 593.003 265.763C591.77 270.753 589.802 274.749 587.679 278.556C583.347 286.085 578.297 292.498 572.459 298.569L565.252 293.099C568.813 286.342 572.322 279.259 574.907 272.451C576.157 269.072 577.218 265.625 577.527 262.796C577.681 261.407 577.578 260.206 577.39 259.76L576.705 257.668C576.431 256.811 576.174 255.953 575.832 255.079C573.366 248.15 570.233 241.205 566.809 234.362C563.437 227.537 559.705 220.591 556.041 214.092L571.654 204.643Z" fill="#FF8B7B"/>
<path d="M567.084 290.629L559.226 294.814L568.265 305.412C568.265 305.412 573.915 301.588 574.154 295.757L567.084 290.629Z" fill="#FF8B7B"/>
<path d="M548.646 301.348L558.318 309.048L568.248 305.412L559.209 294.814L548.646 301.348Z" fill="#FF8B7B"/>
<path d="M515.569 148.53C515.381 149.49 514.713 150.159 514.097 150.022C513.481 149.902 513.121 149.027 513.327 148.067C513.515 147.107 514.183 146.438 514.799 146.575C515.415 146.712 515.758 147.587 515.569 148.53Z" fill="#263238"/>
<path d="M514.799 150.176C514.799 150.176 511.512 155.235 508.602 157.413C509.971 159.334 512.967 159.197 512.967 159.197L514.799 150.176Z" fill="#FF5652"/>
<path d="M511.717 183.823L511.785 172.591L526.645 174.391C526.645 174.391 526.389 184.063 518.085 186.893L511.717 183.823Z" fill="#FF8B7B"/>
<path d="M515.997 164.479L526.457 167.497L526.645 174.374L511.785 172.573L515.997 164.479Z" fill="#FF8B7B"/>
<path opacity="0.2" d="M526.458 167.497L515.997 164.479L513.96 168.389C514.217 175.026 518.257 180.479 523.616 182.932C526.526 179.107 526.646 174.374 526.646 174.374L526.458 167.497Z" fill="black"/>
<path d="M520.123 143.951C520.26 143.951 520.397 143.9 520.517 143.797C520.757 143.591 520.757 143.214 520.551 142.991C518.411 140.676 515.809 141.087 515.706 141.105C515.398 141.156 515.193 141.448 515.244 141.756C515.296 142.065 515.604 142.271 515.895 142.219C515.98 142.202 518.018 141.911 519.73 143.763C519.832 143.883 519.969 143.951 520.123 143.951Z" fill="#263238"/>
<path d="M542.002 165.885C540.273 174.717 539.229 186.945 545.392 192.827C545.392 192.827 542.978 201.779 526.611 201.779C508.618 201.779 517.949 193.924 517.949 193.924C525.43 191.592 525.362 183.069 523.65 176.209L542.002 165.885Z" fill="#FF8B7B"/>
<path d="M548.765 198.726C550.374 196.445 550.305 189.26 548.593 188.008C545.837 185.967 534.007 185.487 518.085 189.157C519.797 196.119 516.134 199.755 516.134 199.755L548.765 198.726Z" fill="#407BFF"/>
<path d="M602.282 605.85C601.066 606.108 599.868 606.176 599.286 605.679C599.046 605.473 598.789 605.079 599.012 604.359C599.132 603.981 599.371 603.69 599.748 603.518C601.375 602.747 605.107 604.273 605.278 604.324C605.381 604.359 605.449 604.461 605.449 604.581C605.449 604.702 605.398 604.804 605.295 604.839C604.696 605.13 603.48 605.593 602.282 605.85ZM600.313 603.93C600.193 603.964 600.073 603.998 599.971 604.033C599.748 604.136 599.611 604.307 599.543 604.513C599.389 605.027 599.577 605.182 599.645 605.25C600.296 605.799 602.693 605.302 604.388 604.616C603.241 604.221 601.392 603.707 600.313 603.93Z" fill="#407BFF"/>
<path d="M605.209 604.89C605.158 604.907 605.123 604.89 605.072 604.89C603.702 604.496 600.792 602.421 600.758 601.049C600.758 600.809 600.843 600.345 601.494 600.123C601.922 599.968 602.333 600.002 602.761 600.225C604.37 601.049 605.38 604.393 605.432 604.53C605.466 604.633 605.432 604.736 605.363 604.821C605.312 604.839 605.26 604.873 605.209 604.89ZM601.802 600.62C601.768 600.637 601.717 600.637 601.682 600.654C601.323 600.774 601.34 600.946 601.34 601.031C601.357 601.837 603.274 603.467 604.695 604.118C604.336 603.158 603.531 601.254 602.504 600.723C602.247 600.603 602.025 600.568 601.802 600.62Z" fill="#407BFF"/>
<path d="M513.361 607.874C511.82 607.874 510.331 607.668 509.817 606.965C509.646 606.725 509.509 606.313 509.834 605.713C510.022 605.387 510.331 605.164 510.741 605.044C512.744 604.496 516.956 606.896 517.127 606.999C517.23 607.051 517.281 607.171 517.264 607.291C517.247 607.411 517.161 607.497 517.042 607.531C516.288 607.702 514.816 607.874 513.361 607.874ZM511.46 605.542C511.255 605.542 511.067 605.559 510.913 605.61C510.656 605.679 510.468 605.816 510.348 606.005C510.142 606.365 510.228 606.536 510.296 606.639C510.861 607.411 513.909 607.445 516.134 607.119C515.021 606.553 512.864 605.542 511.46 605.542Z" fill="#407BFF"/>
<path d="M517.006 607.548C516.972 607.548 516.921 607.548 516.887 607.531C515.431 606.879 512.555 604.273 512.778 602.901C512.829 602.575 513.052 602.181 513.839 602.095C514.421 602.043 514.952 602.198 515.414 602.592C516.938 603.844 517.263 607.102 517.28 607.24C517.298 607.342 517.246 607.445 517.161 607.497C517.126 607.531 517.058 607.548 517.006 607.548ZM514.062 602.661C514.01 602.661 513.942 602.661 513.891 602.678C513.377 602.729 513.343 602.935 513.343 603.004C513.206 603.827 515.175 605.868 516.647 606.759C516.493 605.816 516.065 603.861 515.055 603.038C514.747 602.781 514.421 602.661 514.062 602.661Z" fill="#407BFF"/>
<path d="M530.241 607.257H518.205L517.007 579.321H529.042L530.241 607.257Z" fill="#FF8B7B"/>
<path d="M618.631 601.683L606.853 604.238L595.04 578.206L606.819 575.668L618.631 601.683Z" fill="#FF8B7B"/>
<path d="M605.723 603.055L618.94 600.191C619.419 600.088 619.916 600.328 620.121 600.774L624.709 610.755C625.189 611.784 624.555 613.002 623.442 613.225C618.803 614.151 616.509 614.356 610.688 615.626C607.11 616.397 599.029 618.369 594.099 619.45C589.271 620.496 587.456 615.763 589.391 614.888C598.036 610.927 601.632 607.445 603.977 604.204C604.405 603.604 605.021 603.192 605.723 603.055Z" fill="#263238"/>
<path d="M518.291 605.868H531.439C531.935 605.868 532.363 606.211 532.466 606.691L534.846 617.409C535.085 618.524 534.247 619.57 533.117 619.553C528.374 619.467 521.526 619.193 515.552 619.193C508.584 619.193 502.557 619.57 494.391 619.57C489.444 619.57 488.074 614.562 490.145 614.117C499.561 612.059 507.265 611.836 515.397 606.811C516.271 606.262 517.246 605.868 518.291 605.868Z" fill="#263238"/>
<path d="M566.963 195.553C578.245 198.143 587.558 227.005 587.558 227.005L564.891 244.309C564.891 244.309 556.571 236.454 552.873 222.015C548.987 206.889 555.424 192.895 566.963 195.553Z" fill="#407BFF"/>
<path opacity="0.4" d="M566.963 195.553C578.245 198.143 587.558 227.005 587.558 227.005L564.891 244.309C564.891 244.309 556.571 236.454 552.873 222.015C548.987 206.889 555.424 192.895 566.963 195.553Z" fill="black"/>
<path d="M507.608 229.989C504.783 233.042 501.976 235.734 499.082 238.53C497.644 239.919 496.155 241.274 494.648 242.611L492.371 244.6L491.806 245.098C491.532 245.338 491.19 245.612 490.831 245.904C490.077 246.47 489.256 247.104 487.526 247.859C486.619 248.219 485.438 248.682 483.366 248.716C482.39 248.733 481.055 248.562 479.771 248.082C478.47 247.602 477.203 246.761 476.347 245.904C474.549 244.103 474.019 242.525 473.659 241.462C473.334 240.365 473.231 239.593 473.163 238.907C473.06 237.569 473.128 236.678 473.197 235.837C473.283 235.014 473.385 234.294 473.522 233.625C474.019 230.984 474.738 228.84 475.508 226.714C476.296 224.604 477.152 222.564 478.162 220.523C479.24 218.345 480.302 216.75 481.346 214.932C485.575 207.85 490.54 201.384 495.812 195.279C501.205 189.225 506.855 183.686 513.361 178.61L519.661 185.11C515.227 191.043 510.878 197.406 506.855 203.665C502.832 209.976 499.117 216.407 495.898 222.958C495.162 224.57 494.255 226.336 493.741 227.691C493.142 229.166 492.594 230.761 492.132 232.322C491.687 233.865 491.327 235.477 491.156 236.66C491.122 236.952 491.104 237.192 491.104 237.346C491.104 237.484 491.139 237.552 491.122 237.192C491.104 236.986 491.087 236.695 490.899 236.077C490.694 235.477 490.368 234.345 488.93 232.888C488.228 232.202 487.184 231.481 486.105 231.104C485.061 230.692 483.965 230.572 483.229 230.572C481.637 230.607 480.935 230.932 480.473 231.104C479.634 231.464 479.617 231.567 479.617 231.533L480.268 230.932L482.322 229.046L486.414 225.205C489.119 222.649 491.841 219.923 494.426 217.385L507.608 229.989Z" fill="#FF8B7B"/>
<path opacity="0.2" d="M557.291 216.784C563.42 222.855 565.423 233.934 565.902 243.554L564.909 244.326C564.909 244.326 556.589 236.455 552.874 222.032C552.652 221.123 552.446 220.231 552.292 219.34L557.291 216.784Z" fill="black"/>
<path d="M495.641 207.644C493.176 220.677 491.635 247.43 498.791 300.439H563.196C563.642 290.526 557.427 242.217 566.963 195.554C566.963 195.554 555.92 193.341 545.409 192.827C537.174 192.432 525.258 192.158 518.034 192.827C515.021 193.101 512.042 193.547 509.405 194.01C502.42 195.245 496.959 200.681 495.641 207.644Z" fill="#407BFF"/>
<path opacity="0.4" d="M495.641 207.644C493.176 220.677 491.635 247.43 498.791 300.439H563.196C563.642 290.526 557.427 242.217 566.963 195.554C566.963 195.554 555.92 193.341 545.409 192.827C537.174 192.432 525.258 192.158 518.034 192.827C515.021 193.101 512.042 193.547 509.405 194.01C502.42 195.245 496.959 200.681 495.641 207.644Z" fill="black"/>
<path opacity="0.2" d="M505.503 226.902L493.861 224.107C493.502 231.172 493.467 239.919 493.998 250.74C499.34 244.635 506.188 235.117 505.503 226.902Z" fill="black"/>
<path opacity="0.2" d="M517.007 579.338L517.623 593.743H529.676L529.059 579.338H517.007Z" fill="black"/>
<path opacity="0.2" d="M606.819 575.668L595.04 578.223L601.135 591.634L612.913 589.078L606.819 575.668Z" fill="black"/>
<path d="M547.72 152.972C544.622 164.53 543.406 171.459 536.284 176.261C525.567 183.498 512.23 175.197 511.802 162.936C511.426 151.909 516.545 134.845 528.94 132.513C541.146 130.232 550.819 141.413 547.72 152.972Z" fill="#FF8B7B"/>
<path d="M520.705 153.418C520.14 151.874 517.469 139.921 519.969 136.817C522.468 133.713 550.973 135.942 555.185 140.093C562.17 146.987 557.325 153.143 549.672 161.066C543.92 167.034 543.697 173.757 540.787 174.751C535.702 176.483 527.81 174.854 526.218 169.418C524.642 163.982 520.705 153.418 520.705 153.418Z" fill="#263238"/>
<path d="M551.726 126.51C541.66 122.206 522.759 126.973 512.573 124.504C512.213 129.803 515.398 138.275 525.601 140.556C525.601 140.556 540.085 143.385 551.281 142.922C562.478 142.476 560.286 130.163 551.726 126.51Z" fill="#263238"/>
<path d="M553.302 140.47C553.302 140.47 559.533 141.173 563.95 138.429C565.851 142.974 555.493 144.226 553.302 140.47Z" fill="#263238"/>
<path d="M526.184 153.898C525.995 157.036 524.54 159.969 522.794 161.907C520.175 164.805 517.435 163.004 516.956 159.471C516.545 156.299 517.401 150.965 520.603 149.37C523.787 147.776 526.406 150.314 526.184 153.898Z" fill="#FF8B7B"/>
<path d="M521.63 300.439C521.63 300.439 535.292 392.616 542.79 427.155C551.008 464.969 595.058 590.09 595.058 590.09L616.612 585.408C616.612 585.408 585.813 483.439 578.913 430.567C573.623 389.958 563.18 300.421 563.18 300.421H521.63V300.439Z" fill="#407BFF"/>
<path d="M589.904 582.887C589.818 582.905 593.927 590.69 593.927 590.69L618.186 585.426L616.149 578.12L589.904 582.887Z" fill="#263238"/>
<path opacity="0.3" d="M530.275 333.279C546.077 336.384 544.399 395.411 542.499 425.766C537.945 404.312 531.268 363.016 526.714 333.708C527.758 333.177 528.939 333.022 530.275 333.279Z" fill="black"/>
<path d="M498.774 300.439C498.774 300.439 497.113 390.627 498.431 427.412C499.801 465.672 513.138 590.948 513.138 590.948H533.545C533.545 590.948 534.298 467.902 535.205 430.327C536.198 389.358 541.129 300.439 541.129 300.439H498.774Z" fill="#407BFF"/>
<path d="M509.217 582.802C509.132 582.802 510.364 591.291 510.364 591.291H535.171L535.839 583.728L509.217 582.802Z" fill="#263238"/>
<path d="M520.876 211.605C526.646 227.194 492.731 245.561 492.731 245.561L478.042 226.645C478.042 226.645 487.835 207.112 499.87 198.314C514.713 187.425 516.476 199.738 520.876 211.605Z" fill="#407BFF"/>
<path opacity="0.4" d="M520.876 211.605C526.646 227.194 492.731 245.561 492.731 245.561L478.042 226.645C478.042 226.645 487.835 207.112 499.87 198.314C514.713 187.425 516.476 199.738 520.876 211.605Z" fill="black"/>
<path d="M653.761 93.2579C687.884 93.2579 715.547 75.5985 715.547 53.8145C715.547 32.0305 687.884 14.3711 653.761 14.3711C619.637 14.3711 591.975 32.0305 591.975 53.8145C591.975 75.5985 619.637 93.2579 653.761 93.2579Z" fill="#407BFF"/>
<path d="M631.471 73.6733C628.047 73.6733 624.691 72.6443 621.781 70.655C617.877 67.9969 615.292 63.9496 614.47 59.285C612.93 50.3503 618.853 41.4669 627.67 39.4433C634.929 37.797 642.308 40.901 646.194 47.1948L685.861 38.9974C689.079 38.3286 692.332 40.2493 693.137 43.2847C693.565 44.8968 693.308 46.5603 692.435 47.9665C691.562 49.3727 690.192 50.3331 688.566 50.6761L687.521 50.899C687.213 50.9676 686.956 51.1563 686.802 51.4307C686.648 51.7051 686.631 52.0309 686.734 52.3224L687.436 54.1403C687.915 55.375 687.47 56.7641 686.374 57.4329C685.536 57.9645 684.953 58.8735 684.834 59.851C684.697 61.0686 683.892 61.9946 682.779 62.2347L681.957 62.4062C680.845 62.6292 679.732 62.0975 679.133 61.0343C678.414 59.7995 676.993 59.165 675.589 59.4565C674.185 59.7481 673.123 60.8971 672.952 62.3205C672.815 63.5381 671.994 64.4641 670.881 64.7042L670.076 64.8757C668.98 65.0987 667.851 64.567 667.251 63.5038C666.755 62.6463 665.865 62.0289 664.872 61.8917C663.605 61.7031 662.646 60.6055 662.595 59.285L662.509 57.33C662.492 57.0213 662.355 56.7298 662.098 56.5412C661.859 56.3525 661.55 56.2668 661.225 56.3354L648.591 58.9421C647.512 66.1105 642.119 71.8555 634.98 73.3303C633.816 73.5532 632.635 73.6733 631.471 73.6733ZM628.047 41.1068C620.103 42.9075 614.779 50.9333 616.165 58.9764C616.884 63.1779 619.23 66.8307 622.739 69.2316C626.249 71.6325 630.495 72.49 634.655 71.6154C641.28 70.2434 646.228 64.8071 646.998 58.0846L647.067 57.4672L660.9 54.6033C661.704 54.4318 662.526 54.6376 663.177 55.1349C663.827 55.6322 664.204 56.3868 664.238 57.21L664.324 59.165C664.341 59.6623 664.7 60.0739 665.146 60.1425C666.669 60.3654 667.988 61.2572 668.758 62.5949C668.946 62.9207 669.306 63.2294 669.768 63.1436L670.573 62.9721C671.018 62.8864 671.24 62.4405 671.275 62.0632C671.531 59.9024 673.141 58.1703 675.263 57.7245C677.386 57.2786 679.543 58.2561 680.622 60.1254C680.81 60.4512 681.17 60.777 681.632 60.6741L682.454 60.5026C682.899 60.4169 683.122 59.971 683.156 59.6109C683.327 58.0846 684.183 56.7469 685.484 55.9238C685.861 55.6837 686.015 55.1521 685.844 54.7062L685.142 52.8884C684.851 52.1338 684.902 51.2763 685.296 50.556C685.69 49.8358 686.374 49.3384 687.162 49.167L688.206 48.944C689.37 48.7039 690.346 48.018 690.963 47.0233C691.579 46.0115 691.767 44.8282 691.459 43.6792C690.894 41.5184 688.531 40.1636 686.186 40.6438L645.321 49.0984L645.012 48.5667C641.606 42.5816 634.792 39.5805 628.047 41.1068ZM631.488 67.3281C629.365 67.3281 627.293 66.7107 625.479 65.5102C623.03 63.8982 621.353 61.4287 620.771 58.5476C620.171 55.6665 620.736 52.734 622.346 50.2817C623.955 47.8293 626.42 46.1658 629.296 45.5656C632.172 44.9654 635.1 45.5313 637.548 47.1433C639.996 48.7554 641.657 51.2249 642.256 54.106C642.855 56.987 642.29 59.9024 640.681 62.3548C639.072 64.8071 636.607 66.4877 633.73 67.0708C632.977 67.2595 632.224 67.3281 631.488 67.3281ZM631.539 47.0747C630.906 47.0747 630.272 47.1433 629.639 47.2634C627.225 47.7607 625.136 49.1841 623.784 51.242C622.431 53.3171 621.952 55.7866 622.448 58.2046C622.945 60.6227 624.366 62.7149 626.42 64.0697C628.492 65.4245 630.957 65.9047 633.371 65.4073C635.802 64.91 637.873 63.4866 639.226 61.4287C640.578 59.3536 641.058 56.8841 640.561 54.4661C640.065 52.0309 638.644 49.9558 636.589 48.5839C635.066 47.5892 633.32 47.0747 631.539 47.0747Z" fill="white"/>
<path opacity="0.6" d="M603.48 116.392C614.694 116.392 623.784 110.588 623.784 103.427C623.784 96.2671 614.694 90.4625 603.48 90.4625C592.266 90.4625 583.176 96.2671 583.176 103.427C583.176 110.588 592.266 116.392 603.48 116.392Z" fill="#407BFF"/>
<path opacity="0.3" d="M571.174 121.691C575.779 121.691 579.512 119.311 579.512 116.375C579.512 113.439 575.779 111.059 571.174 111.059C566.57 111.059 562.837 113.439 562.837 116.375C562.837 119.311 566.57 121.691 571.174 121.691Z" fill="#407BFF"/>
</svg>
