<svg width="20" height="20" viewBox="0 0 20 20" fill="none" xmlns="http://www.w3.org/2000/svg">
<path d="M4.6875 9.99999C4.6875 9.00911 4.96051 8.08088 5.4348 7.28609V3.91473H2.0634C0.725313 5.65252 0 7.77042 0 9.99999C0 12.2296 0.725313 14.3475 2.0634 16.0853H5.4348V12.7139C4.96051 11.9191 4.6875 10.9909 4.6875 9.99999Z" fill="#FBBD00"/>
<path d="M10 15.3125L7.65625 17.6563L10 20C12.2296 20 14.3475 19.2747 16.0854 17.9366V14.5688H12.7175C11.9158 15.0449 10.9836 15.3125 10 15.3125Z" fill="#0F9D58"/>
<path d="M5.43586 12.7141L2.06445 16.0854C2.32937 16.4295 2.61785 16.7589 2.93 17.0711C4.81875 18.9598 7.32996 20 10.0011 20V15.3126C8.06262 15.3126 6.36367 14.2688 5.43586 12.7141Z" fill="#31AA52"/>
<path d="M20 10C20 9.39162 19.9449 8.78209 19.8363 8.18843L19.7483 7.70801H10V12.3954H14.7442C14.2835 13.3119 13.5752 14.0596 12.7175 14.5688L16.0853 17.9365C16.4294 17.6716 16.7589 17.3831 17.0711 17.071C18.9598 15.1822 20 12.6711 20 10Z" fill="#3C79E6"/>
<path d="M13.7565 6.24338L14.1708 6.65767L17.4854 3.34319L17.0711 2.9289C15.1823 1.04018 12.6711 0 10 0L7.65625 2.34371L10 4.68743C11.419 4.68743 12.7531 5.24 13.7565 6.24338Z" fill="#CF2D48"/>
<path d="M9.99963 4.68743V0C7.32854 0 4.81732 1.04018 2.92854 2.92886C2.61639 3.24101 2.32791 3.57049 2.06299 3.91459L5.43439 7.28594C6.36225 5.73116 8.06119 4.68743 9.99963 4.68743Z" fill="#EB4132"/>
</svg>
