<svg width="296" height="170" viewBox="0 0 296 170" fill="none" xmlns="http://www.w3.org/2000/svg">
<g opacity="0.34">
<g opacity="0.34">
<g opacity="0.6">
<path opacity="0.6" d="M257.843 109.348C259.906 118.138 259.562 126.219 256.812 134.842C253.374 145.631 245.64 155.67 234.554 161.835C230.686 164.001 226.518 165.626 222.178 166.792C221.491 167.876 220.717 168.959 219.901 169.958H256.941C266.351 159.086 271.765 145.131 272.625 130.968C272.839 127.136 272.753 123.261 272.324 119.471C270.605 104.683 263.816 90.6028 253.675 79.3972C253.546 80.1887 253.417 80.9802 253.288 81.7716C252.128 91.186 255.695 100.309 257.843 109.348Z" fill="#53D0F7"/>
</g>
<g opacity="0.41">
<path opacity="0.41" d="M143.112 167.792C140.921 164.876 139.245 161.169 136.925 158.211C131.983 159.169 127.127 160.586 122.186 161.835C112.088 164.335 101.69 166.209 91.2909 166.334C79.7321 166.501 67.9155 164.335 57.8607 158.544C50.1691 154.129 43.4229 147.422 39.7705 139.424C40.8018 150.463 44.9268 161.252 51.8879 170H144.874C144.229 169.25 143.671 168.542 143.112 167.792Z" fill="#53D0F7"/>
</g>
<g opacity="0.41">
<path opacity="0.41" d="M157.767 16.0377C160.56 15.9544 163.611 15.7878 166.92 15.5378C182.303 14.4131 197.557 17.8289 212.338 22.4945C213.756 22.9527 215.174 23.4526 216.592 23.9524C210.233 17.1624 202.112 11.8721 193.174 8.8728C175.471 2.91593 154.029 5.29034 138.474 14.663C144.876 14.7047 151.322 15.1629 157.767 16.0377Z" fill="#53D0F7"/>
</g>
<g opacity="0.35">
<path opacity="0.35" d="M57.4763 158.67C67.5312 164.293 79.3048 166.459 90.8636 166.376C101.262 166.293 111.704 164.543 121.802 162.169C126.743 161.002 131.642 159.669 136.583 158.753C134.564 156.212 132.071 154.212 128.376 153.796C114.024 152.129 98.9419 157.878 84.676 158.836C75.0938 159.503 64.91 158.211 57.1326 152.671C52.1051 149.047 48.4527 143.881 45.9175 138.3C40.7182 126.719 40.5893 113.431 44.9722 101.559C47.9371 93.5605 55.156 87.437 57.6482 79.2723C59.7537 72.4407 57.3044 65.3174 57.9919 58.4441C58.1209 57.0278 58.4216 55.6531 58.8513 54.2784C61.3006 46.9469 73.1602 36.3662 80.422 32.8254C97.8247 24.3274 116.001 20.2035 134.564 19.7869C124.036 18.079 114.067 14.9964 96.4067 11.3723C75.4805 6.9567 51.8903 21.8697 39.5151 39.2405C38.2689 41.0317 37.1517 42.8646 36.2064 44.7808C31.9095 53.4037 30.7063 63.3595 32.6829 72.6906C35.0033 83.6462 42.2221 92.1025 39.644 103.766C38.0541 110.89 37.6674 117.471 36.8509 124.511C36.2064 130.01 37.2806 135.259 39.4721 140.049C43.0815 147.797 49.8277 154.337 57.4763 158.67Z" fill="#53D0F7"/>
</g>
<g opacity="0.47">
<path opacity="0.47" d="M166.919 15.5379C163.61 15.7879 160.602 15.9545 157.766 16.0378C167.306 17.3292 176.931 19.5786 186.513 22.6195L222.392 34.0751C239.279 39.4487 250.451 55.1116 249.377 72.3157C249.377 72.4407 249.377 72.524 249.334 72.6489C248.647 82.6048 245.252 92.3941 239.58 100.559C234.467 107.974 227.377 116.263 225.615 125.386C224.197 132.634 227.248 139.966 227.635 147.339C227.978 154.337 225.83 161.002 222.092 166.751C226.432 165.585 230.6 163.96 234.467 161.794C245.51 155.629 253.287 145.589 256.725 134.8C259.475 126.177 259.819 118.096 257.756 109.307C255.651 100.267 252.084 91.1444 253.202 81.7301C253.287 80.9386 253.416 80.1471 253.588 79.3556C254.662 73.607 257.026 68.0251 256.51 62.2348C256.123 57.8609 254.147 53.7369 251.698 50.0711C243.619 37.7825 230.643 29.1596 216.506 23.9525C215.088 23.4527 213.67 22.9528 212.252 22.4946C197.556 17.829 182.302 14.4132 166.919 15.5379Z" fill="#53D0F7"/>
</g>
<g opacity="0.7">
<path opacity="0.7" d="M58.7218 50.6959C58.2491 52.1122 57.9913 53.5702 57.8624 55.0282C57.2178 62.1515 59.6671 69.483 57.6046 76.5229C55.1123 84.9792 47.9364 91.2693 45.0145 99.559C40.6746 111.806 40.8894 125.511 46.1317 137.466C48.6669 143.215 52.3623 148.547 57.3897 152.254C65.1672 157.961 75.3509 159.211 84.9331 158.461C99.199 157.378 114.238 151.38 128.59 153.046C132.285 153.462 134.821 155.504 136.84 158.128C139.161 161.086 140.836 164.793 143.028 167.709C143.586 168.459 144.188 169.209 144.79 169.917H219.814C220.631 168.875 221.404 167.834 222.092 166.751C225.83 161.002 227.979 154.337 227.635 147.339C227.248 139.966 224.197 132.634 225.615 125.386C227.377 116.305 234.467 107.974 239.58 100.559C245.252 92.3524 248.647 82.6048 249.334 72.6489C249.334 72.5239 249.334 72.4406 249.377 72.3156C250.409 55.1115 239.237 39.4487 222.392 34.075L186.513 22.6195C176.888 19.5369 167.306 17.3291 157.766 16.0377C151.321 15.163 144.876 14.6631 138.473 14.6631C137.055 14.6631 135.68 14.6631 134.262 14.7047C115.742 15.2463 97.5662 19.5785 80.2065 28.4097C72.9447 32.1588 61.171 43.1561 58.7218 50.6959Z" fill="#53D0F7"/>
</g>
<g opacity="0.35">
<path opacity="0.35" d="M125.023 11.3306C128.25 11.3306 130.867 8.79412 130.867 5.66528C130.867 2.53643 128.25 0 125.023 0C121.795 0 119.179 2.53643 119.179 5.66528C119.179 8.79412 121.795 11.3306 125.023 11.3306Z" fill="#53D0F7"/>
</g>
<g opacity="0.35">
<path opacity="0.35" d="M282.809 85.729C290.094 85.729 296 80.0034 296 72.9405C296 65.8776 290.094 60.152 282.809 60.152C275.523 60.152 269.617 65.8776 269.617 72.9405C269.617 80.0034 275.523 85.729 282.809 85.729Z" fill="#53D0F7"/>
</g>
<g opacity="0.35">
<path opacity="0.35" d="M27.0059 107.27C32.61 102.756 33.3789 94.6936 28.7235 89.2608C24.068 83.828 15.751 83.0825 10.147 87.5957C4.54297 92.1089 3.774 100.172 8.42945 105.605C13.0849 111.037 21.4019 111.783 27.0059 107.27Z" fill="#53D0F7"/>
</g>
<g opacity="0.35">
<path opacity="0.35" d="M228.021 21.4531C230.228 21.4531 232.017 19.7186 232.017 17.579C232.017 15.4394 230.228 13.705 228.021 13.705C225.814 13.705 224.025 15.4394 224.025 17.579C224.025 19.7186 225.814 21.4531 228.021 21.4531Z" fill="#53D0F7"/>
</g>
</g>
</g>
<path d="M108.154 74.6553H100.643C100.262 74.6553 99.9538 74.3394 99.9538 73.9496C99.9538 73.5598 100.262 73.2439 100.643 73.2439H108.154C111.217 73.2439 113.804 70.6585 113.804 67.5983C113.804 63.6349 109.826 60.998 106.309 62.2761C106.094 62.3545 105.854 62.318 105.67 62.1787C105.486 62.0394 105.381 61.8156 105.391 61.5812C105.573 57.1617 101.798 53.4842 97.542 53.4842C93.2543 53.4842 89.5096 57.1368 89.6935 61.5812C89.7032 61.8155 89.5985 62.0395 89.4143 62.1788C89.2301 62.3181 88.9905 62.3546 88.7745 62.2762C85.2319 60.9885 81.2796 63.6594 81.2796 67.5983C81.2796 70.6585 83.8673 73.2439 86.9301 73.2439H94.4411C94.8217 73.2439 95.1302 73.5598 95.1302 73.9496C95.1302 74.3394 94.8217 74.6553 94.4411 74.6553H86.9301C83.1062 74.6553 79.9014 71.4854 79.9014 67.5983C79.9014 63.0223 84.1365 59.8005 88.3273 60.6864C88.6379 55.864 92.7997 52.0728 97.542 52.0728C102.246 52.0728 106.439 55.8773 106.756 60.6866C110.944 59.8008 115.183 63.0197 115.183 67.5983C115.183 71.483 111.98 74.6553 108.154 74.6553V74.6553Z" fill="#006AFF"/>
<path d="M128.155 155.555H179.002L180.212 153.887H180.612V153.885C180.612 153.885 180.612 153.885 180.612 153.885L180.612 60.1867C180.612 59.2844 179.908 58.5219 179.002 58.5219H170.926V50.0567C170.926 49.1544 170.222 48.3919 169.317 48.3919H137.841C136.933 48.3919 136.228 49.1536 136.228 50.0567V58.5219H128.155C127.25 58.5219 126.546 59.2844 126.546 60.1867V153.891C126.546 154.793 127.25 155.555 128.155 155.555ZM177.393 152.222H129.768V61.8516H137.845C138.75 61.8516 139.454 61.0891 139.454 60.1867V51.7215H167.711V60.1867C167.711 61.0891 168.415 61.8516 169.32 61.8516H177.393V152.222Z" fill="#006AFF" stroke="#006AFF" stroke-width="0.8"/>
<path d="M179.002 155.555H205.637L206.846 153.887H207.246V153.885V95.64C207.246 94.7377 206.543 93.9751 205.637 93.9751H179.002C178.097 93.9751 177.393 94.7377 177.393 95.64V153.89C177.393 154.793 178.097 155.555 179.002 155.555ZM204.028 97.3086V152.222H180.615V97.3086H204.028Z" fill="#006AFF" stroke="#006AFF" stroke-width="0.8"/>
<path d="M179.002 97.3084H195.951C196.86 97.3084 197.564 96.5466 197.564 95.6435V82.98C197.564 82.0762 196.855 81.3152 195.951 81.3152H179.002C178.097 81.3152 177.393 82.0777 177.393 82.98V95.6435C177.393 96.5458 178.097 97.3084 179.002 97.3084ZM194.342 84.6449V93.9749H180.615V84.6449H194.342Z" fill="#006AFF" stroke="#006AFF" stroke-width="0.8"/>
<path d="M137.84 67.7834H132.996V72.8504H137.84V67.7834Z" fill="#006AFF"/>
<path d="M145.101 67.7834H140.26V72.8504H145.101V67.7834Z" fill="#006AFF"/>
<path d="M152.367 67.7834H147.526V72.8504H152.367V67.7834Z" fill="#006AFF"/>
<path d="M159.631 67.7834H154.79V72.8504H159.631V67.7834Z" fill="#006AFF"/>
<path d="M166.894 67.7834H162.053V72.8504H166.894V67.7834Z" fill="#006AFF"/>
<path d="M174.161 67.7834H169.32V72.8504H174.161V67.7834Z" fill="#006AFF"/>
<path d="M137.84 75.3837H132.996V80.4506H137.84V75.3837Z" fill="#006AFF"/>
<path d="M145.101 75.3837H140.26V80.4506H145.101V75.3837Z" fill="#006AFF"/>
<path d="M152.367 75.3837H147.526V80.4506H152.367V75.3837Z" fill="#006AFF"/>
<path d="M159.631 75.3837H154.79V80.4506H159.631V75.3837Z" fill="#006AFF"/>
<path d="M166.894 75.3837H162.053V80.4506H166.894V75.3837Z" fill="#006AFF"/>
<path d="M174.161 75.3837H169.32V80.4506H174.161V75.3837Z" fill="#006AFF"/>
<path d="M137.84 82.9801H132.996V88.047H137.84V82.9801Z" fill="#006AFF"/>
<path d="M145.101 82.9801H140.26V88.047H145.101V82.9801Z" fill="#006AFF"/>
<path d="M152.367 82.9801H147.526V88.047H152.367V82.9801Z" fill="#006AFF"/>
<path d="M159.631 82.9801H154.79V88.047H159.631V82.9801Z" fill="#006AFF"/>
<path d="M166.894 82.9801H162.053V88.047H166.894V82.9801Z" fill="#006AFF"/>
<path d="M174.161 82.9801H169.32V88.047H174.161V82.9801Z" fill="#006AFF"/>
<path d="M137.84 90.577H132.996V95.6439H137.84V90.577Z" fill="#006AFF"/>
<path d="M145.101 90.577H140.26V95.6439H145.101V90.577Z" fill="#006AFF"/>
<path d="M152.367 90.577H147.526V95.6439H152.367V90.577Z" fill="#006AFF"/>
<path d="M159.631 90.577H154.79V95.6439H159.631V90.577Z" fill="#006AFF"/>
<path d="M166.894 90.577H162.053V95.6439H166.894V90.577Z" fill="#006AFF"/>
<path d="M174.161 90.577H169.32V95.6439H174.161V90.577Z" fill="#006AFF"/>
<path d="M137.84 98.1735H132.996V103.24H137.84V98.1735Z" fill="#006AFF"/>
<path d="M145.101 98.1735H140.26V103.24H145.101V98.1735Z" fill="#006AFF"/>
<path d="M152.367 98.1735H147.526V103.24H152.367V98.1735Z" fill="#006AFF"/>
<path d="M159.631 98.1735H154.79V103.24H159.631V98.1735Z" fill="#006AFF"/>
<path d="M166.894 98.1735H162.053V103.24H166.894V98.1735Z" fill="#006AFF"/>
<path d="M174.161 98.1735H169.32V103.24H174.161V98.1735Z" fill="#006AFF"/>
<path d="M137.84 105.77H132.996V110.837H137.84V105.77Z" fill="#006AFF"/>
<path d="M145.101 105.77H140.26V110.837H145.101V105.77Z" fill="#006AFF"/>
<path d="M152.367 105.77H147.526V110.837H152.367V105.77Z" fill="#006AFF"/>
<path d="M159.631 105.77H154.79V110.837H159.631V105.77Z" fill="#006AFF"/>
<path d="M166.894 105.77H162.053V110.837H166.894V105.77Z" fill="#006AFF"/>
<path d="M174.161 105.77H169.32V110.837H174.161V105.77Z" fill="#006AFF"/>
<path d="M137.84 113.37H132.996V118.433H137.84V113.37Z" fill="#006AFF"/>
<path d="M145.101 113.37H140.26V118.433H145.101V113.37Z" fill="#006AFF"/>
<path d="M152.367 113.37H147.526V118.433H152.367V113.37Z" fill="#006AFF"/>
<path d="M159.631 113.37H154.79V118.433H159.631V113.37Z" fill="#006AFF"/>
<path d="M166.894 113.37H162.053V118.433H166.894V113.37Z" fill="#006AFF"/>
<path d="M174.161 113.37H169.32V118.433H174.161V113.37Z" fill="#006AFF"/>
<path d="M191.107 100.707H186.266V110.837H191.107V100.707Z" fill="#006AFF"/>
<path d="M198.374 100.707H193.533V110.837H198.374V100.707Z" fill="#006AFF"/>
<path d="M191.107 113.37H186.266V123.5H191.107V113.37Z" fill="#006AFF"/>
<path d="M198.374 113.37H193.533V123.5H198.374V113.37Z" fill="#006AFF"/>
<path d="M191.107 126.03H186.266V136.16H191.107V126.03Z" fill="#006AFF"/>
<path d="M198.374 126.03H193.533V136.16H198.374V126.03Z" fill="#006AFF"/>
<path d="M191.107 138.693H186.266V148.824H191.107V138.693Z" fill="#006AFF"/>
<path d="M198.374 138.693H193.533V148.824H198.374V138.693Z" fill="#006AFF"/>
<path d="M101.52 155.555H128.155C129.061 155.555 129.764 154.792 129.764 153.887V95.64C129.764 94.7377 129.06 93.9751 128.155 93.9751H101.52C100.615 93.9751 99.9108 94.7376 99.9108 95.64V153.89C99.9108 154.793 100.615 155.555 101.52 155.555ZM126.542 97.3086V152.222H103.129V97.3086H126.542Z" fill="#006AFF" stroke="#006AFF" stroke-width="0.8"/>
<path d="M111.206 97.3084H128.155C129.06 97.3084 129.764 96.5458 129.764 95.6435V82.98C129.764 82.0777 129.06 81.3152 128.155 81.3152H111.206C110.3 81.3152 109.597 82.0777 109.597 82.98V95.6435C109.597 96.5458 110.3 97.3084 111.206 97.3084ZM126.542 84.6449V93.9749H112.815V84.6449H126.542Z" fill="#006AFF" stroke="#006AFF" stroke-width="0.8"/>
<path d="M120.889 100.707H116.048V110.837H120.889V100.707Z" fill="#006AFF"/>
<path d="M113.625 100.707H108.784V110.837H113.625V100.707Z" fill="#006AFF"/>
<path d="M120.889 113.37H116.048V123.5H120.889V113.37Z" fill="#006AFF"/>
<path d="M113.625 113.37H108.784V123.5H113.625V113.37Z" fill="#006AFF"/>
<path d="M120.889 126.03H116.048V136.16H120.889V126.03Z" fill="#006AFF"/>
<path d="M113.625 126.03H108.784V136.16H113.625V126.03Z" fill="#006AFF"/>
<path d="M120.889 138.693H116.048V148.824H120.889V138.693Z" fill="#006AFF"/>
<path d="M113.625 138.693H108.784V148.824H113.625V138.693Z" fill="#006AFF"/>
<path d="M137.84 120.967H132.996V126.03H137.84V120.967Z" fill="#006AFF"/>
<path d="M145.101 120.967H140.26V126.03H145.101V120.967Z" fill="#006AFF"/>
<path d="M152.367 120.967H147.526V126.03H152.367V120.967Z" fill="#006AFF"/>
<path d="M159.631 120.967H154.79V126.03H159.631V120.967Z" fill="#006AFF"/>
<path d="M166.894 120.967H162.053V126.03H166.894V120.967Z" fill="#006AFF"/>
<path d="M174.161 120.967H169.32V126.03H174.161V120.967Z" fill="#006AFF"/>
<path d="M162.053 155.155H145.104C144.436 155.155 143.895 154.589 143.895 153.89V133.63C143.895 132.932 144.436 132.365 145.104 132.365H162.053C162.721 132.365 163.263 132.932 163.263 133.63V153.89C163.263 154.589 162.721 155.155 162.053 155.155ZM146.314 152.622H160.84V134.895H146.314V152.622Z" fill="#006AFF"/>
<path d="M142.682 51.7252H164.476C165.382 51.7252 166.085 50.9581 166.085 50.0604V37.3969C166.085 36.4946 165.382 35.7321 164.476 35.7321H142.682C141.777 35.7321 141.073 36.4946 141.073 37.3969V50.0604C141.073 50.9627 141.777 51.7252 142.682 51.7252ZM162.867 39.0618V48.3918H144.295V39.0618H162.867Z" fill="#006AFF" stroke="#006AFF" stroke-width="0.8"/>
<path d="M212.087 153.89C212.087 152.985 211.384 152.222 210.478 152.222H96.6761C95.7691 152.222 95.0668 152.99 95.0668 153.89C95.0668 154.793 95.7707 155.555 96.6761 155.555H210.481C211.386 155.555 212.091 154.794 212.087 153.89ZM212.087 153.89H211.687L212.087 153.888C212.087 153.889 212.087 153.89 212.087 153.89Z" fill="#006AFF" stroke="#006AFF" stroke-width="0.8"/>
<path d="M200.796 51.3254H192.323C189.652 51.3254 187.482 49.0524 187.482 46.2622H182.641C179.97 46.2622 177.8 43.9893 177.8 41.1991C177.8 38.4051 179.974 36.136 182.641 36.136H192.327C194.998 36.136 197.168 38.4089 197.168 41.1991H200.8C203.471 41.1991 205.641 43.472 205.641 46.2622C205.637 49.0524 203.468 51.3254 200.796 51.3254ZM182.634 38.6619C181.299 38.6619 180.212 39.7984 180.212 41.1953C180.212 42.5923 181.299 43.7288 182.634 43.7288H188.898C189.291 43.7288 189.659 43.9289 189.887 44.2649C190.114 44.601 190.172 45.0314 190.038 45.4203C189.944 45.6997 189.898 45.9828 189.898 46.2622C189.898 47.6592 190.984 48.7957 192.32 48.7957H200.792C202.128 48.7957 203.215 47.6592 203.215 46.2622C203.215 44.8653 202.128 43.7288 200.792 43.7288H195.739C195.345 43.7288 194.977 43.5287 194.749 43.1927C194.522 42.8566 194.464 42.4262 194.598 42.0373C194.692 41.7579 194.739 41.4747 194.739 41.1953C194.739 39.7984 193.652 38.6619 192.316 38.6619H182.634Z" fill="#006AFF"/>
</svg>
