<svg width="281" height="170" viewBox="0 0 281 170" fill="none" xmlns="http://www.w3.org/2000/svg">
<g clip-path="url(#clip0)">
<path d="M168.78 95.3594L204.941 102.509C207.855 103.122 209.826 105.573 209.826 108.474V150.145C209.826 153.536 207.075 156.273 203.669 156.273H166.728C167.877 156.273 168.78 155.374 168.78 154.23V152.188H203.669C204.777 152.188 205.721 151.289 205.721 150.145V108.474C205.721 107.534 205.064 106.676 204.12 106.472L168.78 99.5265V95.3594Z" fill="#006AFF"/>
<path d="M191.355 115.419C192.504 115.419 193.407 116.318 193.407 117.462C193.407 118.605 192.504 119.504 191.355 119.504H183.146C181.996 119.504 181.093 118.605 181.093 117.462C181.093 116.318 181.996 115.419 183.146 115.419H191.355Z" fill="#006AFF"/>
<path d="M191.355 127.675C192.504 127.675 193.407 128.574 193.407 129.718C193.407 130.862 192.504 131.76 191.355 131.76H183.146C181.996 131.76 181.093 130.862 181.093 129.718C181.093 128.574 181.996 127.675 183.146 127.675H191.355Z" fill="#006AFF"/>
<path d="M191.355 139.931C192.504 139.931 193.407 140.83 193.407 141.974C193.407 143.118 192.504 144.017 191.355 144.017H183.146C181.996 144.017 181.093 143.118 181.093 141.974C181.093 140.83 181.996 139.931 183.146 139.931H191.355Z" fill="#006AFF"/>
<path d="M168.78 154.23C168.78 155.374 167.877 156.273 166.728 156.273C165.579 156.273 164.676 155.374 164.676 154.23V152.188V97.0344C164.676 96.4216 164.963 95.8496 165.415 95.4411C165.907 95.0734 166.523 94.91 167.139 95.0325L168.78 95.3594V99.5265V152.188V154.23Z" fill="#006AFF"/>
<path d="M164.675 152.188V154.23C164.675 155.374 165.578 156.273 166.727 156.273H150.309C151.458 156.273 152.361 155.374 152.361 154.23V152.188H164.675Z" fill="#006AFF"/>
<path d="M154.414 78.65C155.563 78.65 156.466 79.5488 156.466 80.6927C156.466 81.8367 155.563 82.7354 154.414 82.7354H146.204C145.055 82.7354 144.152 81.8367 144.152 80.6927C144.152 79.5488 145.055 78.65 146.204 78.65H154.414Z" fill="#006AFF"/>
<path d="M156.466 92.949C156.466 94.0929 155.563 94.9917 154.414 94.9917H146.204C145.055 94.9917 144.152 94.0929 144.152 92.949C144.152 91.805 145.055 90.9062 146.204 90.9062H154.414C155.563 90.9062 156.466 91.805 156.466 92.949Z" fill="#006AFF"/>
<path d="M154.414 103.162C155.563 103.162 156.466 104.061 156.466 105.205C156.466 106.349 155.563 107.248 154.414 107.248H146.204C145.055 107.248 144.152 106.349 144.152 105.205C144.152 104.061 145.055 103.162 146.204 103.162H154.414Z" fill="#006AFF"/>
<path d="M154.414 115.419C155.563 115.419 156.466 116.318 156.466 117.462C156.466 118.605 155.563 119.504 154.414 119.504H146.204C145.055 119.504 144.152 118.605 144.152 117.462C144.152 116.318 145.055 115.419 146.204 115.419H154.414Z" fill="#006AFF"/>
<path d="M135.943 117.462C135.943 118.605 135.04 119.504 133.891 119.504H125.682C124.533 119.504 123.63 118.605 123.63 117.462C123.63 116.318 124.533 115.419 125.682 115.419H133.891C135.04 115.419 135.943 116.318 135.943 117.462Z" fill="#006AFF"/>
<path d="M133.891 78.65C135.04 78.65 135.943 79.5488 135.943 80.6927C135.943 81.8367 135.04 82.7354 133.891 82.7354H125.682C124.533 82.7354 123.63 81.8367 123.63 80.6927C123.63 79.5488 124.533 78.65 125.682 78.65H133.891Z" fill="#006AFF"/>
<path d="M133.891 90.9062C135.04 90.9062 135.943 91.805 135.943 92.949C135.943 94.0929 135.04 94.9917 133.891 94.9917H125.682C124.533 94.9917 123.63 94.0929 123.63 92.949C123.63 91.805 124.533 90.9062 125.682 90.9062H133.891Z" fill="#006AFF"/>
<path d="M133.891 103.162C135.04 103.162 135.943 104.061 135.943 105.205C135.943 106.349 135.04 107.248 133.891 107.248H125.682C124.533 107.248 123.63 106.349 123.63 105.205C123.63 104.061 124.533 103.162 125.682 103.162H133.891Z" fill="#006AFF"/>
<path d="M148.257 133.803C148.257 132.659 147.313 131.76 146.205 131.76H133.891C132.742 131.76 131.839 132.659 131.839 133.803V152.188H127.735V133.803C127.735 130.412 130.485 127.675 133.891 127.675H146.205C149.612 127.675 152.362 130.412 152.362 133.803V152.188H148.257V133.803Z" fill="#006AFF"/>
<path d="M131.839 152.188H148.257H152.362V154.23C152.362 155.374 151.459 156.273 150.31 156.273H129.787C128.638 156.273 127.735 155.374 127.735 154.23V152.188H131.839Z" fill="#006AFF"/>
<path d="M118.499 59.04L163.608 65.8626C166.604 66.3529 168.78 68.8859 168.78 71.9091V95.3594L167.138 95.0325C166.522 94.91 165.907 95.0734 165.414 95.4411C164.963 95.8496 164.675 96.4216 164.675 97.0344V71.9091C164.675 70.8877 163.936 70.0298 162.951 69.8664L117.842 63.0846C117.719 63.0437 117.596 63.0437 117.473 63.0437C116.98 63.0437 116.529 63.2071 116.159 63.534C115.667 63.9425 115.42 64.4736 115.42 65.0864V150.145C115.42 151.289 116.365 152.188 117.473 152.188H127.734V154.23C127.734 155.374 128.637 156.273 129.786 156.273H117.473C114.066 156.273 111.316 153.536 111.316 150.145V65.0864C111.316 63.2888 112.096 61.5729 113.491 60.429C114.887 59.2443 116.693 58.754 118.499 59.04V59.04Z" fill="#006AFF"/>
</g>
<g clip-path="url(#clip1)">
<path d="M221.298 71.5823C220.936 71.5823 220.644 71.2907 220.644 70.9311C220.644 70.5715 220.936 70.28 221.298 70.28C221.659 70.28 221.952 70.5715 221.952 70.9311C221.952 71.2907 221.659 71.5823 221.298 71.5823Z" fill="#006AFF"/>
<path d="M231.372 71.5824H224.242C223.88 71.5824 223.587 71.2908 223.587 70.9312C223.587 70.5716 223.88 70.2801 224.242 70.2801H231.372C234.28 70.2801 236.736 67.8947 236.736 65.0712C236.736 61.4144 232.96 58.9815 229.621 60.1608C229.416 60.2331 229.188 60.1994 229.014 60.0709C228.839 59.9424 228.739 59.7359 228.749 59.5196C228.922 55.442 225.338 52.0489 221.298 52.0489C217.227 52.0489 213.672 55.419 213.847 59.5196C213.856 59.7358 213.757 59.9425 213.582 60.071C213.407 60.1995 213.18 60.2332 212.975 60.1608C209.612 58.9727 205.859 61.437 205.859 65.0712C205.859 67.8947 208.316 70.2801 211.224 70.2801H218.354C218.715 70.2801 219.008 70.5716 219.008 70.9312C219.008 71.2908 218.715 71.5824 218.354 71.5824H211.224C207.593 71.5824 204.551 68.6577 204.551 65.0712C204.551 60.8492 208.572 57.8767 212.55 58.694C212.845 54.2447 216.796 50.7467 221.298 50.7467C225.763 50.7467 229.744 54.257 230.045 58.6942C234.021 57.8769 238.044 60.8468 238.044 65.0712C238.044 68.6555 235.004 71.5824 231.372 71.5824V71.5824Z" fill="#006AFF"/>
</g>
<path d="M95.1724 100.997H87.8726C87.5027 100.997 87.2028 100.706 87.2028 100.346C87.2028 99.9867 87.5027 99.6952 87.8726 99.6952H95.1724C98.1491 99.6952 100.664 97.3097 100.664 94.4863C100.664 90.8295 96.7978 88.3966 93.3798 89.5758C93.1702 89.6481 92.937 89.6145 92.758 89.486C92.579 89.3574 92.4773 89.1509 92.4867 88.9347C92.6641 84.8571 88.9951 81.464 84.8589 81.464C80.6917 81.464 77.0523 84.834 77.231 88.9347C77.2404 89.1508 77.1387 89.3575 76.9597 89.486C76.7807 89.6146 76.5478 89.6482 76.3379 89.5759C72.8949 88.3878 69.0537 90.8521 69.0537 94.4863C69.0537 97.3097 71.5686 99.6952 74.5453 99.6952H81.8452C82.215 99.6952 82.5149 99.9867 82.5149 100.346C82.5149 100.706 82.215 100.997 81.8452 100.997H74.5453C70.8289 100.997 67.7143 98.0727 67.7143 94.4863C67.7143 90.2642 71.8303 87.2917 75.9032 88.109C76.2051 83.6597 80.2499 80.1617 84.8589 80.1617C89.4302 80.1617 93.5059 83.672 93.8137 88.1092C97.884 87.292 102.003 90.2619 102.003 94.4863C102.003 98.0705 98.8908 100.997 95.1724 100.997V100.997Z" fill="#006AFF"/>
<g opacity="0.34">
<g opacity="0.6">
<path opacity="0.6" d="M244.777 114.04C246.735 122.15 246.408 129.606 243.798 137.562C240.534 147.516 233.192 156.779 222.667 162.467C218.996 164.465 215.039 165.964 210.919 167.041C210.267 168.04 209.532 169.039 208.757 169.962H243.92C252.853 159.93 257.993 147.055 258.809 133.987C259.013 130.451 258.931 126.877 258.524 123.379C256.892 109.735 250.447 96.7446 240.82 86.4059C240.697 87.1361 240.575 87.8664 240.453 88.5966C239.351 97.2827 242.737 105.7 244.777 114.04Z" fill="#53D0F7"/>
</g>
<g opacity="0.41">
<path opacity="0.41" d="M135.86 167.963C133.779 165.273 132.189 161.852 129.986 159.123C125.295 160.007 120.685 161.314 115.994 162.467C106.408 164.773 96.5363 166.503 86.6647 166.618C75.6916 166.772 64.4739 164.773 54.9285 159.431C47.6268 155.357 41.2224 149.169 37.7551 141.789C38.7341 151.974 42.6502 161.929 49.2585 170H137.532C136.92 169.308 136.39 168.655 135.86 167.963Z" fill="#53D0F7"/>
</g>
<g opacity="0.41">
<path opacity="0.41" d="M149.772 27.9477C152.424 27.8709 155.32 27.7171 158.461 27.4865C173.065 26.4488 187.546 29.6004 201.578 33.905C202.924 34.3278 204.271 34.789 205.617 35.2502C199.579 28.9855 191.87 24.1043 183.385 21.3371C166.579 15.841 146.223 18.0317 131.457 26.6794C137.535 26.7178 143.654 27.1406 149.772 27.9477Z" fill="#53D0F7"/>
</g>
<g opacity="0.35">
<path opacity="0.35" d="M54.5639 159.546C64.1092 164.735 75.2862 166.733 86.2593 166.656C96.1309 166.579 106.043 164.965 115.63 162.774C120.321 161.698 124.971 160.468 129.662 159.623C127.745 157.278 125.379 155.433 121.871 155.049C108.246 153.512 93.9282 158.816 80.3852 159.7C71.2886 160.315 61.6209 159.123 54.2376 154.011C49.4649 150.668 45.9976 145.902 43.5909 140.752C38.655 130.067 38.5327 117.807 42.6935 106.853C45.5081 99.4735 52.3611 93.8237 54.7271 86.2906C56.7259 79.9874 54.4007 73.4152 55.0534 67.0736C55.1758 65.7668 55.4613 64.4985 55.8693 63.2302C58.1944 56.4658 69.453 46.7035 76.3468 43.4366C92.8676 35.5961 110.123 31.7911 127.745 31.4068C117.751 29.831 108.287 26.9868 91.5214 23.6431C71.6558 19.5691 49.261 33.3285 37.5129 49.3555C36.3299 51.0081 35.2693 52.6992 34.3719 54.4672C30.2927 62.423 29.1505 71.6088 31.0269 80.218C33.2297 90.3262 40.0828 98.1283 37.6352 108.89C36.1259 115.462 35.7588 121.535 34.9838 128.03C34.3719 133.103 35.3917 137.946 37.4721 142.366C40.8986 149.515 47.3029 155.549 54.5639 159.546Z" fill="#53D0F7"/>
</g>
<g opacity="0.47">
<path opacity="0.47" d="M158.46 27.4866C155.319 27.7172 152.464 27.8709 149.771 27.9478C158.827 29.1392 167.965 31.2147 177.061 34.0204L211.123 44.5897C227.154 49.5477 237.76 63.9989 236.74 79.8722C236.74 79.9875 236.74 80.0644 236.699 80.1797C236.046 89.3654 232.824 98.3974 227.439 105.931C222.585 112.772 215.854 120.42 214.182 128.837C212.836 135.525 215.732 142.289 216.099 149.092C216.426 155.549 214.386 161.698 210.837 167.002C214.957 165.926 218.914 164.427 222.585 162.429C233.069 156.74 240.452 147.478 243.715 137.523C246.326 129.567 246.652 122.111 244.694 114.002C242.696 105.661 239.31 97.2444 240.37 88.5583C240.452 87.8281 240.574 87.0978 240.738 86.3676C241.757 81.0637 244.001 75.9135 243.511 70.5712C243.144 66.5356 241.268 62.7306 238.943 59.3484C231.274 48.0104 218.955 40.0545 205.534 35.2503C204.188 34.7891 202.842 34.3278 201.496 33.9051C187.545 29.6005 173.064 26.4489 158.46 27.4866Z" fill="#53D0F7"/>
</g>
<g opacity="0.7">
<path opacity="0.7" d="M55.7455 59.9249C55.2968 61.2317 55.0521 62.5769 54.9297 63.9221C54.3178 70.4943 56.6429 77.2587 54.6849 83.754C52.319 91.5561 45.5067 97.3597 42.7329 105.008C38.6129 116.308 38.8169 128.952 43.7935 139.983C46.2002 145.287 49.7083 150.207 54.481 153.627C61.8643 158.893 71.532 160.046 80.6286 159.354C94.1716 158.355 108.449 152.82 122.073 154.357C125.581 154.742 127.988 156.625 129.905 159.046C132.108 161.775 133.699 165.196 135.779 167.886C136.31 168.578 136.881 169.27 137.452 169.923H208.675C209.45 168.962 210.184 168.001 210.837 167.002C214.386 161.698 216.425 155.549 216.099 149.092C215.732 142.289 212.835 135.525 214.182 128.837C215.854 120.459 222.585 112.772 227.439 105.93C232.823 98.359 236.046 89.3654 236.699 80.1797C236.699 80.0644 236.699 79.9875 236.74 79.8722C237.719 63.9989 227.113 49.5477 211.122 44.5897L177.061 34.0203C167.923 31.1762 158.827 29.1392 149.771 27.9478C143.652 27.1407 137.533 26.6794 131.455 26.6794C130.109 26.6794 128.804 26.6794 127.458 26.7179C109.876 27.2175 92.6215 31.2147 76.1415 39.3627C69.2477 42.8218 58.0707 52.9683 55.7455 59.9249Z" fill="#53D0F7"/>
</g>
<g opacity="0.35">
<path opacity="0.35" d="M118.687 23.6047C121.751 23.6047 124.235 21.2645 124.235 18.3777C124.235 15.4909 121.751 13.1506 118.687 13.1506C115.623 13.1506 113.14 15.4909 113.14 18.3777C113.14 21.2645 115.623 23.6047 118.687 23.6047Z" fill="#53D0F7"/>
</g>
<g opacity="0.35">
<path opacity="0.35" d="M268.477 92.2479C275.393 92.2479 281 86.9652 281 80.4487C281 73.9321 275.393 68.6494 268.477 68.6494C261.561 68.6494 255.954 73.9321 255.954 80.4487C255.954 86.9652 261.561 92.2479 268.477 92.2479Z" fill="#53D0F7"/>
</g>
<g opacity="0.35">
<path opacity="0.35" d="M25.6374 112.122C30.9574 107.958 31.6874 100.519 27.2679 95.5064C22.8483 90.4939 14.9528 89.8061 9.63279 93.9702C4.31275 98.1342 3.58274 105.573 8.00228 110.586C12.4218 115.598 20.3173 116.286 25.6374 112.122Z" fill="#53D0F7"/>
</g>
<g opacity="0.35">
<path opacity="0.35" d="M216.466 32.9442C218.561 32.9442 220.259 31.3439 220.259 29.3698C220.259 27.3957 218.561 25.7954 216.466 25.7954C214.37 25.7954 212.672 27.3957 212.672 29.3698C212.672 31.3439 214.37 32.9442 216.466 32.9442Z" fill="#53D0F7"/>
</g>
</g>
<g opacity="0.22">
<path opacity="0.22" d="M82.6726 80.2549C82.4114 80.2549 82.1829 80.0396 82.1829 79.7935C82.1829 71.6111 83.9459 63.7056 87.4392 56.2922C90.8019 49.125 95.6012 42.7575 101.706 37.3743C103.894 35.4364 106.277 33.6215 108.726 32.022C108.954 31.8682 109.248 31.9297 109.411 32.145C109.574 32.3603 109.509 32.6372 109.281 32.791C106.865 34.3905 104.514 36.1439 102.359 38.0511C90.149 48.8174 83.1623 64.044 83.1623 79.7935C83.1623 80.0396 82.9338 80.2549 82.6726 80.2549Z" fill="#3AAED5"/>
<path opacity="0.22" d="M205.103 80.255C204.841 80.255 204.613 80.0397 204.613 79.7936C204.613 73.2723 203.47 66.8433 201.185 60.7527C201.087 60.5066 201.217 60.2605 201.479 60.1682C201.74 60.0759 202.001 60.199 202.099 60.4451C204.417 66.6587 205.592 73.1493 205.592 79.7936C205.592 80.0397 205.364 80.255 205.103 80.255Z" fill="#3AAED5"/>
<path opacity="0.22" d="M200.304 57.8302C200.108 57.8302 199.944 57.7379 199.846 57.5534C195.08 46.9101 187.081 37.9588 176.732 31.6528C176.503 31.5298 176.438 31.2221 176.601 31.0068C176.764 30.7915 177.058 30.73 177.287 30.8838C187.799 37.282 195.929 46.3564 200.761 57.1842C200.859 57.4303 200.761 57.6764 200.499 57.7995C200.434 57.8302 200.369 57.8302 200.304 57.8302Z" fill="#3AAED5"/>
<path opacity="0.22" d="M113.003 30.4225C112.84 30.4225 112.677 30.3302 112.579 30.2072C112.448 29.9918 112.513 29.715 112.742 29.5612C122.145 24.3626 132.918 21.6249 143.855 21.6249C152.997 21.6249 161.779 23.4705 169.974 27.0696C170.235 27.1926 170.333 27.4387 170.202 27.6848C170.072 27.9309 169.811 28.0231 169.549 27.9001C161.485 24.3318 152.834 22.5477 143.855 22.5477C133.082 22.5477 122.471 25.2547 113.232 30.361C113.166 30.4225 113.101 30.4225 113.003 30.4225Z" fill="#3AAED5"/>
<path opacity="0.22" d="M71.768 80.2549C71.5069 80.2549 71.2783 80.0396 71.2783 79.7935C71.2783 52.6625 88.3206 28.0846 114.668 17.1645C114.929 17.0722 115.19 17.1645 115.32 17.4106C115.418 17.6567 115.32 17.9028 115.059 18.0258C89.0715 28.7613 72.2578 53.0316 72.2578 79.7935C72.2578 80.0396 72.0292 80.2549 71.768 80.2549Z" fill="#3AAED5"/>
<path opacity="0.22" d="M216.007 80.255C215.746 80.255 215.517 80.0397 215.517 79.7936C215.517 58.5071 204.678 38.2357 186.526 25.5623C186.297 25.4085 186.265 25.1316 186.428 24.9163C186.591 24.701 186.885 24.6702 187.114 24.824C196.026 31.0685 203.438 39.2509 208.498 48.5406C213.82 58.261 216.497 68.7812 216.497 79.7936C216.497 80.0397 216.268 80.255 216.007 80.255Z" fill="#3AAED5"/>
<path opacity="0.22" d="M182.51 22.8552C182.412 22.8552 182.315 22.8244 182.249 22.7937C180.78 21.9016 179.246 21.0711 177.711 20.302C177.483 20.179 177.385 19.9021 177.515 19.6868C177.646 19.4715 177.94 19.3792 178.168 19.5023C179.735 20.302 181.27 21.1326 182.739 22.0247C182.968 22.1477 183.033 22.4553 182.902 22.6706C182.804 22.7629 182.674 22.8552 182.51 22.8552Z" fill="#3AAED5"/>
<path opacity="0.22" d="M174.773 18.8256C174.707 18.8256 174.642 18.8256 174.577 18.7948C164.946 14.4883 154.629 12.3043 143.92 12.3043C136.085 12.3043 128.347 13.504 121.001 15.8418C120.74 15.9341 120.479 15.7803 120.381 15.5649C120.283 15.3189 120.446 15.0728 120.675 14.9805C128.151 12.6119 135.954 11.4122 143.92 11.4122C154.792 11.4122 165.272 13.627 175.001 17.9951C175.23 18.1181 175.36 18.3642 175.23 18.6103C175.132 18.7333 174.936 18.8256 174.773 18.8256Z" fill="#3AAED5"/>
<path opacity="0.22" d="M228.087 80.255C227.826 80.255 227.597 80.0396 227.597 79.7935C227.597 71.119 226.096 62.5675 223.19 54.4159C223.092 54.1698 223.255 53.9237 223.484 53.8314C223.745 53.7391 224.006 53.8929 224.104 54.1082C227.075 62.3521 228.577 70.9959 228.577 79.7628C228.577 80.0396 228.348 80.255 228.087 80.255Z" fill="#3AAED5"/>
<path opacity="0.22" d="M221.884 50.294C221.688 50.294 221.492 50.1709 221.427 50.0171C215.517 36.3593 205.658 24.5471 192.958 15.8726C192.729 15.7188 192.696 15.4419 192.86 15.2266C193.023 15.0113 193.317 14.9805 193.545 15.1343C206.409 23.9319 216.366 35.8671 222.373 49.6788C222.471 49.9248 222.341 50.1709 222.112 50.294C221.982 50.294 221.916 50.294 221.884 50.294Z" fill="#3AAED5"/>
<path opacity="0.22" d="M188.387 12.8888C188.289 12.8888 188.224 12.858 188.126 12.8273C174.871 5.04478 159.592 0.922825 143.888 0.922825C136.804 0.922825 129.784 1.75337 122.993 3.38369C122.732 3.44522 122.471 3.29141 122.406 3.04532C122.34 2.79924 122.504 2.55315 122.765 2.49163C129.621 0.830544 136.738 0 143.888 0C159.755 0 175.263 4.15272 188.649 12.0583C188.877 12.1813 188.942 12.4889 188.812 12.7042C188.714 12.8273 188.551 12.8888 188.387 12.8888Z" fill="#3AAED5"/>
<path opacity="0.22" d="M106.865 8.98209C106.669 8.98209 106.506 8.8898 106.441 8.736C106.31 8.52067 106.408 8.24382 106.669 8.12078C109.248 6.9211 111.926 5.84446 114.635 4.92163C114.897 4.82935 115.158 4.95239 115.256 5.19848C115.354 5.44457 115.223 5.69066 114.962 5.78294C112.285 6.70577 109.64 7.78241 107.094 8.95133C107.028 8.95133 106.93 8.98209 106.865 8.98209Z" fill="#3AAED5"/>
<path opacity="0.22" d="M59.6887 80.2549C59.4275 80.2549 59.199 80.0396 59.199 79.7935C59.199 65.6127 63.182 51.7089 70.7563 39.5583C78.1021 27.7462 88.5821 17.872 101.086 10.9508C101.315 10.8277 101.609 10.8893 101.772 11.1046C101.902 11.3199 101.837 11.5968 101.609 11.7506C76.0453 25.839 60.1784 51.9242 60.1784 79.7935C60.1784 80.0396 59.9825 80.2549 59.6887 80.2549Z" fill="#3AAED5"/>
</g>
<path d="M67.9716 18.6352C67.6103 18.6352 67.3174 18.3437 67.3174 17.9841C67.3174 17.6245 67.6103 17.333 67.9716 17.333C68.3329 17.333 68.6257 17.6245 68.6257 17.9841C68.6257 18.3437 68.3329 18.6352 67.9716 18.6352Z" fill="#006AFF"/>
<defs>
<clipPath id="clip0">
<rect width="98.5097" height="98.0501" fill="white" transform="translate(111.316 58.2229)"/>
</clipPath>
<clipPath id="clip1">
<rect width="33.4933" height="33.337" fill="white" transform="matrix(-1 0 0 1 238.044 44.496)"/>
</clipPath>
</defs>
</svg>
