<svg width="282" height="170" viewBox="0 0 282 170" fill="none" xmlns="http://www.w3.org/2000/svg">
<path d="M162.519 32.0911C162.093 32.0911 161.747 31.7457 161.747 31.3196C161.747 30.8936 162.093 30.5482 162.519 30.5482C162.945 30.5482 163.29 30.8936 163.29 31.3196C163.29 31.7457 162.945 32.0911 162.519 32.0911Z" fill="#006AFF"/>
<g opacity="0.34">
<g opacity="0.6">
<path opacity="0.6" d="M245.692 113.251C247.655 121.417 247.328 128.926 244.711 136.938C241.44 146.962 234.08 156.289 223.531 162.018C219.852 164.03 215.886 165.54 211.756 166.623C211.102 167.63 210.366 168.636 209.589 169.565H244.833C253.788 159.463 258.939 146.497 259.757 133.338C259.962 129.777 259.88 126.178 259.471 122.656C257.835 108.916 251.375 95.834 241.726 85.4226C241.603 86.158 241.481 86.8934 241.358 87.6287C240.254 96.3758 243.648 104.852 245.692 113.251Z" fill="#53D0F7"/>
</g>
<g opacity="0.41">
<path opacity="0.41" d="M136.523 167.552C134.437 164.843 132.843 161.398 130.635 158.65C125.933 159.54 121.313 160.856 116.611 162.018C107.002 164.34 97.1077 166.081 87.2131 166.198C76.2146 166.352 64.9707 164.34 55.4033 158.96C48.0845 154.857 41.6653 148.626 38.1899 141.195C39.1712 151.451 43.0963 161.476 49.72 169.603H138.199C137.586 168.907 137.054 168.249 136.523 167.552Z" fill="#53D0F7"/>
</g>
<g opacity="0.41">
<path opacity="0.41" d="M150.467 26.5538C153.125 26.4764 156.028 26.3216 159.176 26.0894C173.814 25.0444 188.328 28.2181 202.393 32.5529C203.743 32.9787 205.092 33.4431 206.441 33.9076C200.39 27.5988 192.662 22.6834 184.158 19.8968C167.313 14.3621 146.91 16.5682 132.109 25.2766C138.201 25.3153 144.334 25.741 150.467 26.5538Z" fill="#53D0F7"/>
</g>
<g opacity="0.35">
<path opacity="0.35" d="M55.0376 159.076C64.6051 164.301 75.8081 166.314 86.8066 166.236C96.7012 166.159 106.637 164.533 116.245 162.327C120.947 161.243 125.608 160.005 130.31 159.153C128.388 156.792 126.017 154.935 122.501 154.548C108.845 152.999 94.4933 158.341 80.9189 159.231C71.8012 159.85 62.111 158.65 54.7105 153.503C49.9268 150.135 46.4514 145.336 44.0391 140.15C39.0918 129.39 38.9691 117.044 43.1396 106.013C45.9608 98.5818 52.8297 92.8923 55.2012 85.3063C57.2046 78.9589 54.8741 72.3405 55.5283 65.9544C55.6509 64.6384 55.9371 63.3612 56.346 62.084C58.6765 55.2721 69.9613 45.4413 76.8711 42.1515C93.4303 34.2559 110.725 30.4242 128.388 30.0371C118.371 28.4503 108.885 25.5862 92.081 22.219C72.1692 18.1163 49.7223 31.9723 37.947 48.1119C36.7613 49.7761 35.6982 51.4791 34.7987 53.2595C30.71 61.2712 29.5652 70.5214 31.446 79.1911C33.6539 89.3702 40.5228 97.2271 38.0696 108.064C36.5568 114.683 36.1888 120.798 35.412 127.339C34.7987 132.448 35.8209 137.324 37.9061 141.775C41.3406 148.974 47.7598 155.051 55.0376 159.076Z" fill="#53D0F7"/>
</g>
<g opacity="0.47">
<path opacity="0.47" d="M159.175 26.0895C156.027 26.3218 153.165 26.4766 150.466 26.554C159.543 27.7538 168.702 29.8438 177.82 32.6692L211.96 43.3128C228.028 48.3056 238.659 62.8583 237.637 78.843C237.637 78.9591 237.637 79.0365 237.596 79.1526C236.942 88.4028 233.712 97.4982 228.315 105.084C223.449 111.974 216.703 119.676 215.026 128.152C213.677 134.886 216.58 141.698 216.948 148.549C217.275 155.051 215.231 161.244 211.674 166.585C215.803 165.501 219.769 163.992 223.449 161.979C233.957 156.251 241.357 146.923 244.628 136.899C247.245 128.887 247.572 121.379 245.61 113.212C243.606 104.813 240.213 96.3371 241.276 87.59C241.357 86.8547 241.48 86.1193 241.644 85.3839C242.666 80.0428 244.915 74.8565 244.424 69.4766C244.056 65.4127 242.175 61.581 239.845 58.1751C232.158 46.7574 219.81 38.7457 206.358 33.9077C205.009 33.4433 203.66 32.9788 202.311 32.5531C188.327 28.2183 173.813 25.0445 159.175 26.0895Z" fill="#53D0F7"/>
</g>
<g opacity="0.7">
<path opacity="0.7" d="M56.2224 58.7556C55.7727 60.0715 55.5273 61.4262 55.4047 62.7808C54.7914 69.3992 57.1219 76.2111 55.1594 82.752C52.7879 90.6089 45.9599 96.4532 43.1796 104.155C39.05 115.534 39.2544 128.268 44.2426 139.376C46.6549 144.717 50.1712 149.671 54.9549 153.116C62.3554 158.418 72.0456 159.579 81.1633 158.883C94.7377 157.876 109.048 152.303 122.704 153.851C126.221 154.238 128.633 156.135 130.555 158.573C132.762 161.321 134.357 164.766 136.442 167.475C136.974 168.172 137.546 168.868 138.119 169.526H209.507C210.284 168.559 211.02 167.591 211.674 166.585C215.231 161.244 217.275 155.051 216.948 148.549C216.58 141.698 213.677 134.886 215.027 128.152C216.703 119.714 223.449 111.973 228.315 105.084C233.712 97.4595 236.942 88.4028 237.596 79.1526C237.596 79.0365 237.596 78.959 237.637 78.8429C238.618 62.8582 227.988 48.3056 211.96 43.3128L177.82 32.6692C168.661 29.8051 159.543 27.7538 150.466 26.554C144.333 25.7412 138.2 25.2767 132.108 25.2767C130.759 25.2767 129.451 25.2767 128.101 25.3154C110.479 25.8186 93.184 29.8438 76.6658 38.049C69.7559 41.5324 58.553 51.7502 56.2224 58.7556Z" fill="#53D0F7"/>
</g>
<g opacity="0.35">
<path opacity="0.35" d="M119.31 22.1803C122.381 22.1803 124.871 19.8236 124.871 16.9166C124.871 14.0095 122.381 11.6528 119.31 11.6528C116.239 11.6528 113.75 14.0095 113.75 16.9166C113.75 19.8236 116.239 22.1803 119.31 22.1803Z" fill="#53D0F7"/>
</g>
<g opacity="0.35">
<path opacity="0.35" d="M269.448 91.3057C276.38 91.3057 282 85.9859 282 79.4236C282 72.8613 276.38 67.5415 269.448 67.5415C262.515 67.5415 256.896 72.8613 256.896 79.4236C256.896 85.9859 262.515 91.3057 269.448 91.3057Z" fill="#53D0F7"/>
</g>
<g opacity="0.35">
<path opacity="0.35" d="M26.0443 111.319C31.3767 107.126 32.1084 99.6346 27.6786 94.5868C23.2488 89.5391 15.335 88.8465 10.0026 93.0398C4.67018 97.2331 3.93848 104.724 8.36828 109.772C12.7981 114.82 20.7119 115.513 26.0443 111.319Z" fill="#53D0F7"/>
</g>
<g opacity="0.35">
<path opacity="0.35" d="M217.315 31.5854C219.415 31.5854 221.118 29.9739 221.118 27.9859C221.118 25.998 219.415 24.3865 217.315 24.3865C215.215 24.3865 213.513 25.998 213.513 27.9859C213.513 29.9739 215.215 31.5854 217.315 31.5854Z" fill="#53D0F7"/>
</g>
</g>
<g opacity="0.22">
<path opacity="0.22" d="M72.9816 103.935C72.6736 103.935 72.4041 103.679 72.4041 103.388C72.4041 93.6936 74.483 84.3274 78.6025 75.5443C82.568 67.0527 88.2275 59.5087 95.4269 53.1309C98.0064 50.8349 100.817 48.6847 103.704 46.7896C103.974 46.6074 104.32 46.6802 104.513 46.9354C104.705 47.1905 104.628 47.5185 104.359 47.7007C101.51 49.5958 98.7379 51.6731 96.1969 53.9327C81.798 66.6883 73.559 84.7283 73.559 103.388C73.559 103.679 73.2895 103.935 72.9816 103.935Z" fill="#3AAED5"/>
<path opacity="0.22" d="M217.357 103.935C217.049 103.935 216.779 103.679 216.779 103.388C216.779 95.6616 215.432 88.0447 212.737 80.8287C212.621 80.5372 212.775 80.2456 213.083 80.1363C213.391 80.0269 213.699 80.1727 213.815 80.4643C216.548 87.8261 217.934 95.5158 217.934 103.388C217.934 103.679 217.665 103.935 217.357 103.935Z" fill="#3AAED5"/>
<path opacity="0.22" d="M211.697 77.3663C211.466 77.3663 211.273 77.2569 211.158 77.0383C205.537 64.4285 196.105 53.8232 183.9 46.3521C183.631 46.2063 183.554 45.8418 183.746 45.5867C183.939 45.3316 184.285 45.2587 184.555 45.4409C196.952 53.0214 206.538 63.7725 212.236 76.6009C212.351 76.8925 212.236 77.184 211.928 77.3298C211.851 77.3663 211.774 77.3663 211.697 77.3663Z" fill="#3AAED5"/>
<path opacity="0.22" d="M108.749 44.8945C108.556 44.8945 108.364 44.7851 108.248 44.6393C108.094 44.3842 108.171 44.0562 108.441 43.874C119.529 37.7149 132.234 34.4713 145.131 34.4713C155.911 34.4713 166.267 36.658 175.931 40.922C176.239 41.0678 176.354 41.3593 176.2 41.6509C176.046 41.9424 175.738 42.0518 175.43 41.906C165.921 37.6784 155.718 35.5646 145.131 35.5646C132.426 35.5646 119.914 38.7718 109.018 44.8216C108.941 44.8945 108.864 44.8945 108.749 44.8945Z" fill="#3AAED5"/>
<path opacity="0.22" d="M60.1227 103.934C59.8147 103.934 59.5452 103.679 59.5452 103.388C59.5452 71.2438 79.6421 42.1246 110.712 29.1869C111.02 29.0775 111.328 29.1869 111.482 29.4784C111.597 29.77 111.482 30.0615 111.174 30.2073C80.5276 42.9264 60.7002 71.6811 60.7002 103.388C60.7002 103.679 60.4307 103.934 60.1227 103.934Z" fill="#3AAED5"/>
<path opacity="0.22" d="M230.215 103.935C229.907 103.935 229.638 103.679 229.638 103.388C229.638 78.1683 216.856 54.1514 195.45 39.1363C195.18 38.954 195.142 38.626 195.334 38.3709C195.527 38.1158 195.873 38.0794 196.143 38.2616C206.653 45.6598 215.393 55.354 221.36 66.3603C227.636 77.8767 230.793 90.3407 230.793 103.388C230.793 103.679 230.523 103.935 230.215 103.935Z" fill="#3AAED5"/>
<path opacity="0.22" d="M190.715 35.9291C190.599 35.9291 190.484 35.8927 190.407 35.8562C188.674 34.7993 186.865 33.8153 185.055 32.9042C184.786 32.7584 184.67 32.4304 184.824 32.1753C184.978 31.9202 185.325 31.8109 185.594 31.9567C187.442 32.9042 189.252 33.8882 190.984 34.9451C191.254 35.0909 191.331 35.4553 191.177 35.7104C191.061 35.8198 190.907 35.9291 190.715 35.9291Z" fill="#3AAED5"/>
<path opacity="0.22" d="M181.59 31.1548C181.513 31.1548 181.436 31.1548 181.359 31.1184C170.002 26.0162 157.836 23.4286 145.208 23.4286C135.968 23.4286 126.843 24.8499 118.181 27.6197C117.873 27.729 117.565 27.5468 117.449 27.2917C117.334 27.0002 117.526 26.7086 117.796 26.5993C126.612 23.793 135.814 22.3717 145.208 22.3717C158.028 22.3717 170.387 24.9957 181.86 30.1708C182.129 30.3166 182.283 30.6082 182.129 30.8997C182.014 31.0455 181.783 31.1548 181.59 31.1548Z" fill="#3AAED5"/>
<path opacity="0.22" d="M244.46 103.934C244.152 103.934 243.883 103.679 243.883 103.388C243.883 93.1104 242.112 82.9788 238.685 73.321C238.57 73.0294 238.762 72.7379 239.032 72.6286C239.34 72.5192 239.648 72.7014 239.763 72.9566C243.267 82.7237 245.038 92.9646 245.038 103.351C245.038 103.679 244.768 103.934 244.46 103.934Z" fill="#3AAED5"/>
<path opacity="0.22" d="M237.145 68.4375C236.914 68.4375 236.683 68.2918 236.606 68.1095C229.638 51.9282 218.011 37.9335 203.034 27.6562C202.765 27.4739 202.726 27.1459 202.919 26.8908C203.111 26.6357 203.458 26.5993 203.727 26.7815C218.896 37.2046 230.639 51.3451 237.723 67.7087C237.838 68.0002 237.684 68.2918 237.415 68.4375C237.261 68.4375 237.184 68.4375 237.145 68.4375Z" fill="#3AAED5"/>
<path opacity="0.22" d="M197.645 24.1211C197.529 24.1211 197.452 24.0846 197.337 24.0482C181.706 14.8277 163.688 9.94417 145.169 9.94417C136.815 9.94417 128.538 10.9282 120.53 12.8597C120.222 12.9326 119.914 12.7504 119.837 12.4588C119.76 12.1673 119.952 11.8757 120.26 11.8028C128.345 9.83483 136.738 8.85083 145.169 8.85083C163.88 8.85083 182.168 13.7708 197.953 23.1371C198.222 23.2829 198.299 23.6473 198.145 23.9024C198.03 24.0482 197.837 24.1211 197.645 24.1211Z" fill="#3AAED5"/>
<path opacity="0.22" d="M101.511 19.4926C101.28 19.4926 101.087 19.3833 101.01 19.2011C100.856 18.946 100.972 18.618 101.28 18.4722C104.321 17.0508 107.478 15.7753 110.674 14.6819C110.982 14.5726 111.29 14.7184 111.405 15.0099C111.521 15.3015 111.367 15.593 111.059 15.7024C107.902 16.7957 104.783 18.0713 101.78 19.4562C101.703 19.4562 101.588 19.4926 101.511 19.4926Z" fill="#3AAED5"/>
<path opacity="0.22" d="M45.878 103.934C45.57 103.934 45.3005 103.679 45.3005 103.388C45.3005 86.5867 49.9975 70.1138 58.9295 55.7183C67.5919 41.7236 79.9504 30.0249 94.6958 21.8249C94.9653 21.6791 95.3118 21.752 95.5043 22.0071C95.6583 22.2622 95.5813 22.5902 95.3118 22.7725C65.1664 39.464 46.4555 70.3689 46.4555 103.388C46.4555 103.679 46.2245 103.934 45.878 103.934Z" fill="#3AAED5"/>
</g>
<path d="M177.493 63.2392H134.385V38.2806C134.385 37.0277 133.369 36.0117 132.116 36.0117H77.6627C76.4096 36.0117 75.3938 37.0277 75.3938 38.2806V149.909C75.3938 151.162 76.4096 152.178 77.6627 152.178H132.116H177.493C178.747 152.178 179.762 151.162 179.762 149.909V65.5081C179.762 64.255 178.746 63.2392 177.493 63.2392V63.2392ZM134.385 67.777H175.225V124.952H134.385V67.777ZM98.0826 147.64V129.489H111.696V147.64H98.0826ZM113.965 124.952H95.8137C94.5606 124.952 93.5449 125.968 93.5449 127.221V147.64H79.9316V40.5495H129.847V147.64H116.234V127.221C116.234 125.968 115.218 124.952 113.965 124.952ZM134.385 147.64V129.489H175.224V147.64H134.385Z" fill="#006AFF"/>
<path d="M102.62 51.8398H107.157C108.41 51.8398 109.426 50.824 109.426 49.5709V45.0332C109.426 43.7801 108.41 42.7643 107.157 42.7643H102.62C101.367 42.7643 100.351 43.7801 100.351 45.0332V49.5709C100.351 50.824 101.367 51.8398 102.62 51.8398V51.8398Z" fill="#006AFF"/>
<path d="M102.62 67.7219H107.157C108.41 67.7219 109.426 66.7061 109.426 65.453V60.9152C109.426 59.6621 108.41 58.6464 107.157 58.6464H102.62C101.367 58.6464 100.351 59.6621 100.351 60.9152V65.453C100.351 66.7061 101.367 67.7219 102.62 67.7219V67.7219Z" fill="#006AFF"/>
<path d="M102.62 83.6041H107.157C108.41 83.6041 109.426 82.5883 109.426 81.3352V76.7974C109.426 75.5443 108.41 74.5286 107.157 74.5286H102.62C101.367 74.5286 100.351 75.5443 100.351 76.7974V81.3352C100.351 82.5883 101.367 83.6041 102.62 83.6041V83.6041Z" fill="#006AFF"/>
<path d="M102.62 99.4859H107.157C108.41 99.4859 109.426 98.4702 109.426 97.217V92.6793C109.426 91.4262 108.41 90.4104 107.157 90.4104H102.62C101.367 90.4104 100.351 91.4262 100.351 92.6793V97.217C100.351 98.4702 101.367 99.4859 102.62 99.4859V99.4859Z" fill="#006AFF"/>
<path d="M102.62 115.368H107.157C108.41 115.368 109.426 114.352 109.426 113.099V108.561C109.426 107.308 108.41 106.292 107.157 106.292H102.62C101.367 106.292 100.351 107.308 100.351 108.561V113.099C100.351 114.352 101.367 115.368 102.62 115.368V115.368Z" fill="#006AFF"/>
<path d="M86.7386 51.8398H91.2757C92.5288 51.8398 93.5446 50.824 93.5446 49.5709V45.0332C93.5446 43.7801 92.5288 42.7643 91.2757 42.7643H86.7386C85.4855 42.7643 84.4697 43.7801 84.4697 45.0332V49.5709C84.4697 50.824 85.4855 51.8398 86.7386 51.8398Z" fill="#006AFF"/>
<path d="M86.7386 67.7219H91.2757C92.5288 67.7219 93.5446 66.7061 93.5446 65.453V60.9152C93.5446 59.6621 92.5288 58.6464 91.2757 58.6464H86.7386C85.4855 58.6464 84.4697 59.6621 84.4697 60.9152V65.453C84.4697 66.7061 85.4855 67.7219 86.7386 67.7219Z" fill="#006AFF"/>
<path d="M86.7386 83.6041H91.2757C92.5288 83.6041 93.5446 82.5883 93.5446 81.3352V76.7974C93.5446 75.5443 92.5288 74.5286 91.2757 74.5286H86.7386C85.4855 74.5286 84.4697 75.5443 84.4697 76.7974V81.3352C84.4697 82.5883 85.4855 83.6041 86.7386 83.6041Z" fill="#006AFF"/>
<path d="M86.7386 99.4859H91.2757C92.5288 99.4859 93.5446 98.4702 93.5446 97.217V92.6793C93.5446 91.4262 92.5288 90.4104 91.2757 90.4104H86.7386C85.4855 90.4104 84.4697 91.4262 84.4697 92.6793V97.217C84.4697 98.4702 85.4855 99.4859 86.7386 99.4859Z" fill="#006AFF"/>
<path d="M86.7386 115.368H91.2757C92.5288 115.368 93.5446 114.352 93.5446 113.099V108.561C93.5446 107.308 92.5288 106.292 91.2757 106.292H86.7386C85.4855 106.292 84.4697 107.308 84.4697 108.561V113.099C84.4697 114.352 85.4855 115.368 86.7386 115.368Z" fill="#006AFF"/>
<path d="M123.04 42.7643H118.503C117.25 42.7643 116.234 43.7801 116.234 45.0332V49.5709C116.234 50.824 117.25 51.8398 118.503 51.8398H123.04C124.293 51.8398 125.309 50.824 125.309 49.5709V45.0332C125.309 43.7801 124.293 42.7643 123.04 42.7643V42.7643Z" fill="#006AFF"/>
<path d="M123.04 58.6461H118.503C117.25 58.6461 116.234 59.6619 116.234 60.915V65.4528C116.234 66.7059 117.25 67.7216 118.503 67.7216H123.04C124.293 67.7216 125.309 66.7059 125.309 65.4528V60.915C125.309 59.6621 124.293 58.6461 123.04 58.6461Z" fill="#006AFF"/>
<path d="M123.04 74.5282H118.503C117.25 74.5282 116.234 75.544 116.234 76.7971V81.3348C116.234 82.5879 117.25 83.6037 118.503 83.6037H123.04C124.293 83.6037 125.309 82.5879 125.309 81.3348V76.7971C125.309 75.5442 124.293 74.5282 123.04 74.5282Z" fill="#006AFF"/>
<path d="M123.04 90.4104H118.503C117.25 90.4104 116.234 91.4262 116.234 92.6793V97.217C116.234 98.4702 117.25 99.4859 118.503 99.4859H123.04C124.293 99.4859 125.309 98.4702 125.309 97.217V92.6793C125.309 91.4264 124.293 90.4104 123.04 90.4104Z" fill="#006AFF"/>
<path d="M123.04 106.292H118.503C117.25 106.292 116.234 107.308 116.234 108.561V113.099C116.234 114.352 117.25 115.368 118.503 115.368H123.04C124.293 115.368 125.309 114.352 125.309 113.099V108.561C125.309 107.308 124.293 106.292 123.04 106.292Z" fill="#006AFF"/>
<path d="M165.014 74.5282H160.477C159.224 74.5282 158.208 75.544 158.208 76.7971V81.3348C158.208 82.5879 159.224 83.6037 160.477 83.6037H165.014C166.267 83.6037 167.283 82.5879 167.283 81.3348V76.7971C167.283 75.5442 166.267 74.5282 165.014 74.5282Z" fill="#006AFF"/>
<path d="M165.014 90.4104H160.477C159.224 90.4104 158.208 91.4262 158.208 92.6793V97.217C158.208 98.4702 159.224 99.4859 160.477 99.4859H165.014C166.267 99.4859 167.283 98.4702 167.283 97.217V92.6793C167.283 91.4264 166.267 90.4104 165.014 90.4104Z" fill="#006AFF"/>
<path d="M165.014 106.292H160.477C159.224 106.292 158.208 107.308 158.208 108.561V113.099C158.208 114.352 159.224 115.368 160.477 115.368H165.014C166.267 115.368 167.283 114.352 167.283 113.099V108.561C167.283 107.308 166.267 106.292 165.014 106.292Z" fill="#006AFF"/>
<path d="M149.132 74.5282H144.595C143.342 74.5282 142.326 75.544 142.326 76.7971V81.3348C142.326 82.5879 143.342 83.6037 144.595 83.6037H149.132C150.385 83.6037 151.401 82.5879 151.401 81.3348V76.7971C151.401 75.5442 150.385 74.5282 149.132 74.5282Z" fill="#006AFF"/>
<path d="M149.132 90.4104H144.595C143.342 90.4104 142.326 91.4262 142.326 92.6793V97.217C142.326 98.4702 143.342 99.4859 144.595 99.4859H149.132C150.385 99.4859 151.401 98.4702 151.401 97.217V92.6793C151.401 91.4264 150.385 90.4104 149.132 90.4104Z" fill="#006AFF"/>
<path d="M149.132 106.292H144.595C143.342 106.292 142.326 107.308 142.326 108.561V113.099C142.326 114.352 143.342 115.368 144.595 115.368H149.132C150.385 115.368 151.401 114.352 151.401 113.099V108.561C151.401 107.308 150.385 106.292 149.132 106.292Z" fill="#006AFF"/>
<path d="M174.399 53.0011H165.99C165.564 53.0011 165.219 52.6557 165.219 52.2297C165.219 51.8036 165.564 51.4583 165.99 51.4583H174.399C177.827 51.4583 180.724 48.6321 180.724 45.2869C180.724 40.9545 176.271 38.0721 172.334 39.4692C172.092 39.5549 171.824 39.515 171.618 39.3627C171.411 39.2104 171.294 38.9657 171.305 38.7096C171.509 33.8785 167.283 29.8585 162.519 29.8585C157.719 29.8585 153.527 33.8512 153.732 38.7096C153.743 38.9657 153.626 39.2105 153.42 39.3628C153.214 39.5151 152.945 39.555 152.704 39.4692C148.738 38.0616 144.313 40.9812 144.313 45.2869C144.313 48.6321 147.21 51.4583 150.639 51.4583H159.047C159.473 51.4583 159.819 51.8036 159.819 52.2297C159.819 52.6557 159.473 53.0011 159.047 53.0011H150.639C146.358 53.0011 142.77 49.536 142.77 45.2869C142.77 40.2848 147.511 36.763 152.203 37.7314C152.551 32.46 157.21 28.3157 162.519 28.3157C167.784 28.3157 172.479 32.4746 172.834 37.7316C177.522 36.7633 182.267 40.282 182.267 45.2869C182.267 49.5334 178.682 53.0011 174.399 53.0011V53.0011Z" fill="#006AFF"/>
<path d="M55.6453 30.9294C55.2193 30.9294 54.8739 30.5841 54.8739 30.158C54.8739 29.732 55.2193 29.3866 55.6453 29.3866C56.0714 29.3866 56.4167 29.732 56.4167 30.158C56.4167 30.5841 56.0714 30.9294 55.6453 30.9294Z" fill="#006AFF"/>
<path d="M67.5253 30.9295H59.1168C58.6909 30.9295 58.3454 30.5841 58.3454 30.158C58.3454 29.732 58.6909 29.3866 59.1168 29.3866H67.5253C70.9541 29.3866 73.851 26.5604 73.851 23.2153C73.851 18.8828 69.3976 16.0004 65.4605 17.3975C65.219 17.4832 64.9505 17.4433 64.7443 17.2911C64.5381 17.1388 64.421 16.8941 64.4318 16.6379C64.636 11.8069 60.4098 7.78686 55.6455 7.78686C50.8454 7.78686 46.6533 11.7796 46.8591 16.6379C46.87 16.894 46.7528 17.1389 46.5466 17.2911C46.3404 17.4434 46.0721 17.4833 45.8304 17.3976C41.8645 15.99 37.4399 18.9096 37.4399 23.2153C37.4399 26.5604 40.3368 29.3866 43.7656 29.3866H52.1741C52.6 29.3866 52.9455 29.732 52.9455 30.158C52.9455 30.5841 52.6 30.9295 52.1741 30.9295H43.7656C39.4847 30.9295 35.8971 27.4644 35.8971 23.2153C35.8971 18.2131 40.6382 14.6914 45.3297 15.6597C45.6774 10.3883 50.3365 6.24402 55.6455 6.24402C60.9111 6.24402 65.6057 10.4029 65.9603 15.66C70.6488 14.6917 75.3938 18.2104 75.3938 23.2153C75.3938 27.4618 71.8085 30.9295 67.5253 30.9295V30.9295Z" fill="#006AFF"/>
<path d="M105.047 19.3566C105.047 19.7819 105.263 20.1266 105.53 20.1266C106.339 20.1266 106.997 21.1748 106.997 22.4634C106.997 22.8886 107.213 23.2333 107.48 23.2333C107.747 23.2333 107.963 22.8886 107.963 22.4634C107.963 21.1748 108.621 20.1266 109.43 20.1266C109.697 20.1266 109.913 19.7819 109.913 19.3566C109.913 18.9314 109.697 18.5867 109.43 18.5867C108.633 18.5867 107.924 19.2005 107.48 20.147C107.036 19.2006 106.327 18.5867 105.53 18.5867C105.263 18.5867 105.047 18.9314 105.047 19.3566Z" fill="#006AFF"/>
<path d="M120.862 4.25496C120.862 4.6802 121.079 5.02494 121.346 5.02494C122.154 5.02494 122.812 6.07314 122.812 7.36168C122.812 7.78691 123.028 8.13166 123.295 8.13166C123.562 8.13166 123.779 7.78691 123.779 7.36168C123.779 6.07314 124.436 5.02494 125.245 5.02494C125.512 5.02494 125.728 4.6802 125.728 4.25496C125.728 3.82973 125.512 3.48499 125.245 3.48499C124.448 3.48499 123.739 4.09881 123.295 5.04527C122.851 4.09892 122.143 3.48499 121.346 3.48499C121.079 3.48499 120.862 3.82973 120.862 4.25496Z" fill="#006AFF"/>
</svg>
