<svg width="619" height="623" viewBox="0 0 619 623" fill="none" xmlns="http://www.w3.org/2000/svg">
<path opacity="0.3" d="M547.25 535.368C534.539 548.773 522.512 557.418 513.01 564.248C401.315 644.533 269.15 621.13 241.061 615.415C199.583 606.976 119.406 590.662 61.4399 522.374C-26.2582 419.059 -12.6024 256.29 55.4223 148.844C67.8651 129.19 133.591 20.1076 267.18 2.61402C348.026 -7.97282 442.267 13.3797 510.513 70.6582C653.769 190.892 643.571 433.784 547.25 535.368Z" fill="#006AFF" fill-opacity="0.15"/>
<path d="M323.647 129.73C308.745 129.613 293.713 131.976 280.414 137.494C249.456 150.339 223.183 184.327 233.465 219.043C236.805 230.321 235.05 242.763 246.285 247.664C252.364 250.316 268.918 251.894 275.212 249.804C291.941 244.25 302.937 229.048 293.839 212.191C290.925 206.792 287.154 201.861 284.638 196.266C282.122 190.671 280.976 184.03 283.541 178.457C288.576 167.518 305.303 164.041 316.15 164.369C328.953 164.756 340.554 171.089 347.444 181.952C356.031 195.491 358.206 211.959 356.949 227.675C355.604 244.491 348.514 257.333 337.888 270.234C328.739 281.34 318.664 292.002 312.584 305.043C307.002 317.016 305.177 330.282 304.925 343.38C304.876 345.919 292.251 369.844 292.305 377.153C292.313 378.186 306.624 381.607 307.657 381.618C313.045 381.679 328.308 381.849 333.925 381.912C335.081 381.925 336.033 381.002 336.046 379.846C336.446 344.286 347.384 310.383 375.073 286.5C385.148 277.81 395.998 270.733 403.832 259.764C414.998 244.131 420.507 228.745 418.917 209.45C417.465 191.829 411.663 174.197 400.176 160.525C387.83 145.83 369.761 136.653 350.981 132.693C342.223 130.846 332.961 129.804 323.647 129.73Z" fill="#006AFF" fill-opacity="0.5"/>
<path d="M351.129 421.777C351.129 438.129 342.064 452.596 325.712 452.596C322.18 452.596 310.165 452.629 307.024 451.494C295.624 447.376 295.583 438.618 295.583 425.798C295.583 409.446 301.105 393.364 317.458 393.364C333.81 393.364 351.129 405.425 351.129 421.777Z" fill="#006AFF" fill-opacity="0.5"/>
<path d="M309.487 126.004C294.585 125.887 279.553 128.25 266.254 133.768C235.296 146.613 209.023 180.601 219.305 215.317C222.645 226.595 230.367 240.791 241.602 245.692C247.681 248.344 254.758 248.168 261.052 246.078C277.782 240.524 288.778 225.322 279.679 208.465C276.766 203.066 272.995 198.135 270.479 192.54C267.963 186.945 266.816 180.304 269.381 174.731C274.416 163.792 291.143 160.315 301.991 160.643C314.794 161.03 326.394 167.363 333.284 178.226C341.871 191.765 344.046 208.233 342.789 223.949C341.445 240.765 334.354 253.607 323.728 266.507C314.579 277.614 304.505 288.275 298.424 301.317C292.842 313.29 291.018 326.556 290.765 339.654C290.717 342.193 291.571 368.705 291.625 376.014C291.633 377.046 292.465 377.881 293.497 377.892C298.886 377.952 314.148 378.123 319.766 378.186C320.921 378.199 321.873 377.275 321.886 376.12C322.286 340.559 333.224 306.656 360.913 282.774C370.988 274.083 381.838 267.007 389.673 256.038C400.838 240.404 406.347 225.019 404.757 205.724C403.305 188.103 397.503 170.471 386.016 156.799C373.671 142.104 355.601 132.927 336.822 128.967C328.064 127.12 318.801 126.078 309.487 126.004Z" fill="#006AFF" fill-opacity="0.8"/>
<path d="M311.031 451.679C327.384 451.679 340.64 438.423 340.64 422.071C340.64 405.719 327.384 392.462 311.031 392.462C294.679 392.462 281.423 405.719 281.423 422.071C281.423 438.423 294.679 451.679 311.031 451.679Z" fill="#1879FF"/>
<path d="M229.105 211.916C228.931 211.916 228.774 211.796 228.735 211.618C226.66 202.25 226.355 187.578 236.687 170.888C246.772 154.598 260.917 143.698 278.732 138.491C297.774 132.925 320.383 134.116 345.931 142.033C346.132 142.095 346.244 142.308 346.182 142.508C346.12 142.709 345.907 142.821 345.706 142.759C320.303 134.887 297.841 133.697 278.945 139.22C261.316 144.374 247.316 155.163 237.333 171.288C227.136 187.761 227.432 202.223 229.477 211.454C229.522 211.659 229.393 211.862 229.188 211.907C229.16 211.914 229.133 211.916 229.105 211.916Z" fill="white"/>
<path d="M235.333 226.99C235.216 226.99 235.101 226.936 235.026 226.834C234.936 226.712 232.803 223.764 230.819 218.571C230.744 218.375 230.842 218.156 231.038 218.081C231.234 218.006 231.453 218.104 231.528 218.3C233.476 223.398 235.618 226.357 235.64 226.386C235.763 226.556 235.726 226.793 235.557 226.917C235.49 226.967 235.411 226.99 235.333 226.99Z" fill="white"/>
<path d="M320.939 402.881C320.882 402.881 320.823 402.868 320.768 402.84C317.734 401.301 314.459 400.521 311.032 400.521C310.822 400.521 310.652 400.351 310.652 400.141C310.652 399.931 310.822 399.761 311.032 399.761C314.579 399.761 317.971 400.569 321.112 402.162C321.299 402.257 321.374 402.486 321.278 402.673C321.211 402.805 321.078 402.881 320.939 402.881Z" fill="white"/>
<path d="M298.769 440.637C298.696 440.637 298.622 440.616 298.557 440.571C292.398 436.411 288.721 429.495 288.721 422.071C288.721 413.842 293.228 406.307 300.483 402.407C300.668 402.307 300.898 402.377 300.998 402.562C301.097 402.747 301.028 402.977 300.843 403.076C293.834 406.843 289.481 414.122 289.481 422.071C289.481 429.242 293.033 435.922 298.983 439.942C299.156 440.059 299.202 440.295 299.085 440.469C299.011 440.578 298.891 440.637 298.769 440.637Z" fill="white"/>
<path d="M361.137 226.638L345.043 243.101L364.348 237.944L361.137 226.638Z" fill="white"/>
<g filter="url(#filter0_d)">
<path d="M456.897 233.453L365.452 237.891C363.103 238.005 361.137 236.132 361.137 233.781V196.16C361.137 192.071 364.384 188.721 368.472 188.594L450.888 186.044C457.025 186.044 462 191.019 462 197.157V228.096C462.001 230.957 459.755 233.314 456.897 233.453Z" fill="white"/>
</g>
<path opacity="0.85" d="M368.187 236.38C366.73 236.38 365.356 235.831 364.293 234.817C363.164 233.74 362.542 232.287 362.542 230.726V196.818C362.542 192.822 365.745 189.595 369.836 189.472L449.633 187.062C455.681 187.062 460.596 191.861 460.596 197.76V226.993C460.596 229.806 458.343 232.117 455.466 232.253L368.463 236.373C368.371 236.378 368.279 236.38 368.187 236.38ZM449.639 187.458L369.848 189.868C365.973 189.985 362.938 193.038 362.938 196.818V230.726C362.938 232.177 363.516 233.528 364.567 234.53C365.617 235.532 366.995 236.044 368.444 235.977L455.448 231.857L455.457 232.055L455.448 231.857C458.113 231.731 460.2 229.594 460.2 226.993V197.76C460.2 192.08 455.462 187.458 449.639 187.458Z" fill="white"/>
<path opacity="0.94" d="M449.372 194.319L376.251 197.055C375.533 197.082 374.968 197.558 374.991 198.116L375.019 198.758C375.042 199.31 375.634 199.734 376.345 199.708L449.469 197.038C450.188 197.012 450.754 196.535 450.73 195.977L450.7 195.268C450.676 194.716 450.083 194.292 449.372 194.319Z" fill="#006AFF" fill-opacity="0.5"/>
<path opacity="0.94" d="M442.828 212.83L369.706 215.553C368.988 215.579 368.424 216.071 368.449 216.649L368.477 217.315C368.502 217.886 369.094 218.326 369.805 218.3L442.93 215.647C443.648 215.621 444.214 215.128 444.189 214.55L444.157 213.816C444.133 213.243 443.54 212.803 442.828 212.83Z" fill="#006AFF" fill-opacity="0.5"/>
<path opacity="0.94" d="M451.371 220.574L369.856 223.651C369.055 223.682 368.424 224.181 368.448 224.764L368.477 225.437C368.502 226.014 369.161 226.456 369.953 226.426L451.471 223.418C452.272 223.389 452.904 222.889 452.879 222.305L452.848 221.563C452.823 220.986 452.163 220.544 451.371 220.574Z" fill="#006AFF" fill-opacity="0.5"/>
<path opacity="0.94" d="M409.281 205.232L369.427 206.394C369.035 206.405 368.743 206.942 368.775 207.591L368.812 208.338C368.843 208.979 369.181 209.488 369.569 209.478L409.427 208.393C409.818 208.383 410.111 207.845 410.079 207.196L410.039 206.372C410.007 205.73 409.669 205.221 409.281 205.232Z" fill="#006AFF" fill-opacity="0.5"/>
<path opacity="0.94" d="M453.195 203.855L415.525 204.935C415.155 204.945 414.881 205.482 414.913 206.13L414.95 206.877C414.982 207.518 415.303 208.028 415.669 208.018L453.343 207.016C453.713 207.006 453.988 206.469 453.956 205.82L453.915 204.996C453.883 204.354 453.562 203.844 453.195 203.855Z" fill="#006AFF" fill-opacity="0.5"/>
<path d="M222.287 440.954C222.287 440.954 221.534 445.221 221.164 449.445C221.02 451.096 222.292 452.529 223.948 452.599C229.573 452.833 241.606 453.288 245.923 453.096C246.572 453.067 246.997 452.402 246.757 451.798C246.555 451.293 246.167 450.884 245.672 450.656L225.797 441.522L222.287 440.954Z" fill="black"/>
<path d="M221.669 438.447L222.275 443.552C222.275 443.552 225.757 445.172 228.134 443.347L226.692 437.659L221.669 438.447Z" fill="url(#paint0_linear)"/>
<path d="M222.124 342.489C221.863 343.822 220.72 409.004 227.688 438.214C227.801 438.691 227.56 439.182 227.106 439.367C226.038 439.804 223.943 440.436 221.432 440.521C220.654 440.547 219.957 440.041 219.738 439.295C217.746 432.518 208.203 398.562 206.958 366.125C205.567 329.879 206.958 364.89 206.958 364.89L207.774 342.486L222.124 342.489Z" fill="#467BFB"/>
<path d="M199.424 443.181C199.424 443.181 198.224 445.335 197.062 451.059C196.852 452.093 197.575 453.082 198.625 453.186C200.482 453.368 203.341 453.603 205.632 453.587C206.688 453.58 207.512 452.661 207.385 451.612C207.131 449.523 206.341 446.095 203.899 443.423L199.424 443.181Z" fill="black"/>
<path d="M198.37 436.615L199.785 444.334C199.785 444.334 201.184 445.375 203.952 444.62L203.276 436.315L198.37 436.615Z" fill="url(#paint1_linear)"/>
<path d="M194.547 344.488C188.849 378.879 195.783 429.488 198.122 439.393C198.265 439.999 198.755 440.464 199.369 440.566C200.413 440.739 202.132 440.88 203.826 440.388C204.41 440.219 204.82 439.692 204.844 439.084C205.158 431.076 204.593 381.914 209.903 362.485C210.172 361.5 210.773 360.641 211.605 360.05L221.911 352.723L222.701 340.881L194.547 344.488Z" fill="#467BFB"/>
<path d="M230.859 279.326C213.781 279.044 194.939 283.81 194.939 283.81C189.848 313.512 194.048 347.771 194.048 347.771C207.269 351.238 222.183 345.651 222.183 345.651C224.38 333.237 234.633 298.297 234.633 298.297C242.977 297.262 249.85 294.855 255.511 291.672C251.193 286.667 249.158 280.299 248.273 276.534C242.235 278.41 236.126 279.413 230.859 279.326Z" fill="#444444"/>
<path d="M281.302 254.172C279.624 252.145 277.501 253.104 277.501 253.104C274.988 263.719 261.811 272.327 248.273 276.534C249.157 280.298 251.193 286.667 255.511 291.671C277.977 279.039 281.302 254.172 281.302 254.172Z" fill="url(#paint2_linear)"/>
<path d="M280.894 254.686C281.07 255.245 279.037 256.094 277.84 253.812C277.798 252.718 277.133 248.032 277.787 247.141C281.268 242.395 288.017 236.446 288.017 236.446C289.157 237.571 288.218 238.677 288.218 238.677L284.944 242.088C285.628 243.325 286.464 244.37 286.855 245.867C287.152 247 286.97 248.212 286.398 249.243C285.823 250.279 285.039 251.625 284.298 252.678C282.895 254.671 280.894 254.686 280.894 254.686Z" fill="url(#paint3_linear)"/>
<path d="M283.511 244.301L280.527 246.831L279.591 249.349L282.251 252.3C282.251 252.3 283.145 247.303 283.81 246.222C284.475 245.14 284.13 244.617 283.511 244.301Z" fill="url(#paint4_linear)"/>
<path d="M201.488 300.344L194.938 283.809C194.938 283.809 178.987 294.647 176.364 308.388C179.378 308.61 184.862 309.394 190.23 312.105C191.41 305.616 201.488 300.344 201.488 300.344Z" fill="#444444"/>
<path d="M215.428 315.904C215.428 315.904 197.519 326.025 191.476 317.383C190.221 315.588 189.921 313.805 190.23 312.105C184.862 309.394 179.378 308.61 176.364 308.388C175.573 312.531 175.991 316.937 178.425 321.39C189.01 340.752 217.798 320.32 217.798 320.32L215.428 315.904Z" fill="url(#paint5_linear)"/>
<path d="M213.275 328.71L223.05 294.577C223.16 294.189 223.491 293.907 223.891 293.86C225.662 293.654 230.794 293.073 236.718 292.572C243.855 291.969 252.142 291.479 257.095 291.896C257.799 291.955 258.224 292.699 257.911 293.333C255.095 299.03 243.511 322.207 237.71 329.799C237.517 330.051 237.22 330.198 236.904 330.195L214.226 329.984C213.567 329.978 213.094 329.345 213.275 328.71Z" fill="#6D6D6D"/>
<path d="M237.733 289.613L244.819 288.432C245.196 288.369 245.506 288.73 245.386 289.093L244.684 291.219C244.623 291.404 244.462 291.538 244.269 291.564L237.449 292.475C237.097 292.522 236.806 292.201 236.887 291.854L237.321 289.999C237.368 289.799 237.53 289.647 237.733 289.613Z" fill="#F4F9FF"/>
<path d="M232.426 295.612L233.01 292.571C233.069 292.266 233.321 292.036 233.63 292.004L247.942 290.552C248.424 290.503 248.81 290.945 248.697 291.415L247.787 295.205C247.714 295.508 247.45 295.727 247.139 295.742L233.152 296.447C232.697 296.47 232.341 296.06 232.426 295.612Z" fill="#F4F9FF"/>
<path d="M215.637 320.463C215.637 320.463 214.276 314.864 214.825 312.878C215.374 310.892 216.438 308.338 219.985 308.906C223.532 309.473 227.716 310.967 227.716 310.967C227.716 310.967 227.505 313.554 224.809 312.72L226.481 314.013C226.481 314.013 226.242 316.085 223.965 314.978L225.52 316.693C225.52 316.693 224.542 318.395 222.866 317.304C221.191 316.212 220.388 321.137 215.637 320.463Z" fill="url(#paint6_linear)"/>
<path d="M213.561 265.461L208.127 281.175C208.037 281.435 208.144 281.723 208.385 281.857C209.866 282.676 215.203 285.043 221.633 280.966C222.303 280.541 222.759 279.848 222.861 279.061L224.621 265.461H213.561Z" fill="url(#paint7_linear)"/>
<path d="M225.383 250.91C225.383 250.91 231.349 262.142 230.585 266.679C229.82 271.216 222.425 270.89 215.967 267.205L211.455 255.077L225.383 250.91Z" fill="url(#paint8_linear)"/>
<path d="M216.253 261.249C216.516 261.132 216.612 260.811 216.455 260.571C215.977 259.841 215.081 258.351 214.795 257.047C214.795 257.047 213.723 256.36 217.525 255.449C221.328 254.539 226.999 253.126 228.191 249.89C229.353 246.734 226.3 238.797 221.428 245.121C221.243 245.361 220.88 245.367 220.695 245.126C219.896 244.087 217.796 241.929 214.882 243.237C212.154 244.461 211.846 246.46 211.884 247.468C211.895 247.764 211.63 247.994 211.339 247.939C209.96 247.676 206.65 247.45 205.105 250.845C203.833 253.641 204.66 255.225 205.413 255.999C205.657 256.25 205.55 256.663 205.215 256.765C204.309 257.042 203.139 257.811 203.256 259.935C203.418 262.87 206.7 262.612 207.635 262.478C207.788 262.456 207.942 262.509 208.046 262.623C208.847 263.51 212.457 267.275 216.365 267.729C216.703 267.768 216.965 267.434 216.854 267.112L215.163 262.197C215.085 261.968 215.194 261.718 215.415 261.62L216.253 261.249Z" fill="#263238"/>
<path d="M216.933 261.947C216.933 261.947 212.685 259.032 212.374 261.487C212.064 263.942 216.2 265.043 218.249 264.127L216.933 261.947Z" fill="url(#paint9_linear)"/>
<defs>
<filter id="filter0_d" x="341.137" y="170.044" width="140.864" height="91.8522" filterUnits="userSpaceOnUse" color-interpolation-filters="sRGB">
<feFlood flood-opacity="0" result="BackgroundImageFix"/>
<feColorMatrix in="SourceAlpha" type="matrix" values="0 0 0 0 0 0 0 0 0 0 0 0 0 0 0 0 0 0 127 0"/>
<feOffset dy="4"/>
<feGaussianBlur stdDeviation="10"/>
<feColorMatrix type="matrix" values="0 0 0 0 0 0 0 0 0 0 0 0 0 0 0 0 0 0 0.1 0"/>
<feBlend mode="normal" in2="BackgroundImageFix" result="effect1_dropShadow"/>
<feBlend mode="normal" in="SourceGraphic" in2="effect1_dropShadow" result="shape"/>
</filter>
<linearGradient id="paint0_linear" x1="221.669" y1="440.937" x2="228.134" y2="440.937" gradientUnits="userSpaceOnUse">
<stop stop-color="#F9B776"/>
<stop offset="1" stop-color="#F47960"/>
</linearGradient>
<linearGradient id="paint1_linear" x1="198.37" y1="440.605" x2="203.952" y2="440.605" gradientUnits="userSpaceOnUse">
<stop stop-color="#F9B776"/>
<stop offset="1" stop-color="#F47960"/>
</linearGradient>
<linearGradient id="paint2_linear" x1="276.209" y1="233.793" x2="264.802" y2="266.383" gradientUnits="userSpaceOnUse">
<stop stop-color="#F9B776"/>
<stop offset="1" stop-color="#F47960"/>
</linearGradient>
<linearGradient id="paint3_linear" x1="285.957" y1="237.205" x2="274.551" y2="269.795" gradientUnits="userSpaceOnUse">
<stop stop-color="#F9B776"/>
<stop offset="1" stop-color="#F47960"/>
</linearGradient>
<linearGradient id="paint4_linear" x1="277.194" y1="258.027" x2="285.786" y2="240.695" gradientUnits="userSpaceOnUse">
<stop stop-color="#F9B776"/>
<stop offset="1" stop-color="#F47960"/>
</linearGradient>
<linearGradient id="paint5_linear" x1="176" y1="319.057" x2="217.798" y2="319.057" gradientUnits="userSpaceOnUse">
<stop stop-color="#F9B776"/>
<stop offset="1" stop-color="#F47960"/>
</linearGradient>
<linearGradient id="paint6_linear" x1="214.694" y1="314.676" x2="227.716" y2="314.676" gradientUnits="userSpaceOnUse">
<stop stop-color="#F9B776"/>
<stop offset="1" stop-color="#F47960"/>
</linearGradient>
<linearGradient id="paint7_linear" x1="208.095" y1="274.373" x2="224.621" y2="274.373" gradientUnits="userSpaceOnUse">
<stop stop-color="#F9B776"/>
<stop offset="1" stop-color="#F47960"/>
</linearGradient>
<linearGradient id="paint8_linear" x1="228.55" y1="263.861" x2="210.38" y2="252.778" gradientUnits="userSpaceOnUse">
<stop stop-color="#F9B776"/>
<stop offset="1" stop-color="#F47960"/>
</linearGradient>
<linearGradient id="paint9_linear" x1="223.778" y1="267.994" x2="207.431" y2="258.023" gradientUnits="userSpaceOnUse">
<stop stop-color="#F9B776"/>
<stop offset="1" stop-color="#F47960"/>
</linearGradient>
</defs>
</svg>
