<svg width="248" height="39" viewBox="0 0 248 39" fill="none" xmlns="http://www.w3.org/2000/svg">
<path d="M4.725 18.625V12.95H7.875C10.1 12.95 11.1 14 11.1 15.8C11.1 17.55 10.1 18.625 7.875 18.625H4.725ZM14.025 15.8C14.025 12.975 12 10.625 7.875 10.625H1.875V28H4.725V20.95H7.875C12.4 20.95 14.025 18.275 14.025 15.8ZM28.4682 15.825C28.4682 17.55 27.4682 18.775 25.2432 18.775H22.0932V12.95H25.2432C27.4682 12.95 28.4682 14.075 28.4682 15.825ZM19.2432 10.625V28H22.0932V21.05H24.2682L28.2682 28H31.6682L27.3682 20.8C30.2932 20.075 31.3932 17.875 31.3932 15.825C31.3932 13 29.3682 10.625 25.2432 10.625H19.2432ZM37.5391 28H40.3891V10.625H37.5391V28ZM45.6809 19.275C45.6809 24.5 49.6559 28.15 54.5559 28.15C58.1809 28.15 61.3059 26.35 62.6309 22.95H59.2059C58.2809 24.8 56.6309 25.675 54.5559 25.675C51.1059 25.675 48.6059 23.2 48.6059 19.275C48.6059 15.35 51.1059 12.9 54.5559 12.9C56.6309 12.9 58.2809 13.775 59.2059 15.625H62.6309C61.3059 12.225 58.1809 10.4 54.5559 10.4C49.6559 10.4 45.6809 14.075 45.6809 19.275ZM68.4668 28H71.3168V10.625H68.4668V28ZM88.9836 10.6V23.55L80.4086 10.6H77.5586V28H80.4086V15.025L88.9836 28H91.8336V10.6H88.9836ZM106.001 10.4C101.101 10.4 97.1262 14.075 97.1262 19.275C97.1262 24.5 101.101 28.15 106.001 28.15C110.676 28.15 114.076 24.725 114.601 20.7V18.475H105.026V20.75H111.551C111.126 23.675 109.151 25.575 106.001 25.575C102.551 25.575 100.051 23.1 100.051 19.275C100.051 15.45 102.551 13 106.001 13C108.076 13 109.726 13.875 110.651 15.625H114.076C112.751 12.225 109.626 10.4 106.001 10.4Z" fill="#006AFF"/>
<path d="M160.875 28H163.725V16.1L169.05 28H171.025L176.325 16.1V28H179.175V10.625H176.125L170.05 24.25L163.95 10.625H160.875V28ZM195.021 10.6H185.421V28H195.021V25.675H188.271V20.35H194.271V18.025H188.271V12.925H195.021V10.6ZM200.131 12.95H204.781V28H207.631V12.95H212.256V10.625H200.131V12.95ZM227.243 10.6H217.643V28H227.243V25.675H220.493V20.35H226.493V18.025H220.493V12.925H227.243V10.6ZM242.478 15.825C242.478 17.55 241.478 18.775 239.253 18.775H236.103V12.95H239.253C241.478 12.95 242.478 14.075 242.478 15.825ZM233.253 10.625V28H236.103V21.05H238.278L242.278 28H245.678L241.378 20.8C244.303 20.075 245.403 17.875 245.403 15.825C245.403 13 243.378 10.625 239.253 10.625H233.253Z" fill="#006AFF"/>
<path d="M152 21.6071C152 24.8467 150.988 27.9218 149.072 30.5005C148.694 31.0095 147.984 31.1082 147.485 30.7245C146.986 30.3401 146.888 29.6166 147.265 29.1085C148.881 26.934 149.734 24.34 149.734 21.6071C149.734 14.7211 144.258 9.15488 137.5 9.15488C130.737 9.15488 125.266 14.7253 125.266 21.6071C125.266 24.34 126.119 26.934 127.735 29.1085C128.112 29.6166 128.014 30.3401 127.515 30.7245C127.016 31.1089 126.305 31.0086 125.928 30.5005C124.012 27.9218 123 24.8467 123 21.6071C123 13.4453 129.49 6.84766 137.5 6.84766C145.515 6.84766 152 13.4498 152 21.6071ZM144.678 14.6596C145.12 15.11 145.12 15.8404 144.678 16.2908L140.985 20.0511C141.289 20.6218 141.462 21.2752 141.462 21.9688C141.462 24.1938 139.685 26.0037 137.5 26.0037C135.315 26.0037 133.538 24.1938 133.538 21.9688C133.538 19.744 135.315 17.9338 137.5 17.9338C138.181 17.9338 138.823 18.11 139.383 18.4196L143.076 14.6593C143.518 14.2089 144.235 14.2089 144.678 14.6596ZM139.197 21.969C139.197 21.0164 138.435 20.2413 137.5 20.2413C136.565 20.2413 135.803 21.0164 135.803 21.969C135.803 22.9216 136.565 23.6967 137.5 23.6967C138.435 23.6967 139.197 22.9216 139.197 21.969Z" fill="#006AFF"/>
</svg>
