<svg width="13" height="13" viewBox="0 0 13 13" fill="none" xmlns="http://www.w3.org/2000/svg">
<path d="M6.5 0C10.0928 0 13 2.9074 13 6.5C13 10.0928 10.0926 13 6.5 13C2.90715 13 0 10.0926 0 6.5C0 2.90715 2.90743 0 6.5 0ZM6.5 11.9844C9.53146 11.9844 11.9844 9.53126 11.9844 6.5C11.9844 3.46854 9.53126 1.01562 6.5 1.01562C3.46854 1.01562 1.01562 3.46874 1.01562 6.5C1.01562 9.53146 3.46877 11.9844 6.5 11.9844Z" fill="#006AFF"/>
<path d="M6.5 5.44189C6.78046 5.44189 7.00781 5.66924 7.00781 5.94971V9.21984C7.00781 9.50031 6.78046 9.72765 6.5 9.72765C6.21954 9.72765 5.99219 9.50028 5.99219 9.21982V5.94971C5.99219 5.66924 6.21954 5.44189 6.5 5.44189Z" fill="#006AFF"/>
<path d="M6.5 4.82032C6.12138 4.82032 5.81445 4.51339 5.81445 4.13477C5.81445 3.75615 6.12138 3.44922 6.5 3.44922C6.87862 3.44922 7.18555 3.75615 7.18555 4.13477C7.18555 4.51339 6.87862 4.82032 6.5 4.82032Z" fill="#006AFF"/>
</svg>
