<svg width="78" height="78" viewBox="0 0 78 78" fill="none" xmlns="http://www.w3.org/2000/svg">
<path d="M47.2266 28.9453C46.3856 28.9453 45.7031 29.6278 45.7031 30.4688C45.7031 31.3097 46.3856 31.9922 47.2266 31.9922C48.0675 31.9922 48.75 31.3097 48.75 30.4688C48.75 29.6278 48.0675 28.9453 47.2266 28.9453Z" fill="#4E82F9"/>
<path d="M76.2147 67.5978L55.8798 47.263C59.1926 42.2731 60.9375 36.4947 60.9375 30.4688C60.9375 13.6683 47.2692 0 30.4688 0C13.6683 0 0 13.6683 0 30.4688C0 47.2692 13.6683 60.9375 30.4688 60.9375C36.4949 60.9375 42.2733 59.1924 47.263 55.88L52.8837 61.5007C52.8845 61.5015 52.8852 61.5022 52.8861 61.5032L67.5977 76.2147C68.7491 77.3659 70.2791 78 71.9062 78C73.5334 78 75.0634 77.3659 76.2142 76.2151C77.3658 75.0645 78 73.5343 78 71.9062C78 70.2782 77.3658 68.748 76.2147 67.5978ZM46.5465 52.6693C46.5465 52.6695 46.5463 52.6695 46.5462 52.6697C41.8438 56.0852 36.2845 57.8906 30.4688 57.8906C15.3483 57.8906 3.04688 45.5892 3.04688 30.4688C3.04688 15.3483 15.3483 3.04688 30.4688 3.04688C45.5892 3.04688 57.8906 15.3483 57.8906 30.4688C57.8906 36.2845 56.0852 41.8438 52.6695 46.5463C50.9607 48.9005 48.9007 50.9607 46.5465 52.6693ZM49.7427 54.0505C51.3194 52.7606 52.7608 51.3193 54.0505 49.7427L58.3726 54.0648C57.0582 55.6161 55.6161 57.0584 54.0648 58.3726L49.7427 54.0505ZM74.0602 74.0602C73.4844 74.6361 72.7195 74.9531 71.9062 74.9531C71.093 74.9531 70.3281 74.6361 69.7523 74.0602L56.2249 60.5329C57.7677 59.2089 59.2089 57.7678 60.5327 56.225L74.0605 69.7529C74.6361 70.3278 74.9531 71.0924 74.9531 71.9062C74.9531 72.7201 74.6361 73.4847 74.0602 74.0602Z" fill="#4E82F9"/>
<path d="M30.4688 6.09375C17.0282 6.09375 6.09375 17.0282 6.09375 30.4688C6.09375 43.9093 17.0282 54.8438 30.4688 54.8438C43.9093 54.8438 54.8438 43.9093 54.8438 30.4688C54.8438 17.0282 43.9093 6.09375 30.4688 6.09375ZM30.4688 51.7969C18.7084 51.7969 9.14062 42.2291 9.14062 30.4688C9.14062 18.7084 18.7084 9.14062 30.4688 9.14062C42.2291 9.14062 51.7969 18.7084 51.7969 30.4688C51.7969 42.2291 42.2291 51.7969 30.4688 51.7969Z" fill="#4E82F9"/>
<path d="M47.5412 23.9291C46.2293 20.5148 43.9452 17.5956 40.9355 15.4873C37.8542 13.3286 34.2348 12.1875 30.4688 12.1875C29.6275 12.1875 28.9453 12.8697 28.9453 13.7109C28.9453 14.5522 29.6275 15.2344 30.4688 15.2344C36.7299 15.2344 42.4477 19.1676 44.6971 25.022C44.9298 25.6277 45.5071 25.9994 46.1195 25.9994C46.3011 25.9994 46.4859 25.9667 46.6655 25.8977C47.4508 25.5959 47.843 24.7146 47.5412 23.9291Z" fill="#4E82F9"/>
</svg>
