<svg width="28" height="28" viewBox="0 0 28 28" fill="none" xmlns="http://www.w3.org/2000/svg">
<path d="M27.9372 17.0113V27.3183H21.9615V17.7021C21.9615 15.2876 21.0988 13.6387 18.9351 13.6387C17.284 13.6387 16.3031 14.7488 15.87 15.8237C15.7126 16.2078 15.6721 16.7413 15.6721 17.2801V27.3179H9.69595C9.69595 27.3179 9.77616 11.0312 9.69595 9.34529H15.6725V11.8922C15.6605 11.9122 15.6436 11.9318 15.6329 11.951H15.6725V11.8922C16.4667 10.6702 17.883 8.92327 21.0582 8.92327C24.9897 8.92327 27.9372 11.492 27.9372 17.0113ZM3.44439 0.681885C1.4002 0.681885 0.0628052 2.02373 0.0628052 3.78672C0.0628052 5.51227 1.36142 6.89289 3.36595 6.89289H3.40472C5.48902 6.89289 6.78497 5.51227 6.78497 3.78672C6.74531 2.02373 5.48902 0.681885 3.44439 0.681885ZM0.417987 27.3183H6.39191V9.34529H0.417987V27.3183Z" fill="#F1F2F2"/>
</svg>
