<svg width="27" height="27" viewBox="0 0 27 27" fill="none" xmlns="http://www.w3.org/2000/svg">
<g clip-path="url(#clip0)">
<path d="M25.5192 3.88271C24.5698 2.9326 23.2816 2.39898 21.9385 2.39943C20.5958 2.39626 19.3076 2.92971 18.3603 3.88107L11.8236 10.4178C10.5303 11.7131 10.0359 13.6051 10.5302 15.3676C10.675 15.8807 11.2082 16.1793 11.7213 16.0346C12.2344 15.8898 12.533 15.3566 12.3883 14.8435C12.0836 13.7535 12.3893 12.584 13.1885 11.7827L19.7251 5.24694C20.9472 4.02456 22.9289 4.02433 24.1513 5.24648C25.3737 6.46858 25.3739 8.45025 24.1518 9.67263L17.6151 16.2093C17.1868 16.6382 16.6427 16.933 16.0495 17.0578C15.5276 17.1664 15.1926 17.6776 15.3013 18.1995C15.3947 18.6483 15.7909 18.9694 16.2493 18.968C16.3167 18.968 16.384 18.9609 16.4501 18.9468C17.4088 18.7446 18.2878 18.2677 18.98 17.5742L25.5167 11.0385C27.4934 9.06316 27.4945 5.85946 25.5192 3.88271Z" fill="#1E90FF"/>
<path d="M16.4415 11.6588C16.2967 11.1457 15.7635 10.8471 15.2504 10.9918C14.7373 11.1365 14.4386 11.6698 14.5834 12.1829C14.8881 13.2728 14.5824 14.4424 13.7832 15.2437L7.24649 21.7804C6.02439 23.0028 4.04273 23.003 2.82035 21.7809C1.59797 20.5588 1.59774 18.5771 2.81984 17.3547L9.35655 10.817C9.78424 10.3882 10.3276 10.0934 10.9203 9.96856C11.443 9.86399 11.782 9.35548 11.6774 8.83277C11.5729 8.31007 11.0644 7.971 10.5417 8.07558C10.5353 8.07688 10.5289 8.07818 10.5226 8.07959C9.56372 8.28201 8.68436 8.75891 7.9917 9.45219L1.45499 15.9889C-0.506204 17.9803 -0.481658 21.1846 1.50979 23.1458C3.47953 25.0855 6.64133 25.0857 8.61134 23.1462L15.148 16.6085C16.4414 15.3132 16.9358 13.4212 16.4415 11.6588Z" fill="#1E90FF"/>
</g>
<defs>
<clipPath id="clip0">
<rect width="27" height="27" fill="white"/>
</clipPath>
</defs>
</svg>
