<svg width="27" height="29" viewBox="0 0 27 29" fill="none" xmlns="http://www.w3.org/2000/svg">
<path d="M18.0427 3.99972C18.0427 6.20485 16.2507 7.99679 14.0456 7.99679C11.8378 7.99679 10.0477 6.20485 10.0477 3.99972C10.0477 1.79194 11.8387 0 14.0456 0C16.2525 0 18.0427 1.79194 18.0427 3.99972ZM14.0483 24.5428C12.8194 24.541 11.8201 25.5349 11.8166 26.7665C11.8139 27.9998 12.807 28.9991 14.0376 29.0009C15.2701 29.0044 16.2694 28.0105 16.2711 26.7789C16.2756 25.5456 15.2798 24.5463 14.0483 24.5428ZM26.8862 15.3853C26.8862 14.582 26.2354 13.9303 25.4312 13.9303C24.6261 13.9303 23.9736 14.5794 23.9736 15.3853C23.9736 16.1869 24.6235 16.8421 25.4312 16.8421C26.2345 16.8412 26.8862 16.1886 26.8862 15.3853ZM5.20207 15.3853C5.20207 13.98 4.0636 12.8406 2.65735 12.8406C1.25111 12.8406 0.113525 13.98 0.113525 15.3853C0.113525 16.7898 1.25111 17.9292 2.65735 17.9292C4.0636 17.9292 5.20207 16.7898 5.20207 15.3853ZM22.906 6.5205C22.4591 6.07185 21.7365 6.07362 21.2879 6.5205C20.8401 6.96915 20.8401 7.69798 21.2879 8.14486C21.7365 8.59351 22.4591 8.59351 22.906 8.14486C23.3529 7.69621 23.3529 6.96915 22.906 6.5205ZM7.84254 21.5937C6.82111 20.5776 5.16572 20.5776 4.14517 21.592C3.12462 22.6081 3.12374 24.2626 4.14517 25.2805C5.1666 26.2983 6.82111 26.3001 7.84077 25.2805C8.86398 24.2652 8.86397 22.6116 7.84254 21.5937ZM23.1623 24.4993C23.7457 23.9123 23.7457 22.9618 23.1605 22.3749C22.5771 21.7915 21.6301 21.7915 21.0458 22.3784C20.4624 22.9636 20.4624 23.9141 21.0458 24.502C21.6319 25.0863 22.5771 25.0863 23.1623 24.4993ZM7.90816 9.24521C8.96151 8.19097 8.96151 6.47971 7.90816 5.42281C6.8548 4.36858 5.14621 4.36858 4.09108 5.42281C3.03773 6.47705 3.03773 8.18831 4.09197 9.24521C5.14621 10.3021 6.85392 10.3012 7.90816 9.24521Z" fill="#FFA502"/>
</svg>
