<svg width="13" height="13" viewBox="0 0 13 13" fill="none" xmlns="http://www.w3.org/2000/svg">
<path d="M2.4375 12.1875H7.3125C7.52792 12.1873 7.73446 12.1016 7.88679 11.9493C8.03911 11.797 8.12478 11.5904 8.125 11.375V10.1562H7.3125V11.375H2.4375V1.625H7.3125V2.84375H8.125V1.625C8.12478 1.40958 8.03911 1.20304 7.88679 1.05071C7.73446 0.898387 7.52792 0.812715 7.3125 0.8125H2.4375C2.22208 0.812715 2.01554 0.898387 1.86321 1.05071C1.71089 1.20304 1.62522 1.40958 1.625 1.625V11.375C1.62522 11.5904 1.71089 11.797 1.86321 11.9493C2.01554 12.1016 2.22208 12.1873 2.4375 12.1875Z" fill="#FF7F50"/>
<path d="M8.36306 8.36306L9.81988 6.90625H4.0625V6.09375H9.81988L8.36306 4.63694L8.9375 4.0625L11.375 6.5L8.9375 8.9375L8.36306 8.36306Z" fill="#FF7F50"/>
</svg>
