<svg width="23" height="23" viewBox="0 0 23 23" fill="none" xmlns="http://www.w3.org/2000/svg">
<path d="M3.36914 12.0459H5.62053C5.92695 12.0459 6.22361 12.0877 6.50595 12.1647C7.06289 11.0699 8.19995 10.3176 9.51019 10.3176H13.4898C14.8001 10.3176 15.9371 11.0699 16.4941 12.1647C16.7764 12.0877 17.0731 12.0459 17.3795 12.0459H19.6309C21.4886 12.0459 23 13.5573 23 15.415V19.0141C23 20.1287 22.0932 21.0355 20.9785 21.0355H2.02148C0.906837 21.0355 0 20.1287 0 19.0141V15.415C0 13.5573 1.5114 12.0459 3.36914 12.0459ZM16.859 13.6869V19.6879H20.9785C21.3501 19.6879 21.6523 19.3856 21.6523 19.0141V15.415C21.6523 14.3004 20.7455 13.3936 19.6309 13.3936H17.3795C17.1965 13.3936 17.0194 13.4184 16.8508 13.4642C16.8556 13.5379 16.859 13.612 16.859 13.6869ZM7.4887 19.6879H15.5113V13.6868C15.5113 12.5722 14.6045 11.6653 13.4898 11.6653H9.51019C8.39554 11.6653 7.4887 12.5722 7.4887 13.6868V19.6879ZM1.34766 19.0141C1.34766 19.3856 1.64993 19.6879 2.02148 19.6879H6.14104V13.6868C6.14104 13.6119 6.14437 13.5378 6.14922 13.4641C5.98058 13.4184 5.80346 13.3935 5.62053 13.3935H3.36914C2.25449 13.3935 1.34766 14.3004 1.34766 15.415V19.0141Z" fill="white"/>
<path d="M18.5052 5.68286C20.156 5.68286 21.499 7.02589 21.499 8.67672C21.4991 10.3276 20.156 11.6706 18.5052 11.6706C16.8544 11.6706 15.5113 10.3276 15.5113 8.67672C15.5113 7.02589 16.8543 5.68286 18.5052 5.68286ZM18.5052 10.3229C19.4129 10.3229 20.1514 9.58446 20.1514 8.67672C20.1514 7.76899 19.4129 7.03052 18.5052 7.03052C17.5975 7.03052 16.859 7.76899 16.859 8.67672C16.859 9.58446 17.5975 10.3229 18.5052 10.3229Z" fill="white"/>
<path d="M11.4998 1.96436C13.7052 1.96436 15.4995 3.75862 15.4995 5.96411C15.4995 8.16959 13.7052 9.96386 11.4998 9.96386C9.29427 9.96386 7.50001 8.16959 7.50001 5.96411C7.50001 3.75867 9.29427 1.96436 11.4998 1.96436ZM11.4998 8.61621C12.9621 8.61621 14.1519 7.4265 14.1519 5.96411C14.1519 4.50177 12.9621 3.31201 11.4998 3.31201C10.0374 3.31201 8.84766 4.50172 8.84766 5.96411C8.84766 7.4265 10.0374 8.61621 11.4998 8.61621Z" fill="white"/>
<path d="M4.49491 5.68286C6.1457 5.68286 7.48877 7.02589 7.48877 8.67672C7.48872 10.3276 6.1457 11.6706 4.49491 11.6706C2.84407 11.6706 1.50104 10.3276 1.50104 8.67672C1.50104 7.02589 2.84407 5.68286 4.49491 5.68286ZM4.49491 10.3229C5.4026 10.3229 6.14111 9.58446 6.14111 8.67672C6.14107 7.76899 5.4026 7.03052 4.49491 7.03052C3.58717 7.03052 2.8487 7.76899 2.8487 8.67672C2.8487 9.58446 3.58717 10.3229 4.49491 10.3229Z" fill="white"/>
</svg>
