<svg width="479" height="395" viewBox="0 0 479 395" fill="none" xmlns="http://www.w3.org/2000/svg">
<path d="M119.203 154.939L120.713 148.051C120.713 148.051 125.656 151.195 128.539 155.687C131.423 160.179 132.796 172.156 133.62 172.605C134.444 173.055 143.567 158.963 145.161 156.743C147.133 153.996 147.871 150.842 149.108 148.446C150.342 146.05 154.695 145.236 156.343 145.536C157.991 145.835 154.079 152.842 154.079 152.842C154.079 152.842 144.192 170.06 140.897 179.493C137.601 188.927 127.304 193.419 125.656 192.071C124.009 190.724 119.203 154.939 119.203 154.939Z" fill="#F48C7F"/>
<path d="M149.217 149.765C149.217 149.765 149.628 147.952 150.739 147.583C151.85 147.211 153.78 147.54 153.904 147.583C154.028 147.625 156.166 146.469 156.166 146.469L154.399 149.765C154.399 149.765 150.947 153.843 149.796 152.32C148.643 150.797 149.217 149.765 149.217 149.765Z" fill="#F7A491"/>
<path d="M156.782 146.621C156.782 146.621 158.028 152.98 157.713 154.311C157.398 155.647 156.602 154.931 156.453 154.641C155.839 153.446 155.412 149.368 155.412 149.368L156.782 146.621Z" fill="#F48C7F"/>
<path d="M154.095 151.909C154.095 151.909 154.69 155.853 155.302 156.317C155.699 156.618 156.205 156.441 156.371 155.643C156.534 154.847 155.575 149.983 155.575 149.983L154.095 151.909Z" fill="#F48C7F"/>
<path d="M150.461 163.099L148.391 162.088L157.181 144.015C158.324 144.574 158.798 145.954 158.24 147.101L150.461 163.099Z" fill="#184655"/>
<path d="M128.378 126.617C129.619 120.964 130.833 115.276 127.563 109.067C124.917 104.041 120.342 101.149 115.049 100.52C100.046 98.7349 103.253 112.775 82.285 115.815C75.7686 116.76 69.7168 117.668 64.2764 120.915C54.4552 126.781 50.7466 136.188 57.2606 151.518C73.2107 189.051 112.362 157.187 117.198 149.798C120.795 144.298 127.58 130.255 128.378 126.617Z" fill="#13375B"/>
<path d="M68.3817 363.7C68.3817 363.7 67.3128 374.573 64.5681 376.569C61.8211 378.564 58.1591 385.951 59.9912 389.945C60.5631 391.192 61.7067 391.915 63.0113 392.315C66.8693 393.506 70.9747 391.5 72.6155 387.804C73.5327 385.738 74.3379 382.984 74.4989 379.512C74.912 370.677 77.6567 366.185 77.6567 366.185L68.3817 363.7Z" fill="#F7A491"/>
<path d="M110.581 368.15C110.581 368.15 111.447 379.121 110.745 382.687C110.369 384.596 108.273 388.527 109.235 390.323C110.196 392.12 111.293 392.57 111.293 392.57L136.203 392.97C137.559 392.991 136.663 392.118 135.568 391.313C133.778 389.996 132.334 389.126 126.613 386.358C126.24 386.178 124.881 385.314 124.391 385.015C123.15 384.257 121.901 383.061 120.827 381.866C119.04 379.874 118.883 370.212 118.883 370.212L110.581 368.15Z" fill="#F7A491"/>
<path d="M130.051 222.316C130.051 222.316 133.188 240.13 131.127 251.808C129.068 263.485 119.182 371.732 119.182 371.732L108.196 372.352C108.196 372.352 105.893 327.136 106.306 320.847C106.719 314.558 109.977 304.036 109.977 304.036L108.882 267.528L122.746 219.567L130.051 222.316Z" fill="#3C8F7C"/>
<path d="M97.7636 218.568C97.7636 218.568 89.1141 231.593 87.0532 242.374C84.9947 253.153 88.5656 286.283 84.6026 300.41C82.4577 308.056 74.3287 319.867 73.094 329.747C71.8594 339.627 67.0118 365.511 67.0118 365.511L77.9929 367.689L103.512 303.047L123.53 244.618L128.656 214.528L97.7636 218.568Z" fill="#50BFA5"/>
<path d="M104.765 144.459C104.765 144.459 97.1893 145.32 92.6592 150.261C88.129 155.203 99.9831 194.919 100.807 201.205C101.631 207.494 94.0549 222.162 94.0549 222.162C94.0549 222.162 122.361 227.405 130.049 222.314C130.049 222.314 130.873 177.097 130.049 172.605C129.225 168.113 122.358 149.847 120.711 148.051C119.065 146.254 104.765 144.459 104.765 144.459Z" fill="white"/>
<path d="M94.0549 153.989C94.7854 151.775 97.2874 150.711 99.4229 151.635C102.347 152.903 106.385 155.308 108.357 159.431C111.653 166.319 123.187 189.975 126.756 190.874C130.326 191.772 144.881 166.319 144.881 166.319C144.881 166.319 144.47 161.826 145.705 159.281C146.939 156.735 150.648 154.04 151.196 154.939C151.745 155.837 149.138 158.083 149.138 158.532C149.138 158.981 150.237 159.281 151.747 158.382C153.257 157.484 154.077 155.668 154.077 155.668C154.077 155.668 156.553 160.179 153.946 164.222C151.337 168.265 150.24 169.912 150.24 169.912C150.24 169.912 133.351 207.495 127.171 207.944C121.413 208.36 88.2714 171.513 94.0549 153.989Z" fill="#F7A491"/>
<path d="M108.579 129.148C108.579 129.148 108.521 129.485 108.413 130.061C107.902 132.814 105.937 141.953 104.609 144.466C103.003 147.503 110.105 157.185 116.939 156.003C118.974 155.652 115.219 147.105 115.399 146.2C115.744 144.468 116.213 142.103 116.692 139.679C116.963 138.313 117.236 136.925 117.492 135.622C118.223 131.918 118.82 128.891 118.82 128.891L108.579 129.148Z" fill="#F7A491"/>
<path d="M108.413 130.058C108.521 129.485 108.579 129.146 108.579 129.146L118.82 128.891C118.82 128.891 118.223 131.918 117.492 135.622C117.236 136.918 116.965 138.296 116.696 139.656C115.116 139.422 113.464 138.654 111.807 137.204C110 135.622 108.817 133.722 108.103 131.691C108.229 131.046 108.334 130.487 108.413 130.058Z" fill="#F47458"/>
<path d="M114.741 104.746C114.741 104.746 110.563 105.326 107.538 109.242C104.511 113.159 101.25 125.267 108.768 131.848C116.286 138.432 123.712 130.98 124.814 123.079C125.913 115.178 125.691 104.46 114.741 104.746Z" fill="#F7A491"/>
<path d="M127.218 120.379C126.321 122.125 124.814 123.091 123.854 122.536C122.895 121.984 122.842 120.12 123.74 118.376C124.636 116.631 126.144 115.665 127.103 116.219C128.063 116.771 128.114 118.634 127.218 120.379Z" fill="#F7A491"/>
<path d="M116.012 104.563C116.012 104.563 109.564 116.077 104.95 116.61C100.335 117.141 99.731 123.259 99.731 123.259C99.731 123.259 101.381 109.161 105.949 106.442C110.514 103.723 116.012 104.563 116.012 104.563Z" fill="#13375B"/>
<path d="M106.457 119.352C106.833 121.397 106.077 123.271 104.772 123.54C103.465 123.809 102.102 122.368 101.729 120.323C101.353 118.278 102.109 116.404 103.414 116.135C104.719 115.868 106.082 117.307 106.457 119.352Z" fill="#F7A491"/>
<path d="M73.3623 385.859C67.3781 386.952 63.3964 383.449 61.3239 380.827C59.8022 383.796 58.8709 387.504 59.9889 389.944C60.9738 392.095 63.6578 392.682 65.9241 392.766C68.321 392.855 70.5639 391.599 71.7519 389.509C72.3097 388.534 72.8838 387.319 73.3623 385.859Z" fill="#3C8F7C"/>
<path d="M124.389 385.01C117.8 386.702 112.932 385.55 110.208 384.453C109.506 386.444 108.574 388.943 109.069 390.384C109.674 392.148 110.535 392.548 111.296 392.567C117.313 392.726 133.337 392.939 137.926 393C138.568 393.009 138.92 392.258 138.507 391.767C137.368 390.408 124.879 385.309 124.389 385.01Z" fill="#3C8F7C"/>
<path fill-rule="evenodd" clip-rule="evenodd" d="M10 0C4.47715 0 0 4.47715 0 10V66C0 71.5229 4.47715 76 10 76H127.526L122 92.6209L138.078 76H182C187.523 76 192 71.5229 192 66V10C192 4.47715 187.523 0 182 0H10Z" fill="#006AFF"/>
<path d="M32.4731 20.804H35.5281V22H30.9911V12.965H32.4731V20.804ZM39.8745 22.117C39.1985 22.117 38.5875 21.9653 38.0415 21.662C37.4955 21.35 37.0665 20.9167 36.7545 20.362C36.4425 19.7987 36.2865 19.1487 36.2865 18.412C36.2865 17.684 36.4468 17.0383 36.7675 16.475C37.0881 15.9117 37.5258 15.4783 38.0805 15.175C38.6351 14.8717 39.2548 14.72 39.9395 14.72C40.6241 14.72 41.2438 14.8717 41.7985 15.175C42.3531 15.4783 42.7908 15.9117 43.1115 16.475C43.4321 17.0383 43.5925 17.684 43.5925 18.412C43.5925 19.14 43.4278 19.7857 43.0985 20.349C42.7691 20.9123 42.3185 21.35 41.7465 21.662C41.1831 21.9653 40.5591 22.117 39.8745 22.117ZM39.8745 20.83C40.2558 20.83 40.6111 20.739 40.9405 20.557C41.2785 20.375 41.5515 20.102 41.7595 19.738C41.9675 19.374 42.0715 18.932 42.0715 18.412C42.0715 17.892 41.9718 17.4543 41.7725 17.099C41.5731 16.735 41.3088 16.462 40.9795 16.28C40.6501 16.098 40.2948 16.007 39.9135 16.007C39.5321 16.007 39.1768 16.098 38.8475 16.28C38.5268 16.462 38.2711 16.735 38.0805 17.099C37.8898 17.4543 37.7945 17.892 37.7945 18.412C37.7945 19.1833 37.9895 19.7813 38.3795 20.206C38.7781 20.622 39.2765 20.83 39.8745 20.83ZM48.1645 22.117C47.4885 22.117 46.8775 21.9653 46.3315 21.662C45.7855 21.35 45.3565 20.9167 45.0445 20.362C44.7325 19.7987 44.5765 19.1487 44.5765 18.412C44.5765 17.684 44.7369 17.0383 45.0575 16.475C45.3782 15.9117 45.8159 15.4783 46.3705 15.175C46.9252 14.8717 47.5449 14.72 48.2295 14.72C48.9142 14.72 49.5339 14.8717 50.0885 15.175C50.6432 15.4783 51.0809 15.9117 51.4015 16.475C51.7222 17.0383 51.8825 17.684 51.8825 18.412C51.8825 19.14 51.7179 19.7857 51.3885 20.349C51.0592 20.9123 50.6085 21.35 50.0365 21.662C49.4732 21.9653 48.8492 22.117 48.1645 22.117ZM48.1645 20.83C48.5459 20.83 48.9012 20.739 49.2305 20.557C49.5685 20.375 49.8415 20.102 50.0495 19.738C50.2575 19.374 50.3615 18.932 50.3615 18.412C50.3615 17.892 50.2619 17.4543 50.0625 17.099C49.8632 16.735 49.5989 16.462 49.2695 16.28C48.9402 16.098 48.5849 16.007 48.2035 16.007C47.8222 16.007 47.4669 16.098 47.1375 16.28C46.8169 16.462 46.5612 16.735 46.3705 17.099C46.1799 17.4543 46.0845 17.892 46.0845 18.412C46.0845 19.1833 46.2795 19.7813 46.6695 20.206C47.0682 20.622 47.5665 20.83 48.1645 20.83ZM56.1816 18.425L59.4836 22H57.4816L54.8296 18.919V22H53.3476V12.38H54.8296V17.97L57.4296 14.837H59.4836L56.1816 18.425ZM61.2998 13.888C61.0311 13.888 60.8058 13.797 60.6238 13.615C60.4418 13.433 60.3508 13.2077 60.3508 12.939C60.3508 12.6703 60.4418 12.445 60.6238 12.263C60.8058 12.081 61.0311 11.99 61.2998 11.99C61.5598 11.99 61.7808 12.081 61.9628 12.263C62.1448 12.445 62.2358 12.6703 62.2358 12.939C62.2358 13.2077 62.1448 13.433 61.9628 13.615C61.7808 13.797 61.5598 13.888 61.2998 13.888ZM62.0278 14.837V22H60.5458V14.837H62.0278ZM67.5875 14.72C68.1509 14.72 68.6535 14.837 69.0955 15.071C69.5462 15.305 69.8972 15.6517 70.1485 16.111C70.3999 16.5703 70.5255 17.125 70.5255 17.775V22H69.0565V17.996C69.0565 17.3547 68.8962 16.865 68.5755 16.527C68.2549 16.1803 67.8172 16.007 67.2625 16.007C66.7079 16.007 66.2659 16.1803 65.9365 16.527C65.6159 16.865 65.4555 17.3547 65.4555 17.996V22H63.9735V14.837H65.4555V15.656C65.6982 15.3613 66.0059 15.1317 66.3785 14.967C66.7599 14.8023 67.1629 14.72 67.5875 14.72ZM75.3019 14.72C75.8566 14.72 76.3463 14.8327 76.7709 15.058C77.2043 15.2747 77.5423 15.5477 77.7849 15.877V14.837H79.2799V22.117C79.2799 22.7757 79.1413 23.3607 78.8639 23.872C78.5866 24.392 78.1836 24.7993 77.6549 25.094C77.1349 25.3887 76.5109 25.536 75.7829 25.536C74.8123 25.536 74.0063 25.3063 73.3649 24.847C72.7236 24.3963 72.3596 23.781 72.2729 23.001H73.7419C73.8546 23.3737 74.0929 23.6727 74.4569 23.898C74.8296 24.132 75.2716 24.249 75.7829 24.249C76.3809 24.249 76.8619 24.067 77.2259 23.703C77.5986 23.339 77.7849 22.8103 77.7849 22.117V20.921C77.5336 21.259 77.1913 21.545 76.7579 21.779C76.3333 22.0043 75.8479 22.117 75.3019 22.117C74.6779 22.117 74.1059 21.961 73.5859 21.649C73.0746 21.3283 72.6673 20.8863 72.3639 20.323C72.0693 19.751 71.9219 19.1053 71.9219 18.386C71.9219 17.6667 72.0693 17.0297 72.3639 16.475C72.6673 15.9203 73.0746 15.4913 73.5859 15.188C74.1059 14.876 74.6779 14.72 75.3019 14.72ZM77.7849 18.412C77.7849 17.918 77.6809 17.489 77.4729 17.125C77.2736 16.761 77.0093 16.4837 76.6799 16.293C76.3506 16.1023 75.9953 16.007 75.6139 16.007C75.2326 16.007 74.8773 16.1023 74.5479 16.293C74.2186 16.475 73.9499 16.748 73.7419 17.112C73.5426 17.4673 73.4429 17.892 73.4429 18.386C73.4429 18.88 73.5426 19.3133 73.7419 19.686C73.9499 20.0587 74.2186 20.3447 74.5479 20.544C74.8859 20.7347 75.2413 20.83 75.6139 20.83C75.9953 20.83 76.3506 20.7347 76.6799 20.544C77.0093 20.3533 77.2736 20.076 77.4729 19.712C77.6809 19.3393 77.7849 18.906 77.7849 18.412ZM84.1094 18.386C84.1094 17.6667 84.2568 17.0297 84.5514 16.475C84.8548 15.9203 85.2621 15.4913 85.7734 15.188C86.2934 14.876 86.8654 14.72 87.4894 14.72C88.0528 14.72 88.5424 14.8327 88.9584 15.058C89.3831 15.2747 89.7211 15.5477 89.9724 15.877V14.837H91.4674V22H89.9724V20.934C89.7211 21.272 89.3788 21.5537 88.9454 21.779C88.5121 22.0043 88.0181 22.117 87.4634 22.117C86.8481 22.117 86.2848 21.961 85.7734 21.649C85.2621 21.3283 84.8548 20.8863 84.5514 20.323C84.2568 19.751 84.1094 19.1053 84.1094 18.386ZM89.9724 18.412C89.9724 17.918 89.8684 17.489 89.6604 17.125C89.4611 16.761 89.1968 16.4837 88.8674 16.293C88.5381 16.1023 88.1828 16.007 87.8014 16.007C87.4201 16.007 87.0648 16.1023 86.7354 16.293C86.4061 16.475 86.1374 16.748 85.9294 17.112C85.7301 17.4673 85.6304 17.892 85.6304 18.386C85.6304 18.88 85.7301 19.3133 85.9294 19.686C86.1374 20.0587 86.4061 20.3447 86.7354 20.544C87.0734 20.7347 87.4288 20.83 87.8014 20.83C88.1828 20.83 88.5381 20.7347 88.8674 20.544C89.1968 20.3533 89.4611 20.076 89.6604 19.712C89.8684 19.3393 89.9724 18.906 89.9724 18.412ZM95.143 16.046V20.011C95.143 20.2797 95.2036 20.4747 95.325 20.596C95.455 20.7087 95.6716 20.765 95.975 20.765H96.885V22H95.715C95.0476 22 94.5363 21.844 94.181 21.532C93.8256 21.22 93.648 20.713 93.648 20.011V16.046H92.803V14.837H93.648V13.056H95.143V14.837H96.885V16.046H95.143ZM110.299 14.72C110.862 14.72 111.365 14.837 111.807 15.071C112.257 15.305 112.608 15.6517 112.86 16.111C113.12 16.5703 113.25 17.125 113.25 17.775V22H111.781V17.996C111.781 17.3547 111.62 16.865 111.3 16.527C110.979 16.1803 110.541 16.007 109.987 16.007C109.432 16.007 108.99 16.1803 108.661 16.527C108.34 16.865 108.18 17.3547 108.18 17.996V22H106.711V17.996C106.711 17.3547 106.55 16.865 106.23 16.527C105.909 16.1803 105.471 16.007 104.917 16.007C104.362 16.007 103.92 16.1803 103.591 16.527C103.27 16.865 103.11 17.3547 103.11 17.996V22H101.628V14.837H103.11V15.656C103.352 15.3613 103.66 15.1317 104.033 14.967C104.405 14.8023 104.804 14.72 105.229 14.72C105.801 14.72 106.312 14.8413 106.763 15.084C107.213 15.3267 107.56 15.6777 107.803 16.137C108.019 15.7037 108.357 15.3613 108.817 15.11C109.276 14.85 109.77 14.72 110.299 14.72ZM121.584 14.837L117.19 25.367H115.656L117.112 21.883L114.291 14.837H115.942L117.957 20.297L120.05 14.837H121.584ZM127.561 12.38V22H126.079V12.38H127.561ZM129.013 18.386C129.013 17.6667 129.16 17.0297 129.455 16.475C129.758 15.9203 130.165 15.4913 130.677 15.188C131.197 14.876 131.769 14.72 132.393 14.72C132.956 14.72 133.446 14.8327 133.862 15.058C134.286 15.2747 134.624 15.5477 134.876 15.877V14.837H136.371V22H134.876V20.934C134.624 21.272 134.282 21.5537 133.849 21.779C133.415 22.0043 132.921 22.117 132.367 22.117C131.751 22.117 131.188 21.961 130.677 21.649C130.165 21.3283 129.758 20.8863 129.455 20.323C129.16 19.751 129.013 19.1053 129.013 18.386ZM134.876 18.412C134.876 17.918 134.772 17.489 134.564 17.125C134.364 16.761 134.1 16.4837 133.771 16.293C133.441 16.1023 133.086 16.007 132.705 16.007C132.323 16.007 131.968 16.1023 131.639 16.293C131.309 16.475 131.041 16.748 130.833 17.112C130.633 17.4673 130.534 17.892 130.534 18.386C130.534 18.88 130.633 19.3133 130.833 19.686C131.041 20.0587 131.309 20.3447 131.639 20.544C131.977 20.7347 132.332 20.83 132.705 20.83C133.086 20.83 133.441 20.7347 133.771 20.544C134.1 20.3533 134.364 20.076 134.564 19.712C134.772 19.3393 134.876 18.906 134.876 18.412ZM140.046 16.046V20.011C140.046 20.2797 140.107 20.4747 140.228 20.596C140.358 20.7087 140.575 20.765 140.878 20.765H141.788V22H140.618C139.951 22 139.44 21.844 139.084 21.532C138.729 21.22 138.551 20.713 138.551 20.011V16.046H137.706V14.837H138.551V13.056H140.046V14.837H141.788V16.046H140.046ZM149.719 18.243C149.719 18.5117 149.702 18.7543 149.667 18.971H144.194C144.238 19.543 144.45 20.0023 144.831 20.349C145.213 20.6957 145.681 20.869 146.235 20.869C147.033 20.869 147.596 20.5353 147.925 19.868H149.524C149.308 20.5267 148.913 21.0683 148.341 21.493C147.778 21.909 147.076 22.117 146.235 22.117C145.551 22.117 144.935 21.9653 144.389 21.662C143.852 21.35 143.427 20.9167 143.115 20.362C142.812 19.7987 142.66 19.1487 142.66 18.412C142.66 17.6753 142.808 17.0297 143.102 16.475C143.406 15.9117 143.826 15.4783 144.363 15.175C144.909 14.8717 145.533 14.72 146.235 14.72C146.911 14.72 147.514 14.8673 148.042 15.162C148.571 15.4567 148.983 15.8727 149.277 16.41C149.572 16.9387 149.719 17.5497 149.719 18.243ZM148.172 17.775C148.164 17.229 147.969 16.7913 147.587 16.462C147.206 16.1327 146.734 15.968 146.17 15.968C145.659 15.968 145.221 16.1327 144.857 16.462C144.493 16.7827 144.277 17.2203 144.207 17.775H148.172ZM153.778 22.117C153.214 22.117 152.707 22.0173 152.257 21.818C151.815 21.61 151.464 21.3327 151.204 20.986C150.944 20.6307 150.805 20.2363 150.788 19.803H152.322C152.348 20.1063 152.491 20.362 152.751 20.57C153.019 20.7693 153.353 20.869 153.752 20.869C154.168 20.869 154.488 20.791 154.714 20.635C154.948 20.4703 155.065 20.2623 155.065 20.011C155.065 19.7423 154.935 19.543 154.675 19.413C154.423 19.283 154.02 19.14 153.466 18.984C152.928 18.8367 152.491 18.6937 152.153 18.555C151.815 18.4163 151.52 18.204 151.269 17.918C151.026 17.632 150.905 17.255 150.905 16.787C150.905 16.4057 151.017 16.059 151.243 15.747C151.468 15.4263 151.789 15.175 152.205 14.993C152.629 14.811 153.115 14.72 153.661 14.72C154.475 14.72 155.13 14.928 155.624 15.344C156.126 15.7513 156.395 16.3103 156.43 17.021H154.948C154.922 16.7003 154.792 16.4447 154.558 16.254C154.324 16.0633 154.007 15.968 153.609 15.968C153.219 15.968 152.92 16.0417 152.712 16.189C152.504 16.3363 152.4 16.5313 152.4 16.774C152.4 16.9647 152.469 17.125 152.608 17.255C152.746 17.385 152.915 17.489 153.115 17.567C153.314 17.6363 153.609 17.7273 153.999 17.84C154.519 17.9787 154.943 18.1217 155.273 18.269C155.611 18.4077 155.901 18.6157 156.144 18.893C156.386 19.1703 156.512 19.5387 156.521 19.998C156.521 20.4053 156.408 20.7693 156.183 21.09C155.957 21.4107 155.637 21.662 155.221 21.844C154.813 22.026 154.332 22.117 153.778 22.117ZM159.851 16.046V20.011C159.851 20.2797 159.912 20.4747 160.033 20.596C160.163 20.7087 160.38 20.765 160.683 20.765H161.593V22H160.423C159.756 22 159.244 21.844 158.889 21.532C158.534 21.22 158.356 20.713 158.356 20.011V16.046H157.511V14.837H158.356V13.056H159.851V14.837H161.593V16.046H159.851ZM30.2061 35.656C30.2061 36.1153 30.0978 36.5487 29.8811 36.956C29.6644 37.3633 29.3178 37.697 28.8411 37.957C28.3644 38.2083 27.7534 38.334 27.0081 38.334H25.3701V42H23.8881V32.965H27.0081C27.7014 32.965 28.2864 33.0863 28.7631 33.329C29.2484 33.563 29.6081 33.8837 29.8421 34.291C30.0848 34.6983 30.2061 35.1533 30.2061 35.656ZM27.0081 37.125C27.5714 37.125 27.9918 36.9993 28.2691 36.748C28.5464 36.488 28.6851 36.124 28.6851 35.656C28.6851 34.668 28.1261 34.174 27.0081 34.174H25.3701V37.125H27.0081ZM33.1015 35.877C33.3182 35.513 33.6042 35.2313 33.9595 35.032C34.3235 34.824 34.7525 34.72 35.2465 34.72V36.254H34.8695C34.2889 36.254 33.8469 36.4013 33.5435 36.696C33.2489 36.9907 33.1015 37.502 33.1015 38.23V42H31.6195V34.837H33.1015V35.877ZM37.3628 33.888C37.0941 33.888 36.8688 33.797 36.6868 33.615C36.5048 33.433 36.4138 33.2077 36.4138 32.939C36.4138 32.6703 36.5048 32.445 36.6868 32.263C36.8688 32.081 37.0941 31.99 37.3628 31.99C37.6228 31.99 37.8438 32.081 38.0258 32.263C38.2078 32.445 38.2988 32.6703 38.2988 32.939C38.2988 33.2077 38.2078 33.433 38.0258 33.615C37.8438 33.797 37.6228 33.888 37.3628 33.888ZM38.0908 34.837V42H36.6088V34.837H38.0908ZM39.5425 38.412C39.5425 37.6753 39.6899 37.0297 39.9845 36.475C40.2879 35.9117 40.7039 35.4783 41.2325 35.175C41.7612 34.8717 42.3679 34.72 43.0525 34.72C43.9192 34.72 44.6342 34.928 45.1975 35.344C45.7695 35.7513 46.1552 36.3363 46.3545 37.099H44.7555C44.6255 36.7437 44.4175 36.4663 44.1315 36.267C43.8455 36.0677 43.4859 35.968 43.0525 35.968C42.4459 35.968 41.9605 36.1847 41.5965 36.618C41.2412 37.0427 41.0635 37.6407 41.0635 38.412C41.0635 39.1833 41.2412 39.7857 41.5965 40.219C41.9605 40.6523 42.4459 40.869 43.0525 40.869C43.9105 40.869 44.4782 40.492 44.7555 39.738H46.3545C46.1465 40.466 45.7565 41.0467 45.1845 41.48C44.6125 41.9047 43.9019 42.117 43.0525 42.117C42.3679 42.117 41.7612 41.9653 41.2325 41.662C40.7039 41.35 40.2879 40.9167 39.9845 40.362C39.6899 39.7987 39.5425 39.1487 39.5425 38.412ZM48.5854 33.888C48.3168 33.888 48.0914 33.797 47.9094 33.615C47.7274 33.433 47.6364 33.2077 47.6364 32.939C47.6364 32.6703 47.7274 32.445 47.9094 32.263C48.0914 32.081 48.3168 31.99 48.5854 31.99C48.8454 31.99 49.0664 32.081 49.2484 32.263C49.4304 32.445 49.5214 32.6703 49.5214 32.939C49.5214 33.2077 49.4304 33.433 49.2484 33.615C49.0664 33.797 48.8454 33.888 48.5854 33.888ZM49.3134 34.837V42H47.8314V34.837H49.3134ZM54.8732 34.72C55.4365 34.72 55.9392 34.837 56.3812 35.071C56.8318 35.305 57.1828 35.6517 57.4342 36.111C57.6855 36.5703 57.8112 37.125 57.8112 37.775V42H56.3422V37.996C56.3422 37.3547 56.1818 36.865 55.8612 36.527C55.5405 36.1803 55.1028 36.007 54.5482 36.007C53.9935 36.007 53.5515 36.1803 53.2222 36.527C52.9015 36.865 52.7412 37.3547 52.7412 37.996V42H51.2592V34.837H52.7412V35.656C52.9838 35.3613 53.2915 35.1317 53.6642 34.967C54.0455 34.8023 54.4485 34.72 54.8732 34.72ZM62.5876 34.72C63.1422 34.72 63.6319 34.8327 64.0566 35.058C64.4899 35.2747 64.8279 35.5477 65.0706 35.877V34.837H66.5656V42.117C66.5656 42.7757 66.4269 43.3607 66.1496 43.872C65.8722 44.392 65.4692 44.7993 64.9406 45.094C64.4206 45.3887 63.7966 45.536 63.0686 45.536C62.0979 45.536 61.2919 45.3063 60.6506 44.847C60.0092 44.3963 59.6452 43.781 59.5586 43.001H61.0276C61.1402 43.3737 61.3786 43.6727 61.7426 43.898C62.1152 44.132 62.5572 44.249 63.0686 44.249C63.6666 44.249 64.1476 44.067 64.5116 43.703C64.8842 43.339 65.0706 42.8103 65.0706 42.117V40.921C64.8192 41.259 64.4769 41.545 64.0436 41.779C63.6189 42.0043 63.1336 42.117 62.5876 42.117C61.9636 42.117 61.3916 41.961 60.8716 41.649C60.3602 41.3283 59.9529 40.8863 59.6496 40.323C59.3549 39.751 59.2076 39.1053 59.2076 38.386C59.2076 37.6667 59.3549 37.0297 59.6496 36.475C59.9529 35.9203 60.3602 35.4913 60.8716 35.188C61.3916 34.876 61.9636 34.72 62.5876 34.72ZM65.0706 38.412C65.0706 37.918 64.9666 37.489 64.7586 37.125C64.5592 36.761 64.2949 36.4837 63.9656 36.293C63.6362 36.1023 63.2809 36.007 62.8996 36.007C62.5182 36.007 62.1629 36.1023 61.8336 36.293C61.5042 36.475 61.2356 36.748 61.0276 37.112C60.8282 37.4673 60.7286 37.892 60.7286 38.386C60.7286 38.88 60.8282 39.3133 61.0276 39.686C61.2356 40.0587 61.5042 40.3447 61.8336 40.544C62.1716 40.7347 62.5269 40.83 62.8996 40.83C63.2809 40.83 63.6362 40.7347 63.9656 40.544C64.2949 40.3533 64.5592 40.076 64.7586 39.712C64.9666 39.3393 65.0706 38.906 65.0706 38.412ZM81.4051 32.965V42H79.9231V35.812L77.1671 42H76.1401L73.3711 35.812V42H71.8891V32.965H73.4881L76.6601 40.05L79.8191 32.965H81.4051ZM89.9179 38.243C89.9179 38.5117 89.9006 38.7543 89.8659 38.971H84.3929C84.4363 39.543 84.6486 40.0023 85.0299 40.349C85.4113 40.6957 85.8793 40.869 86.4339 40.869C87.2313 40.869 87.7946 40.5353 88.1239 39.868H89.7229C89.5063 40.5267 89.1119 41.0683 88.5399 41.493C87.9766 41.909 87.2746 42.117 86.4339 42.117C85.7493 42.117 85.1339 41.9653 84.5879 41.662C84.0506 41.35 83.6259 40.9167 83.3139 40.362C83.0106 39.7987 82.8589 39.1487 82.8589 38.412C82.8589 37.6753 83.0063 37.0297 83.3009 36.475C83.6043 35.9117 84.0246 35.4783 84.5619 35.175C85.1079 34.8717 85.7319 34.72 86.4339 34.72C87.1099 34.72 87.7123 34.8673 88.2409 35.162C88.7696 35.4567 89.1813 35.8727 89.4759 36.41C89.7706 36.9387 89.9179 37.5497 89.9179 38.243ZM88.3709 37.775C88.3623 37.229 88.1673 36.7913 87.7859 36.462C87.4046 36.1327 86.9323 35.968 86.3689 35.968C85.8576 35.968 85.4199 36.1327 85.0559 36.462C84.6919 36.7827 84.4753 37.2203 84.4059 37.775H88.3709ZM93.1054 36.046V40.011C93.1054 40.2797 93.166 40.4747 93.2874 40.596C93.4174 40.7087 93.634 40.765 93.9374 40.765H94.8474V42H93.6774C93.01 42 92.4987 41.844 92.1434 41.532C91.788 41.22 91.6104 40.713 91.6104 40.011V36.046H90.7654V34.837H91.6104V33.056H93.1054V34.837H94.8474V36.046H93.1054ZM102.778 38.243C102.778 38.5117 102.761 38.7543 102.726 38.971H97.2533C97.2966 39.543 97.5089 40.0023 97.8903 40.349C98.2716 40.6957 98.7396 40.869 99.2943 40.869C100.092 40.869 100.655 40.5353 100.984 39.868H102.583C102.367 40.5267 101.972 41.0683 101.4 41.493C100.837 41.909 100.135 42.117 99.2943 42.117C98.6096 42.117 97.9943 41.9653 97.4483 41.662C96.9109 41.35 96.4863 40.9167 96.1743 40.362C95.8709 39.7987 95.7193 39.1487 95.7193 38.412C95.7193 37.6753 95.8666 37.0297 96.1613 36.475C96.4646 35.9117 96.8849 35.4783 97.4223 35.175C97.9683 34.8717 98.5923 34.72 99.2943 34.72C99.9703 34.72 100.573 34.8673 101.101 35.162C101.63 35.4567 102.042 35.8727 102.336 36.41C102.631 36.9387 102.778 37.5497 102.778 38.243ZM101.231 37.775C101.223 37.229 101.028 36.7913 100.646 36.462C100.265 36.1327 99.7926 35.968 99.2293 35.968C98.7179 35.968 98.2803 36.1327 97.9163 36.462C97.5523 36.7827 97.3356 37.2203 97.2663 37.775H101.231ZM105.719 35.877C105.935 35.513 106.221 35.2313 106.577 35.032C106.941 34.824 107.37 34.72 107.864 34.72V36.254H107.487C106.906 36.254 106.464 36.4013 106.161 36.696C105.866 36.9907 105.719 37.502 105.719 38.23V42H104.237V34.837H105.719V35.877ZM119.09 34.837V42H117.608V41.155C117.374 41.4497 117.066 41.6837 116.685 41.857C116.312 42.0217 115.914 42.104 115.489 42.104C114.926 42.104 114.419 41.987 113.968 41.753C113.526 41.519 113.175 41.1723 112.915 40.713C112.664 40.2537 112.538 39.699 112.538 39.049V34.837H114.007V38.828C114.007 39.4693 114.167 39.9633 114.488 40.31C114.809 40.648 115.246 40.817 115.801 40.817C116.356 40.817 116.793 40.648 117.114 40.31C117.443 39.9633 117.608 39.4693 117.608 38.828V34.837H119.09ZM122.527 35.89C122.779 35.5607 123.121 35.2833 123.554 35.058C123.988 34.8327 124.477 34.72 125.023 34.72C125.647 34.72 126.215 34.876 126.726 35.188C127.246 35.4913 127.654 35.9203 127.948 36.475C128.243 37.0297 128.39 37.6667 128.39 38.386C128.39 39.1053 128.243 39.751 127.948 40.323C127.654 40.8863 127.246 41.3283 126.726 41.649C126.215 41.961 125.647 42.117 125.023 42.117C124.477 42.117 123.992 42.0087 123.567 41.792C123.143 41.5667 122.796 41.2893 122.527 40.96V45.406H121.045V34.837H122.527V35.89ZM126.882 38.386C126.882 37.892 126.778 37.4673 126.57 37.112C126.371 36.748 126.102 36.475 125.764 36.293C125.435 36.1023 125.08 36.007 124.698 36.007C124.326 36.007 123.97 36.1023 123.632 36.293C123.303 36.4837 123.034 36.761 122.826 37.125C122.627 37.489 122.527 37.918 122.527 38.412C122.527 38.906 122.627 39.3393 122.826 39.712C123.034 40.076 123.303 40.3533 123.632 40.544C123.97 40.7347 124.326 40.83 124.698 40.83C125.08 40.83 125.435 40.7347 125.764 40.544C126.102 40.3447 126.371 40.0587 126.57 39.686C126.778 39.3133 126.882 38.88 126.882 38.386ZM129.362 38.386C129.362 37.6667 129.509 37.0297 129.804 36.475C130.107 35.9203 130.515 35.4913 131.026 35.188C131.546 34.876 132.122 34.72 132.755 34.72C133.223 34.72 133.682 34.824 134.133 35.032C134.592 35.2313 134.956 35.5 135.225 35.838V32.38H136.72V42H135.225V40.921C134.982 41.2677 134.644 41.5537 134.211 41.779C133.786 42.0043 133.297 42.117 132.742 42.117C132.118 42.117 131.546 41.961 131.026 41.649C130.515 41.3283 130.107 40.8863 129.804 40.323C129.509 39.751 129.362 39.1053 129.362 38.386ZM135.225 38.412C135.225 37.918 135.121 37.489 134.913 37.125C134.714 36.761 134.449 36.4837 134.12 36.293C133.791 36.1023 133.435 36.007 133.054 36.007C132.673 36.007 132.317 36.1023 131.988 36.293C131.659 36.475 131.39 36.748 131.182 37.112C130.983 37.4673 130.883 37.892 130.883 38.386C130.883 38.88 130.983 39.3133 131.182 39.686C131.39 40.0587 131.659 40.3447 131.988 40.544C132.326 40.7347 132.681 40.83 133.054 40.83C133.435 40.83 133.791 40.7347 134.12 40.544C134.449 40.3533 134.714 40.076 134.913 39.712C135.121 39.3393 135.225 38.906 135.225 38.412ZM138.172 38.386C138.172 37.6667 138.32 37.0297 138.614 36.475C138.918 35.9203 139.325 35.4913 139.836 35.188C140.356 34.876 140.928 34.72 141.552 34.72C142.116 34.72 142.605 34.8327 143.021 35.058C143.446 35.2747 143.784 35.5477 144.035 35.877V34.837H145.53V42H144.035V40.934C143.784 41.272 143.442 41.5537 143.008 41.779C142.575 42.0043 142.081 42.117 141.526 42.117C140.911 42.117 140.348 41.961 139.836 41.649C139.325 41.3283 138.918 40.8863 138.614 40.323C138.32 39.751 138.172 39.1053 138.172 38.386ZM144.035 38.412C144.035 37.918 143.931 37.489 143.723 37.125C143.524 36.761 143.26 36.4837 142.93 36.293C142.601 36.1023 142.246 36.007 141.864 36.007C141.483 36.007 141.128 36.1023 140.798 36.293C140.469 36.475 140.2 36.748 139.992 37.112C139.793 37.4673 139.693 37.892 139.693 38.386C139.693 38.88 139.793 39.3133 139.992 39.686C140.2 40.0587 140.469 40.3447 140.798 40.544C141.136 40.7347 141.492 40.83 141.864 40.83C142.246 40.83 142.601 40.7347 142.93 40.544C143.26 40.3533 143.524 40.076 143.723 39.712C143.931 39.3393 144.035 38.906 144.035 38.412ZM149.206 36.046V40.011C149.206 40.2797 149.267 40.4747 149.388 40.596C149.518 40.7087 149.735 40.765 150.038 40.765H150.948V42H149.778C149.111 42 148.599 41.844 148.244 41.532C147.889 41.22 147.711 40.713 147.711 40.011V36.046H146.866V34.837H147.711V33.056H149.206V34.837H150.948V36.046H149.206ZM158.879 38.243C158.879 38.5117 158.862 38.7543 158.827 38.971H153.354C153.397 39.543 153.61 40.0023 153.991 40.349C154.372 40.6957 154.84 40.869 155.395 40.869C156.192 40.869 156.756 40.5353 157.085 39.868H158.684C158.467 40.5267 158.073 41.0683 157.501 41.493C156.938 41.909 156.236 42.117 155.395 42.117C154.71 42.117 154.095 41.9653 153.549 41.662C153.012 41.35 152.587 40.9167 152.275 40.362C151.972 39.7987 151.82 39.1487 151.82 38.412C151.82 37.6753 151.967 37.0297 152.262 36.475C152.565 35.9117 152.986 35.4783 153.523 35.175C154.069 34.8717 154.693 34.72 155.395 34.72C156.071 34.72 156.673 34.8673 157.202 35.162C157.731 35.4567 158.142 35.8727 158.437 36.41C158.732 36.9387 158.879 37.5497 158.879 38.243ZM157.332 37.775C157.323 37.229 157.128 36.7913 156.747 36.462C156.366 36.1327 155.893 35.968 155.33 35.968C154.819 35.968 154.381 36.1327 154.017 36.462C153.653 36.7827 153.436 37.2203 153.367 37.775H157.332ZM161.962 40.219L160.389 43.807H159.427L160.35 40.219H161.962ZM168.116 32.965V42H166.634V32.965H168.116ZM20.6609 62.117C20.0976 62.117 19.5906 62.0173 19.1399 61.818C18.6979 61.61 18.3469 61.3327 18.0869 60.986C17.8269 60.6307 17.6883 60.2363 17.6709 59.803H19.2049C19.2309 60.1063 19.3739 60.362 19.6339 60.57C19.9026 60.7693 20.2363 60.869 20.6349 60.869C21.0509 60.869 21.3716 60.791 21.5969 60.635C21.8309 60.4703 21.9479 60.2623 21.9479 60.011C21.9479 59.7423 21.8179 59.543 21.5579 59.413C21.3066 59.283 20.9036 59.14 20.3489 58.984C19.8116 58.8367 19.3739 58.6937 19.0359 58.555C18.6979 58.4163 18.4033 58.204 18.1519 57.918C17.9093 57.632 17.7879 57.255 17.7879 56.787C17.7879 56.4057 17.9006 56.059 18.1259 55.747C18.3513 55.4263 18.6719 55.175 19.0879 54.993C19.5126 54.811 19.9979 54.72 20.5439 54.72C21.3586 54.72 22.0129 54.928 22.5069 55.344C23.0096 55.7513 23.2783 56.3103 23.3129 57.021H21.8309C21.8049 56.7003 21.6749 56.4447 21.4409 56.254C21.2069 56.0633 20.8906 55.968 20.4919 55.968C20.1019 55.968 19.8029 56.0417 19.5949 56.189C19.3869 56.3363 19.2829 56.5313 19.2829 56.774C19.2829 56.9647 19.3523 57.125 19.4909 57.255C19.6296 57.385 19.7986 57.489 19.9979 57.567C20.1973 57.6363 20.4919 57.7273 20.8819 57.84C21.4019 57.9787 21.8266 58.1217 22.1559 58.269C22.4939 58.4077 22.7843 58.6157 23.0269 58.893C23.2696 59.1703 23.3953 59.5387 23.4039 59.998C23.4039 60.4053 23.2913 60.7693 23.0659 61.09C22.8406 61.4107 22.5199 61.662 22.1039 61.844C21.6966 62.026 21.2156 62.117 20.6609 62.117ZM28.7103 54.72C29.2563 54.72 29.7416 54.837 30.1663 55.071C30.5996 55.305 30.9376 55.6517 31.1803 56.111C31.4316 56.5703 31.5573 57.125 31.5573 57.775V62H30.0883V57.996C30.0883 57.3547 29.9279 56.865 29.6073 56.527C29.2866 56.1803 28.8489 56.007 28.2943 56.007C27.7396 56.007 27.2976 56.1803 26.9683 56.527C26.6476 56.865 26.4873 57.3547 26.4873 57.996V62H25.0053V52.38H26.4873V55.669C26.7386 55.3657 27.0549 55.1317 27.4363 54.967C27.8263 54.8023 28.2509 54.72 28.7103 54.72ZM36.5547 62.117C35.8787 62.117 35.2677 61.9653 34.7217 61.662C34.1757 61.35 33.7467 60.9167 33.4347 60.362C33.1227 59.7987 32.9667 59.1487 32.9667 58.412C32.9667 57.684 33.127 57.0383 33.4477 56.475C33.7683 55.9117 34.206 55.4783 34.7607 55.175C35.3153 54.8717 35.935 54.72 36.6197 54.72C37.3043 54.72 37.924 54.8717 38.4787 55.175C39.0333 55.4783 39.471 55.9117 39.7917 56.475C40.1123 57.0383 40.2727 57.684 40.2727 58.412C40.2727 59.14 40.108 59.7857 39.7787 60.349C39.4493 60.9123 38.9987 61.35 38.4267 61.662C37.8633 61.9653 37.2393 62.117 36.5547 62.117ZM36.5547 60.83C36.936 60.83 37.2913 60.739 37.6207 60.557C37.9587 60.375 38.2317 60.102 38.4397 59.738C38.6477 59.374 38.7517 58.932 38.7517 58.412C38.7517 57.892 38.652 57.4543 38.4527 57.099C38.2533 56.735 37.989 56.462 37.6597 56.28C37.3303 56.098 36.975 56.007 36.5937 56.007C36.2123 56.007 35.857 56.098 35.5277 56.28C35.207 56.462 34.9513 56.735 34.7607 57.099C34.57 57.4543 34.4747 57.892 34.4747 58.412C34.4747 59.1833 34.6697 59.7813 35.0597 60.206C35.4583 60.622 35.9567 60.83 36.5547 60.83ZM48.2247 54.837V62H46.7427V61.155C46.5087 61.4497 46.201 61.6837 45.8197 61.857C45.447 62.0217 45.0484 62.104 44.6237 62.104C44.0604 62.104 43.5534 61.987 43.1027 61.753C42.6607 61.519 42.3097 61.1723 42.0497 60.713C41.7984 60.2537 41.6727 59.699 41.6727 59.049V54.837H43.1417V58.828C43.1417 59.4693 43.302 59.9633 43.6227 60.31C43.9434 60.648 44.381 60.817 44.9357 60.817C45.4904 60.817 45.928 60.648 46.2487 60.31C46.578 59.9633 46.7427 59.4693 46.7427 58.828V54.837H48.2247ZM51.6621 52.38V62H50.1801V52.38H51.6621ZM53.1138 58.386C53.1138 57.6667 53.2611 57.0297 53.5558 56.475C53.8591 55.9203 54.2665 55.4913 54.7778 55.188C55.2978 54.876 55.8741 54.72 56.5068 54.72C56.9748 54.72 57.4341 54.824 57.8848 55.032C58.3441 55.2313 58.7081 55.5 58.9768 55.838V52.38H60.4718V62H58.9768V60.921C58.7341 61.2677 58.3961 61.5537 57.9628 61.779C57.5381 62.0043 57.0485 62.117 56.4938 62.117C55.8698 62.117 55.2978 61.961 54.7778 61.649C54.2665 61.3283 53.8591 60.8863 53.5558 60.323C53.2611 59.751 53.1138 59.1053 53.1138 58.386ZM58.9768 58.412C58.9768 57.918 58.8728 57.489 58.6648 57.125C58.4655 56.761 58.2011 56.4837 57.8718 56.293C57.5425 56.1023 57.1871 56.007 56.8058 56.007C56.4245 56.007 56.0691 56.1023 55.7398 56.293C55.4105 56.475 55.1418 56.748 54.9338 57.112C54.7345 57.4673 54.6348 57.892 54.6348 58.386C54.6348 58.88 54.7345 59.3133 54.9338 59.686C55.1418 60.0587 55.4105 60.3447 55.7398 60.544C56.0778 60.7347 56.4331 60.83 56.8058 60.83C57.1871 60.83 57.5425 60.7347 57.8718 60.544C58.2011 60.3533 58.4655 60.076 58.6648 59.712C58.8728 59.3393 58.9768 58.906 58.9768 58.412ZM67.2773 55.877C67.494 55.513 67.78 55.2313 68.1353 55.032C68.4993 54.824 68.9283 54.72 69.4223 54.72V56.254H69.0453C68.4646 56.254 68.0226 56.4013 67.7193 56.696C67.4246 56.9907 67.2773 57.502 67.2773 58.23V62H65.7953V54.837H67.2773V55.877ZM77.3496 58.243C77.3496 58.5117 77.3322 58.7543 77.2976 58.971H71.8246C71.8679 59.543 72.0802 60.0023 72.4616 60.349C72.8429 60.6957 73.3109 60.869 73.8656 60.869C74.6629 60.869 75.2262 60.5353 75.5556 59.868H77.1546C76.9379 60.5267 76.5436 61.0683 75.9716 61.493C75.4082 61.909 74.7062 62.117 73.8656 62.117C73.1809 62.117 72.5656 61.9653 72.0196 61.662C71.4822 61.35 71.0576 60.9167 70.7456 60.362C70.4422 59.7987 70.2906 59.1487 70.2906 58.412C70.2906 57.6753 70.4379 57.0297 70.7326 56.475C71.0359 55.9117 71.4562 55.4783 71.9936 55.175C72.5396 54.8717 73.1636 54.72 73.8656 54.72C74.5416 54.72 75.1439 54.8673 75.6726 55.162C76.2012 55.4567 76.6129 55.8727 76.9076 56.41C77.2022 56.9387 77.3496 57.5497 77.3496 58.243ZM75.8026 57.775C75.7939 57.229 75.5989 56.7913 75.2176 56.462C74.8362 56.1327 74.3639 55.968 73.8006 55.968C73.2892 55.968 72.8516 56.1327 72.4876 56.462C72.1236 56.7827 71.9069 57.2203 71.8376 57.775H75.8026ZM78.314 58.386C78.314 57.6667 78.4613 57.0297 78.756 56.475C79.0593 55.9203 79.4667 55.4913 79.978 55.188C80.498 54.876 81.0743 54.72 81.707 54.72C82.175 54.72 82.6343 54.824 83.085 55.032C83.5443 55.2313 83.9083 55.5 84.177 55.838V52.38H85.672V62H84.177V60.921C83.9343 61.2677 83.5963 61.5537 83.163 61.779C82.7383 62.0043 82.2487 62.117 81.694 62.117C81.07 62.117 80.498 61.961 79.978 61.649C79.4667 61.3283 79.0593 60.8863 78.756 60.323C78.4613 59.751 78.314 59.1053 78.314 58.386ZM84.177 58.412C84.177 57.918 84.073 57.489 83.865 57.125C83.6657 56.761 83.4013 56.4837 83.072 56.293C82.7427 56.1023 82.3873 56.007 82.006 56.007C81.6247 56.007 81.2693 56.1023 80.94 56.293C80.6107 56.475 80.342 56.748 80.134 57.112C79.9347 57.4673 79.835 57.892 79.835 58.386C79.835 58.88 79.9347 59.3133 80.134 59.686C80.342 60.0587 80.6107 60.3447 80.94 60.544C81.278 60.7347 81.6333 60.83 82.006 60.83C82.3873 60.83 82.7427 60.7347 83.072 60.544C83.4013 60.3533 83.6657 60.076 83.865 59.712C84.073 59.3393 84.177 58.906 84.177 58.412ZM94.1056 54.837V62H92.6236V61.155C92.3896 61.4497 92.0819 61.6837 91.7006 61.857C91.3279 62.0217 90.9292 62.104 90.5046 62.104C89.9412 62.104 89.4342 61.987 88.9836 61.753C88.5416 61.519 88.1906 61.1723 87.9306 60.713C87.6792 60.2537 87.5536 59.699 87.5536 59.049V54.837H89.0226V58.828C89.0226 59.4693 89.1829 59.9633 89.5036 60.31C89.8242 60.648 90.2619 60.817 90.8166 60.817C91.3712 60.817 91.8089 60.648 92.1296 60.31C92.4589 59.9633 92.6236 59.4693 92.6236 58.828V54.837H94.1056ZM95.5669 58.412C95.5669 57.6753 95.7143 57.0297 96.0089 56.475C96.3123 55.9117 96.7283 55.4783 97.2569 55.175C97.7856 54.8717 98.3923 54.72 99.0769 54.72C99.9436 54.72 100.659 54.928 101.222 55.344C101.794 55.7513 102.18 56.3363 102.379 57.099H100.78C100.65 56.7437 100.442 56.4663 100.156 56.267C99.8699 56.0677 99.5103 55.968 99.0769 55.968C98.4703 55.968 97.9849 56.1847 97.6209 56.618C97.2656 57.0427 97.0879 57.6407 97.0879 58.412C97.0879 59.1833 97.2656 59.7857 97.6209 60.219C97.9849 60.6523 98.4703 60.869 99.0769 60.869C99.9349 60.869 100.503 60.492 100.78 59.738H102.379C102.171 60.466 101.781 61.0467 101.209 61.48C100.637 61.9047 99.9263 62.117 99.0769 62.117C98.3923 62.117 97.7856 61.9653 97.2569 61.662C96.7283 61.35 96.3123 60.9167 96.0089 60.362C95.7143 59.7987 95.5669 59.1487 95.5669 58.412ZM110.421 58.243C110.421 58.5117 110.404 58.7543 110.369 58.971H104.896C104.939 59.543 105.152 60.0023 105.533 60.349C105.914 60.6957 106.382 60.869 106.937 60.869C107.734 60.869 108.298 60.5353 108.627 59.868H110.226C110.009 60.5267 109.615 61.0683 109.043 61.493C108.48 61.909 107.778 62.117 106.937 62.117C106.252 62.117 105.637 61.9653 105.091 61.662C104.554 61.35 104.129 60.9167 103.817 60.362C103.514 59.7987 103.362 59.1487 103.362 58.412C103.362 57.6753 103.509 57.0297 103.804 56.475C104.107 55.9117 104.528 55.4783 105.065 55.175C105.611 54.8717 106.235 54.72 106.937 54.72C107.613 54.72 108.215 54.8673 108.744 55.162C109.273 55.4567 109.684 55.8727 109.979 56.41C110.274 56.9387 110.421 57.5497 110.421 58.243ZM108.874 57.775C108.865 57.229 108.67 56.7913 108.289 56.462C107.908 56.1327 107.435 55.968 106.872 55.968C106.361 55.968 105.923 56.1327 105.559 56.462C105.195 56.7827 104.978 57.2203 104.909 57.775H108.874ZM123.927 54.72C124.491 54.72 124.993 54.837 125.435 55.071C125.886 55.305 126.237 55.6517 126.488 56.111C126.748 56.5703 126.878 57.125 126.878 57.775V62H125.409V57.996C125.409 57.3547 125.249 56.865 124.928 56.527C124.608 56.1803 124.17 56.007 123.615 56.007C123.061 56.007 122.619 56.1803 122.289 56.527C121.969 56.865 121.808 57.3547 121.808 57.996V62H120.339V57.996C120.339 57.3547 120.179 56.865 119.858 56.527C119.538 56.1803 119.1 56.007 118.545 56.007C117.991 56.007 117.549 56.1803 117.219 56.527C116.899 56.865 116.738 57.3547 116.738 57.996V62H115.256V54.837H116.738V55.656C116.981 55.3613 117.289 55.1317 117.661 54.967C118.034 54.8023 118.433 54.72 118.857 54.72C119.429 54.72 119.941 54.8413 120.391 55.084C120.842 55.3267 121.189 55.6777 121.431 56.137C121.648 55.7037 121.986 55.3613 122.445 55.11C122.905 54.85 123.399 54.72 123.927 54.72ZM135.212 54.837L130.818 65.367H129.284L130.74 61.883L127.919 54.837H129.57L131.585 60.297L133.678 54.837H135.212ZM141.189 55.89C141.441 55.5607 141.783 55.2833 142.216 55.058C142.65 54.8327 143.139 54.72 143.685 54.72C144.309 54.72 144.877 54.876 145.388 55.188C145.908 55.4913 146.316 55.9203 146.61 56.475C146.905 57.0297 147.052 57.6667 147.052 58.386C147.052 59.1053 146.905 59.751 146.61 60.323C146.316 60.8863 145.908 61.3283 145.388 61.649C144.877 61.961 144.309 62.117 143.685 62.117C143.139 62.117 142.654 62.0087 142.229 61.792C141.805 61.5667 141.458 61.2893 141.189 60.96V65.406H139.707V54.837H141.189V55.89ZM145.544 58.386C145.544 57.892 145.44 57.4673 145.232 57.112C145.033 56.748 144.764 56.475 144.426 56.293C144.097 56.1023 143.742 56.007 143.36 56.007C142.988 56.007 142.632 56.1023 142.294 56.293C141.965 56.4837 141.696 56.761 141.488 57.125C141.289 57.489 141.189 57.918 141.189 58.412C141.189 58.906 141.289 59.3393 141.488 59.712C141.696 60.076 141.965 60.3533 142.294 60.544C142.632 60.7347 142.988 60.83 143.36 60.83C143.742 60.83 144.097 60.7347 144.426 60.544C144.764 60.3447 145.033 60.0587 145.232 59.686C145.44 59.3133 145.544 58.88 145.544 58.386ZM150 55.877C150.217 55.513 150.503 55.2313 150.858 55.032C151.222 54.824 151.651 54.72 152.145 54.72V56.254H151.768C151.187 56.254 150.745 56.4013 150.442 56.696C150.147 56.9907 150 57.502 150 58.23V62H148.518V54.837H150V55.877ZM154.261 53.888C153.993 53.888 153.767 53.797 153.585 53.615C153.403 53.433 153.312 53.2077 153.312 52.939C153.312 52.6703 153.403 52.445 153.585 52.263C153.767 52.081 153.993 51.99 154.261 51.99C154.521 51.99 154.742 52.081 154.924 52.263C155.106 52.445 155.197 52.6703 155.197 52.939C155.197 53.2077 155.106 53.433 154.924 53.615C154.742 53.797 154.521 53.888 154.261 53.888ZM154.989 54.837V62H153.507V54.837H154.989ZM156.441 58.412C156.441 57.6753 156.588 57.0297 156.883 56.475C157.186 55.9117 157.602 55.4783 158.131 55.175C158.66 54.8717 159.266 54.72 159.951 54.72C160.818 54.72 161.533 54.928 162.096 55.344C162.668 55.7513 163.054 56.3363 163.253 57.099H161.654C161.524 56.7437 161.316 56.4663 161.03 56.267C160.744 56.0677 160.384 55.968 159.951 55.968C159.344 55.968 158.859 56.1847 158.495 56.618C158.14 57.0427 157.962 57.6407 157.962 58.412C157.962 59.1833 158.14 59.7857 158.495 60.219C158.859 60.6523 159.344 60.869 159.951 60.869C160.809 60.869 161.377 60.492 161.654 59.738H163.253C163.045 60.466 162.655 61.0467 162.083 61.48C161.511 61.9047 160.8 62.117 159.951 62.117C159.266 62.117 158.66 61.9653 158.131 61.662C157.602 61.35 157.186 60.9167 156.883 60.362C156.588 59.7987 156.441 59.1487 156.441 58.412ZM171.295 58.243C171.295 58.5117 171.278 58.7543 171.243 58.971H165.77C165.813 59.543 166.026 60.0023 166.407 60.349C166.788 60.6957 167.256 60.869 167.811 60.869C168.608 60.869 169.172 60.5353 169.501 59.868H171.1C170.883 60.5267 170.489 61.0683 169.917 61.493C169.354 61.909 168.652 62.117 167.811 62.117C167.126 62.117 166.511 61.9653 165.965 61.662C165.428 61.35 165.003 60.9167 164.691 60.362C164.388 59.7987 164.236 59.1487 164.236 58.412C164.236 57.6753 164.383 57.0297 164.678 56.475C164.981 55.9117 165.402 55.4783 165.939 55.175C166.485 54.8717 167.109 54.72 167.811 54.72C168.487 54.72 169.089 54.8673 169.618 55.162C170.147 55.4567 170.558 55.8727 170.853 56.41C171.148 56.9387 171.295 57.5497 171.295 58.243ZM169.748 57.775C169.739 57.229 169.544 56.7913 169.163 56.462C168.782 56.1327 168.309 55.968 167.746 55.968C167.235 55.968 166.797 56.1327 166.433 56.462C166.069 56.7827 165.852 57.2203 165.783 57.775H169.748ZM173.351 62.091C173.083 62.091 172.857 62 172.675 61.818C172.493 61.636 172.402 61.4107 172.402 61.142C172.402 60.8733 172.493 60.648 172.675 60.466C172.857 60.284 173.083 60.193 173.351 60.193C173.611 60.193 173.832 60.284 174.014 60.466C174.196 60.648 174.287 60.8733 174.287 61.142C174.287 61.4107 174.196 61.636 174.014 61.818C173.832 62 173.611 62.091 173.351 62.091Z" fill="white"/>
<path d="M267.084 235.57C271.599 234.283 271.72 235.08 272.293 234.899C272.971 234.686 278.433 227.366 278.433 227.366C278.433 227.366 294.69 205.907 295.523 204.714L300.65 176.946L316.052 176.824C316.052 176.824 309.617 206.812 308.989 208.295C308.359 209.78 282.593 235.989 280.412 238.375C280.412 238.375 279.001 242.248 278.028 244.646C277.054 247.043 274.973 248.794 274.586 249.417C274.529 249.509 273.108 251.504 270.626 253.446C268.488 255.121 269.618 252.514 269.618 252.514C269.618 252.514 272.926 248.674 272.539 248.445C272.241 248.269 270.573 250.482 268.23 252.359C267.628 252.841 267.032 253.316 266.479 253.748C265.03 254.88 263.802 254.277 265.098 252.843C265.555 252.337 266.338 251.515 266.991 251.013C267.696 250.471 268.14 249.737 268.649 249.188C269.664 248.096 270.419 247.315 270.346 247.295C270.25 247.268 270.278 246.901 269.618 247.391C268.826 247.983 267.473 249.624 266.231 250.401C265.526 250.84 264.122 251.853 264.122 251.853C264.122 251.853 261.661 252.971 261.529 252.847C260.822 252.181 262.23 250.939 263.281 250.471C263.756 249.825 265.269 248.805 265.269 248.805C265.269 248.805 267.778 246.034 267.339 245.647C267.152 245.483 265.38 246.984 263.376 248.173C261.515 249.275 259.416 250.079 259.097 249.735C258.554 249.154 260.462 247.704 260.462 247.704C260.462 247.704 261.864 246.764 262.3 246.415C262.812 246.005 264.236 244.657 264.236 244.657C264.236 244.657 268.938 239.721 268.492 239.388C268.046 239.052 266.588 238.6 266.176 238.8C265.765 238.998 265.248 239.761 264.834 239.959C264.423 240.157 263.672 240.058 263.328 239.565C262.985 239.072 264.518 237.344 264.518 237.344C264.518 237.344 265.781 235.942 267.084 235.57Z" fill="#F48C7F"/>
<path d="M292.659 374.873C292.659 374.873 293.207 384.452 293.209 384.473C293.409 385.688 294.203 388.695 294.203 389.8C294.203 393.955 275.523 386.273 279.711 384.432C280.091 384.266 282.074 383.005 282.2 381.592C282.391 379.413 282.88 375.006 282.88 375.006L292.659 374.873Z" fill="#F7A491"/>
<path d="M279.759 384.394C279.759 384.394 284.145 385.666 286.39 385.983C288.635 386.3 291.597 383.627 293.187 384.349C294.936 385.144 294.759 392.976 294.759 392.976C294.759 392.976 271.349 394.343 264.737 392.234C262.116 391.396 270.794 387.354 279.759 384.394Z" fill="#184655"/>
<path d="M333.813 375.794C333.813 375.794 334.362 385.375 334.364 385.393C334.566 386.609 335.358 389.616 335.358 390.721C335.358 394.876 316.678 387.194 320.866 385.353C321.245 385.186 323.818 382.985 323.943 381.572C324.134 379.393 324.034 375.926 324.034 375.926L333.813 375.794Z" fill="#F7A491"/>
<path d="M320.913 385.315C320.913 385.315 325.299 386.586 327.544 386.904C329.789 387.221 332.751 384.547 334.341 385.27C336.09 386.064 336.159 393.224 336.159 393.224C336.159 393.224 311.132 395.02 305.247 393.334C302.604 392.574 311.946 388.275 320.913 385.315Z" fill="#184655"/>
<path d="M304.212 237.495L296.314 240.866L279.702 319.364L280.375 378.211L293.692 378.517C293.692 378.517 299.886 327.041 299.886 323.053C299.886 319.064 328.575 253.241 328.575 253.241L304.212 237.495Z" fill="#355389"/>
<path d="M310.306 241.814C310.306 241.814 316.125 302.293 316.125 312.487C316.125 322.681 320.843 379.739 320.843 379.739L334.191 379.663C334.191 379.663 335.153 362.271 336.584 336.686C336.807 332.679 336.295 324.592 336.584 320.444C338.661 290.607 342.767 262.519 340.806 251.385C340.49 249.593 339.896 244.907 338.743 243.723C330.001 234.776 310.306 241.814 310.306 241.814Z" fill="#466EB6"/>
<path d="M294.026 194.083L310.179 193.012C310.179 193.012 310.975 178.726 310.975 171.91C310.975 163.643 313.523 151.453 312.526 151.682C309.733 152.326 304.908 154.872 302.668 157.958C294.915 168.642 294.026 194.083 294.026 194.083Z" fill="#3C8F7C"/>
<path d="M332.294 151.367C332.294 151.367 341.504 152.634 343.929 154.397C346.659 156.38 349.689 160.821 349.689 160.821C349.689 160.821 338.381 213.715 338.36 222.615C338.345 229.5 340.808 246.408 340.808 246.408C340.808 246.408 306.635 248.542 293.692 243.486C293.692 243.486 297.779 223.378 297.779 218.097C297.779 212.817 302.668 164.802 303.78 161.449C304.79 158.406 306.635 152.938 312.879 151.59C319.123 150.244 332.294 151.367 332.294 151.367Z" fill="#50BFA5"/>
<path d="M329.778 137.126L332.057 151.896C332.057 151.896 323.732 169.484 318.761 167.958C314.592 166.677 317.158 151.117 317.158 151.117C317.158 151.117 319.43 142.76 318.75 138.578C318.065 134.396 329.778 137.126 329.778 137.126Z" fill="#F7A491"/>
<path d="M318.748 138.578C318.065 134.396 329.778 137.126 329.778 137.126L329.967 138.351C329.623 139.17 329.205 139.872 328.697 140.41C326.081 143.177 321.991 144.84 318.457 144.966C318.809 142.711 319.028 140.293 318.748 138.578Z" fill="#F47458"/>
<path d="M331.7 116.23C332.03 116.111 334.352 133.052 329.946 137.714C325.54 142.375 316.953 143.901 313.873 140.23C310.465 136.17 310.638 117.963 317.49 113.167C324.341 108.372 331.7 116.23 331.7 116.23Z" fill="#F7A491"/>
<path d="M320.097 104.105C325.392 105.167 328.822 108.347 330.083 109.702C332.487 109.982 335.756 111.287 339.132 116.781C343.281 123.536 340.217 131.018 335.385 134.689C330.554 138.36 330.608 142.623 330.608 142.623L329.857 140.408C329.293 138.747 329.064 136.985 329.252 135.242C329.366 134.196 329.594 133.066 330.033 132.136C331.195 129.685 327.537 128.056 326.511 126.016C325.722 124.445 325.683 120.853 324.439 118.256L322.954 116.273C322.954 116.273 319.526 113.65 316.173 114.391C312.82 115.129 313.302 102.743 320.097 104.105Z" fill="#13375B"/>
<path d="M326.739 129.028C326.705 131.094 327.66 132.787 328.875 132.807C330.089 132.827 331.102 131.169 331.136 129.102C331.17 127.036 330.215 125.343 329 125.323C327.787 125.303 326.775 126.962 326.739 129.028Z" fill="#F7A491"/>
<path d="M308.805 205.171L308.584 206.431C308.471 207.079 307.847 207.514 307.192 207.404L280.778 202.877C280.123 202.765 279.684 202.148 279.795 201.5L280.016 200.239C280.13 199.591 280.753 199.154 281.408 199.267L307.822 203.793C308.477 203.906 308.919 204.522 308.805 205.171Z" fill="#13375B"/>
<path d="M346.249 158.178C343.151 158.09 340.41 178.316 342.373 180.313C344.339 182.307 344.712 207.221 344.712 207.221L315.474 206.503L315.47 206.512C314.899 206.134 308.775 202.065 307.9 201.173C306.981 200.239 302.518 200.707 301.337 201.99C300.156 203.273 303.962 202.224 305.013 202.924C306.064 203.624 304.226 205.373 304.226 205.373C304.226 205.373 296.817 206.438 295.373 204.921C293.928 203.404 290.07 200.838 289.545 202.355C289.274 203.138 291.264 205.508 292.386 206.503C290.987 205.468 289.313 204.367 288.737 204.559C287.686 204.907 288.125 206.231 288.694 206.62C289.263 207.01 295.145 211.453 296.064 211.763C296.963 212.067 310.643 212.403 313.006 212.92C313.006 212.92 351.561 221.606 353.751 221.066C355.674 220.591 357.598 208.38 357.598 199.026C357.598 189.669 355.935 158.455 346.249 158.178Z" fill="#F7A491"/>
<path d="M342.23 153.564C342.23 153.564 347.623 154.793 353.194 160.987C358.26 166.621 361.454 198.168 361.454 198.168L343.959 200.966L342.562 185.706L337.887 178.726L342.23 153.564Z" fill="#50BFA5"/>
<path fill-rule="evenodd" clip-rule="evenodd" d="M243 0C237.477 0 233 4.47715 233 10V66C233 71.5229 237.477 76 243 76H280.811L296.332 97.9801L294.38 76H469C474.523 76 479 71.5229 479 66V10C479 4.47715 474.523 0 469 0H243Z" fill="#006AFF"/>
<path d="M255.324 12.965V22H253.842V15.812L251.086 22H250.059L247.29 15.812V22H245.808V12.965H247.407L250.579 20.05L253.738 12.965H255.324ZM263.72 14.837L259.326 25.367H257.792L259.248 21.883L256.427 14.837H258.078L260.093 20.297L262.186 14.837H263.72ZM271.921 14.72C272.467 14.72 272.952 14.837 273.377 15.071C273.81 15.305 274.148 15.6517 274.391 16.111C274.642 16.5703 274.768 17.125 274.768 17.775V22H273.299V17.996C273.299 17.3547 273.138 16.865 272.818 16.527C272.497 16.1803 272.059 16.007 271.505 16.007C270.95 16.007 270.508 16.1803 270.179 16.527C269.858 16.865 269.698 17.3547 269.698 17.996V22H268.216V12.38H269.698V15.669C269.949 15.3657 270.265 15.1317 270.647 14.967C271.037 14.8023 271.461 14.72 271.921 14.72ZM279.765 22.117C279.089 22.117 278.478 21.9653 277.932 21.662C277.386 21.35 276.957 20.9167 276.645 20.362C276.333 19.7987 276.177 19.1487 276.177 18.412C276.177 17.684 276.337 17.0383 276.658 16.475C276.979 15.9117 277.416 15.4783 277.971 15.175C278.526 14.8717 279.145 14.72 279.83 14.72C280.515 14.72 281.134 14.8717 281.689 15.175C282.244 15.4783 282.681 15.9117 283.002 16.475C283.323 17.0383 283.483 17.684 283.483 18.412C283.483 19.14 283.318 19.7857 282.989 20.349C282.66 20.9123 282.209 21.35 281.637 21.662C281.074 21.9653 280.45 22.117 279.765 22.117ZM279.765 20.83C280.146 20.83 280.502 20.739 280.831 20.557C281.169 20.375 281.442 20.102 281.65 19.738C281.858 19.374 281.962 18.932 281.962 18.412C281.962 17.892 281.862 17.4543 281.663 17.099C281.464 16.735 281.199 16.462 280.87 16.28C280.541 16.098 280.185 16.007 279.804 16.007C279.423 16.007 279.067 16.098 278.738 16.28C278.417 16.462 278.162 16.735 277.971 17.099C277.78 17.4543 277.685 17.892 277.685 18.412C277.685 19.1833 277.88 19.7813 278.27 20.206C278.669 20.622 279.167 20.83 279.765 20.83ZM291.435 14.837V22H289.953V21.155C289.719 21.4497 289.411 21.6837 289.03 21.857C288.657 22.0217 288.259 22.104 287.834 22.104C287.271 22.104 286.764 21.987 286.313 21.753C285.871 21.519 285.52 21.1723 285.26 20.713C285.009 20.2537 284.883 19.699 284.883 19.049V14.837H286.352V18.828C286.352 19.4693 286.512 19.9633 286.833 20.31C287.154 20.648 287.591 20.817 288.146 20.817C288.701 20.817 289.138 20.648 289.459 20.31C289.788 19.9633 289.953 19.4693 289.953 18.828V14.837H291.435ZM295.991 22.117C295.427 22.117 294.92 22.0173 294.47 21.818C294.028 21.61 293.677 21.3327 293.417 20.986C293.157 20.6307 293.018 20.2363 293.001 19.803H294.535C294.561 20.1063 294.704 20.362 294.964 20.57C295.232 20.7693 295.566 20.869 295.965 20.869C296.381 20.869 296.701 20.791 296.927 20.635C297.161 20.4703 297.278 20.2623 297.278 20.011C297.278 19.7423 297.148 19.543 296.888 19.413C296.636 19.283 296.233 19.14 295.679 18.984C295.141 18.8367 294.704 18.6937 294.366 18.555C294.028 18.4163 293.733 18.204 293.482 17.918C293.239 17.632 293.118 17.255 293.118 16.787C293.118 16.4057 293.23 16.059 293.456 15.747C293.681 15.4263 294.002 15.175 294.418 14.993C294.842 14.811 295.328 14.72 295.874 14.72C296.688 14.72 297.343 14.928 297.837 15.344C298.339 15.7513 298.608 16.3103 298.643 17.021H297.161C297.135 16.7003 297.005 16.4447 296.771 16.254C296.537 16.0633 296.22 15.968 295.822 15.968C295.432 15.968 295.133 16.0417 294.925 16.189C294.717 16.3363 294.613 16.5313 294.613 16.774C294.613 16.9647 294.682 17.125 294.821 17.255C294.959 17.385 295.128 17.489 295.328 17.567C295.527 17.6363 295.822 17.7273 296.212 17.84C296.732 17.9787 297.156 18.1217 297.486 18.269C297.824 18.4077 298.114 18.6157 298.357 18.893C298.599 19.1703 298.725 19.5387 298.734 19.998C298.734 20.4053 298.621 20.7693 298.396 21.09C298.17 21.4107 297.85 21.662 297.434 21.844C297.026 22.026 296.545 22.117 295.991 22.117ZM306.9 18.243C306.9 18.5117 306.883 18.7543 306.848 18.971H301.375C301.418 19.543 301.631 20.0023 302.012 20.349C302.393 20.6957 302.861 20.869 303.416 20.869C304.213 20.869 304.777 20.5353 305.106 19.868H306.705C306.488 20.5267 306.094 21.0683 305.522 21.493C304.959 21.909 304.257 22.117 303.416 22.117C302.731 22.117 302.116 21.9653 301.57 21.662C301.033 21.35 300.608 20.9167 300.296 20.362C299.993 19.7987 299.841 19.1487 299.841 18.412C299.841 17.6753 299.988 17.0297 300.283 16.475C300.586 15.9117 301.007 15.4783 301.544 15.175C302.09 14.8717 302.714 14.72 303.416 14.72C304.092 14.72 304.694 14.8673 305.223 15.162C305.752 15.4567 306.163 15.8727 306.458 16.41C306.753 16.9387 306.9 17.5497 306.9 18.243ZM305.353 17.775C305.344 17.229 305.149 16.7913 304.768 16.462C304.387 16.1327 303.914 15.968 303.351 15.968C302.84 15.968 302.402 16.1327 302.038 16.462C301.674 16.7827 301.457 17.2203 301.388 17.775H305.353ZM315.44 14.72C315.986 14.72 316.472 14.837 316.896 15.071C317.33 15.305 317.668 15.6517 317.91 16.111C318.162 16.5703 318.287 17.125 318.287 17.775V22H316.818V17.996C316.818 17.3547 316.658 16.865 316.337 16.527C316.017 16.1803 315.579 16.007 315.024 16.007C314.47 16.007 314.028 16.1803 313.698 16.527C313.378 16.865 313.217 17.3547 313.217 17.996V22H311.735V12.38H313.217V15.669C313.469 15.3657 313.785 15.1317 314.166 14.967C314.556 14.8023 314.981 14.72 315.44 14.72ZM319.684 18.386C319.684 17.6667 319.831 17.0297 320.126 16.475C320.429 15.9203 320.836 15.4913 321.348 15.188C321.868 14.876 322.44 14.72 323.064 14.72C323.627 14.72 324.117 14.8327 324.533 15.058C324.957 15.2747 325.295 15.5477 325.547 15.877V14.837H327.042V22H325.547V20.934C325.295 21.272 324.953 21.5537 324.52 21.779C324.086 22.0043 323.592 22.117 323.038 22.117C322.422 22.117 321.859 21.961 321.348 21.649C320.836 21.3283 320.429 20.8863 320.126 20.323C319.831 19.751 319.684 19.1053 319.684 18.386ZM325.547 18.412C325.547 17.918 325.443 17.489 325.235 17.125C325.035 16.761 324.771 16.4837 324.442 16.293C324.112 16.1023 323.757 16.007 323.376 16.007C322.994 16.007 322.639 16.1023 322.31 16.293C321.98 16.475 321.712 16.748 321.504 17.112C321.304 17.4673 321.205 17.892 321.205 18.386C321.205 18.88 321.304 19.3133 321.504 19.686C321.712 20.0587 321.98 20.3447 322.31 20.544C322.648 20.7347 323.003 20.83 323.376 20.83C323.757 20.83 324.112 20.7347 324.442 20.544C324.771 20.3533 325.035 20.076 325.235 19.712C325.443 19.3393 325.547 18.906 325.547 18.412ZM331.588 22.117C331.025 22.117 330.518 22.0173 330.067 21.818C329.625 21.61 329.274 21.3327 329.014 20.986C328.754 20.6307 328.616 20.2363 328.598 19.803H330.132C330.158 20.1063 330.301 20.362 330.561 20.57C330.83 20.7693 331.164 20.869 331.562 20.869C331.978 20.869 332.299 20.791 332.524 20.635C332.758 20.4703 332.875 20.2623 332.875 20.011C332.875 19.7423 332.745 19.543 332.485 19.413C332.234 19.283 331.831 19.14 331.276 18.984C330.739 18.8367 330.301 18.6937 329.963 18.555C329.625 18.4163 329.331 18.204 329.079 17.918C328.837 17.632 328.715 17.255 328.715 16.787C328.715 16.4057 328.828 16.059 329.053 15.747C329.279 15.4263 329.599 15.175 330.015 14.993C330.44 14.811 330.925 14.72 331.471 14.72C332.286 14.72 332.94 14.928 333.434 15.344C333.937 15.7513 334.206 16.3103 334.24 17.021H332.758C332.732 16.7003 332.602 16.4447 332.368 16.254C332.134 16.0633 331.818 15.968 331.419 15.968C331.029 15.968 330.73 16.0417 330.522 16.189C330.314 16.3363 330.21 16.5313 330.21 16.774C330.21 16.9647 330.28 17.125 330.418 17.255C330.557 17.385 330.726 17.489 330.925 17.567C331.125 17.6363 331.419 17.7273 331.809 17.84C332.329 17.9787 332.754 18.1217 333.083 18.269C333.421 18.4077 333.712 18.6157 333.954 18.893C334.197 19.1703 334.323 19.5387 334.331 19.998C334.331 20.4053 334.219 20.7693 333.993 21.09C333.768 21.4107 333.447 21.662 333.031 21.844C332.624 22.026 332.143 22.117 331.588 22.117ZM340.791 15.903C341.043 15.5563 341.385 15.2747 341.818 15.058C342.26 14.8327 342.75 14.72 343.287 14.72C343.92 14.72 344.492 14.8717 345.003 15.175C345.515 15.4783 345.918 15.9117 346.212 16.475C346.507 17.0297 346.654 17.6667 346.654 18.386C346.654 19.1053 346.507 19.751 346.212 20.323C345.918 20.8863 345.51 21.3283 344.99 21.649C344.479 21.961 343.911 22.117 343.287 22.117C342.733 22.117 342.239 22.0087 341.805 21.792C341.381 21.5753 341.043 21.298 340.791 20.96V22H339.309V12.38H340.791V15.903ZM345.146 18.386C345.146 17.892 345.042 17.4673 344.834 17.112C344.635 16.748 344.366 16.475 344.028 16.293C343.699 16.1023 343.344 16.007 342.962 16.007C342.59 16.007 342.234 16.1023 341.896 16.293C341.567 16.4837 341.298 16.761 341.09 17.125C340.891 17.489 340.791 17.918 340.791 18.412C340.791 18.906 340.891 19.3393 341.09 19.712C341.298 20.076 341.567 20.3533 341.896 20.544C342.234 20.7347 342.59 20.83 342.962 20.83C343.344 20.83 343.699 20.7347 344.028 20.544C344.366 20.3447 344.635 20.0587 344.834 19.686C345.042 19.3133 345.146 18.88 345.146 18.386ZM354.685 18.243C354.685 18.5117 354.668 18.7543 354.633 18.971H349.16C349.203 19.543 349.416 20.0023 349.797 20.349C350.178 20.6957 350.646 20.869 351.201 20.869C351.998 20.869 352.562 20.5353 352.891 19.868H354.49C354.273 20.5267 353.879 21.0683 353.307 21.493C352.744 21.909 352.042 22.117 351.201 22.117C350.516 22.117 349.901 21.9653 349.355 21.662C348.818 21.35 348.393 20.9167 348.081 20.362C347.778 19.7987 347.626 19.1487 347.626 18.412C347.626 17.6753 347.773 17.0297 348.068 16.475C348.371 15.9117 348.792 15.4783 349.329 15.175C349.875 14.8717 350.499 14.72 351.201 14.72C351.877 14.72 352.479 14.8673 353.008 15.162C353.537 15.4567 353.948 15.8727 354.243 16.41C354.538 16.9387 354.685 17.5497 354.685 18.243ZM353.138 17.775C353.129 17.229 352.934 16.7913 352.553 16.462C352.172 16.1327 351.699 15.968 351.136 15.968C350.625 15.968 350.187 16.1327 349.823 16.462C349.459 16.7827 349.242 17.2203 349.173 17.775H353.138ZM362.708 18.243C362.708 18.5117 362.691 18.7543 362.656 18.971H357.183C357.227 19.543 357.439 20.0023 357.82 20.349C358.202 20.6957 358.67 20.869 359.224 20.869C360.022 20.869 360.585 20.5353 360.914 19.868H362.513C362.297 20.5267 361.902 21.0683 361.33 21.493C360.767 21.909 360.065 22.117 359.224 22.117C358.54 22.117 357.924 21.9653 357.378 21.662C356.841 21.35 356.416 20.9167 356.104 20.362C355.801 19.7987 355.649 19.1487 355.649 18.412C355.649 17.6753 355.797 17.0297 356.091 16.475C356.395 15.9117 356.815 15.4783 357.352 15.175C357.898 14.8717 358.522 14.72 359.224 14.72C359.9 14.72 360.503 14.8673 361.031 15.162C361.56 15.4567 361.972 15.8727 362.266 16.41C362.561 16.9387 362.708 17.5497 362.708 18.243ZM361.161 17.775C361.153 17.229 360.958 16.7913 360.576 16.462C360.195 16.1327 359.723 15.968 359.159 15.968C358.648 15.968 358.21 16.1327 357.846 16.462C357.482 16.7827 357.266 17.2203 357.196 17.775H361.161ZM367.781 14.72C368.344 14.72 368.847 14.837 369.289 15.071C369.74 15.305 370.091 15.6517 370.342 16.111C370.593 16.5703 370.719 17.125 370.719 17.775V22H369.25V17.996C369.25 17.3547 369.09 16.865 368.769 16.527C368.448 16.1803 368.011 16.007 367.456 16.007C366.901 16.007 366.459 16.1803 366.13 16.527C365.809 16.865 365.649 17.3547 365.649 17.996V22H364.167V14.837H365.649V15.656C365.892 15.3613 366.199 15.1317 366.572 14.967C366.953 14.8023 367.356 14.72 367.781 14.72ZM379.093 22.117C378.417 22.117 377.806 21.9653 377.26 21.662C376.714 21.35 376.285 20.9167 375.973 20.362C375.661 19.7987 375.505 19.1487 375.505 18.412C375.505 17.684 375.666 17.0383 375.986 16.475C376.307 15.9117 376.745 15.4783 377.299 15.175C377.854 14.8717 378.474 14.72 379.158 14.72C379.843 14.72 380.463 14.8717 381.017 15.175C381.572 15.4783 382.01 15.9117 382.33 16.475C382.651 17.0383 382.811 17.684 382.811 18.412C382.811 19.14 382.647 19.7857 382.317 20.349C381.988 20.9123 381.537 21.35 380.965 21.662C380.402 21.9653 379.778 22.117 379.093 22.117ZM379.093 20.83C379.475 20.83 379.83 20.739 380.159 20.557C380.497 20.375 380.77 20.102 380.978 19.738C381.186 19.374 381.29 18.932 381.29 18.412C381.29 17.892 381.191 17.4543 380.991 17.099C380.792 16.735 380.528 16.462 380.198 16.28C379.869 16.098 379.514 16.007 379.132 16.007C378.751 16.007 378.396 16.098 378.066 16.28C377.746 16.462 377.49 16.735 377.299 17.099C377.109 17.4543 377.013 17.892 377.013 18.412C377.013 19.1833 377.208 19.7813 377.598 20.206C377.997 20.622 378.495 20.83 379.093 20.83ZM387.89 14.72C388.454 14.72 388.956 14.837 389.398 15.071C389.849 15.305 390.2 15.6517 390.451 16.111C390.703 16.5703 390.828 17.125 390.828 17.775V22H389.359V17.996C389.359 17.3547 389.199 16.865 388.878 16.527C388.558 16.1803 388.12 16.007 387.565 16.007C387.011 16.007 386.569 16.1803 386.239 16.527C385.919 16.865 385.758 17.3547 385.758 17.996V22H384.276V14.837H385.758V15.656C386.001 15.3613 386.309 15.1317 386.681 14.967C387.063 14.8023 387.466 14.72 387.89 14.72ZM397.825 16.046V20.011C397.825 20.2797 397.885 20.4747 398.007 20.596C398.137 20.7087 398.353 20.765 398.657 20.765H399.567V22H398.397C397.729 22 397.218 21.844 396.863 21.532C396.507 21.22 396.33 20.713 396.33 20.011V16.046H395.485V14.837H396.33V13.056H397.825V14.837H399.567V16.046H397.825ZM404.638 14.72C405.184 14.72 405.669 14.837 406.094 15.071C406.527 15.305 406.865 15.6517 407.108 16.111C407.359 16.5703 407.485 17.125 407.485 17.775V22H406.016V17.996C406.016 17.3547 405.855 16.865 405.535 16.527C405.214 16.1803 404.776 16.007 404.222 16.007C403.667 16.007 403.225 16.1803 402.896 16.527C402.575 16.865 402.415 17.3547 402.415 17.996V22H400.933V12.38H402.415V15.669C402.666 15.3657 402.982 15.1317 403.364 14.967C403.754 14.8023 404.178 14.72 404.638 14.72ZM415.94 18.243C415.94 18.5117 415.923 18.7543 415.888 18.971H410.415C410.458 19.543 410.671 20.0023 411.052 20.349C411.433 20.6957 411.901 20.869 412.456 20.869C413.253 20.869 413.817 20.5353 414.146 19.868H415.745C415.528 20.5267 415.134 21.0683 414.562 21.493C413.999 21.909 413.297 22.117 412.456 22.117C411.771 22.117 411.156 21.9653 410.61 21.662C410.073 21.35 409.648 20.9167 409.336 20.362C409.033 19.7987 408.881 19.1487 408.881 18.412C408.881 17.6753 409.028 17.0297 409.323 16.475C409.626 15.9117 410.047 15.4783 410.584 15.175C411.13 14.8717 411.754 14.72 412.456 14.72C413.132 14.72 413.734 14.8673 414.263 15.162C414.792 15.4567 415.203 15.8727 415.498 16.41C415.793 16.9387 415.94 17.5497 415.94 18.243ZM414.393 17.775C414.384 17.229 414.189 16.7913 413.808 16.462C413.427 16.1327 412.954 15.968 412.391 15.968C411.88 15.968 411.442 16.1327 411.078 16.462C410.714 16.7827 410.497 17.2203 410.428 17.775H414.393ZM429.446 14.72C430.01 14.72 430.512 14.837 430.954 15.071C431.405 15.305 431.756 15.6517 432.007 16.111C432.267 16.5703 432.397 17.125 432.397 17.775V22H430.928V17.996C430.928 17.3547 430.768 16.865 430.447 16.527C430.127 16.1803 429.689 16.007 429.134 16.007C428.58 16.007 428.138 16.1803 427.808 16.527C427.488 16.865 427.327 17.3547 427.327 17.996V22H425.858V17.996C425.858 17.3547 425.698 16.865 425.377 16.527C425.057 16.1803 424.619 16.007 424.064 16.007C423.51 16.007 423.068 16.1803 422.738 16.527C422.418 16.865 422.257 17.3547 422.257 17.996V22H420.775V14.837H422.257V15.656C422.5 15.3613 422.808 15.1317 423.18 14.967C423.553 14.8023 423.952 14.72 424.376 14.72C424.948 14.72 425.46 14.8413 425.91 15.084C426.361 15.3267 426.708 15.6777 426.95 16.137C427.167 15.7037 427.505 15.3613 427.964 15.11C428.424 14.85 428.918 14.72 429.446 14.72ZM433.789 18.386C433.789 17.6667 433.936 17.0297 434.231 16.475C434.534 15.9203 434.942 15.4913 435.453 15.188C435.973 14.876 436.545 14.72 437.169 14.72C437.732 14.72 438.222 14.8327 438.638 15.058C439.063 15.2747 439.401 15.5477 439.652 15.877V14.837H441.147V22H439.652V20.934C439.401 21.272 439.058 21.5537 438.625 21.779C438.192 22.0043 437.698 22.117 437.143 22.117C436.528 22.117 435.964 21.961 435.453 21.649C434.942 21.3283 434.534 20.8863 434.231 20.323C433.936 19.751 433.789 19.1053 433.789 18.386ZM439.652 18.412C439.652 17.918 439.548 17.489 439.34 17.125C439.141 16.761 438.876 16.4837 438.547 16.293C438.218 16.1023 437.862 16.007 437.481 16.007C437.1 16.007 436.744 16.1023 436.415 16.293C436.086 16.475 435.817 16.748 435.609 17.112C435.41 17.4673 435.31 17.892 435.31 18.386C435.31 18.88 435.41 19.3133 435.609 19.686C435.817 20.0587 436.086 20.3447 436.415 20.544C436.753 20.7347 437.108 20.83 437.481 20.83C437.862 20.83 438.218 20.7347 438.547 20.544C438.876 20.3533 439.141 20.076 439.34 19.712C439.548 19.3393 439.652 18.906 439.652 18.412ZM444.576 15.877C444.792 15.513 445.078 15.2313 445.434 15.032C445.798 14.824 446.227 14.72 446.721 14.72V16.254H446.344C445.763 16.254 445.321 16.4013 445.018 16.696C444.723 16.9907 444.576 17.502 444.576 18.23V22H443.094V14.837H444.576V15.877ZM450.917 18.425L454.219 22H452.217L449.565 18.919V22H448.083V12.38H449.565V17.97L452.165 14.837H454.219L450.917 18.425ZM461.846 18.243C461.846 18.5117 461.829 18.7543 461.794 18.971H456.321C456.364 19.543 456.577 20.0023 456.958 20.349C457.339 20.6957 457.807 20.869 458.362 20.869C459.159 20.869 459.723 20.5353 460.052 19.868H461.651C461.434 20.5267 461.04 21.0683 460.468 21.493C459.905 21.909 459.203 22.117 458.362 22.117C457.677 22.117 457.062 21.9653 456.516 21.662C455.979 21.35 455.554 20.9167 455.242 20.362C454.939 19.7987 454.787 19.1487 454.787 18.412C454.787 17.6753 454.934 17.0297 455.229 16.475C455.532 15.9117 455.953 15.4783 456.49 15.175C457.036 14.8717 457.66 14.72 458.362 14.72C459.038 14.72 459.64 14.8673 460.169 15.162C460.698 15.4567 461.109 15.8727 461.404 16.41C461.699 16.9387 461.846 17.5497 461.846 18.243ZM460.299 17.775C460.29 17.229 460.095 16.7913 459.714 16.462C459.333 16.1327 458.86 15.968 458.297 15.968C457.786 15.968 457.348 16.1327 456.984 16.462C456.62 16.7827 456.403 17.2203 456.334 17.775H460.299ZM465.034 16.046V20.011C465.034 20.2797 465.094 20.4747 465.216 20.596C465.346 20.7087 465.562 20.765 465.866 20.765H466.776V22H465.606C464.938 22 464.427 21.844 464.072 21.532C463.716 21.22 463.539 20.713 463.539 20.011V16.046H462.694V14.837H463.539V13.056H465.034V14.837H466.776V16.046H465.034ZM249.567 36.046H248.241V42H246.746V36.046H245.901V34.837H246.746V34.33C246.746 33.5067 246.963 32.9087 247.396 32.536C247.838 32.1547 248.527 31.964 249.463 31.964V33.199C249.012 33.199 248.696 33.2857 248.514 33.459C248.332 33.6237 248.241 33.914 248.241 34.33V34.837H249.567V36.046ZM253.987 42.117C253.311 42.117 252.7 41.9653 252.154 41.662C251.608 41.35 251.179 40.9167 250.867 40.362C250.555 39.7987 250.399 39.1487 250.399 38.412C250.399 37.684 250.56 37.0383 250.88 36.475C251.201 35.9117 251.639 35.4783 252.193 35.175C252.748 34.8717 253.368 34.72 254.052 34.72C254.737 34.72 255.357 34.8717 255.911 35.175C256.466 35.4783 256.904 35.9117 257.224 36.475C257.545 37.0383 257.705 37.684 257.705 38.412C257.705 39.14 257.541 39.7857 257.211 40.349C256.882 40.9123 256.431 41.35 255.859 41.662C255.296 41.9653 254.672 42.117 253.987 42.117ZM253.987 40.83C254.369 40.83 254.724 40.739 255.053 40.557C255.391 40.375 255.664 40.102 255.872 39.738C256.08 39.374 256.184 38.932 256.184 38.412C256.184 37.892 256.085 37.4543 255.885 37.099C255.686 36.735 255.422 36.462 255.092 36.28C254.763 36.098 254.408 36.007 254.026 36.007C253.645 36.007 253.29 36.098 252.96 36.28C252.64 36.462 252.384 36.735 252.193 37.099C252.003 37.4543 251.907 37.892 251.907 38.412C251.907 39.1833 252.102 39.7813 252.492 40.206C252.891 40.622 253.389 40.83 253.987 40.83ZM260.652 35.877C260.869 35.513 261.155 35.2313 261.51 35.032C261.874 34.824 262.303 34.72 262.797 34.72V36.254H262.42C261.84 36.254 261.398 36.4013 261.094 36.696C260.8 36.9907 260.652 37.502 260.652 38.23V42H259.17V34.837H260.652V35.877ZM276.208 34.72C276.771 34.72 277.274 34.837 277.716 35.071C278.166 35.305 278.517 35.6517 278.769 36.111C279.029 36.5703 279.159 37.125 279.159 37.775V42H277.69V37.996C277.69 37.3547 277.529 36.865 277.209 36.527C276.888 36.1803 276.45 36.007 275.896 36.007C275.341 36.007 274.899 36.1803 274.57 36.527C274.249 36.865 274.089 37.3547 274.089 37.996V42H272.62V37.996C272.62 37.3547 272.459 36.865 272.139 36.527C271.818 36.1803 271.38 36.007 270.826 36.007C270.271 36.007 269.829 36.1803 269.5 36.527C269.179 36.865 269.019 37.3547 269.019 37.996V42H267.537V34.837H269.019V35.656C269.261 35.3613 269.569 35.1317 269.942 34.967C270.314 34.8023 270.713 34.72 271.138 34.72C271.71 34.72 272.221 34.8413 272.672 35.084C273.122 35.3267 273.469 35.6777 273.712 36.137C273.928 35.7037 274.266 35.3613 274.726 35.11C275.185 34.85 275.679 34.72 276.208 34.72ZM284.151 42.117C283.475 42.117 282.864 41.9653 282.318 41.662C281.772 41.35 281.343 40.9167 281.031 40.362C280.719 39.7987 280.563 39.1487 280.563 38.412C280.563 37.684 280.724 37.0383 281.044 36.475C281.365 35.9117 281.803 35.4783 282.357 35.175C282.912 34.8717 283.532 34.72 284.216 34.72C284.901 34.72 285.521 34.8717 286.075 35.175C286.63 35.4783 287.068 35.9117 287.388 36.475C287.709 37.0383 287.869 37.684 287.869 38.412C287.869 39.14 287.705 39.7857 287.375 40.349C287.046 40.9123 286.595 41.35 286.023 41.662C285.46 41.9653 284.836 42.117 284.151 42.117ZM284.151 40.83C284.533 40.83 284.888 40.739 285.217 40.557C285.555 40.375 285.828 40.102 286.036 39.738C286.244 39.374 286.348 38.932 286.348 38.412C286.348 37.892 286.249 37.4543 286.049 37.099C285.85 36.735 285.586 36.462 285.256 36.28C284.927 36.098 284.572 36.007 284.19 36.007C283.809 36.007 283.454 36.098 283.124 36.28C282.804 36.462 282.548 36.735 282.357 37.099C282.167 37.4543 282.071 37.892 282.071 38.412C282.071 39.1833 282.266 39.7813 282.656 40.206C283.055 40.622 283.553 40.83 284.151 40.83ZM292.948 34.72C293.512 34.72 294.014 34.837 294.456 35.071C294.907 35.305 295.258 35.6517 295.509 36.111C295.761 36.5703 295.886 37.125 295.886 37.775V42H294.417V37.996C294.417 37.3547 294.257 36.865 293.936 36.527C293.616 36.1803 293.178 36.007 292.623 36.007C292.069 36.007 291.627 36.1803 291.297 36.527C290.977 36.865 290.816 37.3547 290.816 37.996V42H289.334V34.837H290.816V35.656C291.059 35.3613 291.367 35.1317 291.739 34.967C292.121 34.8023 292.524 34.72 292.948 34.72ZM299.506 36.046V40.011C299.506 40.2797 299.566 40.4747 299.688 40.596C299.818 40.7087 300.034 40.765 300.338 40.765H301.248V42H300.078C299.41 42 298.899 41.844 298.544 41.532C298.188 41.22 298.011 40.713 298.011 40.011V36.046H297.166V34.837H298.011V33.056H299.506V34.837H301.248V36.046H299.506ZM306.319 34.72C306.865 34.72 307.35 34.837 307.775 35.071C308.208 35.305 308.546 35.6517 308.789 36.111C309.04 36.5703 309.166 37.125 309.166 37.775V42H307.697V37.996C307.697 37.3547 307.536 36.865 307.216 36.527C306.895 36.1803 306.457 36.007 305.903 36.007C305.348 36.007 304.906 36.1803 304.577 36.527C304.256 36.865 304.096 37.3547 304.096 37.996V42H302.614V32.38H304.096V35.669C304.347 35.3657 304.663 35.1317 305.045 34.967C305.435 34.8023 305.859 34.72 306.319 34.72ZM313.656 42.117C313.093 42.117 312.586 42.0173 312.135 41.818C311.693 41.61 311.342 41.3327 311.082 40.986C310.822 40.6307 310.683 40.2363 310.666 39.803H312.2C312.226 40.1063 312.369 40.362 312.629 40.57C312.898 40.7693 313.231 40.869 313.63 40.869C314.046 40.869 314.367 40.791 314.592 40.635C314.826 40.4703 314.943 40.2623 314.943 40.011C314.943 39.7423 314.813 39.543 314.553 39.413C314.302 39.283 313.899 39.14 313.344 38.984C312.807 38.8367 312.369 38.6937 312.031 38.555C311.693 38.4163 311.398 38.204 311.147 37.918C310.904 37.632 310.783 37.255 310.783 36.787C310.783 36.4057 310.896 36.059 311.121 35.747C311.346 35.4263 311.667 35.175 312.083 34.993C312.508 34.811 312.993 34.72 313.539 34.72C314.354 34.72 315.008 34.928 315.502 35.344C316.005 35.7513 316.273 36.3103 316.308 37.021H314.826C314.8 36.7003 314.67 36.4447 314.436 36.254C314.202 36.0633 313.886 35.968 313.487 35.968C313.097 35.968 312.798 36.0417 312.59 36.189C312.382 36.3363 312.278 36.5313 312.278 36.774C312.278 36.9647 312.347 37.125 312.486 37.255C312.625 37.385 312.794 37.489 312.993 37.567C313.192 37.6363 313.487 37.7273 313.877 37.84C314.397 37.9787 314.822 38.1217 315.151 38.269C315.489 38.4077 315.779 38.6157 316.022 38.893C316.265 39.1703 316.39 39.5387 316.399 39.998C316.399 40.4053 316.286 40.7693 316.061 41.09C315.836 41.4107 315.515 41.662 315.099 41.844C314.692 42.026 314.211 42.117 313.656 42.117ZM318.598 42.091C318.33 42.091 318.104 42 317.922 41.818C317.74 41.636 317.649 41.4107 317.649 41.142C317.649 40.8733 317.74 40.648 317.922 40.466C318.104 40.284 318.33 40.193 318.598 40.193C318.858 40.193 319.079 40.284 319.261 40.466C319.443 40.648 319.534 40.8733 319.534 41.142C319.534 41.4107 319.443 41.636 319.261 41.818C319.079 42 318.858 42.091 318.598 42.091ZM331.208 32.965L328.218 38.724V42H326.736V38.724L323.733 32.965H325.384L327.477 37.398L329.57 32.965H331.208ZM335.491 42.117C334.815 42.117 334.204 41.9653 333.658 41.662C333.112 41.35 332.683 40.9167 332.371 40.362C332.059 39.7987 331.903 39.1487 331.903 38.412C331.903 37.684 332.064 37.0383 332.384 36.475C332.705 35.9117 333.143 35.4783 333.697 35.175C334.252 34.8717 334.872 34.72 335.556 34.72C336.241 34.72 336.861 34.8717 337.415 35.175C337.97 35.4783 338.408 35.9117 338.728 36.475C339.049 37.0383 339.209 37.684 339.209 38.412C339.209 39.14 339.045 39.7857 338.715 40.349C338.386 40.9123 337.935 41.35 337.363 41.662C336.8 41.9653 336.176 42.117 335.491 42.117ZM335.491 40.83C335.873 40.83 336.228 40.739 336.557 40.557C336.895 40.375 337.168 40.102 337.376 39.738C337.584 39.374 337.688 38.932 337.688 38.412C337.688 37.892 337.589 37.4543 337.389 37.099C337.19 36.735 336.926 36.462 336.596 36.28C336.267 36.098 335.912 36.007 335.53 36.007C335.149 36.007 334.794 36.098 334.464 36.28C334.144 36.462 333.888 36.735 333.697 37.099C333.507 37.4543 333.411 37.892 333.411 38.412C333.411 39.1833 333.606 39.7813 333.996 40.206C334.395 40.622 334.893 40.83 335.491 40.83ZM347.161 34.837V42H345.679V41.155C345.445 41.4497 345.138 41.6837 344.756 41.857C344.384 42.0217 343.985 42.104 343.56 42.104C342.997 42.104 342.49 41.987 342.039 41.753C341.597 41.519 341.246 41.1723 340.986 40.713C340.735 40.2537 340.609 39.699 340.609 39.049V34.837H342.078V38.828C342.078 39.4693 342.239 39.9633 342.559 40.31C342.88 40.648 343.318 40.817 343.872 40.817C344.427 40.817 344.865 40.648 345.185 40.31C345.515 39.9633 345.679 39.4693 345.679 38.828V34.837H347.161ZM353.976 35.877C354.192 35.513 354.478 35.2313 354.834 35.032C355.198 34.824 355.627 34.72 356.121 34.72V36.254H355.744C355.163 36.254 354.721 36.4013 354.418 36.696C354.123 36.9907 353.976 37.502 353.976 38.23V42H352.494V34.837H353.976V35.877ZM364.048 38.243C364.048 38.5117 364.03 38.7543 363.996 38.971H358.523C358.566 39.543 358.778 40.0023 359.16 40.349C359.541 40.6957 360.009 40.869 360.564 40.869C361.361 40.869 361.924 40.5353 362.254 39.868H363.853C363.636 40.5267 363.242 41.0683 362.67 41.493C362.106 41.909 361.404 42.117 360.564 42.117C359.879 42.117 359.264 41.9653 358.718 41.662C358.18 41.35 357.756 40.9167 357.444 40.362C357.14 39.7987 356.989 39.1487 356.989 38.412C356.989 37.6753 357.136 37.0297 357.431 36.475C357.734 35.9117 358.154 35.4783 358.692 35.175C359.238 34.8717 359.862 34.72 360.564 34.72C361.24 34.72 361.842 34.8673 362.371 35.162C362.899 35.4567 363.311 35.8727 363.606 36.41C363.9 36.9387 364.048 37.5497 364.048 38.243ZM362.501 37.775C362.492 37.229 362.297 36.7913 361.916 36.462C361.534 36.1327 361.062 35.968 360.499 35.968C359.987 35.968 359.55 36.1327 359.186 36.462C358.822 36.7827 358.605 37.2203 358.536 37.775H362.501ZM365.012 38.386C365.012 37.6667 365.16 37.0297 365.454 36.475C365.758 35.9203 366.165 35.4913 366.676 35.188C367.196 34.876 367.768 34.72 368.392 34.72C368.956 34.72 369.445 34.8327 369.861 35.058C370.286 35.2747 370.624 35.5477 370.875 35.877V34.837H372.37V42H370.875V40.934C370.624 41.272 370.282 41.5537 369.848 41.779C369.415 42.0043 368.921 42.117 368.366 42.117C367.751 42.117 367.188 41.961 366.676 41.649C366.165 41.3283 365.758 40.8863 365.454 40.323C365.16 39.751 365.012 39.1053 365.012 38.386ZM370.875 38.412C370.875 37.918 370.771 37.489 370.563 37.125C370.364 36.761 370.1 36.4837 369.77 36.293C369.441 36.1023 369.086 36.007 368.704 36.007C368.323 36.007 367.968 36.1023 367.638 36.293C367.309 36.475 367.04 36.748 366.832 37.112C366.633 37.4673 366.533 37.892 366.533 38.386C366.533 38.88 366.633 39.3133 366.832 39.686C367.04 40.0587 367.309 40.3447 367.638 40.544C367.976 40.7347 368.332 40.83 368.704 40.83C369.086 40.83 369.441 40.7347 369.77 40.544C370.1 40.3533 370.364 40.076 370.563 39.712C370.771 39.3393 370.875 38.906 370.875 38.412ZM375.799 32.38V42H374.317V32.38H375.799ZM379.227 32.38V42H377.745V32.38H379.227ZM387.62 34.837L383.226 45.367H381.692L383.148 41.883L380.327 34.837H381.978L383.993 40.297L386.086 34.837H387.62ZM395.73 34.72C396.293 34.72 396.796 34.837 397.238 35.071C397.688 35.305 398.039 35.6517 398.291 36.111C398.542 36.5703 398.668 37.125 398.668 37.775V42H397.199V37.996C397.199 37.3547 397.038 36.865 396.718 36.527C396.397 36.1803 395.959 36.007 395.405 36.007C394.85 36.007 394.408 36.1803 394.079 36.527C393.758 36.865 393.598 37.3547 393.598 37.996V42H392.116V34.837H393.598V35.656C393.84 35.3613 394.148 35.1317 394.521 34.967C394.902 34.8023 395.305 34.72 395.73 34.72ZM407.123 38.243C407.123 38.5117 407.106 38.7543 407.071 38.971H401.598C401.641 39.543 401.854 40.0023 402.235 40.349C402.616 40.6957 403.084 40.869 403.639 40.869C404.436 40.869 405 40.5353 405.329 39.868H406.928C406.711 40.5267 406.317 41.0683 405.745 41.493C405.182 41.909 404.48 42.117 403.639 42.117C402.954 42.117 402.339 41.9653 401.793 41.662C401.256 41.35 400.831 40.9167 400.519 40.362C400.216 39.7987 400.064 39.1487 400.064 38.412C400.064 37.6753 400.211 37.0297 400.506 36.475C400.809 35.9117 401.23 35.4783 401.767 35.175C402.313 34.8717 402.937 34.72 403.639 34.72C404.315 34.72 404.917 34.8673 405.446 35.162C405.975 35.4567 406.386 35.8727 406.681 36.41C406.976 36.9387 407.123 37.5497 407.123 38.243ZM405.576 37.775C405.567 37.229 405.372 36.7913 404.991 36.462C404.61 36.1327 404.137 35.968 403.574 35.968C403.063 35.968 402.625 36.1327 402.261 36.462C401.897 36.7827 401.68 37.2203 401.611 37.775H405.576ZM415.146 38.243C415.146 38.5117 415.129 38.7543 415.094 38.971H409.621C409.665 39.543 409.877 40.0023 410.258 40.349C410.64 40.6957 411.108 40.869 411.662 40.869C412.46 40.869 413.023 40.5353 413.352 39.868H414.951C414.735 40.5267 414.34 41.0683 413.768 41.493C413.205 41.909 412.503 42.117 411.662 42.117C410.978 42.117 410.362 41.9653 409.816 41.662C409.279 41.35 408.854 40.9167 408.542 40.362C408.239 39.7987 408.087 39.1487 408.087 38.412C408.087 37.6753 408.235 37.0297 408.529 36.475C408.833 35.9117 409.253 35.4783 409.79 35.175C410.336 34.8717 410.96 34.72 411.662 34.72C412.338 34.72 412.941 34.8673 413.469 35.162C413.998 35.4567 414.41 35.8727 414.704 36.41C414.999 36.9387 415.146 37.5497 415.146 38.243ZM413.599 37.775C413.591 37.229 413.396 36.7913 413.014 36.462C412.633 36.1327 412.161 35.968 411.597 35.968C411.086 35.968 410.648 36.1327 410.284 36.462C409.92 36.7827 409.704 37.2203 409.634 37.775H413.599ZM416.111 38.386C416.111 37.6667 416.258 37.0297 416.553 36.475C416.856 35.9203 417.264 35.4913 417.775 35.188C418.295 34.876 418.871 34.72 419.504 34.72C419.972 34.72 420.431 34.824 420.882 35.032C421.341 35.2313 421.705 35.5 421.974 35.838V32.38H423.469V42H421.974V40.921C421.731 41.2677 421.393 41.5537 420.96 41.779C420.535 42.0043 420.046 42.117 419.491 42.117C418.867 42.117 418.295 41.961 417.775 41.649C417.264 41.3283 416.856 40.8863 416.553 40.323C416.258 39.751 416.111 39.1053 416.111 38.386ZM421.974 38.412C421.974 37.918 421.87 37.489 421.662 37.125C421.463 36.761 421.198 36.4837 420.869 36.293C420.54 36.1023 420.184 36.007 419.803 36.007C419.422 36.007 419.066 36.1023 418.737 36.293C418.408 36.475 418.139 36.748 417.931 37.112C417.732 37.4673 417.632 37.892 417.632 38.386C417.632 38.88 417.732 39.3133 417.931 39.686C418.139 40.0587 418.408 40.3447 418.737 40.544C419.075 40.7347 419.43 40.83 419.803 40.83C420.184 40.83 420.54 40.7347 420.869 40.544C421.198 40.3533 421.463 40.076 421.662 39.712C421.87 39.3393 421.974 38.906 421.974 38.412ZM430.521 36.046V40.011C430.521 40.2797 430.582 40.4747 430.703 40.596C430.833 40.7087 431.05 40.765 431.353 40.765H432.263V42H431.093C430.426 42 429.915 41.844 429.559 41.532C429.204 41.22 429.026 40.713 429.026 40.011V36.046H428.181V34.837H429.026V33.056H430.521V34.837H432.263V36.046H430.521ZM436.736 42.117C436.06 42.117 435.449 41.9653 434.903 41.662C434.357 41.35 433.928 40.9167 433.616 40.362C433.304 39.7987 433.148 39.1487 433.148 38.412C433.148 37.684 433.309 37.0383 433.629 36.475C433.95 35.9117 434.388 35.4783 434.942 35.175C435.497 34.8717 436.117 34.72 436.801 34.72C437.486 34.72 438.106 34.8717 438.66 35.175C439.215 35.4783 439.653 35.9117 439.973 36.475C440.294 37.0383 440.454 37.684 440.454 38.412C440.454 39.14 440.29 39.7857 439.96 40.349C439.631 40.9123 439.18 41.35 438.608 41.662C438.045 41.9653 437.421 42.117 436.736 42.117ZM436.736 40.83C437.118 40.83 437.473 40.739 437.802 40.557C438.14 40.375 438.413 40.102 438.621 39.738C438.829 39.374 438.933 38.932 438.933 38.412C438.933 37.892 438.834 37.4543 438.634 37.099C438.435 36.735 438.171 36.462 437.841 36.28C437.512 36.098 437.157 36.007 436.775 36.007C436.394 36.007 436.039 36.098 435.709 36.28C435.389 36.462 435.133 36.735 434.942 37.099C434.752 37.4543 434.656 37.892 434.656 38.412C434.656 39.1833 434.851 39.7813 435.241 40.206C435.64 40.622 436.138 40.83 436.736 40.83ZM446.778 35.89C447.03 35.5607 447.372 35.2833 447.805 35.058C448.239 34.8327 448.728 34.72 449.274 34.72C449.898 34.72 450.466 34.876 450.977 35.188C451.497 35.4913 451.905 35.9203 452.199 36.475C452.494 37.0297 452.641 37.6667 452.641 38.386C452.641 39.1053 452.494 39.751 452.199 40.323C451.905 40.8863 451.497 41.3283 450.977 41.649C450.466 41.961 449.898 42.117 449.274 42.117C448.728 42.117 448.243 42.0087 447.818 41.792C447.394 41.5667 447.047 41.2893 446.778 40.96V45.406H445.296V34.837H446.778V35.89ZM451.133 38.386C451.133 37.892 451.029 37.4673 450.821 37.112C450.622 36.748 450.353 36.475 450.015 36.293C449.686 36.1023 449.331 36.007 448.949 36.007C448.577 36.007 448.221 36.1023 447.883 36.293C447.554 36.4837 447.285 36.761 447.077 37.125C446.878 37.489 446.778 37.918 446.778 38.412C446.778 38.906 446.878 39.3393 447.077 39.712C447.285 40.076 447.554 40.3533 447.883 40.544C448.221 40.7347 448.577 40.83 448.949 40.83C449.331 40.83 449.686 40.7347 450.015 40.544C450.353 40.3447 450.622 40.0587 450.821 39.686C451.029 39.3133 451.133 38.88 451.133 38.386ZM460.594 34.837V42H459.112V41.155C458.878 41.4497 458.57 41.6837 458.189 41.857C457.816 42.0217 457.418 42.104 456.993 42.104C456.43 42.104 455.923 41.987 455.472 41.753C455.03 41.519 454.679 41.1723 454.419 40.713C454.168 40.2537 454.042 39.699 454.042 39.049V34.837H455.511V38.828C455.511 39.4693 455.671 39.9633 455.992 40.31C456.313 40.648 456.75 40.817 457.305 40.817C457.86 40.817 458.297 40.648 458.618 40.31C458.947 39.9633 459.112 39.4693 459.112 38.828V34.837H460.594ZM464.278 36.046V40.011C464.278 40.2797 464.339 40.4747 464.46 40.596C464.59 40.7087 464.807 40.765 465.11 40.765H466.02V42H464.85C464.183 42 463.672 41.844 463.316 41.532C462.961 41.22 462.783 40.713 462.783 40.011V36.046H461.938V34.837H462.783V33.056H464.278V34.837H466.02V36.046H464.278ZM272.209 54.72C272.772 54.72 273.275 54.837 273.717 55.071C274.167 55.305 274.518 55.6517 274.77 56.111C275.03 56.5703 275.16 57.125 275.16 57.775V62H273.691V57.996C273.691 57.3547 273.53 56.865 273.21 56.527C272.889 56.1803 272.451 56.007 271.897 56.007C271.342 56.007 270.9 56.1803 270.571 56.527C270.25 56.865 270.09 57.3547 270.09 57.996V62H268.621V57.996C268.621 57.3547 268.46 56.865 268.14 56.527C267.819 56.1803 267.381 56.007 266.827 56.007C266.272 56.007 265.83 56.1803 265.501 56.527C265.18 56.865 265.02 57.3547 265.02 57.996V62H263.538V54.837H265.02V55.656C265.262 55.3613 265.57 55.1317 265.943 54.967C266.315 54.8023 266.714 54.72 267.139 54.72C267.711 54.72 268.222 54.8413 268.673 55.084C269.123 55.3267 269.47 55.6777 269.713 56.137C269.929 55.7037 270.267 55.3613 270.727 55.11C271.186 54.85 271.68 54.72 272.209 54.72ZM283.61 58.243C283.61 58.5117 283.593 58.7543 283.558 58.971H278.085C278.129 59.543 278.341 60.0023 278.722 60.349C279.104 60.6957 279.572 60.869 280.126 60.869C280.924 60.869 281.487 60.5353 281.816 59.868H283.415C283.199 60.5267 282.804 61.0683 282.232 61.493C281.669 61.909 280.967 62.117 280.126 62.117C279.442 62.117 278.826 61.9653 278.28 61.662C277.743 61.35 277.318 60.9167 277.006 60.362C276.703 59.7987 276.551 59.1487 276.551 58.412C276.551 57.6753 276.699 57.0297 276.993 56.475C277.297 55.9117 277.717 55.4783 278.254 55.175C278.8 54.8717 279.424 54.72 280.126 54.72C280.802 54.72 281.405 54.8673 281.933 55.162C282.462 55.4567 282.874 55.8727 283.168 56.41C283.463 56.9387 283.61 57.5497 283.61 58.243ZM282.063 57.775C282.055 57.229 281.86 56.7913 281.478 56.462C281.097 56.1327 280.625 55.968 280.061 55.968C279.55 55.968 279.112 56.1327 278.748 56.462C278.384 56.7827 278.168 57.2203 278.098 57.775H282.063ZM289.2 53.888C288.931 53.888 288.706 53.797 288.524 53.615C288.342 53.433 288.251 53.2077 288.251 52.939C288.251 52.6703 288.342 52.445 288.524 52.263C288.706 52.081 288.931 51.99 289.2 51.99C289.46 51.99 289.681 52.081 289.863 52.263C290.045 52.445 290.136 52.6703 290.136 52.939C290.136 53.2077 290.045 53.433 289.863 53.615C289.681 53.797 289.46 53.888 289.2 53.888ZM289.928 54.837V62H288.446V54.837H289.928ZM295.487 54.72C296.051 54.72 296.553 54.837 296.995 55.071C297.446 55.305 297.797 55.6517 298.048 56.111C298.3 56.5703 298.425 57.125 298.425 57.775V62H296.956V57.996C296.956 57.3547 296.796 56.865 296.475 56.527C296.155 56.1803 295.717 56.007 295.162 56.007C294.608 56.007 294.166 56.1803 293.836 56.527C293.516 56.865 293.355 57.3547 293.355 57.996V62H291.873V54.837H293.355V55.656C293.598 55.3613 293.906 55.1317 294.278 54.967C294.66 54.8023 295.063 54.72 295.487 54.72ZM305.422 56.046V60.011C305.422 60.2797 305.482 60.4747 305.604 60.596C305.734 60.7087 305.95 60.765 306.254 60.765H307.164V62H305.994C305.326 62 304.815 61.844 304.46 61.532C304.104 61.22 303.927 60.713 303.927 60.011V56.046H303.082V54.837H303.927V53.056H305.422V54.837H307.164V56.046H305.422ZM311.637 62.117C310.961 62.117 310.35 61.9653 309.804 61.662C309.258 61.35 308.829 60.9167 308.517 60.362C308.205 59.7987 308.049 59.1487 308.049 58.412C308.049 57.684 308.209 57.0383 308.53 56.475C308.85 55.9117 309.288 55.4783 309.843 55.175C310.397 54.8717 311.017 54.72 311.702 54.72C312.386 54.72 313.006 54.8717 313.561 55.175C314.115 55.4783 314.553 55.9117 314.874 56.475C315.194 57.0383 315.355 57.684 315.355 58.412C315.355 59.14 315.19 59.7857 314.861 60.349C314.531 60.9123 314.081 61.35 313.509 61.662C312.945 61.9653 312.321 62.117 311.637 62.117ZM311.637 60.83C312.018 60.83 312.373 60.739 312.703 60.557C313.041 60.375 313.314 60.102 313.522 59.738C313.73 59.374 313.834 58.932 313.834 58.412C313.834 57.892 313.734 57.4543 313.535 57.099C313.335 56.735 313.071 56.462 312.742 56.28C312.412 56.098 312.057 56.007 311.676 56.007C311.294 56.007 310.939 56.098 310.61 56.28C310.289 56.462 310.033 56.735 309.843 57.099C309.652 57.4543 309.557 57.892 309.557 58.412C309.557 59.1833 309.752 59.7813 310.142 60.206C310.54 60.622 311.039 60.83 311.637 60.83ZM323.307 54.837V62H321.825V61.155C321.591 61.4497 321.283 61.6837 320.902 61.857C320.529 62.0217 320.13 62.104 319.706 62.104C319.142 62.104 318.635 61.987 318.185 61.753C317.743 61.519 317.392 61.1723 317.132 60.713C316.88 60.2537 316.755 59.699 316.755 59.049V54.837H318.224V58.828C318.224 59.4693 318.384 59.9633 318.705 60.31C319.025 60.648 319.463 60.817 320.018 60.817C320.572 60.817 321.01 60.648 321.331 60.31C321.66 59.9633 321.825 59.4693 321.825 58.828V54.837H323.307ZM324.768 58.412C324.768 57.6753 324.915 57.0297 325.21 56.475C325.513 55.9117 325.929 55.4783 326.458 55.175C326.987 54.8717 327.593 54.72 328.278 54.72C329.145 54.72 329.86 54.928 330.423 55.344C330.995 55.7513 331.381 56.3363 331.58 57.099H329.981C329.851 56.7437 329.643 56.4663 329.357 56.267C329.071 56.0677 328.711 55.968 328.278 55.968C327.671 55.968 327.186 56.1847 326.822 56.618C326.467 57.0427 326.289 57.6407 326.289 58.412C326.289 59.1833 326.467 59.7857 326.822 60.219C327.186 60.6523 327.671 60.869 328.278 60.869C329.136 60.869 329.704 60.492 329.981 59.738H331.58C331.372 60.466 330.982 61.0467 330.41 61.48C329.838 61.9047 329.127 62.117 328.278 62.117C327.593 62.117 326.987 61.9653 326.458 61.662C325.929 61.35 325.513 60.9167 325.21 60.362C324.915 59.7987 324.768 59.1487 324.768 58.412ZM336.762 54.72C337.308 54.72 337.793 54.837 338.218 55.071C338.651 55.305 338.989 55.6517 339.232 56.111C339.483 56.5703 339.609 57.125 339.609 57.775V62H338.14V57.996C338.14 57.3547 337.98 56.865 337.659 56.527C337.338 56.1803 336.901 56.007 336.346 56.007C335.791 56.007 335.349 56.1803 335.02 56.527C334.699 56.865 334.539 57.3547 334.539 57.996V62H333.057V52.38H334.539V55.669C334.79 55.3657 335.107 55.1317 335.488 54.967C335.878 54.8023 336.303 54.72 336.762 54.72ZM354.496 54.837L352.273 62H350.713L349.27 56.709L347.827 62H346.267L344.031 54.837H345.539L347.034 60.596L348.555 54.837H350.102L351.558 60.57L353.04 54.837H354.496ZM356.358 53.888C356.089 53.888 355.864 53.797 355.682 53.615C355.5 53.433 355.409 53.2077 355.409 52.939C355.409 52.6703 355.5 52.445 355.682 52.263C355.864 52.081 356.089 51.99 356.358 51.99C356.618 51.99 356.839 52.081 357.021 52.263C357.203 52.445 357.294 52.6703 357.294 52.939C357.294 53.2077 357.203 53.433 357.021 53.615C356.839 53.797 356.618 53.888 356.358 53.888ZM357.086 54.837V62H355.604V54.837H357.086ZM360.761 56.046V60.011C360.761 60.2797 360.821 60.4747 360.943 60.596C361.073 60.7087 361.289 60.765 361.593 60.765H362.503V62H361.333C360.665 62 360.154 61.844 359.799 61.532C359.443 61.22 359.266 60.713 359.266 60.011V56.046H358.421V54.837H359.266V53.056H360.761V54.837H362.503V56.046H360.761ZM367.574 54.72C368.12 54.72 368.605 54.837 369.03 55.071C369.463 55.305 369.801 55.6517 370.044 56.111C370.295 56.5703 370.421 57.125 370.421 57.775V62H368.952V57.996C368.952 57.3547 368.791 56.865 368.471 56.527C368.15 56.1803 367.712 56.007 367.158 56.007C366.603 56.007 366.161 56.1803 365.832 56.527C365.511 56.865 365.351 57.3547 365.351 57.996V62H363.869V52.38H365.351V55.669C365.602 55.3657 365.918 55.1317 366.3 54.967C366.69 54.8023 367.114 54.72 367.574 54.72ZM382.136 54.837L377.742 65.367H376.208L377.664 61.883L374.843 54.837H376.494L378.509 60.297L380.602 54.837H382.136ZM386.361 62.117C385.685 62.117 385.074 61.9653 384.528 61.662C383.982 61.35 383.553 60.9167 383.241 60.362C382.929 59.7987 382.773 59.1487 382.773 58.412C382.773 57.684 382.934 57.0383 383.254 56.475C383.575 55.9117 384.013 55.4783 384.567 55.175C385.122 54.8717 385.742 54.72 386.426 54.72C387.111 54.72 387.731 54.8717 388.285 55.175C388.84 55.4783 389.278 55.9117 389.598 56.475C389.919 57.0383 390.079 57.684 390.079 58.412C390.079 59.14 389.915 59.7857 389.585 60.349C389.256 60.9123 388.805 61.35 388.233 61.662C387.67 61.9653 387.046 62.117 386.361 62.117ZM386.361 60.83C386.743 60.83 387.098 60.739 387.427 60.557C387.765 60.375 388.038 60.102 388.246 59.738C388.454 59.374 388.558 58.932 388.558 58.412C388.558 57.892 388.459 57.4543 388.259 57.099C388.06 56.735 387.796 56.462 387.466 56.28C387.137 56.098 386.782 56.007 386.4 56.007C386.019 56.007 385.664 56.098 385.334 56.28C385.014 56.462 384.758 56.735 384.567 57.099C384.377 57.4543 384.281 57.892 384.281 58.412C384.281 59.1833 384.476 59.7813 384.866 60.206C385.265 60.622 385.763 60.83 386.361 60.83ZM398.031 54.837V62H396.549V61.155C396.315 61.4497 396.008 61.6837 395.626 61.857C395.254 62.0217 394.855 62.104 394.43 62.104C393.867 62.104 393.36 61.987 392.909 61.753C392.467 61.519 392.116 61.1723 391.856 60.713C391.605 60.2537 391.479 59.699 391.479 59.049V54.837H392.948V58.828C392.948 59.4693 393.109 59.9633 393.429 60.31C393.75 60.648 394.188 60.817 394.742 60.817C395.297 60.817 395.735 60.648 396.055 60.31C396.385 59.9633 396.549 59.4693 396.549 58.828V54.837H398.031ZM401.469 55.877C401.685 55.513 401.971 55.2313 402.327 55.032C402.691 54.824 403.12 54.72 403.614 54.72V56.254H403.237C402.656 56.254 402.214 56.4013 401.911 56.696C401.616 56.9907 401.469 57.502 401.469 58.23V62H399.987V54.837H401.469V55.877ZM407.859 58.386C407.859 57.6667 408.006 57.0297 408.301 56.475C408.604 55.9203 409.012 55.4913 409.523 55.188C410.043 54.876 410.615 54.72 411.239 54.72C411.802 54.72 412.292 54.8327 412.708 55.058C413.133 55.2747 413.471 55.5477 413.722 55.877V54.837H415.217V62H413.722V60.934C413.471 61.272 413.128 61.5537 412.695 61.779C412.262 62.0043 411.768 62.117 411.213 62.117C410.598 62.117 410.034 61.961 409.523 61.649C409.012 61.3283 408.604 60.8863 408.301 60.323C408.006 59.751 407.859 59.1053 407.859 58.386ZM413.722 58.412C413.722 57.918 413.618 57.489 413.41 57.125C413.211 56.761 412.946 56.4837 412.617 56.293C412.288 56.1023 411.932 56.007 411.551 56.007C411.17 56.007 410.814 56.1023 410.485 56.293C410.156 56.475 409.887 56.748 409.679 57.112C409.48 57.4673 409.38 57.892 409.38 58.386C409.38 58.88 409.48 59.3133 409.679 59.686C409.887 60.0587 410.156 60.3447 410.485 60.544C410.823 60.7347 411.178 60.83 411.551 60.83C411.932 60.83 412.288 60.7347 412.617 60.544C412.946 60.3533 413.211 60.076 413.41 59.712C413.618 59.3393 413.722 58.906 413.722 58.412ZM420.049 54.72C420.604 54.72 421.094 54.8327 421.518 55.058C421.952 55.2747 422.29 55.5477 422.532 55.877V54.837H424.027V62.117C424.027 62.7757 423.889 63.3607 423.611 63.872C423.334 64.392 422.931 64.7993 422.402 65.094C421.882 65.3887 421.258 65.536 420.53 65.536C419.56 65.536 418.754 65.3063 418.112 64.847C417.471 64.3963 417.107 63.781 417.02 63.001H418.489C418.602 63.3737 418.84 63.6727 419.204 63.898C419.577 64.132 420.019 64.249 420.53 64.249C421.128 64.249 421.609 64.067 421.973 63.703C422.346 63.339 422.532 62.8103 422.532 62.117V60.921C422.281 61.259 421.939 61.545 421.505 61.779C421.081 62.0043 420.595 62.117 420.049 62.117C419.425 62.117 418.853 61.961 418.333 61.649C417.822 61.3283 417.415 60.8863 417.111 60.323C416.817 59.751 416.669 59.1053 416.669 58.386C416.669 57.6667 416.817 57.0297 417.111 56.475C417.415 55.9203 417.822 55.4913 418.333 55.188C418.853 54.876 419.425 54.72 420.049 54.72ZM422.532 58.412C422.532 57.918 422.428 57.489 422.22 57.125C422.021 56.761 421.757 56.4837 421.427 56.293C421.098 56.1023 420.743 56.007 420.361 56.007C419.98 56.007 419.625 56.1023 419.295 56.293C418.966 56.475 418.697 56.748 418.489 57.112C418.29 57.4673 418.19 57.892 418.19 58.386C418.19 58.88 418.29 59.3133 418.489 59.686C418.697 60.0587 418.966 60.3447 419.295 60.544C419.633 60.7347 419.989 60.83 420.361 60.83C420.743 60.83 421.098 60.7347 421.427 60.544C421.757 60.3533 422.021 60.076 422.22 59.712C422.428 59.3393 422.532 58.906 422.532 58.412ZM432.539 58.243C432.539 58.5117 432.522 58.7543 432.487 58.971H427.014C427.057 59.543 427.27 60.0023 427.651 60.349C428.032 60.6957 428.5 60.869 429.055 60.869C429.852 60.869 430.416 60.5353 430.745 59.868H432.344C432.127 60.5267 431.733 61.0683 431.161 61.493C430.598 61.909 429.896 62.117 429.055 62.117C428.37 62.117 427.755 61.9653 427.209 61.662C426.672 61.35 426.247 60.9167 425.935 60.362C425.632 59.7987 425.48 59.1487 425.48 58.412C425.48 57.6753 425.627 57.0297 425.922 56.475C426.225 55.9117 426.646 55.4783 427.183 55.175C427.729 54.8717 428.353 54.72 429.055 54.72C429.731 54.72 430.333 54.8673 430.862 55.162C431.391 55.4567 431.802 55.8727 432.097 56.41C432.392 56.9387 432.539 57.5497 432.539 58.243ZM430.992 57.775C430.983 57.229 430.788 56.7913 430.407 56.462C430.026 56.1327 429.553 55.968 428.99 55.968C428.479 55.968 428.041 56.1327 427.677 56.462C427.313 56.7827 427.096 57.2203 427.027 57.775H430.992ZM437.611 54.72C438.175 54.72 438.677 54.837 439.119 55.071C439.57 55.305 439.921 55.6517 440.172 56.111C440.424 56.5703 440.549 57.125 440.549 57.775V62H439.08V57.996C439.08 57.3547 438.92 56.865 438.599 56.527C438.279 56.1803 437.841 56.007 437.286 56.007C436.732 56.007 436.29 56.1803 435.96 56.527C435.64 56.865 435.479 57.3547 435.479 57.996V62H433.997V54.837H435.479V55.656C435.722 55.3613 436.03 55.1317 436.402 54.967C436.784 54.8023 437.187 54.72 437.611 54.72ZM444.169 56.046V60.011C444.169 60.2797 444.23 60.4747 444.351 60.596C444.481 60.7087 444.698 60.765 445.001 60.765H445.911V62H444.741C444.074 62 443.562 61.844 443.207 61.532C442.852 61.22 442.674 60.713 442.674 60.011V56.046H441.829V54.837H442.674V53.056H444.169V54.837H445.911V56.046H444.169ZM447.875 62.091C447.606 62.091 447.381 62 447.199 61.818C447.017 61.636 446.926 61.4107 446.926 61.142C446.926 60.8733 447.017 60.648 447.199 60.466C447.381 60.284 447.606 60.193 447.875 60.193C448.135 60.193 448.356 60.284 448.538 60.466C448.72 60.648 448.811 60.8733 448.811 61.142C448.811 61.4107 448.72 61.636 448.538 61.818C448.356 62 448.135 62.091 447.875 62.091Z" fill="white"/>
</svg>
