<svg width="457" height="382" viewBox="0 0 457 382" fill="none" xmlns="http://www.w3.org/2000/svg">
<path d="M119.203 141.939L120.713 135.051C120.713 135.051 125.656 138.195 128.539 142.687C131.423 147.179 132.796 159.156 133.62 159.605C134.444 160.055 143.567 145.963 145.161 143.743C147.133 140.996 147.871 137.842 149.108 135.446C150.342 133.05 154.695 132.236 156.343 132.536C157.991 132.835 154.079 139.842 154.079 139.842C154.079 139.842 144.192 157.06 140.897 166.493C137.601 175.927 127.304 180.419 125.656 179.071C124.009 177.724 119.203 141.939 119.203 141.939Z" fill="#F48C7F"/>
<path d="M149.217 136.765C149.217 136.765 149.628 134.952 150.739 134.583C151.85 134.211 153.78 134.54 153.904 134.583C154.028 134.625 156.166 133.469 156.166 133.469L154.399 136.765C154.399 136.765 150.947 140.843 149.796 139.32C148.643 137.797 149.217 136.765 149.217 136.765Z" fill="#F7A491"/>
<path d="M156.782 133.621C156.782 133.621 158.028 139.98 157.713 141.311C157.398 142.647 156.602 141.931 156.453 141.641C155.839 140.446 155.412 136.368 155.412 136.368L156.782 133.621Z" fill="#F48C7F"/>
<path d="M154.095 138.909C154.095 138.909 154.69 142.853 155.302 143.317C155.699 143.618 156.205 143.441 156.371 142.643C156.534 141.847 155.575 136.983 155.575 136.983L154.095 138.909Z" fill="#F48C7F"/>
<path d="M150.461 150.099L148.391 149.088L157.181 131.015C158.324 131.574 158.798 132.954 158.24 134.101L150.461 150.099Z" fill="#184655"/>
<path d="M128.378 113.617C129.619 107.964 130.833 102.276 127.563 96.0669C124.917 91.0413 120.342 88.1495 115.049 87.5201C100.046 85.7349 103.253 99.7753 82.285 102.815C75.7686 103.76 69.7168 104.668 64.2764 107.915C54.4552 113.781 50.7466 123.188 57.2606 138.518C73.2107 176.051 112.362 144.187 117.198 136.798C120.795 131.298 127.58 117.255 128.378 113.617Z" fill="#13375B"/>
<path d="M68.3817 350.7C68.3817 350.7 67.3128 361.573 64.5681 363.569C61.8211 365.564 58.1591 372.951 59.9912 376.945C60.5631 378.192 61.7067 378.915 63.0113 379.315C66.8693 380.506 70.9747 378.5 72.6155 374.804C73.5327 372.738 74.3379 369.984 74.4989 366.512C74.912 357.677 77.6567 353.185 77.6567 353.185L68.3817 350.7Z" fill="#F7A491"/>
<path d="M110.581 355.15C110.581 355.15 111.447 366.121 110.745 369.687C110.369 371.596 108.273 375.527 109.235 377.323C110.196 379.12 111.293 379.57 111.293 379.57L136.203 379.97C137.559 379.991 136.663 379.118 135.568 378.313C133.778 376.996 132.334 376.126 126.613 373.358C126.24 373.178 124.881 372.314 124.391 372.015C123.15 371.257 121.901 370.061 120.827 368.866C119.04 366.874 118.883 357.212 118.883 357.212L110.581 355.15Z" fill="#F7A491"/>
<path d="M130.051 209.316C130.051 209.316 133.188 227.13 131.127 238.808C129.068 250.485 119.182 358.732 119.182 358.732L108.196 359.352C108.196 359.352 105.893 314.136 106.306 307.847C106.719 301.558 109.977 291.036 109.977 291.036L108.882 254.528L122.746 206.567L130.051 209.316Z" fill="#3C8F7C"/>
<path d="M97.7636 205.568C97.7636 205.568 89.1141 218.593 87.0532 229.374C84.9947 240.153 88.5656 273.283 84.6026 287.41C82.4577 295.056 74.3287 306.867 73.094 316.747C71.8594 326.627 67.0118 352.511 67.0118 352.511L77.9929 354.689L103.512 290.047L123.53 231.618L128.656 201.528L97.7636 205.568Z" fill="#50BFA5"/>
<path d="M104.765 131.459C104.765 131.459 97.1893 132.32 92.6592 137.261C88.129 142.203 99.9831 181.919 100.807 188.205C101.631 194.494 94.0549 209.162 94.0549 209.162C94.0549 209.162 122.361 214.405 130.049 209.314C130.049 209.314 130.873 164.097 130.049 159.605C129.225 155.113 122.358 136.847 120.711 135.051C119.065 133.254 104.765 131.459 104.765 131.459Z" fill="white"/>
<path d="M94.0549 140.989C94.7854 138.775 97.2874 137.711 99.4229 138.635C102.347 139.903 106.385 142.308 108.357 146.431C111.653 153.319 123.187 176.975 126.756 177.874C130.326 178.772 144.881 153.319 144.881 153.319C144.881 153.319 144.47 148.826 145.705 146.281C146.939 143.735 150.648 141.04 151.196 141.939C151.745 142.837 149.138 145.083 149.138 145.532C149.138 145.981 150.237 146.281 151.747 145.382C153.257 144.484 154.077 142.668 154.077 142.668C154.077 142.668 156.553 147.179 153.946 151.222C151.337 155.265 150.24 156.912 150.24 156.912C150.24 156.912 133.351 194.495 127.171 194.944C121.413 195.36 88.2714 158.513 94.0549 140.989Z" fill="#F7A491"/>
<path d="M108.579 116.148C108.579 116.148 108.521 116.485 108.413 117.061C107.902 119.814 105.937 128.953 104.609 131.466C103.003 134.503 110.105 144.185 116.939 143.003C118.974 142.652 115.219 134.105 115.399 133.2C115.744 131.468 116.213 129.103 116.692 126.679C116.963 125.313 117.236 123.925 117.492 122.622C118.223 118.918 118.82 115.891 118.82 115.891L108.579 116.148Z" fill="#F7A491"/>
<path d="M108.413 117.058C108.521 116.485 108.579 116.146 108.579 116.146L118.82 115.891C118.82 115.891 118.223 118.918 117.492 122.622C117.236 123.918 116.965 125.296 116.696 126.656C115.116 126.422 113.464 125.654 111.807 124.204C110 122.622 108.817 120.722 108.103 118.691C108.229 118.046 108.334 117.487 108.413 117.058Z" fill="#F47458"/>
<path d="M114.741 91.7456C114.741 91.7456 110.563 92.3258 107.538 96.2424C104.511 100.159 101.25 112.267 108.768 118.848C116.286 125.432 123.712 117.98 124.814 110.079C125.913 102.178 125.691 91.4601 114.741 91.7456Z" fill="#F7A491"/>
<path d="M127.218 107.379C126.321 109.125 124.814 110.091 123.854 109.536C122.895 108.984 122.842 107.12 123.74 105.376C124.636 103.631 126.144 102.665 127.103 103.219C128.063 103.771 128.114 105.634 127.218 107.379Z" fill="#F7A491"/>
<path d="M116.012 91.5631C116.012 91.5631 109.564 103.077 104.95 103.61C100.335 104.141 99.731 110.259 99.731 110.259C99.731 110.259 101.381 96.1605 105.949 93.4418C110.514 90.7231 116.012 91.5631 116.012 91.5631Z" fill="#13375B"/>
<path d="M106.457 106.352C106.833 108.397 106.077 110.271 104.772 110.54C103.465 110.809 102.102 109.368 101.729 107.323C101.353 105.278 102.109 103.404 103.414 103.135C104.719 102.868 106.082 104.307 106.457 106.352Z" fill="#F7A491"/>
<path d="M73.3623 372.859C67.3781 373.952 63.3964 370.449 61.3239 367.827C59.8022 370.796 58.8709 374.504 59.9889 376.944C60.9738 379.095 63.6578 379.682 65.9241 379.766C68.321 379.855 70.5639 378.599 71.7519 376.509C72.3097 375.534 72.8838 374.319 73.3623 372.859Z" fill="#3C8F7C"/>
<path d="M124.389 372.01C117.8 373.702 112.932 372.55 110.208 371.453C109.506 373.444 108.574 375.943 109.069 377.384C109.674 379.148 110.535 379.548 111.296 379.567C117.313 379.726 133.337 379.939 137.926 380C138.568 380.009 138.92 379.258 138.507 378.767C137.368 377.408 124.879 372.309 124.389 372.01Z" fill="#3C8F7C"/>
<path fill-rule="evenodd" clip-rule="evenodd" d="M10 0C4.47715 0 0 4.47715 0 10V53C0 58.5228 4.47715 63 10 63H127.526L122 79.6209L138.078 63H147C152.523 63 157 58.5228 157 53V10C157 4.47715 152.523 0 147 0H10Z" fill="#006AFF"/>
<path d="M11.1713 19.08H13.5213V20H10.0313V13.05H11.1713V19.08ZM16.8646 20.09C16.3446 20.09 15.8746 19.9733 15.4546 19.74C15.0346 19.5 14.7046 19.1667 14.4646 18.74C14.2246 18.3067 14.1046 17.8067 14.1046 17.24C14.1046 16.68 14.2279 16.1833 14.4746 15.75C14.7213 15.3167 15.0579 14.9833 15.4846 14.75C15.9113 14.5167 16.3879 14.4 16.9146 14.4C17.4413 14.4 17.9179 14.5167 18.3446 14.75C18.7713 14.9833 19.1079 15.3167 19.3546 15.75C19.6013 16.1833 19.7246 16.68 19.7246 17.24C19.7246 17.8 19.5979 18.2967 19.3446 18.73C19.0913 19.1633 18.7446 19.5 18.3046 19.74C17.8713 19.9733 17.3913 20.09 16.8646 20.09ZM16.8646 19.1C17.1579 19.1 17.4313 19.03 17.6846 18.89C17.9446 18.75 18.1546 18.54 18.3146 18.26C18.4746 17.98 18.5546 17.64 18.5546 17.24C18.5546 16.84 18.4779 16.5033 18.3246 16.23C18.1713 15.95 17.9679 15.74 17.7146 15.6C17.4613 15.46 17.1879 15.39 16.8946 15.39C16.6013 15.39 16.3279 15.46 16.0746 15.6C15.8279 15.74 15.6313 15.95 15.4846 16.23C15.3379 16.5033 15.2646 16.84 15.2646 17.24C15.2646 17.8333 15.4146 18.2933 15.7146 18.62C16.0213 18.94 16.4046 19.1 16.8646 19.1ZM23.2416 20.09C22.7216 20.09 22.2516 19.9733 21.8316 19.74C21.4116 19.5 21.0816 19.1667 20.8416 18.74C20.6016 18.3067 20.4816 17.8067 20.4816 17.24C20.4816 16.68 20.6049 16.1833 20.8516 15.75C21.0982 15.3167 21.4349 14.9833 21.8616 14.75C22.2882 14.5167 22.7649 14.4 23.2916 14.4C23.8182 14.4 24.2949 14.5167 24.7216 14.75C25.1482 14.9833 25.4849 15.3167 25.7316 15.75C25.9782 16.1833 26.1016 16.68 26.1016 17.24C26.1016 17.8 25.9749 18.2967 25.7216 18.73C25.4682 19.1633 25.1216 19.5 24.6816 19.74C24.2482 19.9733 23.7682 20.09 23.2416 20.09ZM23.2416 19.1C23.5349 19.1 23.8082 19.03 24.0616 18.89C24.3216 18.75 24.5316 18.54 24.6916 18.26C24.8516 17.98 24.9316 17.64 24.9316 17.24C24.9316 16.84 24.8549 16.5033 24.7016 16.23C24.5482 15.95 24.3449 15.74 24.0916 15.6C23.8382 15.46 23.5649 15.39 23.2716 15.39C22.9782 15.39 22.7049 15.46 22.4516 15.6C22.2049 15.74 22.0082 15.95 21.8616 16.23C21.7149 16.5033 21.6416 16.84 21.6416 17.24C21.6416 17.8333 21.7916 18.2933 22.0916 18.62C22.3982 18.94 22.7816 19.1 23.2416 19.1ZM29.4085 17.25L31.9485 20H30.4085L28.3685 17.63V20H27.2285V12.6H28.3685V16.9L30.3685 14.49H31.9485L29.4085 17.25ZM33.3456 13.76C33.139 13.76 32.9656 13.69 32.8256 13.55C32.6856 13.41 32.6156 13.2367 32.6156 13.03C32.6156 12.8233 32.6856 12.65 32.8256 12.51C32.9656 12.37 33.139 12.3 33.3456 12.3C33.5456 12.3 33.7156 12.37 33.8556 12.51C33.9956 12.65 34.0656 12.8233 34.0656 13.03C34.0656 13.2367 33.9956 13.41 33.8556 13.55C33.7156 13.69 33.5456 13.76 33.3456 13.76ZM33.9056 14.49V20H32.7656V14.49H33.9056ZM38.1823 14.4C38.6157 14.4 39.0023 14.49 39.3423 14.67C39.689 14.85 39.959 15.1167 40.1523 15.47C40.3457 15.8233 40.4423 16.25 40.4423 16.75V20H39.3123V16.92C39.3123 16.4267 39.189 16.05 38.9423 15.79C38.6957 15.5233 38.359 15.39 37.9323 15.39C37.5057 15.39 37.1657 15.5233 36.9123 15.79C36.6657 16.05 36.5423 16.4267 36.5423 16.92V20H35.4023V14.49H36.5423V15.12C36.729 14.8933 36.9657 14.7167 37.2523 14.59C37.5457 14.4633 37.8557 14.4 38.1823 14.4ZM44.1165 14.4C44.5432 14.4 44.9198 14.4867 45.2465 14.66C45.5798 14.8267 45.8398 15.0367 46.0265 15.29V14.49H47.1765V20.09C47.1765 20.5967 47.0698 21.0467 46.8565 21.44C46.6432 21.84 46.3332 22.1533 45.9265 22.38C45.5265 22.6067 45.0465 22.72 44.4865 22.72C43.7398 22.72 43.1198 22.5433 42.6265 22.19C42.1332 21.8433 41.8532 21.37 41.7865 20.77H42.9165C43.0032 21.0567 43.1865 21.2867 43.4665 21.46C43.7532 21.64 44.0932 21.73 44.4865 21.73C44.9465 21.73 45.3165 21.59 45.5965 21.31C45.8832 21.03 46.0265 20.6233 46.0265 20.09V19.17C45.8332 19.43 45.5698 19.65 45.2365 19.83C44.9098 20.0033 44.5365 20.09 44.1165 20.09C43.6365 20.09 43.1965 19.97 42.7965 19.73C42.4032 19.4833 42.0898 19.1433 41.8565 18.71C41.6298 18.27 41.5165 17.7733 41.5165 17.22C41.5165 16.6667 41.6298 16.1767 41.8565 15.75C42.0898 15.3233 42.4032 14.9933 42.7965 14.76C43.1965 14.52 43.6365 14.4 44.1165 14.4ZM46.0265 17.24C46.0265 16.86 45.9465 16.53 45.7865 16.25C45.6332 15.97 45.4298 15.7567 45.1765 15.61C44.9232 15.4633 44.6498 15.39 44.3565 15.39C44.0632 15.39 43.7898 15.4633 43.5365 15.61C43.2832 15.75 43.0765 15.96 42.9165 16.24C42.7632 16.5133 42.6865 16.84 42.6865 17.22C42.6865 17.6 42.7632 17.9333 42.9165 18.22C43.0765 18.5067 43.2832 18.7267 43.5365 18.88C43.7965 19.0267 44.0698 19.1 44.3565 19.1C44.6498 19.1 44.9232 19.0267 45.1765 18.88C45.4298 18.7333 45.6332 18.52 45.7865 18.24C45.9465 17.9533 46.0265 17.62 46.0265 17.24ZM50.8915 17.22C50.8915 16.6667 51.0048 16.1767 51.2315 15.75C51.4648 15.3233 51.7782 14.9933 52.1715 14.76C52.5715 14.52 53.0115 14.4 53.4915 14.4C53.9248 14.4 54.3015 14.4867 54.6215 14.66C54.9482 14.8267 55.2082 15.0367 55.4015 15.29V14.49H56.5515V20H55.4015V19.18C55.2082 19.44 54.9448 19.6567 54.6115 19.83C54.2782 20.0033 53.8982 20.09 53.4715 20.09C52.9982 20.09 52.5648 19.97 52.1715 19.73C51.7782 19.4833 51.4648 19.1433 51.2315 18.71C51.0048 18.27 50.8915 17.7733 50.8915 17.22ZM55.4015 17.24C55.4015 16.86 55.3215 16.53 55.1615 16.25C55.0082 15.97 54.8048 15.7567 54.5515 15.61C54.2982 15.4633 54.0248 15.39 53.7315 15.39C53.4382 15.39 53.1648 15.4633 52.9115 15.61C52.6582 15.75 52.4515 15.96 52.2915 16.24C52.1382 16.5133 52.0615 16.84 52.0615 17.22C52.0615 17.6 52.1382 17.9333 52.2915 18.22C52.4515 18.5067 52.6582 18.7267 52.9115 18.88C53.1715 19.0267 53.4448 19.1 53.7315 19.1C54.0248 19.1 54.2982 19.0267 54.5515 18.88C54.8048 18.7333 55.0082 18.52 55.1615 18.24C55.3215 17.9533 55.4015 17.62 55.4015 17.24ZM59.3788 15.42V18.47C59.3788 18.6767 59.4255 18.8267 59.5188 18.92C59.6188 19.0067 59.7855 19.05 60.0188 19.05H60.7188V20H59.8188C59.3055 20 58.9122 19.88 58.6388 19.64C58.3655 19.4 58.2288 19.01 58.2288 18.47V15.42H57.5788V14.49H58.2288V13.12H59.3788V14.49H60.7188V15.42H59.3788ZM71.0372 14.4C71.4705 14.4 71.8572 14.49 72.1972 14.67C72.5439 14.85 72.8139 15.1167 73.0072 15.47C73.2072 15.8233 73.3072 16.25 73.3072 16.75V20H72.1772V16.92C72.1772 16.4267 72.0539 16.05 71.8072 15.79C71.5605 15.5233 71.2239 15.39 70.7972 15.39C70.3705 15.39 70.0305 15.5233 69.7772 15.79C69.5305 16.05 69.4072 16.4267 69.4072 16.92V20H68.2772V16.92C68.2772 16.4267 68.1539 16.05 67.9072 15.79C67.6605 15.5233 67.3239 15.39 66.8972 15.39C66.4705 15.39 66.1305 15.5233 65.8772 15.79C65.6305 16.05 65.5072 16.4267 65.5072 16.92V20H64.3672V14.49H65.5072V15.12C65.6939 14.8933 65.9305 14.7167 66.2172 14.59C66.5039 14.4633 66.8105 14.4 67.1372 14.4C67.5772 14.4 67.9705 14.4933 68.3172 14.68C68.6639 14.8667 68.9305 15.1367 69.1172 15.49C69.2839 15.1567 69.5439 14.8933 69.8972 14.7C70.2505 14.5 70.6305 14.4 71.0372 14.4ZM79.7178 14.49L76.3378 22.59H75.1578L76.2778 19.91L74.1078 14.49H75.3778L76.9278 18.69L78.5378 14.49H79.7178ZM84.3158 12.6V20H83.1758V12.6H84.3158ZM85.4325 17.22C85.4325 16.6667 85.5458 16.1767 85.7725 15.75C86.0058 15.3233 86.3192 14.9933 86.7125 14.76C87.1125 14.52 87.5525 14.4 88.0325 14.4C88.4658 14.4 88.8425 14.4867 89.1625 14.66C89.4892 14.8267 89.7492 15.0367 89.9425 15.29V14.49H91.0925V20H89.9425V19.18C89.7492 19.44 89.4858 19.6567 89.1525 19.83C88.8192 20.0033 88.4392 20.09 88.0125 20.09C87.5392 20.09 87.1058 19.97 86.7125 19.73C86.3192 19.4833 86.0058 19.1433 85.7725 18.71C85.5458 18.27 85.4325 17.7733 85.4325 17.22ZM89.9425 17.24C89.9425 16.86 89.8625 16.53 89.7025 16.25C89.5492 15.97 89.3458 15.7567 89.0925 15.61C88.8392 15.4633 88.5658 15.39 88.2725 15.39C87.9792 15.39 87.7058 15.4633 87.4525 15.61C87.1992 15.75 86.9925 15.96 86.8325 16.24C86.6792 16.5133 86.6025 16.84 86.6025 17.22C86.6025 17.6 86.6792 17.9333 86.8325 18.22C86.9925 18.5067 87.1992 18.7267 87.4525 18.88C87.7125 19.0267 87.9858 19.1 88.2725 19.1C88.5658 19.1 88.8392 19.0267 89.0925 18.88C89.3458 18.7333 89.5492 18.52 89.7025 18.24C89.8625 17.9533 89.9425 17.62 89.9425 17.24ZM93.9198 15.42V18.47C93.9198 18.6767 93.9665 18.8267 94.0598 18.92C94.1598 19.0067 94.3265 19.05 94.5598 19.05H95.2598V20H94.3598C93.8465 20 93.4532 19.88 93.1798 19.64C92.9065 19.4 92.7698 19.01 92.7698 18.47V15.42H92.1198V14.49H92.7698V13.12H93.9198V14.49H95.2598V15.42H93.9198ZM101.361 17.11C101.361 17.3167 101.347 17.5033 101.321 17.67H97.1105C97.1439 18.11 97.3072 18.4633 97.6005 18.73C97.8939 18.9967 98.2539 19.13 98.6805 19.13C99.2939 19.13 99.7272 18.8733 99.9805 18.36H101.211C101.044 18.8667 100.741 19.2833 100.301 19.61C99.8672 19.93 99.3272 20.09 98.6805 20.09C98.1539 20.09 97.6805 19.9733 97.2605 19.74C96.8472 19.5 96.5205 19.1667 96.2805 18.74C96.0472 18.3067 95.9305 17.8067 95.9305 17.24C95.9305 16.6733 96.0439 16.1767 96.2705 15.75C96.5039 15.3167 96.8272 14.9833 97.2405 14.75C97.6605 14.5167 98.1405 14.4 98.6805 14.4C99.2005 14.4 99.6639 14.5133 100.071 14.74C100.477 14.9667 100.794 15.2867 101.021 15.7C101.247 16.1067 101.361 16.5767 101.361 17.11ZM100.171 16.75C100.164 16.33 100.014 15.9933 99.7205 15.74C99.4272 15.4867 99.0639 15.36 98.6305 15.36C98.2372 15.36 97.9005 15.4867 97.6205 15.74C97.3405 15.9867 97.1739 16.3233 97.1205 16.75H100.171ZM104.482 20.09C104.049 20.09 103.659 20.0133 103.312 19.86C102.972 19.7 102.702 19.4867 102.502 19.22C102.302 18.9467 102.196 18.6433 102.182 18.31H103.362C103.382 18.5433 103.492 18.74 103.692 18.9C103.899 19.0533 104.156 19.13 104.462 19.13C104.782 19.13 105.029 19.07 105.202 18.95C105.382 18.8233 105.472 18.6633 105.472 18.47C105.472 18.2633 105.372 18.11 105.172 18.01C104.979 17.91 104.669 17.8 104.242 17.68C103.829 17.5667 103.492 17.4567 103.232 17.35C102.972 17.2433 102.746 17.08 102.552 16.86C102.366 16.64 102.272 16.35 102.272 15.99C102.272 15.6967 102.359 15.43 102.532 15.19C102.706 14.9433 102.952 14.75 103.272 14.61C103.599 14.47 103.972 14.4 104.392 14.4C105.019 14.4 105.522 14.56 105.902 14.88C106.289 15.1933 106.496 15.6233 106.522 16.17H105.382C105.362 15.9233 105.262 15.7267 105.082 15.58C104.902 15.4333 104.659 15.36 104.352 15.36C104.052 15.36 103.822 15.4167 103.662 15.53C103.502 15.6433 103.422 15.7933 103.422 15.98C103.422 16.1267 103.476 16.25 103.582 16.35C103.689 16.45 103.819 16.53 103.972 16.59C104.126 16.6433 104.352 16.7133 104.652 16.8C105.052 16.9067 105.379 17.0167 105.632 17.13C105.892 17.2367 106.116 17.3967 106.302 17.61C106.489 17.8233 106.586 18.1067 106.592 18.46C106.592 18.7733 106.506 19.0533 106.332 19.3C106.159 19.5467 105.912 19.74 105.592 19.88C105.279 20.02 104.909 20.09 104.482 20.09ZM109.154 15.42V18.47C109.154 18.6767 109.201 18.8267 109.294 18.92C109.394 19.0067 109.561 19.05 109.794 19.05H110.494V20H109.594C109.081 20 108.688 19.88 108.414 19.64C108.141 19.4 108.004 19.01 108.004 18.47V15.42H107.354V14.49H108.004V13.12H109.154V14.49H110.494V15.42H109.154ZM119.003 15.12C119.003 15.4733 118.919 15.8067 118.753 16.12C118.586 16.4333 118.319 16.69 117.953 16.89C117.586 17.0833 117.116 17.18 116.543 17.18H115.283V20H114.143V13.05H116.543C117.076 13.05 117.526 13.1433 117.893 13.33C118.266 13.51 118.543 13.7567 118.723 14.07C118.909 14.3833 119.003 14.7333 119.003 15.12ZM116.543 16.25C116.976 16.25 117.299 16.1533 117.513 15.96C117.726 15.76 117.833 15.48 117.833 15.12C117.833 14.36 117.403 13.98 116.543 13.98H115.283V16.25H116.543ZM121.23 15.29C121.397 15.01 121.617 14.7933 121.89 14.64C122.17 14.48 122.5 14.4 122.88 14.4V15.58H122.59C122.143 15.58 121.803 15.6933 121.57 15.92C121.343 16.1467 121.23 16.54 121.23 17.1V20H120.09V14.49H121.23V15.29ZM124.508 13.76C124.301 13.76 124.128 13.69 123.988 13.55C123.848 13.41 123.778 13.2367 123.778 13.03C123.778 12.8233 123.848 12.65 123.988 12.51C124.128 12.37 124.301 12.3 124.508 12.3C124.708 12.3 124.878 12.37 125.018 12.51C125.158 12.65 125.228 12.8233 125.228 13.03C125.228 13.2367 125.158 13.41 125.018 13.55C124.878 13.69 124.708 13.76 124.508 13.76ZM125.068 14.49V20H123.928V14.49H125.068ZM126.184 17.24C126.184 16.6733 126.298 16.1767 126.524 15.75C126.758 15.3167 127.078 14.9833 127.484 14.75C127.891 14.5167 128.358 14.4 128.884 14.4C129.551 14.4 130.101 14.56 130.534 14.88C130.974 15.1933 131.271 15.6433 131.424 16.23H130.194C130.094 15.9567 129.934 15.7433 129.714 15.59C129.494 15.4367 129.218 15.36 128.884 15.36C128.418 15.36 128.044 15.5267 127.764 15.86C127.491 16.1867 127.354 16.6467 127.354 17.24C127.354 17.8333 127.491 18.2967 127.764 18.63C128.044 18.9633 128.418 19.13 128.884 19.13C129.544 19.13 129.981 18.84 130.194 18.26H131.424C131.264 18.82 130.964 19.2667 130.524 19.6C130.084 19.9267 129.538 20.09 128.884 20.09C128.358 20.09 127.891 19.9733 127.484 19.74C127.078 19.5 126.758 19.1667 126.524 18.74C126.298 18.3067 126.184 17.8067 126.184 17.24ZM133.141 13.76C132.934 13.76 132.761 13.69 132.621 13.55C132.481 13.41 132.411 13.2367 132.411 13.03C132.411 12.8233 132.481 12.65 132.621 12.51C132.761 12.37 132.934 12.3 133.141 12.3C133.341 12.3 133.511 12.37 133.651 12.51C133.791 12.65 133.861 12.8233 133.861 13.03C133.861 13.2367 133.791 13.41 133.651 13.55C133.511 13.69 133.341 13.76 133.141 13.76ZM133.701 14.49V20H132.561V14.49H133.701ZM137.977 14.4C138.411 14.4 138.797 14.49 139.137 14.67C139.484 14.85 139.754 15.1167 139.947 15.47C140.141 15.8233 140.237 16.25 140.237 16.75V20H139.107V16.92C139.107 16.4267 138.984 16.05 138.737 15.79C138.491 15.5233 138.154 15.39 137.727 15.39C137.301 15.39 136.961 15.5233 136.707 15.79C136.461 16.05 136.337 16.4267 136.337 16.92V20H135.197V14.49H136.337V15.12C136.524 14.8933 136.761 14.7167 137.047 14.59C137.341 14.4633 137.651 14.4 137.977 14.4ZM143.911 14.4C144.338 14.4 144.715 14.4867 145.041 14.66C145.375 14.8267 145.635 15.0367 145.821 15.29V14.49H146.971V20.09C146.971 20.5967 146.865 21.0467 146.651 21.44C146.438 21.84 146.128 22.1533 145.721 22.38C145.321 22.6067 144.841 22.72 144.281 22.72C143.535 22.72 142.915 22.5433 142.421 22.19C141.928 21.8433 141.648 21.37 141.581 20.77H142.711C142.798 21.0567 142.981 21.2867 143.261 21.46C143.548 21.64 143.888 21.73 144.281 21.73C144.741 21.73 145.111 21.59 145.391 21.31C145.678 21.03 145.821 20.6233 145.821 20.09V19.17C145.628 19.43 145.365 19.65 145.031 19.83C144.705 20.0033 144.331 20.09 143.911 20.09C143.431 20.09 142.991 19.97 142.591 19.73C142.198 19.4833 141.885 19.1433 141.651 18.71C141.425 18.27 141.311 17.7733 141.311 17.22C141.311 16.6667 141.425 16.1767 141.651 15.75C141.885 15.3233 142.198 14.9933 142.591 14.76C142.991 14.52 143.431 14.4 143.911 14.4ZM145.821 17.24C145.821 16.86 145.741 16.53 145.581 16.25C145.428 15.97 145.225 15.7567 144.971 15.61C144.718 15.4633 144.445 15.39 144.151 15.39C143.858 15.39 143.585 15.4633 143.331 15.61C143.078 15.75 142.871 15.96 142.711 16.24C142.558 16.5133 142.481 16.84 142.481 17.22C142.481 17.6 142.558 17.9333 142.711 18.22C142.871 18.5067 143.078 18.7267 143.331 18.88C143.591 19.0267 143.865 19.1 144.151 19.1C144.445 19.1 144.718 19.0267 144.971 18.88C145.225 18.7333 145.428 18.52 145.581 18.24C145.741 17.9533 145.821 17.62 145.821 17.24ZM30.4518 28.05V35H29.3118V30.24L27.1918 35H26.4018L24.2718 30.24V35H23.1318V28.05H24.3618L26.8018 33.5L29.2318 28.05H30.4518ZM37.0002 32.11C37.0002 32.3167 36.9869 32.5033 36.9602 32.67H32.7502C32.7835 33.11 32.9469 33.4633 33.2402 33.73C33.5335 33.9967 33.8935 34.13 34.3202 34.13C34.9335 34.13 35.3669 33.8733 35.6202 33.36H36.8502C36.6835 33.8667 36.3802 34.2833 35.9402 34.61C35.5069 34.93 34.9669 35.09 34.3202 35.09C33.7935 35.09 33.3202 34.9733 32.9002 34.74C32.4869 34.5 32.1602 34.1667 31.9202 33.74C31.6869 33.3067 31.5702 32.8067 31.5702 32.24C31.5702 31.6733 31.6835 31.1767 31.9102 30.75C32.1435 30.3167 32.4669 29.9833 32.8802 29.75C33.3002 29.5167 33.7802 29.4 34.3202 29.4C34.8402 29.4 35.3035 29.5133 35.7102 29.74C36.1169 29.9667 36.4335 30.2867 36.6602 30.7C36.8869 31.1067 37.0002 31.5767 37.0002 32.11ZM35.8102 31.75C35.8035 31.33 35.6535 30.9933 35.3602 30.74C35.0669 30.4867 34.7035 30.36 34.2702 30.36C33.8769 30.36 33.5402 30.4867 33.2602 30.74C32.9802 30.9867 32.8135 31.3233 32.7602 31.75H35.8102ZM39.4521 30.42V33.47C39.4521 33.6767 39.4987 33.8267 39.5921 33.92C39.6921 34.0067 39.8587 34.05 40.0921 34.05H40.7921V35H39.8921C39.3787 35 38.9854 34.88 38.7121 34.64C38.4387 34.4 38.3021 34.01 38.3021 33.47V30.42H37.6521V29.49H38.3021V28.12H39.4521V29.49H40.7921V30.42H39.4521ZM46.8928 32.11C46.8928 32.3167 46.8794 32.5033 46.8528 32.67H42.6428C42.6761 33.11 42.8394 33.4633 43.1328 33.73C43.4261 33.9967 43.7861 34.13 44.2128 34.13C44.8261 34.13 45.2594 33.8733 45.5128 33.36H46.7428C46.5761 33.8667 46.2728 34.2833 45.8328 34.61C45.3994 34.93 44.8594 35.09 44.2128 35.09C43.6861 35.09 43.2128 34.9733 42.7928 34.74C42.3794 34.5 42.0528 34.1667 41.8128 33.74C41.5794 33.3067 41.4628 32.8067 41.4628 32.24C41.4628 31.6733 41.5761 31.1767 41.8028 30.75C42.0361 30.3167 42.3594 29.9833 42.7728 29.75C43.1928 29.5167 43.6728 29.4 44.2128 29.4C44.7328 29.4 45.1961 29.5133 45.6028 29.74C46.0094 29.9667 46.3261 30.2867 46.5528 30.7C46.7794 31.1067 46.8928 31.5767 46.8928 32.11ZM45.7028 31.75C45.6961 31.33 45.5461 30.9933 45.2528 30.74C44.9594 30.4867 44.5961 30.36 44.1628 30.36C43.7694 30.36 43.4328 30.4867 43.1528 30.74C42.8728 30.9867 42.7061 31.3233 42.6528 31.75H45.7028ZM49.1546 30.29C49.3213 30.01 49.5413 29.7933 49.8146 29.64C50.0946 29.48 50.4246 29.4 50.8046 29.4V30.58H50.5146C50.068 30.58 49.728 30.6933 49.4946 30.92C49.268 31.1467 49.1546 31.54 49.1546 32.1V35H48.0146V29.49H49.1546V30.29ZM59.4402 29.49V35H58.3002V34.35C58.1202 34.5767 57.8835 34.7567 57.5902 34.89C57.3035 35.0167 56.9969 35.08 56.6702 35.08C56.2369 35.08 55.8469 34.99 55.5002 34.81C55.1602 34.63 54.8902 34.3633 54.6902 34.01C54.4969 33.6567 54.4002 33.23 54.4002 32.73V29.49H55.5302V32.56C55.5302 33.0533 55.6535 33.4333 55.9002 33.7C56.1469 33.96 56.4835 34.09 56.9102 34.09C57.3369 34.09 57.6735 33.96 57.9202 33.7C58.1735 33.4333 58.3002 33.0533 58.3002 32.56V29.49H59.4402ZM62.0843 30.3C62.2777 30.0467 62.541 29.8333 62.8743 29.66C63.2077 29.4867 63.5843 29.4 64.0043 29.4C64.4843 29.4 64.921 29.52 65.3143 29.76C65.7143 29.9933 66.0277 30.3233 66.2543 30.75C66.481 31.1767 66.5943 31.6667 66.5943 32.22C66.5943 32.7733 66.481 33.27 66.2543 33.71C66.0277 34.1433 65.7143 34.4833 65.3143 34.73C64.921 34.97 64.4843 35.09 64.0043 35.09C63.5843 35.09 63.211 35.0067 62.8843 34.84C62.5577 34.6667 62.291 34.4533 62.0843 34.2V37.62H60.9443V29.49H62.0843V30.3ZM65.4343 32.22C65.4343 31.84 65.3543 31.5133 65.1943 31.24C65.041 30.96 64.8343 30.75 64.5743 30.61C64.321 30.4633 64.0477 30.39 63.7543 30.39C63.4677 30.39 63.1943 30.4633 62.9343 30.61C62.681 30.7567 62.4743 30.97 62.3143 31.25C62.161 31.53 62.0843 31.86 62.0843 32.24C62.0843 32.62 62.161 32.9533 62.3143 33.24C62.4743 33.52 62.681 33.7333 62.9343 33.88C63.1943 34.0267 63.4677 34.1 63.7543 34.1C64.0477 34.1 64.321 34.0267 64.5743 33.88C64.8343 33.7267 65.041 33.5067 65.1943 33.22C65.3543 32.9333 65.4343 32.6 65.4343 32.22ZM67.3417 32.22C67.3417 31.6667 67.455 31.1767 67.6817 30.75C67.915 30.3233 68.2283 29.9933 68.6217 29.76C69.0217 29.52 69.465 29.4 69.9517 29.4C70.3117 29.4 70.665 29.48 71.0117 29.64C71.365 29.7933 71.645 30 71.8517 30.26V27.6H73.0017V35H71.8517V34.17C71.665 34.4367 71.405 34.6567 71.0717 34.83C70.745 35.0033 70.3683 35.09 69.9417 35.09C69.4617 35.09 69.0217 34.97 68.6217 34.73C68.2283 34.4833 67.915 34.1433 67.6817 33.71C67.455 33.27 67.3417 32.7733 67.3417 32.22ZM71.8517 32.24C71.8517 31.86 71.7717 31.53 71.6117 31.25C71.4583 30.97 71.255 30.7567 71.0017 30.61C70.7483 30.4633 70.475 30.39 70.1817 30.39C69.8883 30.39 69.615 30.4633 69.3617 30.61C69.1083 30.75 68.9017 30.96 68.7417 31.24C68.5883 31.5133 68.5117 31.84 68.5117 32.22C68.5117 32.6 68.5883 32.9333 68.7417 33.22C68.9017 33.5067 69.1083 33.7267 69.3617 33.88C69.6217 34.0267 69.895 34.1 70.1817 34.1C70.475 34.1 70.7483 34.0267 71.0017 33.88C71.255 33.7333 71.4583 33.52 71.6117 33.24C71.7717 32.9533 71.8517 32.62 71.8517 32.24ZM74.119 32.22C74.119 31.6667 74.2324 31.1767 74.459 30.75C74.6924 30.3233 75.0057 29.9933 75.399 29.76C75.799 29.52 76.239 29.4 76.719 29.4C77.1524 29.4 77.529 29.4867 77.849 29.66C78.1757 29.8267 78.4357 30.0367 78.629 30.29V29.49H79.779V35H78.629V34.18C78.4357 34.44 78.1724 34.6567 77.839 34.83C77.5057 35.0033 77.1257 35.09 76.699 35.09C76.2257 35.09 75.7924 34.97 75.399 34.73C75.0057 34.4833 74.6924 34.1433 74.459 33.71C74.2324 33.27 74.119 32.7733 74.119 32.22ZM78.629 32.24C78.629 31.86 78.549 31.53 78.389 31.25C78.2357 30.97 78.0324 30.7567 77.779 30.61C77.5257 30.4633 77.2524 30.39 76.959 30.39C76.6657 30.39 76.3924 30.4633 76.139 30.61C75.8857 30.75 75.679 30.96 75.519 31.24C75.3657 31.5133 75.289 31.84 75.289 32.22C75.289 32.6 75.3657 32.9333 75.519 33.22C75.679 33.5067 75.8857 33.7267 76.139 33.88C76.399 34.0267 76.6724 34.1 76.959 34.1C77.2524 34.1 77.5257 34.0267 77.779 33.88C78.0324 33.7333 78.2357 33.52 78.389 33.24C78.549 32.9533 78.629 32.62 78.629 32.24ZM82.6064 30.42V33.47C82.6064 33.6767 82.653 33.8267 82.7464 33.92C82.8464 34.0067 83.013 34.05 83.2464 34.05H83.9464V35H83.0464C82.533 35 82.1397 34.88 81.8664 34.64C81.593 34.4 81.4564 34.01 81.4564 33.47V30.42H80.8064V29.49H81.4564V28.12H82.6064V29.49H83.9464V30.42H82.6064ZM90.0471 32.11C90.0471 32.3167 90.0337 32.5033 90.0071 32.67H85.7971C85.8304 33.11 85.9937 33.4633 86.2871 33.73C86.5804 33.9967 86.9404 34.13 87.3671 34.13C87.9804 34.13 88.4137 33.8733 88.6671 33.36H89.8971C89.7304 33.8667 89.4271 34.2833 88.9871 34.61C88.5537 34.93 88.0137 35.09 87.3671 35.09C86.8404 35.09 86.3671 34.9733 85.9471 34.74C85.5337 34.5 85.2071 34.1667 84.9671 33.74C84.7337 33.3067 84.6171 32.8067 84.6171 32.24C84.6171 31.6733 84.7304 31.1767 84.9571 30.75C85.1904 30.3167 85.5137 29.9833 85.9271 29.75C86.3471 29.5167 86.8271 29.4 87.3671 29.4C87.8871 29.4 88.3504 29.5133 88.7571 29.74C89.1637 29.9667 89.4804 30.2867 89.7071 30.7C89.9337 31.1067 90.0471 31.5767 90.0471 32.11ZM88.8571 31.75C88.8504 31.33 88.7004 30.9933 88.4071 30.74C88.1137 30.4867 87.7504 30.36 87.3171 30.36C86.9237 30.36 86.5871 30.4867 86.3071 30.74C86.0271 30.9867 85.8604 31.3233 85.8071 31.75H88.8571ZM92.4189 33.63L91.2089 36.39H90.4689L91.1789 33.63H92.4189ZM97.1527 28.05V35H96.0127V28.05H97.1527ZM103.247 35.09C102.814 35.09 102.424 35.0133 102.077 34.86C101.737 34.7 101.467 34.4867 101.267 34.22C101.067 33.9467 100.96 33.6433 100.947 33.31H102.127C102.147 33.5433 102.257 33.74 102.457 33.9C102.664 34.0533 102.92 34.13 103.227 34.13C103.547 34.13 103.794 34.07 103.967 33.95C104.147 33.8233 104.237 33.6633 104.237 33.47C104.237 33.2633 104.137 33.11 103.937 33.01C103.744 32.91 103.434 32.8 103.007 32.68C102.594 32.5667 102.257 32.4567 101.997 32.35C101.737 32.2433 101.51 32.08 101.317 31.86C101.13 31.64 101.037 31.35 101.037 30.99C101.037 30.6967 101.124 30.43 101.297 30.19C101.47 29.9433 101.717 29.75 102.037 29.61C102.364 29.47 102.737 29.4 103.157 29.4C103.784 29.4 104.287 29.56 104.667 29.88C105.054 30.1933 105.26 30.6233 105.287 31.17H104.147C104.127 30.9233 104.027 30.7267 103.847 30.58C103.667 30.4333 103.424 30.36 103.117 30.36C102.817 30.36 102.587 30.4167 102.427 30.53C102.267 30.6433 102.187 30.7933 102.187 30.98C102.187 31.1267 102.24 31.25 102.347 31.35C102.454 31.45 102.584 31.53 102.737 31.59C102.89 31.6433 103.117 31.7133 103.417 31.8C103.817 31.9067 104.144 32.0167 104.397 32.13C104.657 32.2367 104.88 32.3967 105.067 32.61C105.254 32.8233 105.35 33.1067 105.357 33.46C105.357 33.7733 105.27 34.0533 105.097 34.3C104.924 34.5467 104.677 34.74 104.357 34.88C104.044 35.02 103.674 35.09 103.247 35.09ZM109.439 29.4C109.859 29.4 110.232 29.49 110.559 29.67C110.892 29.85 111.152 30.1167 111.339 30.47C111.532 30.8233 111.629 31.25 111.629 31.75V35H110.499V31.92C110.499 31.4267 110.376 31.05 110.129 30.79C109.882 30.5233 109.546 30.39 109.119 30.39C108.692 30.39 108.352 30.5233 108.099 30.79C107.852 31.05 107.729 31.4267 107.729 31.92V35H106.589V27.6H107.729V30.13C107.922 29.8967 108.166 29.7167 108.459 29.59C108.759 29.4633 109.086 29.4 109.439 29.4ZM115.473 35.09C114.953 35.09 114.483 34.9733 114.063 34.74C113.643 34.5 113.313 34.1667 113.073 33.74C112.833 33.3067 112.713 32.8067 112.713 32.24C112.713 31.68 112.836 31.1833 113.083 30.75C113.33 30.3167 113.666 29.9833 114.093 29.75C114.52 29.5167 114.996 29.4 115.523 29.4C116.05 29.4 116.526 29.5167 116.953 29.75C117.38 29.9833 117.716 30.3167 117.963 30.75C118.21 31.1833 118.333 31.68 118.333 32.24C118.333 32.8 118.206 33.2967 117.953 33.73C117.7 34.1633 117.353 34.5 116.913 34.74C116.48 34.9733 116 35.09 115.473 35.09ZM115.473 34.1C115.766 34.1 116.04 34.03 116.293 33.89C116.553 33.75 116.763 33.54 116.923 33.26C117.083 32.98 117.163 32.64 117.163 32.24C117.163 31.84 117.086 31.5033 116.933 31.23C116.78 30.95 116.576 30.74 116.323 30.6C116.07 30.46 115.796 30.39 115.503 30.39C115.21 30.39 114.936 30.46 114.683 30.6C114.436 30.74 114.24 30.95 114.093 31.23C113.946 31.5033 113.873 31.84 113.873 32.24C113.873 32.8333 114.023 33.2933 114.323 33.62C114.63 33.94 115.013 34.1 115.473 34.1ZM124.45 29.49V35H123.31V34.35C123.13 34.5767 122.893 34.7567 122.6 34.89C122.313 35.0167 122.007 35.08 121.68 35.08C121.247 35.08 120.857 34.99 120.51 34.81C120.17 34.63 119.9 34.3633 119.7 34.01C119.507 33.6567 119.41 33.23 119.41 32.73V29.49H120.54V32.56C120.54 33.0533 120.663 33.4333 120.91 33.7C121.157 33.96 121.493 34.09 121.92 34.09C122.347 34.09 122.683 33.96 122.93 33.7C123.183 33.4333 123.31 33.0533 123.31 32.56V29.49H124.45ZM127.094 27.6V35H125.954V27.6H127.094ZM128.211 32.22C128.211 31.6667 128.324 31.1767 128.551 30.75C128.784 30.3233 129.097 29.9933 129.491 29.76C129.891 29.52 130.334 29.4 130.821 29.4C131.181 29.4 131.534 29.48 131.881 29.64C132.234 29.7933 132.514 30 132.721 30.26V27.6H133.871V35H132.721V34.17C132.534 34.4367 132.274 34.6567 131.941 34.83C131.614 35.0033 131.237 35.09 130.811 35.09C130.331 35.09 129.891 34.97 129.491 34.73C129.097 34.4833 128.784 34.1433 128.551 33.71C128.324 33.27 128.211 32.7733 128.211 32.22ZM132.721 32.24C132.721 31.86 132.641 31.53 132.481 31.25C132.327 30.97 132.124 30.7567 131.871 30.61C131.617 30.4633 131.344 30.39 131.051 30.39C130.757 30.39 130.484 30.4633 130.231 30.61C129.977 30.75 129.771 30.96 129.611 31.24C129.457 31.5133 129.381 31.84 129.381 32.22C129.381 32.6 129.457 32.9333 129.611 33.22C129.771 33.5067 129.977 33.7267 130.231 33.88C130.491 34.0267 130.764 34.1 131.051 34.1C131.344 34.1 131.617 34.0267 131.871 33.88C132.124 33.7333 132.327 33.52 132.481 33.24C132.641 32.9533 132.721 32.62 132.721 32.24ZM38.0463 45.29C38.2129 45.01 38.4329 44.7933 38.7063 44.64C38.9863 44.48 39.3163 44.4 39.6963 44.4V45.58H39.4063C38.9596 45.58 38.6196 45.6933 38.3863 45.92C38.1596 46.1467 38.0463 46.54 38.0463 47.1V50H36.9063V44.49H38.0463V45.29ZM45.7941 47.11C45.7941 47.3167 45.7808 47.5033 45.7541 47.67H41.5441C41.5775 48.11 41.7408 48.4633 42.0341 48.73C42.3275 48.9967 42.6875 49.13 43.1141 49.13C43.7275 49.13 44.1608 48.8733 44.4141 48.36H45.6441C45.4775 48.8667 45.1741 49.2833 44.7341 49.61C44.3008 49.93 43.7608 50.09 43.1141 50.09C42.5875 50.09 42.1141 49.9733 41.6941 49.74C41.2808 49.5 40.9541 49.1667 40.7141 48.74C40.4808 48.3067 40.3641 47.8067 40.3641 47.24C40.3641 46.6733 40.4775 46.1767 40.7041 45.75C40.9375 45.3167 41.2608 44.9833 41.6741 44.75C42.0941 44.5167 42.5741 44.4 43.1141 44.4C43.6341 44.4 44.0975 44.5133 44.5041 44.74C44.9108 44.9667 45.2275 45.2867 45.4541 45.7C45.6808 46.1067 45.7941 46.5767 45.7941 47.11ZM44.6041 46.75C44.5975 46.33 44.4475 45.9933 44.1541 45.74C43.8608 45.4867 43.4975 45.36 43.0641 45.36C42.6708 45.36 42.3341 45.4867 42.0541 45.74C41.7741 45.9867 41.6075 46.3233 41.5541 46.75H44.6041ZM46.536 47.22C46.536 46.6667 46.6493 46.1767 46.876 45.75C47.1093 45.3233 47.4227 44.9933 47.816 44.76C48.216 44.52 48.6593 44.4 49.146 44.4C49.506 44.4 49.8593 44.48 50.206 44.64C50.5593 44.7933 50.8393 45 51.046 45.26V42.6H52.196V50H51.046V49.17C50.8593 49.4367 50.5993 49.6567 50.266 49.83C49.9393 50.0033 49.5627 50.09 49.136 50.09C48.656 50.09 48.216 49.97 47.816 49.73C47.4227 49.4833 47.1093 49.1433 46.876 48.71C46.6493 48.27 46.536 47.7733 46.536 47.22ZM51.046 47.24C51.046 46.86 50.966 46.53 50.806 46.25C50.6527 45.97 50.4493 45.7567 50.196 45.61C49.9427 45.4633 49.6693 45.39 49.376 45.39C49.0827 45.39 48.8093 45.4633 48.556 45.61C48.3027 45.75 48.096 45.96 47.936 46.24C47.7827 46.5133 47.706 46.84 47.706 47.22C47.706 47.6 47.7827 47.9333 47.936 48.22C48.096 48.5067 48.3027 48.7267 48.556 48.88C48.816 49.0267 49.0893 49.1 49.376 49.1C49.6693 49.1 49.9427 49.0267 50.196 48.88C50.4493 48.7333 50.6527 48.52 50.806 48.24C50.966 47.9533 51.046 47.62 51.046 47.24ZM58.6834 44.49V50H57.5434V49.35C57.3634 49.5767 57.1267 49.7567 56.8334 49.89C56.5467 50.0167 56.24 50.08 55.9134 50.08C55.48 50.08 55.09 49.99 54.7434 49.81C54.4034 49.63 54.1334 49.3633 53.9334 49.01C53.74 48.6567 53.6434 48.23 53.6434 47.73V44.49H54.7734V47.56C54.7734 48.0533 54.8967 48.4333 55.1434 48.7C55.39 48.96 55.7267 49.09 56.1534 49.09C56.58 49.09 56.9167 48.96 57.1634 48.7C57.4167 48.4333 57.5434 48.0533 57.5434 47.56V44.49H58.6834ZM59.8075 47.24C59.8075 46.6733 59.9208 46.1767 60.1475 45.75C60.3808 45.3167 60.7008 44.9833 61.1075 44.75C61.5142 44.5167 61.9808 44.4 62.5075 44.4C63.1742 44.4 63.7242 44.56 64.1575 44.88C64.5975 45.1933 64.8942 45.6433 65.0475 46.23H63.8175C63.7175 45.9567 63.5575 45.7433 63.3375 45.59C63.1175 45.4367 62.8408 45.36 62.5075 45.36C62.0408 45.36 61.6675 45.5267 61.3875 45.86C61.1142 46.1867 60.9775 46.6467 60.9775 47.24C60.9775 47.8333 61.1142 48.2967 61.3875 48.63C61.6675 48.9633 62.0408 49.13 62.5075 49.13C63.1675 49.13 63.6042 48.84 63.8175 48.26H65.0475C64.8875 48.82 64.5875 49.2667 64.1475 49.6C63.7075 49.9267 63.1608 50.09 62.5075 50.09C61.9808 50.09 61.5142 49.9733 61.1075 49.74C60.7008 49.5 60.3808 49.1667 60.1475 48.74C59.9208 48.3067 59.8075 47.8067 59.8075 47.24ZM71.2336 47.11C71.2336 47.3167 71.2203 47.5033 71.1936 47.67H66.9836C67.0169 48.11 67.1803 48.4633 67.4736 48.73C67.7669 48.9967 68.1269 49.13 68.5536 49.13C69.1669 49.13 69.6003 48.8733 69.8536 48.36H71.0836C70.9169 48.8667 70.6136 49.2833 70.1736 49.61C69.7403 49.93 69.2003 50.09 68.5536 50.09C68.0269 50.09 67.5536 49.9733 67.1336 49.74C66.7203 49.5 66.3936 49.1667 66.1536 48.74C65.9203 48.3067 65.8036 47.8067 65.8036 47.24C65.8036 46.6733 65.9169 46.1767 66.1436 45.75C66.3769 45.3167 66.7003 44.9833 67.1136 44.75C67.5336 44.5167 68.0136 44.4 68.5536 44.4C69.0736 44.4 69.5369 44.5133 69.9436 44.74C70.3503 44.9667 70.6669 45.2867 70.8936 45.7C71.1203 46.1067 71.2336 46.5767 71.2336 47.11ZM70.0436 46.75C70.0369 46.33 69.8869 45.9933 69.5936 45.74C69.3003 45.4867 68.9369 45.36 68.5036 45.36C68.1103 45.36 67.7736 45.4867 67.4936 45.74C67.2136 45.9867 67.0469 46.3233 66.9936 46.75H70.0436ZM81.6231 44.4C82.0565 44.4 82.4431 44.49 82.7831 44.67C83.1298 44.85 83.3998 45.1167 83.5931 45.47C83.7931 45.8233 83.8931 46.25 83.8931 46.75V50H82.7631V46.92C82.7631 46.4267 82.6398 46.05 82.3931 45.79C82.1465 45.5233 81.8098 45.39 81.3831 45.39C80.9565 45.39 80.6165 45.5233 80.3631 45.79C80.1165 46.05 79.9931 46.4267 79.9931 46.92V50H78.8631V46.92C78.8631 46.4267 78.7398 46.05 78.4931 45.79C78.2465 45.5233 77.9098 45.39 77.4831 45.39C77.0565 45.39 76.7165 45.5233 76.4631 45.79C76.2165 46.05 76.0931 46.4267 76.0931 46.92V50H74.9531V44.49H76.0931V45.12C76.2798 44.8933 76.5165 44.7167 76.8031 44.59C77.0898 44.4633 77.3965 44.4 77.7231 44.4C78.1631 44.4 78.5565 44.4933 78.9031 44.68C79.2498 44.8667 79.5165 45.1367 79.7031 45.49C79.8698 45.1567 80.1298 44.8933 80.4831 44.7C80.8365 44.5 81.2165 44.4 81.6231 44.4ZM90.3038 44.49L86.9238 52.59H85.7438L86.8638 49.91L84.6938 44.49H85.9638L87.5138 48.69L89.1238 44.49H90.3038ZM94.9017 45.3C95.0951 45.0467 95.3584 44.8333 95.6917 44.66C96.0251 44.4867 96.4017 44.4 96.8217 44.4C97.3017 44.4 97.7384 44.52 98.1317 44.76C98.5317 44.9933 98.8451 45.3233 99.0717 45.75C99.2984 46.1767 99.4117 46.6667 99.4117 47.22C99.4117 47.7733 99.2984 48.27 99.0717 48.71C98.8451 49.1433 98.5317 49.4833 98.1317 49.73C97.7384 49.97 97.3017 50.09 96.8217 50.09C96.4017 50.09 96.0284 50.0067 95.7017 49.84C95.3751 49.6667 95.1084 49.4533 94.9017 49.2V52.62H93.7617V44.49H94.9017V45.3ZM98.2517 47.22C98.2517 46.84 98.1717 46.5133 98.0117 46.24C97.8584 45.96 97.6517 45.75 97.3917 45.61C97.1384 45.4633 96.8651 45.39 96.5717 45.39C96.2851 45.39 96.0117 45.4633 95.7517 45.61C95.4984 45.7567 95.2917 45.97 95.1317 46.25C94.9784 46.53 94.9017 46.86 94.9017 47.24C94.9017 47.62 94.9784 47.9533 95.1317 48.24C95.2917 48.52 95.4984 48.7333 95.7517 48.88C96.0117 49.0267 96.2851 49.1 96.5717 49.1C96.8651 49.1 97.1384 49.0267 97.3917 48.88C97.6517 48.7267 97.8584 48.5067 98.0117 48.22C98.1717 47.9333 98.2517 47.6 98.2517 47.22ZM101.679 45.29C101.846 45.01 102.066 44.7933 102.339 44.64C102.619 44.48 102.949 44.4 103.329 44.4V45.58H103.039C102.592 45.58 102.252 45.6933 102.019 45.92C101.792 46.1467 101.679 46.54 101.679 47.1V50H100.539V44.49H101.679V45.29ZM104.957 43.76C104.75 43.76 104.577 43.69 104.437 43.55C104.297 43.41 104.227 43.2367 104.227 43.03C104.227 42.8233 104.297 42.65 104.437 42.51C104.577 42.37 104.75 42.3 104.957 42.3C105.157 42.3 105.327 42.37 105.467 42.51C105.607 42.65 105.677 42.8233 105.677 43.03C105.677 43.2367 105.607 43.41 105.467 43.55C105.327 43.69 105.157 43.76 104.957 43.76ZM105.517 44.49V50H104.377V44.49H105.517ZM106.634 47.24C106.634 46.6733 106.747 46.1767 106.974 45.75C107.207 45.3167 107.527 44.9833 107.934 44.75C108.34 44.5167 108.807 44.4 109.334 44.4C110 44.4 110.55 44.56 110.984 44.88C111.424 45.1933 111.72 45.6433 111.874 46.23H110.644C110.544 45.9567 110.384 45.7433 110.164 45.59C109.944 45.4367 109.667 45.36 109.334 45.36C108.867 45.36 108.494 45.5267 108.214 45.86C107.94 46.1867 107.804 46.6467 107.804 47.24C107.804 47.8333 107.94 48.2967 108.214 48.63C108.494 48.9633 108.867 49.13 109.334 49.13C109.994 49.13 110.43 48.84 110.644 48.26H111.874C111.714 48.82 111.414 49.2667 110.974 49.6C110.534 49.9267 109.987 50.09 109.334 50.09C108.807 50.09 108.34 49.9733 107.934 49.74C107.527 49.5 107.207 49.1667 106.974 48.74C106.747 48.3067 106.634 47.8067 106.634 47.24ZM118.06 47.11C118.06 47.3167 118.046 47.5033 118.02 47.67H113.81C113.843 48.11 114.006 48.4633 114.3 48.73C114.593 48.9967 114.953 49.13 115.38 49.13C115.993 49.13 116.426 48.8733 116.68 48.36H117.91C117.743 48.8667 117.44 49.2833 117 49.61C116.566 49.93 116.026 50.09 115.38 50.09C114.853 50.09 114.38 49.9733 113.96 49.74C113.546 49.5 113.22 49.1667 112.98 48.74C112.746 48.3067 112.63 47.8067 112.63 47.24C112.63 46.6733 112.743 46.1767 112.97 45.75C113.203 45.3167 113.526 44.9833 113.94 44.75C114.36 44.5167 114.84 44.4 115.38 44.4C115.9 44.4 116.363 44.5133 116.77 44.74C117.176 44.9667 117.493 45.2867 117.72 45.7C117.946 46.1067 118.06 46.5767 118.06 47.11ZM116.87 46.75C116.863 46.33 116.713 45.9933 116.42 45.74C116.126 45.4867 115.763 45.36 115.33 45.36C114.936 45.36 114.6 45.4867 114.32 45.74C114.04 45.9867 113.873 46.3233 113.82 46.75H116.87ZM119.642 50.07C119.435 50.07 119.262 50 119.122 49.86C118.982 49.72 118.912 49.5467 118.912 49.34C118.912 49.1333 118.982 48.96 119.122 48.82C119.262 48.68 119.435 48.61 119.642 48.61C119.842 48.61 120.012 48.68 120.152 48.82C120.292 48.96 120.362 49.1333 120.362 49.34C120.362 49.5467 120.292 49.72 120.152 49.86C120.012 50 119.842 50.07 119.642 50.07Z" fill="white"/>
<path d="M267.084 222.57C271.599 221.283 271.72 222.08 272.293 221.899C272.971 221.686 278.433 214.366 278.433 214.366C278.433 214.366 294.69 192.907 295.523 191.714L300.65 163.946L316.052 163.824C316.052 163.824 309.617 193.812 308.989 195.295C308.359 196.78 282.593 222.989 280.412 225.375C280.412 225.375 279.001 229.248 278.028 231.646C277.054 234.043 274.973 235.794 274.586 236.417C274.529 236.509 273.108 238.504 270.626 240.446C268.488 242.121 269.618 239.514 269.618 239.514C269.618 239.514 272.926 235.674 272.539 235.445C272.241 235.269 270.573 237.482 268.23 239.359C267.628 239.841 267.032 240.316 266.479 240.748C265.03 241.88 263.802 241.277 265.098 239.843C265.555 239.337 266.338 238.515 266.991 238.013C267.696 237.471 268.14 236.737 268.649 236.188C269.664 235.096 270.419 234.315 270.346 234.295C270.25 234.268 270.278 233.901 269.618 234.391C268.826 234.983 267.473 236.624 266.231 237.401C265.526 237.84 264.122 238.853 264.122 238.853C264.122 238.853 261.661 239.971 261.529 239.847C260.822 239.181 262.23 237.939 263.281 237.471C263.756 236.825 265.269 235.805 265.269 235.805C265.269 235.805 267.778 233.034 267.339 232.647C267.152 232.483 265.38 233.984 263.376 235.173C261.515 236.275 259.416 237.079 259.097 236.735C258.554 236.154 260.462 234.704 260.462 234.704C260.462 234.704 261.864 233.764 262.3 233.415C262.812 233.005 264.236 231.657 264.236 231.657C264.236 231.657 268.938 226.721 268.492 226.388C268.046 226.052 266.588 225.6 266.176 225.8C265.765 225.998 265.248 226.761 264.834 226.959C264.423 227.157 263.672 227.058 263.328 226.565C262.985 226.072 264.518 224.344 264.518 224.344C264.518 224.344 265.781 222.942 267.084 222.57Z" fill="#F48C7F"/>
<path d="M292.659 361.873C292.659 361.873 293.207 371.452 293.209 371.473C293.409 372.688 294.203 375.695 294.203 376.8C294.203 380.955 275.523 373.273 279.711 371.432C280.091 371.266 282.074 370.005 282.2 368.592C282.391 366.413 282.88 362.006 282.88 362.006L292.659 361.873Z" fill="#F7A491"/>
<path d="M279.759 371.394C279.759 371.394 284.145 372.666 286.39 372.983C288.635 373.3 291.597 370.627 293.187 371.349C294.936 372.144 294.759 379.976 294.759 379.976C294.759 379.976 271.349 381.343 264.737 379.234C262.116 378.396 270.794 374.354 279.759 371.394Z" fill="#184655"/>
<path d="M333.813 362.794C333.813 362.794 334.362 372.375 334.364 372.393C334.566 373.609 335.358 376.616 335.358 377.721C335.358 381.876 316.678 374.194 320.866 372.353C321.245 372.186 323.818 369.985 323.943 368.572C324.134 366.393 324.034 362.926 324.034 362.926L333.813 362.794Z" fill="#F7A491"/>
<path d="M320.913 372.315C320.913 372.315 325.299 373.586 327.544 373.904C329.789 374.221 332.751 371.547 334.341 372.27C336.09 373.064 336.159 380.224 336.159 380.224C336.159 380.224 311.132 382.02 305.247 380.334C302.604 379.574 311.946 375.275 320.913 372.315Z" fill="#184655"/>
<path d="M304.212 224.495L296.314 227.866L279.702 306.364L280.375 365.211L293.692 365.517C293.692 365.517 299.886 314.041 299.886 310.053C299.886 306.064 328.575 240.241 328.575 240.241L304.212 224.495Z" fill="#355389"/>
<path d="M310.306 228.814C310.306 228.814 316.125 289.293 316.125 299.487C316.125 309.681 320.843 366.739 320.843 366.739L334.191 366.663C334.191 366.663 335.153 349.271 336.584 323.686C336.807 319.679 336.295 311.592 336.584 307.444C338.661 277.607 342.767 249.519 340.806 238.385C340.49 236.593 339.896 231.907 338.743 230.723C330.001 221.776 310.306 228.814 310.306 228.814Z" fill="#466EB6"/>
<path d="M294.026 181.083L310.179 180.012C310.179 180.012 310.975 165.726 310.975 158.91C310.975 150.643 313.523 138.453 312.526 138.682C309.733 139.326 304.908 141.872 302.668 144.958C294.915 155.642 294.026 181.083 294.026 181.083Z" fill="#3C8F7C"/>
<path d="M332.294 138.367C332.294 138.367 341.504 139.634 343.929 141.397C346.659 143.38 349.689 147.821 349.689 147.821C349.689 147.821 338.381 200.715 338.36 209.615C338.345 216.5 340.808 233.408 340.808 233.408C340.808 233.408 306.635 235.542 293.692 230.486C293.692 230.486 297.779 210.378 297.779 205.097C297.779 199.817 302.668 151.802 303.78 148.449C304.79 145.406 306.635 139.938 312.879 138.59C319.123 137.244 332.294 138.367 332.294 138.367Z" fill="#50BFA5"/>
<path d="M329.778 124.126L332.057 138.896C332.057 138.896 323.732 156.484 318.761 154.958C314.592 153.677 317.158 138.117 317.158 138.117C317.158 138.117 319.43 129.76 318.75 125.578C318.065 121.396 329.778 124.126 329.778 124.126Z" fill="#F7A491"/>
<path d="M318.748 125.578C318.065 121.396 329.778 124.126 329.778 124.126L329.967 125.351C329.623 126.17 329.205 126.872 328.697 127.41C326.081 130.177 321.991 131.84 318.457 131.966C318.809 129.711 319.028 127.293 318.748 125.578Z" fill="#F47458"/>
<path d="M331.7 103.23C332.03 103.111 334.352 120.052 329.946 124.714C325.54 129.375 316.953 130.901 313.873 127.23C310.465 123.17 310.638 104.963 317.49 100.167C324.341 95.3723 331.7 103.23 331.7 103.23Z" fill="#F7A491"/>
<path d="M320.097 91.1047C325.392 92.1671 328.822 95.3475 330.083 96.7025C332.487 96.9816 335.756 98.287 339.132 103.781C343.281 110.536 340.217 118.018 335.385 121.689C330.554 125.36 330.608 129.623 330.608 129.623L329.857 127.408C329.293 125.747 329.064 123.985 329.252 122.242C329.366 121.196 329.594 120.066 330.033 119.136C331.195 116.685 327.537 115.056 326.511 113.016C325.722 111.445 325.683 107.853 324.439 105.256L322.954 103.273C322.954 103.273 319.526 100.65 316.173 101.391C312.82 102.129 313.302 89.7429 320.097 91.1047Z" fill="#13375B"/>
<path d="M326.739 116.028C326.705 118.094 327.66 119.787 328.875 119.807C330.089 119.827 331.102 118.169 331.136 116.102C331.17 114.036 330.215 112.343 329 112.323C327.787 112.303 326.775 113.962 326.739 116.028Z" fill="#F7A491"/>
<path d="M308.805 192.171L308.584 193.431C308.471 194.079 307.847 194.514 307.192 194.404L280.778 189.877C280.123 189.765 279.684 189.148 279.795 188.5L280.016 187.239C280.13 186.591 280.753 186.154 281.408 186.267L307.822 190.793C308.477 190.906 308.919 191.522 308.805 192.171Z" fill="#13375B"/>
<path d="M346.249 145.178C343.151 145.09 340.41 165.316 342.373 167.313C344.339 169.307 344.712 194.221 344.712 194.221L315.474 193.503L315.47 193.512C314.899 193.134 308.775 189.065 307.9 188.173C306.981 187.239 302.518 187.707 301.337 188.99C300.156 190.273 303.962 189.224 305.013 189.924C306.064 190.624 304.226 192.373 304.226 192.373C304.226 192.373 296.817 193.438 295.373 191.921C293.928 190.404 290.07 187.838 289.545 189.355C289.274 190.138 291.264 192.508 292.386 193.503C290.987 192.468 289.313 191.367 288.737 191.559C287.686 191.907 288.125 193.231 288.694 193.62C289.263 194.01 295.145 198.453 296.064 198.763C296.963 199.067 310.643 199.403 313.006 199.92C313.006 199.92 351.561 208.606 353.751 208.066C355.674 207.591 357.598 195.38 357.598 186.026C357.598 176.669 355.935 145.455 346.249 145.178Z" fill="#F7A491"/>
<path d="M342.23 140.564C342.23 140.564 347.623 141.793 353.194 147.987C358.26 153.621 361.454 185.168 361.454 185.168L343.959 187.966L342.562 172.706L337.887 165.726L342.23 140.564Z" fill="#50BFA5"/>
<path fill-rule="evenodd" clip-rule="evenodd" d="M269 0C263.477 0 259 4.47715 259 10V53C259 58.5228 263.477 63 269 63H280.811L296.332 84.9801L294.38 63H447C452.523 63 457 58.5228 457 53V10C457 4.47715 452.523 0 447 0H269Z" fill="#006AFF"/>
<path d="M280.057 13.05V20H278.917V15.24L276.797 20H276.007L273.877 15.24V20H272.737V13.05H273.967L276.407 18.5L278.837 13.05H280.057ZM286.516 14.49L283.136 22.59H281.956L283.076 19.91L280.906 14.49H282.176L283.726 18.69L285.336 14.49H286.516ZM292.824 14.4C293.244 14.4 293.617 14.49 293.944 14.67C294.277 14.85 294.537 15.1167 294.724 15.47C294.917 15.8233 295.014 16.25 295.014 16.75V20H293.884V16.92C293.884 16.4267 293.76 16.05 293.514 15.79C293.267 15.5233 292.93 15.39 292.504 15.39C292.077 15.39 291.737 15.5233 291.484 15.79C291.237 16.05 291.114 16.4267 291.114 16.92V20H289.974V12.6H291.114V15.13C291.307 14.8967 291.55 14.7167 291.844 14.59C292.144 14.4633 292.47 14.4 292.824 14.4ZM298.858 20.09C298.338 20.09 297.868 19.9733 297.448 19.74C297.028 19.5 296.698 19.1667 296.458 18.74C296.218 18.3067 296.098 17.8067 296.098 17.24C296.098 16.68 296.221 16.1833 296.468 15.75C296.714 15.3167 297.051 14.9833 297.478 14.75C297.904 14.5167 298.381 14.4 298.908 14.4C299.434 14.4 299.911 14.5167 300.338 14.75C300.764 14.9833 301.101 15.3167 301.348 15.75C301.594 16.1833 301.718 16.68 301.718 17.24C301.718 17.8 301.591 18.2967 301.338 18.73C301.084 19.1633 300.738 19.5 300.298 19.74C299.864 19.9733 299.384 20.09 298.858 20.09ZM298.858 19.1C299.151 19.1 299.424 19.03 299.678 18.89C299.938 18.75 300.148 18.54 300.308 18.26C300.468 17.98 300.548 17.64 300.548 17.24C300.548 16.84 300.471 16.5033 300.318 16.23C300.164 15.95 299.961 15.74 299.708 15.6C299.454 15.46 299.181 15.39 298.888 15.39C298.594 15.39 298.321 15.46 298.068 15.6C297.821 15.74 297.624 15.95 297.478 16.23C297.331 16.5033 297.258 16.84 297.258 17.24C297.258 17.8333 297.408 18.2933 297.708 18.62C298.014 18.94 298.398 19.1 298.858 19.1ZM307.835 14.49V20H306.695V19.35C306.515 19.5767 306.278 19.7567 305.985 19.89C305.698 20.0167 305.391 20.08 305.065 20.08C304.631 20.08 304.241 19.99 303.895 19.81C303.555 19.63 303.285 19.3633 303.085 19.01C302.891 18.6567 302.795 18.23 302.795 17.73V14.49H303.925V17.56C303.925 18.0533 304.048 18.4333 304.295 18.7C304.541 18.96 304.878 19.09 305.305 19.09C305.731 19.09 306.068 18.96 306.315 18.7C306.568 18.4333 306.695 18.0533 306.695 17.56V14.49H307.835ZM311.339 20.09C310.906 20.09 310.516 20.0133 310.169 19.86C309.829 19.7 309.559 19.4867 309.359 19.22C309.159 18.9467 309.052 18.6433 309.039 18.31H310.219C310.239 18.5433 310.349 18.74 310.549 18.9C310.756 19.0533 311.012 19.13 311.319 19.13C311.639 19.13 311.886 19.07 312.059 18.95C312.239 18.8233 312.329 18.6633 312.329 18.47C312.329 18.2633 312.229 18.11 312.029 18.01C311.836 17.91 311.526 17.8 311.099 17.68C310.686 17.5667 310.349 17.4567 310.089 17.35C309.829 17.2433 309.602 17.08 309.409 16.86C309.222 16.64 309.129 16.35 309.129 15.99C309.129 15.6967 309.216 15.43 309.389 15.19C309.562 14.9433 309.809 14.75 310.129 14.61C310.456 14.47 310.829 14.4 311.249 14.4C311.876 14.4 312.379 14.56 312.759 14.88C313.146 15.1933 313.352 15.6233 313.379 16.17H312.239C312.219 15.9233 312.119 15.7267 311.939 15.58C311.759 15.4333 311.516 15.36 311.209 15.36C310.909 15.36 310.679 15.4167 310.519 15.53C310.359 15.6433 310.279 15.7933 310.279 15.98C310.279 16.1267 310.332 16.25 310.439 16.35C310.546 16.45 310.676 16.53 310.829 16.59C310.982 16.6433 311.209 16.7133 311.509 16.8C311.909 16.9067 312.236 17.0167 312.489 17.13C312.749 17.2367 312.972 17.3967 313.159 17.61C313.346 17.8233 313.442 18.1067 313.449 18.46C313.449 18.7733 313.362 19.0533 313.189 19.3C313.016 19.5467 312.769 19.74 312.449 19.88C312.136 20.02 311.766 20.09 311.339 20.09ZM319.731 17.11C319.731 17.3167 319.717 17.5033 319.691 17.67H315.481C315.514 18.11 315.677 18.4633 315.971 18.73C316.264 18.9967 316.624 19.13 317.051 19.13C317.664 19.13 318.097 18.8733 318.351 18.36H319.581C319.414 18.8667 319.111 19.2833 318.671 19.61C318.237 19.93 317.697 20.09 317.051 20.09C316.524 20.09 316.051 19.9733 315.631 19.74C315.217 19.5 314.891 19.1667 314.651 18.74C314.417 18.3067 314.301 17.8067 314.301 17.24C314.301 16.6733 314.414 16.1767 314.641 15.75C314.874 15.3167 315.197 14.9833 315.611 14.75C316.031 14.5167 316.511 14.4 317.051 14.4C317.571 14.4 318.034 14.5133 318.441 14.74C318.847 14.9667 319.164 15.2867 319.391 15.7C319.617 16.1067 319.731 16.5767 319.731 17.11ZM318.541 16.75C318.534 16.33 318.384 15.9933 318.091 15.74C317.797 15.4867 317.434 15.36 317.001 15.36C316.607 15.36 316.271 15.4867 315.991 15.74C315.711 15.9867 315.544 16.3233 315.491 16.75H318.541ZM326.3 14.4C326.72 14.4 327.094 14.49 327.42 14.67C327.754 14.85 328.014 15.1167 328.2 15.47C328.394 15.8233 328.49 16.25 328.49 16.75V20H327.36V16.92C327.36 16.4267 327.237 16.05 326.99 15.79C326.744 15.5233 326.407 15.39 325.98 15.39C325.554 15.39 325.214 15.5233 324.96 15.79C324.714 16.05 324.59 16.4267 324.59 16.92V20H323.45V12.6H324.59V15.13C324.784 14.8967 325.027 14.7167 325.32 14.59C325.62 14.4633 325.947 14.4 326.3 14.4ZM329.564 17.22C329.564 16.6667 329.678 16.1767 329.904 15.75C330.138 15.3233 330.451 14.9933 330.844 14.76C331.244 14.52 331.684 14.4 332.164 14.4C332.598 14.4 332.974 14.4867 333.294 14.66C333.621 14.8267 333.881 15.0367 334.074 15.29V14.49H335.224V20H334.074V19.18C333.881 19.44 333.618 19.6567 333.284 19.83C332.951 20.0033 332.571 20.09 332.144 20.09C331.671 20.09 331.238 19.97 330.844 19.73C330.451 19.4833 330.138 19.1433 329.904 18.71C329.678 18.27 329.564 17.7733 329.564 17.22ZM334.074 17.24C334.074 16.86 333.994 16.53 333.834 16.25C333.681 15.97 333.478 15.7567 333.224 15.61C332.971 15.4633 332.698 15.39 332.404 15.39C332.111 15.39 331.838 15.4633 331.584 15.61C331.331 15.75 331.124 15.96 330.964 16.24C330.811 16.5133 330.734 16.84 330.734 17.22C330.734 17.6 330.811 17.9333 330.964 18.22C331.124 18.5067 331.331 18.7267 331.584 18.88C331.844 19.0267 332.118 19.1 332.404 19.1C332.698 19.1 332.971 19.0267 333.224 18.88C333.478 18.7333 333.681 18.52 333.834 18.24C333.994 17.9533 334.074 17.62 334.074 17.24ZM338.722 20.09C338.288 20.09 337.898 20.0133 337.552 19.86C337.212 19.7 336.942 19.4867 336.742 19.22C336.542 18.9467 336.435 18.6433 336.422 18.31H337.602C337.622 18.5433 337.732 18.74 337.932 18.9C338.138 19.0533 338.395 19.13 338.702 19.13C339.022 19.13 339.268 19.07 339.442 18.95C339.622 18.8233 339.712 18.6633 339.712 18.47C339.712 18.2633 339.612 18.11 339.412 18.01C339.218 17.91 338.908 17.8 338.482 17.68C338.068 17.5667 337.732 17.4567 337.472 17.35C337.212 17.2433 336.985 17.08 336.792 16.86C336.605 16.64 336.512 16.35 336.512 15.99C336.512 15.6967 336.598 15.43 336.772 15.19C336.945 14.9433 337.192 14.75 337.512 14.61C337.838 14.47 338.212 14.4 338.632 14.4C339.258 14.4 339.762 14.56 340.142 14.88C340.528 15.1933 340.735 15.6233 340.762 16.17H339.622C339.602 15.9233 339.502 15.7267 339.322 15.58C339.142 15.4333 338.898 15.36 338.592 15.36C338.292 15.36 338.062 15.4167 337.902 15.53C337.742 15.6433 337.662 15.7933 337.662 15.98C337.662 16.1267 337.715 16.25 337.822 16.35C337.928 16.45 338.058 16.53 338.212 16.59C338.365 16.6433 338.592 16.7133 338.892 16.8C339.292 16.9067 339.618 17.0167 339.872 17.13C340.132 17.2367 340.355 17.3967 340.542 17.61C340.728 17.8233 340.825 18.1067 340.832 18.46C340.832 18.7733 340.745 19.0533 340.572 19.3C340.398 19.5467 340.152 19.74 339.832 19.88C339.518 20.02 339.148 20.09 338.722 20.09ZM345.801 15.31C345.994 15.0433 346.258 14.8267 346.591 14.66C346.931 14.4867 347.308 14.4 347.721 14.4C348.208 14.4 348.648 14.5167 349.041 14.75C349.434 14.9833 349.744 15.3167 349.971 15.75C350.198 16.1767 350.311 16.6667 350.311 17.22C350.311 17.7733 350.198 18.27 349.971 18.71C349.744 19.1433 349.431 19.4833 349.031 19.73C348.638 19.97 348.201 20.09 347.721 20.09C347.294 20.09 346.914 20.0067 346.581 19.84C346.254 19.6733 345.994 19.46 345.801 19.2V20H344.661V12.6H345.801V15.31ZM349.151 17.22C349.151 16.84 349.071 16.5133 348.911 16.24C348.758 15.96 348.551 15.75 348.291 15.61C348.038 15.4633 347.764 15.39 347.471 15.39C347.184 15.39 346.911 15.4633 346.651 15.61C346.398 15.7567 346.191 15.97 346.031 16.25C345.878 16.53 345.801 16.86 345.801 17.24C345.801 17.62 345.878 17.9533 346.031 18.24C346.191 18.52 346.398 18.7333 346.651 18.88C346.911 19.0267 347.184 19.1 347.471 19.1C347.764 19.1 348.038 19.0267 348.291 18.88C348.551 18.7267 348.758 18.5067 348.911 18.22C349.071 17.9333 349.151 17.6 349.151 17.22ZM356.488 17.11C356.488 17.3167 356.475 17.5033 356.448 17.67H352.238C352.272 18.11 352.435 18.4633 352.728 18.73C353.022 18.9967 353.382 19.13 353.808 19.13C354.422 19.13 354.855 18.8733 355.108 18.36H356.338C356.172 18.8667 355.868 19.2833 355.428 19.61C354.995 19.93 354.455 20.09 353.808 20.09C353.282 20.09 352.808 19.9733 352.388 19.74C351.975 19.5 351.648 19.1667 351.408 18.74C351.175 18.3067 351.058 17.8067 351.058 17.24C351.058 16.6733 351.172 16.1767 351.398 15.75C351.632 15.3167 351.955 14.9833 352.368 14.75C352.788 14.5167 353.268 14.4 353.808 14.4C354.328 14.4 354.792 14.5133 355.198 14.74C355.605 14.9667 355.922 15.2867 356.148 15.7C356.375 16.1067 356.488 16.5767 356.488 17.11ZM355.298 16.75C355.292 16.33 355.142 15.9933 354.848 15.74C354.555 15.4867 354.192 15.36 353.758 15.36C353.365 15.36 353.028 15.4867 352.748 15.74C352.468 15.9867 352.302 16.3233 352.248 16.75H355.298ZM362.66 17.11C362.66 17.3167 362.647 17.5033 362.62 17.67H358.41C358.444 18.11 358.607 18.4633 358.9 18.73C359.194 18.9967 359.554 19.13 359.98 19.13C360.594 19.13 361.027 18.8733 361.28 18.36H362.51C362.344 18.8667 362.04 19.2833 361.6 19.61C361.167 19.93 360.627 20.09 359.98 20.09C359.454 20.09 358.98 19.9733 358.56 19.74C358.147 19.5 357.82 19.1667 357.58 18.74C357.347 18.3067 357.23 17.8067 357.23 17.24C357.23 16.6733 357.344 16.1767 357.57 15.75C357.804 15.3167 358.127 14.9833 358.54 14.75C358.96 14.5167 359.44 14.4 359.98 14.4C360.5 14.4 360.964 14.5133 361.37 14.74C361.777 14.9667 362.094 15.2867 362.32 15.7C362.547 16.1067 362.66 16.5767 362.66 17.11ZM361.47 16.75C361.464 16.33 361.314 15.9933 361.02 15.74C360.727 15.4867 360.364 15.36 359.93 15.36C359.537 15.36 359.2 15.4867 358.92 15.74C358.64 15.9867 358.474 16.3233 358.42 16.75H361.47ZM366.562 14.4C366.996 14.4 367.382 14.49 367.722 14.67C368.069 14.85 368.339 15.1167 368.532 15.47C368.726 15.8233 368.822 16.25 368.822 16.75V20H367.692V16.92C367.692 16.4267 367.569 16.05 367.322 15.79C367.076 15.5233 366.739 15.39 366.312 15.39C365.886 15.39 365.546 15.5233 365.292 15.79C365.046 16.05 364.922 16.4267 364.922 16.92V20H363.782V14.49H364.922V15.12C365.109 14.8933 365.346 14.7167 365.632 14.59C365.926 14.4633 366.236 14.4 366.562 14.4ZM375.264 20.09C374.744 20.09 374.274 19.9733 373.854 19.74C373.434 19.5 373.104 19.1667 372.864 18.74C372.624 18.3067 372.504 17.8067 372.504 17.24C372.504 16.68 372.627 16.1833 372.874 15.75C373.121 15.3167 373.457 14.9833 373.884 14.75C374.311 14.5167 374.787 14.4 375.314 14.4C375.841 14.4 376.317 14.5167 376.744 14.75C377.171 14.9833 377.507 15.3167 377.754 15.75C378.001 16.1833 378.124 16.68 378.124 17.24C378.124 17.8 377.997 18.2967 377.744 18.73C377.491 19.1633 377.144 19.5 376.704 19.74C376.271 19.9733 375.791 20.09 375.264 20.09ZM375.264 19.1C375.557 19.1 375.831 19.03 376.084 18.89C376.344 18.75 376.554 18.54 376.714 18.26C376.874 17.98 376.954 17.64 376.954 17.24C376.954 16.84 376.877 16.5033 376.724 16.23C376.571 15.95 376.367 15.74 376.114 15.6C375.861 15.46 375.587 15.39 375.294 15.39C375.001 15.39 374.727 15.46 374.474 15.6C374.227 15.74 374.031 15.95 373.884 16.23C373.737 16.5033 373.664 16.84 373.664 17.24C373.664 17.8333 373.814 18.2933 374.114 18.62C374.421 18.94 374.804 19.1 375.264 19.1ZM382.031 14.4C382.464 14.4 382.851 14.49 383.191 14.67C383.538 14.85 383.808 15.1167 384.001 15.47C384.194 15.8233 384.291 16.25 384.291 16.75V20H383.161V16.92C383.161 16.4267 383.038 16.05 382.791 15.79C382.544 15.5233 382.208 15.39 381.781 15.39C381.354 15.39 381.014 15.5233 380.761 15.79C380.514 16.05 380.391 16.4267 380.391 16.92V20H379.251V14.49H380.391V15.12C380.578 14.8933 380.814 14.7167 381.101 14.59C381.394 14.4633 381.704 14.4 382.031 14.4ZM389.673 15.42V18.47C389.673 18.6767 389.719 18.8267 389.813 18.92C389.913 19.0067 390.079 19.05 390.313 19.05H391.013V20H390.113C389.599 20 389.206 19.88 388.933 19.64C388.659 19.4 388.523 19.01 388.523 18.47V15.42H387.873V14.49H388.523V13.12H389.673V14.49H391.013V15.42H389.673ZM394.913 14.4C395.333 14.4 395.707 14.49 396.033 14.67C396.367 14.85 396.627 15.1167 396.813 15.47C397.007 15.8233 397.103 16.25 397.103 16.75V20H395.973V16.92C395.973 16.4267 395.85 16.05 395.603 15.79C395.357 15.5233 395.02 15.39 394.593 15.39C394.167 15.39 393.827 15.5233 393.573 15.79C393.327 16.05 393.203 16.4267 393.203 16.92V20H392.063V12.6H393.203V15.13C393.397 14.8967 393.64 14.7167 393.933 14.59C394.233 14.4633 394.56 14.4 394.913 14.4ZM403.608 17.11C403.608 17.3167 403.594 17.5033 403.568 17.67H399.358C399.391 18.11 399.554 18.4633 399.848 18.73C400.141 18.9967 400.501 19.13 400.928 19.13C401.541 19.13 401.974 18.8733 402.228 18.36H403.458C403.291 18.8667 402.988 19.2833 402.548 19.61C402.114 19.93 401.574 20.09 400.928 20.09C400.401 20.09 399.928 19.9733 399.508 19.74C399.094 19.5 398.768 19.1667 398.528 18.74C398.294 18.3067 398.178 17.8067 398.178 17.24C398.178 16.6733 398.291 16.1767 398.518 15.75C398.751 15.3167 399.074 14.9833 399.488 14.75C399.908 14.5167 400.388 14.4 400.928 14.4C401.448 14.4 401.911 14.5133 402.318 14.74C402.724 14.9667 403.041 15.2867 403.268 15.7C403.494 16.1067 403.608 16.5767 403.608 17.11ZM402.418 16.75C402.411 16.33 402.261 15.9933 401.968 15.74C401.674 15.4867 401.311 15.36 400.878 15.36C400.484 15.36 400.148 15.4867 399.868 15.74C399.588 15.9867 399.421 16.3233 399.368 16.75H402.418ZM413.997 14.4C414.43 14.4 414.817 14.49 415.157 14.67C415.504 14.85 415.774 15.1167 415.967 15.47C416.167 15.8233 416.267 16.25 416.267 16.75V20H415.137V16.92C415.137 16.4267 415.014 16.05 414.767 15.79C414.52 15.5233 414.184 15.39 413.757 15.39C413.33 15.39 412.99 15.5233 412.737 15.79C412.49 16.05 412.367 16.4267 412.367 16.92V20H411.237V16.92C411.237 16.4267 411.114 16.05 410.867 15.79C410.62 15.5233 410.284 15.39 409.857 15.39C409.43 15.39 409.09 15.5233 408.837 15.79C408.59 16.05 408.467 16.4267 408.467 16.92V20H407.327V14.49H408.467V15.12C408.654 14.8933 408.89 14.7167 409.177 14.59C409.464 14.4633 409.77 14.4 410.097 14.4C410.537 14.4 410.93 14.4933 411.277 14.68C411.624 14.8667 411.89 15.1367 412.077 15.49C412.244 15.1567 412.504 14.8933 412.857 14.7C413.21 14.5 413.59 14.4 413.997 14.4ZM417.338 17.22C417.338 16.6667 417.451 16.1767 417.678 15.75C417.911 15.3233 418.224 14.9933 418.618 14.76C419.018 14.52 419.458 14.4 419.938 14.4C420.371 14.4 420.748 14.4867 421.068 14.66C421.394 14.8267 421.654 15.0367 421.848 15.29V14.49H422.998V20H421.848V19.18C421.654 19.44 421.391 19.6567 421.058 19.83C420.724 20.0033 420.344 20.09 419.918 20.09C419.444 20.09 419.011 19.97 418.618 19.73C418.224 19.4833 417.911 19.1433 417.678 18.71C417.451 18.27 417.338 17.7733 417.338 17.22ZM421.848 17.24C421.848 16.86 421.768 16.53 421.608 16.25C421.454 15.97 421.251 15.7567 420.998 15.61C420.744 15.4633 420.471 15.39 420.178 15.39C419.884 15.39 419.611 15.4633 419.358 15.61C419.104 15.75 418.898 15.96 418.738 16.24C418.584 16.5133 418.508 16.84 418.508 17.22C418.508 17.6 418.584 17.9333 418.738 18.22C418.898 18.5067 419.104 18.7267 419.358 18.88C419.618 19.0267 419.891 19.1 420.178 19.1C420.471 19.1 420.744 19.0267 420.998 18.88C421.251 18.7333 421.454 18.52 421.608 18.24C421.768 17.9533 421.848 17.62 421.848 17.24ZM425.635 15.29C425.802 15.01 426.022 14.7933 426.295 14.64C426.575 14.48 426.905 14.4 427.285 14.4V15.58H426.995C426.548 15.58 426.208 15.6933 425.975 15.92C425.748 16.1467 425.635 16.54 425.635 17.1V20H424.495V14.49H425.635V15.29ZM430.513 17.25L433.053 20H431.513L429.473 17.63V20H428.333V12.6H429.473V16.9L431.473 14.49H433.053L430.513 17.25ZM438.92 17.11C438.92 17.3167 438.907 17.5033 438.88 17.67H434.67C434.703 18.11 434.867 18.4633 435.16 18.73C435.453 18.9967 435.813 19.13 436.24 19.13C436.853 19.13 437.287 18.8733 437.54 18.36H438.77C438.603 18.8667 438.3 19.2833 437.86 19.61C437.427 19.93 436.887 20.09 436.24 20.09C435.713 20.09 435.24 19.9733 434.82 19.74C434.407 19.5 434.08 19.1667 433.84 18.74C433.607 18.3067 433.49 17.8067 433.49 17.24C433.49 16.6733 433.603 16.1767 433.83 15.75C434.063 15.3167 434.387 14.9833 434.8 14.75C435.22 14.5167 435.7 14.4 436.24 14.4C436.76 14.4 437.223 14.5133 437.63 14.74C438.037 14.9667 438.353 15.2867 438.58 15.7C438.807 16.1067 438.92 16.5767 438.92 17.11ZM437.73 16.75C437.723 16.33 437.573 15.9933 437.28 15.74C436.987 15.4867 436.623 15.36 436.19 15.36C435.797 15.36 435.46 15.4867 435.18 15.74C434.9 15.9867 434.733 16.3233 434.68 16.75H437.73ZM441.372 15.42V18.47C441.372 18.6767 441.419 18.8267 441.512 18.92C441.612 19.0067 441.779 19.05 442.012 19.05H442.712V20H441.812C441.299 20 440.905 19.88 440.632 19.64C440.359 19.4 440.222 19.01 440.222 18.47V15.42H439.572V14.49H440.222V13.12H441.372V14.49H442.712V15.42H441.372ZM275.628 30.42H274.608V35H273.458V30.42H272.808V29.49H273.458V29.1C273.458 28.4667 273.625 28.0067 273.958 27.72C274.298 27.4267 274.828 27.28 275.548 27.28V28.23C275.202 28.23 274.958 28.2967 274.818 28.43C274.678 28.5567 274.608 28.78 274.608 29.1V29.49H275.628V30.42ZM279.029 35.09C278.509 35.09 278.039 34.9733 277.619 34.74C277.199 34.5 276.869 34.1667 276.629 33.74C276.389 33.3067 276.269 32.8067 276.269 32.24C276.269 31.68 276.392 31.1833 276.639 30.75C276.885 30.3167 277.222 29.9833 277.649 29.75C278.075 29.5167 278.552 29.4 279.079 29.4C279.605 29.4 280.082 29.5167 280.509 29.75C280.935 29.9833 281.272 30.3167 281.519 30.75C281.765 31.1833 281.889 31.68 281.889 32.24C281.889 32.8 281.762 33.2967 281.509 33.73C281.255 34.1633 280.909 34.5 280.469 34.74C280.035 34.9733 279.555 35.09 279.029 35.09ZM279.029 34.1C279.322 34.1 279.595 34.03 279.849 33.89C280.109 33.75 280.319 33.54 280.479 33.26C280.639 32.98 280.719 32.64 280.719 32.24C280.719 31.84 280.642 31.5033 280.489 31.23C280.335 30.95 280.132 30.74 279.879 30.6C279.625 30.46 279.352 30.39 279.059 30.39C278.765 30.39 278.492 30.46 278.239 30.6C277.992 30.74 277.795 30.95 277.649 31.23C277.502 31.5033 277.429 31.84 277.429 32.24C277.429 32.8333 277.579 33.2933 277.879 33.62C278.185 33.94 278.569 34.1 279.029 34.1ZM284.156 30.29C284.322 30.01 284.542 29.7933 284.816 29.64C285.096 29.48 285.426 29.4 285.806 29.4V30.58H285.516C285.069 30.58 284.729 30.6933 284.496 30.92C284.269 31.1467 284.156 31.54 284.156 32.1V35H283.016V29.49H284.156V30.29ZM296.121 29.4C296.555 29.4 296.941 29.49 297.281 29.67C297.628 29.85 297.898 30.1167 298.091 30.47C298.291 30.8233 298.391 31.25 298.391 31.75V35H297.261V31.92C297.261 31.4267 297.138 31.05 296.891 30.79C296.645 30.5233 296.308 30.39 295.881 30.39C295.455 30.39 295.115 30.5233 294.861 30.79C294.615 31.05 294.491 31.4267 294.491 31.92V35H293.361V31.92C293.361 31.4267 293.238 31.05 292.991 30.79C292.745 30.5233 292.408 30.39 291.981 30.39C291.555 30.39 291.215 30.5233 290.961 30.79C290.715 31.05 290.591 31.4267 290.591 31.92V35H289.451V29.49H290.591V30.12C290.778 29.8933 291.015 29.7167 291.301 29.59C291.588 29.4633 291.895 29.4 292.221 29.4C292.661 29.4 293.055 29.4933 293.401 29.68C293.748 29.8667 294.015 30.1367 294.201 30.49C294.368 30.1567 294.628 29.8933 294.981 29.7C295.335 29.5 295.715 29.4 296.121 29.4ZM302.232 35.09C301.712 35.09 301.242 34.9733 300.822 34.74C300.402 34.5 300.072 34.1667 299.832 33.74C299.592 33.3067 299.472 32.8067 299.472 32.24C299.472 31.68 299.595 31.1833 299.842 30.75C300.088 30.3167 300.425 29.9833 300.852 29.75C301.278 29.5167 301.755 29.4 302.282 29.4C302.808 29.4 303.285 29.5167 303.712 29.75C304.138 29.9833 304.475 30.3167 304.722 30.75C304.968 31.1833 305.092 31.68 305.092 32.24C305.092 32.8 304.965 33.2967 304.712 33.73C304.458 34.1633 304.112 34.5 303.672 34.74C303.238 34.9733 302.758 35.09 302.232 35.09ZM302.232 34.1C302.525 34.1 302.798 34.03 303.052 33.89C303.312 33.75 303.522 33.54 303.682 33.26C303.842 32.98 303.922 32.64 303.922 32.24C303.922 31.84 303.845 31.5033 303.692 31.23C303.538 30.95 303.335 30.74 303.082 30.6C302.828 30.46 302.555 30.39 302.262 30.39C301.968 30.39 301.695 30.46 301.442 30.6C301.195 30.74 300.998 30.95 300.852 31.23C300.705 31.5033 300.632 31.84 300.632 32.24C300.632 32.8333 300.782 33.2933 301.082 33.62C301.388 33.94 301.772 34.1 302.232 34.1ZM308.999 29.4C309.432 29.4 309.819 29.49 310.159 29.67C310.505 29.85 310.775 30.1167 310.969 30.47C311.162 30.8233 311.259 31.25 311.259 31.75V35H310.129V31.92C310.129 31.4267 310.005 31.05 309.759 30.79C309.512 30.5233 309.175 30.39 308.749 30.39C308.322 30.39 307.982 30.5233 307.729 30.79C307.482 31.05 307.359 31.4267 307.359 31.92V35H306.219V29.49H307.359V30.12C307.545 29.8933 307.782 29.7167 308.069 29.59C308.362 29.4633 308.672 29.4 308.999 29.4ZM314.043 30.42V33.47C314.043 33.6767 314.09 33.8267 314.183 33.92C314.283 34.0067 314.45 34.05 314.683 34.05H315.383V35H314.483C313.97 35 313.576 34.88 313.303 34.64C313.03 34.4 312.893 34.01 312.893 33.47V30.42H312.243V29.49H312.893V28.12H314.043V29.49H315.383V30.42H314.043ZM319.284 29.4C319.704 29.4 320.077 29.49 320.404 29.67C320.737 29.85 320.997 30.1167 321.184 30.47C321.377 30.8233 321.474 31.25 321.474 31.75V35H320.344V31.92C320.344 31.4267 320.22 31.05 319.974 30.79C319.727 30.5233 319.39 30.39 318.964 30.39C318.537 30.39 318.197 30.5233 317.944 30.79C317.697 31.05 317.574 31.4267 317.574 31.92V35H316.434V27.6H317.574V30.13C317.767 29.8967 318.01 29.7167 318.304 29.59C318.604 29.4633 318.93 29.4 319.284 29.4ZM324.928 35.09C324.494 35.09 324.104 35.0133 323.758 34.86C323.418 34.7 323.148 34.4867 322.948 34.22C322.748 33.9467 322.641 33.6433 322.628 33.31H323.808C323.828 33.5433 323.938 33.74 324.138 33.9C324.344 34.0533 324.601 34.13 324.908 34.13C325.228 34.13 325.474 34.07 325.648 33.95C325.828 33.8233 325.918 33.6633 325.918 33.47C325.918 33.2633 325.818 33.11 325.618 33.01C325.424 32.91 325.114 32.8 324.688 32.68C324.274 32.5667 323.938 32.4567 323.678 32.35C323.418 32.2433 323.191 32.08 322.998 31.86C322.811 31.64 322.718 31.35 322.718 30.99C322.718 30.6967 322.804 30.43 322.978 30.19C323.151 29.9433 323.398 29.75 323.718 29.61C324.044 29.47 324.418 29.4 324.838 29.4C325.464 29.4 325.968 29.56 326.348 29.88C326.734 30.1933 326.941 30.6233 326.968 31.17H325.828C325.808 30.9233 325.708 30.7267 325.528 30.58C325.348 30.4333 325.104 30.36 324.798 30.36C324.498 30.36 324.268 30.4167 324.108 30.53C323.948 30.6433 323.868 30.7933 323.868 30.98C323.868 31.1267 323.921 31.25 324.028 31.35C324.134 31.45 324.264 31.53 324.418 31.59C324.571 31.6433 324.798 31.7133 325.098 31.8C325.498 31.9067 325.824 32.0167 326.078 32.13C326.338 32.2367 326.561 32.3967 326.748 32.61C326.934 32.8233 327.031 33.1067 327.038 33.46C327.038 33.7733 326.951 34.0533 326.778 34.3C326.604 34.5467 326.358 34.74 326.038 34.88C325.724 35.02 325.354 35.09 324.928 35.09ZM328.73 35.07C328.523 35.07 328.35 35 328.21 34.86C328.07 34.72 328 34.5467 328 34.34C328 34.1333 328.07 33.96 328.21 33.82C328.35 33.68 328.523 33.61 328.73 33.61C328.93 33.61 329.1 33.68 329.24 33.82C329.38 33.96 329.45 34.1333 329.45 34.34C329.45 34.5467 329.38 34.72 329.24 34.86C329.1 35 328.93 35.07 328.73 35.07ZM338.429 28.05L336.129 32.48V35H334.989V32.48L332.679 28.05H333.949L335.559 31.46L337.169 28.05H338.429ZM341.724 35.09C341.204 35.09 340.734 34.9733 340.314 34.74C339.894 34.5 339.564 34.1667 339.324 33.74C339.084 33.3067 338.964 32.8067 338.964 32.24C338.964 31.68 339.087 31.1833 339.334 30.75C339.581 30.3167 339.917 29.9833 340.344 29.75C340.771 29.5167 341.247 29.4 341.774 29.4C342.301 29.4 342.777 29.5167 343.204 29.75C343.631 29.9833 343.967 30.3167 344.214 30.75C344.461 31.1833 344.584 31.68 344.584 32.24C344.584 32.8 344.457 33.2967 344.204 33.73C343.951 34.1633 343.604 34.5 343.164 34.74C342.731 34.9733 342.251 35.09 341.724 35.09ZM341.724 34.1C342.017 34.1 342.291 34.03 342.544 33.89C342.804 33.75 343.014 33.54 343.174 33.26C343.334 32.98 343.414 32.64 343.414 32.24C343.414 31.84 343.337 31.5033 343.184 31.23C343.031 30.95 342.827 30.74 342.574 30.6C342.321 30.46 342.047 30.39 341.754 30.39C341.461 30.39 341.187 30.46 340.934 30.6C340.687 30.74 340.491 30.95 340.344 31.23C340.197 31.5033 340.124 31.84 340.124 32.24C340.124 32.8333 340.274 33.2933 340.574 33.62C340.881 33.94 341.264 34.1 341.724 34.1ZM350.701 29.49V35H349.561V34.35C349.381 34.5767 349.144 34.7567 348.851 34.89C348.564 35.0167 348.258 35.08 347.931 35.08C347.498 35.08 347.108 34.99 346.761 34.81C346.421 34.63 346.151 34.3633 345.951 34.01C345.758 33.6567 345.661 33.23 345.661 32.73V29.49H346.791V32.56C346.791 33.0533 346.914 33.4333 347.161 33.7C347.408 33.96 347.744 34.09 348.171 34.09C348.598 34.09 348.934 33.96 349.181 33.7C349.434 33.4333 349.561 33.0533 349.561 32.56V29.49H350.701ZM355.943 30.29C356.109 30.01 356.329 29.7933 356.603 29.64C356.883 29.48 357.213 29.4 357.593 29.4V30.58H357.303C356.856 30.58 356.516 30.6933 356.283 30.92C356.056 31.1467 355.943 31.54 355.943 32.1V35H354.803V29.49H355.943V30.29ZM363.691 32.11C363.691 32.3167 363.677 32.5033 363.651 32.67H359.441C359.474 33.11 359.637 33.4633 359.931 33.73C360.224 33.9967 360.584 34.13 361.011 34.13C361.624 34.13 362.057 33.8733 362.311 33.36H363.541C363.374 33.8667 363.071 34.2833 362.631 34.61C362.197 34.93 361.657 35.09 361.011 35.09C360.484 35.09 360.011 34.9733 359.591 34.74C359.177 34.5 358.851 34.1667 358.611 33.74C358.377 33.3067 358.261 32.8067 358.261 32.24C358.261 31.6733 358.374 31.1767 358.601 30.75C358.834 30.3167 359.157 29.9833 359.571 29.75C359.991 29.5167 360.471 29.4 361.011 29.4C361.531 29.4 361.994 29.5133 362.401 29.74C362.807 29.9667 363.124 30.2867 363.351 30.7C363.577 31.1067 363.691 31.5767 363.691 32.11ZM362.501 31.75C362.494 31.33 362.344 30.9933 362.051 30.74C361.757 30.4867 361.394 30.36 360.961 30.36C360.567 30.36 360.231 30.4867 359.951 30.74C359.671 30.9867 359.504 31.3233 359.451 31.75H362.501ZM364.433 32.22C364.433 31.6667 364.546 31.1767 364.773 30.75C365.006 30.3233 365.319 29.9933 365.713 29.76C366.113 29.52 366.553 29.4 367.033 29.4C367.466 29.4 367.843 29.4867 368.163 29.66C368.489 29.8267 368.749 30.0367 368.943 30.29V29.49H370.093V35H368.943V34.18C368.749 34.44 368.486 34.6567 368.153 34.83C367.819 35.0033 367.439 35.09 367.013 35.09C366.539 35.09 366.106 34.97 365.713 34.73C365.319 34.4833 365.006 34.1433 364.773 33.71C364.546 33.27 364.433 32.7733 364.433 32.22ZM368.943 32.24C368.943 31.86 368.863 31.53 368.703 31.25C368.549 30.97 368.346 30.7567 368.093 30.61C367.839 30.4633 367.566 30.39 367.273 30.39C366.979 30.39 366.706 30.4633 366.453 30.61C366.199 30.75 365.993 30.96 365.833 31.24C365.679 31.5133 365.603 31.84 365.603 32.22C365.603 32.6 365.679 32.9333 365.833 33.22C365.993 33.5067 366.199 33.7267 366.453 33.88C366.713 34.0267 366.986 34.1 367.273 34.1C367.566 34.1 367.839 34.0267 368.093 33.88C368.346 33.7333 368.549 33.52 368.703 33.24C368.863 32.9533 368.943 32.62 368.943 32.24ZM372.73 27.6V35H371.59V27.6H372.73ZM375.367 27.6V35H374.227V27.6H375.367ZM381.823 29.49L378.443 37.59H377.263L378.383 34.91L376.213 29.49H377.483L379.033 33.69L380.643 29.49H381.823ZM388.061 29.4C388.495 29.4 388.881 29.49 389.221 29.67C389.568 29.85 389.838 30.1167 390.031 30.47C390.225 30.8233 390.321 31.25 390.321 31.75V35H389.191V31.92C389.191 31.4267 389.068 31.05 388.821 30.79C388.575 30.5233 388.238 30.39 387.811 30.39C387.385 30.39 387.045 30.5233 386.791 30.79C386.545 31.05 386.421 31.4267 386.421 31.92V35H385.281V29.49H386.421V30.12C386.608 29.8933 386.845 29.7167 387.131 29.59C387.425 29.4633 387.735 29.4 388.061 29.4ZM396.825 32.11C396.825 32.3167 396.812 32.5033 396.785 32.67H392.575C392.609 33.11 392.772 33.4633 393.065 33.73C393.359 33.9967 393.719 34.13 394.145 34.13C394.759 34.13 395.192 33.8733 395.445 33.36H396.675C396.509 33.8667 396.205 34.2833 395.765 34.61C395.332 34.93 394.792 35.09 394.145 35.09C393.619 35.09 393.145 34.9733 392.725 34.74C392.312 34.5 391.985 34.1667 391.745 33.74C391.512 33.3067 391.395 32.8067 391.395 32.24C391.395 31.6733 391.509 31.1767 391.735 30.75C391.969 30.3167 392.292 29.9833 392.705 29.75C393.125 29.5167 393.605 29.4 394.145 29.4C394.665 29.4 395.129 29.5133 395.535 29.74C395.942 29.9667 396.259 30.2867 396.485 30.7C396.712 31.1067 396.825 31.5767 396.825 32.11ZM395.635 31.75C395.629 31.33 395.479 30.9933 395.185 30.74C394.892 30.4867 394.529 30.36 394.095 30.36C393.702 30.36 393.365 30.4867 393.085 30.74C392.805 30.9867 392.639 31.3233 392.585 31.75H395.635ZM402.997 32.11C402.997 32.3167 402.984 32.5033 402.957 32.67H398.747C398.781 33.11 398.944 33.4633 399.237 33.73C399.531 33.9967 399.891 34.13 400.317 34.13C400.931 34.13 401.364 33.8733 401.617 33.36H402.847C402.681 33.8667 402.377 34.2833 401.937 34.61C401.504 34.93 400.964 35.09 400.317 35.09C399.791 35.09 399.317 34.9733 398.897 34.74C398.484 34.5 398.157 34.1667 397.917 33.74C397.684 33.3067 397.567 32.8067 397.567 32.24C397.567 31.6733 397.681 31.1767 397.907 30.75C398.141 30.3167 398.464 29.9833 398.877 29.75C399.297 29.5167 399.777 29.4 400.317 29.4C400.837 29.4 401.301 29.5133 401.707 29.74C402.114 29.9667 402.431 30.2867 402.657 30.7C402.884 31.1067 402.997 31.5767 402.997 32.11ZM401.807 31.75C401.801 31.33 401.651 30.9933 401.357 30.74C401.064 30.4867 400.701 30.36 400.267 30.36C399.874 30.36 399.537 30.4867 399.257 30.74C398.977 30.9867 398.811 31.3233 398.757 31.75H401.807ZM403.739 32.22C403.739 31.6667 403.852 31.1767 404.079 30.75C404.312 30.3233 404.626 29.9933 405.019 29.76C405.419 29.52 405.862 29.4 406.349 29.4C406.709 29.4 407.062 29.48 407.409 29.64C407.762 29.7933 408.042 30 408.249 30.26V27.6H409.399V35H408.249V34.17C408.062 34.4367 407.802 34.6567 407.469 34.83C407.142 35.0033 406.766 35.09 406.339 35.09C405.859 35.09 405.419 34.97 405.019 34.73C404.626 34.4833 404.312 34.1433 404.079 33.71C403.852 33.27 403.739 32.7733 403.739 32.22ZM408.249 32.24C408.249 31.86 408.169 31.53 408.009 31.25C407.856 30.97 407.652 30.7567 407.399 30.61C407.146 30.4633 406.872 30.39 406.579 30.39C406.286 30.39 406.012 30.4633 405.759 30.61C405.506 30.75 405.299 30.96 405.139 31.24C404.986 31.5133 404.909 31.84 404.909 32.22C404.909 32.6 404.986 32.9333 405.139 33.22C405.299 33.5067 405.506 33.7267 405.759 33.88C406.019 34.0267 406.292 34.1 406.579 34.1C406.872 34.1 407.146 34.0267 407.399 33.88C407.652 33.7333 407.856 33.52 408.009 33.24C408.169 32.9533 408.249 32.62 408.249 32.24ZM414.824 30.42V33.47C414.824 33.6767 414.871 33.8267 414.964 33.92C415.064 34.0067 415.231 34.05 415.464 34.05H416.164V35H415.264C414.751 35 414.357 34.88 414.084 34.64C413.811 34.4 413.674 34.01 413.674 33.47V30.42H413.024V29.49H413.674V28.12H414.824V29.49H416.164V30.42H414.824ZM419.605 35.09C419.085 35.09 418.615 34.9733 418.195 34.74C417.775 34.5 417.445 34.1667 417.205 33.74C416.965 33.3067 416.845 32.8067 416.845 32.24C416.845 31.68 416.968 31.1833 417.215 30.75C417.462 30.3167 417.798 29.9833 418.225 29.75C418.652 29.5167 419.128 29.4 419.655 29.4C420.182 29.4 420.658 29.5167 421.085 29.75C421.512 29.9833 421.848 30.3167 422.095 30.75C422.342 31.1833 422.465 31.68 422.465 32.24C422.465 32.8 422.338 33.2967 422.085 33.73C421.832 34.1633 421.485 34.5 421.045 34.74C420.612 34.9733 420.132 35.09 419.605 35.09ZM419.605 34.1C419.898 34.1 420.172 34.03 420.425 33.89C420.685 33.75 420.895 33.54 421.055 33.26C421.215 32.98 421.295 32.64 421.295 32.24C421.295 31.84 421.218 31.5033 421.065 31.23C420.912 30.95 420.708 30.74 420.455 30.6C420.202 30.46 419.928 30.39 419.635 30.39C419.342 30.39 419.068 30.46 418.815 30.6C418.568 30.74 418.372 30.95 418.225 31.23C418.078 31.5033 418.005 31.84 418.005 32.24C418.005 32.8333 418.155 33.2933 418.455 33.62C418.762 33.94 419.145 34.1 419.605 34.1ZM427.329 30.3C427.523 30.0467 427.786 29.8333 428.119 29.66C428.453 29.4867 428.829 29.4 429.249 29.4C429.729 29.4 430.166 29.52 430.559 29.76C430.959 29.9933 431.273 30.3233 431.499 30.75C431.726 31.1767 431.839 31.6667 431.839 32.22C431.839 32.7733 431.726 33.27 431.499 33.71C431.273 34.1433 430.959 34.4833 430.559 34.73C430.166 34.97 429.729 35.09 429.249 35.09C428.829 35.09 428.456 35.0067 428.129 34.84C427.803 34.6667 427.536 34.4533 427.329 34.2V37.62H426.189V29.49H427.329V30.3ZM430.679 32.22C430.679 31.84 430.599 31.5133 430.439 31.24C430.286 30.96 430.079 30.75 429.819 30.61C429.566 30.4633 429.293 30.39 428.999 30.39C428.713 30.39 428.439 30.4633 428.179 30.61C427.926 30.7567 427.719 30.97 427.559 31.25C427.406 31.53 427.329 31.86 427.329 32.24C427.329 32.62 427.406 32.9533 427.559 33.24C427.719 33.52 427.926 33.7333 428.179 33.88C428.439 34.0267 428.713 34.1 428.999 34.1C429.293 34.1 429.566 34.0267 429.819 33.88C430.079 33.7267 430.286 33.5067 430.439 33.22C430.599 32.9333 430.679 32.6 430.679 32.22ZM437.957 29.49V35H436.817V34.35C436.637 34.5767 436.4 34.7567 436.107 34.89C435.82 35.0167 435.513 35.08 435.187 35.08C434.753 35.08 434.363 34.99 434.017 34.81C433.677 34.63 433.407 34.3633 433.207 34.01C433.013 33.6567 432.917 33.23 432.917 32.73V29.49H434.047V32.56C434.047 33.0533 434.17 33.4333 434.417 33.7C434.663 33.96 435 34.09 435.427 34.09C435.853 34.09 436.19 33.96 436.437 33.7C436.69 33.4333 436.817 33.0533 436.817 32.56V29.49H437.957ZM440.791 30.42V33.47C440.791 33.6767 440.838 33.8267 440.931 33.92C441.031 34.0067 441.198 34.05 441.431 34.05H442.131V35H441.231C440.718 35 440.324 34.88 440.051 34.64C439.778 34.4 439.641 34.01 439.641 33.47V30.42H438.991V29.49H439.641V28.12H440.791V29.49H442.131V30.42H440.791ZM293.045 44.4C293.478 44.4 293.865 44.49 294.205 44.67C294.552 44.85 294.822 45.1167 295.015 45.47C295.215 45.8233 295.315 46.25 295.315 46.75V50H294.185V46.92C294.185 46.4267 294.062 46.05 293.815 45.79C293.568 45.5233 293.232 45.39 292.805 45.39C292.378 45.39 292.038 45.5233 291.785 45.79C291.538 46.05 291.415 46.4267 291.415 46.92V50H290.285V46.92C290.285 46.4267 290.162 46.05 289.915 45.79C289.668 45.5233 289.332 45.39 288.905 45.39C288.478 45.39 288.138 45.5233 287.885 45.79C287.638 46.05 287.515 46.4267 287.515 46.92V50H286.375V44.49H287.515V45.12C287.702 44.8933 287.938 44.7167 288.225 44.59C288.512 44.4633 288.818 44.4 289.145 44.4C289.585 44.4 289.978 44.4933 290.325 44.68C290.672 44.8667 290.938 45.1367 291.125 45.49C291.292 45.1567 291.552 44.8933 291.905 44.7C292.258 44.5 292.638 44.4 293.045 44.4ZM301.816 47.11C301.816 47.3167 301.802 47.5033 301.776 47.67H297.566C297.599 48.11 297.762 48.4633 298.056 48.73C298.349 48.9967 298.709 49.13 299.136 49.13C299.749 49.13 300.182 48.8733 300.436 48.36H301.666C301.499 48.8667 301.196 49.2833 300.756 49.61C300.322 49.93 299.782 50.09 299.136 50.09C298.609 50.09 298.136 49.9733 297.716 49.74C297.302 49.5 296.976 49.1667 296.736 48.74C296.502 48.3067 296.386 47.8067 296.386 47.24C296.386 46.6733 296.499 46.1767 296.726 45.75C296.959 45.3167 297.282 44.9833 297.696 44.75C298.116 44.5167 298.596 44.4 299.136 44.4C299.656 44.4 300.119 44.5133 300.526 44.74C300.932 44.9667 301.249 45.2867 301.476 45.7C301.702 46.1067 301.816 46.5767 301.816 47.11ZM300.626 46.75C300.619 46.33 300.469 45.9933 300.176 45.74C299.882 45.4867 299.519 45.36 299.086 45.36C298.692 45.36 298.356 45.4867 298.076 45.74C297.796 45.9867 297.629 46.3233 297.576 46.75H300.626ZM306.115 43.76C305.908 43.76 305.735 43.69 305.595 43.55C305.455 43.41 305.385 43.2367 305.385 43.03C305.385 42.8233 305.455 42.65 305.595 42.51C305.735 42.37 305.908 42.3 306.115 42.3C306.315 42.3 306.485 42.37 306.625 42.51C306.765 42.65 306.835 42.8233 306.835 43.03C306.835 43.2367 306.765 43.41 306.625 43.55C306.485 43.69 306.315 43.76 306.115 43.76ZM306.675 44.49V50H305.535V44.49H306.675ZM310.952 44.4C311.385 44.4 311.772 44.49 312.112 44.67C312.459 44.85 312.729 45.1167 312.922 45.47C313.115 45.8233 313.212 46.25 313.212 46.75V50H312.082V46.92C312.082 46.4267 311.959 46.05 311.712 45.79C311.465 45.5233 311.129 45.39 310.702 45.39C310.275 45.39 309.935 45.5233 309.682 45.79C309.435 46.05 309.312 46.4267 309.312 46.92V50H308.172V44.49H309.312V45.12C309.499 44.8933 309.735 44.7167 310.022 44.59C310.315 44.4633 310.625 44.4 310.952 44.4ZM318.594 45.42V48.47C318.594 48.6767 318.64 48.8267 318.734 48.92C318.834 49.0067 319 49.05 319.234 49.05H319.934V50H319.034C318.52 50 318.127 49.88 317.854 49.64C317.58 49.4 317.444 49.01 317.444 48.47V45.42H316.794V44.49H317.444V43.12H318.594V44.49H319.934V45.42H318.594ZM323.374 50.09C322.854 50.09 322.384 49.9733 321.964 49.74C321.544 49.5 321.214 49.1667 320.974 48.74C320.734 48.3067 320.614 47.8067 320.614 47.24C320.614 46.68 320.738 46.1833 320.984 45.75C321.231 45.3167 321.568 44.9833 321.994 44.75C322.421 44.5167 322.898 44.4 323.424 44.4C323.951 44.4 324.428 44.5167 324.854 44.75C325.281 44.9833 325.618 45.3167 325.864 45.75C326.111 46.1833 326.234 46.68 326.234 47.24C326.234 47.8 326.108 48.2967 325.854 48.73C325.601 49.1633 325.254 49.5 324.814 49.74C324.381 49.9733 323.901 50.09 323.374 50.09ZM323.374 49.1C323.668 49.1 323.941 49.03 324.194 48.89C324.454 48.75 324.664 48.54 324.824 48.26C324.984 47.98 325.064 47.64 325.064 47.24C325.064 46.84 324.988 46.5033 324.834 46.23C324.681 45.95 324.478 45.74 324.224 45.6C323.971 45.46 323.698 45.39 323.404 45.39C323.111 45.39 322.838 45.46 322.584 45.6C322.338 45.74 322.141 45.95 321.994 46.23C321.848 46.5033 321.774 46.84 321.774 47.24C321.774 47.8333 321.924 48.2933 322.224 48.62C322.531 48.94 322.914 49.1 323.374 49.1ZM332.351 44.49V50H331.211V49.35C331.031 49.5767 330.795 49.7567 330.501 49.89C330.215 50.0167 329.908 50.08 329.581 50.08C329.148 50.08 328.758 49.99 328.411 49.81C328.071 49.63 327.801 49.3633 327.601 49.01C327.408 48.6567 327.311 48.23 327.311 47.73V44.49H328.441V47.56C328.441 48.0533 328.565 48.4333 328.811 48.7C329.058 48.96 329.395 49.09 329.821 49.09C330.248 49.09 330.585 48.96 330.831 48.7C331.085 48.4333 331.211 48.0533 331.211 47.56V44.49H332.351ZM333.475 47.24C333.475 46.6733 333.589 46.1767 333.815 45.75C334.049 45.3167 334.369 44.9833 334.775 44.75C335.182 44.5167 335.649 44.4 336.175 44.4C336.842 44.4 337.392 44.56 337.825 44.88C338.265 45.1933 338.562 45.6433 338.715 46.23H337.485C337.385 45.9567 337.225 45.7433 337.005 45.59C336.785 45.4367 336.509 45.36 336.175 45.36C335.709 45.36 335.335 45.5267 335.055 45.86C334.782 46.1867 334.645 46.6467 334.645 47.24C334.645 47.8333 334.782 48.2967 335.055 48.63C335.335 48.9633 335.709 49.13 336.175 49.13C336.835 49.13 337.272 48.84 337.485 48.26H338.715C338.555 48.82 338.255 49.2667 337.815 49.6C337.375 49.9267 336.829 50.09 336.175 50.09C335.649 50.09 335.182 49.9733 334.775 49.74C334.369 49.5 334.049 49.1667 333.815 48.74C333.589 48.3067 333.475 47.8067 333.475 47.24ZM342.702 44.4C343.122 44.4 343.495 44.49 343.822 44.67C344.155 44.85 344.415 45.1167 344.602 45.47C344.795 45.8233 344.892 46.25 344.892 46.75V50H343.762V46.92C343.762 46.4267 343.638 46.05 343.392 45.79C343.145 45.5233 342.808 45.39 342.382 45.39C341.955 45.39 341.615 45.5233 341.362 45.79C341.115 46.05 340.992 46.4267 340.992 46.92V50H339.852V42.6H340.992V45.13C341.185 44.8967 341.428 44.7167 341.722 44.59C342.022 44.4633 342.348 44.4 342.702 44.4ZM356.343 44.49L354.633 50H353.433L352.323 45.93L351.213 50H350.013L348.293 44.49H349.453L350.603 48.92L351.773 44.49H352.963L354.083 48.9L355.223 44.49H356.343ZM357.775 43.76C357.569 43.76 357.395 43.69 357.255 43.55C357.115 43.41 357.045 43.2367 357.045 43.03C357.045 42.8233 357.115 42.65 357.255 42.51C357.395 42.37 357.569 42.3 357.775 42.3C357.975 42.3 358.145 42.37 358.285 42.51C358.425 42.65 358.495 42.8233 358.495 43.03C358.495 43.2367 358.425 43.41 358.285 43.55C358.145 43.69 357.975 43.76 357.775 43.76ZM358.335 44.49V50H357.195V44.49H358.335ZM361.162 45.42V48.47C361.162 48.6767 361.209 48.8267 361.302 48.92C361.402 49.0067 361.569 49.05 361.802 49.05H362.502V50H361.602C361.089 50 360.695 49.88 360.422 49.64C360.149 49.4 360.012 49.01 360.012 48.47V45.42H359.362V44.49H360.012V43.12H361.162V44.49H362.502V45.42H361.162ZM366.403 44.4C366.823 44.4 367.196 44.49 367.523 44.67C367.856 44.85 368.116 45.1167 368.303 45.47C368.496 45.8233 368.593 46.25 368.593 46.75V50H367.463V46.92C367.463 46.4267 367.339 46.05 367.093 45.79C366.846 45.5233 366.509 45.39 366.083 45.39C365.656 45.39 365.316 45.5233 365.063 45.79C364.816 46.05 364.693 46.4267 364.693 46.92V50H363.553V42.6H364.693V45.13C364.886 44.8967 365.129 44.7167 365.423 44.59C365.723 44.4633 366.049 44.4 366.403 44.4ZM377.605 44.49L374.225 52.59H373.045L374.165 49.91L371.995 44.49H373.265L374.815 48.69L376.425 44.49H377.605ZM380.855 50.09C380.335 50.09 379.865 49.9733 379.445 49.74C379.025 49.5 378.695 49.1667 378.455 48.74C378.215 48.3067 378.095 47.8067 378.095 47.24C378.095 46.68 378.218 46.1833 378.465 45.75C378.712 45.3167 379.048 44.9833 379.475 44.75C379.902 44.5167 380.378 44.4 380.905 44.4C381.432 44.4 381.908 44.5167 382.335 44.75C382.762 44.9833 383.098 45.3167 383.345 45.75C383.592 46.1833 383.715 46.68 383.715 47.24C383.715 47.8 383.588 48.2967 383.335 48.73C383.082 49.1633 382.735 49.5 382.295 49.74C381.862 49.9733 381.382 50.09 380.855 50.09ZM380.855 49.1C381.148 49.1 381.422 49.03 381.675 48.89C381.935 48.75 382.145 48.54 382.305 48.26C382.465 47.98 382.545 47.64 382.545 47.24C382.545 46.84 382.468 46.5033 382.315 46.23C382.162 45.95 381.958 45.74 381.705 45.6C381.452 45.46 381.178 45.39 380.885 45.39C380.592 45.39 380.318 45.46 380.065 45.6C379.818 45.74 379.622 45.95 379.475 46.23C379.328 46.5033 379.255 46.84 379.255 47.24C379.255 47.8333 379.405 48.2933 379.705 48.62C380.012 48.94 380.395 49.1 380.855 49.1ZM389.832 44.49V50H388.692V49.35C388.512 49.5767 388.275 49.7567 387.982 49.89C387.695 50.0167 387.388 50.08 387.062 50.08C386.628 50.08 386.238 49.99 385.892 49.81C385.552 49.63 385.282 49.3633 385.082 49.01C384.888 48.6567 384.792 48.23 384.792 47.73V44.49H385.922V47.56C385.922 48.0533 386.045 48.4333 386.292 48.7C386.538 48.96 386.875 49.09 387.302 49.09C387.728 49.09 388.065 48.96 388.312 48.7C388.565 48.4333 388.692 48.0533 388.692 47.56V44.49H389.832ZM392.476 45.29C392.643 45.01 392.863 44.7933 393.136 44.64C393.416 44.48 393.746 44.4 394.126 44.4V45.58H393.836C393.389 45.58 393.049 45.6933 392.816 45.92C392.589 46.1467 392.476 46.54 392.476 47.1V50H391.336V44.49H392.476V45.29ZM397.391 47.22C397.391 46.6667 397.505 46.1767 397.731 45.75C397.965 45.3233 398.278 44.9933 398.671 44.76C399.071 44.52 399.511 44.4 399.991 44.4C400.425 44.4 400.801 44.4867 401.121 44.66C401.448 44.8267 401.708 45.0367 401.901 45.29V44.49H403.051V50H401.901V49.18C401.708 49.44 401.445 49.6567 401.111 49.83C400.778 50.0033 400.398 50.09 399.971 50.09C399.498 50.09 399.065 49.97 398.671 49.73C398.278 49.4833 397.965 49.1433 397.731 48.71C397.505 48.27 397.391 47.7733 397.391 47.22ZM401.901 47.24C401.901 46.86 401.821 46.53 401.661 46.25C401.508 45.97 401.305 45.7567 401.051 45.61C400.798 45.4633 400.525 45.39 400.231 45.39C399.938 45.39 399.665 45.4633 399.411 45.61C399.158 45.75 398.951 45.96 398.791 46.24C398.638 46.5133 398.561 46.84 398.561 47.22C398.561 47.6 398.638 47.9333 398.791 48.22C398.951 48.5067 399.158 48.7267 399.411 48.88C399.671 49.0267 399.945 49.1 400.231 49.1C400.525 49.1 400.798 49.0267 401.051 48.88C401.305 48.7333 401.508 48.52 401.661 48.24C401.821 47.9533 401.901 47.62 401.901 47.24ZM406.769 44.4C407.195 44.4 407.572 44.4867 407.899 44.66C408.232 44.8267 408.492 45.0367 408.679 45.29V44.49H409.829V50.09C409.829 50.5967 409.722 51.0467 409.509 51.44C409.295 51.84 408.985 52.1533 408.579 52.38C408.179 52.6067 407.699 52.72 407.139 52.72C406.392 52.72 405.772 52.5433 405.279 52.19C404.785 51.8433 404.505 51.37 404.439 50.77H405.569C405.655 51.0567 405.839 51.2867 406.119 51.46C406.405 51.64 406.745 51.73 407.139 51.73C407.599 51.73 407.969 51.59 408.249 51.31C408.535 51.03 408.679 50.6233 408.679 50.09V49.17C408.485 49.43 408.222 49.65 407.889 49.83C407.562 50.0033 407.189 50.09 406.769 50.09C406.289 50.09 405.849 49.97 405.449 49.73C405.055 49.4833 404.742 49.1433 404.509 48.71C404.282 48.27 404.169 47.7733 404.169 47.22C404.169 46.6667 404.282 46.1767 404.509 45.75C404.742 45.3233 405.055 44.9933 405.449 44.76C405.849 44.52 406.289 44.4 406.769 44.4ZM408.679 47.24C408.679 46.86 408.599 46.53 408.439 46.25C408.285 45.97 408.082 45.7567 407.829 45.61C407.575 45.4633 407.302 45.39 407.009 45.39C406.715 45.39 406.442 45.4633 406.189 45.61C405.935 45.75 405.729 45.96 405.569 46.24C405.415 46.5133 405.339 46.84 405.339 47.22C405.339 47.6 405.415 47.9333 405.569 48.22C405.729 48.5067 405.935 48.7267 406.189 48.88C406.449 49.0267 406.722 49.1 407.009 49.1C407.302 49.1 407.575 49.0267 407.829 48.88C408.082 48.7333 408.285 48.52 408.439 48.24C408.599 47.9533 408.679 47.62 408.679 47.24ZM416.376 47.11C416.376 47.3167 416.363 47.5033 416.336 47.67H412.126C412.16 48.11 412.323 48.4633 412.616 48.73C412.91 48.9967 413.27 49.13 413.696 49.13C414.31 49.13 414.743 48.8733 414.996 48.36H416.226C416.06 48.8667 415.756 49.2833 415.316 49.61C414.883 49.93 414.343 50.09 413.696 50.09C413.17 50.09 412.696 49.9733 412.276 49.74C411.863 49.5 411.536 49.1667 411.296 48.74C411.063 48.3067 410.946 47.8067 410.946 47.24C410.946 46.6733 411.06 46.1767 411.286 45.75C411.52 45.3167 411.843 44.9833 412.256 44.75C412.676 44.5167 413.156 44.4 413.696 44.4C414.216 44.4 414.68 44.5133 415.086 44.74C415.493 44.9667 415.81 45.2867 416.036 45.7C416.263 46.1067 416.376 46.5767 416.376 47.11ZM415.186 46.75C415.18 46.33 415.03 45.9933 414.736 45.74C414.443 45.4867 414.08 45.36 413.646 45.36C413.253 45.36 412.916 45.4867 412.636 45.74C412.356 45.9867 412.19 46.3233 412.136 46.75H415.186ZM420.278 44.4C420.711 44.4 421.098 44.49 421.438 44.67C421.785 44.85 422.055 45.1167 422.248 45.47C422.441 45.8233 422.538 46.25 422.538 46.75V50H421.408V46.92C421.408 46.4267 421.285 46.05 421.038 45.79C420.791 45.5233 420.455 45.39 420.028 45.39C419.601 45.39 419.261 45.5233 419.008 45.79C418.761 46.05 418.638 46.4267 418.638 46.92V50H417.498V44.49H418.638V45.12C418.825 44.8933 419.061 44.7167 419.348 44.59C419.641 44.4633 419.951 44.4 420.278 44.4ZM425.322 45.42V48.47C425.322 48.6767 425.369 48.8267 425.462 48.92C425.562 49.0067 425.729 49.05 425.962 49.05H426.662V50H425.762C425.249 50 424.856 49.88 424.582 49.64C424.309 49.4 424.172 49.01 424.172 48.47V45.42H423.522V44.49H424.172V43.12H425.322V44.49H426.662V45.42H425.322ZM428.173 50.07C427.966 50.07 427.793 50 427.653 49.86C427.513 49.72 427.443 49.5467 427.443 49.34C427.443 49.1333 427.513 48.96 427.653 48.82C427.793 48.68 427.966 48.61 428.173 48.61C428.373 48.61 428.543 48.68 428.683 48.82C428.823 48.96 428.893 49.1333 428.893 49.34C428.893 49.5467 428.823 49.72 428.683 49.86C428.543 50 428.373 50.07 428.173 50.07Z" fill="white"/>
</svg>
