<svg width="286" height="193" viewBox="0 0 286 193" fill="none" xmlns="http://www.w3.org/2000/svg">
<g opacity="0.34">
<g opacity="0.34">
<g opacity="0.6">
<path opacity="0.6" d="M248.48 123.847C250.467 133.765 250.136 142.883 247.486 152.613C244.173 164.787 236.72 176.115 226.036 183.072C222.309 185.516 218.293 187.35 214.11 188.666C213.448 189.888 212.702 191.11 211.916 192.238H247.61C256.679 179.97 261.896 164.223 262.725 148.242C262.932 143.917 262.849 139.546 262.435 135.269C260.778 118.582 254.236 102.695 244.463 90.0504C244.339 90.9435 244.215 91.8366 244.09 92.7297C242.972 103.353 246.409 113.647 248.48 123.847Z" fill="#53D0F7"/>
</g>
<g opacity="0.41">
<path opacity="0.41" d="M137.915 189.794C135.803 186.503 134.189 182.32 131.952 178.983C127.19 180.064 122.511 181.662 117.749 183.072C108.018 185.892 97.9969 188.008 87.9759 188.149C76.8369 188.337 65.4494 185.892 55.7596 179.359C48.3474 174.376 41.8462 166.809 38.3264 157.784C39.3202 170.24 43.2955 182.414 50.0038 192.285H139.613C138.992 191.439 138.454 190.64 137.915 189.794Z" fill="#53D0F7"/>
</g>
<g opacity="0.41">
<path opacity="0.41" d="M152.038 18.5567C154.73 18.4627 157.67 18.2747 160.858 17.9926C175.683 16.7235 190.383 20.5779 204.628 25.8424C205.994 26.3594 207.361 26.9235 208.727 27.4875C202.599 19.8258 194.772 13.8562 186.159 10.4719C169.099 3.75029 148.436 6.42954 133.446 17.0055C139.616 17.0526 145.827 17.5696 152.038 18.5567Z" fill="#53D0F7"/>
</g>
<g opacity="0.35">
<path opacity="0.35" d="M55.3893 179.5C65.0791 185.845 76.4252 188.29 87.5642 188.196C97.5852 188.102 107.648 186.127 117.379 183.448C122.141 182.132 126.861 180.628 131.624 179.594C129.677 176.727 127.276 174.47 123.714 174C109.884 172.12 95.3491 178.607 81.6013 179.688C72.3671 180.44 62.5531 178.983 55.0581 172.731C50.2132 168.642 46.6934 162.813 44.2503 156.515C39.2398 143.447 39.1156 128.453 43.3393 115.057C46.1965 106.032 53.1532 99.1223 55.555 89.9094C57.584 82.2007 55.2237 74.1629 55.8862 66.4072C56.0105 64.8091 56.3003 63.2579 56.7144 61.7068C59.0748 53.434 70.5037 41.4949 77.5018 37.4995C94.2725 27.9106 111.789 23.2572 129.677 22.7871C119.532 20.8599 109.925 17.3816 92.906 13.2922C72.7398 8.30975 50.0062 25.1373 38.0803 44.7382C36.8795 46.7594 35.8028 48.8276 34.8918 50.9898C30.7509 60.7197 29.5915 71.9537 31.4963 82.4827C33.7324 94.8449 40.6891 104.387 38.2046 117.548C36.6724 125.586 36.2997 133.012 35.513 140.956C34.8918 147.161 35.9271 153.083 38.0389 158.489C41.5173 167.232 48.0185 174.611 55.3893 179.5Z" fill="#53D0F7"/>
</g>
<g opacity="0.47">
<path opacity="0.47" d="M160.857 17.9927C157.669 18.2747 154.77 18.4627 152.037 18.5567C161.23 20.0138 170.506 22.5521 179.74 25.9834L214.317 38.9096C230.59 44.9732 241.357 62.6469 240.322 82.0597C240.322 82.2007 240.322 82.2947 240.28 82.4357C239.618 93.6698 236.346 104.716 230.88 113.929C225.953 122.295 219.12 131.649 217.422 141.943C216.056 150.122 218.996 158.395 219.369 166.715C219.7 174.611 217.629 182.132 214.027 188.619C218.209 187.303 222.226 185.469 225.953 183.025C236.595 176.069 244.09 164.741 247.402 152.566C250.053 142.836 250.384 133.718 248.396 123.8C246.367 113.6 242.93 103.306 244.007 92.6827C244.09 91.7896 244.214 90.8965 244.38 90.0034C245.415 83.5168 247.692 77.2182 247.195 70.6846C246.823 65.7492 244.918 61.0957 242.558 56.9593C234.773 43.093 222.267 33.3631 208.644 27.4875C207.277 26.9235 205.911 26.3594 204.544 25.8424C190.382 20.5779 175.682 16.7235 160.857 17.9927Z" fill="#53D0F7"/>
</g>
<g opacity="0.7">
<path opacity="0.7" d="M56.5892 57.6644C56.1337 59.2625 55.8853 60.9077 55.7611 62.5528C55.1399 70.5906 57.5002 78.8634 55.5126 86.8071C53.1109 96.349 46.1956 103.447 43.3797 112.801C39.1974 126.62 39.4045 142.084 44.4564 155.575C46.8995 162.061 50.4607 168.078 55.3056 172.261C62.8006 178.701 72.6146 180.111 81.8488 179.265C95.5966 178.043 110.09 171.274 123.92 173.154C127.482 173.624 129.925 175.927 131.871 178.889C134.107 182.226 135.722 186.409 137.834 189.7C138.372 190.546 138.952 191.392 139.532 192.191H211.832C212.619 191.016 213.364 189.841 214.027 188.619C217.629 182.132 219.7 174.611 219.368 166.715C218.996 158.395 216.056 150.122 217.422 141.943C219.12 131.696 225.952 122.295 230.88 113.929C236.346 104.669 239.617 93.6698 240.28 82.4357C240.28 82.2947 240.28 82.2007 240.321 82.0597C241.315 62.6468 230.549 44.9732 214.317 38.9096L179.74 25.9834C170.464 22.5051 161.23 20.0138 152.037 18.5567C145.826 17.5696 139.615 17.0056 133.445 17.0056C132.078 17.0056 130.753 17.0056 129.386 17.0526C111.539 17.6636 94.0231 22.5521 77.2938 32.517C70.2957 36.7474 58.9496 49.1566 56.5892 57.6644Z" fill="#53D0F7"/>
</g>
<g opacity="0.35">
<path opacity="0.35" d="M120.483 13.2452C123.593 13.2452 126.115 10.3831 126.115 6.85258C126.115 3.32205 123.593 0.459991 120.483 0.459991C117.373 0.459991 114.851 3.32205 114.851 6.85258C114.851 10.3831 117.373 13.2452 120.483 13.2452Z" fill="#53D0F7"/>
</g>
<g opacity="0.35">
<path opacity="0.35" d="M272.539 97.1951C279.56 97.1951 285.251 90.7344 285.251 82.7647C285.251 74.7951 279.56 68.3344 272.539 68.3344C265.518 68.3344 259.826 74.7951 259.826 82.7647C259.826 90.7344 265.518 97.1951 272.539 97.1951Z" fill="#53D0F7"/>
</g>
<g opacity="0.35">
<path opacity="0.35" d="M26.0252 121.501C31.4258 116.408 32.1668 107.31 27.6804 101.18C23.194 95.0499 15.1791 94.2087 9.77853 99.3014C4.378 104.394 3.63695 113.492 8.12335 119.622C12.6098 125.752 20.6247 126.594 26.0252 121.501Z" fill="#53D0F7"/>
</g>
<g opacity="0.35">
<path opacity="0.35" d="M219.741 24.6673C221.867 24.6673 223.592 22.7101 223.592 20.2959C223.592 17.8816 221.867 15.9244 219.741 15.9244C217.614 15.9244 215.89 17.8816 215.89 20.2959C215.89 22.7101 217.614 24.6673 219.741 24.6673Z" fill="#53D0F7"/>
</g>
</g>
</g>
</svg>
