<svg width="15" height="15" viewBox="0 0 15 15" fill="none" xmlns="http://www.w3.org/2000/svg">
<path d="M8.43768 8.4272C8.43768 8.60944 8.58545 8.75717 8.76766 8.75717C8.94987 8.75717 9.09764 8.60944 9.09764 8.4272C9.09764 7.65937 8.55311 7.01648 7.82997 6.864V6.57216C7.82997 6.38992 7.6822 6.24219 7.49999 6.24219C7.31778 6.24219 7.17001 6.38992 7.17001 6.57216V6.864C6.44687 7.01648 5.90234 7.65937 5.90234 8.4272C5.90234 9.19502 6.44687 9.83791 7.17001 9.9904V11.8401C6.81532 11.7063 6.5623 11.3635 6.5623 10.9626C6.5623 10.7803 6.41453 10.6326 6.23232 10.6326C6.05011 10.6326 5.90234 10.7803 5.90234 10.9626C5.90234 11.7304 6.44687 12.3733 7.17001 12.5258V12.8176C7.17001 12.9999 7.31778 13.1476 7.49999 13.1476C7.6822 13.1476 7.82997 12.9999 7.82997 12.8176V12.5258C8.55311 12.3733 9.09764 11.7304 9.09764 10.9626C9.09764 10.1948 8.55311 9.55186 7.82997 9.39937V7.54962C8.18466 7.6834 8.43768 8.02624 8.43768 8.4272ZM6.5623 8.4272C6.5623 8.02624 6.81532 7.68343 7.17001 7.54962V9.3048C6.81532 9.17096 6.5623 8.82812 6.5623 8.4272ZM8.43768 10.9625C8.43768 11.3635 8.18466 11.7063 7.82997 11.8401V10.0849C8.18466 10.2188 8.43768 10.5616 8.43768 10.9625Z" fill="#006AFF"/>
<path d="M8.3225 3.67133L10.0135 0.742448C10.1019 0.589306 10.1019 0.400625 10.0135 0.247483C9.92503 0.0943405 9.76166 0 9.58483 0H5.41507C5.23823 0 5.07483 0.0943405 4.98643 0.247483C4.89803 0.400625 4.89799 0.589306 4.98643 0.742448L6.67743 3.67133C3.95934 4.07066 1.86597 6.41786 1.86597 9.2451V13.0453C1.86597 14.1231 2.74285 15 3.82069 15H11.1792C12.2571 15 13.1339 14.1231 13.1339 13.0453V9.2451C13.1339 6.41786 11.0406 4.07066 8.3225 3.67133ZM8.72751 0.989931L7.49996 3.11614L6.27238 0.989931H8.72751ZM12.144 13.0453C12.144 13.5773 11.7112 14.0101 11.1792 14.0101H3.82069C3.2887 14.0101 2.8559 13.5773 2.8559 13.0453V9.2451C2.8559 6.68435 4.93924 4.60104 7.49996 4.60104C10.0607 4.60104 12.144 6.68435 12.144 9.2451V13.0453Z" fill="#006AFF"/>
</svg>
