<svg width="542" height="493" viewBox="0 0 542 493" fill="none" xmlns="http://www.w3.org/2000/svg">
<g opacity="0.85">
<g opacity="0.85">
<g opacity="0.41">
<g opacity="0.41">
<g opacity="0.41">
<path opacity="0.41" d="M541.765 316.361C542.236 307.642 542.001 298.923 541.058 290.321C536.463 249.789 515.608 211.496 484.973 184.396C474.015 174.734 461.643 166.133 454.456 153.408C442.438 131.964 443.38 107.338 428.534 86.2472C413.688 65.0386 391.891 48.543 367.501 40.0595C294.449 14.8448 192.294 55.966 201.484 143.864C201.484 144.218 201.602 144.689 201.602 145.16C202.78 163.423 188.523 178.74 170.26 179.212C102.982 180.861 45.0115 232.705 32.6398 298.451C24.6276 340.751 37.7063 387.056 68.6945 416.984C91.7883 439.253 122.777 451.625 153.765 459.991C215.859 476.84 281.252 480.374 345.349 474.012C405.323 468.003 468.595 450.682 507.36 404.612C527.979 379.987 539.88 348.527 541.765 316.361Z" fill="#BFDDE8"/>
</g>
</g>
</g>
<g opacity="0.31">
<path opacity="0.31" d="M233.415 33.8154C242.07 33.8154 249.086 26.7993 249.086 18.1446C249.086 9.48982 242.07 2.47375 233.415 2.47375C224.76 2.47375 217.744 9.48982 217.744 18.1446C217.744 26.7993 224.76 33.8154 233.415 33.8154Z" fill="#BFDDE8"/>
</g>
<g opacity="0.31">
<path opacity="0.31" d="M445.03 16.7303C449.52 16.7303 453.16 13.0904 453.16 8.60032C453.16 4.11025 449.52 0.470337 445.03 0.470337C440.54 0.470337 436.9 4.11025 436.9 8.60032C436.9 13.0904 440.54 16.7303 445.03 16.7303Z" fill="#BFDDE8"/>
</g>
<g opacity="0.31">
<path opacity="0.31" d="M159.773 64.0964C165.76 64.0964 170.613 59.2432 170.613 53.2565C170.613 47.2697 165.76 42.4165 159.773 42.4165C153.786 42.4165 148.933 47.2697 148.933 53.2565C148.933 59.2432 153.786 64.0964 159.773 64.0964Z" fill="#BFDDE8"/>
</g>
</g>
</g>
<g opacity="0.85">
<g opacity="0.85">
<g opacity="0.85">
<g opacity="0.47">
<path opacity="0.47" d="M4.24154 63.3899C-2.82801 49.7221 2.59198 32.873 16.2598 25.9213C29.9276 18.8517 56.3205 19.4409 63.2723 33.1087C70.224 46.7765 49.3688 58.4412 40.7675 71.1664C28.7493 88.9581 11.3111 77.0577 4.24154 63.3899Z" fill="#BFDDE8"/>
</g>
<g opacity="0.47">
<path opacity="0.47" d="M68.8104 488.976C57.3813 496.281 42.2996 493.1 34.8766 481.67C27.5714 470.241 25.6862 447.265 37.1153 439.842C48.5444 432.537 60.5626 449.975 72.5809 456.338C89.1943 465.293 80.2395 481.553 68.8104 488.976Z" fill="#BFDDE8"/>
</g>
</g>
<g opacity="0.85">
<g opacity="0.47">
<path opacity="0.47" d="M528.566 118.178C538.228 139.269 540.938 163.541 536.225 186.282C530.687 213.028 514.073 233.53 519.847 262.043C523.382 279.364 524.206 295.506 525.974 312.709C529.626 347.938 506.768 379.044 478.372 395.894C455.278 409.561 428.296 414.628 401.668 414.274C377.749 413.921 353.948 409.561 330.854 403.552C308.585 397.897 286.787 390.356 263.34 392.712C243.899 394.715 226.343 403.081 208.316 409.326C165.073 424.29 112.759 426.41 73.1694 403.67C47.8368 389.06 30.0452 365.259 22.1508 339.808C15.9061 319.425 15.0813 300.337 19.7943 279.482C24.6252 258.155 32.873 236.593 30.2808 214.324C28.5134 198.771 21.4439 183.807 22.74 168.254C23.5647 157.885 28.1599 148.224 33.6978 139.387C54.0816 107.338 88.2511 85.894 124.188 74.1114C158.122 63.0358 192.998 54.9058 228.346 57.6158C301.28 63.1536 316.244 51.6067 390.828 35.5824C439.018 25.3315 492.865 61.9753 521.025 104.51C523.853 108.87 526.327 113.465 528.566 118.178Z" fill="#BFDDE8"/>
</g>
<g opacity="0.85">
<g opacity="0.81">
<path opacity="0.81" d="M478.372 151.052C479.904 167.901 474.248 185.222 478.961 201.953C484.617 221.865 501.112 236.829 507.828 256.506C517.726 285.491 517.254 317.893 505.236 346.172C499.463 359.721 490.979 372.447 479.432 381.166C461.641 394.598 438.193 397.544 416.278 395.894C383.522 393.302 348.999 379.163 316.126 383.051C297.981 385.172 292.443 404.849 283.017 417.81C272.412 432.42 257.92 443.967 242.013 451.626C212.557 465.765 177.327 467.061 147.281 454.336C115.233 440.668 87.1903 407.323 89.0755 369.619C89.9003 352.181 96.9699 334.86 93.6707 317.658C89.6647 296.096 73.4047 276.536 61.6221 258.98C48.6613 239.657 40.767 216.563 39.2352 192.998C39.2352 192.762 39.2352 192.409 39.2352 192.173C36.8787 151.523 62.4469 114.408 101.212 101.683L183.572 74.5831C266.875 46.8941 350.295 47.8367 427.118 88.1331C443.731 96.8522 470.831 122.892 476.369 140.801C477.429 144.1 478.018 147.517 478.372 151.052Z" fill="#BFDDE8"/>
</g>
</g>
</g>
</g>
</g>
<path opacity="0.58" d="M528.566 429.947C531.494 429.947 533.868 427.573 533.868 424.645C533.868 421.716 531.494 419.343 528.566 419.343C525.638 419.343 523.264 421.716 523.264 424.645C523.264 427.573 525.638 429.947 528.566 429.947Z" fill="#407BFF"/>
<path opacity="0.58" d="M353.478 11.7837C356.602 11.7837 359.134 9.25157 359.134 6.12805C359.134 3.00453 356.602 0.472412 353.478 0.472412C350.355 0.472412 347.823 3.00453 347.823 6.12805C347.823 9.25157 350.355 11.7837 353.478 11.7837Z" fill="#3D85FD"/>
<path opacity="0.58" d="M101.802 491.804C104.73 491.804 107.104 489.43 107.104 486.502C107.104 483.574 104.73 481.2 101.802 481.2C98.8734 481.2 96.4995 483.574 96.4995 486.502C96.4995 489.43 98.8734 491.804 101.802 491.804Z" fill="#407BFF"/>
<path opacity="0.58" d="M426.647 491.686C428.924 491.686 430.771 489.839 430.771 487.562C430.771 485.284 428.924 483.438 426.647 483.438C424.369 483.438 422.523 485.284 422.523 487.562C422.523 489.839 424.369 491.686 426.647 491.686Z" fill="#407BFF"/>
<path opacity="0.58" d="M93.7887 46.5409C96.0663 46.5409 97.9126 44.6946 97.9126 42.417C97.9126 40.1394 96.0663 38.2931 93.7887 38.2931C91.5111 38.2931 89.6648 40.1394 89.6648 42.417C89.6648 44.6946 91.5111 46.5409 93.7887 46.5409Z" fill="#407BFF"/>
<path opacity="0.58" d="M60.9158 89.6653C61.8919 89.6653 62.6832 88.874 62.6832 87.8979C62.6832 86.9218 61.8919 86.1305 60.9158 86.1305C59.9397 86.1305 59.1484 86.9218 59.1484 87.8979C59.1484 88.874 59.9397 89.6653 60.9158 89.6653Z" fill="#3D85FD"/>
<path opacity="0.58" d="M135.854 4.94868C137.221 4.94868 138.329 3.84088 138.329 2.47434C138.329 1.1078 137.221 0 135.854 0C134.488 0 133.38 1.1078 133.38 2.47434C133.38 3.84088 134.488 4.94868 135.854 4.94868Z" fill="#3D85FD"/>
<path opacity="0.58" d="M538.464 234.944C539.83 234.944 540.938 233.836 540.938 232.47C540.938 231.103 539.83 229.995 538.464 229.995C537.097 229.995 535.99 231.103 535.99 232.47C535.99 233.836 537.097 234.944 538.464 234.944Z" fill="#407BFF"/>
<path opacity="0.58" d="M514.781 82.5965C515.952 82.5965 516.902 81.6469 516.902 80.4756C516.902 79.3043 515.952 78.3547 514.781 78.3547C513.61 78.3547 512.66 79.3043 512.66 80.4756C512.66 81.6469 513.61 82.5965 514.781 82.5965Z" fill="#407BFF"/>
<path opacity="0.58" d="M486.149 33.1087C490.639 33.1087 494.279 29.4688 494.279 24.9787C494.279 20.4887 490.639 16.8488 486.149 16.8488C481.659 16.8488 478.019 20.4887 478.019 24.9787C478.019 29.4688 481.659 33.1087 486.149 33.1087Z" fill="#407BFF"/>
<path opacity="0.47" d="M6.48042 280.189C10.0595 280.189 12.9608 277.287 12.9608 273.708C12.9608 270.129 10.0595 267.228 6.48042 267.228C2.90138 267.228 0 270.129 0 273.708C0 277.287 2.90138 280.189 6.48042 280.189Z" fill="#BFDDE8"/>
<g opacity="0.86">
<g opacity="0.86">
<g opacity="0.44">
<path opacity="0.44" d="M274.769 406.146C193.705 406.146 127.958 340.399 127.958 259.335C127.958 178.27 193.705 112.524 274.769 112.524C355.833 112.524 421.58 178.27 421.58 259.335C421.58 340.399 355.951 406.146 274.769 406.146Z" fill="#F2F9FF"/>
</g>
<g opacity="0.86">
<path opacity="0.86" d="M274.769 406.146C193.705 406.146 127.958 340.399 127.958 259.335C127.958 178.27 193.705 112.524 274.769 112.524C355.833 112.524 421.58 178.27 421.58 259.335C421.58 340.399 355.951 406.146 274.769 406.146Z" fill="#F2F9FF"/>
</g>
<path opacity="0.86" d="M135.853 179.803C135.853 179.803 150.935 145.162 194.295 121.361" stroke="#F2F9FF" stroke-width="3" stroke-miterlimit="10" stroke-linecap="round" stroke-linejoin="round"/>
<path opacity="0.86" d="M321.899 410.152C321.899 410.152 386.821 392.832 410.622 339.81" stroke="#F2F9FF" stroke-width="3" stroke-miterlimit="10" stroke-linecap="round" stroke-linejoin="round"/>
<g opacity="0.86">
<path opacity="0.86" d="M359.134 128.431C359.134 128.431 393.774 143.512 417.575 186.872" stroke="#F2F9FF" stroke-width="3" stroke-miterlimit="10" stroke-linecap="round" stroke-linejoin="round"/>
</g>
<g opacity="0.86">
<path opacity="0.86" d="M128.783 314.478C128.783 314.478 146.104 379.4 199.125 403.2" stroke="#F2F9FF" stroke-width="3" stroke-miterlimit="10" stroke-linecap="round" stroke-linejoin="round"/>
</g>
</g>
</g>
<path d="M259.569 389.18L263.457 390.359C268.76 392.008 274.297 389.063 275.947 383.76L363.374 103.689C365.023 98.3865 362.078 92.8487 356.775 91.1991L352.887 90.0209C347.585 88.3713 342.047 91.3169 340.398 96.6191L252.971 376.691C251.321 381.875 254.267 387.531 259.569 389.18Z" fill="#233863"/>
<path d="M266.404 392.598C265.226 392.598 264.047 392.362 262.869 392.009L258.981 390.831C256.035 389.888 253.561 387.885 252.029 385.057C250.615 382.229 250.262 379.048 251.204 376.102L338.631 96.1484C339.574 93.2028 341.577 90.7284 344.404 89.1967C347.232 87.7828 350.414 87.4293 353.359 88.3719L357.247 89.5502C363.492 91.4354 366.909 98.0336 365.024 104.278L277.597 384.35C276.655 387.296 274.652 389.77 271.824 391.302C270.056 392.127 268.289 392.598 266.404 392.598Z" fill="#233863"/>
<path d="M410.034 454.691L280.543 414.277C266.522 409.918 258.746 395.072 263.105 381.05L349.825 103.099C354.185 89.078 369.031 81.3015 383.052 85.6611L512.542 126.075C526.564 130.435 534.34 145.281 529.981 159.302L443.261 437.253C438.901 451.157 424.055 459.051 410.034 454.691Z" fill="#407BFF"/>
<path d="M417.929 457.637C415.101 457.637 412.273 457.166 409.563 456.341L280.072 415.927C272.885 413.688 266.994 408.739 263.459 402.023C259.924 395.307 259.217 387.649 261.456 380.461L348.176 102.51C352.771 87.6642 368.677 79.2985 383.523 84.0116L513.014 124.426C527.86 129.021 536.226 144.928 531.513 159.774L444.793 437.725C441.14 449.861 429.947 457.637 417.929 457.637ZM410.623 452.924C416.868 454.927 423.584 454.338 429.475 451.275C435.367 448.211 439.608 443.027 441.612 436.782L528.331 158.831C532.337 145.87 525.15 131.967 512.071 127.843L382.581 87.4285C369.62 83.4225 355.717 90.6098 351.593 103.688L264.873 381.522C262.87 387.766 263.459 394.482 266.522 400.374C269.586 406.265 274.77 410.507 281.015 412.51L410.623 452.924Z" fill="#233863"/>
<path d="M514.328 159.053L363.16 111.863L328.575 222.652L479.743 269.843L514.328 159.053Z" fill="#F5F5F5"/>
<path d="M479.671 271.472C479.553 271.472 479.317 271.472 479.2 271.355L328.029 224.224C327.558 224.106 327.204 223.753 326.969 223.4C326.733 222.928 326.733 222.457 326.851 222.103L361.374 111.347C361.492 110.876 361.845 110.522 362.199 110.287C362.67 110.051 363.141 110.051 363.495 110.169L514.665 157.299C515.136 157.417 515.49 157.771 515.726 158.124C515.961 158.595 515.961 159.067 515.843 159.42L481.32 270.176C481.085 271.001 480.378 271.472 479.671 271.472ZM330.739 221.396L478.493 267.466L512.073 160.127L364.319 114.057L330.739 221.396Z" fill="#233863"/>
<path d="M496.046 138.33C495.929 138.33 495.811 138.33 495.693 138.33L390.239 105.338C389.65 105.103 389.296 104.514 389.414 103.807C389.65 103.217 390.239 102.864 390.946 102.982L496.4 135.973C496.989 136.209 497.343 136.798 497.225 137.505C496.989 137.976 496.518 138.33 496.046 138.33Z" fill="#F5F5F5"/>
<path d="M390.121 141.393L366.555 134.088C365.848 133.852 365.377 133.028 365.613 132.321L367.027 127.961C367.262 127.254 368.087 126.783 368.794 127.018L392.359 134.324C393.066 134.559 393.538 135.384 393.302 136.091L391.888 140.451C391.652 141.275 390.828 141.629 390.121 141.393Z" fill="#F5F5F5"/>
<path d="M390.474 142.689C390.239 142.689 390.003 142.689 389.649 142.571L366.084 135.266C364.788 134.794 363.963 133.381 364.435 132.084L365.849 127.725C366.084 127.018 366.556 126.547 367.145 126.193C367.734 125.84 368.441 125.84 369.148 125.958L392.713 133.263C393.42 133.498 393.891 133.97 394.245 134.559C394.598 135.148 394.598 135.855 394.363 136.562L392.949 140.921C392.713 141.628 392.242 142.1 391.653 142.453C391.299 142.571 390.946 142.689 390.474 142.689ZM390.474 140.332C390.592 140.332 390.71 140.332 390.71 140.214L392.124 135.855C392.124 135.737 392.124 135.619 392.006 135.619L368.441 128.314C368.323 128.314 368.205 128.314 368.205 128.432L366.791 132.791C366.791 132.909 366.791 133.027 366.909 133.027L390.474 140.332Z" fill="#233863"/>
<path d="M424.998 152.35L401.433 145.045C400.726 144.809 400.255 143.984 400.49 143.277L401.904 138.918C402.14 138.211 402.965 137.739 403.672 137.975L427.237 145.28C427.944 145.516 428.415 146.341 428.179 147.048L426.765 151.407C426.53 152.114 425.823 152.586 424.998 152.35Z" fill="#F5F5F5"/>
<path d="M425.469 153.529C425.233 153.529 424.998 153.529 424.644 153.411L401.079 146.106C399.783 145.634 398.958 144.221 399.429 142.924L400.843 138.565C401.315 137.269 402.729 136.444 404.025 136.915L427.59 144.221C428.297 144.456 428.768 144.928 429.121 145.517C429.475 146.106 429.475 146.813 429.357 147.52L427.943 151.879C427.708 152.586 427.236 153.057 426.647 153.411C426.294 153.411 425.822 153.529 425.469 153.529ZM425.351 151.172C425.469 151.172 425.587 151.172 425.587 151.054L427.001 146.695C427.001 146.577 427.001 146.459 426.883 146.459L403.318 139.154C403.2 139.154 403.082 139.154 403.082 139.272L401.668 143.631C401.668 143.749 401.668 143.867 401.786 143.867L425.351 151.172Z" fill="#233863"/>
<path d="M462.701 164.014L439.136 156.709C438.429 156.474 437.958 155.649 438.194 154.942L439.608 150.582C439.843 149.875 440.668 149.404 441.375 149.64L464.94 156.945C465.647 157.181 466.118 158.005 465.883 158.712L464.469 163.072C464.115 163.897 463.408 164.25 462.701 164.014Z" fill="#F5F5F5"/>
<path d="M463.055 165.311C462.82 165.311 462.584 165.311 462.348 165.193L438.783 157.888C437.487 157.417 436.662 156.003 437.133 154.707L438.547 150.347C438.783 149.64 439.254 149.169 439.843 148.815C440.433 148.462 441.14 148.462 441.847 148.58L465.412 155.885C466.708 156.356 467.533 157.77 467.061 159.066L465.647 163.426C465.176 164.604 464.116 165.311 463.055 165.311ZM463.055 162.954C463.173 162.954 463.291 162.954 463.291 162.837L464.705 158.477C464.705 158.359 464.705 158.241 464.587 158.241L441.022 150.936C440.904 150.936 440.786 150.936 440.786 151.054L439.372 155.296C439.372 155.414 439.372 155.531 439.49 155.531L463.055 162.954Z" fill="#233863"/>
<path d="M498.049 175.09L474.484 167.785C473.777 167.549 473.305 166.724 473.541 166.017L474.955 161.658C475.191 160.951 476.015 160.479 476.722 160.715L500.288 168.02C500.994 168.256 501.466 169.081 501.23 169.788L499.816 174.147C499.581 174.972 498.756 175.325 498.049 175.09Z" fill="#F5F5F5"/>
<path d="M498.521 176.386C498.286 176.386 498.05 176.386 497.697 176.268L474.131 168.963C473.424 168.727 472.953 168.256 472.6 167.667C472.246 167.078 472.246 166.371 472.482 165.664L473.896 161.304C474.367 160.008 475.781 159.184 477.077 159.655L500.642 166.96C501.938 167.431 502.763 168.845 502.292 170.141L500.878 174.501C500.642 175.208 500.171 175.679 499.582 176.033C499.228 176.268 498.875 176.386 498.521 176.386ZM498.404 174.03C498.521 174.03 498.639 174.03 498.639 173.912L500.053 169.552C500.053 169.434 500.053 169.317 499.935 169.317L476.37 162.011C476.252 162.011 476.134 162.011 476.134 162.129L474.721 166.489C474.721 166.607 474.721 166.724 474.838 166.724L498.404 174.03Z" fill="#233863"/>
<path d="M475.373 276.093L328.367 230.201L319.87 257.42L466.876 303.312L475.373 276.093Z" fill="#233863"/>
<path d="M466.944 305.052C466.708 305.052 466.591 305.052 466.473 304.934L319.426 258.982C318.484 258.747 318.012 257.686 318.248 256.744L326.731 229.526C326.849 229.055 327.203 228.701 327.556 228.465C328.028 228.23 328.499 228.23 328.852 228.348L475.899 274.3C476.842 274.535 477.313 275.596 477.077 276.538L468.594 303.756C468.476 304.227 468.122 304.581 467.769 304.817C467.533 305.052 467.18 305.052 466.944 305.052ZM322.136 256.272L465.766 301.164L473.189 277.363L329.559 232.472L322.136 256.272Z" fill="#233863"/>
<path d="M369.384 264.52C369.148 264.52 368.795 264.52 368.559 264.403L342.52 256.273C340.988 255.801 340.045 254.152 340.634 252.62L342.873 245.315C343.109 244.608 343.58 243.901 344.287 243.547C344.994 243.194 345.819 243.076 346.526 243.312L372.565 251.442C373.272 251.677 373.979 252.149 374.332 252.856C374.686 253.563 374.804 254.387 374.568 255.094L372.212 262.517C371.74 263.696 370.562 264.52 369.384 264.52ZM368.795 263.224C369.737 263.46 370.68 262.989 371.033 262.046L373.272 254.741C373.39 254.27 373.39 253.798 373.154 253.445C372.919 252.974 372.565 252.738 372.094 252.62L346.054 244.49C345.583 244.372 345.112 244.372 344.758 244.608C344.287 244.844 344.051 245.197 343.933 245.668L341.695 252.974C341.459 253.916 341.93 254.859 342.873 255.212L368.795 263.224Z" fill="#F5F5F5"/>
<path d="M409.681 277.128C409.327 277.128 409.091 277.128 408.856 277.01L382.816 268.88C382.109 268.644 381.402 268.173 381.049 267.466C380.695 266.759 380.578 265.934 380.813 265.227L383.052 257.922C383.288 257.215 383.759 256.508 384.466 256.155C385.173 255.801 385.998 255.683 386.705 255.919L412.744 264.049C413.451 264.285 414.158 264.756 414.511 265.463C414.865 266.17 414.983 266.995 414.747 267.702L412.508 275.007C412.273 275.714 411.801 276.421 411.095 276.774C410.623 277.01 410.152 277.128 409.681 277.128ZM409.091 275.832C409.563 275.949 410.034 275.949 410.388 275.714C410.859 275.478 411.095 275.125 411.212 274.653L413.451 267.348C413.569 266.877 413.569 266.405 413.333 266.052C413.098 265.581 412.744 265.345 412.273 265.227L386.233 257.097C385.762 256.979 385.291 256.979 384.937 257.215C384.466 257.451 384.23 257.804 384.112 258.275L381.874 265.581C381.756 266.052 381.756 266.523 381.992 266.877C382.227 267.348 382.581 267.584 383.052 267.702L409.091 275.832Z" fill="#F5F5F5"/>
<path d="M450.448 289.853C450.095 289.853 449.859 289.853 449.623 289.735L423.584 281.605C422.052 281.134 421.109 279.485 421.699 277.953L423.937 270.648C424.173 269.941 424.644 269.234 425.351 268.88C426.058 268.527 426.883 268.409 427.59 268.645L453.629 276.775C454.336 277.01 455.043 277.481 455.397 278.188C455.75 278.895 455.868 279.72 455.632 280.427L453.394 287.732C453.158 288.439 452.687 289.146 451.98 289.5C451.391 289.735 450.919 289.853 450.448 289.853ZM449.859 288.557C450.33 288.675 450.802 288.675 451.155 288.439C451.626 288.204 451.862 287.85 451.98 287.379L454.218 280.074C454.336 279.602 454.336 279.131 454.101 278.778C453.865 278.306 453.512 278.071 453.04 277.953L427.001 269.823C426.529 269.705 426.058 269.705 425.705 269.941C425.233 270.176 424.998 270.53 424.88 271.001L422.641 278.306C422.406 279.249 422.877 280.191 423.819 280.545L449.859 288.557Z" fill="#F5F5F5"/>
<path d="M337.099 314.008L318.364 308.116C313.062 306.467 310.117 300.811 311.766 295.627L315.183 284.787C316.833 279.485 322.488 276.539 327.673 278.188L346.407 284.08C351.709 285.729 354.655 291.385 353.005 296.569L349.588 307.409C347.939 312.711 342.283 315.657 337.099 314.008Z" fill="#5A6F8E"/>
<path d="M340.044 316.246C338.866 316.246 337.687 316.01 336.509 315.657L317.775 309.766C311.53 307.88 308.113 301.282 309.998 295.037L313.415 284.197C315.3 277.953 321.899 274.536 328.143 276.421L346.878 282.312C353.123 284.197 356.539 290.796 354.654 297.04L351.237 307.88C350.295 310.826 348.292 313.3 345.464 314.832C343.814 315.775 341.929 316.246 340.044 316.246ZM324.727 279.602C321.192 279.602 318.01 281.841 316.832 285.376L313.415 296.216C312.119 300.575 314.476 305.17 318.835 306.466L337.57 312.358C339.69 313.065 341.929 312.829 343.814 311.769C345.817 310.708 347.231 309.059 347.82 306.938L351.237 296.098C352.533 291.738 350.177 287.143 345.817 285.847L327.083 279.956C326.376 279.72 325.551 279.602 324.727 279.602Z" fill="#233863"/>
<path d="M388.236 330.033L369.501 324.141C364.199 322.492 361.253 316.836 362.903 311.652L366.32 300.812C367.97 295.51 373.625 292.564 378.81 294.214L397.544 300.105C402.846 301.754 405.792 307.41 404.142 312.594L400.725 323.434C399.076 328.619 393.42 331.564 388.236 330.033Z" fill="#5A6F8E"/>
<path d="M391.182 332.153C390.004 332.153 388.825 331.918 387.647 331.564L368.913 325.673C362.668 323.788 359.251 317.189 361.136 310.945L364.553 300.105C365.496 297.159 367.499 294.685 370.327 293.153C373.154 291.739 376.336 291.385 379.281 292.328L398.016 298.219C404.26 300.105 407.677 306.703 405.792 312.948L402.375 323.788C401.433 326.733 399.43 329.208 396.602 330.739C394.952 331.8 393.067 332.153 391.182 332.153ZM388.707 328.265C390.828 328.972 393.067 328.736 394.952 327.676C396.955 326.615 398.369 324.966 398.958 322.845L402.375 312.005C403.082 309.884 402.847 307.645 401.786 305.76C400.726 303.757 399.076 302.343 396.955 301.754L378.221 295.863C376.1 295.156 373.861 295.392 371.976 296.452C369.973 297.512 368.559 299.162 367.97 301.283L364.553 312.123C363.846 314.244 364.082 316.482 365.142 318.368C366.203 320.371 367.852 321.785 369.973 322.374L388.707 328.265Z" fill="#233863"/>
<path d="M438.547 345.703L419.813 339.812C414.51 338.162 411.565 332.507 413.214 327.322L416.631 316.482C418.281 311.18 423.936 308.234 429.121 309.884L447.855 315.775C453.157 317.425 456.103 323.08 454.453 328.265L451.036 339.105C449.387 344.407 443.849 347.353 438.547 345.703Z" fill="#5A6F8E"/>
<path d="M441.493 347.942C440.315 347.942 439.137 347.824 437.958 347.352L419.224 341.461C412.979 339.576 409.562 332.978 411.448 326.733L414.864 315.893C415.807 312.947 417.81 310.473 420.638 308.941C423.466 307.527 426.647 307.174 429.593 308.116L448.327 314.008C454.572 315.893 457.989 322.491 456.103 328.736L452.687 339.576C451.155 344.642 446.56 347.942 441.493 347.942ZM426.176 311.298C424.88 311.298 423.584 311.651 422.405 312.24C420.402 313.301 418.988 314.95 418.399 317.071L414.982 327.911C413.686 332.271 416.043 336.866 420.402 338.162L439.137 344.053C443.496 345.349 448.091 342.993 449.387 338.633L452.804 327.793C454.1 323.434 451.744 318.839 447.384 317.542L428.65 311.651C427.825 311.416 427.001 311.298 426.176 311.298Z" fill="#233863"/>
<path d="M324.61 354.068L305.876 348.176C300.573 346.527 297.628 340.871 299.277 335.687L302.694 324.847C304.344 319.545 309.999 316.599 315.184 318.249L333.918 324.14C339.22 325.789 342.166 331.445 340.516 336.629L337.099 347.469C335.45 352.771 329.794 355.717 324.61 354.068Z" fill="#5A6F8E"/>
<path d="M327.556 356.306C326.377 356.306 325.199 356.188 324.021 355.717L305.286 349.825C302.341 348.883 299.866 346.88 298.335 344.052C296.921 341.224 296.567 338.043 297.51 335.097L300.927 324.257C302.812 318.012 309.41 314.595 315.655 316.481L334.389 322.372C337.335 323.315 339.809 325.318 341.341 328.145C342.873 330.973 343.109 334.155 342.166 337.1L338.749 347.94C337.217 353.007 332.622 356.306 327.556 356.306ZM325.081 352.418C329.441 353.714 334.036 351.357 335.332 346.998L338.749 336.158C339.456 334.037 339.22 331.798 338.16 329.913C337.099 327.91 335.45 326.496 333.329 325.907L314.595 320.015C312.474 319.309 310.235 319.544 308.35 320.605C306.347 321.665 304.933 323.315 304.344 325.435L300.927 336.275C300.22 338.396 300.456 340.635 301.516 342.52C302.576 344.523 304.226 345.937 306.347 346.526L325.081 352.418Z" fill="#233863"/>
<path d="M375.746 369.976L357.012 364.084C351.71 362.435 348.764 356.779 350.414 351.595L353.83 340.755C355.48 335.453 361.136 332.507 366.32 334.156L385.054 340.048C390.356 341.697 393.302 347.353 391.653 352.537L388.236 363.377C386.586 368.679 380.93 371.625 375.746 369.976Z" fill="#5A6F8E"/>
<path d="M378.692 372.214C377.514 372.214 376.336 372.096 375.158 371.624L356.423 365.733C353.478 364.791 351.003 362.787 349.472 359.96C348.058 357.132 347.704 353.951 348.647 351.005L352.064 340.165C353.949 333.92 360.547 330.503 366.792 332.388L385.526 338.28C388.472 339.222 390.946 341.225 392.478 344.053C393.892 346.881 394.245 350.062 393.303 353.008L389.886 363.848C388.354 369.032 383.641 372.214 378.692 372.214ZM376.218 368.325C380.578 369.621 385.173 367.265 386.469 362.905L389.886 352.065C390.593 349.944 390.357 347.706 389.297 345.821C388.236 343.818 386.587 342.404 384.466 341.814L365.732 335.923C361.372 334.627 356.777 336.984 355.481 341.343L352.064 352.183C351.357 354.304 351.593 356.543 352.653 358.428C353.713 360.431 355.363 361.845 357.484 362.434L376.218 368.325Z" fill="#233863"/>
<path d="M426.059 385.763L407.325 379.872C402.023 378.222 399.077 372.567 400.727 367.383L404.144 356.543C405.793 351.24 411.449 348.295 416.633 349.944L435.368 355.836C440.67 357.485 443.615 363.141 441.966 368.325L438.549 379.165C436.899 384.467 431.361 387.413 426.059 385.763Z" fill="#5A6F8E"/>
<path d="M429.004 388.001C427.826 388.001 426.648 387.883 425.47 387.412L406.735 381.521C400.49 379.635 397.074 373.037 398.959 366.792L402.376 355.952C404.261 349.708 410.859 346.291 417.104 348.176L435.838 354.067C438.784 355.01 441.258 357.013 442.79 359.841C444.204 362.669 444.557 365.85 443.615 368.796L440.198 379.635C438.666 384.702 434.071 388.001 429.004 388.001ZM426.53 383.995C430.89 385.291 435.485 382.935 436.781 378.575L440.198 367.735C440.905 365.614 440.669 363.376 439.609 361.49C438.548 359.487 436.899 358.073 434.778 357.484L416.043 351.593C413.923 350.886 411.684 351.122 409.799 352.182C407.796 353.243 406.382 354.892 405.793 357.013L402.376 367.853C401.08 372.212 403.436 376.808 407.796 378.104L426.53 383.995Z" fill="#233863"/>
<path d="M312.119 394.131L293.385 388.239C288.083 386.59 285.137 380.934 286.787 375.75L290.204 364.91C291.853 359.608 297.509 356.662 302.693 358.312L321.428 364.203C326.73 365.852 329.675 371.508 328.026 376.692L324.609 387.532C322.959 392.717 317.304 395.662 312.119 394.131Z" fill="#3AAED5"/>
<path d="M315.067 396.25C313.889 396.25 312.71 396.014 311.532 395.66L292.798 389.769C289.852 388.827 287.378 386.824 285.846 383.996C284.432 381.168 284.079 377.987 285.021 375.041L288.438 364.201C289.381 361.255 291.384 358.781 294.212 357.249C297.039 355.835 300.221 355.482 303.166 356.425L321.901 362.316C328.145 364.201 331.562 370.799 329.677 377.044L326.26 387.884C325.318 390.83 323.315 393.304 320.487 394.836C318.837 395.896 316.952 396.25 315.067 396.25ZM312.592 392.361C314.713 393.068 316.952 392.833 318.837 391.772C320.84 390.712 322.254 389.062 322.843 386.941L326.26 376.101C326.967 373.981 326.732 371.742 325.671 369.857C324.611 367.854 322.961 366.44 320.84 365.851L302.106 359.959C299.985 359.252 297.746 359.488 295.861 360.548C293.858 361.609 292.444 363.258 291.855 365.379L288.438 376.219C287.731 378.34 287.967 380.579 289.027 382.464C290.088 384.467 291.737 385.881 293.858 386.47L312.592 392.361Z" fill="#233863"/>
<path d="M363.256 410.034L344.522 404.143C339.219 402.494 336.274 396.838 337.923 391.654L341.34 380.814C342.99 375.511 348.645 372.566 353.83 374.215L372.564 380.107C377.866 381.756 380.812 387.412 379.162 392.596L375.745 403.436C374.096 408.738 368.44 411.684 363.256 410.034Z" fill="#F5F5F5"/>
<path d="M366.202 412.274C365.024 412.274 363.845 412.038 362.667 411.684L343.933 405.793C340.987 404.851 338.513 402.848 336.981 400.02C335.567 397.192 335.214 394.011 336.156 391.065L339.573 380.225C340.516 377.279 342.519 374.805 345.347 373.273C348.174 371.859 351.356 371.506 354.301 372.448L373.036 378.34C379.28 380.225 382.697 386.941 380.812 393.068L377.395 403.908C376.453 406.854 374.45 409.328 371.622 410.86C369.972 411.802 368.087 412.274 366.202 412.274ZM350.884 375.63C349.588 375.63 348.292 375.983 347.114 376.572C345.111 377.633 343.697 379.282 343.108 381.403L339.691 392.243C338.984 394.364 339.22 396.603 340.28 398.488C341.341 400.491 342.99 401.905 345.111 402.494L363.845 408.385C365.966 409.092 368.205 408.857 370.09 407.796C372.093 406.736 373.507 405.086 374.096 402.965L377.513 392.125C378.809 387.766 376.453 383.171 372.093 381.875L353.359 375.983C352.534 375.748 351.709 375.63 350.884 375.63Z" fill="#233863"/>
<path d="M413.57 425.706L394.836 419.815C389.533 418.165 386.588 412.51 388.237 407.325L391.654 396.485C393.304 391.183 398.959 388.238 404.144 389.887L422.878 395.778C428.18 397.428 431.126 403.084 429.476 408.268L426.059 419.108C424.41 424.41 418.872 427.356 413.57 425.706Z" fill="#3D85FD"/>
<path d="M416.515 427.944C415.337 427.944 414.159 427.708 412.98 427.355L394.246 421.463C391.301 420.521 388.826 418.518 387.294 415.69C385.881 412.862 385.527 409.681 386.47 406.735L389.887 395.895C390.829 392.949 392.832 390.475 395.66 388.943C398.488 387.529 401.669 387.176 404.615 388.119L423.349 394.01C426.295 394.953 428.769 396.956 430.301 399.783C431.715 402.611 432.068 405.792 431.126 408.738L427.709 419.578C426.766 422.524 424.763 424.998 421.935 426.53C420.286 427.472 418.4 427.944 416.515 427.944ZM414.041 424.055C416.162 424.762 418.4 424.527 420.286 423.466C422.289 422.406 423.703 420.756 424.292 418.635L427.709 407.795C428.416 405.675 428.18 403.436 427.12 401.551C426.059 399.548 424.41 398.134 422.289 397.545L403.554 391.653C401.434 390.946 399.195 391.182 397.31 392.243C395.307 393.303 393.893 394.953 393.304 397.073L389.887 407.913C389.18 410.034 389.415 412.273 390.476 414.158C391.536 416.161 393.186 417.575 395.307 418.164L414.041 424.055Z" fill="#233863"/>
<path d="M408.029 460.818L278.774 420.404C274.65 419.107 272.294 414.63 273.59 410.506C274.886 406.382 279.363 404.026 283.487 405.322L412.742 445.618C416.866 446.914 419.223 451.392 417.926 455.516C416.63 459.757 412.153 462.114 408.029 460.818Z" fill="#233863"/>
<path d="M410.387 462.939C409.444 462.939 408.501 462.822 407.559 462.468L278.304 422.172C273.237 420.522 270.292 415.102 271.941 410.036C273.591 404.969 279.011 402.023 284.077 403.673L413.332 443.969C415.807 444.794 417.81 446.444 418.988 448.682C420.166 451.039 420.402 453.631 419.695 456.105C418.399 460.229 414.51 462.939 410.387 462.939ZM408.501 459.051C411.8 460.111 415.217 458.226 416.278 455.045C416.749 453.513 416.631 451.864 415.807 450.332C414.982 448.918 413.803 447.74 412.154 447.268L282.899 406.972C279.6 405.912 276.183 407.797 275.123 410.978C274.062 414.277 275.947 417.694 279.129 418.755L408.501 459.051Z" fill="#233863"/>
<path d="M403.2 401.552C404.761 401.552 406.027 400.286 406.027 398.724C406.027 397.162 404.761 395.896 403.2 395.896C401.638 395.896 400.372 397.162 400.372 398.724C400.372 400.286 401.638 401.552 403.2 401.552Z" fill="#F5F5F5"/>
<path d="M352.77 386.234C354.332 386.234 355.598 384.968 355.598 383.406C355.598 381.845 354.332 380.579 352.77 380.579C351.208 380.579 349.942 381.845 349.942 383.406C349.942 384.968 351.208 386.234 352.77 386.234Z" fill="#F5F5F5"/>
<path d="M299.985 369.385C301.546 369.385 302.812 368.119 302.812 366.558C302.812 364.996 301.546 363.73 299.985 363.73C298.423 363.73 297.157 364.996 297.157 366.558C297.157 368.119 298.423 369.385 299.985 369.385Z" fill="#F5F5F5"/>
<path d="M418.045 420.639C418.826 420.639 419.459 420.006 419.459 419.225C419.459 418.444 418.826 417.811 418.045 417.811C417.265 417.811 416.632 418.444 416.632 419.225C416.632 420.006 417.265 420.639 418.045 420.639Z" fill="#F5F5F5"/>
<path d="M426.294 318.25C427.335 318.25 428.179 317.406 428.179 316.365C428.179 315.324 427.335 314.48 426.294 314.48C425.252 314.48 424.408 315.324 424.408 316.365C424.408 317.406 425.252 318.25 426.294 318.25Z" fill="#233863"/>
<path d="M412.862 360.313C413.903 360.313 414.747 359.469 414.747 358.428C414.747 357.387 413.903 356.543 412.862 356.543C411.821 356.543 410.977 357.387 410.977 358.428C410.977 359.469 411.821 360.313 412.862 360.313Z" fill="#233863"/>
<path d="M469.536 254.034C472.269 254.034 474.485 251.818 474.485 249.085C474.485 246.352 472.269 244.137 469.536 244.137C466.803 244.137 464.587 246.352 464.587 249.085C464.587 251.818 466.803 254.034 469.536 254.034Z" fill="#407BFF"/>
<path d="M469.536 255.802C465.883 255.802 462.82 252.856 462.82 249.086C462.82 245.433 465.765 242.37 469.536 242.37C473.189 242.37 476.252 245.316 476.252 249.086C476.252 252.856 473.189 255.802 469.536 255.802ZM469.536 246.022C467.769 246.022 466.355 247.436 466.355 249.204C466.355 250.971 467.769 252.385 469.536 252.385C471.303 252.385 472.717 250.971 472.717 249.204C472.717 247.319 471.303 246.022 469.536 246.022Z" fill="#233863"/>
<path d="M191.704 465.413C224.371 465.413 250.853 438.931 250.853 406.265C250.853 373.598 224.371 347.116 191.704 347.116C159.038 347.116 132.556 373.598 132.556 406.265C132.556 438.931 159.038 465.413 191.704 465.413Z" fill="#233863"/>
<path d="M185.931 462.232C218.597 462.232 245.079 435.75 245.079 403.083C245.079 370.416 218.597 343.935 185.931 343.935C153.264 343.935 126.782 370.416 126.782 403.083C126.782 435.75 153.264 462.232 185.931 462.232Z" fill="#233863"/>
<path d="M185.931 462.232C218.597 462.232 245.079 435.75 245.079 403.083C245.079 370.416 218.597 343.935 185.931 343.935C153.264 343.935 126.782 370.416 126.782 403.083C126.782 435.75 153.264 462.232 185.931 462.232Z" fill="#F5F5F5"/>
<path d="M185.931 464.117C152.35 464.117 125.015 436.782 125.015 403.202C125.015 369.621 152.35 342.286 185.931 342.286C219.511 342.286 246.847 369.621 246.847 403.202C246.964 436.664 219.511 464.117 185.931 464.117ZM185.931 345.703C154.235 345.703 128.549 371.506 128.549 403.084C128.549 434.779 154.353 460.465 185.931 460.465C217.508 460.465 243.312 434.661 243.312 403.084C243.43 371.389 217.626 345.703 185.931 345.703Z" fill="#233863"/>
<path d="M185.93 451.98C158.948 451.98 137.033 430.064 137.033 403.082C137.033 376.1 158.948 354.184 185.93 354.184C212.913 354.184 234.828 376.1 234.828 403.082C234.828 430.064 212.913 451.98 185.93 451.98ZM185.93 356.541C160.244 356.541 139.389 377.396 139.389 403.082C139.389 428.768 160.244 449.623 185.93 449.623C211.616 449.623 232.472 428.768 232.472 403.082C232.472 377.396 211.616 356.541 185.93 356.541Z" fill="#F5F5F5"/>
<path d="M185.459 446.677C161.422 446.677 141.863 427.118 141.863 403.082C141.863 379.045 161.422 359.486 185.459 359.486C209.495 359.486 229.054 379.045 229.054 403.082C228.936 427.118 209.377 446.677 185.459 446.677ZM185.459 361.843C162.718 361.843 144.22 380.341 144.22 403.082C144.22 425.822 162.718 444.321 185.459 444.321C208.199 444.321 226.698 425.822 226.698 403.082C226.58 380.341 208.081 361.843 185.459 361.843Z" fill="#F5F5F5"/>
<path d="M201.72 409.917C201.72 413.805 200.188 417.458 197.478 420.168C195.71 422.053 193.59 423.349 191.115 424.056V426.884C191.115 428.18 190.644 429.476 189.701 430.419C188.759 431.361 187.581 431.95 186.167 431.95C184.753 431.95 183.457 431.361 182.514 430.419C181.571 429.476 180.982 428.18 180.982 426.884V424.645H176.269C174.148 424.645 172.381 423.938 171.203 422.878C170.024 421.817 169.435 420.168 169.435 418.4C169.435 414.748 171.91 412.863 176.269 412.863H187.345C187.816 412.863 188.405 412.745 188.877 412.274C189.466 411.802 189.701 411.213 189.701 410.624C189.701 409.681 189.348 408.974 188.641 408.621C188.287 408.503 188.052 408.385 187.816 408.385C187.58 408.385 187.463 408.267 187.463 408.267H182.161C178.508 408.15 175.091 406.736 172.734 404.379C170.26 402.023 168.846 398.724 168.846 395.071C168.846 391.301 170.496 387.648 173.088 384.938C175.209 382.817 178.037 381.403 180.982 380.814V378.929C180.982 377.515 181.454 376.337 182.514 375.394C183.457 374.451 184.635 373.862 186.049 373.862C187.345 373.862 188.641 374.451 189.584 375.394C190.526 376.454 190.997 377.515 190.997 378.929V380.578H192.765C197.124 380.578 199.717 382.699 199.717 386.352C199.717 390.358 197.124 392.479 192.765 392.479H182.514C181.336 392.479 180.629 393.304 180.629 394.364C180.629 395.424 181.218 396.367 182.161 396.367H187.227C191.115 396.367 194.768 397.781 197.36 400.137C200.188 402.73 201.72 406.029 201.72 409.917Z" fill="#233863"/>
<path d="M215.033 409.209C217.376 409.209 219.275 407.31 219.275 404.968C219.275 402.625 217.376 400.726 215.033 400.726C212.691 400.726 210.792 402.625 210.792 404.968C210.792 407.31 212.691 409.209 215.033 409.209Z" fill="#233863"/>
<path d="M155.061 409.209C157.404 409.209 159.303 407.31 159.303 404.968C159.303 402.625 157.404 400.726 155.061 400.726C152.718 400.726 150.819 402.625 150.819 404.968C150.819 407.31 152.718 409.209 155.061 409.209Z" fill="#233863"/>
<path d="M124.895 350.416C136.673 350.416 146.221 340.868 146.221 329.09C146.221 317.311 136.673 307.763 124.895 307.763C113.117 307.763 103.568 317.311 103.568 329.09C103.568 340.868 113.117 350.416 124.895 350.416Z" fill="#233863"/>
<path d="M123.128 348.883C134.907 348.883 144.455 339.335 144.455 327.557C144.455 315.779 134.907 306.23 123.128 306.23C111.35 306.23 101.802 315.779 101.802 327.557C101.802 339.335 111.35 348.883 123.128 348.883Z" fill="#233863"/>
<path d="M123.128 348.883C134.907 348.883 144.455 339.335 144.455 327.557C144.455 315.779 134.907 306.23 123.128 306.23C111.35 306.23 101.802 315.779 101.802 327.557C101.802 339.335 111.35 348.883 123.128 348.883Z" fill="#F5F5F5"/>
<path d="M123.129 350.062C121.479 350.062 119.83 349.826 118.18 349.473C112.289 348.176 107.34 344.642 104.041 339.575C100.86 334.509 99.7995 328.5 101.096 322.608C102.392 316.717 105.926 311.768 110.993 308.469C116.059 305.288 122.069 304.227 127.96 305.524C133.851 306.82 138.8 310.354 142.099 315.421C145.28 320.487 146.341 326.497 145.045 332.388C142.806 342.874 133.498 350.062 123.129 350.062ZM123.129 307.291C119.359 307.291 115.588 308.351 112.289 310.472C107.694 313.418 104.63 317.895 103.452 323.08C102.274 328.382 103.216 333.802 106.162 338.279C109.108 342.874 113.585 345.938 118.769 347.116C129.609 349.59 140.449 342.639 142.924 331.799C144.102 326.497 143.159 321.077 140.214 316.599C137.268 312.004 132.791 308.94 127.606 307.762C126.075 307.409 124.543 307.291 123.129 307.291Z" fill="#233863"/>
<path d="M123.128 345.231C121.832 345.231 120.536 345.113 119.24 344.759C109.696 342.638 103.687 333.212 105.808 323.668C106.868 319.073 109.578 315.185 113.584 312.593C117.59 310.118 122.303 309.294 126.898 310.236C136.442 312.357 142.451 321.783 140.331 331.327C139.27 335.922 136.56 339.81 132.554 342.403C129.726 344.288 126.427 345.231 123.128 345.231ZM119.475 343.934C123.835 344.877 128.312 344.17 132.083 341.696C135.853 339.339 138.445 335.569 139.506 331.209C141.509 322.137 135.853 313.182 126.781 311.179C122.421 310.236 117.944 310.943 114.173 313.418C110.403 315.774 107.811 319.544 106.75 323.904C104.747 332.859 110.403 341.814 119.475 343.934Z" fill="#F5F5F5"/>
<path d="M122.893 343.228C121.715 343.228 120.654 343.11 119.476 342.875C110.992 340.99 105.69 332.506 107.576 324.023C108.518 319.899 110.992 316.364 114.527 314.125C118.062 311.887 122.304 311.18 126.428 312.004C134.911 313.89 140.213 322.373 138.328 330.857C136.678 338.28 130.08 343.228 122.893 343.228ZM122.893 312.594C120.065 312.594 117.355 313.418 114.999 314.95C111.699 317.071 109.343 320.37 108.4 324.258C106.633 332.271 111.699 340.283 119.712 342.05C123.6 342.875 127.606 342.168 130.905 340.047C134.322 337.926 136.561 334.627 137.503 330.739C138.328 326.851 137.621 322.844 135.5 319.545C133.379 316.128 130.08 313.89 126.192 312.947C125.132 312.711 123.953 312.594 122.893 312.594Z" fill="#F5F5F5"/>
<path d="M128.195 331.211C127.842 332.625 127.017 333.803 125.956 334.51C125.132 334.981 124.307 335.335 123.364 335.335L123.129 336.277C123.011 336.749 122.775 337.102 122.304 337.456C121.95 337.691 121.479 337.809 121.008 337.691C120.536 337.574 120.065 337.338 119.829 336.867C119.594 336.513 119.476 335.924 119.594 335.453L119.829 334.628L118.18 334.274C117.473 334.157 116.884 333.685 116.53 333.214C116.177 332.743 116.059 332.154 116.295 331.447C116.53 330.151 117.591 329.679 119.123 330.033L123.011 330.857C123.129 330.857 123.364 330.857 123.6 330.74C123.836 330.622 123.953 330.504 124.071 330.268C124.189 329.915 124.071 329.679 123.836 329.444C123.718 329.326 123.6 329.326 123.6 329.326C123.482 329.326 123.482 329.326 123.482 329.326L121.597 328.854C120.301 328.501 119.24 327.794 118.533 326.734C117.826 325.673 117.591 324.495 117.944 323.199C118.298 321.903 119.123 320.724 120.301 320.018C121.243 319.428 122.304 319.193 123.364 319.193L123.482 318.486C123.6 318.014 123.836 317.661 124.307 317.308C124.778 317.072 125.249 316.954 125.721 317.072C126.192 317.19 126.546 317.425 126.781 317.897C127.017 318.368 127.135 318.721 127.017 319.311L126.899 319.9L127.488 320.018C129.02 320.371 129.727 321.314 129.491 322.61C129.138 324.024 128.077 324.613 126.546 324.259L122.893 323.434C122.422 323.317 122.186 323.552 122.068 323.906C121.95 324.259 122.068 324.613 122.422 324.731L124.189 325.084C125.603 325.438 126.781 326.144 127.488 327.205C128.195 328.501 128.431 329.797 128.195 331.211Z" fill="#233863"/>
<path d="M133.262 331.917C134.108 331.917 134.793 331.231 134.793 330.385C134.793 329.539 134.108 328.854 133.262 328.854C132.416 328.854 131.73 329.539 131.73 330.385C131.73 331.231 132.416 331.917 133.262 331.917Z" fill="#233863"/>
<path d="M112.053 327.204C112.899 327.204 113.585 326.518 113.585 325.672C113.585 324.826 112.899 324.14 112.053 324.14C111.207 324.14 110.521 324.826 110.521 325.672C110.521 326.518 111.207 327.204 112.053 327.204Z" fill="#233863"/>
<path d="M88.135 412.627C104.013 412.627 116.884 399.755 116.884 383.877C116.884 367.999 104.013 355.128 88.135 355.128C72.2571 355.128 59.3855 367.999 59.3855 383.877C59.3855 399.755 72.2571 412.627 88.135 412.627Z" fill="#233863"/>
<path d="M85.0718 411.802C100.95 411.802 113.821 398.93 113.821 383.052C113.821 367.175 100.95 354.303 85.0718 354.303C69.1939 354.303 56.3223 367.175 56.3223 383.052C56.3223 398.93 69.1939 411.802 85.0718 411.802Z" fill="#233863"/>
<path d="M85.0718 411.802C100.95 411.802 113.821 398.93 113.821 383.052C113.821 367.175 100.95 354.303 85.0718 354.303C69.1939 354.303 56.3223 367.175 56.3223 383.052C56.3223 398.93 69.1939 411.802 85.0718 411.802Z" fill="#F5F5F5"/>
<path d="M85.0716 413.688C71.7573 413.688 59.5035 404.851 55.6152 391.419C51.02 375.159 60.4461 358.31 76.706 353.715C92.966 349.12 109.815 358.546 114.41 374.806C119.005 391.066 109.579 407.915 93.3194 412.51C90.6095 413.335 87.7816 413.688 85.0716 413.688ZM85.0716 356.071C82.5973 356.071 80.123 356.425 77.6486 357.132C63.2739 361.138 54.9082 376.22 59.0321 390.476C63.0382 404.851 78.1199 413.217 92.3768 409.093C99.3286 407.09 105.102 402.613 108.637 396.25C112.172 390.005 112.996 382.7 110.993 375.748C108.99 368.797 104.513 363.023 98.1503 359.488C94.1442 357.25 89.6668 356.071 85.0716 356.071Z" fill="#233863"/>
<path d="M85.0722 406.736C74.8214 406.736 65.2775 399.902 62.3319 389.533C58.7971 377.044 66.1023 363.847 78.5918 360.313C84.6009 358.545 91.0814 359.37 96.5013 362.433C102.039 365.497 106.045 370.563 107.695 376.573C109.462 382.582 108.637 389.062 105.574 394.482C102.51 400.02 97.4439 404.026 91.4348 405.676C89.314 406.5 87.1931 406.736 85.0722 406.736ZM85.0722 360.313C82.9514 360.313 80.9483 360.548 78.8275 361.137C66.8092 364.554 59.7397 377.162 63.1566 389.18C66.5736 401.198 79.181 408.268 91.1992 404.851C97.0905 403.201 101.921 399.313 104.867 394.011C107.813 388.709 108.52 382.582 106.87 376.69C105.22 370.799 101.332 365.968 96.03 363.023C92.7309 361.373 88.8427 360.313 85.0722 360.313Z" fill="#F5F5F5"/>
<path d="M84.8362 404.262C81.3014 404.262 77.7666 403.319 74.5853 401.552C69.6366 398.842 66.1019 394.365 64.5701 388.945C63.0384 383.525 63.7454 377.869 66.4553 372.92C69.1653 367.972 73.6427 364.437 79.0627 362.905C84.4827 361.373 90.1383 362.08 95.087 364.79C100.036 367.5 103.57 371.978 105.102 377.398C106.634 382.818 105.927 388.473 103.217 393.422C100.507 398.371 96.0296 401.905 90.6096 403.437C88.6066 404.026 86.7214 404.262 84.8362 404.262ZM84.8362 363.023C82.951 363.023 81.1836 363.259 79.2984 363.848C74.114 365.262 69.8723 368.679 67.1623 373.392C64.5701 378.105 63.8632 383.525 65.3949 388.709C66.8088 393.893 70.2258 398.135 74.9388 400.845C79.6518 403.437 85.0718 404.144 90.2561 402.612C95.4405 401.198 99.6822 397.782 102.392 393.068C104.984 388.355 105.691 382.935 104.16 377.751C102.746 372.567 99.3287 368.325 94.6157 365.615C91.5522 363.848 88.2531 363.023 84.8362 363.023Z" fill="#F5F5F5"/>
<path d="M93.3174 384.233C93.7887 386 93.5531 388.003 92.7283 389.653C92.1392 390.713 91.3144 391.656 90.2539 392.363L90.6074 393.659C90.8431 394.248 90.7253 394.955 90.3718 395.544C90.0183 396.133 89.547 396.486 88.9579 396.722C88.2509 396.958 87.6618 396.84 87.0727 396.486C86.4835 396.133 86.1301 395.662 85.8944 395.073L85.5409 394.012L83.3022 394.601C82.3596 394.837 81.417 394.837 80.7101 394.483C80.0031 394.13 79.5318 393.423 79.2962 392.598C78.8249 390.831 79.7675 389.653 81.7705 389.063L87.0727 387.414C87.3083 387.414 87.544 387.178 87.6618 386.943C87.8974 386.707 87.8974 386.353 87.7796 386C87.6618 385.529 87.4261 385.293 86.9548 385.175C86.7192 385.175 86.6014 385.175 86.6014 385.175C86.4835 385.175 86.3657 385.175 86.3657 385.175L83.8914 385.882C82.124 386.353 80.3566 386.118 78.9427 385.293C77.5288 384.468 76.3505 383.172 75.8792 381.405C75.4079 379.637 75.6436 377.752 76.5862 376.103C77.2931 374.807 78.4714 373.746 79.7675 373.157L79.5318 372.332C79.2962 371.743 79.414 371.036 79.7675 370.447C80.1209 369.858 80.5922 369.504 81.2992 369.269C81.8883 369.151 82.5953 369.151 83.1844 369.504C83.7735 369.858 84.127 370.329 84.3627 371.036L84.5983 371.861L85.4231 371.625C87.4261 371.036 88.9579 371.743 89.4292 373.393C90.0183 375.278 89.0757 376.574 86.9548 377.163L82.124 378.577C81.5348 378.695 81.2992 379.166 81.417 379.755C81.5348 380.227 82.0061 380.58 82.4774 380.462L84.834 379.755C86.7192 379.284 88.4866 379.402 90.1361 380.227C91.6679 381.051 92.8461 382.347 93.3174 384.233Z" fill="#233863"/>
<path d="M98.8574 382.227C100.029 382.227 100.978 381.278 100.978 380.106C100.978 378.935 100.029 377.986 98.8574 377.986C97.6861 377.986 96.7366 378.935 96.7366 380.106C96.7366 381.278 97.6861 382.227 98.8574 382.227Z" fill="#233863"/>
<path d="M70.814 390.24C71.9853 390.24 72.9348 389.29 72.9348 388.119C72.9348 386.948 71.9853 385.998 70.814 385.998C69.6427 385.998 68.6931 386.948 68.6931 388.119C68.6931 389.29 69.6427 390.24 70.814 390.24Z" fill="#233863"/>
<path d="M298.688 270.412L176.031 264.285C170.258 264.049 165.898 259.101 166.134 253.327L175.324 68.812C176.149 51.3738 190.995 37.9416 208.433 38.8843L289.851 42.8903C307.289 43.7151 320.721 58.5612 319.779 75.9994L310.588 259.454C310.353 265.935 304.933 270.765 298.688 270.412Z" fill="#233863"/>
<path d="M290.794 270.413L168.138 264.286C162.364 264.051 158.005 259.102 158.24 253.328L167.431 68.8132C168.256 51.375 183.102 37.9429 200.54 38.8855L281.957 42.8915C299.396 43.7163 312.828 58.5624 311.885 76.0006L302.695 259.455C302.459 265.936 297.039 270.767 290.794 270.413Z" fill="#F5F5F5"/>
<path d="M291.383 272.297C291.148 272.297 290.912 272.297 290.676 272.297L168.02 266.171C161.304 265.817 156.119 260.044 156.473 253.328L165.663 68.8124C166.135 59.9755 170.023 51.7276 176.621 45.7185C183.219 39.7094 191.821 36.6459 200.658 37.1173L282.075 41.1233C300.456 42.0659 314.595 57.7368 313.652 76.1176L304.462 259.572C304.226 266.76 298.335 272.297 291.383 272.297ZM290.912 268.645C296.214 268.881 300.809 264.757 301.045 259.454L310.236 75.9998C311.06 59.622 298.335 45.6007 281.957 44.7759L200.54 40.7698C192.645 40.4164 184.987 43.1264 179.095 48.4285C173.204 53.7307 169.669 61.0359 169.316 69.048L160.125 253.563C159.89 258.276 163.542 262.4 168.373 262.636L290.912 268.645Z" fill="#233863"/>
<path d="M280.544 43.0088L164.485 37.2353C151.171 36.5284 139.742 47.3684 139.035 61.2718L138.564 70.8157L255.918 76.707L256.389 67.1631C257.096 53.6131 267.701 43.1266 280.544 43.0088Z" fill="#F5F5F5"/>
<path d="M255.918 78.3558C255.918 78.3558 255.8 78.3558 255.918 78.3558L138.446 72.4645C137.503 72.4645 136.679 71.6397 136.796 70.5793L137.268 61.0354C137.621 53.8481 140.685 47.2498 145.751 42.3011C150.936 37.4703 157.534 34.9959 164.485 35.2316L280.544 41.005C281.015 41.005 281.486 41.2407 281.722 41.5942C282.076 41.9477 282.193 42.419 282.193 42.8903C282.193 43.8329 281.369 44.5398 280.426 44.5398C268.526 44.6576 258.628 54.4372 258.039 66.9267L257.568 76.4706C257.568 76.9419 257.332 77.4132 256.979 77.6489C256.743 78.238 256.272 78.3558 255.918 78.3558ZM140.449 69.1654L254.269 74.821L254.622 67.0445C255.093 57.0294 260.867 48.5459 268.879 44.1863L164.368 39.002C158.359 38.7664 152.703 40.8872 148.226 45.0111C143.748 49.2529 141.156 55.0263 140.802 61.2711L140.449 69.1654Z" fill="#233863"/>
<g opacity="0.11">
<path opacity="0.11" d="M280.544 43.0088L164.485 37.2353C151.171 36.5284 139.742 47.3684 139.035 61.2718L138.564 70.8157L255.918 76.707L256.389 67.1631C257.096 53.6131 267.701 43.1266 280.544 43.0088Z" fill="#233863"/>
</g>
<path d="M223.633 93.9096L193.941 92.3778C192.998 92.3778 192.174 91.553 192.292 90.4926C192.292 89.55 193.234 88.7252 194.177 88.843L223.751 90.3748C224.694 90.3748 225.518 91.1996 225.401 92.26C225.401 93.2026 224.576 93.9096 223.633 93.9096Z" fill="#233863"/>
<path d="M290.677 98.15L260.985 96.6183C260.042 96.6183 259.217 95.7935 259.335 94.7331C259.335 93.7905 260.278 92.9657 261.22 93.0835L290.795 94.6153C291.737 94.6153 292.562 95.44 292.444 96.5005C292.444 97.3253 291.619 98.15 290.677 98.15Z" fill="#233863"/>
<path d="M251.088 129.844L192.293 127.252C191.35 127.252 190.525 126.428 190.643 125.367C190.643 124.425 191.468 123.6 192.528 123.718L251.323 126.31C252.266 126.31 253.091 127.135 252.973 128.195C252.855 129.138 252.03 129.844 251.088 129.844Z" fill="#233863"/>
<path d="M215.151 147.873L190.525 146.459C189.582 146.459 188.758 145.516 188.876 144.573C188.876 143.631 189.818 142.806 190.761 142.924L215.268 144.338C216.211 144.338 217.036 145.28 216.918 146.223C216.918 147.166 216.093 147.873 215.151 147.873Z" fill="#233863"/>
<path d="M235.417 111.936C235.417 111.936 235.299 111.936 235.417 111.936L193.117 109.815C192.175 109.815 191.35 108.991 191.468 107.93C191.468 106.987 192.41 106.163 193.353 106.281L235.535 108.401C236.477 108.401 237.302 109.226 237.184 110.287C237.066 111.229 236.359 111.936 235.417 111.936Z" fill="#233863"/>
<path d="M251.087 112.761L245.549 112.525C244.607 112.525 243.782 111.7 243.9 110.64C243.9 109.697 244.725 108.872 245.785 108.99L251.205 109.226C252.148 109.226 252.973 110.051 252.855 111.111C252.855 112.054 252.03 112.761 251.087 112.761Z" fill="#233863"/>
<path d="M291.384 140.921C291.266 144.103 289.852 147.166 287.495 149.405C285.964 150.937 284.078 151.879 282.075 152.468L281.958 154.825C281.958 155.885 281.486 156.946 280.662 157.77C279.837 158.477 278.776 158.949 277.716 158.831C276.538 158.831 275.477 158.242 274.77 157.417C274.063 156.592 273.592 155.532 273.592 154.353L273.71 152.468L269.822 152.35C268.054 152.233 266.64 151.643 265.698 150.701C264.755 149.758 264.284 148.344 264.402 146.813C264.519 143.749 266.64 142.335 270.293 142.453L279.483 142.807C279.837 142.807 280.308 142.689 280.779 142.453C281.251 142.1 281.486 141.628 281.486 141.039C281.486 140.214 281.251 139.743 280.662 139.39C280.308 139.272 280.19 139.154 280.072 139.154C279.837 139.154 279.719 139.036 279.719 139.036L275.359 138.8C272.296 138.565 269.586 137.269 267.583 135.148C265.58 133.027 264.519 130.317 264.637 127.254C264.755 124.072 266.287 121.127 268.525 119.006C270.411 117.238 272.767 116.178 275.242 115.824L275.359 114.293C275.359 113.114 275.831 112.172 276.773 111.347C277.598 110.522 278.659 110.169 279.837 110.287C280.897 110.287 281.958 110.876 282.665 111.583C283.489 112.407 283.843 113.468 283.725 114.646V116.06L285.257 116.178C288.909 116.296 291.03 118.181 290.912 121.244C290.795 124.544 288.556 126.311 284.903 126.193L276.302 125.84C275.359 125.84 274.652 126.429 274.652 127.254C274.652 128.196 275.124 128.903 275.949 129.021L280.19 129.257C283.489 129.374 286.435 130.67 288.556 132.791C290.441 134.912 291.502 137.74 291.384 140.921Z" fill="#233863" stroke="#F5F5F5" stroke-width="2" stroke-miterlimit="10"/>
<path d="M140.802 61.2715L165.899 62.3319" stroke="#233863" stroke-width="3" stroke-miterlimit="10" stroke-linecap="round"/>
<path d="M58.7939 159.419L154.586 287.967L236.711 226.815L139.151 95.793L138.326 110.403L124.776 107.222L123.952 121.008L111.226 118.062L110.519 131.376L97.9121 128.313L97.2051 141.509L84.7156 138.446L84.0087 150.346L70.3409 147.047L69.3983 161.422L58.7939 159.419Z" fill="#3AAED5"/>
<path d="M154.587 289.736C154.469 289.736 154.469 289.736 154.352 289.736C153.88 289.618 153.527 289.382 153.173 289.029L57.381 160.481C56.9097 159.892 56.9097 159.067 57.2632 158.478C57.6167 157.888 58.3236 157.535 59.1484 157.653L67.7497 159.302L68.4566 147.049C68.4566 146.577 68.6923 145.988 69.1636 145.752C69.6349 145.399 70.1062 145.281 70.5775 145.399L82.2423 148.227L82.8314 138.447C82.8314 137.976 83.067 137.387 83.5383 137.151C84.0096 136.798 84.4809 136.68 84.9522 136.798L95.4387 139.272L96.0279 128.314C96.0279 127.843 96.2635 127.254 96.7348 127.018C97.2061 126.665 97.6774 126.547 98.1487 126.665L108.635 129.139L109.342 117.946C109.342 117.474 109.578 116.885 110.049 116.649C110.52 116.296 110.992 116.178 111.463 116.296L122.185 118.888L122.892 107.223C122.892 106.752 123.128 106.163 123.599 105.927C124.07 105.574 124.542 105.456 125.013 105.574L136.442 108.284L137.149 95.7943C137.149 95.0874 137.738 94.3804 138.445 94.1447C139.152 93.9091 139.977 94.1447 140.33 94.7339L237.89 225.756C238.479 226.581 238.361 227.641 237.537 228.23L155.412 289.382C155.294 289.618 154.941 289.736 154.587 289.736ZM62.9188 162.012L154.941 285.612L234.237 226.581L140.684 100.861L140.095 110.523C140.095 110.994 139.859 111.583 139.388 111.819C138.916 112.172 138.445 112.29 137.974 112.172L126.545 109.462L125.838 121.127C125.838 121.598 125.602 122.187 125.131 122.423C124.66 122.776 124.188 122.894 123.717 122.776L112.995 120.184L112.288 131.378C112.288 131.849 112.052 132.438 111.581 132.674C111.11 133.027 110.638 133.145 110.167 133.027L99.6805 130.553L99.0913 141.511C99.0913 141.982 98.8557 142.571 98.3844 142.807C97.9131 143.16 97.4418 143.278 96.9705 143.16L86.484 140.686L85.8949 150.465C85.8949 150.937 85.6592 151.526 85.1879 151.762C84.7166 152.115 84.2453 152.233 83.774 152.115L72.1092 149.287L71.4023 161.541C71.4023 162.012 71.1666 162.484 70.6953 162.837C70.3419 163.191 69.7527 163.308 69.2814 163.191L62.9188 162.012Z" fill="#233863"/>
<path d="M88.1342 177.564C87.545 177.564 87.0737 177.329 86.7203 176.857C86.1311 176.033 86.249 174.972 87.0737 174.383L112.288 155.649C113.113 155.06 114.174 155.178 114.763 156.002C115.352 156.827 115.234 157.888 114.409 158.477L89.1946 177.211C88.8411 177.447 88.4876 177.564 88.1342 177.564Z" fill="#F5F5F5"/>
<path d="M95.5573 187.698C94.9681 187.698 94.4968 187.462 94.1434 186.991C93.5542 186.166 93.6721 185.106 94.4968 184.517L140.92 149.994C141.745 149.404 142.805 149.522 143.395 150.347C143.984 151.172 143.866 152.232 143.041 152.821L96.6177 187.344C96.382 187.58 96.0286 187.698 95.5573 187.698Z" fill="#233863"/>
<path d="M147.047 149.405C146.458 149.405 145.987 149.17 145.634 148.698C145.044 147.874 145.162 146.813 145.987 146.224L152.232 141.629C153.057 141.04 154.117 141.158 154.706 141.982C155.295 142.807 155.177 143.868 154.353 144.457L148.108 149.052C147.754 149.288 147.401 149.405 147.047 149.405Z" fill="#F5F5F5"/>
<path d="M106.396 202.073C105.807 202.073 105.335 201.838 104.982 201.366C104.393 200.541 104.511 199.481 105.335 198.892L122.42 186.167C123.245 185.578 124.305 185.695 124.895 186.52C125.484 187.345 125.366 188.405 124.541 188.994L107.456 201.72C107.103 201.955 106.749 202.073 106.396 202.073Z" fill="#233863"/>
<path d="M130.787 183.926C130.197 183.926 129.726 183.691 129.373 183.219C128.783 182.395 128.901 181.334 129.726 180.745L162.953 156.002C163.778 155.413 164.838 155.53 165.427 156.355C166.016 157.18 165.899 158.24 165.074 158.83L131.847 183.573C131.493 183.809 131.14 183.926 130.787 183.926Z" fill="#233863"/>
<path d="M122.186 223.282C121.597 223.282 121.126 223.046 120.772 222.575C120.183 221.75 120.301 220.689 121.126 220.1L158.594 192.293C159.419 191.704 160.48 191.822 161.069 192.647C161.658 193.472 161.54 194.532 160.715 195.121L123.247 222.928C122.893 223.164 122.54 223.282 122.186 223.282Z" fill="#F5F5F5"/>
<path d="M177.681 213.501C177.092 213.501 176.621 213.266 176.267 212.794C175.678 211.969 175.796 210.909 176.621 210.32L193.823 197.477C194.648 196.888 195.708 197.006 196.298 197.83C196.887 198.655 196.769 199.716 195.944 200.305L178.741 213.148C178.388 213.383 178.035 213.501 177.681 213.501Z" fill="#233863"/>
<path d="M188.168 135.384L176.15 230.941L248.966 240.014L261.102 142.572L253.679 148.463L248.141 141.276L240.954 146.813L235.769 140.097L228.936 145.517L223.751 138.919L217.035 144.103L211.851 137.505L205.724 142.218L200.068 135.031L192.763 140.686L188.168 134.913" fill="#F5F5F5"/>
<path d="M248.966 241.78C248.848 241.78 248.848 241.78 248.73 241.78L175.914 232.708C174.971 232.59 174.264 231.647 174.382 230.705L186.282 135.03C186.282 134.912 186.282 134.794 186.4 134.677C186.4 134.205 186.636 133.734 187.107 133.498C187.932 132.909 188.992 133.027 189.582 133.852L192.998 138.211L199.008 133.616C199.361 133.381 199.832 133.145 200.304 133.263C200.775 133.263 201.246 133.616 201.482 133.97L206.077 139.861L210.79 136.208C211.615 135.619 212.675 135.737 213.264 136.562L217.271 141.746L222.573 137.622C223.397 137.033 224.458 137.151 225.047 137.976L229.053 143.16L234.473 138.918C235.298 138.329 236.358 138.447 236.947 139.272L241.071 144.574L246.845 140.097C247.67 139.507 248.73 139.625 249.319 140.45L253.797 146.224L259.923 141.51C260.513 141.039 261.22 141.039 261.927 141.393C262.516 141.746 262.869 142.453 262.751 143.16L250.615 240.602C250.615 241.073 250.262 241.545 249.908 241.78C249.79 241.662 249.437 241.78 248.966 241.78ZM178.152 229.409L247.434 238.01L258.863 146.577L254.739 149.758C253.914 150.347 252.854 150.23 252.265 149.405L247.787 143.631L242.014 148.109C241.189 148.698 240.129 148.58 239.54 147.755L235.416 142.453L229.996 146.695C229.642 146.93 229.171 147.166 228.7 147.048C228.228 147.048 227.757 146.695 227.521 146.341L223.515 141.157L218.213 145.281C217.388 145.87 216.328 145.752 215.739 144.927L211.733 139.743L207.02 143.396C206.666 143.631 206.195 143.867 205.724 143.749C205.252 143.749 204.781 143.396 204.545 143.042L199.95 137.151L193.941 141.746C193.116 142.335 192.056 142.217 191.467 141.393L189.582 138.918L178.152 229.409Z" fill="#233863"/>
<path d="M217.978 158.83H217.86L195.473 156.002C194.884 155.885 194.413 155.295 194.413 154.706C194.531 154.117 195.12 153.646 195.709 153.646L218.096 156.474C218.685 156.592 219.156 157.181 219.156 157.77C219.038 158.359 218.567 158.83 217.978 158.83Z" fill="#F5F5F5"/>
<path d="M235.77 168.611H235.652L194.531 163.427C193.942 163.309 193.471 162.72 193.471 162.131C193.589 161.542 194.178 161.07 194.767 161.07L235.888 166.255C236.477 166.373 236.948 166.962 236.948 167.551C236.831 168.258 236.359 168.611 235.77 168.611Z" fill="#233863"/>
<path d="M245.785 169.906H245.667L240.13 169.199C239.54 169.082 239.069 168.492 239.069 167.903C239.187 167.314 239.776 166.843 240.365 166.843L245.903 167.55C246.492 167.668 246.963 168.257 246.963 168.846C246.846 169.435 246.374 169.906 245.785 169.906Z" fill="#F5F5F5"/>
<path d="M208.433 176.151H208.315L193.234 174.266C192.645 174.148 192.173 173.559 192.173 172.97C192.291 172.381 192.88 171.91 193.469 171.91L208.551 173.795C209.14 173.913 209.612 174.502 209.612 175.091C209.494 175.68 209.022 176.151 208.433 176.151Z" fill="#233863"/>
<path d="M244.371 180.63H244.253L214.797 176.977C214.208 176.859 213.736 176.27 213.736 175.681C213.854 175.092 214.443 174.621 215.032 174.621L244.489 178.273C245.078 178.391 245.549 178.98 245.549 179.569C245.549 180.158 244.96 180.63 244.371 180.63Z" fill="#233863"/>
<path d="M224.459 194.18H224.341L191.114 190.056C190.525 189.938 190.054 189.349 190.054 188.76C190.172 188.171 190.761 187.699 191.35 187.699L224.577 191.823C225.166 191.941 225.637 192.53 225.637 193.119C225.637 193.708 225.048 194.18 224.459 194.18Z" fill="#233863"/>
<path d="M240.601 212.088C240.483 212.088 240.483 212.088 240.365 212.088L225.048 210.203C224.105 210.085 223.398 209.142 223.516 208.2C223.634 207.257 224.458 206.55 225.519 206.668L240.836 208.553C241.779 208.671 242.486 209.614 242.368 210.556C242.25 211.381 241.425 212.088 240.601 212.088Z" fill="#233863"/>
<path d="M384.821 312.239L194.768 358.074C188.759 359.487 182.75 355.835 181.336 349.826L151.054 224.577C149.641 218.568 153.293 212.559 159.302 211.145L349.355 165.311C355.364 163.897 361.373 167.549 362.787 173.558L393.069 298.807C394.483 304.816 390.83 310.825 384.821 312.239Z" fill="#3D85FD"/>
<path d="M192.175 360.195C189.818 360.195 187.461 359.606 185.458 358.31C182.513 356.543 180.392 353.715 179.685 350.298L149.404 225.049C147.754 218.097 151.996 211.146 158.948 209.496L349.001 163.544C355.952 161.894 362.904 166.136 364.554 173.088L394.835 298.337C396.484 305.288 392.243 312.24 385.291 313.89L195.238 359.724C194.178 360.077 193.117 360.195 192.175 360.195ZM351.946 166.725C351.239 166.725 350.532 166.843 349.708 166.961L159.655 212.795C154.588 213.973 151.525 219.04 152.703 224.106L182.984 349.355C183.573 351.83 185.105 353.833 187.226 355.129C189.347 356.425 191.939 356.778 194.295 356.189L384.348 310.355C389.415 309.177 392.478 304.11 391.3 299.044L361.019 173.795C360.076 169.553 356.188 166.725 351.946 166.725Z" fill="#233863"/>
<path opacity="0.36" d="M326.616 168.729L270.767 182.397L283.727 235.654C285.377 242.606 279.486 249.911 270.531 252.15C253.446 256.273 242.253 270.295 245.434 283.373C246.73 288.911 242.017 294.802 234.83 296.57C214.681 301.519 201.485 318.014 205.255 333.449L210.322 354.422L380.934 312.83C389.417 310.827 394.484 302.226 392.481 293.86L364.202 177.802C361.846 168.258 352.302 162.366 342.758 164.723L326.616 168.729Z" fill="#233863"/>
<path d="M224.107 287.732L198.303 293.977C197.714 294.095 197.007 293.741 196.889 293.034L195.593 287.614C195.475 287.025 195.829 286.318 196.536 286.2L222.34 279.955C222.929 279.838 223.636 280.191 223.753 280.898L225.05 286.318C225.167 287.025 224.696 287.614 224.107 287.732Z" fill="#233863"/>
<path d="M257.215 279.719L231.411 285.963C230.822 286.081 230.115 285.728 229.997 285.021L228.701 279.601C228.583 279.012 228.936 278.305 229.643 278.187L255.447 271.942C256.036 271.824 256.743 272.178 256.861 272.885L258.157 278.305C258.275 278.894 257.804 279.601 257.215 279.719Z" fill="#233863"/>
<path d="M289.5 271.826L263.696 278.071C263.107 278.189 262.4 277.835 262.282 277.128L260.986 271.708C260.868 271.119 261.221 270.412 261.928 270.294L287.732 264.05C288.321 263.932 289.028 264.285 289.146 264.992L290.442 270.412C290.56 271.001 290.206 271.708 289.5 271.826Z" fill="#233863"/>
<path d="M321.902 263.931L296.098 270.176C295.509 270.294 294.802 269.94 294.684 269.233L293.388 263.813C293.27 263.224 293.623 262.517 294.33 262.399L320.134 256.155C320.723 256.037 321.43 256.39 321.548 257.097L322.844 262.517C322.962 263.106 322.609 263.813 321.902 263.931Z" fill="#233863"/>
<path d="M223.282 306.937L202.073 312.121C201.484 312.239 200.777 311.885 200.659 311.178L199.952 308.468C199.834 307.879 200.188 307.172 200.895 307.055L222.103 301.87C222.692 301.752 223.399 302.106 223.517 302.813L224.224 305.523C224.342 306.112 223.871 306.819 223.282 306.937Z" fill="#F5F5F5"/>
<path d="M346.174 188.64L324.612 192.175C323.905 192.293 323.316 191.821 323.198 191.232L322.727 188.522C322.609 187.815 323.08 187.226 323.669 187.108L345.231 183.574C345.938 183.456 346.527 183.927 346.645 184.516L347.117 187.226C347.352 187.933 346.881 188.522 346.174 188.64Z" fill="#F5F5F5"/>
<path d="M267.231 209.612L181.925 230.468C181.1 230.703 180.157 230.114 179.922 229.289L179.097 225.755C178.861 224.93 179.451 223.987 180.275 223.752L265.581 202.896C266.406 202.661 267.349 203.25 267.584 204.075L268.409 207.609C268.645 208.552 268.055 209.377 267.231 209.612Z" fill="#F5F5F5"/>
<path d="M253.327 299.514L232.119 304.698C231.529 304.816 230.822 304.463 230.705 303.756L229.998 301.046C229.88 300.457 230.233 299.75 230.94 299.632L252.149 294.448C252.738 294.33 253.445 294.683 253.563 295.39L254.27 298.1C254.388 298.689 254.034 299.278 253.327 299.514Z" fill="#F5F5F5"/>
<path d="M282.784 292.562L261.576 297.746C260.986 297.864 260.279 297.511 260.162 296.804L259.455 294.094C259.337 293.505 259.69 292.798 260.397 292.68L281.606 287.495C282.195 287.378 282.902 287.731 283.02 288.438L283.727 291.148C283.727 291.737 283.373 292.444 282.784 292.562Z" fill="#F5F5F5"/>
<path d="M226.345 322.49L205.137 327.675C204.547 327.793 203.841 327.439 203.723 326.732L203.016 324.022C202.898 323.433 203.251 322.726 203.958 322.608L225.167 317.424C225.756 317.306 226.463 317.66 226.581 318.367L227.288 321.077C227.288 321.666 226.934 322.373 226.345 322.49Z" fill="#F5F5F5"/>
<path d="M226.111 264.521L195.005 272.062C193.237 272.533 191.588 271.473 191.116 269.705L188.878 260.397L186.757 251.796C186.285 250.029 187.346 248.379 189.113 247.908L220.219 240.367C221.987 239.896 223.636 240.956 224.108 242.723L228.467 260.633C228.938 262.4 227.878 264.05 226.111 264.521Z" fill="#F5F5F5"/>
<path d="M186.993 262.636C186.168 262.636 185.461 262.047 185.226 261.34C184.99 260.397 185.579 259.455 186.522 259.219L225.758 249.321C226.7 249.086 227.643 249.675 227.879 250.618C228.114 251.56 227.525 252.503 226.583 252.738L187.347 262.636C187.229 262.636 187.111 262.636 186.993 262.636Z" fill="#3D85FD"/>
<path d="M207.26 261.813C210.579 261.813 213.269 259.122 213.269 255.804C213.269 252.485 210.579 249.794 207.26 249.794C203.942 249.794 201.251 252.485 201.251 255.804C201.251 259.122 203.942 261.813 207.26 261.813Z" fill="#F5F5F5"/>
<path d="M207.259 263.58C203.371 263.58 199.954 260.634 199.601 256.628C199.365 254.625 200.072 252.504 201.368 250.972C202.664 249.323 204.549 248.38 206.553 248.144C210.794 247.791 214.565 250.854 215.036 255.096C215.389 259.338 212.326 263.108 208.084 263.58C207.731 263.58 207.495 263.58 207.259 263.58ZM207.259 251.679C207.142 251.679 207.024 251.679 206.906 251.679C205.846 251.797 204.785 252.268 204.078 253.211C203.371 254.036 203.018 255.214 203.136 256.274C203.371 258.631 205.374 260.28 207.731 260.045C208.791 259.927 209.852 259.456 210.559 258.513C211.266 257.688 211.619 256.51 211.501 255.45C211.383 254.389 210.912 253.329 209.969 252.622C209.145 251.915 208.202 251.679 207.259 251.679Z" fill="#3D85FD"/>
<path d="M345.114 291.738C344.171 288.439 344.761 285.14 346.41 282.548C343.936 281.251 340.99 280.898 338.045 281.723C331.918 283.49 328.265 289.853 330.032 295.98C331.8 302.107 338.162 305.759 344.289 303.992C347.235 303.167 349.474 301.282 351.005 298.925C348.178 297.511 345.939 295.037 345.114 291.738Z" fill="#F5F5F5"/>
<path d="M357.014 276.42C354.069 277.245 351.83 279.13 350.298 281.487C348.649 284.197 348.059 287.496 349.002 290.677C349.945 293.976 352.183 296.451 354.893 297.865C357.368 299.161 360.313 299.514 363.259 298.689C369.386 296.922 373.039 290.559 371.271 284.432C369.504 278.188 363.141 274.653 357.014 276.42Z" fill="#F5F5F5"/>
<path d="M364.905 71.6436C365.023 71.4079 365.259 71.1723 365.612 70.9366L384.818 59.6253C385.643 59.154 386.585 59.3897 387.056 60.2145C387.528 61.0392 387.292 61.9818 386.467 62.4532L367.262 73.7644C366.437 74.2357 365.494 74.0001 365.023 73.1753C364.67 72.704 364.67 72.1149 364.905 71.6436Z" fill="#233863"/>
<path d="M351.826 68.5799C351.826 68.3442 351.826 68.1086 351.944 67.8729L361.134 38.1808C361.37 37.356 362.313 36.7669 363.255 37.1204C364.08 37.356 364.669 38.2987 364.316 39.2413L355.125 68.9334C354.89 69.7581 353.947 70.3473 353.004 69.9938C352.297 69.7581 351.826 69.169 351.826 68.5799Z" fill="#233863"/>
<path d="M319.778 40.7729C319.424 39.9481 319.778 39.0055 320.485 38.652C321.31 38.1807 322.252 38.5342 322.723 39.359L338.512 69.2867C338.983 70.1115 338.63 71.0541 337.805 71.5254C336.98 71.9967 336.038 71.6432 335.566 70.8185L319.778 40.7729C319.896 40.7729 319.778 40.7729 319.778 40.7729Z" fill="#233863"/>
<path d="M272.532 435.604C272.414 435.84 272.178 436.075 271.943 436.193L254.387 444.205C253.68 444.559 252.855 444.205 252.501 443.498C252.148 442.791 252.501 441.967 253.208 441.613L270.764 433.601C271.471 433.248 272.296 433.601 272.65 434.308C272.885 434.661 272.767 435.251 272.532 435.604Z" fill="#233863"/>
<path d="M283.489 439.493C283.489 439.729 283.489 439.846 283.371 440.082L272.766 464.825C272.413 465.532 271.588 465.886 270.881 465.532C270.174 465.179 269.821 464.354 270.174 463.647L280.779 438.904C281.132 438.197 281.957 437.843 282.664 438.197C283.135 438.315 283.489 438.904 283.489 439.493Z" fill="#233863"/>
<path d="M308.585 466.24C308.821 466.947 308.468 467.771 307.761 468.007C307.054 468.36 306.229 467.889 305.875 467.182L294.918 440.082C294.682 439.375 295.036 438.551 295.742 438.197C296.449 437.844 297.274 438.315 297.628 439.022L308.585 466.24C308.585 466.122 308.585 466.24 308.585 466.24Z" fill="#233863"/>
<path d="M89.0763 263.344L88.2516 243.078L123.128 275.598L90.8437 310.71L90.0189 290.444C90.0189 290.444 59.8555 284.435 40.8856 319.429C40.8856 319.429 34.7587 293.507 56.7921 273.595C56.9099 273.595 66.8073 263.58 89.0763 263.344Z" fill="#F5F5F5"/>
<path d="M41.004 321.197C40.8862 321.197 40.8862 321.197 40.7683 321.197C40.0614 321.079 39.4722 320.608 39.2366 319.901C39.1188 319.665 33.1097 292.683 55.7322 272.417C56.0857 272.064 65.8652 262.52 87.3095 261.695L86.6025 243.196C86.6025 242.489 86.956 241.782 87.663 241.547C88.3699 241.193 89.0769 241.429 89.5482 241.9L124.425 274.42C125.132 275.127 125.132 276.187 124.542 276.894L92.2582 312.006C91.7869 312.478 90.9621 312.713 90.373 312.478C89.666 312.242 89.1947 311.653 89.1947 310.946L88.4878 292.094C82.4786 291.387 58.6778 290.798 42.5357 320.372C42.3001 320.843 41.5931 321.197 41.004 321.197ZM90.2551 247.32L90.8443 263.344C90.8443 263.816 90.7265 264.287 90.373 264.641C90.0195 264.994 89.5482 265.23 89.0769 265.23C67.7504 265.465 58.2065 274.891 58.0887 275.009C42.7714 288.795 41.5931 305.88 42.0644 314.127C61.5057 283.375 90.1373 288.677 90.4908 288.795C91.3156 288.913 91.9047 289.62 91.9047 290.444L92.4938 306.469L120.654 275.834L90.2551 247.32Z" fill="#233863"/>
<path d="M446.208 332.863L445.618 353.129L412.981 318.371L447.504 285.497L446.915 305.763C446.915 305.763 476.607 313.775 497.933 280.077C497.933 280.077 502.293 306.352 478.963 324.733C479.081 324.851 468.477 334.159 446.208 332.863Z" fill="#F5F5F5"/>
<path d="M445.618 354.894C445.147 354.894 444.676 354.659 444.322 354.305L411.684 319.547C410.977 318.84 411.095 317.779 411.802 317.072L446.325 284.199C446.797 283.728 447.621 283.61 448.21 283.846C448.917 284.081 449.271 284.788 449.271 285.495L448.8 304.347C454.691 305.408 478.492 307.646 496.519 279.133C496.872 278.543 497.697 278.19 498.404 278.308C499.111 278.426 499.7 279.015 499.818 279.722C499.818 279.957 504.06 307.293 480.259 326.027C479.906 326.381 469.537 335.335 448.093 334.511L447.621 353.009C447.621 353.716 447.15 354.305 446.443 354.659C446.09 354.895 445.854 354.894 445.618 354.894ZM415.455 318.486L443.969 348.768L444.44 332.743C444.44 332.272 444.676 331.801 445.029 331.447C445.383 331.094 445.854 330.976 446.325 330.976C467.416 332.154 477.785 323.435 477.903 323.317C494.162 310.474 496.519 293.625 496.519 285.259C474.957 314.598 446.797 307.411 446.561 307.293C445.736 307.057 445.265 306.35 445.265 305.525L445.736 289.501L415.455 318.486Z" fill="#233863"/>
</svg>
