<svg width="542" height="493" viewBox="0 0 542 493" fill="none" xmlns="http://www.w3.org/2000/svg">
<g opacity="0.85">
<g opacity="0.85">
<g opacity="0.41">
<g opacity="0.41">
<g opacity="0.41">
<path opacity="0.41" d="M541.765 316.361C542.236 307.642 542.001 298.923 541.058 290.321C536.463 249.789 515.608 211.496 484.973 184.396C474.015 174.734 461.644 166.133 454.456 153.408C442.438 131.964 443.381 107.338 428.535 86.2472C413.689 65.0386 391.891 48.543 367.501 40.0595C294.449 14.8448 192.294 55.966 201.484 143.864C201.484 144.218 201.602 144.689 201.602 145.16C202.78 163.423 188.524 178.74 170.261 179.212C102.982 180.861 45.0117 232.705 32.64 298.451C24.6279 340.751 37.7065 387.056 68.6947 416.984C91.7886 439.253 122.777 451.625 153.765 459.991C215.859 476.84 281.252 480.374 345.35 474.012C405.323 468.003 468.595 450.682 507.36 404.612C527.98 379.987 539.88 348.527 541.765 316.361Z" fill="#BFDDE8"/>
</g>
</g>
</g>
<g opacity="0.31">
<path opacity="0.31" d="M233.415 33.8154C242.07 33.8154 249.086 26.7993 249.086 18.1446C249.086 9.48982 242.07 2.47375 233.415 2.47375C224.761 2.47375 217.745 9.48982 217.745 18.1446C217.745 26.7993 224.761 33.8154 233.415 33.8154Z" fill="#BFDDE8"/>
</g>
<g opacity="0.31">
<path opacity="0.31" d="M445.03 16.7303C449.52 16.7303 453.16 13.0904 453.16 8.60032C453.16 4.11025 449.52 0.470337 445.03 0.470337C440.54 0.470337 436.9 4.11025 436.9 8.60032C436.9 13.0904 440.54 16.7303 445.03 16.7303Z" fill="#BFDDE8"/>
</g>
<g opacity="0.31">
<path opacity="0.31" d="M159.773 64.0964C165.76 64.0964 170.613 59.2432 170.613 53.2565C170.613 47.2697 165.76 42.4165 159.773 42.4165C153.786 42.4165 148.933 47.2697 148.933 53.2565C148.933 59.2432 153.786 64.0964 159.773 64.0964Z" fill="#BFDDE8"/>
</g>
</g>
</g>
<g opacity="0.85">
<g opacity="0.85">
<g opacity="0.85">
<g opacity="0.47">
<path opacity="0.47" d="M4.24178 63.3899C-2.82776 49.7221 2.59222 32.873 16.26 25.9213C29.9278 18.8517 56.3208 19.4409 63.2725 33.1087C70.2242 46.7765 49.3691 58.4412 40.7678 71.1664C28.7495 88.9581 11.3113 77.0577 4.24178 63.3899Z" fill="#BFDDE8"/>
</g>
<g opacity="0.47">
<path opacity="0.47" d="M68.8107 488.976C57.3816 496.281 42.2999 493.1 34.8769 481.67C27.5717 470.241 25.6864 447.265 37.1155 439.842C48.5446 432.537 60.5629 449.975 72.5811 456.338C89.1945 465.293 80.2398 481.553 68.8107 488.976Z" fill="#BFDDE8"/>
</g>
</g>
<g opacity="0.85">
<g opacity="0.47">
<path opacity="0.47" d="M528.566 118.178C538.228 139.269 540.938 163.541 536.225 186.282C530.687 213.028 514.073 233.53 519.847 262.043C523.382 279.364 524.206 295.506 525.974 312.709C529.626 347.938 506.768 379.044 478.372 395.894C455.278 409.561 428.296 414.628 401.668 414.274C377.749 413.921 353.948 409.561 330.854 403.552C308.585 397.897 286.787 390.356 263.34 392.712C243.899 394.715 226.343 403.081 208.316 409.326C165.073 424.29 112.759 426.41 73.1694 403.67C47.8368 389.06 30.0452 365.259 22.1508 339.808C15.9061 319.425 15.0813 300.337 19.7943 279.482C24.6252 258.155 32.873 236.593 30.2808 214.324C28.5134 198.771 21.4439 183.807 22.74 168.254C23.5647 157.885 28.1599 148.224 33.6978 139.387C54.0816 107.338 88.2511 85.894 124.188 74.1114C158.122 63.0358 192.998 54.9058 228.346 57.6158C301.28 63.1536 316.244 51.6067 390.828 35.5824C439.018 25.3315 492.865 61.9753 521.025 104.51C523.853 108.87 526.327 113.465 528.566 118.178Z" fill="#BFDDE8"/>
</g>
<g opacity="0.85">
<g opacity="0.81">
<path opacity="0.81" d="M478.372 151.052C479.904 167.901 474.248 185.222 478.961 201.953C484.617 221.865 501.112 236.829 507.828 256.506C517.726 285.491 517.254 317.893 505.236 346.172C499.463 359.721 490.979 372.447 479.432 381.166C461.641 394.598 438.193 397.544 416.278 395.894C383.522 393.302 348.999 379.163 316.126 383.051C297.981 385.172 292.443 404.849 283.017 417.81C272.412 432.42 257.92 443.967 242.013 451.626C212.557 465.765 177.327 467.061 147.281 454.336C115.233 440.668 87.1903 407.323 89.0755 369.619C89.9003 352.181 96.9699 334.86 93.6707 317.658C89.6647 296.096 73.4047 276.536 61.6221 258.98C48.6613 239.657 40.767 216.563 39.2352 192.998C39.2352 192.762 39.2352 192.409 39.2352 192.173C36.8787 151.523 62.4469 114.408 101.212 101.683L183.572 74.5831C266.875 46.8941 350.295 47.8367 427.118 88.1331C443.731 96.8522 470.831 122.892 476.369 140.801C477.429 144.1 478.018 147.517 478.372 151.052Z" fill="#BFDDE8"/>
</g>
</g>
</g>
</g>
</g>
<path opacity="0.58" d="M528.566 429.947C531.494 429.947 533.868 427.573 533.868 424.645C533.868 421.716 531.494 419.343 528.566 419.343C525.638 419.343 523.264 421.716 523.264 424.645C523.264 427.573 525.638 429.947 528.566 429.947Z" fill="#407BFF"/>
<path opacity="0.58" d="M353.478 11.7837C356.602 11.7837 359.134 9.25157 359.134 6.12805C359.134 3.00453 356.602 0.472412 353.478 0.472412C350.355 0.472412 347.823 3.00453 347.823 6.12805C347.823 9.25157 350.355 11.7837 353.478 11.7837Z" fill="#3D85FD"/>
<path opacity="0.58" d="M101.802 491.804C104.73 491.804 107.104 489.43 107.104 486.502C107.104 483.574 104.73 481.2 101.802 481.2C98.8734 481.2 96.4995 483.574 96.4995 486.502C96.4995 489.43 98.8734 491.804 101.802 491.804Z" fill="#407BFF"/>
<path opacity="0.58" d="M426.647 491.686C428.924 491.686 430.771 489.839 430.771 487.562C430.771 485.284 428.924 483.438 426.647 483.438C424.369 483.438 422.523 485.284 422.523 487.562C422.523 489.839 424.369 491.686 426.647 491.686Z" fill="#407BFF"/>
<path opacity="0.58" d="M93.7889 46.5409C96.0665 46.5409 97.9128 44.6946 97.9128 42.417C97.9128 40.1394 96.0665 38.2931 93.7889 38.2931C91.5114 38.2931 89.665 40.1394 89.665 42.417C89.665 44.6946 91.5114 46.5409 93.7889 46.5409Z" fill="#407BFF"/>
<path opacity="0.58" d="M60.9158 89.6653C61.8919 89.6653 62.6832 88.874 62.6832 87.8979C62.6832 86.9218 61.8919 86.1305 60.9158 86.1305C59.9397 86.1305 59.1484 86.9218 59.1484 87.8979C59.1484 88.874 59.9397 89.6653 60.9158 89.6653Z" fill="#3D85FD"/>
<path opacity="0.58" d="M135.854 4.94868C137.221 4.94868 138.329 3.84088 138.329 2.47434C138.329 1.1078 137.221 0 135.854 0C134.488 0 133.38 1.1078 133.38 2.47434C133.38 3.84088 134.488 4.94868 135.854 4.94868Z" fill="#3D85FD"/>
<path opacity="0.58" d="M538.464 234.944C539.83 234.944 540.938 233.836 540.938 232.47C540.938 231.103 539.83 229.995 538.464 229.995C537.097 229.995 535.989 231.103 535.989 232.47C535.989 233.836 537.097 234.944 538.464 234.944Z" fill="#407BFF"/>
<path opacity="0.58" d="M514.781 82.5965C515.952 82.5965 516.902 81.6469 516.902 80.4756C516.902 79.3043 515.952 78.3547 514.781 78.3547C513.61 78.3547 512.66 79.3043 512.66 80.4756C512.66 81.6469 513.61 82.5965 514.781 82.5965Z" fill="#407BFF"/>
<path opacity="0.58" d="M486.149 33.1087C490.639 33.1087 494.279 29.4688 494.279 24.9787C494.279 20.4887 490.639 16.8488 486.149 16.8488C481.658 16.8488 478.019 20.4887 478.019 24.9787C478.019 29.4688 481.658 33.1087 486.149 33.1087Z" fill="#407BFF"/>
<path opacity="0.47" d="M6.48042 280.189C10.0595 280.189 12.9608 277.287 12.9608 273.708C12.9608 270.129 10.0595 267.228 6.48042 267.228C2.90138 267.228 0 270.129 0 273.708C0 277.287 2.90138 280.189 6.48042 280.189Z" fill="#BFDDE8"/>
<g opacity="0.86">
<g opacity="0.86">
<g opacity="0.44">
<path opacity="0.44" d="M274.769 406.146C193.705 406.146 127.958 340.399 127.958 259.335C127.958 178.27 193.705 112.524 274.769 112.524C355.833 112.524 421.58 178.27 421.58 259.335C421.58 340.399 355.951 406.146 274.769 406.146Z" fill="#F2F9FF"/>
</g>
<g opacity="0.86">
<path opacity="0.86" d="M274.769 406.146C193.705 406.146 127.958 340.399 127.958 259.335C127.958 178.27 193.705 112.524 274.769 112.524C355.833 112.524 421.58 178.27 421.58 259.335C421.58 340.399 355.951 406.146 274.769 406.146Z" fill="#F2F9FF"/>
</g>
<path opacity="0.86" d="M135.853 179.803C135.853 179.803 150.935 145.162 194.295 121.361" stroke="#F2F9FF" stroke-width="3" stroke-miterlimit="10" stroke-linecap="round" stroke-linejoin="round"/>
<path opacity="0.86" d="M321.899 410.152C321.899 410.152 386.821 392.832 410.622 339.81" stroke="#F2F9FF" stroke-width="3" stroke-miterlimit="10" stroke-linecap="round" stroke-linejoin="round"/>
<g opacity="0.86">
<path opacity="0.86" d="M359.134 128.431C359.134 128.431 393.775 143.512 417.575 186.872" stroke="#F2F9FF" stroke-width="3" stroke-miterlimit="10" stroke-linecap="round" stroke-linejoin="round"/>
</g>
<g opacity="0.86">
<path opacity="0.86" d="M128.784 314.478C128.784 314.478 146.104 379.4 199.126 403.2" stroke="#F2F9FF" stroke-width="3" stroke-miterlimit="10" stroke-linecap="round" stroke-linejoin="round"/>
</g>
</g>
</g>
<path d="M259.568 389.18L263.457 390.359C268.759 392.008 274.297 389.063 275.946 383.76L363.373 103.689C365.022 98.3865 362.077 92.8487 356.775 91.1991L352.886 90.0209C347.584 88.3713 342.046 91.3169 340.397 96.6191L252.97 376.691C251.321 381.875 254.266 387.531 259.568 389.18Z" fill="#233863"/>
<path d="M266.403 392.598C265.225 392.598 264.047 392.362 262.869 392.009L258.98 390.831C256.035 389.888 253.56 387.885 252.029 385.057C250.615 382.229 250.261 379.048 251.204 376.102L338.631 96.1484C339.573 93.2028 341.576 90.7284 344.404 89.1967C347.232 87.7828 350.413 87.4293 353.359 88.3719L357.247 89.5502C363.492 91.4354 366.909 98.0336 365.023 104.278L277.597 384.35C276.654 387.296 274.651 389.77 271.823 391.302C270.056 392.127 268.289 392.598 266.403 392.598Z" fill="#233863"/>
<path d="M410.033 454.691L280.543 414.277C266.522 409.918 258.745 395.072 263.105 381.05L349.824 103.099C354.184 89.078 369.03 81.3015 383.051 85.6611L512.542 126.075C526.563 130.435 534.34 145.281 529.98 159.302L443.26 437.253C438.901 451.157 424.055 459.051 410.033 454.691Z" fill="#407BFF"/>
<path d="M417.928 457.637C415.1 457.637 412.272 457.166 409.562 456.341L280.072 415.927C272.885 413.688 266.993 408.739 263.458 402.023C259.924 395.307 259.217 387.649 261.455 380.461L348.175 102.51C352.77 87.6642 368.677 79.2985 383.523 84.0116L513.013 124.426C527.859 129.021 536.225 144.928 531.512 159.774L444.792 437.725C441.14 449.861 429.946 457.637 417.928 457.637ZM410.623 452.924C416.868 454.927 423.584 454.338 429.475 451.275C435.366 448.211 439.608 443.027 441.611 436.782L528.331 158.831C532.337 145.87 525.15 131.967 512.071 127.843L382.58 87.4285C369.619 83.4225 355.716 90.6098 351.592 103.688L264.872 381.522C262.869 387.766 263.458 394.482 266.522 400.374C269.585 406.265 274.77 410.507 281.015 412.51L410.623 452.924Z" fill="#233863"/>
<path d="M514.328 159.053L363.159 111.863L328.574 222.652L479.742 269.843L514.328 159.053Z" fill="#F5F5F5"/>
<path d="M479.67 271.472C479.553 271.472 479.317 271.472 479.199 271.355L328.029 224.224C327.557 224.106 327.204 223.753 326.968 223.4C326.733 222.928 326.733 222.457 326.85 222.103L361.373 111.347C361.491 110.876 361.845 110.522 362.198 110.287C362.669 110.051 363.141 110.051 363.494 110.169L514.665 157.299C515.136 157.417 515.489 157.771 515.725 158.124C515.961 158.595 515.961 159.067 515.843 159.42L481.32 270.176C481.084 271.001 480.377 271.472 479.67 271.472ZM330.739 221.396L478.492 267.466L512.072 160.127L364.319 114.057L330.739 221.396Z" fill="#233863"/>
<path d="M496.046 138.33C495.928 138.33 495.81 138.33 495.693 138.33L390.238 105.338C389.649 105.103 389.296 104.514 389.414 103.807C389.649 103.217 390.238 102.864 390.945 102.982L496.399 135.973C496.989 136.209 497.342 136.798 497.224 137.505C496.989 137.976 496.517 138.33 496.046 138.33Z" fill="#F5F5F5"/>
<path d="M390.12 141.393L366.555 134.088C365.848 133.852 365.377 133.028 365.613 132.321L367.026 127.961C367.262 127.254 368.087 126.783 368.794 127.018L392.359 134.324C393.066 134.559 393.537 135.384 393.302 136.091L391.888 140.451C391.652 141.275 390.827 141.629 390.12 141.393Z" fill="#F5F5F5"/>
<path d="M390.474 142.689C390.238 142.689 390.002 142.689 389.649 142.571L366.084 135.266C364.788 134.794 363.963 133.381 364.434 132.084L365.848 127.725C366.084 127.018 366.555 126.547 367.144 126.193C367.733 125.84 368.44 125.84 369.147 125.958L392.712 133.263C393.419 133.498 393.891 133.97 394.244 134.559C394.598 135.148 394.598 135.855 394.362 136.562L392.948 140.921C392.712 141.628 392.241 142.1 391.652 142.453C391.299 142.571 390.945 142.689 390.474 142.689ZM390.474 140.332C390.592 140.332 390.709 140.332 390.709 140.214L392.123 135.855C392.123 135.737 392.123 135.619 392.006 135.619L368.44 128.314C368.323 128.314 368.205 128.314 368.205 128.432L366.791 132.791C366.791 132.909 366.791 133.027 366.909 133.027L390.474 140.332Z" fill="#233863"/>
<path d="M424.998 152.35L401.433 145.045C400.726 144.809 400.254 143.984 400.49 143.277L401.904 138.918C402.14 138.211 402.964 137.739 403.671 137.975L427.236 145.28C427.943 145.516 428.415 146.341 428.179 147.048L426.765 151.407C426.529 152.114 425.823 152.586 424.998 152.35Z" fill="#F5F5F5"/>
<path d="M425.468 153.529C425.233 153.529 424.997 153.529 424.644 153.411L401.078 146.106C399.782 145.634 398.958 144.221 399.429 142.924L400.843 138.565C401.314 137.269 402.728 136.444 404.024 136.915L427.589 144.221C428.296 144.456 428.767 144.928 429.121 145.517C429.474 146.106 429.474 146.813 429.357 147.52L427.943 151.879C427.707 152.586 427.236 153.057 426.647 153.411C426.293 153.411 425.822 153.529 425.468 153.529ZM425.351 151.172C425.468 151.172 425.586 151.172 425.586 151.054L427 146.695C427 146.577 427 146.459 426.882 146.459L403.317 139.154C403.199 139.154 403.082 139.154 403.082 139.272L401.668 143.631C401.668 143.749 401.668 143.867 401.785 143.867L425.351 151.172Z" fill="#233863"/>
<path d="M462.701 164.014L439.136 156.709C438.429 156.474 437.957 155.649 438.193 154.942L439.607 150.582C439.843 149.875 440.667 149.404 441.374 149.64L464.94 156.945C465.647 157.181 466.118 158.005 465.882 158.712L464.468 163.072C464.115 163.897 463.408 164.25 462.701 164.014Z" fill="#F5F5F5"/>
<path d="M463.055 165.311C462.819 165.311 462.583 165.311 462.348 165.193L438.783 157.888C437.486 157.417 436.662 156.003 437.133 154.707L438.547 150.347C438.783 149.64 439.254 149.169 439.843 148.815C440.432 148.462 441.139 148.462 441.846 148.58L465.411 155.885C466.707 156.356 467.532 157.77 467.061 159.066L465.647 163.426C465.176 164.604 464.115 165.311 463.055 165.311ZM463.055 162.954C463.173 162.954 463.29 162.954 463.29 162.837L464.704 158.477C464.704 158.359 464.704 158.241 464.586 158.241L441.021 150.936C440.903 150.936 440.786 150.936 440.786 151.054L439.372 155.296C439.372 155.414 439.372 155.531 439.49 155.531L463.055 162.954Z" fill="#233863"/>
<path d="M498.048 175.09L474.483 167.785C473.776 167.549 473.305 166.724 473.54 166.017L474.954 161.658C475.19 160.951 476.015 160.479 476.722 160.715L500.287 168.02C500.994 168.256 501.465 169.081 501.229 169.788L499.815 174.147C499.58 174.972 498.755 175.325 498.048 175.09Z" fill="#F5F5F5"/>
<path d="M498.521 176.386C498.285 176.386 498.049 176.386 497.696 176.268L474.131 168.963C473.424 168.727 472.952 168.256 472.599 167.667C472.245 167.078 472.245 166.371 472.481 165.664L473.895 161.304C474.366 160.008 475.78 159.184 477.076 159.655L500.641 166.96C501.938 167.431 502.762 168.845 502.291 170.141L500.877 174.501C500.641 175.208 500.17 175.679 499.581 176.033C499.228 176.268 498.874 176.386 498.521 176.386ZM498.403 174.03C498.521 174.03 498.638 174.03 498.638 173.912L500.052 169.552C500.052 169.434 500.052 169.317 499.935 169.317L476.369 162.011C476.252 162.011 476.134 162.011 476.134 162.129L474.72 166.489C474.72 166.607 474.72 166.724 474.838 166.724L498.403 174.03Z" fill="#233863"/>
<path d="M475.373 276.093L328.366 230.201L319.869 257.42L466.876 303.312L475.373 276.093Z" fill="#233863"/>
<path d="M466.944 305.052C466.708 305.052 466.59 305.052 466.472 304.934L319.426 258.982C318.483 258.747 318.012 257.686 318.248 256.744L326.731 229.526C326.849 229.055 327.202 228.701 327.556 228.465C328.027 228.23 328.498 228.23 328.852 228.348L475.898 274.3C476.841 274.535 477.312 275.596 477.077 276.538L468.593 303.756C468.475 304.227 468.122 304.581 467.768 304.817C467.533 305.052 467.179 305.052 466.944 305.052ZM322.136 256.272L465.765 301.164L473.188 277.363L329.559 232.472L322.136 256.272Z" fill="#233863"/>
<path d="M369.383 264.52C369.148 264.52 368.794 264.52 368.559 264.403L342.519 256.273C340.987 255.801 340.045 254.152 340.634 252.62L342.873 245.315C343.108 244.608 343.579 243.901 344.286 243.547C344.993 243.194 345.818 243.076 346.525 243.312L372.565 251.442C373.272 251.677 373.979 252.149 374.332 252.856C374.685 253.563 374.803 254.387 374.568 255.094L372.211 262.517C371.74 263.696 370.562 264.52 369.383 264.52ZM368.794 263.224C369.737 263.46 370.679 262.989 371.033 262.046L373.272 254.741C373.389 254.27 373.389 253.798 373.154 253.445C372.918 252.974 372.565 252.738 372.093 252.62L346.054 244.49C345.583 244.372 345.111 244.372 344.758 244.608C344.286 244.844 344.051 245.197 343.933 245.668L341.694 252.974C341.459 253.916 341.93 254.859 342.873 255.212L368.794 263.224Z" fill="#F5F5F5"/>
<path d="M409.68 277.128C409.326 277.128 409.091 277.128 408.855 277.01L382.816 268.88C382.109 268.644 381.402 268.173 381.048 267.466C380.695 266.759 380.577 265.934 380.813 265.227L383.051 257.922C383.287 257.215 383.758 256.508 384.465 256.155C385.172 255.801 385.997 255.683 386.704 255.919L412.743 264.049C413.45 264.285 414.157 264.756 414.511 265.463C414.864 266.17 414.982 266.995 414.746 267.702L412.508 275.007C412.272 275.714 411.801 276.421 411.094 276.774C410.622 277.01 410.151 277.128 409.68 277.128ZM409.091 275.832C409.562 275.949 410.033 275.949 410.387 275.714C410.858 275.478 411.094 275.125 411.212 274.653L413.45 267.348C413.568 266.877 413.568 266.405 413.332 266.052C413.097 265.581 412.743 265.345 412.272 265.227L386.233 257.097C385.761 256.979 385.29 256.979 384.936 257.215C384.465 257.451 384.23 257.804 384.112 258.275L381.873 265.581C381.755 266.052 381.755 266.523 381.991 266.877C382.226 267.348 382.58 267.584 383.051 267.702L409.091 275.832Z" fill="#F5F5F5"/>
<path d="M450.448 289.853C450.094 289.853 449.859 289.853 449.623 289.735L423.584 281.605C422.052 281.134 421.109 279.484 421.698 277.953L423.937 270.647C424.173 269.941 424.644 269.234 425.351 268.88C426.058 268.527 426.883 268.409 427.59 268.644L453.629 276.774C454.336 277.01 455.043 277.481 455.396 278.188C455.75 278.895 455.868 279.72 455.632 280.427L453.393 287.732C453.158 288.439 452.687 289.146 451.98 289.5C451.39 289.735 450.919 289.853 450.448 289.853ZM449.859 288.557C450.33 288.675 450.801 288.675 451.155 288.439C451.626 288.204 451.862 287.85 451.98 287.379L454.218 280.074C454.336 279.602 454.336 279.131 454.1 278.777C453.865 278.306 453.511 278.071 453.04 277.953L427 269.823C426.529 269.705 426.058 269.705 425.704 269.941C425.233 270.176 424.997 270.53 424.88 271.001L422.641 278.306C422.405 279.249 422.877 280.191 423.819 280.545L449.859 288.557Z" fill="#F5F5F5"/>
<path d="M337.098 314.008L318.364 308.116C313.062 306.467 310.116 300.811 311.766 295.627L315.183 284.787C316.832 279.485 322.488 276.539 327.672 278.188L346.406 284.08C351.709 285.729 354.654 291.385 353.005 296.569L349.588 307.409C347.938 312.711 342.282 315.657 337.098 314.008Z" fill="#5A6F8E"/>
<path d="M340.044 316.246C338.865 316.246 337.687 316.01 336.509 315.657L317.775 309.766C311.53 307.88 308.113 301.282 309.998 295.037L313.415 284.197C315.3 277.953 321.898 274.536 328.143 276.421L346.877 282.312C353.122 284.197 356.539 290.796 354.654 297.04L351.237 307.88C350.294 310.826 348.291 313.3 345.464 314.832C343.814 315.775 341.929 316.246 340.044 316.246ZM324.726 279.602C321.191 279.602 318.01 281.841 316.832 285.376L313.415 296.216C312.119 300.575 314.475 305.17 318.835 306.466L337.569 312.358C339.69 313.065 341.929 312.829 343.814 311.769C345.817 310.708 347.231 309.059 347.82 306.938L351.237 296.098C352.533 291.738 350.177 287.143 345.817 285.847L327.083 279.956C326.376 279.72 325.551 279.602 324.726 279.602Z" fill="#233863"/>
<path d="M388.235 330.033L369.501 324.141C364.199 322.492 361.253 316.836 362.903 311.652L366.32 300.812C367.969 295.51 373.625 292.564 378.809 294.214L397.544 300.105C402.846 301.754 405.791 307.41 404.142 312.594L400.725 323.434C399.075 328.619 393.42 331.564 388.235 330.033Z" fill="#5A6F8E"/>
<path d="M391.181 332.153C390.003 332.153 388.825 331.918 387.647 331.564L368.912 325.673C362.667 323.788 359.251 317.189 361.136 310.945L364.553 300.105C365.495 297.159 367.498 294.685 370.326 293.153C373.154 291.739 376.335 291.385 379.281 292.328L398.015 298.219C404.26 300.105 407.677 306.703 405.792 312.948L402.375 323.788C401.432 326.733 399.429 329.208 396.601 330.739C394.952 331.8 393.067 332.153 391.181 332.153ZM388.707 328.265C390.828 328.972 393.066 328.736 394.952 327.676C396.955 326.615 398.369 324.966 398.958 322.845L402.375 312.005C403.082 309.884 402.846 307.645 401.786 305.76C400.725 303.757 399.076 302.343 396.955 301.754L378.22 295.863C376.1 295.156 373.861 295.392 371.976 296.452C369.973 297.512 368.559 299.162 367.97 301.283L364.553 312.123C363.846 314.244 364.081 316.482 365.142 318.368C366.202 320.371 367.852 321.785 369.973 322.374L388.707 328.265Z" fill="#233863"/>
<path d="M438.546 345.703L419.812 339.812C414.51 338.162 411.564 332.507 413.214 327.322L416.631 316.482C418.28 311.18 423.936 308.234 429.12 309.884L447.855 315.775C453.157 317.425 456.102 323.08 454.453 328.265L451.036 339.105C449.386 344.407 443.849 347.353 438.546 345.703Z" fill="#5A6F8E"/>
<path d="M441.493 347.942C440.315 347.942 439.136 347.824 437.958 347.352L419.224 341.461C412.979 339.576 409.562 332.978 411.447 326.733L414.864 315.893C415.807 312.947 417.81 310.473 420.638 308.941C423.466 307.527 426.647 307.174 429.592 308.116L448.327 314.008C454.572 315.893 457.988 322.491 456.103 328.736L452.686 339.576C451.155 344.642 446.559 347.942 441.493 347.942ZM426.175 311.298C424.879 311.298 423.583 311.651 422.405 312.24C420.402 313.301 418.988 314.95 418.399 317.071L414.982 327.911C413.686 332.271 416.042 336.866 420.402 338.162L439.136 344.053C443.496 345.349 448.091 342.993 449.387 338.633L452.804 327.793C454.1 323.434 451.744 318.839 447.384 317.542L428.65 311.651C427.825 311.416 427 311.298 426.175 311.298Z" fill="#233863"/>
<path d="M324.609 354.068L305.875 348.176C300.573 346.527 297.627 340.871 299.277 335.687L302.694 324.847C304.343 319.545 309.999 316.599 315.183 318.249L333.918 324.14C339.22 325.789 342.165 331.445 340.516 336.629L337.099 347.469C335.449 352.771 329.794 355.717 324.609 354.068Z" fill="#5A6F8E"/>
<path d="M327.555 356.306C326.377 356.306 325.199 356.188 324.02 355.717L305.286 349.825C302.34 348.883 299.866 346.88 298.334 344.052C296.92 341.224 296.567 338.043 297.509 335.097L300.926 324.257C302.812 318.012 309.41 314.595 315.655 316.481L334.389 322.372C337.335 323.315 339.809 325.318 341.341 328.145C342.872 330.973 343.108 334.155 342.165 337.1L338.749 347.94C337.217 353.007 332.622 356.306 327.555 356.306ZM325.081 352.418C329.44 353.714 334.035 351.357 335.332 346.998L338.749 336.158C339.455 334.037 339.22 331.798 338.159 329.913C337.099 327.91 335.449 326.496 333.329 325.907L314.594 320.015C312.473 319.309 310.235 319.544 308.349 320.605C306.346 321.665 304.932 323.315 304.343 325.435L300.926 336.275C300.219 338.396 300.455 340.635 301.516 342.52C302.576 344.523 304.226 345.937 306.346 346.526L325.081 352.418Z" fill="#233863"/>
<path d="M375.746 369.976L357.011 364.084C351.709 362.435 348.764 356.779 350.413 351.595L353.83 340.755C355.48 335.453 361.135 332.507 366.32 334.156L385.054 340.048C390.356 341.697 393.302 347.353 391.652 352.537L388.235 363.377C386.586 368.679 380.93 371.625 375.746 369.976Z" fill="#5A6F8E"/>
<path d="M378.692 372.214C377.514 372.214 376.335 372.096 375.157 371.624L356.423 365.733C353.477 364.791 351.003 362.787 349.471 359.96C348.057 357.132 347.704 353.951 348.646 351.005L352.063 340.165C353.948 333.92 360.547 330.503 366.791 332.388L385.526 338.28C388.471 339.222 390.946 341.225 392.477 344.053C393.891 346.881 394.245 350.062 393.302 353.008L389.885 363.848C388.353 369.032 383.64 372.214 378.692 372.214ZM376.217 368.325C380.577 369.621 385.172 367.265 386.468 362.905L389.885 352.065C390.592 349.944 390.357 347.706 389.296 345.821C388.236 343.818 386.586 342.404 384.465 341.814L365.731 335.923C361.371 334.627 356.776 336.984 355.48 341.343L352.063 352.183C351.356 354.304 351.592 356.543 352.652 358.428C353.713 360.431 355.362 361.845 357.483 362.434L376.217 368.325Z" fill="#233863"/>
<path d="M426.059 385.763L407.325 379.872C402.023 378.222 399.077 372.567 400.727 367.383L404.143 356.543C405.793 351.24 411.449 348.295 416.633 349.944L435.367 355.836C440.669 357.485 443.615 363.141 441.966 368.325L438.549 379.165C436.899 384.467 431.361 387.413 426.059 385.763Z" fill="#5A6F8E"/>
<path d="M429.004 388.001C427.826 388.001 426.648 387.883 425.469 387.412L406.735 381.521C400.49 379.635 397.073 373.037 398.958 366.792L402.375 355.952C404.261 349.708 410.859 346.291 417.104 348.176L435.838 354.067C438.784 355.01 441.258 357.013 442.79 359.841C444.204 362.669 444.557 365.85 443.614 368.796L440.198 379.635C438.666 384.702 434.071 388.001 429.004 388.001ZM426.53 383.995C430.889 385.291 435.484 382.935 436.781 378.575L440.198 367.735C440.904 365.614 440.669 363.376 439.608 361.49C438.548 359.487 436.898 358.073 434.778 357.484L416.043 351.593C413.922 350.886 411.684 351.122 409.798 352.182C407.795 353.243 406.381 354.892 405.792 357.013L402.375 367.853C401.079 372.212 403.436 376.808 407.795 378.104L426.53 383.995Z" fill="#233863"/>
<path d="M312.119 394.131L293.385 388.239C288.083 386.59 285.137 380.934 286.787 375.75L290.204 364.91C291.853 359.608 297.509 356.662 302.693 358.312L321.427 364.203C326.73 365.852 329.675 371.508 328.026 376.692L324.609 387.532C322.959 392.717 317.303 395.662 312.119 394.131Z" fill="#3AAED5"/>
<path d="M315.066 396.25C313.888 396.25 312.71 396.014 311.532 395.66L292.797 389.769C289.852 388.827 287.377 386.824 285.846 383.996C284.432 381.168 284.078 377.987 285.021 375.041L288.438 364.201C289.38 361.255 291.383 358.781 294.211 357.249C297.039 355.835 300.22 355.482 303.166 356.425L321.9 362.316C328.145 364.201 331.562 370.799 329.677 377.044L326.26 387.884C325.317 390.83 323.314 393.304 320.486 394.836C318.837 395.896 316.951 396.25 315.066 396.25ZM312.592 392.361C314.713 393.068 316.952 392.833 318.837 391.772C320.84 390.712 322.254 389.062 322.843 386.941L326.26 376.101C326.967 373.981 326.731 371.742 325.671 369.857C324.61 367.854 322.961 366.44 320.84 365.851L302.105 359.959C299.985 359.252 297.746 359.488 295.861 360.548C293.858 361.609 292.444 363.258 291.855 365.379L288.438 376.219C287.731 378.34 287.966 380.579 289.027 382.464C290.087 384.467 291.737 385.881 293.858 386.47L312.592 392.361Z" fill="#233863"/>
<path d="M363.255 410.034L344.521 404.143C339.219 402.494 336.273 396.838 337.923 391.654L341.34 380.814C342.989 375.511 348.645 372.566 353.829 374.215L372.564 380.107C377.866 381.756 380.811 387.412 379.162 392.596L375.745 403.436C374.095 408.738 368.44 411.684 363.255 410.034Z" fill="#F5F5F5"/>
<path d="M366.201 412.274C365.023 412.274 363.845 412.038 362.666 411.684L343.932 405.793C340.986 404.851 338.512 402.848 336.98 400.02C335.566 397.192 335.213 394.011 336.155 391.065L339.572 380.225C340.515 377.279 342.518 374.805 345.346 373.273C348.174 371.859 351.355 371.506 354.301 372.448L373.035 378.34C379.28 380.225 382.697 386.941 380.811 393.068L377.394 403.908C376.452 406.854 374.449 409.328 371.621 410.86C369.971 411.802 368.086 412.274 366.201 412.274ZM350.884 375.63C349.588 375.63 348.292 375.983 347.113 376.572C345.11 377.633 343.696 379.282 343.107 381.403L339.69 392.243C338.983 394.364 339.219 396.603 340.279 398.488C341.34 400.491 342.989 401.905 345.11 402.494L363.845 408.385C365.965 409.092 368.204 408.857 370.089 407.796C372.092 406.736 373.506 405.086 374.095 402.965L377.512 392.125C378.808 387.766 376.452 383.171 372.092 381.875L353.358 375.983C352.533 375.748 351.708 375.63 350.884 375.63Z" fill="#233863"/>
<path d="M413.569 425.706L394.835 419.815C389.533 418.165 386.587 412.51 388.237 407.325L391.654 396.485C393.303 391.183 398.959 388.238 404.143 389.887L422.878 395.778C428.18 397.428 431.125 403.084 429.476 408.268L426.059 419.108C424.409 424.41 418.871 427.356 413.569 425.706Z" fill="#3D85FD"/>
<path d="M416.515 427.944C415.337 427.944 414.159 427.708 412.98 427.355L394.246 421.463C391.3 420.521 388.826 418.518 387.294 415.69C385.88 412.862 385.527 409.681 386.469 406.735L389.886 395.895C390.829 392.949 392.832 390.475 395.66 388.943C398.488 387.529 401.669 387.176 404.615 388.119L423.349 394.01C426.295 394.953 428.769 396.956 430.301 399.783C431.715 402.611 432.068 405.792 431.125 408.738L427.708 419.578C426.766 422.524 424.763 424.998 421.935 426.53C420.285 427.472 418.4 427.944 416.515 427.944ZM414.041 424.055C416.162 424.762 418.4 424.527 420.285 423.466C422.288 422.406 423.702 420.756 424.292 418.635L427.708 407.795C428.415 405.675 428.18 403.436 427.119 401.551C426.059 399.548 424.409 398.134 422.288 397.545L403.554 391.653C401.433 390.946 399.195 391.182 397.309 392.243C395.306 393.303 393.892 394.953 393.303 397.073L389.886 407.913C389.179 410.034 389.415 412.273 390.476 414.158C391.536 416.161 393.186 417.575 395.306 418.164L414.041 424.055Z" fill="#233863"/>
<path d="M408.028 460.818L278.773 420.404C274.65 419.107 272.293 414.63 273.589 410.506C274.885 406.382 279.363 404.026 283.487 405.322L412.741 445.618C416.865 446.914 419.222 451.392 417.926 455.516C416.63 459.757 412.152 462.114 408.028 460.818Z" fill="#233863"/>
<path d="M410.386 462.939C409.443 462.939 408.501 462.822 407.558 462.468L278.303 422.172C273.237 420.522 270.291 415.102 271.941 410.036C273.59 404.969 279.01 402.023 284.077 403.673L413.331 443.969C415.806 444.794 417.809 446.444 418.987 448.682C420.165 451.039 420.401 453.631 419.694 456.105C418.398 460.229 414.51 462.939 410.386 462.939ZM408.501 459.051C411.8 460.111 415.217 458.226 416.277 455.045C416.748 453.513 416.631 451.864 415.806 450.332C414.981 448.918 413.803 447.74 412.153 447.268L282.898 406.972C279.599 405.912 276.182 407.797 275.122 410.978C274.061 414.277 275.947 417.694 279.128 418.755L408.501 459.051Z" fill="#233863"/>
<path d="M403.199 401.552C404.761 401.552 406.027 400.286 406.027 398.724C406.027 397.162 404.761 395.896 403.199 395.896C401.638 395.896 400.372 397.162 400.372 398.724C400.372 400.286 401.638 401.552 403.199 401.552Z" fill="#F5F5F5"/>
<path d="M352.769 386.234C354.331 386.234 355.597 384.968 355.597 383.406C355.597 381.845 354.331 380.579 352.769 380.579C351.207 380.579 349.941 381.845 349.941 383.406C349.941 384.968 351.207 386.234 352.769 386.234Z" fill="#F5F5F5"/>
<path d="M299.984 369.385C301.546 369.385 302.812 368.119 302.812 366.558C302.812 364.996 301.546 363.73 299.984 363.73C298.422 363.73 297.156 364.996 297.156 366.558C297.156 368.119 298.422 369.385 299.984 369.385Z" fill="#F5F5F5"/>
<path d="M418.045 420.639C418.826 420.639 419.459 420.006 419.459 419.225C419.459 418.444 418.826 417.811 418.045 417.811C417.264 417.811 416.631 418.444 416.631 419.225C416.631 420.006 417.264 420.639 418.045 420.639Z" fill="#F5F5F5"/>
<path d="M426.293 318.25C427.335 318.25 428.179 317.406 428.179 316.365C428.179 315.324 427.335 314.48 426.293 314.48C425.252 314.48 424.408 315.324 424.408 316.365C424.408 317.406 425.252 318.25 426.293 318.25Z" fill="#233863"/>
<path d="M412.861 360.313C413.902 360.313 414.747 359.469 414.747 358.428C414.747 357.387 413.902 356.543 412.861 356.543C411.82 356.543 410.976 357.387 410.976 358.428C410.976 359.469 411.82 360.313 412.861 360.313Z" fill="#233863"/>
<path d="M469.536 254.034C472.269 254.034 474.484 251.819 474.484 249.086C474.484 246.352 472.269 244.137 469.536 244.137C466.803 244.137 464.587 246.352 464.587 249.086C464.587 251.819 466.803 254.034 469.536 254.034Z" fill="#407BFF"/>
<path d="M469.535 255.802C465.883 255.802 462.819 252.856 462.819 249.086C462.819 245.433 465.765 242.37 469.535 242.37C473.188 242.37 476.251 245.316 476.251 249.086C476.251 252.856 473.188 255.802 469.535 255.802ZM469.535 246.022C467.768 246.022 466.354 247.436 466.354 249.204C466.354 250.971 467.768 252.385 469.535 252.385C471.303 252.385 472.717 250.971 472.717 249.204C472.717 247.319 471.303 246.022 469.535 246.022Z" fill="#233863"/>
<path d="M191.704 465.413C224.371 465.413 250.852 438.931 250.852 406.265C250.852 373.598 224.371 347.116 191.704 347.116C159.037 347.116 132.555 373.598 132.555 406.265C132.555 438.931 159.037 465.413 191.704 465.413Z" fill="#233863"/>
<path d="M185.93 462.232C218.597 462.232 245.078 435.75 245.078 403.083C245.078 370.416 218.597 343.935 185.93 343.935C153.263 343.935 126.781 370.416 126.781 403.083C126.781 435.75 153.263 462.232 185.93 462.232Z" fill="#233863"/>
<path d="M185.93 462.232C218.597 462.232 245.078 435.75 245.078 403.083C245.078 370.416 218.597 343.935 185.93 343.935C153.263 343.935 126.781 370.416 126.781 403.083C126.781 435.75 153.263 462.232 185.93 462.232Z" fill="#F5F5F5"/>
<path d="M185.93 464.117C152.35 464.117 125.014 436.782 125.014 403.202C125.014 369.621 152.35 342.286 185.93 342.286C219.51 342.286 246.846 369.621 246.846 403.202C246.964 436.664 219.51 464.117 185.93 464.117ZM185.93 345.703C154.235 345.703 128.549 371.506 128.549 403.084C128.549 434.779 154.353 460.465 185.93 460.465C217.507 460.465 243.311 434.661 243.311 403.084C243.429 371.389 217.625 345.703 185.93 345.703Z" fill="#233863"/>
<path d="M185.93 451.98C158.948 451.98 137.032 430.064 137.032 403.082C137.032 376.1 158.948 354.184 185.93 354.184C212.912 354.184 234.828 376.1 234.828 403.082C234.828 430.064 212.912 451.98 185.93 451.98ZM185.93 356.541C160.244 356.541 139.389 377.396 139.389 403.082C139.389 428.768 160.244 449.623 185.93 449.623C211.616 449.623 232.471 428.768 232.471 403.082C232.471 377.396 211.616 356.541 185.93 356.541Z" fill="#F5F5F5"/>
<path d="M185.458 446.677C161.422 446.677 141.863 427.118 141.863 403.082C141.863 379.045 161.422 359.486 185.458 359.486C209.495 359.486 229.054 379.045 229.054 403.082C228.936 427.118 209.377 446.677 185.458 446.677ZM185.458 361.843C162.718 361.843 144.219 380.341 144.219 403.082C144.219 425.822 162.718 444.321 185.458 444.321C208.199 444.321 226.697 425.822 226.697 403.082C226.58 380.341 208.081 361.843 185.458 361.843Z" fill="#F5F5F5"/>
<path d="M201.719 409.917C201.719 413.805 200.187 417.458 197.477 420.168C195.71 422.053 193.589 423.349 191.115 424.056V426.884C191.115 428.18 190.643 429.476 189.701 430.419C188.758 431.361 187.58 431.95 186.166 431.95C184.752 431.95 183.456 431.361 182.513 430.419C181.571 429.476 180.982 428.18 180.982 426.884V424.645H176.269C174.148 424.645 172.38 423.938 171.202 422.878C170.024 421.817 169.435 420.168 169.435 418.4C169.435 414.748 171.909 412.863 176.269 412.863H187.344C187.816 412.863 188.405 412.745 188.876 412.274C189.465 411.802 189.701 411.213 189.701 410.624C189.701 409.681 189.347 408.974 188.64 408.621C188.287 408.503 188.051 408.385 187.816 408.385C187.58 408.385 187.462 408.267 187.462 408.267H182.16C178.507 408.15 175.09 406.736 172.734 404.379C170.26 402.023 168.846 398.724 168.846 395.071C168.846 391.301 170.495 387.648 173.087 384.938C175.208 382.817 178.036 381.403 180.982 380.814V378.929C180.982 377.515 181.453 376.337 182.513 375.394C183.456 374.451 184.634 373.862 186.048 373.862C187.344 373.862 188.64 374.451 189.583 375.394C190.526 376.454 190.997 377.515 190.997 378.929V380.578H192.764C197.124 380.578 199.716 382.699 199.716 386.352C199.716 390.358 197.124 392.479 192.764 392.479H182.513C181.335 392.479 180.628 393.304 180.628 394.364C180.628 395.424 181.217 396.367 182.16 396.367H187.227C191.115 396.367 194.767 397.781 197.36 400.137C200.187 402.73 201.719 406.029 201.719 409.917Z" fill="#233863"/>
<path d="M215.033 409.209C217.375 409.209 219.274 407.31 219.274 404.968C219.274 402.625 217.375 400.726 215.033 400.726C212.69 400.726 210.791 402.625 210.791 404.968C210.791 407.31 212.69 409.209 215.033 409.209Z" fill="#233863"/>
<path d="M155.061 409.209C157.403 409.209 159.302 407.31 159.302 404.968C159.302 402.625 157.403 400.726 155.061 400.726C152.718 400.726 150.819 402.625 150.819 404.968C150.819 407.31 152.718 409.209 155.061 409.209Z" fill="#233863"/>
<path d="M124.895 350.416C136.673 350.416 146.221 340.868 146.221 329.09C146.221 317.311 136.673 307.763 124.895 307.763C113.117 307.763 103.568 317.311 103.568 329.09C103.568 340.868 113.117 350.416 124.895 350.416Z" fill="#233863"/>
<path d="M123.128 348.883C134.906 348.883 144.454 339.335 144.454 327.557C144.454 315.779 134.906 306.23 123.128 306.23C111.349 306.23 101.801 315.779 101.801 327.557C101.801 339.335 111.349 348.883 123.128 348.883Z" fill="#233863"/>
<path d="M123.128 348.883C134.906 348.883 144.454 339.335 144.454 327.557C144.454 315.779 134.906 306.23 123.128 306.23C111.349 306.23 101.801 315.779 101.801 327.557C101.801 339.335 111.349 348.883 123.128 348.883Z" fill="#F5F5F5"/>
<path d="M123.129 350.062C121.479 350.062 119.83 349.826 118.18 349.473C112.289 348.176 107.34 344.642 104.041 339.575C100.86 334.509 99.7992 328.5 101.095 322.608C102.391 316.717 105.926 311.768 110.993 308.469C116.059 305.288 122.068 304.227 127.96 305.524C133.851 306.82 138.8 310.354 142.099 315.421C145.28 320.487 146.34 326.497 145.044 332.388C142.806 342.874 133.497 350.062 123.129 350.062ZM123.129 307.291C119.358 307.291 115.588 308.351 112.289 310.472C107.694 313.418 104.63 317.895 103.452 323.08C102.274 328.382 103.216 333.802 106.162 338.279C109.107 342.874 113.585 345.938 118.769 347.116C129.609 349.59 140.449 342.639 142.923 331.799C144.102 326.497 143.159 321.077 140.213 316.599C137.268 312.004 132.79 308.94 127.606 307.762C126.074 307.409 124.543 307.291 123.129 307.291Z" fill="#233863"/>
<path d="M123.127 345.231C121.831 345.231 120.535 345.113 119.239 344.759C109.695 342.638 103.686 333.212 105.807 323.668C106.868 319.073 109.578 315.185 113.584 312.593C117.59 310.118 122.303 309.294 126.898 310.236C136.442 312.357 142.451 321.783 140.33 331.327C139.27 335.922 136.56 339.81 132.554 342.403C129.726 344.288 126.427 345.231 123.127 345.231ZM119.475 343.934C123.834 344.877 128.312 344.17 132.082 341.696C135.853 339.339 138.445 335.569 139.505 331.209C141.508 322.137 135.853 313.182 126.78 311.179C122.421 310.236 117.943 310.943 114.173 313.418C110.402 315.774 107.81 319.544 106.75 323.904C104.747 332.859 110.402 341.814 119.475 343.934Z" fill="#F5F5F5"/>
<path d="M122.893 343.228C121.714 343.228 120.654 343.11 119.476 342.875C110.992 340.99 105.69 332.506 107.575 324.023C108.518 319.899 110.992 316.364 114.527 314.125C118.062 311.887 122.303 311.18 126.427 312.004C134.911 313.89 140.213 322.373 138.328 330.857C136.678 338.28 130.08 343.228 122.893 343.228ZM122.893 312.594C120.065 312.594 117.355 313.418 114.998 314.95C111.699 317.071 109.343 320.37 108.4 324.258C106.633 332.271 111.699 340.283 119.711 342.05C123.6 342.875 127.606 342.168 130.905 340.047C134.322 337.926 136.56 334.627 137.503 330.739C138.328 326.851 137.621 322.844 135.5 319.545C133.379 316.128 130.08 313.89 126.192 312.947C125.131 312.711 123.953 312.594 122.893 312.594Z" fill="#F5F5F5"/>
<path d="M128.195 331.211C127.841 332.625 127.017 333.803 125.956 334.51C125.131 334.981 124.307 335.335 123.364 335.335L123.128 336.277C123.011 336.749 122.775 337.102 122.304 337.456C121.95 337.691 121.479 337.809 121.008 337.691C120.536 337.574 120.065 337.338 119.829 336.867C119.594 336.513 119.476 335.924 119.594 335.453L119.829 334.628L118.18 334.274C117.473 334.157 116.884 333.685 116.53 333.214C116.177 332.743 116.059 332.154 116.294 331.447C116.53 330.151 117.591 329.679 119.122 330.033L123.011 330.857C123.128 330.857 123.364 330.857 123.6 330.74C123.835 330.622 123.953 330.504 124.071 330.268C124.189 329.915 124.071 329.679 123.835 329.444C123.717 329.326 123.6 329.326 123.6 329.326C123.482 329.326 123.482 329.326 123.482 329.326L121.597 328.854C120.301 328.501 119.24 327.794 118.533 326.734C117.826 325.673 117.591 324.495 117.944 323.199C118.298 321.903 119.122 320.724 120.301 320.018C121.243 319.428 122.304 319.193 123.364 319.193L123.482 318.486C123.6 318.014 123.835 317.661 124.307 317.308C124.778 317.072 125.249 316.954 125.721 317.072C126.192 317.19 126.545 317.425 126.781 317.897C127.017 318.368 127.134 318.721 127.017 319.311L126.899 319.9L127.488 320.018C129.02 320.371 129.727 321.314 129.491 322.61C129.137 324.024 128.077 324.613 126.545 324.259L122.893 323.434C122.421 323.317 122.186 323.552 122.068 323.906C121.95 324.259 122.068 324.613 122.421 324.731L124.189 325.084C125.603 325.438 126.781 326.144 127.488 327.205C128.195 328.501 128.431 329.797 128.195 331.211Z" fill="#233863"/>
<path d="M133.262 331.917C134.108 331.917 134.793 331.231 134.793 330.385C134.793 329.539 134.108 328.854 133.262 328.854C132.416 328.854 131.73 329.539 131.73 330.385C131.73 331.231 132.416 331.917 133.262 331.917Z" fill="#233863"/>
<path d="M112.053 327.204C112.899 327.204 113.584 326.518 113.584 325.672C113.584 324.826 112.899 324.14 112.053 324.14C111.207 324.14 110.521 324.826 110.521 325.672C110.521 326.518 111.207 327.204 112.053 327.204Z" fill="#233863"/>
<path d="M88.1347 412.627C104.013 412.627 116.884 399.755 116.884 383.877C116.884 367.999 104.013 355.128 88.1347 355.128C72.2568 355.128 59.3853 367.999 59.3853 383.877C59.3853 399.755 72.2568 412.627 88.1347 412.627Z" fill="#233863"/>
<path d="M85.0713 411.802C100.949 411.802 113.821 398.93 113.821 383.052C113.821 367.175 100.949 354.303 85.0713 354.303C69.1934 354.303 56.3218 367.175 56.3218 383.052C56.3218 398.93 69.1934 411.802 85.0713 411.802Z" fill="#233863"/>
<path d="M85.0713 411.802C100.949 411.802 113.821 398.93 113.821 383.052C113.821 367.175 100.949 354.303 85.0713 354.303C69.1934 354.303 56.3218 367.175 56.3218 383.052C56.3218 398.93 69.1934 411.802 85.0713 411.802Z" fill="#F5F5F5"/>
<path d="M85.0714 413.688C71.7571 413.688 59.5032 404.851 55.615 391.419C51.0198 375.159 60.4458 358.31 76.7058 353.715C92.9657 349.12 109.815 358.546 114.41 374.806C119.005 391.066 109.579 407.915 93.3192 412.51C90.6092 413.335 87.7814 413.688 85.0714 413.688ZM85.0714 356.071C82.5971 356.071 80.1227 356.425 77.6484 357.132C63.2736 361.138 54.908 376.22 59.0319 390.476C63.038 404.851 78.1197 413.217 92.3766 409.093C99.3283 407.09 105.102 402.613 108.637 396.25C112.171 390.005 112.996 382.7 110.993 375.748C108.99 368.797 104.513 363.023 98.1501 359.488C94.144 357.25 89.6666 356.071 85.0714 356.071Z" fill="#233863"/>
<path d="M85.072 406.736C74.8212 406.736 65.2773 399.902 62.3316 389.533C58.7969 377.044 66.1021 363.847 78.5916 360.313C84.6007 358.545 91.0811 359.37 96.5011 362.433C102.039 365.497 106.045 370.563 107.695 376.573C109.462 382.582 108.637 389.062 105.574 394.482C102.51 400.02 97.4437 404.026 91.4346 405.676C89.3137 406.5 87.1929 406.736 85.072 406.736ZM85.072 360.313C82.9511 360.313 80.9481 360.548 78.8272 361.137C66.809 364.554 59.7395 377.162 63.1564 389.18C66.5733 401.198 79.1807 408.268 91.1989 404.851C97.0902 403.201 101.921 399.313 104.867 394.011C107.812 388.709 108.519 382.582 106.87 376.69C105.22 370.799 101.332 365.968 96.0298 363.023C92.7307 361.373 88.8424 360.313 85.072 360.313Z" fill="#F5F5F5"/>
<path d="M84.8362 404.262C81.3014 404.262 77.7666 403.319 74.5853 401.552C69.6366 398.842 66.1019 394.365 64.5701 388.945C63.0384 383.525 63.7454 377.869 66.4553 372.92C69.1653 367.972 73.6427 364.437 79.0627 362.905C84.4827 361.373 90.1383 362.08 95.087 364.79C100.036 367.5 103.57 371.978 105.102 377.398C106.634 382.818 105.927 388.473 103.217 393.422C100.507 398.371 96.0296 401.905 90.6096 403.437C88.6066 404.026 86.7214 404.262 84.8362 404.262ZM84.8362 363.023C82.951 363.023 81.1836 363.259 79.2984 363.848C74.114 365.262 69.8723 368.679 67.1623 373.392C64.5701 378.105 63.8632 383.525 65.3949 388.709C66.8088 393.893 70.2258 398.135 74.9388 400.845C79.6518 403.437 85.0718 404.144 90.2561 402.612C95.4405 401.198 99.6822 397.782 102.392 393.068C104.984 388.355 105.691 382.935 104.16 377.751C102.746 372.567 99.3287 368.325 94.6157 365.615C91.5522 363.848 88.2531 363.023 84.8362 363.023Z" fill="#F5F5F5"/>
<path d="M93.3169 384.233C93.7882 386 93.5526 388.003 92.7278 389.653C92.1387 390.713 91.3139 391.656 90.2535 392.363L90.6069 393.659C90.8426 394.248 90.7248 394.955 90.3713 395.544C90.0178 396.133 89.5465 396.486 88.9574 396.722C88.2504 396.958 87.6613 396.84 87.0722 396.486C86.483 396.133 86.1296 395.662 85.8939 395.073L85.5404 394.012L83.3017 394.601C82.3591 394.837 81.4165 394.837 80.7096 394.483C80.0026 394.13 79.5313 393.423 79.2957 392.598C78.8244 390.831 79.767 389.653 81.77 389.063L87.0722 387.414C87.3078 387.414 87.5435 387.178 87.6613 386.943C87.8969 386.707 87.8969 386.353 87.7791 386C87.6613 385.529 87.4256 385.293 86.9543 385.175C86.7187 385.175 86.6009 385.175 86.6009 385.175C86.483 385.175 86.3652 385.175 86.3652 385.175L83.8909 385.882C82.1235 386.353 80.3561 386.118 78.9422 385.293C77.5283 384.468 76.35 383.172 75.8787 381.405C75.4074 379.637 75.6431 377.752 76.5857 376.103C77.2926 374.807 78.4709 373.746 79.767 373.157L79.5313 372.332C79.2957 371.743 79.4135 371.036 79.767 370.447C80.1205 369.858 80.5917 369.504 81.2987 369.269C81.8878 369.151 82.5948 369.151 83.1839 369.504C83.773 369.858 84.1265 370.329 84.3622 371.036L84.5978 371.861L85.4226 371.625C87.4256 371.036 88.9574 371.743 89.4287 373.393C90.0178 375.278 89.0752 376.574 86.9543 377.163L82.1235 378.577C81.5344 378.695 81.2987 379.166 81.4165 379.755C81.5344 380.227 82.0057 380.58 82.477 380.462L84.8335 379.755C86.7187 379.284 88.4861 379.402 90.1356 380.227C91.6674 381.051 92.8456 382.347 93.3169 384.233Z" fill="#233863"/>
<path d="M98.8572 382.227C100.029 382.227 100.978 381.278 100.978 380.106C100.978 378.935 100.029 377.986 98.8572 377.986C97.6859 377.986 96.7363 378.935 96.7363 380.106C96.7363 381.278 97.6859 382.227 98.8572 382.227Z" fill="#233863"/>
<path d="M70.8137 390.24C71.9851 390.24 72.9346 389.29 72.9346 388.119C72.9346 386.948 71.9851 385.998 70.8137 385.998C69.6424 385.998 68.6929 386.948 68.6929 388.119C68.6929 389.29 69.6424 390.24 70.8137 390.24Z" fill="#233863"/>
<path d="M298.688 270.412L176.031 264.285C170.258 264.049 165.898 259.101 166.134 253.327L175.324 68.812C176.149 51.3738 190.995 37.9416 208.433 38.8843L289.851 42.8903C307.289 43.7151 320.721 58.5612 319.778 75.9994L310.588 259.454C310.352 265.935 304.932 270.765 298.688 270.412Z" fill="#233863"/>
<path d="M290.794 270.413L168.137 264.286C162.364 264.051 158.004 259.102 158.24 253.328L167.43 68.8132C168.255 51.375 183.101 37.9429 200.54 38.8855L281.957 42.8915C299.395 43.7163 312.827 58.5624 311.885 76.0006L302.694 259.455C302.459 265.936 297.039 270.767 290.794 270.413Z" fill="#F5F5F5"/>
<path d="M291.383 272.297C291.147 272.297 290.912 272.297 290.676 272.297L168.02 266.171C161.303 265.817 156.119 260.044 156.473 253.328L165.663 68.8124C166.134 59.9755 170.023 51.7276 176.621 45.7185C183.219 39.7094 191.82 36.6459 200.657 37.1173L282.075 41.1233C300.456 42.0659 314.595 57.7368 313.652 76.1176L304.462 259.572C304.226 266.76 298.335 272.297 291.383 272.297ZM290.912 268.645C296.214 268.881 300.809 264.757 301.045 259.454L310.235 75.9998C311.06 59.622 298.335 45.6007 281.957 44.7759L200.539 40.7698C192.645 40.4164 184.986 43.1264 179.095 48.4285C173.204 53.7307 169.669 61.0359 169.316 69.048L160.125 253.563C159.89 258.276 163.542 262.4 168.373 262.636L290.912 268.645Z" fill="#233863"/>
<path d="M280.544 43.0088L164.485 37.2353C151.171 36.5284 139.742 47.3684 139.035 61.2718L138.563 70.8157L255.918 76.707L256.389 67.1631C257.096 53.6131 267.701 43.1266 280.544 43.0088Z" fill="#F5F5F5"/>
<path d="M255.918 78.3558C255.918 78.3558 255.8 78.3558 255.918 78.3558L138.446 72.4645C137.503 72.4645 136.679 71.6397 136.796 70.5793L137.268 61.0354C137.621 53.8481 140.685 47.2498 145.751 42.3011C150.936 37.4703 157.534 34.9959 164.485 35.2316L280.544 41.005C281.015 41.005 281.486 41.2407 281.722 41.5942C282.076 41.9477 282.193 42.419 282.193 42.8903C282.193 43.8329 281.369 44.5398 280.426 44.5398C268.526 44.6576 258.628 54.4372 258.039 66.9267L257.568 76.4706C257.568 76.9419 257.332 77.4132 256.979 77.6489C256.743 78.238 256.272 78.3558 255.918 78.3558ZM140.449 69.1654L254.269 74.821L254.622 67.0445C255.093 57.0294 260.867 48.5459 268.879 44.1863L164.368 39.002C158.359 38.7664 152.703 40.8872 148.226 45.0111C143.748 49.2529 141.156 55.0263 140.802 61.2711L140.449 69.1654Z" fill="#233863"/>
<g opacity="0.11">
<path opacity="0.11" d="M280.544 43.0088L164.486 37.2353C151.171 36.5284 139.742 47.3684 139.035 61.2718L138.564 70.8157L255.918 76.707L256.39 67.1631C257.097 53.6131 267.701 43.1266 280.544 43.0088Z" fill="#233863"/>
</g>
<path d="M223.633 93.9096L193.941 92.3778C192.998 92.3778 192.174 91.553 192.292 90.4926C192.292 89.55 193.234 88.7252 194.177 88.843L223.751 90.3748C224.694 90.3748 225.518 91.1996 225.401 92.26C225.401 93.2026 224.576 93.9096 223.633 93.9096Z" fill="#233863"/>
<path d="M290.677 98.15L260.985 96.6183C260.042 96.6183 259.217 95.7935 259.335 94.7331C259.335 93.7905 260.278 92.9657 261.22 93.0835L290.794 94.6153C291.737 94.6153 292.562 95.44 292.444 96.5005C292.444 97.3253 291.619 98.15 290.677 98.15Z" fill="#233863"/>
<path d="M251.088 129.844L192.293 127.252C191.35 127.252 190.525 126.428 190.643 125.367C190.643 124.425 191.468 123.6 192.528 123.718L251.323 126.31C252.266 126.31 253.091 127.135 252.973 128.195C252.855 129.138 252.03 129.844 251.088 129.844Z" fill="#233863"/>
<path d="M215.151 147.873L190.525 146.459C189.582 146.459 188.758 145.516 188.876 144.573C188.876 143.631 189.818 142.806 190.761 142.924L215.268 144.338C216.211 144.338 217.036 145.28 216.918 146.223C216.918 147.166 216.093 147.873 215.151 147.873Z" fill="#233863"/>
<path d="M235.417 111.936C235.417 111.936 235.299 111.936 235.417 111.936L193.117 109.815C192.175 109.815 191.35 108.991 191.468 107.93C191.468 106.987 192.41 106.163 193.353 106.281L235.535 108.401C236.477 108.401 237.302 109.226 237.184 110.287C237.066 111.229 236.359 111.936 235.417 111.936Z" fill="#233863"/>
<path d="M251.087 112.761L245.549 112.525C244.607 112.525 243.782 111.7 243.9 110.64C243.9 109.697 244.725 108.872 245.785 108.99L251.205 109.226C252.148 109.226 252.973 110.051 252.855 111.111C252.855 112.054 252.03 112.761 251.087 112.761Z" fill="#233863"/>
<path d="M291.384 140.921C291.266 144.103 289.852 147.166 287.495 149.405C285.964 150.937 284.078 151.879 282.075 152.468L281.958 154.825C281.958 155.885 281.486 156.946 280.662 157.77C279.837 158.477 278.776 158.949 277.716 158.831C276.538 158.831 275.477 158.242 274.77 157.417C274.063 156.592 273.592 155.532 273.592 154.353L273.71 152.468L269.822 152.35C268.054 152.233 266.64 151.643 265.698 150.701C264.755 149.758 264.284 148.344 264.402 146.813C264.519 143.749 266.64 142.335 270.293 142.453L279.483 142.807C279.837 142.807 280.308 142.689 280.779 142.453C281.251 142.1 281.486 141.628 281.486 141.039C281.486 140.214 281.251 139.743 280.662 139.39C280.308 139.272 280.19 139.154 280.072 139.154C279.837 139.154 279.719 139.036 279.719 139.036L275.359 138.8C272.296 138.565 269.586 137.269 267.583 135.148C265.58 133.027 264.519 130.317 264.637 127.254C264.755 124.072 266.287 121.127 268.525 119.006C270.411 117.238 272.767 116.178 275.242 115.824L275.359 114.293C275.359 113.114 275.831 112.172 276.773 111.347C277.598 110.522 278.659 110.169 279.837 110.287C280.897 110.287 281.958 110.876 282.665 111.583C283.489 112.407 283.843 113.468 283.725 114.646V116.06L285.257 116.178C288.909 116.296 291.03 118.181 290.912 121.244C290.795 124.544 288.556 126.311 284.903 126.193L276.302 125.84C275.359 125.84 274.652 126.429 274.652 127.254C274.652 128.196 275.124 128.903 275.949 129.021L280.19 129.257C283.489 129.374 286.435 130.67 288.556 132.791C290.441 134.912 291.502 137.74 291.384 140.921Z" fill="#233863" stroke="#F5F5F5" stroke-width="2" stroke-miterlimit="10"/>
<path d="M140.802 61.2715L165.899 62.3319" stroke="#233863" stroke-width="3" stroke-miterlimit="10" stroke-linecap="round"/>
<path d="M58.7939 159.419L154.586 287.967L236.711 226.815L139.151 95.793L138.326 110.403L124.776 107.222L123.952 121.008L111.226 118.062L110.519 131.376L97.9121 128.313L97.2051 141.509L84.7156 138.446L84.0087 150.346L70.3409 147.047L69.3983 161.422L58.7939 159.419Z" fill="#3AAED5"/>
<path d="M154.587 289.736C154.469 289.736 154.469 289.736 154.352 289.736C153.88 289.618 153.527 289.382 153.173 289.029L57.381 160.481C56.9097 159.892 56.9097 159.067 57.2632 158.478C57.6167 157.888 58.3236 157.535 59.1484 157.653L67.7497 159.302L68.4566 147.049C68.4566 146.577 68.6923 145.988 69.1636 145.752C69.6349 145.399 70.1062 145.281 70.5775 145.399L82.2423 148.227L82.8314 138.447C82.8314 137.976 83.067 137.387 83.5383 137.151C84.0096 136.798 84.4809 136.68 84.9522 136.798L95.4387 139.272L96.0279 128.314C96.0279 127.843 96.2635 127.254 96.7348 127.018C97.2061 126.665 97.6774 126.547 98.1487 126.665L108.635 129.139L109.342 117.946C109.342 117.474 109.578 116.885 110.049 116.649C110.52 116.296 110.992 116.178 111.463 116.296L122.185 118.888L122.892 107.223C122.892 106.752 123.128 106.163 123.599 105.927C124.07 105.574 124.542 105.456 125.013 105.574L136.442 108.284L137.149 95.7943C137.149 95.0874 137.738 94.3804 138.445 94.1447C139.152 93.9091 139.977 94.1447 140.33 94.7339L237.89 225.756C238.479 226.581 238.361 227.641 237.537 228.23L155.412 289.382C155.294 289.618 154.941 289.736 154.587 289.736ZM62.9188 162.012L154.941 285.612L234.237 226.581L140.684 100.861L140.095 110.523C140.095 110.994 139.859 111.583 139.388 111.819C138.916 112.172 138.445 112.29 137.974 112.172L126.545 109.462L125.838 121.127C125.838 121.598 125.602 122.187 125.131 122.423C124.66 122.776 124.188 122.894 123.717 122.776L112.995 120.184L112.288 131.378C112.288 131.849 112.052 132.438 111.581 132.674C111.11 133.027 110.638 133.145 110.167 133.027L99.6805 130.553L99.0913 141.511C99.0913 141.982 98.8557 142.571 98.3844 142.807C97.9131 143.16 97.4418 143.278 96.9705 143.16L86.484 140.686L85.8949 150.465C85.8949 150.937 85.6592 151.526 85.1879 151.762C84.7166 152.115 84.2453 152.233 83.774 152.115L72.1092 149.287L71.4023 161.541C71.4023 162.012 71.1666 162.484 70.6953 162.837C70.3419 163.191 69.7527 163.308 69.2814 163.191L62.9188 162.012Z" fill="#233863"/>
<path d="M88.1342 177.564C87.545 177.564 87.0737 177.329 86.7203 176.857C86.1311 176.033 86.249 174.972 87.0737 174.383L112.288 155.649C113.113 155.06 114.174 155.178 114.763 156.002C115.352 156.827 115.234 157.888 114.409 158.477L89.1946 177.211C88.8411 177.447 88.4876 177.564 88.1342 177.564Z" fill="#F5F5F5"/>
<path d="M95.557 187.698C94.9679 187.698 94.4966 187.462 94.1431 186.991C93.554 186.166 93.6718 185.106 94.4966 184.517L140.92 149.994C141.745 149.404 142.805 149.522 143.394 150.347C143.983 151.172 143.866 152.232 143.041 152.821L96.6174 187.344C96.3818 187.58 96.0283 187.698 95.557 187.698Z" fill="#233863"/>
<path d="M147.048 149.405C146.459 149.405 145.987 149.17 145.634 148.698C145.045 147.874 145.163 146.813 145.987 146.224L152.232 141.629C153.057 141.04 154.117 141.158 154.706 141.982C155.296 142.807 155.178 143.868 154.353 144.457L148.108 149.052C147.755 149.288 147.401 149.405 147.048 149.405Z" fill="#F5F5F5"/>
<path d="M106.396 202.073C105.807 202.073 105.335 201.838 104.982 201.366C104.393 200.541 104.511 199.481 105.335 198.892L122.42 186.167C123.245 185.578 124.305 185.695 124.895 186.52C125.484 187.345 125.366 188.405 124.541 188.994L107.456 201.72C107.103 201.955 106.749 202.073 106.396 202.073Z" fill="#233863"/>
<path d="M130.787 183.926C130.197 183.926 129.726 183.691 129.373 183.219C128.783 182.395 128.901 181.334 129.726 180.745L162.953 156.002C163.778 155.413 164.838 155.53 165.427 156.355C166.016 157.18 165.899 158.24 165.074 158.83L131.847 183.573C131.493 183.809 131.14 183.926 130.787 183.926Z" fill="#233863"/>
<path d="M122.186 223.282C121.597 223.282 121.125 223.046 120.772 222.575C120.183 221.75 120.301 220.689 121.125 220.1L158.594 192.293C159.419 191.704 160.479 191.822 161.068 192.647C161.658 193.472 161.54 194.532 160.715 195.121L123.246 222.928C122.893 223.164 122.539 223.282 122.186 223.282Z" fill="#F5F5F5"/>
<path d="M177.681 213.501C177.092 213.501 176.621 213.266 176.267 212.794C175.678 211.969 175.796 210.909 176.621 210.32L193.823 197.477C194.648 196.888 195.708 197.006 196.298 197.83C196.887 198.655 196.769 199.716 195.944 200.305L178.741 213.148C178.388 213.383 178.035 213.501 177.681 213.501Z" fill="#233863"/>
<path d="M188.168 135.384L176.149 230.941L248.966 240.014L261.102 142.572L253.679 148.463L248.141 141.276L240.954 146.813L235.769 140.097L228.935 145.517L223.751 138.919L217.035 144.103L211.851 137.505L205.724 142.218L200.068 135.031L192.763 140.686L188.168 134.913" fill="#F5F5F5"/>
<path d="M248.966 241.78C248.848 241.78 248.848 241.78 248.73 241.78L175.914 232.708C174.971 232.59 174.264 231.647 174.382 230.705L186.282 135.03C186.282 134.912 186.282 134.794 186.4 134.677C186.4 134.205 186.636 133.734 187.107 133.498C187.932 132.909 188.992 133.027 189.582 133.852L192.998 138.211L199.008 133.616C199.361 133.381 199.832 133.145 200.304 133.263C200.775 133.263 201.246 133.616 201.482 133.97L206.077 139.861L210.79 136.208C211.615 135.619 212.675 135.737 213.264 136.562L217.271 141.746L222.573 137.622C223.397 137.033 224.458 137.151 225.047 137.976L229.053 143.16L234.473 138.918C235.298 138.329 236.358 138.447 236.947 139.272L241.071 144.574L246.845 140.097C247.67 139.507 248.73 139.625 249.319 140.45L253.797 146.224L259.923 141.51C260.513 141.039 261.22 141.039 261.927 141.393C262.516 141.746 262.869 142.453 262.751 143.16L250.615 240.602C250.615 241.073 250.262 241.545 249.908 241.78C249.79 241.662 249.437 241.78 248.966 241.78ZM178.152 229.409L247.434 238.01L258.863 146.577L254.739 149.758C253.914 150.347 252.854 150.23 252.265 149.405L247.787 143.631L242.014 148.109C241.189 148.698 240.129 148.58 239.54 147.755L235.416 142.453L229.996 146.695C229.642 146.93 229.171 147.166 228.7 147.048C228.228 147.048 227.757 146.695 227.521 146.341L223.515 141.157L218.213 145.281C217.388 145.87 216.328 145.752 215.739 144.927L211.733 139.743L207.02 143.396C206.666 143.631 206.195 143.867 205.724 143.749C205.252 143.749 204.781 143.396 204.545 143.042L199.95 137.151L193.941 141.746C193.116 142.335 192.056 142.217 191.467 141.393L189.582 138.918L178.152 229.409Z" fill="#233863"/>
<path d="M217.978 158.83H217.86L195.473 156.002C194.884 155.885 194.413 155.295 194.413 154.706C194.53 154.117 195.12 153.646 195.709 153.646L218.096 156.474C218.685 156.592 219.156 157.181 219.156 157.77C219.038 158.359 218.567 158.83 217.978 158.83Z" fill="#F5F5F5"/>
<path d="M235.77 168.611H235.652L194.531 163.427C193.942 163.309 193.471 162.72 193.471 162.131C193.589 161.542 194.178 161.07 194.767 161.07L235.888 166.255C236.477 166.373 236.948 166.962 236.948 167.551C236.831 168.258 236.359 168.611 235.77 168.611Z" fill="#233863"/>
<path d="M245.785 169.906H245.667L240.129 169.199C239.54 169.082 239.069 168.492 239.069 167.903C239.187 167.314 239.776 166.843 240.365 166.843L245.903 167.55C246.492 167.668 246.963 168.257 246.963 168.846C246.845 169.435 246.374 169.906 245.785 169.906Z" fill="#F5F5F5"/>
<path d="M208.433 176.151H208.315L193.234 174.266C192.645 174.148 192.173 173.559 192.173 172.97C192.291 172.381 192.88 171.91 193.469 171.91L208.551 173.795C209.14 173.913 209.612 174.502 209.612 175.091C209.494 175.68 209.022 176.151 208.433 176.151Z" fill="#233863"/>
<path d="M244.371 180.63H244.253L214.797 176.977C214.208 176.859 213.736 176.27 213.736 175.681C213.854 175.092 214.443 174.621 215.032 174.621L244.489 178.273C245.078 178.391 245.549 178.98 245.549 179.569C245.549 180.158 244.96 180.63 244.371 180.63Z" fill="#233863"/>
<path d="M224.459 194.18H224.341L191.114 190.056C190.525 189.938 190.054 189.349 190.054 188.76C190.172 188.171 190.761 187.699 191.35 187.699L224.577 191.823C225.166 191.941 225.637 192.53 225.637 193.119C225.637 193.708 225.048 194.18 224.459 194.18Z" fill="#233863"/>
<path d="M240.601 212.088C240.483 212.088 240.483 212.088 240.365 212.088L225.048 210.203C224.105 210.085 223.398 209.142 223.516 208.2C223.634 207.257 224.458 206.55 225.519 206.668L240.836 208.553C241.779 208.671 242.486 209.614 242.368 210.556C242.25 211.381 241.425 212.088 240.601 212.088Z" fill="#233863"/>
<path d="M384.821 312.239L194.768 358.074C188.758 359.487 182.749 355.835 181.335 349.826L151.054 224.577C149.64 218.568 153.293 212.559 159.302 211.145L349.355 165.311C355.364 163.897 361.373 167.549 362.787 173.558L393.068 298.807C394.482 304.816 390.83 310.825 384.821 312.239Z" fill="#3D85FD"/>
<path d="M192.174 360.195C189.818 360.195 187.461 359.606 185.458 358.31C182.513 356.543 180.392 353.715 179.685 350.298L149.404 225.049C147.754 218.097 151.996 211.146 158.947 209.496L349 163.544C355.952 161.894 362.904 166.136 364.553 173.088L394.835 298.337C396.484 305.288 392.242 312.24 385.291 313.89L195.238 359.724C194.177 360.077 193.117 360.195 192.174 360.195ZM351.946 166.725C351.239 166.725 350.532 166.843 349.707 166.961L159.654 212.795C154.588 213.973 151.524 219.04 152.703 224.106L182.984 349.355C183.573 351.83 185.105 353.833 187.226 355.129C189.346 356.425 191.939 356.778 194.295 356.189L384.348 310.355C389.415 309.177 392.478 304.11 391.3 299.044L361.019 173.795C360.076 169.553 356.188 166.725 351.946 166.725Z" fill="#233863"/>
<path opacity="0.36" d="M326.616 168.729L270.766 182.397L283.727 235.654C285.377 242.606 279.485 249.911 270.531 252.15C253.446 256.273 242.252 270.295 245.434 283.373C246.73 288.911 242.017 294.802 234.829 296.57C214.681 301.519 201.485 318.014 205.255 333.449L210.322 354.422L380.933 312.83C389.417 310.827 394.483 302.226 392.48 293.86L364.202 177.802C361.846 168.258 352.302 162.366 342.758 164.723L326.616 168.729Z" fill="#233863"/>
<path d="M224.106 287.732L198.303 293.977C197.713 294.095 197.007 293.741 196.889 293.034L195.593 287.614C195.475 287.025 195.828 286.318 196.535 286.2L222.339 279.955C222.928 279.838 223.635 280.191 223.753 280.898L225.049 286.318C225.167 287.025 224.696 287.614 224.106 287.732Z" fill="#233863"/>
<path d="M257.214 279.719L231.411 285.963C230.821 286.081 230.114 285.728 229.997 285.021L228.701 279.601C228.583 279.012 228.936 278.305 229.643 278.187L255.447 271.942C256.036 271.824 256.743 272.178 256.861 272.885L258.157 278.305C258.275 278.894 257.804 279.601 257.214 279.719Z" fill="#233863"/>
<path d="M289.499 271.826L263.695 278.071C263.106 278.189 262.399 277.835 262.281 277.128L260.985 271.708C260.867 271.119 261.221 270.412 261.928 270.294L287.732 264.05C288.321 263.932 289.028 264.285 289.146 264.992L290.442 270.412C290.559 271.001 290.206 271.708 289.499 271.826Z" fill="#233863"/>
<path d="M321.901 263.931L296.098 270.176C295.508 270.294 294.801 269.94 294.684 269.233L293.388 263.813C293.27 263.224 293.623 262.517 294.33 262.399L320.134 256.155C320.723 256.037 321.43 256.39 321.548 257.097L322.844 262.517C322.962 263.106 322.608 263.813 321.901 263.931Z" fill="#233863"/>
<path d="M223.282 306.937L202.073 312.121C201.484 312.239 200.777 311.885 200.659 311.178L199.952 308.468C199.834 307.879 200.188 307.172 200.895 307.055L222.103 301.87C222.692 301.752 223.399 302.106 223.517 302.813L224.224 305.523C224.342 306.112 223.871 306.819 223.282 306.937Z" fill="#F5F5F5"/>
<path d="M346.174 188.64L324.612 192.175C323.905 192.293 323.316 191.821 323.198 191.232L322.727 188.522C322.609 187.815 323.08 187.226 323.669 187.108L345.231 183.574C345.938 183.456 346.527 183.927 346.645 184.516L347.117 187.226C347.352 187.933 346.881 188.522 346.174 188.64Z" fill="#F5F5F5"/>
<path d="M267.23 209.612L181.925 230.468C181.1 230.703 180.157 230.114 179.922 229.289L179.097 225.755C178.861 224.93 179.45 223.987 180.275 223.752L265.581 202.896C266.406 202.661 267.348 203.25 267.584 204.075L268.409 207.609C268.644 208.552 268.055 209.377 267.23 209.612Z" fill="#F5F5F5"/>
<path d="M253.327 299.514L232.118 304.698C231.529 304.816 230.822 304.463 230.704 303.756L229.997 301.046C229.88 300.457 230.233 299.75 230.94 299.632L252.149 294.448C252.738 294.33 253.445 294.683 253.563 295.39L254.27 298.1C254.387 298.689 254.034 299.278 253.327 299.514Z" fill="#F5F5F5"/>
<path d="M282.784 292.562L261.575 297.746C260.986 297.864 260.279 297.511 260.161 296.804L259.454 294.094C259.337 293.505 259.69 292.798 260.397 292.68L281.606 287.495C282.195 287.378 282.902 287.731 283.02 288.438L283.727 291.148C283.727 291.737 283.373 292.444 282.784 292.562Z" fill="#F5F5F5"/>
<path d="M226.345 322.49L205.136 327.675C204.547 327.793 203.84 327.439 203.722 326.732L203.015 324.022C202.898 323.433 203.251 322.726 203.958 322.608L225.167 317.424C225.756 317.306 226.463 317.66 226.581 318.367L227.288 321.077C227.288 321.666 226.934 322.373 226.345 322.49Z" fill="#F5F5F5"/>
<path d="M226.11 264.521L195.004 272.062C193.236 272.533 191.587 271.473 191.116 269.705L188.877 260.397L186.756 251.796C186.285 250.029 187.345 248.379 189.113 247.908L220.219 240.367C221.986 239.896 223.635 240.956 224.107 242.723L228.466 260.633C228.938 262.4 227.877 264.05 226.11 264.521Z" fill="#F5F5F5"/>
<path d="M186.993 262.636C186.168 262.636 185.461 262.047 185.225 261.34C184.99 260.397 185.579 259.455 186.521 259.219L225.757 249.321C226.7 249.086 227.643 249.675 227.878 250.618C228.114 251.56 227.525 252.503 226.582 252.738L187.346 262.636C187.228 262.636 187.111 262.636 186.993 262.636Z" fill="#3D85FD"/>
<path d="M207.26 261.813C210.578 261.813 213.269 259.122 213.269 255.804C213.269 252.485 210.578 249.794 207.26 249.794C203.941 249.794 201.25 252.485 201.25 255.804C201.25 259.122 203.941 261.813 207.26 261.813Z" fill="#F5F5F5"/>
<path d="M207.259 263.58C203.371 263.58 199.954 260.634 199.6 256.628C199.364 254.625 200.071 252.504 201.367 250.972C202.664 249.323 204.549 248.38 206.552 248.145C210.794 247.791 214.564 250.855 215.035 255.096C215.389 259.338 212.325 263.108 208.084 263.58C207.73 263.58 207.494 263.58 207.259 263.58ZM207.259 251.679C207.141 251.679 207.023 251.679 206.905 251.679C205.845 251.797 204.784 252.268 204.077 253.211C203.371 254.036 203.017 255.214 203.135 256.275C203.371 258.631 205.374 260.281 207.73 260.045C208.79 259.927 209.851 259.456 210.558 258.513C211.265 257.688 211.618 256.51 211.5 255.45C211.383 254.389 210.911 253.329 209.969 252.622C209.144 251.915 208.201 251.679 207.259 251.679Z" fill="#3D85FD"/>
<path d="M345.114 291.738C344.171 288.439 344.761 285.14 346.41 282.548C343.936 281.251 340.99 280.898 338.045 281.723C331.918 283.49 328.265 289.853 330.032 295.98C331.8 302.107 338.162 305.759 344.289 303.992C347.235 303.167 349.474 301.282 351.005 298.925C348.178 297.511 345.939 295.037 345.114 291.738Z" fill="#F5F5F5"/>
<path d="M357.014 276.42C354.069 277.245 351.83 279.13 350.298 281.487C348.649 284.197 348.059 287.496 349.002 290.677C349.945 293.976 352.183 296.45 354.893 297.864C357.368 299.16 360.313 299.514 363.259 298.689C369.386 296.922 373.039 290.559 371.271 284.432C369.504 278.188 363.141 274.653 357.014 276.42Z" fill="#F5F5F5"/>
<path d="M364.904 71.6436C365.022 71.4079 365.258 71.1723 365.611 70.9366L384.817 59.6253C385.642 59.154 386.584 59.3897 387.056 60.2145C387.527 61.0392 387.291 61.9818 386.467 62.4532L367.261 73.7644C366.436 74.2357 365.494 74.0001 365.022 73.1753C364.669 72.704 364.669 72.1149 364.904 71.6436Z" fill="#233863"/>
<path d="M351.826 68.5799C351.826 68.3442 351.826 68.1086 351.943 67.8729L361.134 38.1808C361.37 37.356 362.312 36.7669 363.255 37.1204C364.08 37.356 364.669 38.2987 364.315 39.2413L355.125 68.9334C354.889 69.7581 353.947 70.3473 353.004 69.9938C352.297 69.7581 351.826 69.169 351.826 68.5799Z" fill="#233863"/>
<path d="M319.777 40.7729C319.424 39.9481 319.777 39.0055 320.484 38.652C321.309 38.1807 322.252 38.5342 322.723 39.359L338.512 69.2867C338.983 70.1115 338.629 71.0541 337.805 71.5254C336.98 71.9967 336.037 71.6432 335.566 70.8185L319.777 40.7729C319.895 40.7729 319.777 40.7729 319.777 40.7729Z" fill="#233863"/>
<path d="M272.531 435.604C272.414 435.84 272.178 436.075 271.942 436.193L254.386 444.205C253.679 444.559 252.854 444.205 252.501 443.498C252.147 442.791 252.501 441.967 253.208 441.613L270.764 433.601C271.471 433.248 272.296 433.601 272.649 434.308C272.885 434.661 272.767 435.251 272.531 435.604Z" fill="#233863"/>
<path d="M283.488 439.493C283.488 439.729 283.488 439.846 283.37 440.082L272.766 464.825C272.413 465.532 271.588 465.886 270.881 465.532C270.174 465.179 269.82 464.354 270.174 463.647L280.778 438.904C281.132 438.197 281.956 437.843 282.663 438.197C283.135 438.315 283.488 438.904 283.488 439.493Z" fill="#233863"/>
<path d="M308.585 466.24C308.821 466.947 308.467 467.771 307.76 468.007C307.053 468.36 306.229 467.889 305.875 467.182L294.917 440.082C294.682 439.375 295.035 438.551 295.742 438.197C296.449 437.844 297.274 438.315 297.627 439.022L308.585 466.24C308.585 466.122 308.585 466.24 308.585 466.24Z" fill="#233863"/>
<path d="M89.0758 263.344L88.2511 243.078L123.127 275.598L90.8432 310.71L90.0185 290.444C90.0185 290.444 59.8551 284.435 40.8851 319.429C40.8851 319.429 34.7582 293.508 56.7916 273.595C56.9094 273.595 66.8068 263.58 89.0758 263.344Z" fill="#F5F5F5"/>
<path d="M41.0037 321.197C40.8859 321.197 40.8859 321.197 40.7681 321.197C40.0611 321.079 39.472 320.608 39.2363 319.901C39.1185 319.665 33.1094 292.683 55.732 272.417C56.0854 272.064 65.865 262.52 87.3093 261.695L86.6023 243.196C86.6023 242.489 86.9558 241.782 87.6627 241.547C88.3697 241.193 89.0766 241.429 89.5479 241.9L124.424 274.42C125.131 275.127 125.131 276.188 124.542 276.895L92.2579 312.007C91.7866 312.478 90.9619 312.714 90.3727 312.478C89.6658 312.242 89.1945 311.653 89.1945 310.946L88.4875 292.094C82.4784 291.387 58.6776 290.798 42.5355 320.372C42.2998 320.844 41.5929 321.197 41.0037 321.197ZM90.2549 247.32L90.844 263.345C90.844 263.816 90.7262 264.287 90.3727 264.641C90.0193 264.994 89.5479 265.23 89.0766 265.23C67.7502 265.465 58.2063 274.891 58.0885 275.009C42.7711 288.795 41.5929 305.88 42.0642 314.127C61.5054 283.375 90.1371 288.677 90.4906 288.795C91.3153 288.913 91.9045 289.62 91.9045 290.444L92.4936 306.469L120.654 275.834L90.2549 247.32Z" fill="#233863"/>
<path d="M446.207 332.863L445.618 353.129L412.98 318.371L447.503 285.497L446.914 305.763C446.914 305.763 476.606 313.775 497.933 280.077C497.933 280.077 502.292 306.352 478.963 324.733C479.081 324.851 468.476 334.159 446.207 332.863Z" fill="#F5F5F5"/>
<path d="M445.618 354.894C445.146 354.894 444.675 354.659 444.322 354.305L411.684 319.547C410.977 318.84 411.095 317.779 411.802 317.072L446.325 284.199C446.796 283.728 447.621 283.61 448.21 283.846C448.917 284.081 449.27 284.788 449.27 285.495L448.799 304.347C454.69 305.408 478.491 307.646 496.519 279.133C496.872 278.543 497.697 278.19 498.404 278.308C499.111 278.426 499.7 279.015 499.818 279.722C499.818 279.957 504.059 307.293 480.259 326.027C479.905 326.381 469.536 335.335 448.092 334.511L447.621 353.009C447.621 353.716 447.15 354.305 446.443 354.659C446.089 354.895 445.853 354.894 445.618 354.894ZM415.454 318.486L443.968 348.768L444.439 332.743C444.439 332.272 444.675 331.801 445.029 331.447C445.382 331.094 445.853 330.976 446.325 330.976C467.416 332.154 477.784 323.435 477.902 323.317C494.162 310.474 496.519 293.625 496.519 285.259C474.956 314.598 446.796 307.411 446.56 307.293C445.736 307.057 445.264 306.35 445.264 305.525L445.736 289.501L415.454 318.486Z" fill="#233863"/>
</svg>
