<svg width="307" height="364" viewBox="0 0 307 364" fill="none" xmlns="http://www.w3.org/2000/svg">
<path d="M65.203 124.939L66.7131 118.051C66.7131 118.051 71.6563 121.195 74.5387 125.687C77.4235 130.179 78.7958 142.156 79.6197 142.605C80.4436 143.055 89.5669 128.963 91.161 126.743C93.1332 123.996 93.8707 120.842 95.1077 118.446C96.3423 116.05 100.695 115.236 102.343 115.536C103.991 115.835 100.079 122.842 100.079 122.842C100.079 122.842 90.1924 140.06 86.8969 149.493C83.6014 158.927 73.3041 163.419 71.6563 162.071C70.0086 160.724 65.203 124.939 65.203 124.939Z" fill="#F48C7F"/>
<path d="M95.2174 119.765C95.2174 119.765 95.6282 117.952 96.7391 117.583C97.8501 117.211 99.7803 117.54 99.9039 117.583C100.028 117.625 102.166 116.469 102.166 116.469L100.399 119.765C100.399 119.765 96.9469 123.843 95.7962 122.32C94.6433 120.797 95.2174 119.765 95.2174 119.765Z" fill="#F7A491"/>
<path d="M102.782 116.621C102.782 116.621 104.028 122.98 103.713 124.311C103.398 125.647 102.602 124.931 102.453 124.641C101.839 123.446 101.412 119.368 101.412 119.368L102.782 116.621Z" fill="#F48C7F"/>
<path d="M100.095 121.909C100.095 121.909 100.69 125.853 101.302 126.317C101.699 126.618 102.205 126.441 102.371 125.643C102.534 124.847 101.575 119.983 101.575 119.983L100.095 121.909Z" fill="#F48C7F"/>
<path d="M96.4613 133.099L94.3911 132.088L103.181 114.015C104.324 114.574 104.798 115.954 104.24 117.101L96.4613 133.099Z" fill="#184655"/>
<path d="M74.3777 96.6168C75.6194 90.9642 76.833 85.2764 73.5632 79.0669C70.9165 74.0413 66.342 71.1495 61.0487 70.5201C46.0462 68.7349 49.253 82.7753 28.285 85.8146C21.7686 86.7598 15.7168 87.6676 10.2764 90.915C0.455208 96.7806 -3.25341 106.188 3.26059 121.518C19.2107 159.051 58.3623 127.187 63.1982 119.798C66.7948 114.298 73.5795 100.255 74.3777 96.6168Z" fill="#13375B"/>
<path d="M14.3817 333.7C14.3817 333.7 13.3128 344.573 10.5681 346.569C7.82106 348.564 4.15912 355.951 5.99125 359.945C6.56306 361.192 7.70669 361.915 9.01135 362.315C12.8693 363.506 16.9747 361.5 18.6155 357.804C19.5327 355.738 20.3379 352.984 20.4989 349.512C20.912 340.677 23.6567 336.185 23.6567 336.185L14.3817 333.7Z" fill="#F7A491"/>
<path d="M56.5814 338.15C56.5814 338.15 57.4473 349.121 56.7448 352.687C56.369 354.596 54.2732 358.527 55.2348 360.323C56.1963 362.12 57.2933 362.57 57.2933 362.57L82.2033 362.97C83.5593 362.991 82.6631 362.118 81.5685 361.313C79.7783 359.996 78.3336 359.126 72.6132 356.358C72.2398 356.178 70.8814 355.314 70.3913 355.015C69.1496 354.257 67.901 353.061 66.8274 351.866C65.0396 349.874 64.8832 340.212 64.8832 340.212L56.5814 338.15Z" fill="#F7A491"/>
<path d="M76.051 192.316C76.051 192.316 79.1878 210.13 77.127 221.808C75.0685 233.485 65.1819 341.732 65.1819 341.732L54.1961 342.352C54.1961 342.352 51.8925 297.136 52.3056 290.847C52.7188 284.558 55.9769 274.036 55.9769 274.036L54.8823 237.528L68.7458 189.567L76.051 192.316Z" fill="#3C8F7C"/>
<path d="M43.7636 188.568C43.7636 188.568 35.1141 201.593 33.0532 212.374C30.9947 223.153 34.5656 256.283 30.6026 270.41C28.4577 278.056 20.3287 289.867 19.094 299.747C17.8594 309.627 13.0118 335.511 13.0118 335.511L23.9929 337.689L49.5121 273.047L69.5302 214.618L74.6555 184.528L43.7636 188.568Z" fill="#50BFA5"/>
<path d="M50.7653 114.459C50.7653 114.459 43.1893 115.32 38.6592 120.261C34.129 125.203 45.9831 164.919 46.8069 171.205C47.6308 177.494 40.0549 192.162 40.0549 192.162C40.0549 192.162 68.3608 197.405 76.0487 192.314C76.0487 192.314 76.8726 147.097 76.0487 142.605C75.2249 138.113 68.3585 119.847 66.7107 118.051C65.0653 116.254 50.7653 114.459 50.7653 114.459Z" fill="white"/>
<path d="M40.0549 123.989C40.7854 121.775 43.2874 120.711 45.4229 121.635C48.3474 122.903 52.3851 125.308 54.3572 129.431C57.6527 136.319 69.187 159.975 72.7556 160.874C76.3265 161.772 90.8809 136.319 90.8809 136.319C90.8809 136.319 90.4701 131.826 91.7048 129.281C92.9394 126.735 96.648 124.04 97.1965 124.939C97.745 125.837 95.138 128.083 95.138 128.532C95.138 128.981 96.2372 129.281 97.7473 128.382C99.2573 127.484 100.077 125.668 100.077 125.668C100.077 125.668 102.553 130.179 99.9459 134.222C97.3365 138.265 96.2396 139.912 96.2396 139.912C96.2396 139.912 79.3513 177.495 73.171 177.944C67.4132 178.36 34.2714 141.513 40.0549 123.989Z" fill="#F7A491"/>
<path d="M54.579 99.1482C54.579 99.1482 54.5207 99.4851 54.4133 100.061C53.9022 102.814 51.937 111.953 50.609 114.466C49.0033 117.503 56.1054 127.185 62.9392 126.003C64.9744 125.652 61.2191 117.105 61.3988 116.2C61.7442 114.468 62.2133 112.103 62.6918 109.679C62.9625 108.313 63.2356 106.925 63.4923 105.622C64.2228 101.918 64.8203 98.8909 64.8203 98.8909L54.579 99.1482Z" fill="#F7A491"/>
<path d="M54.4133 100.058C54.5207 99.4852 54.579 99.1459 54.579 99.1459L64.8203 98.8909C64.8203 98.8909 64.2228 101.918 63.4923 105.622C63.2356 106.918 62.9648 108.296 62.6964 109.656C61.1164 109.422 59.4639 108.654 57.8068 107.204C56.0004 105.622 54.8171 103.722 54.1029 101.691C54.2289 101.046 54.334 100.487 54.4133 100.058Z" fill="#F47458"/>
<path d="M60.7405 74.7456C60.7405 74.7456 56.5628 75.3258 53.538 79.2424C50.5109 83.159 47.2504 95.2668 54.768 101.848C62.2856 108.432 69.7122 100.98 70.8138 93.0792C71.913 85.1782 71.6913 74.4601 60.7405 74.7456Z" fill="#F7A491"/>
<path d="M73.2177 90.3793C72.3214 92.1247 70.8137 93.0909 69.8545 92.5364C68.8953 91.9843 68.8416 90.1196 69.7401 88.3765C70.6364 86.6311 72.1441 85.6648 73.1033 86.2193C74.0625 86.7715 74.1139 88.6339 73.2177 90.3793Z" fill="#F7A491"/>
<path d="M62.0125 74.5631C62.0125 74.5631 55.5638 86.0766 50.9496 86.61C46.3354 87.1411 45.731 93.2593 45.731 93.2593C45.731 93.2593 47.381 79.1605 51.9485 76.4418C56.5137 73.7231 62.0125 74.5631 62.0125 74.5631Z" fill="#13375B"/>
<path d="M52.4574 89.352C52.8332 91.3969 52.077 93.271 50.7723 93.54C49.4654 93.8091 48.1024 92.3678 47.7289 90.323C47.3532 88.2781 48.1094 86.404 49.414 86.135C50.7187 85.8683 52.0817 87.3072 52.4574 89.352Z" fill="#F7A491"/>
<path d="M19.3623 355.859C13.3781 356.952 9.39642 353.449 7.32389 350.827C5.80217 353.796 4.87094 357.504 5.98889 359.944C6.97381 362.095 9.65782 362.682 11.9241 362.766C14.321 362.855 16.5639 361.599 17.7519 359.509C18.3097 358.534 18.8838 357.319 19.3623 355.859Z" fill="#3C8F7C"/>
<path d="M70.389 355.01C63.8004 356.702 58.9318 355.55 56.2081 354.453C55.5056 356.444 54.5743 358.943 55.0691 360.384C55.6736 362.148 56.5348 362.548 57.2957 362.567C63.3126 362.726 79.3373 362.939 83.9258 363C84.5676 363.009 84.9201 362.258 84.507 361.767C83.368 360.408 70.8792 355.309 70.389 355.01Z" fill="#3C8F7C"/>
<path fill-rule="evenodd" clip-rule="evenodd" d="M90.3322 42.9985H122.524C127.757 42.9985 132 38.7474 132 33.4995V14.499C132 9.25354 127.757 5 122.524 5H67.6256C62.3929 5 58.1498 9.25354 58.1498 14.499V33.4995C58.1498 38.7451 62.3929 42.9985 67.6256 42.9985H79.9335L74.4874 59.3785L90.3322 42.9985Z" fill="#006AFF"/>
<path d="M79.8251 25.4465C79.8251 27.358 78.168 28.9068 76.1258 28.9068C74.0836 28.9068 72.4265 27.358 72.4265 25.4465C72.4265 23.5349 74.0836 21.9861 76.1258 21.9861C78.1703 21.9861 79.8251 23.5349 79.8251 25.4465Z" fill="white"/>
<path d="M98.7322 25.4465C98.7322 27.358 97.0751 28.9068 95.0329 28.9068C92.9907 28.9068 91.3336 27.358 91.3336 25.4465C91.3336 23.5349 92.9907 21.9861 95.0329 21.9861C97.0774 21.9861 98.7322 23.5349 98.7322 25.4465Z" fill="white"/>
<path d="M117.642 25.4465C117.642 27.358 115.985 28.9068 113.942 28.9068C111.9 28.9068 110.243 27.358 110.243 25.4465C110.243 23.5349 111.9 21.9861 113.942 21.9861C115.985 21.9861 117.642 23.5349 117.642 25.4465Z" fill="white"/>
<path d="M212.63 204.518C217.146 203.231 217.266 204.027 217.84 203.847C218.517 203.633 223.979 196.314 223.979 196.314C223.979 196.314 240.237 174.854 241.069 173.662L246.196 145.893L261.599 145.772C261.599 145.772 255.163 175.759 254.536 177.243C253.905 178.728 228.14 204.937 225.958 207.322C225.958 207.322 224.548 211.196 223.574 213.593C222.601 215.99 220.519 217.741 220.132 218.365C220.076 218.457 218.654 220.451 216.172 222.394C214.034 224.069 215.164 221.462 215.164 221.462C215.164 221.462 218.472 217.622 218.085 217.393C217.787 217.217 216.12 219.43 213.777 221.307C213.174 221.788 212.578 222.263 212.025 222.696C210.576 223.828 209.348 223.224 210.645 221.791C211.102 221.284 211.884 220.463 212.537 219.961C213.242 219.418 213.686 218.685 214.195 218.135C215.21 217.044 215.965 216.263 215.892 216.242C215.797 216.215 215.824 215.849 215.164 216.339C214.373 216.931 213.019 218.572 211.777 219.349C211.072 219.787 209.669 220.8 209.669 220.8C209.669 220.8 207.207 221.919 207.076 221.795C206.368 221.129 207.776 219.887 208.827 219.418C209.302 218.772 210.815 217.753 210.815 217.753C210.815 217.753 213.324 214.982 212.885 214.595C212.699 214.431 210.927 215.932 208.923 217.12C207.062 218.223 204.962 219.027 204.644 218.682C204.1 218.102 206.009 216.652 206.009 216.652C206.009 216.652 207.41 215.711 207.847 215.362C208.358 214.953 209.782 213.605 209.782 213.605C209.782 213.605 214.484 208.668 214.038 208.335C213.593 208 212.135 207.548 211.723 207.748C211.311 207.946 210.795 208.709 210.381 208.907C209.969 209.105 209.218 209.006 208.875 208.513C208.531 208.02 210.065 206.292 210.065 206.292C210.065 206.292 211.327 204.889 212.63 204.518Z" fill="#F48C7F"/>
<path d="M238.205 343.821C238.205 343.821 238.753 353.4 238.756 353.421C238.956 354.636 239.75 357.643 239.75 358.748C239.75 362.903 221.07 355.221 225.257 353.38C225.637 353.213 227.621 351.953 227.746 350.539C227.937 348.361 228.426 343.954 228.426 343.954L238.205 343.821Z" fill="#F7A491"/>
<path d="M225.305 353.342C225.305 353.342 229.691 354.614 231.936 354.931C234.181 355.248 237.143 352.574 238.733 353.297C240.482 354.091 240.305 361.924 240.305 361.924C240.305 361.924 216.896 363.29 210.283 361.181C207.663 360.344 216.341 356.302 225.305 353.342Z" fill="#184655"/>
<path d="M279.36 344.741C279.36 344.741 279.908 354.323 279.91 354.341C280.113 355.557 280.904 358.564 280.904 359.669C280.904 363.824 262.224 356.142 266.412 354.301C266.792 354.134 269.365 351.933 269.49 350.519C269.681 348.341 269.581 344.874 269.581 344.874L279.36 344.741Z" fill="#F7A491"/>
<path d="M266.46 354.262C266.46 354.262 270.845 355.534 273.091 355.852C275.336 356.169 278.297 353.495 279.887 354.217C281.637 355.012 281.705 362.172 281.705 362.172C281.705 362.172 256.678 363.968 250.794 362.282C248.15 361.521 257.493 357.222 266.46 354.262Z" fill="#184655"/>
<path d="M249.759 206.442L241.861 209.814L225.248 288.311L225.922 347.159L239.238 347.465C239.238 347.465 245.432 295.989 245.432 292C245.432 288.012 274.121 222.189 274.121 222.189L249.759 206.442Z" fill="#355389"/>
<path d="M255.853 210.762C255.853 210.762 261.671 271.241 261.671 281.435C261.671 291.629 266.389 348.687 266.389 348.687L279.737 348.611C279.737 348.611 280.7 331.219 282.13 305.634C282.353 301.627 281.841 293.54 282.13 289.392C284.207 259.555 288.313 231.467 286.352 220.332C286.036 218.541 285.442 213.854 284.289 212.671C275.547 203.724 255.853 210.762 255.853 210.762Z" fill="#466EB6"/>
<path d="M239.572 163.031L255.725 161.96C255.725 161.96 256.521 147.674 256.521 140.858C256.521 132.591 259.069 120.401 258.073 120.63C255.279 121.274 250.455 123.82 248.214 126.905C240.462 137.59 239.572 163.031 239.572 163.031Z" fill="#3C8F7C"/>
<path d="M277.84 120.315C277.84 120.315 287.051 121.582 289.475 123.345C292.205 125.328 295.235 129.768 295.235 129.768C295.235 129.768 283.927 182.663 283.907 191.562C283.891 198.447 286.354 215.356 286.354 215.356C286.354 215.356 252.181 217.489 239.238 212.434C239.238 212.434 243.326 192.325 243.326 187.045C243.326 181.764 248.214 133.75 249.326 130.396C250.336 127.353 252.181 121.886 258.425 120.538C264.669 119.192 277.84 120.315 277.84 120.315Z" fill="#50BFA5"/>
<path d="M275.324 106.074L277.604 120.844C277.604 120.844 269.278 138.432 264.308 136.906C260.138 135.625 262.704 120.065 262.704 120.065C262.704 120.065 264.977 111.708 264.296 107.526C263.612 103.344 275.324 106.074 275.324 106.074Z" fill="#F7A491"/>
<path d="M264.294 107.526C263.612 103.344 275.324 106.074 275.324 106.074L275.513 107.299C275.17 108.118 274.751 108.82 274.244 109.358C271.628 112.124 267.538 113.788 264.003 113.914C264.356 111.658 264.574 109.241 264.294 107.526Z" fill="#F47458"/>
<path d="M277.246 85.1776C277.576 85.0583 279.899 102 275.493 106.662C271.086 111.323 262.499 112.849 259.419 109.178C256.012 105.118 256.185 86.9107 263.036 82.1143C269.888 77.32 277.246 85.1776 277.246 85.1776Z" fill="#F7A491"/>
<path d="M265.643 73.0524C270.939 74.1148 274.369 77.2952 275.629 78.6502C278.033 78.9293 281.302 80.2348 284.678 85.729C288.827 92.4837 285.763 99.9654 280.931 103.637C276.1 107.308 276.154 111.571 276.154 111.571L275.404 109.356C274.84 107.695 274.61 105.932 274.799 104.19C274.912 103.144 275.14 102.014 275.579 101.084C276.741 98.6329 273.084 97.0034 272.058 94.9641C271.268 93.3931 271.23 89.8008 269.985 87.2033L268.5 85.2203C268.5 85.2203 265.072 82.5981 261.719 83.3387C258.366 84.0769 258.848 71.6907 265.643 73.0524Z" fill="#13375B"/>
<path d="M272.285 97.9758C272.251 100.042 273.206 101.735 274.421 101.755C275.636 101.775 276.648 100.116 276.682 98.0501C276.716 95.9838 275.761 94.2912 274.546 94.2709C273.334 94.2507 272.322 95.9095 272.285 97.9758Z" fill="#F7A491"/>
<path d="M254.351 174.119L254.131 175.379C254.017 176.027 253.394 176.462 252.739 176.351L226.324 171.825C225.669 171.712 225.23 171.096 225.342 170.448L225.562 169.187C225.676 168.539 226.299 168.102 226.954 168.215L253.369 172.741C254.024 172.854 254.465 173.47 254.351 174.119Z" fill="#13375B"/>
<path d="M291.796 127.126C288.697 127.038 285.956 147.264 287.92 149.261C289.885 151.255 290.258 176.169 290.258 176.169L261.021 175.451L261.016 175.46C260.445 175.082 254.322 171.012 253.446 170.121C252.527 169.187 248.064 169.655 246.883 170.938C245.703 172.221 249.508 171.172 250.559 171.872C251.61 172.572 249.772 174.321 249.772 174.321C249.772 174.321 242.363 175.386 240.919 173.869C239.475 172.352 235.617 169.786 235.091 171.303C234.82 172.086 236.811 174.456 237.932 175.451C236.533 174.416 234.859 173.315 234.284 173.506C233.233 173.855 233.672 175.179 234.24 175.568C234.809 175.957 240.692 180.401 241.611 180.711C242.509 181.015 256.189 181.35 258.553 181.868C258.553 181.868 297.107 190.554 299.298 190.014C301.22 189.539 303.144 177.328 303.144 167.974C303.144 158.617 301.481 127.403 291.796 127.126Z" fill="#F7A491"/>
<path d="M287.776 122.512C287.776 122.512 293.17 123.741 298.74 129.935C303.806 135.569 307 167.116 307 167.116L289.505 169.914L288.108 154.653L283.434 147.674L287.776 122.512Z" fill="#50BFA5"/>
<path fill-rule="evenodd" clip-rule="evenodd" d="M241.488 45.3156H202.449C196.125 45.3156 191 40.2423 191 33.985V11.3283C191 5.07108 196.125 0 202.449 0H268.775C275.097 0 280.224 5.07108 280.224 11.3283V33.9873C280.224 40.2446 275.099 45.3156 268.775 45.3156H252.883L253.81 62.998L241.488 45.3156Z" fill="#006AFF"/>
<path d="M221.825 14.4465C221.825 16.358 220.168 17.9068 218.126 17.9068C216.084 17.9068 214.427 16.358 214.427 14.4465C214.427 12.5349 216.084 10.9861 218.126 10.9861C220.17 10.9861 221.825 12.5349 221.825 14.4465Z" fill="white"/>
<path d="M240.732 14.4465C240.732 16.358 239.075 17.9068 237.033 17.9068C234.991 17.9068 233.334 16.358 233.334 14.4465C233.334 12.5349 234.991 10.9861 237.033 10.9861C239.077 10.9861 240.732 12.5349 240.732 14.4465Z" fill="white"/>
<path d="M259.642 14.4465C259.642 16.358 257.985 17.9068 255.942 17.9068C253.9 17.9068 252.243 16.358 252.243 14.4465C252.243 12.5349 253.9 10.9861 255.942 10.9861C257.985 10.9861 259.642 12.5349 259.642 14.4465Z" fill="white"/>
</svg>
