<svg width="697" height="677" viewBox="0 0 697 677" fill="none" xmlns="http://www.w3.org/2000/svg">
<path d="M696.532 456.09H0V456.438H696.532V456.09Z" fill="#E0E0E0"/>
<path d="M564.902 471.246H536.288V471.595H564.902V471.246Z" fill="#E0E0E0"/>
<path d="M592.791 471.065H575.113V471.414H592.791V471.065Z" fill="#E0E0E0"/>
<path d="M439.79 471.065H385.726V471.414H439.79V471.065Z" fill="#E0E0E0"/>
<path d="M280.939 477.18H214.824V477.529H280.939V477.18Z" fill="#E0E0E0"/>
<path d="M142.803 466.161H132.954V466.509H142.803V466.161Z" fill="#E0E0E0"/>
<path d="M226.456 466.161H150.548V466.509H226.456V466.161Z" fill="#E0E0E0"/>
<path d="M137.886 474.575H98.0024V474.923H137.886V474.575Z" fill="#E0E0E0"/>
<path d="M330.156 393.959H61.1695C59.0622 393.955 57.0426 393.115 55.5539 391.624C54.0651 390.133 53.229 388.112 53.229 386.004V7.88475C53.2473 5.78961 54.0916 3.78632 55.5783 2.31001C57.0651 0.833691 59.0743 0.00358907 61.1695 0H330.156C332.266 0 334.289 0.838051 335.781 2.32979C337.273 3.82153 338.111 5.84476 338.111 7.9544V386.004C338.111 388.114 337.273 390.137 335.781 391.629C334.289 393.121 332.266 393.959 330.156 393.959ZM61.1695 0.278614C59.1546 0.282304 57.2235 1.08529 55.8001 2.51131C54.3767 3.93734 53.5773 5.86988 53.5773 7.88475V386.004C53.5773 388.019 54.3767 389.952 55.8001 391.378C57.2235 392.804 59.1546 393.607 61.1695 393.61H330.156C332.172 393.607 334.105 392.804 335.531 391.379C336.956 389.953 337.759 388.02 337.762 386.004V7.88475C337.759 5.8686 336.956 3.93609 335.531 2.51046C334.105 1.08484 332.172 0.282296 330.156 0.278614H61.1695Z" fill="#E0E0E0"/>
<path d="M631.49 393.959H362.49C360.381 393.955 358.36 393.116 356.869 391.625C355.378 390.134 354.539 388.113 354.535 386.004V7.88475C354.557 5.78834 355.404 3.78506 356.893 2.30913C358.382 0.833204 360.393 0.00354993 362.49 0H631.49C633.583 0.0072502 635.589 0.838972 637.072 2.31489C638.556 3.79082 639.399 5.79202 639.417 7.88475V386.004C639.417 388.109 638.583 390.128 637.097 391.619C635.611 393.11 633.595 393.951 631.49 393.959ZM362.49 0.278614C360.473 0.282296 358.541 1.08484 357.115 2.51046C355.69 3.93609 354.887 5.8686 354.883 7.88475V386.004C354.887 388.02 355.69 389.953 357.115 391.379C358.541 392.804 360.473 393.607 362.49 393.61H631.49C633.506 393.607 635.439 392.804 636.865 391.379C638.29 389.953 639.093 388.02 639.096 386.004V7.88475C639.093 5.8686 638.29 3.93609 636.865 2.51046C635.439 1.08484 633.506 0.282296 631.49 0.278614H362.49Z" fill="#E0E0E0"/>
<path d="M107.586 456.09H78.9588C78.9588 456.09 61.2947 440.432 55.5971 419.425C52.9363 409.743 65.9615 403.07 73.8323 409.98C92.2486 426.167 107.586 456.09 107.586 456.09Z" fill="#EBEBEB"/>
<path d="M119.636 456.089H91.0088C91.0088 456.089 74.6403 422.461 80.9648 397.985C81.4552 396.066 82.4567 394.316 83.8628 392.922C85.2688 391.527 87.0267 390.54 88.9493 390.066C90.8719 389.591 92.8872 389.647 94.7806 390.227C96.674 390.807 98.3747 391.89 99.7016 393.36C121.35 417.181 119.636 456.089 119.636 456.089Z" fill="#EBEBEB"/>
<path d="M119.664 456.089H138.15C138.15 456.089 149.74 435.653 160.62 410.536C170.776 387.118 153.474 377.339 142.608 400.352C128.789 429.635 119.664 456.089 119.664 456.089Z" fill="#EBEBEB"/>
<path d="M124.721 456.09H153.349C153.349 456.09 182.171 442.452 180.569 416.638C180.137 409.882 172.42 405.494 165.58 408.113C134.849 419.898 124.721 456.09 124.721 456.09Z" fill="#EBEBEB"/>
<path d="M108.659 456.089H137.273C137.273 456.089 145.924 408.334 135.671 378.258C132.606 369.273 121.74 367.699 116.697 375.472C98.044 404.559 108.659 456.089 108.659 456.089Z" fill="#EBEBEB"/>
<path d="M298.269 201.995L378.914 137.956L613.993 213.599H298.269V201.995Z" fill="#E0E0E0"/>
<path d="M469.783 456.09H604.13V225.217L469.783 225.217V456.09Z" fill="#EBEBEB"/>
<path d="M569.526 456.089H543.685C543.685 456.089 527.762 443.552 522.58 426.612C520.198 418.825 531.942 413.448 539.046 419.006C555.679 432.031 569.526 456.089 569.526 456.089Z" fill="#F5F5F5"/>
<path d="M580.421 456.089H554.565C554.565 456.089 539.785 429.05 545.496 409.366C547.475 402.54 557.087 400.437 562.408 405.647C581.967 424.801 580.421 456.089 580.421 456.089Z" fill="#F5F5F5"/>
<path d="M580.448 456.089H597.165C604.551 444.233 611.33 432.009 617.476 419.465C626.642 400.631 611.012 392.76 601.205 411.274C593.503 425.837 586.574 440.796 580.448 456.089Z" fill="#F5F5F5"/>
<path d="M585.003 456.089H610.859C610.859 456.089 636.895 445.126 635.432 424.369C635.056 418.936 628.077 415.412 621.906 417.515C594.156 426.988 585.003 456.089 585.003 456.089Z" fill="#F5F5F5"/>
<path d="M570.502 456.089H596.343C596.343 456.089 604.158 417.696 594.95 393.498C594.302 391.857 593.226 390.42 591.833 389.336C590.441 388.252 588.783 387.562 587.033 387.337C585.283 387.113 583.504 387.361 581.883 388.058C580.262 388.754 578.857 389.873 577.815 391.297C560.917 414.645 570.502 456.089 570.502 456.089Z" fill="#F5F5F5"/>
<path d="M469.769 225.217H604.13L613.993 213.599H469.769V225.217Z" fill="#E0E0E0"/>
<path d="M544.772 244.427H410.662V356.652H544.772V244.427Z" fill="#E0E0E0"/>
<path d="M538.475 349.562V251.504H416.972V349.562H538.475Z" fill="#F5F5F5"/>
<path d="M542.181 295.776H413.28V305.277H542.181V295.776Z" fill="#E0E0E0"/>
<path d="M469.769 185.068H126.769V456.075H469.769V185.068Z" fill="#F5F5F5"/>
<path d="M313.802 233.408H153.349V367.671H313.802V233.408Z" fill="#EBEBEB"/>
<path d="M306.251 359.202V241.878H160.885V359.202H306.251Z" fill="#FAFAFA"/>
<path d="M306.266 334.963V241.864H160.899V334.963H306.266Z" fill="#F5F5F5"/>
<path d="M310.681 329.279H156.469V340.646H310.681V329.279Z" fill="#EBEBEB"/>
<path d="M350.551 422.865H442.229V227.933H350.551V422.865Z" fill="#E0E0E0"/>
<path d="M437.395 422.864V232.363H355.371V422.864H437.395Z" fill="#EBEBEB"/>
<path d="M430.137 314.847V239.998H362.601V314.847H430.137Z" fill="#E0E0E0"/>
<path d="M430.15 401.147V326.298H362.615V401.147H430.15Z" fill="#E0E0E0"/>
<path d="M475.342 203.958H121.197V179.496L298.269 87.2474L475.342 179.496V203.958Z" fill="#EBEBEB"/>
<path d="M490.999 192.368L298.269 91.9701L105.538 192.368L101.68 184.957L298.269 82.5391L494.858 184.957L490.999 192.368Z" fill="#E0E0E0"/>
<path d="M298.269 187.687C290.724 187.69 283.349 185.455 277.074 181.266C270.8 177.076 265.909 171.12 263.02 164.151C260.131 157.182 259.374 149.512 260.844 142.112C262.314 134.713 265.946 127.915 271.279 122.579C276.613 117.244 283.409 113.61 290.809 112.137C298.208 110.664 305.878 111.419 312.848 114.305C319.818 117.192 325.776 122.08 329.968 128.353C334.16 134.626 336.397 142.001 336.397 149.545C336.386 159.655 332.366 169.348 325.218 176.498C318.071 183.649 308.379 187.672 298.269 187.687ZM298.269 119.775C292.377 119.773 286.617 121.517 281.717 124.789C276.817 128.061 272.997 132.712 270.741 138.155C268.485 143.598 267.894 149.587 269.043 155.366C270.192 161.145 273.028 166.453 277.195 170.619C281.361 174.785 286.669 177.622 292.448 178.771C298.227 179.92 304.216 179.329 309.659 177.073C315.102 174.817 319.753 170.997 323.025 166.097C326.297 161.197 328.041 155.437 328.039 149.545C328.02 141.658 324.877 134.099 319.297 128.525C313.718 122.95 306.156 119.814 298.269 119.803V119.775Z" fill="#E0E0E0"/>
<path d="M298.269 177.309C313.603 177.309 326.033 164.879 326.033 149.545C326.033 134.212 313.603 121.782 298.269 121.782C282.936 121.782 270.505 134.212 270.505 149.545C270.505 164.879 282.936 177.309 298.269 177.309Z" fill="#F5F5F5"/>
<path d="M453.986 419.619H338.779V425.595H453.986V419.619Z" fill="#EBEBEB"/>
<path d="M451.353 425.608H341.413V437.853H451.353V425.608Z" fill="#E0E0E0"/>
<path d="M462.734 437.854H330.031V443.83H462.734V437.854Z" fill="#EBEBEB"/>
<path d="M459.697 443.83H333.068V456.075H459.697V443.83Z" fill="#E0E0E0"/>
<path d="M432.895 315.961C432.895 316.961 432.598 317.938 432.043 318.77C431.487 319.602 430.697 320.25 429.773 320.632C428.849 321.015 427.832 321.115 426.852 320.92C425.871 320.725 424.97 320.243 424.262 319.536C423.555 318.829 423.074 317.928 422.878 316.947C422.683 315.966 422.783 314.949 423.166 314.025C423.549 313.101 424.197 312.312 425.029 311.756C425.86 311.2 426.838 310.904 427.838 310.904C429.179 310.904 430.465 311.436 431.414 312.385C432.362 313.333 432.895 314.619 432.895 315.961Z" fill="#FAFAFA"/>
<path d="M102.557 49.3151C94.4775 31.86 100.9 19.4199 120.667 19.4199C133.051 19.4199 148.403 24.3235 163.365 32.2779C165.05 27.7365 169.814 25.02 177.476 25.02C190.947 25.02 209.517 33.3784 224.088 45.2891C227.613 42.6562 232.711 41.0263 239.273 40.7756C252.145 40.2323 267.775 45.0662 281.399 52.937C283.014 51.4232 285.163 50.6116 287.375 50.6803C294.814 50.3738 304.872 55.2495 309.859 61.5601C310.18 61.9641 310.458 62.3402 310.723 62.7303H92.5272C85.6315 56.5172 93.2516 49.6216 102.557 49.3151Z" fill="#F5F5F5"/>
<path d="M387.773 78.8889C388.393 78.8213 389.016 78.7887 389.64 78.7914C389.069 72.3136 392.426 68.1762 399.587 68.1762C404.769 68.1762 411.107 70.3355 417.571 73.9853C415.732 61.4477 421.653 53.2426 435.068 53.2426C445.892 53.2426 459.6 58.5641 473.14 67.1732C474.324 62.2418 478.323 59.2884 485.023 59.2884C496.795 59.2884 513.525 68.413 526.94 81.2989C529.838 78.4292 534.184 76.66 539.91 76.3674C551.124 75.7963 564.985 81.0342 577.383 89.5876C577.969 88.7941 578.739 88.1559 579.628 87.7285C580.517 87.3012 581.497 87.0977 582.482 87.1358C588.611 86.8154 597.053 91.5379 601.985 97.8485H377.91C372.645 88.3338 376.838 79.9615 387.773 78.8889Z" fill="#F5F5F5"/>
<path d="M368.266 519C517.439 519 638.367 511.94 638.367 503.23C638.367 494.521 517.439 487.461 368.266 487.461C219.093 487.461 98.1646 494.521 98.1646 503.23C98.1646 511.94 219.093 519 368.266 519Z" fill="#F5F5F5"/>
<path d="M159 637C222.513 637 274 629.837 274 621C274 612.163 222.513 605 159 605C95.4872 605 44 612.163 44 621C44 629.837 95.4872 637 159 637Z" fill="#F5F5F5"/>
<path d="M381.5 677C423.197 677 457 669.837 457 661C457 652.163 423.197 645 381.5 645C339.802 645 306 652.163 306 661C306 669.837 339.802 677 381.5 677Z" fill="#F5F5F5"/>
<path d="M186.702 614.424C187.053 618.73 193.37 618.772 200.564 617.97C207.758 617.168 205.828 618.899 215.917 619.068C226.007 619.194 229.472 615.986 229.955 614.635C230.394 613.411 225.524 612.355 220.348 611.173C219.69 611.004 219.032 610.878 218.374 610.709C212.54 609.274 208.636 605.052 203.635 601.379C198.897 597.875 192.8 585.295 192.8 585.295L179.025 584.704C179.025 584.704 184.816 596.018 187.009 600.872C188.281 603.743 187.755 607.247 187.185 609.949C186.878 611.384 186.571 612.904 186.702 614.424Z" fill="#FFB27D"/>
<path d="M200.565 617.972C207.759 617.17 205.829 618.901 215.918 619.069C226.008 619.196 229.473 615.988 229.956 614.637C230.395 613.412 225.525 612.357 220.349 611.175L220.305 611.259C220.305 611.259 213.813 614.595 205.522 613.792C198.767 613.159 191.879 610.415 187.186 609.951C186.879 611.428 186.571 612.906 186.703 614.468C187.01 618.732 193.371 618.774 200.565 617.972Z" fill="#233862"/>
<path d="M91.6864 615.31C91.9935 619.616 98.3542 619.7 105.548 618.898C112.743 618.096 110.812 619.869 120.902 619.996C130.991 620.122 134.457 616.956 134.939 615.563C135.378 614.339 130.509 613.283 125.332 612.059C124.674 611.89 124.016 611.763 123.358 611.595C117.524 610.159 113.62 605.938 108.619 602.265C103.881 598.761 108.619 578.117 108.619 578.117L93.485 576.682C93.485 576.682 94.2308 594.075 94.1869 601.969C94.1869 605.093 92.6954 608.091 92.1251 610.792C91.8619 612.27 91.5987 613.79 91.6864 615.31Z" fill="#FFB27D"/>
<path d="M105.549 618.899C112.743 618.096 110.813 619.87 120.902 619.996C130.992 620.123 134.457 616.957 134.94 615.563C135.378 614.339 130.509 613.284 125.333 612.059L125.289 612.144C125.289 612.144 118.797 615.479 110.506 614.677C103.75 614.001 96.8633 611.3 92.2134 610.793C91.9063 612.271 91.5992 613.748 91.7308 615.268C92.0379 619.616 98.3547 619.701 105.549 618.899Z" fill="#233862"/>
<path d="M135.861 258.245C138.449 247.944 134.676 243.131 131.299 240.598C129.676 236.799 127.833 234.055 125.947 233.042C122.525 231.142 118.402 230.973 115.507 231.1C116.252 230.382 117.7 230.086 117.7 230.086C115.901 229.833 111.909 231.522 111.909 231.522C87.037 222.319 83.1328 257.527 83.6592 265.717C84.1856 273.907 84.0979 283.532 71.1572 289.991C46.4601 302.276 79.3603 348.672 79.3603 348.672C78.7461 342.044 110.418 307.173 127 296.704C131.035 291.005 132.439 280.915 132.571 280.113C131.869 288.092 130.465 292.567 129.193 295.1C136.738 288.472 137.835 272.429 135.861 258.245Z" fill="#22384C"/>
<path d="M126.035 297.21C126.123 297.253 118.051 301.263 111.998 299.701C106.295 298.223 102.566 291.089 102.654 291.047C105.067 290.582 105.768 287.374 105.725 273.654L106.821 273.865L125.202 277.369C125.202 277.369 124.763 282.941 124.763 288.176C124.719 292.566 124.982 296.746 126.035 297.21Z" fill="#FFB27D"/>
<path d="M125.158 277.369C125.158 277.369 124.719 282.942 124.719 288.177C114.454 287.881 109.015 278.889 106.778 273.865L125.158 277.369Z" fill="#ED975D"/>
<path d="M199.907 592.261C200.828 594.963 198.766 597.792 195.827 597.918L188.633 598.256L181.044 598.467C179.158 598.509 177.315 597.707 176.131 596.314C170.077 589.137 151.39 565.285 140.072 530.626C139.765 529.655 139.414 528.684 139.063 527.67C131.606 506.689 116.077 480.346 107.918 456.494C106.602 452.694 105.461 449.106 104.408 445.728C104.057 444.631 103.75 443.575 103.443 442.52C97.4335 422.383 95.6788 409.169 94.0558 395.069L153.057 395.533C153.057 395.533 165.471 488.409 199.907 592.261Z" fill="#2A4E96"/>
<path d="M144.81 362.898C144.678 389.917 148.933 401.484 148.933 401.484C148.933 401.484 123.666 413.853 93.6611 404.735C93.3102 404.608 72.1663 398.867 72.1663 398.867C72.6489 397.769 76.8601 379.7 77.3427 378.687C83.6595 365.6 85.4142 360.07 86.1599 356.059C87.5637 348.545 87.5637 340.777 86.9057 333.431C85.0632 314.012 79.6237 297.885 79.6237 297.885C87.783 296.112 95.4597 292.946 103.97 289.864C105.944 292.228 111.91 294.677 117.086 294.55C123.052 294.423 125.026 291.975 124.675 289.273C131.036 292.692 136.124 295.901 136.124 295.901C141.52 304.935 152.531 313.758 153.32 327.648C153.539 331.109 144.81 362.138 144.81 362.898Z" fill="white"/>
<path d="M94.0557 365.895C91.4676 369.399 86.5545 390.76 74.2279 393.42C80.5447 378.222 85.37 371.552 86.1157 366.866C87.5195 358.127 87.5195 349.093 86.8615 340.565C90.985 333.6 94.0557 328.871 94.0557 328.871C94.3628 327.731 100.592 309.241 102.61 325.789C104.584 342.338 96.9509 361.969 94.0557 365.895Z" fill="#5F9AA8"/>
<path d="M128.579 282.35C128.579 282.35 104.233 282.73 104.233 268.165C104.233 253.559 101.074 243.807 116.603 242.92C132.132 242.076 135.159 247.606 136.387 252.503C137.616 257.358 134.896 281.843 128.579 282.35Z" fill="#FFB27D"/>
<path d="M127.658 242.54C127.658 242.54 120.99 259.638 110.769 262.171C100.548 264.704 96.1175 262.044 96.1175 262.044C96.1175 262.044 103.97 256.049 105.593 245.58C105.593 245.622 122.657 234.392 127.658 242.54Z" fill="#22384C"/>
<path d="M126.034 243.933C126.034 243.933 130.991 247.775 132.22 251.49C133.448 255.205 133.974 262.846 136.299 262.593C136.299 262.593 141.3 250.941 135.685 244.398C129.675 237.39 126.034 243.933 126.034 243.933Z" fill="#22384C"/>
<path d="M124.719 289.315C124.719 289.315 138.8 322.793 139.195 329.548C139.59 336.302 140.862 440.323 140.862 440.323C140.862 440.323 140.028 445.094 149.547 443.11C159.067 441.125 161.567 439.141 161.567 439.141C161.567 439.141 152.443 374.972 154.943 352.682C157.443 330.392 135.905 293.959 135.905 293.959L124.719 289.315Z" fill="#22384C"/>
<path d="M188.676 598.213L180.429 598.467C178.938 598.509 177.534 597.918 176.613 596.82C171.086 590.361 151.74 566.171 140.116 530.625C139.809 529.654 139.458 528.683 139.107 527.67C131.649 506.688 116.12 480.345 107.961 456.493C106.645 452.694 105.505 449.105 104.452 445.728C104.101 444.63 103.794 443.575 103.487 442.519L112.172 436.187C112.172 436.187 138.273 476.841 146.345 515.089C153.32 548.314 181.394 588.293 188.676 598.213Z" fill="#1E3D70"/>
<path d="M113.05 518.636C113.182 536.24 112.305 575.459 110.111 594.625C109.892 596.398 108.357 597.707 106.514 597.707H100.373C97.7847 597.707 95.8545 597.707 94.5385 597.665C93.4418 597.665 92.4768 596.863 92.2574 595.807C86.1161 565.834 81.7732 540.926 78.5271 519.396C75.8512 501.369 73.4385 485.96 71.64 472.662C69.7976 459.28 68.5255 448.092 68.0429 438.636C67.9552 437.158 67.9113 435.681 67.9113 434.288C67.8674 432.852 67.8675 431.501 67.8675 430.15L118.841 425.38C118.183 458.013 112.963 507.828 113.05 518.636Z" fill="#2A4E96"/>
<path d="M100.329 597.707C98.0037 597.707 96.2051 597.707 94.933 597.664C93.5731 597.664 92.4325 596.694 92.1693 595.427C86.0718 565.622 81.729 540.841 78.5267 519.438C75.8508 501.411 73.4381 486.002 71.6396 472.704C69.7972 459.322 68.5251 448.134 68.0425 438.678L86.7299 449.274C86.7299 449.274 74.7981 453.327 79.3602 484.018C83.9224 514.709 94.0118 593.358 100.329 597.707Z" fill="#1E3D70"/>
<path d="M102.742 435.545C102.742 435.545 99.1445 448.041 86.7302 446.437C74.3159 444.833 56.6375 437.656 56.6375 437.656C56.6375 437.656 61.9454 421.529 68.5254 400.295C76.5092 374.627 86.4231 341.529 91.073 320.632C92.389 314.764 93.2663 309.909 93.6173 306.405L103.926 287.155C103.926 287.155 119.279 320.337 120.113 328.696C120.946 337.054 102.742 435.545 102.742 435.545Z" fill="#22384C"/>
<path d="M102.215 349.096C101.645 362.647 98.355 388.948 68.8325 403.006C68.7448 403.048 68.6571 403.09 68.6132 403.133C76.597 377.465 86.5109 344.367 91.1607 323.47C96.5564 331.28 102.522 341.623 102.215 349.096Z" fill="#22384C"/>
<path d="M135.224 374.424L101.067 435L62.1575 413.015L94.8397 351.598L135.224 374.424Z" fill="#616161"/>
<path d="M131.089 376.501L100.696 430.319L66.1681 410.818L95.2105 356.279L131.089 376.501Z" fill="#E0CEC7"/>
<rect x="77.3311" y="298.259" width="21.2223" height="3.45416" transform="rotate(-25.4885 77.3311 298.259)" fill="#22384C"/>
<path d="M94.4329 297.388C94.4329 297.388 80.9896 294.139 73.2558 306.653C65.5221 319.212 65.5739 324.569 64.5358 330.672C63.5496 336.469 59.1897 352.233 58.7225 353.901C58.2554 355.526 48.3416 374.979 52.9092 381.785C57.4768 388.635 104.087 408.746 103.776 410.239C103.464 411.732 111.821 395.046 111.821 395.046C111.821 395.046 92.9796 386.176 89.8653 383.409C84.8306 378.974 74.2939 374.188 76.422 368.655C78.9653 362.157 86.6472 340.333 88.412 337.127C90.2806 333.922 105.8 301.472 94.4329 297.388Z" fill="#22384C"/>
<path d="M79.7948 299.966L102.414 290.121L109.806 303.266L84.7282 318.208L79.7948 299.966Z" fill="#22384C"/>
<path d="M120.849 415.234C120.849 415.234 119.26 415.234 118.568 414.908C118.568 414.908 117.346 414.216 116.45 413.768C116.165 413.645 115.92 413.523 115.757 413.442C115.065 413.197 113.436 412.872 111.888 411.813C110.34 410.753 104.923 404.44 104.923 404.44L107.489 400.53L109.363 396.538C109.363 396.538 120.808 397.272 122.356 398.086C122.519 398.168 122.641 398.249 122.763 398.331C123.985 399.145 124.596 400.286 125.166 400.815C125.37 401.019 127.447 403.015 127.366 403.87C127.284 405.051 126.714 405.866 125.981 406.232C125.981 406.232 125.696 408.554 124.555 409.654C124.555 409.654 124.352 411.813 122.559 412.749C122.559 412.749 122.111 414.908 120.849 415.234Z" fill="#FFB27D"/>
<path d="M221.142 376.965C221.142 376.965 225.689 378.289 227.471 375.975C228.987 374.003 232.153 372.648 233.153 372.223C234.487 371.641 237.964 368.227 238.556 370.08C239.149 371.933 233.04 376.016 231.908 377.156C230.775 378.295 237.483 379.324 238.523 380.576C239.603 381.83 237.255 394.195 232.748 392.873C228.242 391.551 224.223 386.826 223.38 386.765C222.537 386.704 220.045 385.981 220.045 385.981L221.142 376.965Z" fill="#FFB27D"/>
<path d="M237.555 380.007C237.555 380.007 251.121 385.016 251.762 386.194C252.404 387.371 252.101 388.209 250.798 387.798C249.496 387.387 237.551 383.401 237.551 383.401C237.551 383.401 252.648 392.367 253.396 393.19C253.805 393.672 253.323 395.311 252.61 395.124C251.893 394.982 236.441 387.031 236.441 387.031C236.441 387.031 250.529 395.426 250.946 396.361C251.292 397.155 250.508 398.502 249.416 397.97C248.324 397.438 234.821 390.443 234.821 390.443C234.821 390.443 244.743 397.27 244.668 398.305C244.623 398.935 244.281 400.313 241.751 398.456C239.261 396.602 232.905 392.929 232.905 392.929L237.555 380.007Z" fill="#FFB27D"/>
<path d="M135.963 294.055C135.963 294.055 150.964 296.692 155.363 302.848C159.763 309.003 163.633 318.559 164.657 321.71C165.68 324.862 181.32 354.772 182.198 355.469C183.076 356.166 191.711 360.14 197.452 362.817C206.281 366.895 223.977 375.642 223.977 375.642L219.434 388.21C219.434 388.21 186.044 373.169 177.662 370.164C167.389 366.524 148.281 332.487 148.281 332.487C148.281 332.487 120.702 303.539 135.963 294.055Z" fill="#22384C"/>
<path d="M246.075 384.03C245.147 383.38 244.387 381.959 243.417 380.903C242.7 380.091 241.307 379.36 241.307 379.36C241.307 379.36 241.181 381.228 241.012 382.73C238.143 381.715 233.839 380.741 226.92 382.04C225.527 382.284 224.304 383.055 223.544 384.192C222.827 385.248 222.574 386.547 224.346 387.603C227.848 389.714 226.835 388.456 231.73 391.501C236.624 394.546 242.615 395.359 246.159 393.206L250.969 392.435L251.56 384.842C251.602 384.801 248.86 384.476 246.075 384.03Z" fill="#FFB27D"/>
<path d="M371.767 320.362C371.767 320.362 360.459 333.275 346.071 327.874C346.071 327.874 342.991 320.647 342.949 315.368C342.949 314.718 342.949 314.069 342.907 313.46C342.823 307.491 342.612 304.12 342.612 304.12C343.287 303.877 364.636 295.431 364.594 296.121C364.256 312.282 371.767 320.362 371.767 320.362Z" fill="#FFB27D"/>
<path d="M362.484 299.977C360.417 303.631 353.371 310.818 342.907 313.458C342.823 307.489 342.612 304.119 342.612 304.119C343.244 303.956 363.117 298.881 362.484 299.977Z" fill="#ED975D"/>
<path d="M338.139 303.51C338.139 303.51 362.146 308.951 365.437 294.496C368.728 280.04 374.044 271.026 358.855 266.925C343.666 262.864 339.404 267.737 337.084 272.285C334.805 276.873 331.979 301.723 338.139 303.51Z" fill="#FFB27D"/>
<path d="M364.636 298.435C364.973 298.638 370.121 300.181 379.909 281.381C381.428 278.417 382.483 272.083 378.897 266.439C375.31 260.795 362.61 256.369 352.062 254.46C341.514 252.552 338.983 258.236 336.493 264.002C333.877 270.012 326.367 275.006 326.367 275.006C335.481 279.879 346.408 272.895 350.206 274.032C354.003 275.169 355.353 280.935 355.649 282.802C355.944 284.63 356.366 286.173 361.134 284.548C365.901 282.884 363.285 291.045 362.526 292.629C362.526 292.588 361.893 296.73 364.636 298.435Z" fill="#22384C"/>
<path d="M426.49 658.682H441.046C444.084 658.682 447.502 655.759 448.346 650.358C449.189 644.958 455.476 642.034 456.826 637.649C458.176 633.264 451.215 627.051 451.215 627.051L450.033 625.63L448.81 624.127L437.291 626.726C437.291 626.726 436.996 629.365 436.827 632.736C436.7 635.172 436.616 637.974 436.785 640.451C437.122 646.338 435.055 652.632 429.654 653.769C424.254 654.906 426.49 658.682 426.49 658.682Z" fill="#2C3A64"/>
<path d="M325.27 658.682H363.834C364.214 658.601 364.467 658.52 364.636 658.439C367.209 657.18 366.408 647.719 366.112 644.795C366.07 644.268 366.028 643.943 366.028 643.943C366.028 643.943 352.484 633.507 350.586 641.507C350.543 641.75 350.459 641.994 350.375 642.237C348.012 649.709 337.506 653.12 331.43 654.053C326.789 654.784 325.566 657.383 325.27 658.682Z" fill="#2C3A64"/>
<path d="M333.034 444.735C333.034 444.735 335.101 469.464 337.506 499.186C340.797 539.548 344.763 589.126 345.143 598.506C345.818 614.829 348.518 640.897 348.518 640.897C348.518 640.897 354.974 647.11 367.842 644.471C367.842 644.471 379.319 607.236 382.61 567.809C382.652 567.159 382.694 566.509 382.778 565.86C385.816 525.742 390.584 441.284 390.584 441.284L333.034 444.735Z" fill="#006BFF"/>
<path d="M333.034 444.737C333.034 444.737 335.101 469.465 337.506 499.188L382.61 567.85C382.652 567.201 382.694 566.551 382.778 565.901C385.816 525.784 390.584 441.326 390.584 441.326L333.034 444.737Z" fill="#006BFF"/>
<path d="M342.442 447.7C342.442 447.7 379.572 537.234 403.959 579.3C428.346 621.367 435.983 633.102 435.983 633.102C435.983 633.102 449.949 627.701 451.214 624.047C451.214 624.047 441.89 542.837 425.561 523.022C416.321 511.815 405.478 478.275 404.971 466.5C404.465 454.765 401.68 431.539 401.68 431.539L342.442 447.7Z" fill="#006BFF"/>
<path d="M427.081 431.414L427.461 437.18C427.461 437.18 423.495 447.413 434.592 452.651C434.592 452.651 439.317 454.478 439.528 450.945C439.739 447.413 439.106 448.753 439.486 443.758C439.866 438.764 437.84 434.054 434.381 432.47L431.554 429.344L427.081 431.414Z" fill="#FFB27D"/>
<path d="M431.385 435.598C427.292 436.856 426.617 436.572 426.617 436.572C426.617 436.572 406.618 401.53 404.592 398.322C402.567 395.115 362.147 359.057 362.147 359.057L372.526 321.782C372.526 321.782 418.516 379.076 423.452 387.278C431.638 400.881 436.448 432.43 436.448 432.43C436.448 432.43 434.591 434.623 431.385 435.598Z" fill="#1E3D70"/>
<path d="M325.186 373.717C325.312 381.391 325.777 389.959 326.409 398.729C326.452 399.257 326.494 399.785 326.536 400.272C326.916 405.673 328.646 424.554 328.73 425.326C330.755 445.141 332.865 460.814 333.287 461.058C333.751 461.342 334.299 461.505 334.848 461.464C340.249 460.814 356.366 461.992 369.572 459.231C380.711 456.957 390.289 452.693 400.457 446.927C401.807 446.156 404.887 444.126 404.634 442.623C404.381 440.958 403.917 438.563 403.368 435.517C401.385 424.96 397.926 406.85 396.744 385.614C396.533 381.675 396.196 377.737 395.732 373.92C394.592 363.931 392.778 354.43 390.331 345.984C385.816 330.31 379.15 318.291 370.838 313.622C369.741 313.053 363.876 316.626 358.518 319.956C353.539 323.042 348.307 323.854 343.202 323.448L338.73 328.199C333.287 334.29 327.506 342.37 325.945 353.861C325.819 354.714 325.734 355.607 325.65 356.582C325.186 361.17 325.059 367.058 325.186 373.717Z" fill="#2A4E96"/>
<path d="M325.185 373.718C325.312 381.392 325.776 389.96 326.409 398.73C326.451 399.258 326.493 399.786 326.536 400.273C357.378 381.676 362.146 347.69 362.146 347.69C346.957 348.34 334.89 351.669 325.607 356.501C325.185 361.171 325.059 367.058 325.185 373.718Z" fill="#1E3D70"/>
<path d="M247.214 388.335C246.876 383.95 249.281 383.178 249.281 383.178C249.281 383.178 295.819 375.057 299.743 373.88C303.709 372.702 337.505 338.838 337.505 338.838C337.505 338.838 350.459 324.789 361.091 327.874C370.331 330.554 373.918 337.498 375.141 344.076C376.618 351.953 372.821 359.83 365.774 364.013C349.91 373.393 318.097 391.868 310.629 393.979C293.963 398.689 249.197 394.345 249.197 394.345C249.197 394.345 247.467 391.827 247.214 388.335Z" fill="#2A4E96"/>
<rect x="491.128" y="324.329" width="86.4031" height="13.936" fill="#006AFF"/>
<ellipse cx="497.167" cy="495.742" rx="36.6981" ry="16.2586" fill="#ECF2FF"/>
<rect x="491.128" y="327.116" width="13.936" height="170.019" fill="#006AFF"/>
<path d="M491.128 300.173H557.531C568.577 300.173 577.531 309.127 577.531 320.173V334.549H491.128V300.173Z" fill="#006AFF"/>
<path d="M547.801 316.896C547.801 309.2 554.04 302.96 561.737 302.96C569.433 302.96 575.673 309.2 575.673 316.896V338.265H547.801V316.896Z" fill="#0861DE"/>
<rect x="553.375" y="289.024" width="2.7872" height="13.0069" fill="#006AFF"/>
<rect x="553.375" y="288.095" width="8.36159" height="2.7872" fill="#006AFF"/>
<rect x="516.213" y="339.194" width="0.929066" height="22.2976" fill="#2B2727"/>
<rect x="516.213" y="339.194" width="0.929066" height="22.2976" fill="#2B2727"/>
<rect x="516.213" y="339.194" width="0.929066" height="22.2976" fill="#2B2727"/>
<rect x="558.021" y="339.194" width="0.929066" height="22.2976" fill="#2B2727"/>
<rect x="558.021" y="339.194" width="0.929066" height="22.2976" fill="#2B2727"/>
<rect x="558.021" y="339.194" width="0.929066" height="22.2976" fill="#2B2727"/>
<rect x="508.78" y="351.272" width="60.3893" height="37.1626" fill="#006AFF"/>
<path d="M528.891 365.426V356.34C528.891 356.163 528.97 356.023 529.129 355.92C529.287 355.817 529.474 355.766 529.689 355.766H534.575C534.761 355.766 534.901 355.845 534.995 356.004C535.088 356.153 535.135 356.335 535.135 356.55C535.135 356.774 535.083 356.965 534.981 357.124C534.887 357.283 534.752 357.362 534.575 357.362H530.711V360.162H532.853C533.03 360.162 533.165 360.232 533.259 360.372C533.361 360.512 533.413 360.685 533.413 360.89C533.413 361.077 533.361 361.24 533.259 361.38C533.165 361.52 533.03 361.59 532.853 361.59H530.711V365.426C530.711 365.603 530.617 365.743 530.431 365.846C530.253 365.949 530.043 366 529.801 366C529.549 366 529.334 365.949 529.157 365.846C528.979 365.743 528.891 365.603 528.891 365.426ZM536.479 362.878V358.972C536.479 357.861 536.773 357.049 537.361 356.536C537.958 356.023 538.756 355.766 539.755 355.766C540.753 355.766 541.551 356.023 542.149 356.536C542.746 357.049 543.045 357.861 543.045 358.972V362.878C543.045 363.989 542.746 364.801 542.149 365.314C541.551 365.827 540.753 366.084 539.755 366.084C538.756 366.084 537.958 365.827 537.361 365.314C536.773 364.801 536.479 363.989 536.479 362.878ZM538.299 362.878C538.299 363.951 538.784 364.488 539.755 364.488C540.735 364.488 541.225 363.951 541.225 362.878V358.972C541.225 357.899 540.735 357.362 539.755 357.362C538.784 357.362 538.299 357.899 538.299 358.972V362.878ZM545.302 365.426V356.326C545.302 356.177 545.358 356.046 545.47 355.934C545.582 355.822 545.722 355.766 545.89 355.766H548.662C550.874 355.766 551.98 356.741 551.98 358.692C551.98 359.457 551.812 360.073 551.476 360.54C551.15 361.007 550.706 361.324 550.146 361.492L551.98 364.894C552.027 364.95 552.05 365.025 552.05 365.118C552.05 365.351 551.929 365.571 551.686 365.776C551.444 365.972 551.187 366.07 550.916 366.07C550.646 366.07 550.436 365.925 550.286 365.636L548.298 361.772H547.122V365.426C547.122 365.603 547.034 365.743 546.856 365.846C546.679 365.949 546.464 366 546.212 366C545.97 366 545.755 365.949 545.568 365.846C545.391 365.743 545.302 365.603 545.302 365.426ZM547.122 360.344H548.662C549.661 360.344 550.16 359.849 550.16 358.86C550.16 357.861 549.661 357.362 548.662 357.362H547.122V360.344ZM526.5 382.39C526.5 382.175 526.579 381.961 526.738 381.746C526.906 381.522 527.093 381.41 527.298 381.41C527.419 381.41 527.555 381.466 527.704 381.578C527.863 381.69 528.012 381.816 528.152 381.956C528.301 382.087 528.511 382.208 528.782 382.32C529.053 382.432 529.351 382.488 529.678 382.488C530.126 382.488 530.499 382.385 530.798 382.18C531.097 381.975 531.246 381.671 531.246 381.27C531.246 380.99 531.162 380.743 530.994 380.528C530.835 380.304 530.621 380.122 530.35 379.982C530.089 379.833 529.799 379.693 529.482 379.562C529.165 379.422 528.843 379.268 528.516 379.1C528.199 378.932 527.905 378.745 527.634 378.54C527.373 378.325 527.158 378.045 526.99 377.7C526.831 377.345 526.752 376.944 526.752 376.496C526.752 376.001 526.85 375.567 527.046 375.194C527.251 374.811 527.522 374.517 527.858 374.312C528.194 374.097 528.553 373.943 528.936 373.85C529.319 373.747 529.725 373.696 530.154 373.696C530.397 373.696 530.653 373.715 530.924 373.752C531.195 373.78 531.479 373.831 531.778 373.906C532.086 373.981 532.333 374.097 532.52 374.256C532.716 374.415 532.814 374.601 532.814 374.816C532.814 375.021 532.749 375.236 532.618 375.46C532.487 375.675 532.31 375.782 532.086 375.782C532.002 375.782 531.773 375.693 531.4 375.516C531.027 375.339 530.611 375.25 530.154 375.25C529.65 375.25 529.258 375.348 528.978 375.544C528.707 375.731 528.572 375.992 528.572 376.328C528.572 376.599 528.684 376.837 528.908 377.042C529.132 377.238 529.407 377.401 529.734 377.532C530.07 377.653 530.429 377.812 530.812 378.008C531.204 378.195 531.563 378.4 531.89 378.624C532.226 378.848 532.506 379.175 532.73 379.604C532.954 380.024 533.066 380.519 533.066 381.088C533.066 382.059 532.758 382.81 532.142 383.342C531.535 383.865 530.733 384.126 529.734 384.126C528.847 384.126 528.087 383.944 527.452 383.58C526.817 383.216 526.5 382.819 526.5 382.39ZM534.304 383.244C534.304 383.225 534.314 383.179 534.332 383.104L537.034 374.298C537.09 374.102 537.226 373.953 537.44 373.85C537.664 373.738 537.916 373.682 538.196 373.682C538.476 373.682 538.728 373.738 538.952 373.85C539.176 373.953 539.316 374.102 539.372 374.298L542.074 383.104C542.093 383.179 542.102 383.225 542.102 383.244C542.102 383.449 541.976 383.627 541.724 383.776C541.472 383.925 541.216 384 540.954 384C540.609 384 540.404 383.879 540.338 383.636L539.806 381.774H536.6L536.068 383.636C536.003 383.879 535.798 384 535.452 384C535.182 384 534.92 383.93 534.668 383.79C534.426 383.641 534.304 383.459 534.304 383.244ZM536.978 380.346H539.414L538.196 376.048L536.978 380.346ZM543.771 383.426V374.326C543.771 374.139 543.86 373.999 544.037 373.906C544.214 373.813 544.429 373.766 544.681 373.766C544.933 373.766 545.148 373.813 545.325 373.906C545.502 373.999 545.591 374.139 545.591 374.326V382.404H549.007C549.175 382.404 549.306 382.483 549.399 382.642C549.502 382.801 549.553 382.987 549.553 383.202C549.553 383.417 549.502 383.603 549.399 383.762C549.306 383.921 549.175 384 549.007 384H544.569C544.354 384 544.168 383.949 544.009 383.846C543.85 383.743 543.771 383.603 543.771 383.426ZM551.252 383.426V374.34C551.252 374.163 551.332 374.023 551.49 373.92C551.649 373.817 551.836 373.766 552.05 373.766H557.034C557.221 373.766 557.361 373.845 557.454 374.004C557.557 374.163 557.608 374.345 557.608 374.55C557.608 374.774 557.557 374.965 557.454 375.124C557.352 375.283 557.212 375.362 557.034 375.362H553.072V378.162H555.2C555.378 378.162 555.518 378.237 555.62 378.386C555.723 378.526 555.774 378.694 555.774 378.89C555.774 379.067 555.723 379.231 555.62 379.38C555.527 379.52 555.387 379.59 555.2 379.59H553.072V382.404H557.034C557.212 382.404 557.352 382.483 557.454 382.642C557.557 382.801 557.608 382.992 557.608 383.216C557.608 383.421 557.557 383.603 557.454 383.762C557.361 383.921 557.221 384 557.034 384H552.05C551.836 384 551.649 383.949 551.49 383.846C551.332 383.743 551.252 383.603 551.252 383.426Z" fill="#F3F2F2"/>
</svg>
