<svg width="13" height="13" viewBox="0 0 13 13" fill="none" xmlns="http://www.w3.org/2000/svg">
<path d="M6.49989 3.4668C4.82723 3.4668 3.46655 4.82745 3.46655 6.50013C3.46655 8.17281 4.82723 9.53347 6.49989 9.53347C6.61948 9.53347 6.71655 9.4364 6.71655 9.31681C6.71655 9.19722 6.61948 9.10013 6.49989 9.10013C5.06621 9.10013 3.89989 7.93381 3.89989 6.50013C3.89989 5.06645 5.06621 3.90014 6.49989 3.90014C7.93357 3.90014 9.09988 5.06645 9.09988 6.50013C9.09988 7.63265 8.37666 8.62692 7.29982 8.97467C7.18607 9.01152 7.12346 9.13369 7.1603 9.24767C7.19714 9.36142 7.31868 9.4234 7.4333 9.38719C8.68932 8.98138 9.53323 7.82113 9.53323 6.50011C9.53323 4.82748 8.17254 3.4668 6.49989 3.4668Z" fill="#006AFF"/>
<path d="M6.49996 5.6333C6.02198 5.6333 5.6333 6.02201 5.6333 6.49996C5.6333 6.97794 6.02201 7.36662 6.49996 7.36662C6.97794 7.36662 7.36662 6.97791 7.36662 6.49996C7.36662 6.02198 6.97794 5.6333 6.49996 5.6333ZM6.49996 6.9333C6.26098 6.9333 6.06662 6.73896 6.06662 6.49996C6.06662 6.26098 6.26096 6.06662 6.49996 6.06662C6.73894 6.06662 6.9333 6.26096 6.9333 6.49996C6.9333 6.73893 6.73894 6.9333 6.49996 6.9333Z" fill="#006AFF"/>
<path d="M12.6137 5.2052L11.4632 4.94975C11.3702 4.65118 11.2504 4.36193 11.1061 4.08654L11.7438 3.08359C11.8722 2.85911 11.8605 2.66825 11.7089 2.51657L10.4832 1.29088C10.3837 1.19143 10.2759 1.17063 10.203 1.17063C10.0977 1.17063 10.0037 1.21136 9.90752 1.26143L8.91346 1.89409C8.63807 1.74957 8.34862 1.62975 8.05025 1.53659L7.79221 0.37634C7.72439 0.12675 7.58116 0.000228516 7.36666 0H5.63332C5.32997 0 5.24332 0.266068 5.20518 0.386318L4.94972 1.53662C4.65093 1.62977 4.3617 1.74959 4.08652 1.89412L3.08356 1.25625C3.01684 1.21812 2.915 1.16721 2.80081 1.16721C2.69466 1.16721 2.59909 1.2088 2.51654 1.29094L1.29111 2.51659C1.07618 2.73109 1.20313 2.98048 1.2612 3.0925L1.89409 4.08657C1.74957 4.36196 1.62975 4.65141 1.53682 4.94955L0.37634 5.20759C0.126521 5.27584 0 5.41904 0 5.63334V7.36668C0 7.67003 0.266068 7.75668 0.386318 7.79482L1.53682 8.05048C1.62977 8.34839 1.74959 8.63787 1.89409 8.91346L1.25623 9.91618C1.12752 10.1407 1.13923 10.3315 1.29111 10.4834L2.51659 11.7091C2.61625 11.8085 2.72393 11.8293 2.79696 11.8293C2.90205 11.8293 2.9963 11.7888 3.09248 11.7386L4.08654 11.1059C4.36193 11.2504 4.65118 11.3703 4.94975 11.4632L5.20759 12.6237C5.27561 12.8733 5.41884 13 5.63334 13H7.36668C7.6698 13 7.75668 12.7339 7.79482 12.6137L8.05028 11.4634C8.34862 11.3705 8.63809 11.2504 8.91348 11.1061L9.91621 11.744C9.98316 11.7821 10.0852 11.833 10.1992 11.833C10.3056 11.833 10.4013 11.7912 10.4835 11.7089L11.7089 10.4834C11.9237 10.2687 11.7967 10.0193 11.7386 9.9075L11.106 8.91343C11.2505 8.63784 11.3703 8.34859 11.4632 8.05045L12.6237 7.79218C12.8735 7.72436 13.0001 7.58116 13.0001 7.36666V5.63332C13 5.33 12.7337 5.24334 12.6137 5.2052ZM12.5665 7.35561C12.5565 7.35995 12.5413 7.3658 12.5197 7.37163L11.245 7.65505C11.1674 7.67239 11.1055 7.73066 11.0836 7.80713C10.9835 8.159 10.8427 8.49895 10.6656 8.81702C10.6269 8.88657 10.6295 8.97173 10.6721 9.03868L11.3627 10.1222C11.3791 10.1545 11.3876 10.1751 11.3917 10.1879L10.1844 11.3945C10.1742 11.3906 10.1597 11.3841 10.14 11.373L9.03848 10.6721C8.97152 10.6295 8.88639 10.6271 8.81682 10.6656C8.49898 10.8429 8.15946 10.9835 7.80716 11.0836C7.73068 11.1055 7.67218 11.1674 7.65507 11.245L7.3773 12.4993C7.36602 12.5342 7.35737 12.5548 7.3513 12.5667L5.64439 12.5662C5.63984 12.5562 5.63421 12.5413 5.62814 12.5196L5.34495 11.245C5.32784 11.1674 5.26934 11.1055 5.19287 11.0836C4.84057 10.9832 4.50084 10.8426 4.18321 10.6656C4.11366 10.6268 4.02873 10.6294 3.96134 10.6719L2.878 11.3626C2.8455 11.3793 2.82471 11.3875 2.81234 11.3919L1.6055 10.1844C1.60941 10.1744 1.61591 10.1597 1.62716 10.14L2.32786 9.03866C2.37054 8.9715 2.37313 8.88657 2.33436 8.817C2.15714 8.49872 2.01652 8.15897 1.91641 7.80711C1.89452 7.73063 1.83257 7.67234 1.755 7.65502L0.5005 7.37725C0.465842 7.36597 0.44525 7.35731 0.433342 7.35147L0.43357 5.64436C0.443549 5.64002 0.458479 5.63418 0.480365 5.62811L1.75503 5.34493C1.83259 5.32759 1.89455 5.26932 1.91643 5.19284C2.01652 4.84075 2.15737 4.50102 2.33459 4.18295C2.37336 4.11341 2.37077 4.02825 2.32809 3.96109L1.63714 2.87777C1.62068 2.8455 1.61243 2.82511 1.60812 2.81234L2.81539 1.6055C2.82557 1.60941 2.84009 1.61591 2.8598 1.62696L3.96155 2.32809C4.02871 2.37077 4.11386 2.37336 4.18341 2.33436C4.50062 2.15734 4.84014 2.01673 5.19287 1.91621C5.26934 1.89455 5.32784 1.83257 5.34495 1.7548L5.62273 0.500297C5.634 0.465842 5.64266 0.445275 5.6485 0.433342L7.35541 0.43357C7.35996 0.443549 7.36559 0.458479 7.37166 0.480162L7.65507 1.75503C7.67218 1.83259 7.73068 1.89455 7.80716 1.91643C8.15925 2.01675 8.49918 2.15737 8.81705 2.33439C8.88682 2.37316 8.97152 2.3708 9.03891 2.32812L10.122 1.63739C10.1548 1.62071 10.1753 1.61248 10.1879 1.60814L11.3943 2.81541C11.3906 2.8256 11.3841 2.84012 11.3728 2.85982L10.6721 3.96157C10.6295 4.02853 10.6269 4.11366 10.6656 4.18323C10.8427 4.50064 10.9833 4.84039 11.0836 5.19289C11.1055 5.26937 11.1674 5.32787 11.245 5.34498L12.4997 5.62296C12.5342 5.634 12.5547 5.64266 12.5667 5.64873L12.5665 7.35561Z" fill="#006AFF"/>
</svg>
