<svg width="82" height="82" viewBox="0 0 82 82" fill="none" xmlns="http://www.w3.org/2000/svg">
<path d="M47.8334 4.09999H34.1668C33.4124 4.09999 32.8002 4.71227 32.8002 5.46661C32.8002 6.22094 33.4124 6.83322 34.1668 6.83322H47.8334C48.5877 6.83322 49.2 6.22094 49.2 5.46661C49.2 4.71227 48.5877 4.09999 47.8334 4.09999Z" fill="#4E82F9"/>
<path d="M57.4 4.09999H56.0334C55.279 4.09999 54.6667 4.71227 54.6667 5.46661C54.6667 6.22094 55.279 6.83322 56.0334 6.83322H57.4C58.1543 6.83322 58.7666 6.22094 58.7666 5.46661C58.7666 4.71227 58.1543 4.09999 57.4 4.09999Z" fill="#4E82F9"/>
<path d="M42.6974 69.7H39.304C37.2253 69.7 35.5334 71.3919 35.5334 73.4706V74.1307C35.5334 76.2094 37.2253 77.9 39.3027 77.9H42.6961C44.7748 77.9 46.4667 76.2094 46.4667 74.1307V73.4706C46.4667 71.3919 44.7748 69.7 42.6974 69.7ZM43.7334 74.1307C43.7334 74.702 43.2688 75.1666 42.6976 75.1666H39.304C38.7314 75.1666 38.2667 74.702 38.2667 74.1307V73.4706C38.2667 72.898 38.7313 72.4332 39.304 72.4332H42.6961C43.2688 72.4332 43.7334 72.8978 43.7334 73.4706V74.1307Z" fill="#4E82F9"/>
<path d="M59.2942 0H22.7071C19.9833 0 17.7666 2.21672 17.7666 4.9405V77.0595C17.7666 79.7833 19.9833 82 22.7071 82H59.2927C62.0165 82 64.2332 79.7833 64.2332 77.0609V4.9405C64.2334 2.21672 62.0167 0 59.2942 0ZM61.5 77.0595C61.5 78.2759 60.5105 79.2666 59.2942 79.2666H22.7071C21.4894 79.2666 20.5 78.2757 20.5 77.0608V4.9405C20.5 3.72411 21.4894 2.73339 22.7071 2.73339H59.2927C60.5104 2.73339 61.4998 3.72427 61.4998 4.9405V77.0595H61.5Z" fill="#4E82F9"/>
<path d="M62.8667 8.2H19.1335C18.3791 8.2 17.7668 8.81228 17.7668 9.56662V66.9666C17.7668 67.721 18.3791 68.3332 19.1335 68.3332H62.8668C63.6212 68.3332 64.2335 67.721 64.2335 66.9666V9.56662C64.2335 8.81228 63.6212 8.2 62.8667 8.2ZM61.5001 65.6H20.5001V10.9334H61.5001V65.6Z" fill="#4E82F9"/>
</svg>
