<svg width="96" height="96" viewBox="0 0 96 96" fill="none" xmlns="http://www.w3.org/2000/svg">
<path d="M93.1875 82.5742H92.2495V20.0042C92.2495 18.9819 91.6949 18.0401 90.8009 17.5446C89.907 17.049 88.8145 17.0771 87.9473 17.6186L50.9029 40.7501L27.7635 19.7803C27.2462 19.3116 26.5729 19.0519 25.8749 19.0519H19.6885V10.6132C19.6885 9.06 18.4292 7.80075 16.876 7.80075C15.3227 7.80075 14.0635 9.06 14.0635 10.6132V85.3867C14.0635 86.94 15.3227 88.1992 16.876 88.1992H93.1875C94.7408 88.1992 96 86.94 96 85.3867C96 83.8335 94.7408 82.5742 93.1875 82.5742ZM24.7902 24.6769L48.7009 46.3455C49.6328 47.19 51.0122 47.3132 52.0791 46.647L86.6245 25.0762V59.9368L75.981 51.4491C75.0006 50.667 73.6214 50.6287 72.5991 51.3547L50.7837 66.8449L19.6887 39.2584V24.6769H24.7902ZM19.6887 46.7777L48.723 72.5362C49.2529 73.0063 49.9202 73.2448 50.5902 73.2448C51.1581 73.2448 51.7283 73.0732 52.218 72.7254L74.1295 57.1671L86.6247 67.1314V82.5742H19.6887V46.7777Z" fill="#4E82F9"/>
<path d="M5.625 82.5742H2.8125C1.25925 82.5742 0 83.8335 0 85.3867C0 86.94 1.25925 88.1992 2.8125 88.1992H5.625C7.17825 88.1992 8.4375 86.94 8.4375 85.3867C8.4375 83.8335 7.17825 82.5742 5.625 82.5742Z" fill="#4E82F9"/>
<path d="M5.625 67.6196H2.8125C1.25925 67.6196 0 68.8789 0 70.4321C0 71.9854 1.25925 73.2446 2.8125 73.2446H5.625C7.17825 73.2446 8.4375 71.9854 8.4375 70.4321C8.4375 68.8789 7.17825 67.6196 5.625 67.6196Z" fill="#4E82F9"/>
<path d="M5.625 52.6648H2.8125C1.25925 52.6648 0 53.9241 0 55.4773C0 57.0306 1.25925 58.2898 2.8125 58.2898H5.625C7.17825 58.2898 8.4375 57.0306 8.4375 55.4773C8.4375 53.9241 7.17825 52.6648 5.625 52.6648Z" fill="#4E82F9"/>
<path d="M5.625 37.7104H2.8125C1.25925 37.7104 0 38.9696 0 40.5229C0 42.0761 1.25925 43.3354 2.8125 43.3354H5.625C7.17825 43.3354 8.4375 42.0761 8.4375 40.5229C8.4375 38.9694 7.17825 37.7104 5.625 37.7104Z" fill="#4E82F9"/>
<path d="M5.625 22.7557H2.8125C1.25925 22.7557 0 24.015 0 25.5682C0 27.1215 1.25925 28.3807 2.8125 28.3807H5.625C7.17825 28.3807 8.4375 27.1215 8.4375 25.5682C8.4375 24.015 7.17825 22.7557 5.625 22.7557Z" fill="#4E82F9"/>
<path d="M5.625 7.80175H2.8125C1.25925 7.80175 0 9.061 0 10.6142C0 12.1675 1.25925 13.4268 2.8125 13.4268H5.625C7.17825 13.4268 8.4375 12.1675 8.4375 10.6142C8.4375 9.061 7.17825 7.80175 5.625 7.80175Z" fill="#4E82F9"/>
</svg>
