<svg width="100" height="100" viewBox="0 0 100 100" fill="none" xmlns="http://www.w3.org/2000/svg">
<path d="M7.77817 46.3352H14.0916C14.9006 46.3352 15.5565 45.6793 15.5565 44.8704V32.6379C15.5565 31.829 14.9006 31.1731 14.0916 31.1731H7.77817C6.96918 31.1731 6.31332 31.829 6.31332 32.6379V44.8704C6.31332 45.6793 6.96918 46.3352 7.77817 46.3352ZM9.24301 34.1026H12.6268V43.4053H9.24301V34.1026Z" fill="#006AFF"/>
<path d="M6.31332 63.4163C6.31332 64.2252 6.96918 64.8811 7.77817 64.8811H14.0916C14.9006 64.8811 15.5565 64.2252 15.5565 63.4163V51.1838C15.5565 50.3749 14.9006 49.719 14.0916 49.719H7.77817C6.96918 49.719 6.31332 50.3749 6.31332 51.1838V63.4163ZM9.24301 52.6487H12.6268V61.9514H9.24301V52.6487Z" fill="#006AFF"/>
<path d="M6.31332 92.2217C6.31332 93.0307 6.96918 93.6865 7.77817 93.6865H14.0916C14.9006 93.6865 15.5565 93.0307 15.5565 92.2217V79.9893C15.5565 79.1803 14.9006 78.5244 14.0916 78.5244H7.77817C6.96918 78.5244 6.31332 79.1803 6.31332 79.9893V92.2217ZM9.24301 81.4541H12.6268V90.7568H9.24301V81.4541Z" fill="#006AFF"/>
<path d="M98.5352 31.0547C99.3443 31.0547 100 30.3988 100 29.5898V21.5893C100 20.7803 99.3443 20.1244 98.5352 20.1244H81.0586V9.24316H81.5676C82.3768 9.24316 83.0324 8.58731 83.0324 7.77832V1.46484C83.0324 0.655859 82.3768 0 81.5676 0H18.4324C17.6234 0 16.9676 0.655859 16.9676 1.46484V7.77832C16.9676 8.58731 17.6234 9.24316 18.4324 9.24316H18.9414V20.1242H1.46484C0.655859 20.1242 0 20.7801 0 21.5891V29.5898C0 30.3988 0.655859 31.0547 1.46484 31.0547C2.27383 31.0547 2.92969 30.3988 2.92969 29.5898V23.0541H18.9414V68.2648H18.4324C17.6234 68.2648 16.9676 68.9207 16.9676 69.7297V76.0432C16.9676 76.8521 17.6234 77.508 18.4324 77.508H18.9414V97.0703H2.92969V36.4367C2.92969 35.6277 2.27383 34.9719 1.46484 34.9719C0.655859 34.9719 0 35.6277 0 36.4367V98.5352C0 99.3441 0.655859 100 1.46484 100H98.5352C99.3443 100 100 99.3441 100 98.5352V36.4367C100 35.6277 99.3443 34.9719 98.5352 34.9719C97.726 34.9719 97.0703 35.6277 97.0703 36.4367V97.0703H81.0586V77.508H81.5676C82.3768 77.508 83.0324 76.8521 83.0324 76.0432V69.7297C83.0324 68.9207 82.3768 68.2648 81.5676 68.2648H81.0586V23.0541H97.0703V29.5898C97.0703 30.3988 97.726 31.0547 98.5352 31.0547ZM80.1027 71.1945V74.5783H19.8973V71.1945H80.1027ZM48.5352 97.0703H43.5729V83.8217H48.5352V97.0703ZM51.4648 97.0703V83.8217H56.427V97.0703H51.4648ZM78.1289 97.0703H59.3568V82.3568C59.3568 81.5479 58.7012 80.892 57.892 80.892H42.1082C41.2992 80.892 40.6434 81.5479 40.6434 82.3568V97.0703H21.8711V77.508H78.1289V97.0703ZM21.8711 68.2648V9.24316H67.0162C67.8254 9.24316 68.481 8.58731 68.481 7.77832C68.481 6.96934 67.8254 6.31348 67.0162 6.31348H19.8973V2.92969H80.1027V6.31348H73.8631C73.0539 6.31348 72.3982 6.96934 72.3982 7.77832C72.3982 8.58731 73.0539 9.24316 73.8631 9.24316H78.1289V68.2648H21.8711Z" fill="#006AFF"/>
<path d="M33.0326 12.627H26.7191C25.9101 12.627 25.2543 13.2828 25.2543 14.0918V26.3242C25.2543 27.1332 25.9101 27.7891 26.7191 27.7891H33.0326C33.8416 27.7891 34.4974 27.1332 34.4974 26.3242V14.0918C34.4974 13.2828 33.8416 12.627 33.0326 12.627ZM31.5678 24.8594H28.184V15.5566H31.5678V24.8594Z" fill="#006AFF"/>
<path d="M46.4485 12.627H40.135C39.326 12.627 38.6702 13.2828 38.6702 14.0918V26.3242C38.6702 27.1332 39.326 27.7891 40.135 27.7891H46.4485C47.2575 27.7891 47.9133 27.1332 47.9133 26.3242V14.0918C47.9133 13.2828 47.2575 12.627 46.4485 12.627ZM44.9836 24.8594H41.5999V15.5566H44.9836V24.8594Z" fill="#006AFF"/>
<path d="M59.8652 12.627H53.5517C52.7425 12.627 52.0869 13.2828 52.0869 14.0918V26.3242C52.0869 27.1332 52.7425 27.7891 53.5517 27.7891H59.8652C60.6743 27.7891 61.33 27.1332 61.33 26.3242V14.0918C61.33 13.2828 60.6742 12.627 59.8652 12.627ZM58.4003 24.8594H55.0165V15.5566H58.4003V24.8594Z" fill="#006AFF"/>
<path d="M73.281 12.627H66.9676C66.1584 12.627 65.5027 13.2828 65.5027 14.0918V26.3242C65.5027 27.1332 66.1584 27.7891 66.9676 27.7891H73.281C74.0902 27.7891 74.7459 27.1332 74.7459 26.3242V14.0918C74.7459 13.2828 74.0902 12.627 73.281 12.627ZM71.8162 24.8594H68.4324V15.5566H71.8162V24.8594Z" fill="#006AFF"/>
<path d="M33.0326 31.1729H26.7191C25.9101 31.1729 25.2543 31.8287 25.2543 32.6377V44.8701C25.2543 45.6791 25.9101 46.335 26.7191 46.335H33.0326C33.8416 46.335 34.4974 45.6791 34.4974 44.8701V32.6377C34.4974 31.8287 33.8416 31.1729 33.0326 31.1729ZM31.5678 43.4055H28.184V34.1027H31.5678V43.4055Z" fill="#006AFF"/>
<path d="M46.4485 31.1729H40.135C39.326 31.1729 38.6702 31.8287 38.6702 32.6377V44.8701C38.6702 45.6791 39.326 46.335 40.135 46.335H46.4485C47.2575 46.335 47.9133 45.6791 47.9133 44.8701V32.6377C47.9133 31.8287 47.2575 31.1729 46.4485 31.1729ZM44.9836 43.4055H41.5999V34.1027H44.9836V43.4055Z" fill="#006AFF"/>
<path d="M59.8652 31.1729H53.5517C52.7425 31.1729 52.0869 31.8287 52.0869 32.6377V44.8701C52.0869 45.6791 52.7425 46.335 53.5517 46.335H59.8652C60.6743 46.335 61.33 45.6791 61.33 44.8701V32.6377C61.33 31.8287 60.6742 31.1729 59.8652 31.1729ZM58.4003 43.4055H55.0165V34.1027H58.4003V43.4055Z" fill="#006AFF"/>
<path d="M73.281 31.1729H66.9676C66.1584 31.1729 65.5027 31.8287 65.5027 32.6377V44.8701C65.5027 45.6791 66.1584 46.335 66.9676 46.335H73.281C74.0902 46.335 74.7459 45.6791 74.7459 44.8701V32.6377C74.7459 31.8287 74.0902 31.1729 73.281 31.1729ZM71.8162 43.4055H68.4324V34.1027H71.8162V43.4055Z" fill="#006AFF"/>
<path d="M33.0326 49.719H26.7191C25.9101 49.719 25.2543 50.3749 25.2543 51.1838V63.4163C25.2543 64.2252 25.9101 64.8811 26.7191 64.8811H33.0326C33.8416 64.8811 34.4974 64.2252 34.4974 63.4163V51.1838C34.4974 50.3749 33.8416 49.719 33.0326 49.719ZM31.5678 61.9514H28.184V52.6487H31.5678V61.9514Z" fill="#006AFF"/>
<path d="M46.4485 49.719H40.135C39.326 49.719 38.6702 50.3749 38.6702 51.1838V63.4163C38.6702 64.2252 39.326 64.8811 40.135 64.8811H46.4485C47.2575 64.8811 47.9133 64.2252 47.9133 63.4163V51.1838C47.9133 50.3749 47.2575 49.719 46.4485 49.719ZM44.9836 61.9514H41.5999V52.6487H44.9836V61.9514Z" fill="#006AFF"/>
<path d="M59.8652 49.719H53.5517C52.7425 49.719 52.0869 50.3749 52.0869 51.1838V63.4163C52.0869 64.2252 52.7425 64.8811 53.5517 64.8811H59.8652C60.6743 64.8811 61.33 64.2252 61.33 63.4163V51.1838C61.33 50.3749 60.6742 49.719 59.8652 49.719ZM58.4003 61.9514H55.0165V52.6487H58.4003V61.9514Z" fill="#006AFF"/>
<path d="M73.281 49.719H66.9676C66.1584 49.719 65.5027 50.3749 65.5027 51.1838V63.4163C65.5027 64.2252 66.1584 64.8811 66.9676 64.8811H73.281C74.0902 64.8811 74.7459 64.2252 74.7459 63.4163V51.1838C74.7459 50.3749 74.0902 49.719 73.281 49.719ZM71.8162 61.9514H68.4324V52.6487H71.8162V61.9514Z" fill="#006AFF"/>
<path d="M26.7191 93.6865H35.7947C36.6037 93.6865 37.2595 93.0306 37.2595 92.2217V82.3568C37.2595 81.5478 36.6037 80.892 35.7947 80.892H26.7191C25.9101 80.892 25.2543 81.5478 25.2543 82.3568V92.2217C25.2543 93.0306 25.9101 93.6865 26.7191 93.6865ZM28.184 83.8217H34.3299V90.7568H28.184V83.8217Z" fill="#006AFF"/>
<path d="M64.2049 93.6865H73.2807C74.0899 93.6865 74.7455 93.0306 74.7455 92.2217V82.3568C74.7455 81.5478 74.0899 80.892 73.2807 80.892H64.2049C63.3957 80.892 62.7401 81.5478 62.7401 82.3568V92.2217C62.7401 93.0306 63.3959 93.6865 64.2049 93.6865ZM65.6697 83.8217H71.8158V90.7568H65.6697V83.8217Z" fill="#006AFF"/>
<path d="M93.6868 32.6377C93.6868 31.8287 93.0312 31.1729 92.222 31.1729H85.9085C85.0993 31.1729 84.4437 31.8287 84.4437 32.6377V44.8701C84.4437 45.6791 85.0993 46.335 85.9085 46.335H92.222C93.0312 46.335 93.6868 45.6791 93.6868 44.8701V32.6377ZM90.7571 43.4055H87.3734V34.1027H90.7571V43.4055Z" fill="#006AFF"/>
<path d="M93.6868 51.1838C93.6868 50.3749 93.0312 49.719 92.222 49.719H85.9085C85.0993 49.719 84.4437 50.3749 84.4437 51.1838V63.4163C84.4437 64.2252 85.0993 64.8811 85.9085 64.8811H92.222C93.0312 64.8811 93.6868 64.2252 93.6868 63.4163V51.1838ZM90.7571 61.9514H87.3734V52.6487H90.7571V61.9514Z" fill="#006AFF"/>
<path d="M92.222 78.5244H85.9085C85.0993 78.5244 84.4437 79.1803 84.4437 79.9893V92.2217C84.4437 93.0307 85.0993 93.6865 85.9085 93.6865H92.222C93.0312 93.6865 93.6868 93.0307 93.6868 92.2217V79.9893C93.6868 79.1803 93.031 78.5244 92.222 78.5244ZM90.7571 90.7568H87.3734V81.4541H90.7571V90.7568Z" fill="#006AFF"/>
</svg>
