<svg width="89" height="103" viewBox="0 0 89 103" fill="none" xmlns="http://www.w3.org/2000/svg">
<path d="M28.6334 98.7249V99.2249H29.1334H79.6443H80.1443V98.7249V11.4775V10.9775H79.6443H29.1334H28.6334V11.4775V98.7249ZM80.7945 100.522H27.9867C27.6296 100.522 27.34 100.232 27.34 99.8751V10.3308C27.34 9.97369 27.6296 9.68408 27.9867 9.68408H80.7945C81.1516 9.68408 81.4412 9.97368 81.4412 10.3308V99.8717C81.4412 100.233 81.1507 100.522 80.7945 100.522Z" fill="#006AFF" stroke="#006AFF"/>
<path d="M86.0318 10.3308L86.0318 10.3336C86.0338 10.6871 85.7472 10.9776 85.3851 10.9776H23.3932C23.0361 10.9776 22.7465 10.688 22.7465 10.3308V1.14673C22.7465 0.789602 23.0361 0.5 23.3932 0.5H85.3851C85.7422 0.5 86.0318 0.789601 86.0318 1.14673L86.0318 10.3308ZM24.0433 9.18069V9.68069H24.5433H84.2384H84.7384V9.18069V2.29346V1.79346H84.2384H24.5433H24.0433V2.29346V9.18069Z" fill="#006AFF" stroke="#006AFF"/>
<path d="M39.4649 17.2183H34.8745V28.6993H39.4649V17.2183Z" fill="#006AFF"/>
<path d="M46.3511 17.2183H41.7607V28.6993H46.3511V17.2183Z" fill="#006AFF"/>
<path d="M53.2422 17.2183H48.6519V28.6993H53.2422V17.2183Z" fill="#006AFF"/>
<path d="M60.1299 17.2183H55.5396V28.6993H60.1299V17.2183Z" fill="#006AFF"/>
<path d="M67.0166 17.2183H62.4263V28.6993H67.0166V17.2183Z" fill="#006AFF"/>
<path d="M73.9078 17.2183H69.3175V28.6993H73.9078V17.2183Z" fill="#006AFF"/>
<path d="M39.4649 30.9923H34.8745V42.4733H39.4649V30.9923Z" fill="#006AFF"/>
<path d="M46.3511 30.9923H41.7607V42.4733H46.3511V30.9923Z" fill="#006AFF"/>
<path d="M53.2422 30.9923H48.6519V42.4733H53.2422V30.9923Z" fill="#006AFF"/>
<path d="M60.1299 30.9923H55.5396V42.4733H60.1299V30.9923Z" fill="#006AFF"/>
<path d="M67.0166 30.9923H62.4263V42.4733H67.0166V30.9923Z" fill="#006AFF"/>
<path d="M73.9078 30.9923H69.3175V42.4733H73.9078V30.9923Z" fill="#006AFF"/>
<path d="M39.4649 44.7704H34.8745V56.2514H39.4649V44.7704Z" fill="#006AFF"/>
<path d="M46.3511 44.7704H41.7607V56.2514H46.3511V44.7704Z" fill="#006AFF"/>
<path d="M53.2422 44.7704H48.6519V56.2514H53.2422V44.7704Z" fill="#006AFF"/>
<path d="M60.1299 44.7704H55.5396V56.2514H60.1299V44.7704Z" fill="#006AFF"/>
<path d="M67.0166 44.7704H62.4263V56.2514H67.0166V44.7704Z" fill="#006AFF"/>
<path d="M73.9078 44.7704H69.3175V56.2514H73.9078V44.7704Z" fill="#006AFF"/>
<path d="M7.97132 98.7252V99.2252H8.47132H26.8396H27.3396V98.7252V39.0302V38.5302H26.8396H8.47132H7.97132V39.0302V98.7252ZM27.9863 100.522H7.32117C6.96404 100.522 6.67444 100.232 6.67444 99.8754V37.8834C6.67444 37.5263 6.96404 37.2367 7.32117 37.2367H27.9863C28.3434 37.2367 28.633 37.5263 28.633 37.8834V99.8754C28.633 100.232 28.3434 100.522 27.9863 100.522Z" fill="#006AFF" stroke="#006AFF"/>
<path d="M3.37793 36.7329V37.2329H3.87793H26.8365H27.3365V36.7329V32.1392V31.6392H26.8365H3.87793H3.37793V32.1392V36.7329ZM27.9867 38.5298H2.7312C2.37407 38.5298 2.08447 38.2402 2.08447 37.8831V30.9958C2.08447 30.6387 2.37407 30.3491 2.7312 30.3491H27.9867C28.3438 30.3491 28.6334 30.6387 28.6334 30.9958V37.8831C28.6334 38.2402 28.3438 38.5298 27.9867 38.5298Z" fill="#006AFF" stroke="#006AFF"/>
<path d="M23.3922 44.7704H18.8019V49.3642H23.3922V44.7704Z" fill="#006AFF"/>
<path d="M16.5061 44.7704H11.9158V49.3642H16.5061V44.7704Z" fill="#006AFF"/>
<path d="M23.3922 51.6575H18.8019V56.2478H23.3922V51.6575Z" fill="#006AFF"/>
<path d="M16.5061 51.6575H11.9158V56.2478H16.5061V51.6575Z" fill="#006AFF"/>
<path d="M23.3922 58.545H18.8019V63.1388H23.3922V58.545Z" fill="#006AFF"/>
<path d="M16.5061 58.545H11.9158V63.1388H16.5061V58.545Z" fill="#006AFF"/>
<path d="M23.3922 65.432H18.8019V70.0258H23.3922V65.432Z" fill="#006AFF"/>
<path d="M16.5061 65.432H11.9158V70.0258H16.5061V65.432Z" fill="#006AFF"/>
<path d="M23.3922 72.323H18.8019V76.9133H23.3922V72.323Z" fill="#006AFF"/>
<path d="M16.5061 72.323H11.9158V76.9133H16.5061V72.323Z" fill="#006AFF"/>
<path d="M23.3922 79.2101H18.8019V83.8039H23.3922V79.2101Z" fill="#006AFF"/>
<path d="M16.5061 79.2101H11.9158V83.8039H16.5061V79.2101Z" fill="#006AFF"/>
<path d="M39.4649 58.545H34.8745V70.026H39.4649V58.545Z" fill="#006AFF"/>
<path d="M46.3511 58.545H41.7607V70.026H46.3511V58.545Z" fill="#006AFF"/>
<path d="M53.2422 58.545H48.6519V70.026H53.2422V58.545Z" fill="#006AFF"/>
<path d="M60.1299 58.545H55.5396V70.026H60.1299V58.545Z" fill="#006AFF"/>
<path d="M67.0166 58.545H62.4263V70.026H67.0166V58.545Z" fill="#006AFF"/>
<path d="M73.9078 58.545H69.3175V70.026H73.9078V58.545Z" fill="#006AFF"/>
<path d="M39.4649 72.323H34.8745V83.8006H39.4649V72.323Z" fill="#006AFF"/>
<path d="M46.3511 72.323H41.7607V83.8006H46.3511V72.323Z" fill="#006AFF"/>
<path d="M53.2422 72.323H48.6519V83.8006H53.2422V72.323Z" fill="#006AFF"/>
<path d="M60.1299 72.323H55.5396V83.8006H60.1299V72.323Z" fill="#006AFF"/>
<path d="M67.0166 72.323H62.4263V83.8006H67.0166V72.323Z" fill="#006AFF"/>
<path d="M73.9078 72.323H69.3175V83.8006H73.9078V72.323Z" fill="#006AFF"/>
<path d="M88.0336 101.734H0.966357C0.959462 101.734 0.852316 101.723 0.71845 101.486C0.593236 101.265 0.5 100.925 0.5 100.522C0.5 100.119 0.593236 99.7794 0.71845 99.5576C0.852316 99.3205 0.959462 99.3104 0.966357 99.3104H88.0336C88.0405 99.3104 88.1477 99.3205 88.2815 99.5576C88.4068 99.7794 88.5 100.119 88.5 100.522C88.5 100.925 88.4068 101.265 88.2815 101.486C88.1477 101.723 88.0405 101.734 88.0336 101.734Z" fill="#006AFF" stroke="#006AFF"/>
<path d="M64.724 101.022H44.0588C43.4256 101.022 42.9121 100.509 42.9121 99.8753V90.6912C42.9121 90.0579 43.4256 89.5444 44.0588 89.5444H64.724C65.3572 89.5444 65.8707 90.0579 65.8707 90.6912V99.8753C65.8707 100.509 65.3572 101.022 64.724 101.022ZM45.209 98.7251H63.5772V91.8379H45.209V98.7251Z" fill="#006AFF"/>
</svg>
