<svg width="542" height="493" viewBox="0 0 542 493" fill="none" xmlns="http://www.w3.org/2000/svg">
<g opacity="0.85">
<g opacity="0.85">
<g opacity="0.41">
<g opacity="0.41">
<g opacity="0.41">
<path opacity="0.41" d="M541.765 316.361C542.236 307.642 542.001 298.923 541.058 290.321C536.463 249.789 515.608 211.496 484.973 184.396C474.015 174.734 461.643 166.133 454.456 153.408C442.438 131.964 443.38 107.338 428.534 86.2472C413.688 65.0386 391.891 48.543 367.501 40.0595C294.449 14.8448 192.294 55.966 201.484 143.864C201.484 144.218 201.602 144.689 201.602 145.16C202.78 163.423 188.523 178.74 170.26 179.212C102.982 180.861 45.0115 232.705 32.6398 298.451C24.6276 340.751 37.7063 387.056 68.6945 416.984C91.7883 439.253 122.777 451.625 153.765 459.991C215.859 476.84 281.252 480.374 345.349 474.012C405.323 468.003 468.595 450.682 507.36 404.612C527.979 379.987 539.88 348.527 541.765 316.361Z" fill="#BFDDE8"/>
</g>
</g>
</g>
<g opacity="0.31">
<path opacity="0.31" d="M233.415 33.8154C242.07 33.8154 249.086 26.7993 249.086 18.1446C249.086 9.48982 242.07 2.47375 233.415 2.47375C224.76 2.47375 217.744 9.48982 217.744 18.1446C217.744 26.7993 224.76 33.8154 233.415 33.8154Z" fill="#BFDDE8"/>
</g>
<g opacity="0.31">
<path opacity="0.31" d="M445.03 16.7303C449.52 16.7303 453.16 13.0904 453.16 8.60032C453.16 4.11025 449.52 0.470337 445.03 0.470337C440.54 0.470337 436.9 4.11025 436.9 8.60032C436.9 13.0904 440.54 16.7303 445.03 16.7303Z" fill="#BFDDE8"/>
</g>
<g opacity="0.31">
<path opacity="0.31" d="M159.773 64.0964C165.76 64.0964 170.613 59.2432 170.613 53.2565C170.613 47.2697 165.76 42.4165 159.773 42.4165C153.786 42.4165 148.933 47.2697 148.933 53.2565C148.933 59.2432 153.786 64.0964 159.773 64.0964Z" fill="#BFDDE8"/>
</g>
</g>
</g>
<g opacity="0.85">
<g opacity="0.85">
<g opacity="0.85">
<g opacity="0.47">
<path opacity="0.47" d="M4.24154 63.3899C-2.82801 49.7221 2.59198 32.873 16.2598 25.9213C29.9276 18.8517 56.3205 19.4409 63.2723 33.1087C70.224 46.7765 49.3688 58.4412 40.7675 71.1664C28.7493 88.9581 11.3111 77.0577 4.24154 63.3899Z" fill="#BFDDE8"/>
</g>
<g opacity="0.47">
<path opacity="0.47" d="M68.8104 488.976C57.3813 496.281 42.2996 493.1 34.8766 481.67C27.5714 470.241 25.6862 447.265 37.1153 439.842C48.5444 432.537 60.5626 449.975 72.5809 456.338C89.1943 465.293 80.2395 481.553 68.8104 488.976Z" fill="#BFDDE8"/>
</g>
</g>
<g opacity="0.85">
<g opacity="0.47">
<path opacity="0.47" d="M528.566 118.178C538.228 139.269 540.938 163.541 536.225 186.282C530.687 213.028 514.073 233.53 519.847 262.043C523.382 279.364 524.206 295.506 525.974 312.709C529.626 347.938 506.768 379.044 478.372 395.894C455.278 409.561 428.296 414.628 401.668 414.274C377.749 413.921 353.948 409.561 330.854 403.552C308.585 397.897 286.787 390.356 263.34 392.712C243.899 394.715 226.343 403.081 208.316 409.326C165.073 424.29 112.759 426.41 73.1694 403.67C47.8368 389.06 30.0452 365.259 22.1508 339.808C15.9061 319.425 15.0813 300.337 19.7943 279.482C24.6252 258.155 32.873 236.593 30.2808 214.324C28.5134 198.771 21.4439 183.807 22.74 168.254C23.5647 157.885 28.1599 148.224 33.6978 139.387C54.0816 107.338 88.2511 85.894 124.188 74.1114C158.122 63.0358 192.998 54.9058 228.346 57.6158C301.28 63.1536 316.244 51.6067 390.828 35.5824C439.018 25.3315 492.865 61.9753 521.025 104.51C523.853 108.87 526.327 113.465 528.566 118.178Z" fill="#BFDDE8"/>
</g>
<g opacity="0.85">
<g opacity="0.81">
<path opacity="0.81" d="M478.372 151.052C479.904 167.901 474.248 185.222 478.961 201.953C484.617 221.865 501.112 236.829 507.828 256.506C517.726 285.491 517.254 317.893 505.236 346.172C499.463 359.721 490.979 372.447 479.432 381.166C461.641 394.598 438.193 397.544 416.278 395.894C383.522 393.302 348.999 379.163 316.126 383.051C297.981 385.172 292.443 404.849 283.017 417.81C272.412 432.42 257.92 443.967 242.013 451.626C212.557 465.765 177.327 467.061 147.281 454.336C115.233 440.668 87.1903 407.323 89.0755 369.619C89.9003 352.181 96.9699 334.86 93.6707 317.658C89.6647 296.096 73.4047 276.536 61.6221 258.98C48.6613 239.657 40.767 216.563 39.2352 192.998C39.2352 192.762 39.2352 192.409 39.2352 192.173C36.8787 151.523 62.4469 114.408 101.212 101.683L183.572 74.5831C266.875 46.8941 350.295 47.8367 427.118 88.1331C443.731 96.8522 470.831 122.892 476.369 140.801C477.429 144.1 478.018 147.517 478.372 151.052Z" fill="#BFDDE8"/>
</g>
</g>
</g>
</g>
</g>
<path opacity="0.58" d="M528.566 429.947C531.494 429.947 533.868 427.573 533.868 424.645C533.868 421.716 531.494 419.343 528.566 419.343C525.638 419.343 523.264 421.716 523.264 424.645C523.264 427.573 525.638 429.947 528.566 429.947Z" fill="#407BFF"/>
<path opacity="0.58" d="M353.478 11.7837C356.602 11.7837 359.134 9.25157 359.134 6.12805C359.134 3.00453 356.602 0.472412 353.478 0.472412C350.355 0.472412 347.823 3.00453 347.823 6.12805C347.823 9.25157 350.355 11.7837 353.478 11.7837Z" fill="#3D85FD"/>
<path opacity="0.58" d="M101.802 491.804C104.73 491.804 107.104 489.43 107.104 486.502C107.104 483.574 104.73 481.2 101.802 481.2C98.8734 481.2 96.4995 483.574 96.4995 486.502C96.4995 489.43 98.8734 491.804 101.802 491.804Z" fill="#407BFF"/>
<path opacity="0.58" d="M426.647 491.686C428.924 491.686 430.771 489.839 430.771 487.562C430.771 485.284 428.924 483.438 426.647 483.438C424.369 483.438 422.523 485.284 422.523 487.562C422.523 489.839 424.369 491.686 426.647 491.686Z" fill="#407BFF"/>
<path opacity="0.58" d="M93.7887 46.5409C96.0663 46.5409 97.9126 44.6946 97.9126 42.417C97.9126 40.1394 96.0663 38.2931 93.7887 38.2931C91.5111 38.2931 89.6648 40.1394 89.6648 42.417C89.6648 44.6946 91.5111 46.5409 93.7887 46.5409Z" fill="#407BFF"/>
<path opacity="0.58" d="M60.9158 89.6653C61.8919 89.6653 62.6832 88.874 62.6832 87.8979C62.6832 86.9218 61.8919 86.1305 60.9158 86.1305C59.9397 86.1305 59.1484 86.9218 59.1484 87.8979C59.1484 88.874 59.9397 89.6653 60.9158 89.6653Z" fill="#3D85FD"/>
<path opacity="0.58" d="M135.854 4.94868C137.221 4.94868 138.329 3.84088 138.329 2.47434C138.329 1.1078 137.221 0 135.854 0C134.488 0 133.38 1.1078 133.38 2.47434C133.38 3.84088 134.488 4.94868 135.854 4.94868Z" fill="#3D85FD"/>
<path opacity="0.58" d="M538.464 234.944C539.83 234.944 540.938 233.836 540.938 232.47C540.938 231.103 539.83 229.995 538.464 229.995C537.097 229.995 535.99 231.103 535.99 232.47C535.99 233.836 537.097 234.944 538.464 234.944Z" fill="#407BFF"/>
<path opacity="0.58" d="M514.781 82.5965C515.952 82.5965 516.902 81.6469 516.902 80.4756C516.902 79.3043 515.952 78.3547 514.781 78.3547C513.61 78.3547 512.66 79.3043 512.66 80.4756C512.66 81.6469 513.61 82.5965 514.781 82.5965Z" fill="#407BFF"/>
<path opacity="0.58" d="M486.149 33.1087C490.639 33.1087 494.279 29.4688 494.279 24.9787C494.279 20.4887 490.639 16.8488 486.149 16.8488C481.659 16.8488 478.019 20.4887 478.019 24.9787C478.019 29.4688 481.659 33.1087 486.149 33.1087Z" fill="#407BFF"/>
<path opacity="0.47" d="M6.48042 280.189C10.0595 280.189 12.9608 277.287 12.9608 273.708C12.9608 270.129 10.0595 267.228 6.48042 267.228C2.90138 267.228 0 270.129 0 273.708C0 277.287 2.90138 280.189 6.48042 280.189Z" fill="#BFDDE8"/>
<g opacity="0.86">
<g opacity="0.86">
<g opacity="0.44">
<path opacity="0.44" d="M274.769 406.146C193.705 406.146 127.958 340.399 127.958 259.335C127.958 178.27 193.705 112.524 274.769 112.524C355.833 112.524 421.58 178.27 421.58 259.335C421.58 340.399 355.951 406.146 274.769 406.146Z" fill="#F2F9FF"/>
</g>
<g opacity="0.86">
<path opacity="0.86" d="M274.769 406.146C193.705 406.146 127.958 340.399 127.958 259.335C127.958 178.27 193.705 112.524 274.769 112.524C355.833 112.524 421.58 178.27 421.58 259.335C421.58 340.399 355.951 406.146 274.769 406.146Z" fill="#F2F9FF"/>
</g>
<path opacity="0.86" d="M135.853 179.803C135.853 179.803 150.935 145.162 194.295 121.361" stroke="#F2F9FF" stroke-width="3" stroke-miterlimit="10" stroke-linecap="round" stroke-linejoin="round"/>
<path opacity="0.86" d="M321.899 410.152C321.899 410.152 386.821 392.832 410.622 339.81" stroke="#F2F9FF" stroke-width="3" stroke-miterlimit="10" stroke-linecap="round" stroke-linejoin="round"/>
<g opacity="0.86">
<path opacity="0.86" d="M359.134 128.431C359.134 128.431 393.774 143.512 417.575 186.872" stroke="#F2F9FF" stroke-width="3" stroke-miterlimit="10" stroke-linecap="round" stroke-linejoin="round"/>
</g>
<g opacity="0.86">
<path opacity="0.86" d="M128.783 314.478C128.783 314.478 146.104 379.4 199.125 403.2" stroke="#F2F9FF" stroke-width="3" stroke-miterlimit="10" stroke-linecap="round" stroke-linejoin="round"/>
</g>
</g>
</g>
</svg>
