<svg width="286" height="160" viewBox="0 0 286 160" fill="none" xmlns="http://www.w3.org/2000/svg">
<g opacity="0.34">
<g opacity="0.34">
<g opacity="0.6">
<path opacity="0.6" d="M248.48 102.896C250.467 111.167 250.136 118.771 247.486 126.885C244.173 137.038 236.72 146.484 226.036 152.286C222.309 154.324 218.293 155.853 214.11 156.95C213.448 157.97 212.702 158.989 211.916 159.929H247.61C256.679 149.699 261.896 136.567 262.725 123.24C262.932 119.634 262.849 115.988 262.435 112.421C260.778 98.5056 254.236 85.2565 244.463 74.7122C244.339 75.4569 244.215 76.2017 244.09 76.9465C242.972 85.8053 246.409 94.3898 248.48 102.896Z" fill="#53D0F7"/>
</g>
<g opacity="0.41">
<path opacity="0.41" d="M137.915 157.891C135.803 155.147 134.189 151.659 131.952 148.875C127.19 149.777 122.511 151.11 117.749 152.286C108.018 154.638 97.9969 156.402 87.9759 156.519C76.8369 156.676 65.4494 154.638 55.7596 149.189C48.3474 145.034 41.8462 138.723 38.3264 131.197C39.3202 141.585 43.2955 151.737 50.0038 159.969H139.613C138.992 159.263 138.454 158.597 137.915 157.891Z" fill="#53D0F7"/>
</g>
<g opacity="0.41">
<path opacity="0.41" d="M152.038 15.0914C154.73 15.013 157.67 14.8562 160.858 14.621C175.683 13.5626 190.383 16.7769 204.628 21.1671C205.994 21.5983 207.361 22.0687 208.727 22.5391C202.599 16.1497 194.772 11.1715 186.159 8.34925C169.099 2.74388 148.436 4.97819 133.446 13.7978C139.616 13.837 145.827 14.2682 152.038 15.0914Z" fill="#53D0F7"/>
</g>
<g opacity="0.35">
<path opacity="0.35" d="M55.3893 149.307C65.0791 154.598 76.4252 156.637 87.5642 156.558C97.5852 156.48 107.648 154.834 117.379 152.599C122.141 151.502 126.861 150.247 131.624 149.385C129.677 146.994 127.276 145.112 123.714 144.72C109.884 143.153 95.3491 148.562 81.6013 149.463C72.3671 150.091 62.5531 148.875 55.0581 143.662C50.2132 140.252 46.6934 135.391 44.2503 130.139C39.2398 119.242 39.1156 106.737 43.3393 95.5657C46.1965 88.0396 53.1532 82.2774 55.555 74.5945C57.584 68.166 55.2237 61.4631 55.8862 54.9953C56.0105 53.6626 56.3003 52.369 56.7144 51.0755C59.0748 44.1766 70.5037 34.2202 77.5018 30.8883C94.2725 22.8919 111.789 19.0112 129.677 18.6192C119.532 17.0121 109.925 14.1114 92.906 10.7012C72.7398 6.54613 50.0062 20.5792 38.0803 36.9249C36.8795 38.6104 35.8028 40.3351 34.8918 42.1383C30.7509 50.2523 29.5915 59.6208 31.4963 68.4012C33.7324 78.7104 40.6891 86.6676 38.2046 97.6432C36.6724 104.346 36.2997 110.539 35.513 117.164C34.8918 122.338 35.9271 127.277 38.0389 131.785C41.5173 139.076 48.0185 145.23 55.3893 149.307Z" fill="#53D0F7"/>
</g>
<g opacity="0.47">
<path opacity="0.47" d="M160.857 14.621C157.669 14.8562 154.77 15.013 152.037 15.0914C161.23 16.3066 170.506 18.4233 179.74 21.2848L214.317 32.0643C230.59 37.1209 241.357 51.8595 240.322 68.0484C240.322 68.166 240.322 68.2444 240.28 68.362C239.618 77.7304 236.346 86.9421 230.88 94.625C225.953 101.602 219.12 109.403 217.422 117.987C216.056 124.808 218.996 131.707 219.369 138.645C219.7 145.23 217.629 151.502 214.027 156.911C218.209 155.814 222.226 154.285 225.953 152.247C236.595 146.445 244.09 136.998 247.402 126.846C250.053 118.732 250.384 111.127 248.396 102.857C246.367 94.3506 242.93 85.7661 244.007 76.9073C244.09 76.1625 244.214 75.4177 244.38 74.673C245.415 69.2636 247.692 64.011 247.195 58.5624C246.823 54.4466 244.918 50.566 242.558 47.1165C234.773 35.553 222.267 27.4389 208.644 22.5391C207.277 22.0687 205.911 21.5983 204.544 21.1672C190.382 16.7769 175.682 13.5627 160.857 14.621Z" fill="#53D0F7"/>
</g>
<g opacity="0.7">
<path opacity="0.7" d="M56.5892 47.7045C56.1337 49.0372 55.8853 50.4092 55.7611 51.7811C55.1399 58.484 57.5002 65.3829 55.5126 72.0075C53.1109 79.9647 46.1956 85.8837 43.3797 93.6842C39.1974 105.209 39.4045 118.105 44.4564 129.355C46.8995 134.764 50.4607 139.781 55.3056 143.27C62.8006 148.64 72.6146 149.816 81.8488 149.111C95.5966 148.092 110.09 142.447 123.92 144.015C127.482 144.407 129.925 146.328 131.871 148.797C134.107 151.58 135.722 155.069 137.834 157.813C138.372 158.518 138.952 159.224 139.532 159.89H211.832C212.619 158.91 213.364 157.93 214.027 156.911C217.629 151.502 219.7 145.23 219.368 138.645C218.996 131.707 216.056 124.808 217.422 117.987C219.12 109.442 225.952 101.602 230.88 94.6249C236.346 86.9029 239.617 77.7304 240.28 68.362C240.28 68.2444 240.28 68.166 240.321 68.0484C241.315 51.8595 230.549 37.1209 214.317 32.0643L179.74 21.2847C170.464 18.3841 161.23 16.3065 152.037 15.0914C145.826 14.2682 139.615 13.7979 133.445 13.7979C132.078 13.7979 130.753 13.7979 129.386 13.837C111.539 14.3466 94.0231 18.4233 77.2938 26.7333C70.2957 30.2612 58.9496 40.6096 56.5892 47.7045Z" fill="#53D0F7"/>
</g>
<g opacity="0.35">
<path opacity="0.35" d="M120.483 10.662C123.593 10.662 126.115 8.2752 126.115 5.33098C126.115 2.38676 123.593 0 120.483 0C117.373 0 114.851 2.38676 114.851 5.33098C114.851 8.2752 117.373 10.662 120.483 10.662Z" fill="#53D0F7"/>
</g>
<g opacity="0.35">
<path opacity="0.35" d="M272.539 80.6703C279.56 80.6703 285.251 75.2826 285.251 68.6364C285.251 61.9903 279.56 56.6025 272.539 56.6025C265.518 56.6025 259.826 61.9903 259.826 68.6364C259.826 75.2826 265.518 80.6703 272.539 80.6703Z" fill="#53D0F7"/>
</g>
<g opacity="0.35">
<path opacity="0.35" d="M26.0252 100.94C31.4258 96.6929 32.1668 89.1058 27.6804 83.9936C23.194 78.8814 15.1791 78.1799 9.77853 82.4268C4.378 86.6737 3.63695 94.2607 8.12335 99.3729C12.6098 104.485 20.6247 105.187 26.0252 100.94Z" fill="#53D0F7"/>
</g>
<g opacity="0.35">
<path opacity="0.35" d="M219.741 20.1872C221.867 20.1872 223.592 18.555 223.592 16.5417C223.592 14.5284 221.867 12.8962 219.741 12.8962C217.614 12.8962 215.89 14.5284 215.89 16.5417C215.89 18.555 217.614 20.1872 219.741 20.1872Z" fill="#53D0F7"/>
</g>
</g>
</g>
<path d="M104.227 70.25H96.9883C96.6216 70.25 96.3242 69.9527 96.3242 69.5859C96.3242 69.2192 96.6216 68.9219 96.9883 68.9219H104.227C107.178 68.9219 109.672 66.489 109.672 63.6094C109.672 59.8799 105.838 57.3986 102.449 58.6013C102.241 58.6751 102.01 58.6407 101.833 58.5096C101.655 58.3786 101.554 58.1679 101.564 57.9474C101.739 53.7887 98.1013 50.3281 94 50.3281C89.8679 50.3281 86.2593 53.7652 86.4365 57.9474C86.4458 58.1678 86.345 58.3786 86.1674 58.5097C85.9899 58.6408 85.759 58.6751 85.5509 58.6013C82.1369 57.3896 78.3281 59.9029 78.3281 63.6094C78.3281 66.489 80.8218 68.9219 83.7734 68.9219H91.0117C91.3784 68.9219 91.6758 69.2192 91.6758 69.5859C91.6758 69.9527 91.3784 70.25 91.0117 70.25H83.7734C80.0884 70.25 77 67.2672 77 63.6094C77 59.3034 81.0813 56.2718 85.1199 57.1053C85.4192 52.5675 89.4299 49 94 49C98.5328 49 102.574 52.5801 102.879 57.1055C106.915 56.272 111 59.301 111 63.6094C111 67.2649 107.914 70.25 104.227 70.25Z" fill="#006AFF"/>
<path d="M123.502 146.4H172.502L173.667 144.806H174.067V144.806V56.6352C174.067 55.765 173.374 55.045 172.502 55.045H164.734V47.1029C164.734 46.2327 164.041 45.5127 163.168 45.5127H132.836C131.96 45.5127 131.267 46.2319 131.267 47.1029V55.045H123.502C122.629 55.045 121.936 55.765 121.936 56.6352V144.81C121.936 145.68 122.629 146.4 123.502 146.4ZM170.937 143.216H125.071V58.2254H132.839C133.711 58.2254 134.404 57.5054 134.404 56.6352V48.6931H161.606V56.6352C161.606 57.5054 162.299 58.2254 163.172 58.2254H170.937V143.216Z" fill="#006AFF" stroke="#006AFF" stroke-width="0.8"/>
<path d="M172.502 146.4H198.17L199.335 144.806H199.735V144.805V89.9965C199.735 89.1263 199.042 88.4063 198.17 88.4063H172.502C171.63 88.4063 170.937 89.1263 170.937 89.9965V144.81C170.937 145.68 171.63 146.4 172.502 146.4ZM196.604 91.5902V143.216H174.071V91.5902H196.604Z" fill="#006AFF" stroke="#006AFF" stroke-width="0.8"/>
<path d="M172.502 91.59H188.836C189.711 91.59 190.405 90.8708 190.405 89.9997V78.0835C190.405 77.2117 189.707 76.4933 188.836 76.4933H172.502C171.63 76.4933 170.937 77.2133 170.937 78.0835V89.9997C170.937 90.87 171.63 91.59 172.502 91.59ZM187.27 79.6737V88.406H174.071V79.6737H187.27Z" fill="#006AFF" stroke="#006AFF" stroke-width="0.8"/>
<path d="M132.835 63.7837H128.167V68.5516H132.835V63.7837Z" fill="#006AFF"/>
<path d="M139.832 63.7837H135.167V68.5516H139.832V63.7837Z" fill="#006AFF"/>
<path d="M146.834 63.7837H142.169V68.5516H146.834V63.7837Z" fill="#006AFF"/>
<path d="M153.834 63.7837H149.169V68.5516H153.834V63.7837Z" fill="#006AFF"/>
<path d="M160.833 63.7837H156.168V68.5516H160.833V63.7837Z" fill="#006AFF"/>
<path d="M167.837 63.7837H163.171V68.5516H167.837V63.7837Z" fill="#006AFF"/>
<path d="M132.835 70.9354H128.167V75.7033H132.835V70.9354Z" fill="#006AFF"/>
<path d="M139.832 70.9354H135.167V75.7033H139.832V70.9354Z" fill="#006AFF"/>
<path d="M146.834 70.9354H142.169V75.7033H146.834V70.9354Z" fill="#006AFF"/>
<path d="M153.834 70.9354H149.169V75.7033H153.834V70.9354Z" fill="#006AFF"/>
<path d="M160.833 70.9354H156.168V75.7033H160.833V70.9354Z" fill="#006AFF"/>
<path d="M167.837 70.9354H163.171V75.7033H167.837V70.9354Z" fill="#006AFF"/>
<path d="M132.835 78.0836H128.167V82.8515H132.835V78.0836Z" fill="#006AFF"/>
<path d="M139.832 78.0836H135.167V82.8515H139.832V78.0836Z" fill="#006AFF"/>
<path d="M146.834 78.0836H142.169V82.8515H146.834V78.0836Z" fill="#006AFF"/>
<path d="M153.834 78.0836H149.169V82.8515H153.834V78.0836Z" fill="#006AFF"/>
<path d="M160.833 78.0836H156.168V82.8515H160.833V78.0836Z" fill="#006AFF"/>
<path d="M167.837 78.0836H163.171V82.8515H167.837V78.0836Z" fill="#006AFF"/>
<path d="M132.835 85.2323H128.167V90.0002H132.835V85.2323Z" fill="#006AFF"/>
<path d="M139.832 85.2323H135.167V90.0002H139.832V85.2323Z" fill="#006AFF"/>
<path d="M146.834 85.2323H142.169V90.0002H146.834V85.2323Z" fill="#006AFF"/>
<path d="M153.834 85.2323H149.169V90.0002H153.834V85.2323Z" fill="#006AFF"/>
<path d="M160.833 85.2323H156.168V90.0002H160.833V85.2323Z" fill="#006AFF"/>
<path d="M167.837 85.2323H163.171V90.0002H167.837V85.2323Z" fill="#006AFF"/>
<path d="M132.835 92.3805H128.167V97.1484H132.835V92.3805Z" fill="#006AFF"/>
<path d="M139.832 92.3805H135.167V97.1484H139.832V92.3805Z" fill="#006AFF"/>
<path d="M146.834 92.3805H142.169V97.1484H146.834V92.3805Z" fill="#006AFF"/>
<path d="M153.834 92.3805H149.169V97.1484H153.834V92.3805Z" fill="#006AFF"/>
<path d="M160.833 92.3805H156.168V97.1484H160.833V92.3805Z" fill="#006AFF"/>
<path d="M167.837 92.3805H163.171V97.1484H167.837V92.3805Z" fill="#006AFF"/>
<path d="M132.835 99.5288H128.167V104.297H132.835V99.5288Z" fill="#006AFF"/>
<path d="M139.832 99.5288H135.167V104.297H139.832V99.5288Z" fill="#006AFF"/>
<path d="M146.834 99.5288H142.169V104.297H146.834V99.5288Z" fill="#006AFF"/>
<path d="M153.834 99.5288H149.169V104.297H153.834V99.5288Z" fill="#006AFF"/>
<path d="M160.833 99.5288H156.168V104.297H160.833V99.5288Z" fill="#006AFF"/>
<path d="M167.837 99.5288H163.171V104.297H167.837V99.5288Z" fill="#006AFF"/>
<path d="M132.835 106.681H128.167V111.445H132.835V106.681Z" fill="#006AFF"/>
<path d="M139.832 106.681H135.167V111.445H139.832V106.681Z" fill="#006AFF"/>
<path d="M146.834 106.681H142.169V111.445H146.834V106.681Z" fill="#006AFF"/>
<path d="M153.834 106.681H149.169V111.445H153.834V106.681Z" fill="#006AFF"/>
<path d="M160.833 106.681H156.168V111.445H160.833V106.681Z" fill="#006AFF"/>
<path d="M167.837 106.681H163.171V111.445H167.837V106.681Z" fill="#006AFF"/>
<path d="M184.167 94.7643H179.502V104.297H184.167V94.7643Z" fill="#006AFF"/>
<path d="M191.17 94.7643H186.505V104.297H191.17V94.7643Z" fill="#006AFF"/>
<path d="M184.167 106.681H179.502V116.213H184.167V106.681Z" fill="#006AFF"/>
<path d="M191.17 106.681H186.505V116.213H191.17V106.681Z" fill="#006AFF"/>
<path d="M184.167 118.594H179.502V128.126H184.167V118.594Z" fill="#006AFF"/>
<path d="M191.17 118.594H186.505V128.126H191.17V118.594Z" fill="#006AFF"/>
<path d="M184.167 130.51H179.502V140.042H184.167V130.51Z" fill="#006AFF"/>
<path d="M191.17 130.51H186.505V140.042H191.17V130.51Z" fill="#006AFF"/>
<path d="M97.8336 146.4H123.501C124.374 146.4 125.066 145.679 125.066 144.806V89.9965C125.066 89.1263 124.373 88.4063 123.501 88.4063H97.8336C96.9612 88.4063 96.2682 89.1263 96.2682 89.9965V144.81C96.2682 145.68 96.9612 146.4 97.8336 146.4ZM121.932 91.5902V143.216H99.3991V91.5902H121.932Z" fill="#006AFF" stroke="#006AFF" stroke-width="0.8"/>
<path d="M107.168 91.59H123.501C124.374 91.59 125.067 90.87 125.067 89.9997V78.0835C125.067 77.2133 124.374 76.4933 123.501 76.4933H107.168C106.295 76.4933 105.602 77.2133 105.602 78.0835V89.9997C105.602 90.87 106.295 91.59 107.168 91.59ZM121.932 79.6737V88.406H108.733V79.6737H121.932Z" fill="#006AFF" stroke="#006AFF" stroke-width="0.8"/>
<path d="M116.499 94.7643H111.834V104.297H116.499V94.7643Z" fill="#006AFF"/>
<path d="M109.499 94.7643H104.833V104.297H109.499V94.7643Z" fill="#006AFF"/>
<path d="M116.499 106.681H111.834V116.213H116.499V106.681Z" fill="#006AFF"/>
<path d="M109.499 106.681H104.833V116.213H109.499V106.681Z" fill="#006AFF"/>
<path d="M116.499 118.594H111.834V128.126H116.499V118.594Z" fill="#006AFF"/>
<path d="M109.499 118.594H104.833V128.126H109.499V118.594Z" fill="#006AFF"/>
<path d="M116.499 130.51H111.834V140.042H116.499V130.51Z" fill="#006AFF"/>
<path d="M109.499 130.51H104.833V140.042H109.499V130.51Z" fill="#006AFF"/>
<path d="M132.835 113.829H128.167V118.593H132.835V113.829Z" fill="#006AFF"/>
<path d="M139.832 113.829H135.167V118.593H139.832V113.829Z" fill="#006AFF"/>
<path d="M146.834 113.829H142.169V118.593H146.834V113.829Z" fill="#006AFF"/>
<path d="M153.834 113.829H149.169V118.593H153.834V113.829Z" fill="#006AFF"/>
<path d="M160.833 113.829H156.168V118.593H160.833V113.829Z" fill="#006AFF"/>
<path d="M167.837 113.829H163.171V118.593H167.837V113.829Z" fill="#006AFF"/>
<path d="M156.169 146H139.835C139.192 146 138.67 145.467 138.67 144.81V125.745C138.67 125.088 139.192 124.555 139.835 124.555H156.169C156.812 124.555 157.334 125.088 157.334 125.745V144.81C157.334 145.467 156.812 146 156.169 146ZM141.001 143.616H155V126.935H141.001V143.616Z" fill="#006AFF"/>
<path d="M137.501 48.6966H158.503C159.376 48.6966 160.069 47.9723 160.069 47.1064V35.1902C160.069 34.32 159.376 33.6 158.503 33.6H137.501C136.629 33.6 135.936 34.32 135.936 35.1902V47.1064C135.936 47.9767 136.629 48.6966 137.501 48.6966ZM156.938 36.7804V45.5127H139.07V36.7804H156.938Z" fill="#006AFF" stroke="#006AFF" stroke-width="0.8"/>
<path d="M204.4 144.81C204.4 143.937 203.708 143.216 202.835 143.216H93.1654C92.2915 143.216 91.6 143.941 91.6 144.81C91.6 145.68 92.293 146.4 93.1654 146.4H202.838C203.709 146.4 204.403 145.681 204.4 144.81ZM204.4 144.81H204L204.4 144.807C204.4 144.808 204.4 144.809 204.4 144.81Z" fill="#006AFF" stroke="#006AFF" stroke-width="0.8"/>
<path d="M193.505 48.2968H185.34C182.765 48.2968 180.674 46.1579 180.674 43.5324H176.009C173.435 43.5324 171.344 41.3936 171.344 38.768C171.344 36.1389 173.438 34.0037 176.009 34.0037H185.343C187.917 34.0037 190.008 36.1425 190.008 38.768H193.508C196.082 38.768 198.173 40.9068 198.173 43.5324C198.17 46.1579 196.079 48.2968 193.505 48.2968ZM176.002 36.3805C174.715 36.3805 173.668 37.4499 173.668 38.7645C173.668 40.079 174.715 41.1484 176.002 41.1484H182.038C182.417 41.1484 182.772 41.3367 182.991 41.6529C183.21 41.9691 183.266 42.3742 183.137 42.7401C183.047 43.003 183.002 43.2695 183.002 43.5324C183.002 44.8469 184.049 45.9163 185.336 45.9163H193.501C194.788 45.9163 195.835 44.8469 195.835 43.5324C195.835 42.2178 194.788 41.1484 193.501 41.1484H188.631C188.251 41.1484 187.897 40.9601 187.677 40.6439C187.458 40.3277 187.403 39.9227 187.531 39.5568C187.622 39.2938 187.667 39.0274 187.667 38.7645C187.667 37.4499 186.62 36.3805 185.333 36.3805H176.002Z" fill="#006AFF"/>
</svg>
