<svg width="495" height="434" viewBox="0 0 495 434" fill="none" xmlns="http://www.w3.org/2000/svg">
<path d="M221.569 354.18L225.457 355.359C230.76 357.008 236.297 354.063 237.947 348.76L325.374 68.6886C327.023 63.3865 324.078 57.8487 318.775 56.1991L314.887 55.0209C309.585 53.3713 304.047 56.3169 302.398 61.6191L214.971 341.691C213.321 346.875 216.267 352.531 221.569 354.18Z" fill="#233863"/>
<path d="M228.404 357.598C227.226 357.598 226.047 357.362 224.869 357.009L220.981 355.831C218.035 354.888 215.561 352.885 214.029 350.057C212.615 347.229 212.262 344.048 213.204 341.102L300.631 61.1484C301.574 58.2028 303.577 55.7284 306.404 54.1967C309.232 52.7828 312.414 52.4293 315.359 53.3719L319.247 54.5502C325.492 56.4354 328.909 63.0336 327.024 69.2784L239.597 349.35C238.655 352.296 236.652 354.77 233.824 356.302C232.056 357.127 230.289 357.598 228.404 357.598Z" fill="#233863"/>
<path d="M372.034 419.691L242.543 379.277C228.522 374.918 220.746 360.072 225.105 346.05L311.825 68.0993C316.185 54.078 331.031 46.3015 345.052 50.6611L474.542 91.0753C488.564 95.4349 496.34 110.281 491.981 124.302L405.261 402.253C400.901 416.157 386.055 424.051 372.034 419.691Z" fill="#407BFF"/>
<path d="M379.929 422.637C377.101 422.637 374.273 422.166 371.563 421.341L242.072 380.927C234.885 378.688 228.994 373.739 225.459 367.023C221.924 360.307 221.217 352.649 223.456 345.461L310.176 67.5102C314.771 52.6642 330.677 44.2985 345.523 49.0116L475.014 89.4258C489.86 94.021 498.226 109.928 493.513 124.774L406.793 402.725C403.14 414.861 391.947 422.637 379.929 422.637ZM372.623 417.924C378.868 419.927 385.584 419.338 391.475 416.275C397.367 413.211 401.608 408.027 403.612 401.782L490.331 123.831C494.337 110.87 487.15 96.9667 474.071 92.8428L344.581 52.4285C331.62 48.4225 317.717 55.6098 313.593 68.6885L226.873 346.522C224.87 352.766 225.459 359.482 228.522 365.374C231.586 371.265 236.77 375.507 243.015 377.51L372.623 417.924Z" fill="#233863"/>
<path d="M476.328 124.053L325.16 76.8628L290.575 187.652L441.743 234.843L476.328 124.053Z" fill="#F5F5F5"/>
<path d="M441.671 236.472C441.553 236.472 441.317 236.472 441.2 236.355L290.029 189.224C289.558 189.106 289.204 188.753 288.969 188.4C288.733 187.928 288.733 187.457 288.851 187.103L323.374 76.3472C323.492 75.8759 323.845 75.5224 324.199 75.2868C324.67 75.0511 325.141 75.0511 325.495 75.1689L476.665 122.299C477.136 122.417 477.49 122.771 477.726 123.124C477.961 123.595 477.961 124.067 477.843 124.42L443.32 235.176C443.085 236.001 442.378 236.472 441.671 236.472ZM292.739 186.396L440.493 232.466L474.073 125.127L326.319 79.0572L292.739 186.396Z" fill="#233863"/>
<path d="M458.046 103.33C457.929 103.33 457.811 103.33 457.693 103.33L352.239 70.3383C351.65 70.1027 351.296 69.5135 351.414 68.8066C351.65 68.2175 352.239 67.864 352.946 67.9818L458.4 100.973C458.989 101.209 459.343 101.798 459.225 102.505C458.989 102.976 458.518 103.33 458.046 103.33Z" fill="#F5F5F5"/>
<path d="M352.121 106.393L328.555 99.088C327.848 98.8523 327.377 98.0276 327.613 97.3206L329.027 92.9611C329.262 92.2541 330.087 91.7828 330.794 92.0185L354.359 99.3236C355.066 99.5593 355.538 100.384 355.302 101.091L353.888 105.451C353.652 106.275 352.828 106.629 352.121 106.393Z" fill="#F5F5F5"/>
<path d="M352.474 107.689C352.239 107.689 352.003 107.689 351.649 107.571L328.084 100.266C326.788 99.7945 325.963 98.3806 326.435 97.0845L327.849 92.7249C328.084 92.018 328.556 91.5467 329.145 91.1932C329.734 90.8397 330.441 90.8397 331.148 90.9576L354.713 98.2628C355.42 98.4984 355.891 98.9697 356.245 99.5588C356.598 100.148 356.598 100.855 356.363 101.562L354.949 105.921C354.713 106.628 354.242 107.1 353.653 107.453C353.299 107.571 352.946 107.689 352.474 107.689ZM352.474 105.332C352.592 105.332 352.71 105.332 352.71 105.214L354.124 100.855C354.124 100.737 354.124 100.619 354.006 100.619L330.441 93.3141C330.323 93.3141 330.205 93.3141 330.205 93.4319L328.791 97.7914C328.791 97.9093 328.791 98.0271 328.909 98.0271L352.474 105.332Z" fill="#233863"/>
<path d="M386.998 117.35L363.433 110.045C362.726 109.809 362.255 108.984 362.49 108.277L363.904 103.918C364.14 103.211 364.965 102.739 365.672 102.975L389.237 110.28C389.944 110.516 390.415 111.341 390.179 112.048L388.765 116.407C388.53 117.114 387.823 117.586 386.998 117.35Z" fill="#F5F5F5"/>
<path d="M387.469 118.529C387.233 118.529 386.998 118.529 386.644 118.411L363.079 111.106C361.783 110.634 360.958 109.221 361.429 107.924L362.843 103.565C363.315 102.269 364.729 101.444 366.025 101.915L389.59 109.221C390.297 109.456 390.768 109.928 391.121 110.517C391.475 111.106 391.475 111.813 391.357 112.52L389.943 116.879C389.708 117.586 389.236 118.057 388.647 118.411C388.294 118.411 387.822 118.529 387.469 118.529ZM387.351 116.172C387.469 116.172 387.587 116.172 387.587 116.054L389.001 111.695C389.001 111.577 389.001 111.459 388.883 111.459L365.318 104.154C365.2 104.154 365.082 104.154 365.082 104.272L363.668 108.631C363.668 108.749 363.668 108.867 363.786 108.867L387.351 116.172Z" fill="#233863"/>
<path d="M424.701 129.014L401.136 121.709C400.429 121.474 399.958 120.649 400.194 119.942L401.608 115.582C401.843 114.875 402.668 114.404 403.375 114.64L426.94 121.945C427.647 122.181 428.118 123.005 427.883 123.712L426.469 128.072C426.115 128.897 425.408 129.25 424.701 129.014Z" fill="#F5F5F5"/>
<path d="M425.055 130.311C424.82 130.311 424.584 130.311 424.348 130.193L400.783 122.888C399.487 122.417 398.662 121.003 399.133 119.707L400.547 115.347C400.783 114.64 401.254 114.169 401.843 113.815C402.433 113.462 403.14 113.462 403.847 113.58L427.412 120.885C428.708 121.356 429.533 122.77 429.061 124.066L427.647 128.426C427.176 129.604 426.116 130.311 425.055 130.311ZM425.055 127.954C425.173 127.954 425.291 127.954 425.291 127.837L426.705 123.477C426.705 123.359 426.705 123.241 426.587 123.241L403.022 115.936C402.904 115.936 402.786 115.936 402.786 116.054L401.372 120.296C401.372 120.414 401.372 120.531 401.49 120.531L425.055 127.954Z" fill="#233863"/>
<path d="M460.049 140.09L436.484 132.785C435.777 132.549 435.305 131.724 435.541 131.017L436.955 126.658C437.191 125.951 438.015 125.479 438.722 125.715L462.288 133.02C462.994 133.256 463.466 134.081 463.23 134.788L461.816 139.147C461.581 139.972 460.756 140.325 460.049 140.09Z" fill="#F5F5F5"/>
<path d="M460.521 141.386C460.286 141.386 460.05 141.386 459.697 141.268L436.131 133.963C435.424 133.727 434.953 133.256 434.6 132.667C434.246 132.078 434.246 131.371 434.482 130.664L435.896 126.304C436.367 125.008 437.781 124.184 439.077 124.655L462.642 131.96C463.938 132.431 464.763 133.845 464.292 135.141L462.878 139.501C462.642 140.208 462.171 140.679 461.582 141.033C461.228 141.268 460.875 141.386 460.521 141.386ZM460.404 139.03C460.521 139.03 460.639 139.03 460.639 138.912L462.053 134.552C462.053 134.434 462.053 134.317 461.935 134.317L438.37 127.011C438.252 127.011 438.134 127.011 438.134 127.129L436.721 131.489C436.721 131.607 436.721 131.724 436.838 131.724L460.404 139.03Z" fill="#233863"/>
<path d="M437.373 241.093L290.367 195.201L281.87 222.42L428.876 268.312L437.373 241.093Z" fill="#233863"/>
<path d="M428.944 270.052C428.708 270.052 428.591 270.052 428.473 269.934L281.426 223.982C280.484 223.747 280.012 222.686 280.248 221.744L288.731 194.526C288.849 194.055 289.203 193.701 289.556 193.465C290.028 193.23 290.499 193.23 290.852 193.348L437.899 239.3C438.842 239.535 439.313 240.596 439.077 241.538L430.594 268.756C430.476 269.227 430.122 269.581 429.769 269.817C429.533 270.052 429.18 270.052 428.944 270.052ZM284.136 221.272L427.766 266.164L435.189 242.363L291.559 197.472L284.136 221.272Z" fill="#233863"/>
<path d="M331.384 229.52C331.148 229.52 330.795 229.52 330.559 229.403L304.52 221.273C302.988 220.801 302.045 219.152 302.634 217.62L304.873 210.315C305.109 209.608 305.58 208.901 306.287 208.547C306.994 208.194 307.819 208.076 308.526 208.312L334.565 216.442C335.272 216.677 335.979 217.149 336.332 217.856C336.686 218.563 336.804 219.387 336.568 220.094L334.212 227.517C333.74 228.696 332.562 229.52 331.384 229.52ZM330.795 228.224C331.737 228.46 332.68 227.989 333.033 227.046L335.272 219.741C335.39 219.27 335.39 218.798 335.154 218.445C334.919 217.974 334.565 217.738 334.094 217.62L308.054 209.49C307.583 209.372 307.112 209.372 306.758 209.608C306.287 209.844 306.051 210.197 305.933 210.668L303.695 217.974C303.459 218.916 303.93 219.859 304.873 220.212L330.795 228.224Z" fill="#F5F5F5"/>
<path d="M371.681 242.128C371.327 242.128 371.091 242.128 370.856 242.01L344.816 233.88C344.109 233.644 343.402 233.173 343.049 232.466C342.695 231.759 342.578 230.934 342.813 230.227L345.052 222.922C345.288 222.215 345.759 221.508 346.466 221.155C347.173 220.801 347.998 220.683 348.705 220.919L374.744 229.049C375.451 229.285 376.158 229.756 376.511 230.463C376.865 231.17 376.983 231.995 376.747 232.702L374.508 240.007C374.273 240.714 373.801 241.421 373.095 241.774C372.623 242.01 372.152 242.128 371.681 242.128ZM371.091 240.832C371.563 240.949 372.034 240.949 372.388 240.714C372.859 240.478 373.095 240.125 373.212 239.653L375.451 232.348C375.569 231.877 375.569 231.405 375.333 231.052C375.098 230.581 374.744 230.345 374.273 230.227L348.233 222.097C347.762 221.979 347.291 221.979 346.937 222.215C346.466 222.451 346.23 222.804 346.112 223.275L343.874 230.581C343.756 231.052 343.756 231.523 343.992 231.877C344.227 232.348 344.581 232.584 345.052 232.702L371.091 240.832Z" fill="#F5F5F5"/>
<path d="M412.448 254.853C412.095 254.853 411.859 254.853 411.623 254.735L385.584 246.605C384.052 246.134 383.109 244.485 383.699 242.953L385.937 235.648C386.173 234.941 386.644 234.234 387.351 233.88C388.058 233.527 388.883 233.409 389.59 233.645L415.629 241.775C416.336 242.01 417.043 242.481 417.397 243.188C417.75 243.895 417.868 244.72 417.632 245.427L415.394 252.732C415.158 253.439 414.687 254.146 413.98 254.5C413.391 254.735 412.919 254.853 412.448 254.853ZM411.859 253.557C412.33 253.675 412.802 253.675 413.155 253.439C413.626 253.204 413.862 252.85 413.98 252.379L416.218 245.074C416.336 244.602 416.336 244.131 416.101 243.778C415.865 243.306 415.512 243.071 415.04 242.953L389.001 234.823C388.529 234.705 388.058 234.705 387.705 234.941C387.233 235.176 386.998 235.53 386.88 236.001L384.641 243.306C384.406 244.249 384.877 245.191 385.819 245.545L411.859 253.557Z" fill="#F5F5F5"/>
<path d="M299.099 279.008L280.364 273.116C275.062 271.467 272.117 265.811 273.766 260.627L277.183 249.787C278.833 244.485 284.488 241.539 289.673 243.188L308.407 249.08C313.709 250.729 316.655 256.385 315.005 261.569L311.588 272.409C309.939 277.711 304.283 280.657 299.099 279.008Z" fill="#5A6F8E"/>
<path d="M302.044 281.246C300.866 281.246 299.687 281.01 298.509 280.657L279.775 274.766C273.53 272.88 270.113 266.282 271.998 260.037L275.415 249.197C277.3 242.953 283.899 239.536 290.143 241.421L308.878 247.312C315.123 249.197 318.539 255.796 316.654 262.04L313.237 272.88C312.295 275.826 310.292 278.3 307.464 279.832C305.814 280.775 303.929 281.246 302.044 281.246ZM286.727 244.602C283.192 244.602 280.01 246.841 278.832 250.376L275.415 261.216C274.119 265.575 276.476 270.17 280.835 271.466L299.57 277.358C301.69 278.065 303.929 277.829 305.814 276.769C307.817 275.708 309.231 274.059 309.82 271.938L313.237 261.098C314.533 256.738 312.177 252.143 307.817 250.847L289.083 244.956C288.376 244.72 287.551 244.602 286.727 244.602Z" fill="#233863"/>
<path d="M350.236 295.033L331.501 289.141C326.199 287.492 323.253 281.836 324.903 276.652L328.32 265.812C329.97 260.51 335.625 257.564 340.81 259.214L359.544 265.105C364.846 266.754 367.792 272.41 366.142 277.594L362.725 288.434C361.076 293.619 355.42 296.564 350.236 295.033Z" fill="#5A6F8E"/>
<path d="M353.182 297.153C352.004 297.153 350.825 296.918 349.647 296.564L330.913 290.673C324.668 288.788 321.251 282.189 323.136 275.945L326.553 265.105C327.496 262.159 329.499 259.685 332.327 258.153C335.154 256.739 338.336 256.385 341.281 257.328L360.016 263.219C366.26 265.105 369.677 271.703 367.792 277.948L364.375 288.788C363.433 291.733 361.43 294.208 358.602 295.739C356.952 296.8 355.067 297.153 353.182 297.153ZM350.707 293.265C352.828 293.972 355.067 293.736 356.952 292.676C358.955 291.615 360.369 289.966 360.958 287.845L364.375 277.005C365.082 274.884 364.847 272.645 363.786 270.76C362.726 268.757 361.076 267.343 358.955 266.754L340.221 260.863C338.1 260.156 335.861 260.392 333.976 261.452C331.973 262.512 330.559 264.162 329.97 266.283L326.553 277.123C325.846 279.244 326.082 281.482 327.142 283.368C328.203 285.371 329.852 286.785 331.973 287.374L350.707 293.265Z" fill="#233863"/>
<path d="M400.547 310.703L381.813 304.812C376.51 303.162 373.565 297.507 375.214 292.322L378.631 281.482C380.281 276.18 385.936 273.234 391.121 274.884L409.855 280.775C415.157 282.425 418.103 288.08 416.453 293.265L413.036 304.105C411.387 309.407 405.849 312.353 400.547 310.703Z" fill="#5A6F8E"/>
<path d="M403.493 312.942C402.315 312.942 401.137 312.824 399.958 312.352L381.224 306.461C374.979 304.576 371.562 297.978 373.448 291.733L376.864 280.893C377.807 277.947 379.81 275.473 382.638 273.941C385.466 272.527 388.647 272.174 391.593 273.116L410.327 279.008C416.572 280.893 419.989 287.491 418.103 293.736L414.687 304.576C413.155 309.642 408.56 312.942 403.493 312.942ZM388.176 276.298C386.88 276.298 385.584 276.651 384.405 277.24C382.402 278.301 380.988 279.95 380.399 282.071L376.982 292.911C375.686 297.271 378.043 301.866 382.402 303.162L401.137 309.053C405.496 310.349 410.091 307.993 411.387 303.633L414.804 292.793C416.1 288.434 413.744 283.839 409.384 282.542L390.65 276.651C389.825 276.416 389.001 276.298 388.176 276.298Z" fill="#233863"/>
<path d="M286.61 319.068L267.876 313.176C262.573 311.527 259.628 305.871 261.277 300.687L264.694 289.847C266.344 284.545 271.999 281.599 277.184 283.249L295.918 289.14C301.22 290.789 304.166 296.445 302.516 301.629L299.099 312.469C297.45 317.771 291.794 320.717 286.61 319.068Z" fill="#5A6F8E"/>
<path d="M289.556 321.306C288.377 321.306 287.199 321.188 286.021 320.717L267.286 314.825C264.341 313.883 261.866 311.88 260.335 309.052C258.921 306.224 258.567 303.043 259.51 300.097L262.927 289.257C264.812 283.012 271.41 279.595 277.655 281.481L296.389 287.372C299.335 288.315 301.809 290.318 303.341 293.145C304.873 295.973 305.109 299.155 304.166 302.1L300.749 312.94C299.217 318.007 294.622 321.306 289.556 321.306ZM287.081 317.418C291.441 318.714 296.036 316.357 297.332 311.998L300.749 301.158C301.456 299.037 301.22 296.798 300.16 294.913C299.099 292.91 297.45 291.496 295.329 290.907L276.595 285.015C274.474 284.309 272.235 284.544 270.35 285.605C268.347 286.665 266.933 288.315 266.344 290.435L262.927 301.275C262.22 303.396 262.456 305.635 263.516 307.52C264.576 309.523 266.226 310.937 268.347 311.526L287.081 317.418Z" fill="#233863"/>
<path d="M337.746 334.976L319.012 329.084C313.71 327.435 310.764 321.779 312.414 316.595L315.83 305.755C317.48 300.453 323.136 297.507 328.32 299.156L347.054 305.048C352.356 306.697 355.302 312.353 353.653 317.537L350.236 328.377C348.586 333.679 342.93 336.625 337.746 334.976Z" fill="#5A6F8E"/>
<path d="M340.692 337.214C339.514 337.214 338.336 337.096 337.158 336.624L318.423 330.733C315.478 329.791 313.003 327.787 311.472 324.96C310.058 322.132 309.704 318.951 310.647 316.005L314.064 305.165C315.949 298.92 322.547 295.503 328.792 297.388L347.526 303.28C350.472 304.222 352.946 306.225 354.478 309.053C355.892 311.881 356.245 315.062 355.303 318.008L351.886 328.848C350.354 334.032 345.641 337.214 340.692 337.214ZM338.218 333.325C342.578 334.621 347.173 332.265 348.469 327.905L351.886 317.065C352.593 314.944 352.357 312.706 351.297 310.821C350.236 308.818 348.587 307.404 346.466 306.814L327.732 300.923C323.372 299.627 318.777 301.984 317.481 306.343L314.064 317.183C313.357 319.304 313.593 321.543 314.653 323.428C315.713 325.431 317.363 326.845 319.484 327.434L338.218 333.325Z" fill="#233863"/>
<path d="M388.059 350.763L369.325 344.872C364.023 343.222 361.077 337.567 362.727 332.383L366.144 321.543C367.793 316.24 373.449 313.295 378.633 314.944L397.368 320.836C402.67 322.485 405.615 328.141 403.966 333.325L400.549 344.165C398.899 349.467 393.361 352.413 388.059 350.763Z" fill="#5A6F8E"/>
<path d="M391.004 353.001C389.826 353.001 388.648 352.883 387.47 352.412L368.735 346.521C362.49 344.635 359.074 338.037 360.959 331.792L364.376 320.952C366.261 314.708 372.859 311.291 379.104 313.176L397.838 319.067C400.784 320.01 403.258 322.013 404.79 324.841C406.204 327.669 406.557 330.85 405.615 333.796L402.198 344.635C400.666 349.702 396.071 353.001 391.004 353.001ZM388.53 348.995C392.89 350.291 397.485 347.935 398.781 343.575L402.198 332.735C402.905 330.614 402.669 328.376 401.609 326.49C400.548 324.487 398.899 323.073 396.778 322.484L378.043 316.593C375.923 315.886 373.684 316.122 371.799 317.182C369.796 318.243 368.382 319.892 367.793 322.013L364.376 332.853C363.08 337.212 365.436 341.808 369.796 343.104L388.53 348.995Z" fill="#233863"/>
<path d="M274.119 359.131L255.385 353.239C250.083 351.59 247.137 345.934 248.787 340.75L252.204 329.91C253.853 324.608 259.509 321.662 264.693 323.312L283.428 329.203C288.73 330.852 291.675 336.508 290.026 341.692L286.609 352.532C284.959 357.717 279.304 360.662 274.119 359.131Z" fill="#3AAED5"/>
<path d="M277.067 361.25C275.889 361.25 274.71 361.014 273.532 360.66L254.798 354.769C251.852 353.827 249.378 351.824 247.846 348.996C246.432 346.168 246.079 342.987 247.021 340.041L250.438 329.201C251.381 326.255 253.384 323.781 256.212 322.249C259.039 320.835 262.221 320.482 265.166 321.425L283.901 327.316C290.145 329.201 293.562 335.799 291.677 342.044L288.26 352.884C287.318 355.83 285.315 358.304 282.487 359.836C280.837 360.896 278.952 361.25 277.067 361.25ZM274.592 357.361C276.713 358.068 278.952 357.833 280.837 356.772C282.84 355.712 284.254 354.062 284.843 351.941L288.26 341.101C288.967 338.981 288.732 336.742 287.671 334.857C286.611 332.854 284.961 331.44 282.84 330.851L264.106 324.959C261.985 324.252 259.746 324.488 257.861 325.548C255.858 326.609 254.444 328.258 253.855 330.379L250.438 341.219C249.731 343.34 249.967 345.579 251.027 347.464C252.088 349.467 253.737 350.881 255.858 351.47L274.592 357.361Z" fill="#233863"/>
<path d="M325.256 375.034L306.522 369.143C301.219 367.494 298.274 361.838 299.923 356.654L303.34 345.814C304.99 340.511 310.645 337.566 315.83 339.215L334.564 345.107C339.866 346.756 342.812 352.412 341.162 357.596L337.745 368.436C336.096 373.738 330.44 376.684 325.256 375.034Z" fill="#F5F5F5"/>
<path d="M328.202 377.274C327.024 377.274 325.845 377.038 324.667 376.684L305.933 370.793C302.987 369.851 300.513 367.848 298.981 365.02C297.567 362.192 297.214 359.011 298.156 356.065L301.573 345.225C302.516 342.279 304.519 339.805 307.347 338.273C310.174 336.859 313.356 336.506 316.301 337.448L335.036 343.34C341.28 345.225 344.697 351.941 342.812 358.068L339.395 368.908C338.453 371.854 336.45 374.328 333.622 375.86C331.972 376.802 330.087 377.274 328.202 377.274ZM312.884 340.63C311.588 340.63 310.292 340.983 309.114 341.572C307.111 342.633 305.697 344.282 305.108 346.403L301.691 357.243C300.984 359.364 301.22 361.603 302.28 363.488C303.341 365.491 304.99 366.905 307.111 367.494L325.845 373.385C327.966 374.092 330.205 373.857 332.09 372.796C334.093 371.736 335.507 370.086 336.096 367.965L339.513 357.125C340.809 352.766 338.453 348.171 334.093 346.875L315.359 340.983C314.534 340.748 313.709 340.63 312.884 340.63Z" fill="#233863"/>
<path d="M375.57 390.706L356.836 384.815C351.533 383.165 348.588 377.51 350.237 372.325L353.654 361.485C355.304 356.183 360.959 353.238 366.144 354.887L384.878 360.778C390.18 362.428 393.126 368.084 391.476 373.268L388.059 384.108C386.41 389.41 380.872 392.356 375.57 390.706Z" fill="#3D85FD"/>
<path d="M378.515 392.944C377.337 392.944 376.159 392.708 374.98 392.355L356.246 386.463C353.301 385.521 350.826 383.518 349.294 380.69C347.881 377.862 347.527 374.681 348.47 371.735L351.887 360.895C352.829 357.949 354.832 355.475 357.66 353.943C360.488 352.529 363.669 352.176 366.615 353.119L385.349 359.01C388.295 359.953 390.769 361.956 392.301 364.783C393.715 367.611 394.068 370.792 393.126 373.738L389.709 384.578C388.766 387.524 386.763 389.998 383.935 391.53C382.286 392.472 380.4 392.944 378.515 392.944ZM376.041 389.055C378.162 389.762 380.4 389.527 382.286 388.466C384.289 387.406 385.703 385.756 386.292 383.635L389.709 372.795C390.416 370.675 390.18 368.436 389.12 366.551C388.059 364.548 386.41 363.134 384.289 362.545L365.554 356.653C363.434 355.946 361.195 356.182 359.31 357.243C357.307 358.303 355.893 359.953 355.304 362.073L351.887 372.913C351.18 375.034 351.415 377.273 352.476 379.158C353.536 381.161 355.186 382.575 357.307 383.164L376.041 389.055Z" fill="#233863"/>
<path d="M370.029 425.818L240.774 385.404C236.65 384.107 234.294 379.63 235.59 375.506C236.886 371.382 241.363 369.026 245.487 370.322L374.742 410.618C378.866 411.914 381.223 416.392 379.926 420.516C378.63 424.757 374.153 427.114 370.029 425.818Z" fill="#233863"/>
<path d="M372.387 427.939C371.444 427.939 370.501 427.822 369.559 427.468L240.304 387.172C235.237 385.522 232.292 380.102 233.941 375.036C235.591 369.969 241.011 367.023 246.077 368.673L375.332 408.969C377.807 409.794 379.81 411.444 380.988 413.682C382.166 416.039 382.402 418.631 381.695 421.105C380.399 425.229 376.51 427.939 372.387 427.939ZM370.501 424.051C373.8 425.111 377.217 423.226 378.278 420.045C378.749 418.513 378.631 416.864 377.807 415.332C376.982 413.918 375.803 412.74 374.154 412.268L244.899 371.972C241.6 370.912 238.183 372.797 237.123 375.978C236.062 379.277 237.947 382.694 241.129 383.755L370.501 424.051Z" fill="#233863"/>
<path d="M365.2 366.552C366.761 366.552 368.027 365.286 368.027 363.724C368.027 362.162 366.761 360.896 365.2 360.896C363.638 360.896 362.372 362.162 362.372 363.724C362.372 365.286 363.638 366.552 365.2 366.552Z" fill="#F5F5F5"/>
<path d="M314.77 351.234C316.332 351.234 317.598 349.968 317.598 348.406C317.598 346.845 316.332 345.579 314.77 345.579C313.208 345.579 311.942 346.845 311.942 348.406C311.942 349.968 313.208 351.234 314.77 351.234Z" fill="#F5F5F5"/>
<path d="M261.985 334.385C263.546 334.385 264.812 333.119 264.812 331.558C264.812 329.996 263.546 328.73 261.985 328.73C260.423 328.73 259.157 329.996 259.157 331.558C259.157 333.119 260.423 334.385 261.985 334.385Z" fill="#F5F5F5"/>
<path d="M380.045 385.639C380.826 385.639 381.459 385.006 381.459 384.225C381.459 383.444 380.826 382.811 380.045 382.811C379.265 382.811 378.632 383.444 378.632 384.225C378.632 385.006 379.265 385.639 380.045 385.639Z" fill="#F5F5F5"/>
<path d="M388.294 283.25C389.335 283.25 390.179 282.406 390.179 281.365C390.179 280.324 389.335 279.48 388.294 279.48C387.252 279.48 386.408 280.324 386.408 281.365C386.408 282.406 387.252 283.25 388.294 283.25Z" fill="#233863"/>
<path d="M374.862 325.313C375.903 325.313 376.747 324.469 376.747 323.428C376.747 322.387 375.903 321.543 374.862 321.543C373.821 321.543 372.977 322.387 372.977 323.428C372.977 324.469 373.821 325.313 374.862 325.313Z" fill="#233863"/>
<path d="M431.536 219.034C434.269 219.034 436.485 216.819 436.485 214.086C436.485 211.352 434.269 209.137 431.536 209.137C428.803 209.137 426.587 211.352 426.587 214.086C426.587 216.819 428.803 219.034 431.536 219.034Z" fill="#407BFF"/>
<path d="M431.536 220.802C427.883 220.802 424.82 217.856 424.82 214.086C424.82 210.433 427.765 207.37 431.536 207.37C435.189 207.37 438.252 210.316 438.252 214.086C438.252 217.856 435.189 220.802 431.536 220.802ZM431.536 211.022C429.769 211.022 428.355 212.436 428.355 214.204C428.355 215.971 429.769 217.385 431.536 217.385C433.303 217.385 434.717 215.971 434.717 214.204C434.717 212.319 433.303 211.022 431.536 211.022Z" fill="#233863"/>
<path d="M153.704 430.413C186.371 430.413 212.853 403.931 212.853 371.265C212.853 338.598 186.371 312.116 153.704 312.116C121.038 312.116 94.5559 338.598 94.5559 371.265C94.5559 403.931 121.038 430.413 153.704 430.413Z" fill="#233863"/>
<path d="M147.931 427.232C180.597 427.232 207.079 400.75 207.079 368.083C207.079 335.416 180.597 308.935 147.931 308.935C115.264 308.935 88.782 335.416 88.782 368.083C88.782 400.75 115.264 427.232 147.931 427.232Z" fill="#233863"/>
<path d="M147.931 427.232C180.597 427.232 207.079 400.75 207.079 368.083C207.079 335.416 180.597 308.935 147.931 308.935C115.264 308.935 88.782 335.416 88.782 368.083C88.782 400.75 115.264 427.232 147.931 427.232Z" fill="#F5F5F5"/>
<path d="M147.931 429.117C114.35 429.117 87.0146 401.782 87.0146 368.202C87.0146 334.621 114.35 307.286 147.931 307.286C181.511 307.286 208.847 334.621 208.847 368.202C208.964 401.664 181.511 429.117 147.931 429.117ZM147.931 310.703C116.235 310.703 90.5494 336.506 90.5494 368.084C90.5494 399.779 116.353 425.465 147.931 425.465C179.508 425.465 205.312 399.661 205.312 368.084C205.43 336.389 179.626 310.703 147.931 310.703Z" fill="#233863"/>
<path d="M147.93 416.98C120.948 416.98 99.0327 395.064 99.0327 368.082C99.0327 341.1 120.948 319.184 147.93 319.184C174.913 319.184 196.828 341.1 196.828 368.082C196.828 395.064 174.913 416.98 147.93 416.98ZM147.93 321.541C122.244 321.541 101.389 342.396 101.389 368.082C101.389 393.768 122.244 414.623 147.93 414.623C173.616 414.623 194.472 393.768 194.472 368.082C194.472 342.396 173.616 321.541 147.93 321.541Z" fill="#F5F5F5"/>
<path d="M147.459 411.677C123.422 411.677 103.863 392.118 103.863 368.082C103.863 344.045 123.422 324.486 147.459 324.486C171.495 324.486 191.054 344.045 191.054 368.082C190.936 392.118 171.377 411.677 147.459 411.677ZM147.459 326.843C124.718 326.843 106.22 345.341 106.22 368.082C106.22 390.822 124.718 409.321 147.459 409.321C170.199 409.321 188.698 390.822 188.698 368.082C188.58 345.341 170.081 326.843 147.459 326.843Z" fill="#F5F5F5"/>
<path d="M163.72 374.917C163.72 378.805 162.188 382.458 159.478 385.168C157.71 387.053 155.59 388.349 153.115 389.056V391.884C153.115 393.18 152.644 394.476 151.701 395.419C150.759 396.361 149.581 396.95 148.167 396.95C146.753 396.95 145.457 396.361 144.514 395.419C143.571 394.476 142.982 393.18 142.982 391.884V389.645H138.269C136.148 389.645 134.381 388.938 133.203 387.878C132.024 386.817 131.435 385.168 131.435 383.4C131.435 379.748 133.91 377.863 138.269 377.863H149.345C149.816 377.863 150.405 377.745 150.877 377.274C151.466 376.802 151.701 376.213 151.701 375.624C151.701 374.681 151.348 373.974 150.641 373.621C150.287 373.503 150.052 373.385 149.816 373.385C149.58 373.385 149.463 373.267 149.463 373.267H144.161C140.508 373.15 137.091 371.736 134.734 369.379C132.26 367.023 130.846 363.724 130.846 360.071C130.846 356.301 132.496 352.648 135.088 349.938C137.209 347.817 140.037 346.403 142.982 345.814V343.929C142.982 342.515 143.454 341.337 144.514 340.394C145.457 339.451 146.635 338.862 148.049 338.862C149.345 338.862 150.641 339.451 151.584 340.394C152.526 341.454 152.997 342.515 152.997 343.929V345.578H154.765C159.124 345.578 161.717 347.699 161.717 351.352C161.717 355.358 159.124 357.479 154.765 357.479H144.514C143.336 357.479 142.629 358.304 142.629 359.364C142.629 360.424 143.218 361.367 144.161 361.367H149.227C153.115 361.367 156.768 362.781 159.36 365.137C162.188 367.73 163.72 371.029 163.72 374.917Z" fill="#233863"/>
<path d="M177.033 374.209C179.376 374.209 181.275 372.31 181.275 369.968C181.275 367.625 179.376 365.726 177.033 365.726C174.691 365.726 172.792 367.625 172.792 369.968C172.792 372.31 174.691 374.209 177.033 374.209Z" fill="#233863"/>
<path d="M117.061 374.209C119.404 374.209 121.303 372.31 121.303 369.968C121.303 367.625 119.404 365.726 117.061 365.726C114.718 365.726 112.819 367.625 112.819 369.968C112.819 372.31 114.718 374.209 117.061 374.209Z" fill="#233863"/>
<path d="M86.8948 315.416C98.6731 315.416 108.221 305.868 108.221 294.09C108.221 282.311 98.6731 272.763 86.8948 272.763C75.1165 272.763 65.5684 282.311 65.5684 294.09C65.5684 305.868 75.1165 315.416 86.8948 315.416Z" fill="#233863"/>
<path d="M85.1282 313.883C96.9065 313.883 106.455 304.335 106.455 292.557C106.455 280.779 96.9065 271.23 85.1282 271.23C73.3499 271.23 63.8018 280.779 63.8018 292.557C63.8018 304.335 73.3499 313.883 85.1282 313.883Z" fill="#233863"/>
<path d="M85.1282 313.883C96.9065 313.883 106.455 304.335 106.455 292.557C106.455 280.779 96.9065 271.23 85.1282 271.23C73.3499 271.23 63.8018 280.779 63.8018 292.557C63.8018 304.335 73.3499 313.883 85.1282 313.883Z" fill="#F5F5F5"/>
<path d="M85.129 315.062C83.4794 315.062 81.8298 314.826 80.1803 314.473C74.289 313.176 69.3403 309.642 66.0412 304.575C62.8599 299.509 61.7995 293.5 63.0955 287.608C64.3916 281.717 67.9264 276.768 72.9929 273.469C78.0594 270.288 84.0685 269.227 89.9598 270.524C95.8511 271.82 100.8 275.354 104.099 280.421C107.28 285.487 108.341 291.497 107.045 297.388C104.806 307.874 95.4976 315.062 85.129 315.062ZM85.129 272.291C81.3585 272.291 77.5881 273.351 74.289 275.472C69.6938 278.418 66.6303 282.895 65.4521 288.08C64.2738 293.382 65.2164 298.802 68.1621 303.279C71.1077 307.874 75.5851 310.938 80.7694 312.116C91.6094 314.59 102.449 307.639 104.924 296.799C106.102 291.497 105.159 286.077 102.214 281.599C99.2681 277.004 94.7907 273.94 89.6063 272.762C88.0746 272.409 86.5429 272.291 85.129 272.291Z" fill="#233863"/>
<path d="M85.128 310.231C83.8319 310.231 82.5358 310.113 81.2397 309.759C71.6958 307.638 65.6867 298.212 67.8076 288.668C68.868 284.073 71.578 280.185 75.5841 277.593C79.5902 275.118 84.3032 274.294 88.8984 275.236C98.4423 277.357 104.451 286.783 102.331 296.327C101.27 300.922 98.5601 304.81 94.554 307.403C91.7262 309.288 88.4271 310.231 85.128 310.231ZM81.4754 308.934C85.8349 309.877 90.3123 309.17 94.0827 306.696C97.8532 304.339 100.445 300.569 101.506 296.209C103.509 287.137 97.8532 278.182 88.7806 276.179C84.421 275.236 79.9436 275.943 76.1732 278.418C72.4028 280.774 69.8106 284.544 68.7502 288.904C66.7472 297.859 72.4028 306.814 81.4754 308.934Z" fill="#F5F5F5"/>
<path d="M84.8929 308.228C83.7146 308.228 82.6542 308.11 81.4759 307.875C72.9924 305.99 67.6903 297.506 69.5755 289.023C70.5181 284.899 72.9925 281.364 76.5272 279.125C80.062 276.887 84.3037 276.18 88.4276 277.004C96.9111 278.89 102.213 287.373 100.328 295.857C98.6785 303.28 92.0802 308.228 84.8929 308.228ZM84.8929 277.594C82.065 277.594 79.355 278.418 76.9985 279.95C73.6994 282.071 71.3429 285.37 70.4003 289.258C68.6329 297.271 73.6994 305.283 81.7116 307.05C85.5998 307.875 89.6059 307.168 92.905 305.047C96.3219 302.926 98.5606 299.627 99.5033 295.739C100.328 291.851 99.6211 287.844 97.5002 284.545C95.3794 281.128 92.0802 278.89 88.192 277.947C87.1315 277.711 85.9533 277.594 84.8929 277.594Z" fill="#F5F5F5"/>
<path d="M90.1951 296.211C89.8416 297.625 89.0169 298.803 87.9564 299.51C87.1316 299.981 86.3069 300.335 85.3643 300.335L85.1286 301.277C85.0108 301.749 84.7751 302.102 84.3038 302.456C83.9504 302.691 83.4791 302.809 83.0078 302.691C82.5364 302.574 82.0651 302.338 81.8295 301.867C81.5938 301.513 81.476 300.924 81.5938 300.453L81.8295 299.628L80.1799 299.274C79.473 299.157 78.8838 298.685 78.5304 298.214C78.1769 297.743 78.0591 297.154 78.2947 296.447C78.5304 295.151 79.5908 294.679 81.1225 295.033L85.0108 295.857C85.1286 295.857 85.3643 295.857 85.5999 295.74C85.8356 295.622 85.9534 295.504 86.0712 295.268C86.189 294.915 86.0712 294.679 85.8356 294.444C85.7177 294.326 85.5999 294.326 85.5999 294.326C85.4821 294.326 85.4821 294.326 85.4821 294.326L83.5969 293.854C82.3008 293.501 81.2404 292.794 80.5334 291.734C79.8264 290.673 79.5908 289.495 79.9443 288.199C80.2978 286.903 81.1225 285.724 82.3008 285.018C83.2434 284.428 84.3038 284.193 85.3643 284.193L85.4821 283.486C85.5999 283.014 85.8356 282.661 86.3069 282.308C86.7782 282.072 87.2495 281.954 87.7208 282.072C88.1921 282.19 88.5456 282.425 88.7812 282.897C89.0169 283.368 89.1347 283.721 89.0169 284.311L88.899 284.9L89.4882 285.018C91.0199 285.371 91.7269 286.314 91.4912 287.61C91.1377 289.024 90.0773 289.613 88.5456 289.259L84.893 288.434C84.4217 288.317 84.186 288.552 84.0682 288.906C83.9503 289.259 84.0682 289.613 84.4217 289.731L86.189 290.084C87.603 290.438 88.7812 291.144 89.4882 292.205C90.1951 293.501 90.4308 294.797 90.1951 296.211Z" fill="#233863"/>
<path d="M95.2617 296.917C96.1077 296.917 96.7935 296.231 96.7935 295.385C96.7935 294.539 96.1077 293.854 95.2617 293.854C94.4158 293.854 93.73 294.539 93.73 295.385C93.73 296.231 94.4158 296.917 95.2617 296.917Z" fill="#233863"/>
<path d="M74.0532 292.204C74.8992 292.204 75.585 291.518 75.585 290.672C75.585 289.826 74.8992 289.14 74.0532 289.14C73.2073 289.14 72.5215 289.826 72.5215 290.672C72.5215 291.518 73.2073 292.204 74.0532 292.204Z" fill="#233863"/>
<path d="M50.135 377.627C66.0129 377.627 78.8845 364.755 78.8845 348.877C78.8845 332.999 66.0129 320.128 50.135 320.128C34.2571 320.128 21.3855 332.999 21.3855 348.877C21.3855 364.755 34.2571 377.627 50.135 377.627Z" fill="#233863"/>
<path d="M47.0718 376.802C62.9497 376.802 75.8212 363.93 75.8212 348.052C75.8212 332.175 62.9497 319.303 47.0718 319.303C31.1939 319.303 18.3223 332.175 18.3223 348.052C18.3223 363.93 31.1939 376.802 47.0718 376.802Z" fill="#233863"/>
<path d="M47.0718 376.802C62.9497 376.802 75.8212 363.93 75.8212 348.052C75.8212 332.175 62.9497 319.303 47.0718 319.303C31.1939 319.303 18.3223 332.175 18.3223 348.052C18.3223 363.93 31.1939 376.802 47.0718 376.802Z" fill="#F5F5F5"/>
<path d="M47.0716 378.688C33.7573 378.688 21.5035 369.851 17.6152 356.419C13.02 340.159 22.4461 323.31 38.706 318.715C54.966 314.12 71.815 323.546 76.4103 339.806C81.0055 356.066 71.5794 372.915 55.3194 377.51C52.6095 378.335 49.7816 378.688 47.0716 378.688ZM47.0716 321.071C44.5973 321.071 42.123 321.425 39.6486 322.132C25.2739 326.138 16.9082 341.22 21.0321 355.476C25.0382 369.851 40.1199 378.217 54.3768 374.093C61.3286 372.09 67.102 367.613 70.6368 361.25C74.1716 355.005 74.9963 347.7 72.9933 340.748C70.9903 333.797 66.5129 328.023 60.1503 324.488C56.1442 322.25 51.6668 321.071 47.0716 321.071Z" fill="#233863"/>
<path d="M47.0722 371.736C36.8214 371.736 27.2775 364.902 24.3319 354.533C20.7971 342.044 28.1023 328.847 40.5918 325.313C46.6009 323.545 53.0814 324.37 58.5013 327.433C64.0392 330.497 68.0452 335.563 69.6948 341.573C71.4622 347.582 70.6374 354.062 67.5739 359.482C64.5105 365.02 59.4439 369.026 53.4348 370.676C51.314 371.5 49.1931 371.736 47.0722 371.736ZM47.0722 325.313C44.9514 325.313 42.9483 325.548 40.8275 326.137C28.8092 329.554 21.7397 342.162 25.1566 354.18C28.5736 366.198 41.181 373.268 53.1992 369.851C59.0905 368.201 63.9213 364.313 66.867 359.011C69.8126 353.709 70.5196 347.582 68.87 341.69C67.2205 335.799 63.3322 330.968 58.03 328.023C54.7309 326.373 50.8427 325.313 47.0722 325.313Z" fill="#F5F5F5"/>
<path d="M46.8362 369.262C43.3014 369.262 39.7666 368.319 36.5853 366.552C31.6366 363.842 28.1019 359.365 26.5701 353.945C25.0384 348.525 25.7454 342.869 28.4553 337.92C31.1653 332.972 35.6427 329.437 41.0627 327.905C46.4827 326.373 52.1383 327.08 57.087 329.79C62.0357 332.5 65.5705 336.978 67.1022 342.398C68.6339 347.818 67.927 353.473 65.217 358.422C62.507 363.371 58.0296 366.905 52.6096 368.437C50.6066 369.026 48.7214 369.262 46.8362 369.262ZM46.8362 328.023C44.951 328.023 43.1836 328.259 41.2984 328.848C36.114 330.262 31.8723 333.679 29.1623 338.392C26.5701 343.105 25.8632 348.525 27.3949 353.709C28.8088 358.893 32.2258 363.135 36.9388 365.845C41.6518 368.437 47.0718 369.144 52.2561 367.612C57.4405 366.198 61.6822 362.782 64.3922 358.068C66.9844 353.355 67.6913 347.935 66.1596 342.751C64.7457 337.567 61.3287 333.325 56.6157 330.615C53.5522 328.848 50.2531 328.023 46.8362 328.023Z" fill="#F5F5F5"/>
<path d="M55.3174 349.233C55.7887 351 55.5531 353.003 54.7283 354.653C54.1392 355.713 53.3144 356.656 52.2539 357.363L52.6074 358.659C52.8431 359.248 52.7253 359.955 52.3718 360.544C52.0183 361.133 51.547 361.486 50.9579 361.722C50.2509 361.958 49.6618 361.84 49.0727 361.486C48.4835 361.133 48.1301 360.662 47.8944 360.073L47.5409 359.012L45.3022 359.601C44.3596 359.837 43.417 359.837 42.7101 359.483C42.0031 359.13 41.5318 358.423 41.2962 357.598C40.8249 355.831 41.7675 354.653 43.7705 354.063L49.0727 352.414C49.3083 352.414 49.544 352.178 49.6618 351.943C49.8974 351.707 49.8974 351.353 49.7796 351C49.6618 350.529 49.4261 350.293 48.9548 350.175C48.7192 350.175 48.6014 350.175 48.6014 350.175C48.4835 350.175 48.3657 350.175 48.3657 350.175L45.8914 350.882C44.124 351.353 42.3566 351.118 40.9427 350.293C39.5288 349.468 38.3505 348.172 37.8792 346.405C37.4079 344.637 37.6436 342.752 38.5862 341.103C39.2931 339.807 40.4714 338.746 41.7675 338.157L41.5318 337.332C41.2962 336.743 41.414 336.036 41.7675 335.447C42.1209 334.858 42.5922 334.504 43.2992 334.269C43.8883 334.151 44.5953 334.151 45.1844 334.504C45.7735 334.858 46.127 335.329 46.3627 336.036L46.5983 336.861L47.4231 336.625C49.4261 336.036 50.9579 336.743 51.4292 338.393C52.0183 340.278 51.0757 341.574 48.9548 342.163L44.124 343.577C43.5348 343.695 43.2992 344.166 43.417 344.755C43.5348 345.227 44.0061 345.58 44.4774 345.462L46.834 344.755C48.7192 344.284 50.4866 344.402 52.1361 345.227C53.6679 346.051 54.8461 347.347 55.3174 349.233Z" fill="#233863"/>
<path d="M60.8574 347.227C62.0288 347.227 62.9783 346.278 62.9783 345.106C62.9783 343.935 62.0288 342.986 60.8574 342.986C59.6861 342.986 58.7366 343.935 58.7366 345.106C58.7366 346.278 59.6861 347.227 60.8574 347.227Z" fill="#233863"/>
<path d="M32.814 355.24C33.9853 355.24 34.9348 354.29 34.9348 353.119C34.9348 351.948 33.9853 350.998 32.814 350.998C31.6427 350.998 30.6931 351.948 30.6931 353.119C30.6931 354.29 31.6427 355.24 32.814 355.24Z" fill="#233863"/>
<path d="M260.688 235.412L138.031 229.285C132.258 229.049 127.898 224.101 128.134 218.327L137.324 33.812C138.149 16.3738 152.995 2.94165 170.433 3.88425L251.851 7.89033C269.289 8.71511 282.721 23.5612 281.779 40.9994L272.588 224.454C272.353 230.935 266.933 235.765 260.688 235.412Z" fill="#233863"/>
<path d="M252.794 235.413L130.138 229.286C124.364 229.051 120.005 224.102 120.24 218.328L129.431 33.8132C130.256 16.375 145.102 2.94287 162.54 3.88547L243.957 7.89155C261.396 8.71633 274.828 23.5624 273.885 41.0006L264.695 224.455C264.459 230.936 259.039 235.767 252.794 235.413Z" fill="#F5F5F5"/>
<path d="M253.383 237.297C253.148 237.297 252.912 237.297 252.676 237.297L130.02 231.171C123.304 230.817 118.119 225.044 118.473 218.328L127.663 33.8124C128.135 24.9755 132.023 16.7276 138.621 10.7185C145.219 4.70942 153.821 1.64595 162.658 2.11725L244.075 6.12333C262.456 7.06593 276.595 22.7368 275.652 41.1176L266.462 224.572C266.226 231.76 260.335 237.297 253.383 237.297ZM252.912 233.645C258.214 233.881 262.809 229.757 263.045 224.454L272.236 40.9998C273.06 24.622 260.335 10.6007 243.957 9.77592L162.54 5.76985C154.645 5.41637 146.987 8.12637 141.095 13.4285C135.204 18.7307 131.669 26.0359 131.316 34.048L122.125 218.563C121.89 223.276 125.542 227.4 130.373 227.636L252.912 233.645Z" fill="#233863"/>
<path d="M242.544 8.00881L126.485 2.23535C113.171 1.52839 101.742 12.3684 101.035 26.2718L100.564 35.8157L217.918 41.707L218.389 32.1631C219.096 18.6131 229.701 8.12663 242.544 8.00881Z" fill="#F5F5F5"/>
<path d="M217.918 43.3558C217.918 43.3558 217.8 43.3558 217.918 43.3558L100.446 37.4645C99.5034 37.4645 98.6786 36.6397 98.7964 35.5793L99.2677 26.0354C99.6212 18.8481 102.685 12.2498 107.751 7.30113C112.936 2.47027 119.534 -0.00406727 126.485 0.231584L242.544 6.00505C243.015 6.00505 243.486 6.2407 243.722 6.59418C244.076 6.94765 244.193 7.41896 244.193 7.89026C244.193 8.83287 243.369 9.53982 242.426 9.53982C230.526 9.65765 220.628 19.4372 220.039 31.9267L219.568 41.4706C219.568 41.9419 219.332 42.4132 218.979 42.6489C218.743 43.238 218.272 43.3558 217.918 43.3558ZM102.449 34.1654L216.269 39.821L216.622 32.0445C217.093 22.0294 222.867 13.5459 230.879 9.18634L126.368 4.00201C120.359 3.76636 114.703 5.88722 110.226 10.0111C105.748 14.2529 103.156 20.0263 102.802 26.2711L102.449 34.1654Z" fill="#233863"/>
<g opacity="0.11">
<path opacity="0.11" d="M242.544 8.00881L126.485 2.23535C113.171 1.52839 101.742 12.3684 101.035 26.2718L100.564 35.8157L217.918 41.707L218.389 32.1631C219.096 18.6131 229.701 8.12663 242.544 8.00881Z" fill="#233863"/>
</g>
<path d="M185.633 58.9096L155.941 57.3778C154.998 57.3778 154.174 56.553 154.292 55.4926C154.292 54.55 155.234 53.7252 156.177 53.843L185.751 55.3748C186.694 55.3748 187.518 56.1996 187.401 57.26C187.401 58.2026 186.576 58.9096 185.633 58.9096Z" fill="#233863"/>
<path d="M252.677 63.15L222.985 61.6183C222.042 61.6183 221.217 60.7935 221.335 59.7331C221.335 58.7905 222.278 57.9657 223.22 58.0835L252.795 59.6153C253.737 59.6153 254.562 60.44 254.444 61.5005C254.444 62.3253 253.619 63.15 252.677 63.15Z" fill="#233863"/>
<path d="M213.088 94.8445L154.293 92.2523C153.35 92.2523 152.525 91.4276 152.643 90.3671C152.643 89.4245 153.468 88.5997 154.528 88.7176L213.323 91.3097C214.266 91.3097 215.091 92.1345 214.973 93.1949C214.855 94.1375 214.03 94.8445 213.088 94.8445Z" fill="#233863"/>
<path d="M177.151 112.873L152.525 111.459C151.582 111.459 150.758 110.516 150.876 109.573C150.876 108.631 151.818 107.806 152.761 107.924L177.268 109.338C178.211 109.338 179.036 110.28 178.918 111.223C178.918 112.166 178.093 112.873 177.151 112.873Z" fill="#233863"/>
<path d="M197.417 76.9362C197.417 76.9362 197.299 76.9362 197.417 76.9362L155.117 74.8153C154.175 74.8153 153.35 73.9905 153.468 72.9301C153.468 71.9875 154.41 71.1627 155.353 71.2805L197.535 73.4014C198.477 73.4014 199.302 74.2262 199.184 75.2866C199.066 76.2292 198.359 76.9362 197.417 76.9362Z" fill="#233863"/>
<path d="M213.087 77.7606L207.549 77.5249C206.607 77.5249 205.782 76.7001 205.9 75.6397C205.9 74.6971 206.725 73.8723 207.785 73.9901L213.205 74.2258C214.148 74.2258 214.973 75.0506 214.855 76.111C214.855 77.0536 214.03 77.7606 213.087 77.7606Z" fill="#233863"/>
<path d="M253.384 105.921C253.266 109.103 251.852 112.166 249.495 114.405C247.964 115.937 246.078 116.879 244.075 117.468L243.958 119.825C243.958 120.885 243.486 121.946 242.662 122.77C241.837 123.477 240.776 123.949 239.716 123.831C238.538 123.831 237.477 123.242 236.77 122.417C236.063 121.592 235.592 120.532 235.592 119.353L235.71 117.468L231.822 117.35C230.054 117.233 228.64 116.643 227.698 115.701C226.755 114.758 226.284 113.344 226.402 111.813C226.519 108.749 228.64 107.335 232.293 107.453L241.483 107.807C241.837 107.807 242.308 107.689 242.779 107.453C243.251 107.1 243.486 106.628 243.486 106.039C243.486 105.214 243.251 104.743 242.662 104.39C242.308 104.272 242.19 104.154 242.072 104.154C241.837 104.154 241.719 104.036 241.719 104.036L237.359 103.8C234.296 103.565 231.586 102.269 229.583 100.148C227.58 98.027 226.519 95.317 226.637 92.2535C226.755 89.0722 228.287 86.1266 230.525 84.0057C232.411 82.2383 234.767 81.1779 237.242 80.8244L237.359 79.2927C237.359 78.1144 237.831 77.1718 238.773 76.347C239.598 75.5223 240.659 75.1688 241.837 75.2866C242.897 75.2866 243.958 75.8757 244.665 76.5827C245.489 77.4075 245.843 78.4679 245.725 79.6462V81.0601L247.257 81.1779C250.909 81.2957 253.03 83.1809 252.912 86.2444C252.795 89.5435 250.556 91.3109 246.903 91.1931L238.302 90.8396C237.359 90.8396 236.652 91.4287 236.652 92.2535C236.652 93.1961 237.124 93.9031 237.949 94.0209L242.19 94.2566C245.489 94.3744 248.435 95.6705 250.556 97.7913C252.441 99.9122 253.502 102.74 253.384 105.921Z" fill="#233863" stroke="#F5F5F5" stroke-width="2" stroke-miterlimit="10"/>
<path d="M102.802 26.2715L127.899 27.3319" stroke="#233863" stroke-width="3" stroke-miterlimit="10" stroke-linecap="round"/>
<path d="M20.7939 124.419L116.586 252.967L198.711 191.815L101.151 60.793L100.326 75.4034L86.7764 72.2221L85.9516 86.0077L73.2264 83.062L72.5195 96.3763L59.9121 93.3129L59.2051 106.509L46.7156 103.446L46.0087 115.346L32.3409 112.047L31.3983 126.422L20.7939 124.419Z" fill="#3AAED5"/>
<path d="M116.587 254.736C116.469 254.736 116.469 254.736 116.352 254.736C115.88 254.618 115.527 254.382 115.173 254.029L19.381 125.481C18.9097 124.892 18.9097 124.067 19.2632 123.478C19.6167 122.888 20.3236 122.535 21.1484 122.653L29.7497 124.302L30.4566 112.049C30.4566 111.577 30.6923 110.988 31.1636 110.752C31.6349 110.399 32.1062 110.281 32.5775 110.399L44.2423 113.227L44.8314 103.447C44.8314 102.976 45.067 102.387 45.5383 102.151C46.0096 101.798 46.4809 101.68 46.9522 101.798L57.4387 104.272L58.0279 93.3142C58.0279 92.8429 58.2635 92.2538 58.7348 92.0181C59.2061 91.6647 59.6774 91.5468 60.1487 91.6647L70.6352 94.139L71.3422 82.9456C71.3422 82.4743 71.5778 81.8851 72.0491 81.6495C72.5204 81.296 72.9917 81.1782 73.463 81.296L84.1852 83.8882L84.8922 72.2234C84.8922 71.7521 85.1278 71.163 85.5991 70.9273C86.0704 70.5738 86.5417 70.456 87.013 70.5739L98.4421 73.2838L99.1491 60.7943C99.1491 60.0874 99.7382 59.3804 100.445 59.1447C101.152 58.9091 101.977 59.1447 102.33 59.7339L199.89 190.756C200.479 191.581 200.361 192.641 199.537 193.23L117.412 254.382C117.294 254.618 116.941 254.736 116.587 254.736ZM24.9188 127.012L116.941 250.612L196.237 191.581L102.684 65.8608L102.095 75.5225C102.095 75.9938 101.859 76.583 101.388 76.8186C100.916 77.1721 100.445 77.2899 99.9738 77.1721L88.5447 74.4621L87.8378 86.1268C87.8378 86.5982 87.6021 87.1873 87.1308 87.4229C86.6595 87.7764 86.1882 87.8942 85.7169 87.7764L74.9948 85.1842L74.2878 96.3777C74.2878 96.849 74.0522 97.4381 73.5809 97.6738C73.1096 98.0273 72.6383 98.1451 72.167 98.0273L61.6805 95.5529L61.0913 106.511C61.0913 106.982 60.8557 107.571 60.3844 107.807C59.9131 108.16 59.4418 108.278 58.9705 108.16L48.484 105.686L47.8949 115.465C47.8949 115.937 47.6592 116.526 47.1879 116.762C46.7166 117.115 46.2453 117.233 45.774 117.115L34.1092 114.287L33.4023 126.541C33.4023 127.012 33.1666 127.484 32.6953 127.837C32.3419 128.191 31.7527 128.308 31.2814 128.191L24.9188 127.012Z" fill="#233863"/>
<path d="M50.1342 142.564C49.545 142.564 49.0737 142.329 48.7203 141.857C48.1311 141.033 48.249 139.972 49.0737 139.383L74.2885 120.649C75.1132 120.06 76.1737 120.178 76.7628 121.002C77.3519 121.827 77.2341 122.888 76.4093 123.477L51.1946 142.211C50.8411 142.447 50.4876 142.564 50.1342 142.564Z" fill="#F5F5F5"/>
<path d="M57.5573 152.698C56.9681 152.698 56.4968 152.462 56.1434 151.991C55.5542 151.166 55.6721 150.106 56.4968 149.517L102.92 114.994C103.745 114.404 104.805 114.522 105.395 115.347C105.984 116.172 105.866 117.232 105.041 117.821L58.6177 152.344C58.382 152.58 58.0286 152.698 57.5573 152.698Z" fill="#233863"/>
<path d="M109.047 114.405C108.458 114.405 107.987 114.17 107.634 113.698C107.044 112.874 107.162 111.813 107.987 111.224L114.232 106.629C115.057 106.04 116.117 106.158 116.706 106.982C117.295 107.807 117.177 108.868 116.353 109.457L110.108 114.052C109.754 114.288 109.401 114.405 109.047 114.405Z" fill="#F5F5F5"/>
<path d="M68.3959 167.073C67.8068 167.073 67.3355 166.838 66.982 166.366C66.3928 165.541 66.5107 164.481 67.3355 163.892L84.4202 151.167C85.245 150.578 86.3054 150.695 86.8945 151.52C87.4837 152.345 87.3658 153.405 86.5411 153.994L69.4563 166.72C69.1028 166.955 68.7494 167.073 68.3959 167.073Z" fill="#233863"/>
<path d="M92.7865 148.926C92.1974 148.926 91.7261 148.691 91.3726 148.219C90.7835 147.395 90.9013 146.334 91.7261 145.745L124.953 121.002C125.778 120.413 126.838 120.53 127.427 121.355C128.016 122.18 127.899 123.24 127.074 123.83L93.8469 148.573C93.4935 148.809 93.14 148.926 92.7865 148.926Z" fill="#233863"/>
<path d="M84.1862 188.282C83.597 188.282 83.1257 188.046 82.7723 187.575C82.1831 186.75 82.301 185.689 83.1257 185.1L120.594 157.293C121.419 156.704 122.48 156.822 123.069 157.647C123.658 158.472 123.54 159.532 122.715 160.121L85.2466 187.928C84.8931 188.164 84.5396 188.282 84.1862 188.282Z" fill="#F5F5F5"/>
<path d="M139.681 178.501C139.092 178.501 138.621 178.266 138.267 177.794C137.678 176.969 137.796 175.909 138.621 175.32L155.823 162.477C156.648 161.888 157.708 162.006 158.298 162.83C158.887 163.655 158.769 164.716 157.944 165.305L140.741 178.148C140.388 178.383 140.035 178.501 139.681 178.501Z" fill="#233863"/>
<path d="M150.168 100.384L138.15 195.941L210.966 205.014L223.102 107.572L215.679 113.463L210.141 106.276L202.954 111.813L197.769 105.097L190.936 110.517L185.751 103.919L179.035 109.103L173.851 102.505L167.724 107.218L162.068 100.031L154.763 105.686L150.168 99.913" fill="#F5F5F5"/>
<path d="M210.966 206.78C210.848 206.78 210.848 206.78 210.73 206.78L137.914 197.708C136.971 197.59 136.264 196.647 136.382 195.705L148.282 100.03C148.282 99.9122 148.282 99.7944 148.4 99.6766C148.4 99.2053 148.636 98.734 149.107 98.4983C149.932 97.9092 150.992 98.027 151.582 98.8518L154.998 103.211L161.008 98.6162C161.361 98.3805 161.832 98.1449 162.304 98.2627C162.775 98.2627 163.246 98.6161 163.482 98.9696L168.077 104.861L172.79 101.208C173.615 100.619 174.675 100.737 175.264 101.562L179.271 106.746L184.573 102.622C185.397 102.033 186.458 102.151 187.047 102.976L191.053 108.16L196.473 103.918C197.298 103.329 198.358 103.447 198.947 104.272L203.071 109.574L208.845 105.097C209.67 104.507 210.73 104.625 211.319 105.45L215.797 111.224L221.923 106.51C222.513 106.039 223.22 106.039 223.927 106.393C224.516 106.746 224.869 107.453 224.751 108.16L212.615 205.602C212.615 206.073 212.262 206.545 211.908 206.78C211.79 206.662 211.437 206.78 210.966 206.78ZM140.152 194.409L209.434 203.01L220.863 111.577L216.739 114.758C215.914 115.347 214.854 115.23 214.265 114.405L209.787 108.631L204.014 113.109C203.189 113.698 202.129 113.58 201.54 112.755L197.416 107.453L191.996 111.695C191.642 111.93 191.171 112.166 190.7 112.048C190.228 112.048 189.757 111.695 189.521 111.341L185.515 106.157L180.213 110.281C179.388 110.87 178.328 110.752 177.739 109.927L173.733 104.743L169.02 108.396C168.666 108.631 168.195 108.867 167.724 108.749C167.252 108.749 166.781 108.396 166.545 108.042L161.95 102.151L155.941 106.746C155.116 107.335 154.056 107.217 153.467 106.393L151.582 103.918L140.152 194.409Z" fill="#233863"/>
<path d="M179.978 123.83H179.86L157.473 121.002C156.884 120.885 156.413 120.295 156.413 119.706C156.531 119.117 157.12 118.646 157.709 118.646L180.096 121.474C180.685 121.592 181.156 122.181 181.156 122.77C181.038 123.359 180.567 123.83 179.978 123.83Z" fill="#F5F5F5"/>
<path d="M197.77 133.611H197.652L156.531 128.427C155.942 128.309 155.471 127.72 155.471 127.131C155.589 126.542 156.178 126.07 156.767 126.07L197.888 131.255C198.477 131.373 198.948 131.962 198.948 132.551C198.831 133.258 198.359 133.611 197.77 133.611Z" fill="#233863"/>
<path d="M207.785 134.906H207.667L202.13 134.199C201.54 134.082 201.069 133.492 201.069 132.903C201.187 132.314 201.776 131.843 202.365 131.843L207.903 132.55C208.492 132.668 208.963 133.257 208.963 133.846C208.846 134.435 208.374 134.906 207.785 134.906Z" fill="#F5F5F5"/>
<path d="M170.433 141.151H170.315L155.234 139.266C154.645 139.148 154.173 138.559 154.173 137.97C154.291 137.381 154.88 136.91 155.469 136.91L170.551 138.795C171.14 138.913 171.612 139.502 171.612 140.091C171.494 140.68 171.022 141.151 170.433 141.151Z" fill="#233863"/>
<path d="M206.371 145.63H206.253L176.797 141.977C176.208 141.859 175.736 141.27 175.736 140.681C175.854 140.092 176.443 139.621 177.032 139.621L206.489 143.273C207.078 143.391 207.549 143.98 207.549 144.569C207.549 145.158 206.96 145.63 206.371 145.63Z" fill="#233863"/>
<path d="M186.459 159.18H186.341L153.114 155.056C152.525 154.938 152.054 154.349 152.054 153.76C152.172 153.171 152.761 152.699 153.35 152.699L186.577 156.823C187.166 156.941 187.637 157.53 187.637 158.119C187.637 158.708 187.048 159.18 186.459 159.18Z" fill="#233863"/>
<path d="M202.601 177.088C202.483 177.088 202.483 177.088 202.365 177.088L187.048 175.203C186.105 175.085 185.398 174.142 185.516 173.2C185.634 172.257 186.458 171.55 187.519 171.668L202.836 173.553C203.779 173.671 204.486 174.614 204.368 175.556C204.25 176.381 203.425 177.088 202.601 177.088Z" fill="#233863"/>
<path d="M346.821 277.239L156.768 323.074C150.759 324.487 144.75 320.835 143.336 314.826L113.054 189.577C111.641 183.568 115.293 177.559 121.302 176.145L311.355 130.311C317.364 128.897 323.373 132.549 324.787 138.558L355.069 263.807C356.483 269.816 352.83 275.825 346.821 277.239Z" fill="#3D85FD"/>
<path d="M154.175 325.195C151.818 325.195 149.461 324.606 147.458 323.31C144.513 321.543 142.392 318.715 141.685 315.298L111.404 190.049C109.754 183.097 113.996 176.146 120.948 174.496L311.001 128.544C317.952 126.894 324.904 131.136 326.554 138.088L356.835 263.337C358.484 270.288 354.243 277.24 347.291 278.89L157.238 324.724C156.178 325.077 155.117 325.195 154.175 325.195ZM313.946 131.725C313.239 131.725 312.532 131.843 311.708 131.961L121.655 177.795C116.588 178.973 113.525 184.04 114.703 189.106L144.984 314.355C145.573 316.83 147.105 318.833 149.226 320.129C151.347 321.425 153.939 321.778 156.295 321.189L346.348 275.355C351.415 274.177 354.478 269.11 353.3 264.044L323.019 138.795C322.076 134.553 318.188 131.725 313.946 131.725Z" fill="#233863"/>
<path opacity="0.36" d="M288.616 133.729L232.767 147.397L245.727 200.654C247.377 207.606 241.486 214.911 232.531 217.15C215.446 221.273 204.253 235.295 207.434 248.373C208.73 253.911 204.017 259.802 196.83 261.57C176.681 266.519 163.485 283.014 167.255 298.449L172.322 319.422L342.934 277.83C351.417 275.827 356.484 267.226 354.481 258.86L326.202 142.802C323.846 133.258 314.302 127.366 304.758 129.723L288.616 133.729Z" fill="#233863"/>
<path d="M186.107 252.732L160.303 258.977C159.714 259.095 159.007 258.741 158.889 258.034L157.593 252.614C157.475 252.025 157.829 251.318 158.536 251.2L184.34 244.955C184.929 244.838 185.636 245.191 185.753 245.898L187.05 251.318C187.167 252.025 186.696 252.614 186.107 252.732Z" fill="#233863"/>
<path d="M219.215 244.719L193.411 250.963C192.822 251.081 192.115 250.728 191.997 250.021L190.701 244.601C190.583 244.012 190.936 243.305 191.643 243.187L217.447 236.942C218.036 236.824 218.743 237.178 218.861 237.885L220.157 243.305C220.275 243.894 219.804 244.601 219.215 244.719Z" fill="#233863"/>
<path d="M251.5 236.826L225.696 243.071C225.107 243.189 224.4 242.835 224.282 242.128L222.986 236.708C222.868 236.119 223.221 235.412 223.928 235.294L249.732 229.05C250.321 228.932 251.028 229.285 251.146 229.992L252.442 235.412C252.56 236.001 252.206 236.708 251.5 236.826Z" fill="#233863"/>
<path d="M283.902 228.931L258.098 235.176C257.509 235.294 256.802 234.94 256.684 234.233L255.388 228.813C255.27 228.224 255.623 227.517 256.33 227.399L282.134 221.155C282.723 221.037 283.43 221.39 283.548 222.097L284.844 227.517C284.962 228.106 284.609 228.813 283.902 228.931Z" fill="#233863"/>
<path d="M185.282 271.937L164.073 277.121C163.484 277.239 162.777 276.885 162.659 276.178L161.952 273.468C161.834 272.879 162.188 272.172 162.895 272.055L184.103 266.87C184.692 266.752 185.399 267.106 185.517 267.813L186.224 270.523C186.342 271.112 185.871 271.819 185.282 271.937Z" fill="#F5F5F5"/>
<path d="M308.174 153.64L286.612 157.175C285.905 157.293 285.316 156.821 285.198 156.232L284.727 153.522C284.609 152.815 285.08 152.226 285.669 152.108L307.231 148.574C307.938 148.456 308.527 148.927 308.645 149.516L309.117 152.226C309.352 152.933 308.881 153.522 308.174 153.64Z" fill="#F5F5F5"/>
<path d="M229.231 174.612L143.925 195.468C143.1 195.703 142.157 195.114 141.922 194.289L141.097 190.755C140.861 189.93 141.451 188.987 142.275 188.752L227.581 167.896C228.406 167.661 229.349 168.25 229.584 169.075L230.409 172.609C230.645 173.552 230.055 174.377 229.231 174.612Z" fill="#F5F5F5"/>
<path d="M215.327 264.514L194.119 269.698C193.529 269.816 192.822 269.463 192.705 268.756L191.998 266.046C191.88 265.457 192.233 264.75 192.94 264.632L214.149 259.448C214.738 259.33 215.445 259.683 215.563 260.39L216.27 263.1C216.388 263.689 216.034 264.278 215.327 264.514Z" fill="#F5F5F5"/>
<path d="M244.784 257.562L223.576 262.746C222.986 262.864 222.279 262.511 222.162 261.804L221.455 259.094C221.337 258.505 221.69 257.798 222.397 257.68L243.606 252.495C244.195 252.378 244.902 252.731 245.02 253.438L245.727 256.148C245.727 256.737 245.373 257.444 244.784 257.562Z" fill="#F5F5F5"/>
<path d="M188.345 287.49L167.137 292.675C166.547 292.793 165.841 292.439 165.723 291.732L165.016 289.022C164.898 288.433 165.251 287.726 165.958 287.608L187.167 282.424C187.756 282.306 188.463 282.66 188.581 283.367L189.288 286.077C189.288 286.666 188.934 287.373 188.345 287.49Z" fill="#F5F5F5"/>
<path d="M188.111 229.521L157.005 237.062C155.237 237.533 153.588 236.473 153.116 234.705L150.878 225.397L148.757 216.796C148.285 215.029 149.346 213.379 151.113 212.908L182.219 205.367C183.987 204.896 185.636 205.956 186.108 207.723L190.467 225.633C190.938 227.4 189.878 229.05 188.111 229.521Z" fill="#F5F5F5"/>
<path d="M148.993 227.636C148.168 227.636 147.461 227.047 147.226 226.34C146.99 225.397 147.579 224.455 148.522 224.219L187.758 214.321C188.7 214.086 189.643 214.675 189.879 215.618C190.114 216.56 189.525 217.503 188.583 217.738L149.347 227.636C149.229 227.636 149.111 227.636 148.993 227.636Z" fill="#3D85FD"/>
<path d="M169.26 226.813C172.579 226.813 175.269 224.122 175.269 220.804C175.269 217.485 172.579 214.794 169.26 214.794C165.942 214.794 163.251 217.485 163.251 220.804C163.251 224.122 165.942 226.813 169.26 226.813Z" fill="#F5F5F5"/>
<path d="M169.259 228.58C165.371 228.58 161.954 225.634 161.601 221.628C161.365 219.625 162.072 217.504 163.368 215.972C164.664 214.323 166.549 213.38 168.553 213.145C172.794 212.791 176.565 215.855 177.036 220.096C177.389 224.338 174.326 228.108 170.084 228.58C169.731 228.58 169.495 228.58 169.259 228.58ZM169.259 216.679C169.142 216.679 169.024 216.679 168.906 216.679C167.846 216.797 166.785 217.268 166.078 218.211C165.371 219.036 165.018 220.214 165.136 221.275C165.371 223.631 167.374 225.281 169.731 225.045C170.791 224.927 171.852 224.456 172.559 223.513C173.266 222.688 173.619 221.51 173.501 220.45C173.383 219.389 172.912 218.329 171.969 217.622C171.145 216.915 170.202 216.679 169.259 216.679Z" fill="#3D85FD"/>
<path d="M307.114 256.738C306.171 253.439 306.761 250.14 308.41 247.548C305.936 246.251 302.99 245.898 300.045 246.723C293.918 248.49 290.265 254.853 292.032 260.98C293.8 267.107 300.162 270.759 306.289 268.992C309.235 268.167 311.474 266.282 313.005 263.925C310.178 262.511 307.939 260.037 307.114 256.738Z" fill="#F5F5F5"/>
<path d="M319.014 241.42C316.069 242.245 313.83 244.13 312.298 246.487C310.649 249.197 310.059 252.496 311.002 255.677C311.945 258.976 314.183 261.451 316.893 262.865C319.368 264.161 322.313 264.514 325.259 263.689C331.386 261.922 335.039 255.559 333.271 249.432C331.504 243.188 325.141 239.653 319.014 241.42Z" fill="#F5F5F5"/>
<path d="M326.905 36.6436C327.023 36.4079 327.259 36.1723 327.612 35.9366L346.818 24.6253C347.643 24.154 348.585 24.3897 349.056 25.2145C349.528 26.0392 349.292 26.9818 348.467 27.4532L329.262 38.7644C328.437 39.2357 327.494 39.0001 327.023 38.1753C326.67 37.704 326.67 37.1149 326.905 36.6436Z" fill="#233863"/>
<path d="M313.826 33.5799C313.826 33.3442 313.826 33.1086 313.944 32.8729L323.134 3.18083C323.37 2.35605 324.313 1.76692 325.255 2.1204C326.08 2.35605 326.669 3.29865 326.316 4.24126L317.125 33.9334C316.89 34.7581 315.947 35.3473 315.004 34.9938C314.297 34.7581 313.826 34.169 313.826 33.5799Z" fill="#233863"/>
<path d="M281.778 5.77288C281.424 4.9481 281.778 4.00549 282.485 3.65202C283.31 3.18071 284.252 3.53419 284.723 4.35897L300.512 34.2867C300.983 35.1115 300.63 36.0541 299.805 36.5254C298.98 36.9967 298.038 36.6432 297.566 35.8185L281.778 5.77288C281.896 5.77288 281.778 5.77288 281.778 5.77288Z" fill="#233863"/>
<path d="M234.532 400.604C234.414 400.84 234.178 401.075 233.943 401.193L216.387 409.205C215.68 409.559 214.855 409.205 214.501 408.498C214.148 407.791 214.501 406.967 215.208 406.613L232.764 398.601C233.471 398.248 234.296 398.601 234.65 399.308C234.885 399.661 234.767 400.251 234.532 400.604Z" fill="#233863"/>
<path d="M245.489 404.493C245.489 404.729 245.489 404.846 245.371 405.082L234.766 429.825C234.413 430.532 233.588 430.886 232.881 430.532C232.174 430.179 231.821 429.354 232.174 428.647L242.779 403.904C243.132 403.197 243.957 402.843 244.664 403.197C245.135 403.315 245.489 403.904 245.489 404.493Z" fill="#233863"/>
<path d="M270.585 431.24C270.821 431.947 270.468 432.771 269.761 433.007C269.054 433.36 268.229 432.889 267.875 432.182L256.918 405.082C256.682 404.375 257.036 403.551 257.742 403.197C258.449 402.844 259.274 403.315 259.628 404.022L270.585 431.24C270.585 431.122 270.585 431.24 270.585 431.24Z" fill="#233863"/>
<path d="M51.0763 228.344L50.2516 208.078L85.128 240.598L52.8437 275.71L52.0189 255.444C52.0189 255.444 21.8555 249.435 2.8856 284.429C2.8856 284.429 -3.24134 258.508 18.7921 238.595C18.9099 238.595 28.8073 228.58 51.0763 228.344Z" fill="#F5F5F5"/>
<path d="M3.00398 286.197C2.88615 286.197 2.88615 286.197 2.76833 286.197C2.06137 286.079 1.47224 285.608 1.23659 284.901C1.11877 284.665 -4.89035 257.683 17.7322 237.417C18.0857 237.064 27.8652 227.52 49.3095 226.695L48.6025 208.196C48.6025 207.489 48.956 206.782 49.663 206.547C50.3699 206.193 51.0769 206.429 51.5482 206.9L86.4246 239.42C87.1316 240.127 87.1316 241.188 86.5424 241.895L54.2582 277.007C53.7869 277.478 52.9621 277.714 52.373 277.478C51.666 277.242 51.1947 276.653 51.1947 275.946L50.4878 257.094C44.4786 256.387 20.6778 255.798 4.53571 285.372C4.30006 285.844 3.59311 286.197 3.00398 286.197ZM52.2551 212.32L52.8443 228.345C52.8443 228.816 52.7265 229.287 52.373 229.641C52.0195 229.994 51.5482 230.23 51.0769 230.23C29.7504 230.465 20.2065 239.891 20.0887 240.009C4.77137 253.795 3.5931 270.88 4.06441 279.127C23.5057 248.375 52.1373 253.677 52.4908 253.795C53.3156 253.913 53.9047 254.62 53.9047 255.444L54.4938 271.469L82.6542 240.834L52.2551 212.32Z" fill="#233863"/>
<path d="M408.208 297.863L407.618 318.129L374.981 283.371L409.504 250.497L408.915 270.763C408.915 270.763 438.607 278.775 459.933 245.077C459.933 245.077 464.293 271.352 440.963 289.733C441.081 289.851 430.477 299.159 408.208 297.863Z" fill="#F5F5F5"/>
<path d="M407.618 319.894C407.147 319.894 406.676 319.659 406.322 319.305L373.684 284.547C372.977 283.84 373.095 282.779 373.802 282.072L408.325 249.199C408.797 248.728 409.621 248.61 410.21 248.846C410.917 249.081 411.271 249.788 411.271 250.495L410.8 269.347C416.691 270.408 440.492 272.646 458.519 244.133C458.872 243.543 459.697 243.19 460.404 243.308C461.111 243.426 461.7 244.015 461.818 244.722C461.818 244.957 466.06 272.293 442.259 291.027C441.906 291.381 431.537 300.335 410.093 299.511L409.621 318.009C409.621 318.716 409.15 319.305 408.443 319.659C408.09 319.895 407.854 319.894 407.618 319.894ZM377.455 283.486L405.969 313.768L406.44 297.743C406.44 297.272 406.676 296.801 407.029 296.447C407.383 296.094 407.854 295.976 408.325 295.976C429.416 297.154 439.785 288.435 439.903 288.317C456.162 275.474 458.519 258.625 458.519 250.259C436.957 279.598 408.797 272.411 408.561 272.293C407.736 272.057 407.265 271.35 407.265 270.525L407.736 254.501L377.455 283.486Z" fill="#233863"/>
</svg>
