<svg width="42" height="42" viewBox="0 0 42 42" fill="none" xmlns="http://www.w3.org/2000/svg">
<path d="M25.0436 23.3555C25.1675 23.3555 25.2913 23.3483 25.4143 23.3331C25.5078 23.3215 25.6157 23.3139 25.6998 23.268C25.8761 23.1714 25.878 22.9952 25.8504 22.822C25.8178 22.619 25.6404 22.5145 25.4451 22.5399C25.238 22.5669 25.0173 22.5607 24.83 22.4584C24.4653 22.2595 24.3722 21.7491 24.5356 21.389C24.6336 21.1731 24.8315 21.0301 25.0638 20.9902C25.184 20.9696 25.3098 20.9753 25.4301 20.991C25.5482 21.0064 25.6622 20.9853 25.748 20.8947C25.8502 20.7863 25.895 20.5545 25.8357 20.4189C25.7305 20.1771 25.3925 20.1876 25.1705 20.1876C24.7741 20.1876 24.3701 20.2854 24.0469 20.5225C23.4298 20.9754 23.2658 21.8875 23.602 22.5613C23.8738 23.1064 24.4563 23.3555 25.0436 23.3555Z" fill="#006AFF"/>
<path d="M26.9984 23.0779C27.1063 23.3752 27.5197 23.295 27.7668 23.295C27.9253 23.295 28.0742 23.2422 28.1345 23.0799C28.1476 23.0488 28.1582 23.0167 28.17 22.9852C28.3501 22.5015 28.5302 22.0176 28.7102 21.5339C28.7938 21.3093 28.8774 21.0847 28.9612 20.86C29.0355 20.6602 29.1103 20.4201 28.8643 20.2917C28.7475 20.2306 28.5873 20.2543 28.4596 20.2543C28.2932 20.2543 28.1324 20.2957 28.0684 20.4712C27.999 20.6615 27.9576 20.8665 27.9036 21.0615C27.7967 21.4469 27.688 21.83 27.6063 22.2218C27.4942 21.6674 27.3114 21.124 27.1537 20.5815C27.1259 20.486 27.1011 20.3945 27.0187 20.3278C26.904 20.2348 26.7548 20.2542 26.6174 20.2542C26.4706 20.2542 26.3182 20.2379 26.2053 20.3537C26.1074 20.4541 26.0938 20.5927 26.14 20.7196C26.4261 21.5058 26.7123 22.2918 26.9984 23.0779Z" fill="#006AFF"/>
<path d="M30.1985 23.0779C30.3069 23.3751 30.7199 23.295 30.9672 23.295C31.1257 23.295 31.2746 23.2422 31.3347 23.0799C31.3478 23.0488 31.3584 23.0167 31.3702 22.9852C31.5503 22.5015 31.7304 22.0176 31.9104 21.5339C31.994 21.3093 32.0776 21.0847 32.1614 20.86C32.2357 20.6602 32.3105 20.42 32.0647 20.2917C31.9478 20.2306 31.7876 20.2543 31.6598 20.2543C31.4933 20.2543 31.3328 20.2956 31.2688 20.4712C31.1993 20.6616 31.158 20.8665 31.1038 21.0615C30.9969 21.4469 30.888 21.83 30.8066 22.2218C30.694 21.6675 30.5118 21.1242 30.3541 20.5815C30.3263 20.4859 30.3013 20.3945 30.2189 20.3278C30.1043 20.2348 29.955 20.2542 29.8176 20.2542C29.6707 20.2542 29.5186 20.2379 29.4057 20.3537C29.3076 20.4543 29.294 20.5925 29.3402 20.7196C29.6265 21.5058 29.9125 22.2918 30.1985 23.0779Z" fill="#006AFF"/>
<path d="M27.8657 31.0703C25.8857 31.0703 24.0442 30.466 22.5159 29.4321H4.53218C3.41581 29.4321 2.50767 28.5241 2.50767 27.4076V16.4855H19.7153C20.6605 14.9545 22.0247 13.7089 23.6467 12.909L2.50777 12.9104V11.1097C2.50777 9.99327 3.41591 9.08522 4.53227 9.08522H33.3818C34.4981 9.08522 35.4063 9.99327 35.4063 11.1097V12.9081L32.0833 12.9083C35.2518 14.4703 37.4372 17.734 37.4372 21.4989C37.4372 22.8514 37.1564 24.1681 36.6152 25.3828L37.9139 26.59V11.1097C37.9139 8.61067 35.8808 6.57764 33.3818 6.57764H4.53218C2.03303 6.57764 0 8.61076 0 11.1097V27.4077C0 29.9067 2.03312 31.9398 4.53218 31.9398H33.3105L31.5722 30.3239C30.4048 30.8151 29.1473 31.0703 27.8657 31.0703Z" fill="#006AFF"/>
<path d="M6.24971 20.1603C5.88523 20.1603 5.58984 20.4557 5.58984 20.8201V22.7852C5.58984 23.1498 5.88532 23.445 6.24971 23.445H18.4932C18.3627 22.8165 18.294 22.1653 18.294 21.4986C18.294 21.0446 18.3265 20.5977 18.388 20.1602L6.24971 20.1603Z" fill="#006AFF"/>
<path d="M41.4758 32.5778L34.744 26.3201C35.6968 24.9554 36.2571 23.2967 36.2571 21.5064C36.2571 16.8552 32.4864 13.0845 27.8353 13.0845C23.1842 13.0845 19.4136 16.8552 19.4136 21.5064C19.4136 26.1575 23.1842 29.928 27.8353 29.928C29.5066 29.928 31.0627 29.4394 32.3726 28.5997L39.2398 34.9833C39.556 35.2774 39.9572 35.4228 40.3574 35.4228C40.798 35.4228 41.2372 35.2466 41.5605 34.8987C42.178 34.2342 42.1401 33.195 41.4758 32.5778ZM27.8353 15.9449C30.9017 15.9449 33.3965 18.4398 33.3965 21.5064C33.3965 24.5728 30.9017 27.0676 27.8353 27.0676C24.7688 27.0676 22.2741 24.5728 22.2741 21.5064C22.2741 18.4398 24.7688 15.9449 27.8353 15.9449Z" fill="#006AFF"/>
</svg>
