<svg width="38" height="38" viewBox="0 0 38 38" fill="none" xmlns="http://www.w3.org/2000/svg">
<path d="M33.8438 5.9375H4.15625C1.86452 5.9375 0 7.80202 0 10.0938V27.9062C0 30.198 1.86452 32.0625 4.15625 32.0625H33.8438C36.1355 32.0625 38 30.198 38 27.9062V10.0938C38 7.80202 36.1355 5.9375 33.8438 5.9375ZM4.15625 8.3125H33.8438C34.8259 8.3125 35.625 9.11161 35.625 10.0938V12.4688H2.375V10.0938C2.375 9.11161 3.17411 8.3125 4.15625 8.3125ZM33.8438 29.6875H4.15625C3.17411 29.6875 2.375 28.8884 2.375 27.9062V14.8438H35.625V27.9062C35.625 28.8884 34.8259 29.6875 33.8438 29.6875Z" fill="#006AFF"/>
<path d="M8.3125 26.125H7.125C6.4692 26.125 5.9375 25.5933 5.9375 24.9375V23.75C5.9375 23.0942 6.4692 22.5625 7.125 22.5625H8.3125C8.9683 22.5625 9.5 23.0942 9.5 23.75V24.9375C9.5 25.5933 8.9683 26.125 8.3125 26.125Z" fill="#006AFF"/>
</svg>
