<svg width="176" height="176" viewBox="0 0 176 176" fill="none" xmlns="http://www.w3.org/2000/svg">
<path d="M87.933 0C39.369 0 0 39.369 0 87.933C0 136.497 39.369 175.866 87.933 175.866C136.497 175.866 175.866 136.497 175.866 87.933C175.814 39.3907 136.476 0.0518913 87.933 0ZM136.34 60.969L73.5308 123.779C71.0779 126.231 67.1021 126.231 64.6496 123.779L39.5257 98.6546C37.0305 96.2448 36.9614 92.2687 39.3712 89.7735C41.781 87.2783 45.7571 87.2091 48.2523 89.6189C48.3046 89.6697 48.3561 89.7209 48.4069 89.7735L69.0902 110.457L127.459 52.0879C129.954 49.678 133.93 49.7472 136.34 52.2421C138.691 54.6762 138.691 58.5349 136.34 60.969Z" fill="white"/>
</svg>
