<svg width="286" height="182" viewBox="0 0 286 182" fill="none" xmlns="http://www.w3.org/2000/svg">
<g opacity="0.34">
<g opacity="0.34">
<g opacity="0.6">
<path opacity="0.6" d="M248.48 124.927C250.467 133.198 250.136 140.802 247.486 148.916C244.173 159.069 236.72 168.516 226.036 174.317C222.309 176.355 218.293 177.884 214.11 178.982C213.448 180.001 212.702 181.02 211.916 181.961H247.61C256.679 171.73 261.896 158.598 262.725 145.271C262.932 141.665 262.849 138.019 262.435 134.452C260.778 120.537 254.236 107.288 244.463 96.7434C244.339 97.4882 244.215 98.2329 244.09 98.9777C242.972 107.837 246.409 116.421 248.48 124.927Z" fill="#53D0F7"/>
</g>
<g opacity="0.41">
<path opacity="0.41" d="M137.915 179.922C135.803 177.178 134.188 173.69 131.952 170.907C127.19 171.808 122.511 173.141 117.749 174.317C108.018 176.669 97.9969 178.433 87.9759 178.55C76.8369 178.707 65.4494 176.669 55.7596 171.22C48.3474 167.065 41.8462 160.754 38.3264 153.228C39.3202 163.616 43.2955 173.768 50.0038 182H139.613C138.992 181.294 138.454 180.628 137.915 179.922Z" fill="#53D0F7"/>
</g>
<g opacity="0.41">
<path opacity="0.41" d="M152.038 37.1226C154.73 37.0442 157.67 36.8874 160.858 36.6522C175.683 35.5939 190.383 38.8082 204.628 43.1984C205.994 43.6296 207.361 44.0999 208.727 44.5703C202.599 38.181 194.773 33.2028 186.159 30.3805C169.099 24.7751 148.436 27.0094 133.446 35.8291C139.616 35.8683 145.827 36.2995 152.038 37.1226Z" fill="#53D0F7"/>
</g>
<g opacity="0.35">
<path opacity="0.35" d="M55.3893 171.338C65.0791 176.63 76.4252 178.668 87.5642 178.59C97.5852 178.511 107.648 176.865 117.379 174.631C122.141 173.533 126.861 172.279 131.624 171.416C129.677 169.025 127.276 167.144 123.714 166.752C109.884 165.184 95.3491 170.593 81.6013 171.495C72.3671 172.122 62.5531 170.907 55.0581 165.693C50.2132 162.283 46.6934 157.422 44.2503 152.17C39.2398 141.273 39.1156 128.768 43.3393 117.597C46.1965 110.071 53.1532 104.309 55.555 96.6258C57.584 90.1973 55.2237 83.4943 55.8862 77.0266C56.0105 75.6938 56.3003 74.4003 56.7144 73.1068C59.0747 66.2078 70.5037 56.2514 77.5018 52.9196C94.2725 44.9231 111.789 41.0425 129.677 40.6505C119.532 39.0433 109.925 36.1427 92.906 32.7324C72.7397 28.5774 50.0061 42.6104 38.0803 58.9561C36.8795 60.6417 35.8028 62.3664 34.8918 64.1695C30.7509 72.2836 29.5915 81.652 31.4963 90.4324C33.7324 100.742 40.6891 108.699 38.2045 119.674C36.6724 126.377 36.2997 132.571 35.513 139.195C34.8918 144.369 35.927 149.308 38.0389 153.816C41.5173 161.107 48.0185 167.261 55.3893 171.338Z" fill="#53D0F7"/>
</g>
<g opacity="0.47">
<path opacity="0.47" d="M160.857 36.6523C157.669 36.8875 154.77 37.0443 152.037 37.1227C161.23 38.3378 170.506 40.4545 179.74 43.316L214.317 54.0956C230.59 59.1522 241.357 73.8908 240.322 90.0797C240.322 90.1973 240.322 90.2757 240.28 90.3933C239.618 99.7617 236.346 108.973 230.88 116.656C225.953 123.634 219.12 131.434 217.422 140.018C216.056 146.839 218.996 153.738 219.369 160.676C219.7 167.261 217.629 173.533 214.027 178.942C218.209 177.845 222.226 176.316 225.953 174.278C236.595 168.476 244.09 159.03 247.402 148.877C250.053 140.763 250.384 133.159 248.396 124.888C246.367 116.382 242.93 107.797 244.007 98.9385C244.09 98.1938 244.214 97.449 244.38 96.7042C245.415 91.2948 247.692 86.0423 247.195 80.5937C246.823 76.4778 244.918 72.5972 242.558 69.1478C234.773 57.5842 222.267 49.4702 208.644 44.5704C207.277 44.1 205.911 43.6296 204.544 43.1984C190.382 38.8082 175.682 35.5939 160.857 36.6523Z" fill="#53D0F7"/>
</g>
<g opacity="0.7">
<path opacity="0.7" d="M56.589 69.7357C56.1335 71.0685 55.8851 72.4404 55.7608 73.8123C55.1397 80.5153 57.5 87.4142 55.5124 94.0387C53.1106 101.996 46.1953 107.915 43.3795 115.715C39.1972 127.24 39.4042 140.136 44.4561 151.386C46.8993 156.795 50.4605 161.813 55.3053 165.301C62.8004 170.672 72.6143 171.848 81.8486 171.142C95.5964 170.123 110.09 164.478 123.92 166.046C127.481 166.438 129.925 168.359 131.871 170.828C134.107 173.611 135.722 177.1 137.834 179.844C138.372 180.55 138.952 181.255 139.531 181.922H211.832C212.619 180.942 213.364 179.962 214.026 178.942C217.629 173.533 219.7 167.261 219.368 160.676C218.996 153.738 216.056 146.839 217.422 140.018C219.12 131.473 225.952 123.633 230.88 116.656C236.346 108.934 239.617 99.7617 240.28 90.3933C240.28 90.2757 240.28 90.1973 240.321 90.0797C241.315 73.8907 230.549 59.1521 214.316 54.0956L179.74 43.316C170.464 40.4153 161.23 38.3378 152.037 37.1226C145.826 36.2995 139.614 35.8291 133.444 35.8291C132.078 35.8291 130.753 35.8291 129.386 35.8683C111.539 36.3779 94.0229 40.4545 77.2936 48.7646C70.2954 52.2924 58.9493 62.6408 56.589 69.7357Z" fill="#53D0F7"/>
</g>
<g opacity="0.35">
<path opacity="0.35" d="M120.483 32.6932C123.593 32.6932 126.115 30.3064 126.115 27.3622C126.115 24.418 123.593 22.0312 120.483 22.0312C117.373 22.0312 114.851 24.418 114.851 27.3622C114.851 30.3064 117.373 32.6932 120.483 32.6932Z" fill="#53D0F7"/>
</g>
<g opacity="0.35">
<path opacity="0.35" d="M272.539 102.702C279.56 102.702 285.251 97.3138 285.251 90.6677C285.251 84.0216 279.56 78.6338 272.539 78.6338C265.518 78.6338 259.826 84.0216 259.826 90.6677C259.826 97.3138 265.518 102.702 272.539 102.702Z" fill="#53D0F7"/>
</g>
<g opacity="0.35">
<path opacity="0.35" d="M26.0252 122.971C31.4257 118.724 32.1668 111.137 27.6804 106.025C23.194 100.913 15.1791 100.211 9.77852 104.458C4.37799 108.705 3.63694 116.292 8.12334 121.404C12.6097 126.516 20.6247 127.218 26.0252 122.971Z" fill="#53D0F7"/>
</g>
<g opacity="0.35">
<path opacity="0.35" d="M219.74 42.2184C221.867 42.2184 223.592 40.5863 223.592 38.573C223.592 36.5596 221.867 34.9275 219.74 34.9275C217.614 34.9275 215.889 36.5596 215.889 38.573C215.889 40.5863 217.614 42.2184 219.74 42.2184Z" fill="#53D0F7"/>
</g>
</g>
</g>
<g opacity="0.22">
<g opacity="0.22">
<path opacity="0.22" d="M83.9234 90.4701C83.6583 90.4701 83.4263 90.2505 83.4263 89.9995C83.4263 81.6544 85.2159 73.5917 88.7621 66.0309C92.1757 58.7211 97.0476 52.227 103.245 46.7368C105.466 44.7603 107.885 42.9093 110.371 41.2779C110.603 41.1211 110.901 41.1838 111.067 41.4034C111.232 41.623 111.166 41.9054 110.934 42.0622C108.482 43.6936 106.095 45.4819 103.908 47.427C91.5129 58.4073 84.4205 73.9368 84.4205 89.9995C84.4205 90.2505 84.1885 90.4701 83.9234 90.4701Z" fill="#3AAED5"/>
<path opacity="0.22" d="M208.206 90.4702C207.941 90.4702 207.709 90.2505 207.709 89.9996C207.709 83.3486 206.549 76.7917 204.229 70.58C204.129 70.329 204.262 70.078 204.527 69.9839C204.792 69.8898 205.057 70.0153 205.157 70.2662C207.51 76.6035 208.703 83.2231 208.703 89.9996C208.703 90.2505 208.471 90.4702 208.206 90.4702Z" fill="#3AAED5"/>
<path opacity="0.22" d="M203.334 67.5995C203.135 67.5995 202.969 67.5054 202.87 67.3171C198.031 56.4622 189.911 47.3328 179.406 40.9015C179.174 40.776 179.107 40.4623 179.273 40.2427C179.439 40.023 179.737 39.9603 179.969 40.1172C190.641 46.6426 198.893 55.8975 203.798 66.9407C203.897 67.1916 203.798 67.4426 203.533 67.5681C203.467 67.5995 203.4 67.5995 203.334 67.5995Z" fill="#3AAED5"/>
<path opacity="0.22" d="M114.713 39.6466C114.547 39.6466 114.381 39.5525 114.282 39.427C114.149 39.2074 114.216 38.9251 114.448 38.7682C123.992 33.4662 134.929 30.6741 146.032 30.6741C155.312 30.6741 164.227 32.5564 172.545 36.227C172.81 36.3525 172.91 36.6035 172.777 36.8545C172.645 37.1055 172.38 37.1996 172.114 37.0741C163.928 33.4349 155.146 31.6153 146.032 31.6153C135.095 31.6153 124.324 34.376 114.945 39.5839C114.878 39.6466 114.812 39.6466 114.713 39.6466Z" fill="#3AAED5"/>
<path opacity="0.22" d="M72.8541 90.4701C72.5889 90.4701 72.3569 90.2505 72.3569 89.9995C72.3569 62.3289 89.657 37.2623 116.403 26.125C116.668 26.0309 116.933 26.125 117.065 26.376C117.165 26.627 117.065 26.878 116.8 27.0035C90.4193 37.9525 73.3512 62.7054 73.3512 89.9995C73.3512 90.2505 73.1192 90.4701 72.8541 90.4701Z" fill="#3AAED5"/>
<path opacity="0.22" d="M219.275 90.4701C219.01 90.4701 218.778 90.2505 218.778 89.9995C218.778 68.2897 207.775 47.6152 189.348 34.6897C189.116 34.5329 189.083 34.2505 189.249 34.0309C189.414 33.8113 189.713 33.7799 189.945 33.9368C198.992 40.3054 206.516 48.6505 211.653 58.125C217.055 68.0387 219.772 78.7682 219.772 89.9995C219.772 90.2505 219.54 90.4701 219.275 90.4701Z" fill="#3AAED5"/>
<path opacity="0.22" d="M185.272 31.929C185.172 31.929 185.073 31.8976 185.007 31.8662C183.515 30.9564 181.957 30.1093 180.4 29.325C180.168 29.1995 180.068 28.9172 180.201 28.6976C180.334 28.478 180.632 28.3838 180.864 28.5093C182.455 29.325 184.012 30.1721 185.504 31.0819C185.736 31.2074 185.802 31.5211 185.669 31.7407C185.57 31.8348 185.437 31.929 185.272 31.929Z" fill="#3AAED5"/>
<path opacity="0.22" d="M177.417 27.8191C177.351 27.8191 177.284 27.8191 177.218 27.7877C167.441 23.3956 156.968 21.1681 146.098 21.1681C138.144 21.1681 130.289 22.3916 122.832 24.776C122.567 24.8701 122.302 24.7132 122.203 24.4936C122.103 24.2426 122.269 23.9916 122.501 23.8975C130.09 21.4818 138.011 20.2583 146.098 20.2583C157.134 20.2583 167.773 22.5171 177.649 26.972C177.881 27.0975 178.013 27.3485 177.881 27.5995C177.782 27.725 177.583 27.8191 177.417 27.8191Z" fill="#3AAED5"/>
<path opacity="0.22" d="M231.538 90.4701C231.273 90.4701 231.041 90.2505 231.041 89.9995C231.041 81.1524 229.516 72.4308 226.567 64.1171C226.467 63.8661 226.633 63.6151 226.865 63.521C227.13 63.4269 227.395 63.5838 227.495 63.8034C230.511 72.2112 232.035 81.0269 232.035 89.9681C232.035 90.2505 231.803 90.4701 231.538 90.4701Z" fill="#3AAED5"/>
<path opacity="0.22" d="M225.241 59.9133C225.042 59.9133 224.843 59.7878 224.777 59.6309C218.778 45.7015 208.769 33.6545 195.877 24.8074C195.645 24.6505 195.612 24.3682 195.777 24.1486C195.943 23.929 196.241 23.8976 196.473 24.0545C209.531 33.027 219.64 45.1996 225.738 59.2858C225.837 59.5368 225.705 59.7878 225.473 59.9133C225.34 59.9133 225.274 59.9133 225.241 59.9133Z" fill="#3AAED5"/>
<path opacity="0.22" d="M191.238 21.7643C191.138 21.7643 191.072 21.7329 190.972 21.7015C177.517 13.7642 162.006 9.56032 146.065 9.56032C138.873 9.56032 131.748 10.4074 124.854 12.0701C124.589 12.1329 124.324 11.976 124.258 11.725C124.191 11.474 124.357 11.2231 124.622 11.1603C131.582 9.4662 138.807 8.61914 146.065 8.61914C162.172 8.61914 177.915 12.8544 191.503 20.9172C191.735 21.0427 191.801 21.3564 191.668 21.576C191.569 21.7015 191.403 21.7643 191.238 21.7643Z" fill="#3AAED5"/>
<path opacity="0.22" d="M108.482 17.7799C108.283 17.7799 108.117 17.6858 108.051 17.5289C107.919 17.3093 108.018 17.0269 108.283 16.9014C110.901 15.6779 113.619 14.5799 116.37 13.6387C116.635 13.5446 116.9 13.67 116.999 13.921C117.099 14.172 116.966 14.423 116.701 14.5171C113.984 15.4583 111.299 16.5563 108.714 17.7485C108.648 17.7485 108.548 17.7799 108.482 17.7799Z" fill="#3AAED5"/>
<path opacity="0.22" d="M60.5919 90.4701C60.3267 90.4701 60.0947 90.2505 60.0947 89.9995C60.0947 75.5367 64.138 61.3563 71.8269 48.9642C79.2839 36.9171 89.9224 26.8465 102.616 19.7877C102.848 19.6622 103.146 19.725 103.312 19.9446C103.444 20.1642 103.378 20.4465 103.146 20.6034C77.1959 34.972 61.089 61.576 61.089 89.9995C61.089 90.2505 60.8901 90.4701 60.5919 90.4701Z" fill="#3AAED5"/>
</g>
</g>
<path d="M168.969 53.4383H131.859V31.9531C131.859 30.8746 130.985 30 129.906 30H83.0312C81.9525 30 81.0781 30.8746 81.0781 31.9531V128.047C81.0781 129.125 81.9525 130 83.0312 130H129.906H168.969C170.047 130 170.922 129.125 170.922 128.047V55.3914C170.922 54.3127 170.047 53.4383 168.969 53.4383ZM131.859 57.3445H167.016V106.562H131.859V57.3445ZM100.609 126.094V110.469H112.328V126.094H100.609ZM114.281 106.562H98.6562C97.5775 106.562 96.7031 107.437 96.7031 108.515V126.094H84.9844V33.9062H127.953V126.094H116.234V108.515C116.234 107.437 115.36 106.562 114.281 106.562ZM131.859 126.094V110.469H167.015V126.094H131.859Z" fill="#006AFF"/>
<path d="M104.515 45.6252H108.421C109.5 45.6252 110.374 44.7508 110.374 43.6721V39.7659C110.374 38.6872 109.5 37.8127 108.421 37.8127H104.515C103.437 37.8127 102.562 38.6872 102.562 39.7659V43.6721C102.562 44.7508 103.437 45.6252 104.515 45.6252Z" fill="#006AFF"/>
<path d="M104.515 59.2971H108.421C109.5 59.2971 110.374 58.4227 110.374 57.344V53.4377C110.374 52.359 109.5 51.4846 108.421 51.4846H104.515C103.437 51.4846 102.562 52.359 102.562 53.4377V57.344C102.562 58.4227 103.437 59.2971 104.515 59.2971Z" fill="#006AFF"/>
<path d="M104.515 72.969H108.421C109.5 72.969 110.374 72.0946 110.374 71.0159V67.1096C110.374 66.0309 109.5 65.1565 108.421 65.1565H104.515C103.437 65.1565 102.562 66.0309 102.562 67.1096V71.0159C102.562 72.0946 103.437 72.969 104.515 72.969Z" fill="#006AFF"/>
<path d="M104.515 86.6406H108.421C109.5 86.6406 110.374 85.7662 110.374 84.6875V80.7812C110.374 79.7025 109.5 78.8281 108.421 78.8281H104.515C103.437 78.8281 102.562 79.7025 102.562 80.7812V84.6875C102.562 85.7662 103.437 86.6406 104.515 86.6406Z" fill="#006AFF"/>
<path d="M104.515 100.312H108.421C109.5 100.312 110.374 99.4381 110.374 98.3594V94.4531C110.374 93.3744 109.5 92.5 108.421 92.5H104.515C103.437 92.5 102.562 93.3744 102.562 94.4531V98.3594C102.562 99.4381 103.437 100.312 104.515 100.312Z" fill="#006AFF"/>
<path d="M90.844 45.6252H94.7497C95.8284 45.6252 96.7028 44.7508 96.7028 43.6721V39.7659C96.7028 38.6872 95.8284 37.8127 94.7497 37.8127H90.844C89.7653 37.8127 88.8909 38.6872 88.8909 39.7659V43.6721C88.8909 44.7508 89.7653 45.6252 90.844 45.6252Z" fill="#006AFF"/>
<path d="M90.844 59.2971H94.7497C95.8284 59.2971 96.7028 58.4227 96.7028 57.344V53.4377C96.7028 52.359 95.8284 51.4846 94.7497 51.4846H90.844C89.7653 51.4846 88.8909 52.359 88.8909 53.4377V57.344C88.8909 58.4227 89.7653 59.2971 90.844 59.2971Z" fill="#006AFF"/>
<path d="M90.844 72.969H94.7497C95.8284 72.969 96.7028 72.0946 96.7028 71.0159V67.1096C96.7028 66.0309 95.8284 65.1565 94.7497 65.1565H90.844C89.7653 65.1565 88.8909 66.0309 88.8909 67.1096V71.0159C88.8909 72.0946 89.7653 72.969 90.844 72.969Z" fill="#006AFF"/>
<path d="M90.844 86.6406H94.7497C95.8284 86.6406 96.7028 85.7662 96.7028 84.6875V80.7812C96.7028 79.7025 95.8284 78.8281 94.7497 78.8281H90.844C89.7653 78.8281 88.8909 79.7025 88.8909 80.7812V84.6875C88.8909 85.7662 89.7653 86.6406 90.844 86.6406Z" fill="#006AFF"/>
<path d="M90.844 100.312H94.7497C95.8284 100.312 96.7028 99.4381 96.7028 98.3594V94.4531C96.7028 93.3744 95.8284 92.5 94.7497 92.5H90.844C89.7653 92.5 88.8909 93.3744 88.8909 94.4531V98.3594C88.8909 99.4381 89.7653 100.312 90.844 100.312Z" fill="#006AFF"/>
<path d="M122.093 37.8127H118.188C117.109 37.8127 116.235 38.6872 116.235 39.7659V43.6721C116.235 44.7508 117.109 45.6252 118.188 45.6252H122.093C123.172 45.6252 124.047 44.7508 124.047 43.6721V39.7659C124.047 38.6872 123.172 37.8127 122.093 37.8127Z" fill="#006AFF"/>
<path d="M122.093 51.4844H118.188C117.109 51.4844 116.235 52.3588 116.235 53.4375V57.3438C116.235 58.4225 117.109 59.2969 118.188 59.2969H122.093C123.172 59.2969 124.047 58.4225 124.047 57.3438V53.4375C124.047 52.359 123.172 51.4844 122.093 51.4844Z" fill="#006AFF"/>
<path d="M122.093 65.1562H118.188C117.109 65.1562 116.235 66.0307 116.235 67.1094V71.0156C116.235 72.0943 117.109 72.9688 118.188 72.9688H122.093C123.172 72.9688 124.047 72.0943 124.047 71.0156V67.1094C124.047 66.0309 123.172 65.1562 122.093 65.1562Z" fill="#006AFF"/>
<path d="M122.093 78.8281H118.188C117.109 78.8281 116.235 79.7025 116.235 80.7812V84.6875C116.235 85.7662 117.109 86.6406 118.188 86.6406H122.093C123.172 86.6406 124.047 85.7662 124.047 84.6875V80.7812C124.047 79.7027 123.172 78.8281 122.093 78.8281Z" fill="#006AFF"/>
<path d="M122.093 92.5H118.188C117.109 92.5 116.235 93.3744 116.235 94.4531V98.3594C116.235 99.4381 117.109 100.312 118.188 100.312H122.093C123.172 100.312 124.047 99.4381 124.047 98.3594V94.4531C124.047 93.3744 123.172 92.5 122.093 92.5Z" fill="#006AFF"/>
<path d="M158.226 65.1562H154.32C153.242 65.1562 152.367 66.0307 152.367 67.1094V71.0156C152.367 72.0943 153.242 72.9688 154.32 72.9688H158.226C159.305 72.9688 160.179 72.0943 160.179 71.0156V67.1094C160.179 66.0309 159.304 65.1562 158.226 65.1562Z" fill="#006AFF"/>
<path d="M158.226 78.8281H154.32C153.242 78.8281 152.367 79.7025 152.367 80.7812V84.6875C152.367 85.7662 153.242 86.6406 154.32 86.6406H158.226C159.305 86.6406 160.179 85.7662 160.179 84.6875V80.7812C160.179 79.7027 159.304 78.8281 158.226 78.8281Z" fill="#006AFF"/>
<path d="M158.226 92.5H154.32C153.242 92.5 152.367 93.3744 152.367 94.4531V98.3594C152.367 99.4381 153.242 100.312 154.32 100.312H158.226C159.305 100.312 160.179 99.4381 160.179 98.3594V94.4531C160.179 93.3744 159.304 92.5 158.226 92.5Z" fill="#006AFF"/>
<path d="M144.555 65.1562H140.649C139.57 65.1562 138.696 66.0307 138.696 67.1094V71.0156C138.696 72.0943 139.57 72.9688 140.649 72.9688H144.555C145.633 72.9688 146.508 72.0943 146.508 71.0156V67.1094C146.508 66.0309 145.633 65.1562 144.555 65.1562Z" fill="#006AFF"/>
<path d="M144.555 78.8281H140.649C139.57 78.8281 138.696 79.7025 138.696 80.7812V84.6875C138.696 85.7662 139.57 86.6406 140.649 86.6406H144.555C145.633 86.6406 146.508 85.7662 146.508 84.6875V80.7812C146.508 79.7027 145.633 78.8281 144.555 78.8281Z" fill="#006AFF"/>
<path d="M144.555 92.5H140.649C139.57 92.5 138.696 93.3744 138.696 94.4531V98.3594C138.696 99.4381 139.57 100.312 140.649 100.312H144.555C145.633 100.312 146.508 99.4381 146.508 98.3594V94.4531C146.508 93.3744 145.633 92.5 144.555 92.5Z" fill="#006AFF"/>
<g clip-path="url(#clip0)">
<path d="M161 46.625C160.633 46.625 160.336 46.3277 160.336 45.9609C160.336 45.5942 160.633 45.2969 161 45.2969C161.367 45.2969 161.664 45.5942 161.664 45.9609C161.664 46.3277 161.367 46.625 161 46.625Z" fill="#006AFF"/>
<path d="M171.227 46.625H163.988C163.622 46.625 163.324 46.3277 163.324 45.9609C163.324 45.5942 163.622 45.2969 163.988 45.2969H171.227C174.178 45.2969 176.672 42.864 176.672 39.9844C176.672 36.2549 172.838 33.7736 169.449 34.9763C169.241 35.0501 169.01 35.0157 168.833 34.8846C168.655 34.7536 168.554 34.5429 168.564 34.3224C168.739 30.1637 165.101 26.7031 161 26.7031C156.868 26.7031 153.259 30.1402 153.436 34.3224C153.446 34.5428 153.345 34.7536 153.167 34.8847C152.99 35.0158 152.759 35.0501 152.551 34.9763C149.137 33.7646 145.328 36.2779 145.328 39.9844C145.328 42.864 147.822 45.2969 150.773 45.2969H158.012C158.378 45.2969 158.676 45.5942 158.676 45.9609C158.676 46.3277 158.378 46.625 158.012 46.625H150.773C147.088 46.625 144 43.6422 144 39.9844C144 35.6784 148.081 32.6468 152.12 33.4803C152.419 28.9425 156.43 25.375 161 25.375C165.533 25.375 169.574 28.9551 169.879 33.4805C173.915 32.647 178 35.676 178 39.9844C178 43.6399 174.914 46.625 171.227 46.625Z" fill="#006AFF"/>
</g>
<g clip-path="url(#clip1)">
<path d="M69 27.625C68.6332 27.625 68.3359 27.3277 68.3359 26.9609C68.3359 26.5942 68.6332 26.2969 69 26.2969C69.3668 26.2969 69.6641 26.5942 69.6641 26.9609C69.6641 27.3277 69.3668 27.625 69 27.625Z" fill="#006AFF"/>
<path d="M79.2266 27.625H71.9883C71.6216 27.625 71.3242 27.3277 71.3242 26.9609C71.3242 26.5942 71.6216 26.2969 71.9883 26.2969H79.2266C82.1782 26.2969 84.6719 23.864 84.6719 20.9844C84.6719 17.2549 80.8383 14.7736 77.4491 15.9763C77.2412 16.0501 77.0101 16.0157 76.8326 15.8846C76.655 15.7536 76.5542 15.5429 76.5635 15.3224C76.7394 11.1637 73.1013 7.70312 69 7.70312C64.8679 7.70312 61.2593 11.1402 61.4365 15.3224C61.4458 15.5428 61.345 15.7536 61.1674 15.8847C60.9899 16.0158 60.759 16.0501 60.5509 15.9763C57.1369 14.7646 53.3281 17.2779 53.3281 20.9844C53.3281 23.864 55.8218 26.2969 58.7734 26.2969H66.0117C66.3784 26.2969 66.6758 26.5942 66.6758 26.9609C66.6758 27.3277 66.3784 27.625 66.0117 27.625H58.7734C55.0884 27.625 52 24.6422 52 20.9844C52 16.6784 56.0813 13.6468 60.1199 14.4803C60.4192 9.94254 64.4299 6.375 69 6.375C73.5328 6.375 77.5741 9.95509 77.8793 14.4805C81.9154 13.647 86 16.676 86 20.9844C86 24.6399 82.9136 27.625 79.2266 27.625Z" fill="#006AFF"/>
</g>
<path d="M111.526 17.6628C111.526 18.0289 111.713 18.3256 111.942 18.3256C112.639 18.3256 113.205 19.228 113.205 20.3372C113.205 20.7032 113.391 21 113.621 21C113.851 21 114.037 20.7032 114.037 20.3372C114.037 19.228 114.603 18.3256 115.299 18.3256C115.529 18.3256 115.715 18.0289 115.715 17.6628C115.715 17.2968 115.529 17 115.299 17C114.613 17 114.003 17.5284 113.621 18.3431C113.239 17.5285 112.628 17 111.942 17C111.713 17 111.526 17.2968 111.526 17.6628Z" fill="#006AFF"/>
<path d="M125.141 4.66282C125.141 5.02888 125.327 5.32564 125.557 5.32564C126.253 5.32564 126.819 6.22797 126.819 7.33718C126.819 7.70323 127.005 8 127.235 8C127.465 8 127.651 7.70323 127.651 7.33718C127.651 6.22797 128.217 5.32564 128.914 5.32564C129.143 5.32564 129.329 5.02888 129.329 4.66282C129.329 4.29677 129.143 4 128.914 4C128.227 4 127.617 4.5284 127.235 5.34314C126.853 4.52849 126.243 4 125.557 4C125.327 4 125.141 4.29677 125.141 4.66282Z" fill="#006AFF"/>
<defs>
<clipPath id="clip0">
<rect width="34" height="34" fill="white" transform="matrix(-1 0 0 1 178 19)"/>
</clipPath>
<clipPath id="clip1">
<rect width="34" height="34" fill="white" transform="matrix(-1 0 0 1 86 0)"/>
</clipPath>
</defs>
</svg>
