<svg width="519" height="344" viewBox="0 0 519 344" fill="none" xmlns="http://www.w3.org/2000/svg">
<path d="M341.993 77.6092C342.285 74.9848 342.451 72.3395 342.451 69.6317C342.451 68.2153 342.41 66.7989 342.326 65.4034L329.142 61.1334C328.329 55.5721 326.746 50.2815 324.476 45.345L333.224 34.5971C331.204 31.0354 328.892 27.6819 326.309 24.5367L313.124 28.8275C309.291 24.9116 304.897 21.5165 300.085 18.7879L300.835 4.9365C297.148 3.27017 293.316 1.89545 289.337 0.853995L281.193 12.0809C278.027 11.5393 274.757 11.2685 271.445 11.2685C269.175 11.2685 266.946 11.3935 264.738 11.6435L257.198 0C253.157 0.812335 249.241 1.97877 245.492 3.45763L245.513 17.3298C240.555 19.7876 235.994 22.9537 231.953 26.6613L219.018 21.6623C216.269 24.6617 213.769 27.911 211.561 31.3478L219.726 42.5539C217.206 47.3654 215.331 52.5727 214.227 58.0715L200.834 61.6333C200.543 64.2578 200.376 66.9031 200.376 69.6109C200.376 71.0273 200.418 72.4436 200.501 73.8392L213.686 78.1091C214.498 83.6705 216.081 88.9611 218.352 93.8976L209.603 104.645C211.624 108.207 213.936 111.561 216.519 114.706L229.703 110.415C233.536 114.331 237.931 117.726 242.743 120.455L241.993 134.306C245.679 135.972 249.512 137.347 253.49 138.389L261.634 127.162C264.801 127.703 268.071 127.974 271.383 127.974C273.653 127.974 275.882 127.849 278.089 127.599L285.63 139.243C289.67 138.43 293.586 137.264 297.336 135.785L297.315 121.913C302.272 119.455 306.834 116.289 310.874 112.581L323.809 117.58C326.559 114.581 329.058 111.332 331.266 107.895L323.101 96.6887C325.621 91.8772 327.496 86.6699 328.6 81.171L341.993 77.6092ZM271.403 97.501C256.011 97.501 243.534 85.0244 243.534 69.6317C243.534 54.239 256.011 41.7624 271.403 41.7624C286.796 41.7624 299.273 54.239 299.273 69.6317C299.273 85.0244 286.796 97.501 271.403 97.501Z" fill="#457FFF"/>
<path d="M309.416 101.417C309.187 101.417 308.937 101.334 308.75 101.167C308.312 100.792 308.25 100.147 308.625 99.7091C315.623 91.2942 319.477 80.6088 319.477 69.6319C319.477 64.383 318.623 59.2173 316.915 54.3017C316.727 53.7601 317.019 53.1561 317.56 52.9686C318.102 52.7811 318.706 53.0728 318.893 53.6143C320.664 58.7591 321.559 64.133 321.559 69.6319C321.559 81.0879 317.539 92.2315 310.228 101.042C309.999 101.271 309.708 101.417 309.416 101.417Z" fill="white"/>
<path d="M305.375 35.6385C305.125 35.6385 304.854 35.5343 304.667 35.3469C299.96 30.9103 294.502 27.5568 288.462 25.3697C287.92 25.1822 287.65 24.5782 287.837 24.0366C288.025 23.4951 288.629 23.2243 289.17 23.4118C295.481 25.703 301.168 29.2023 306.083 33.8263C306.5 34.2221 306.521 34.8886 306.125 35.3052C305.938 35.5343 305.646 35.6385 305.375 35.6385Z" fill="white"/>
<path d="M260.593 24.0369C260.135 24.0369 259.697 23.7244 259.593 23.2454C259.447 22.683 259.781 22.1206 260.343 21.9748C264.259 20.975 268.321 20.4751 272.403 20.4751C272.986 20.4751 273.445 20.9333 273.445 21.5166C273.445 22.0998 272.986 22.558 272.403 22.558C268.487 22.558 264.613 23.0371 260.843 23.9952C260.76 24.016 260.676 24.0369 260.593 24.0369Z" fill="white"/>
<path d="M118.038 254.032C118.247 252.22 118.351 250.366 118.351 248.512C118.351 247.533 118.309 246.554 118.268 245.575L109.144 242.618C108.582 238.764 107.478 235.098 105.916 231.682L111.977 224.225C110.582 221.768 108.978 219.435 107.187 217.248L98.0634 220.226C95.3972 217.498 92.3562 215.165 89.0235 213.269L89.5443 203.667C87.0031 202.501 84.337 201.563 81.5667 200.834L75.922 208.624C73.735 208.25 71.4646 208.062 69.1734 208.062C67.6112 208.062 66.049 208.145 64.5285 208.333L59.3004 200.272C56.5093 200.834 53.8015 201.647 51.1979 202.667L51.2187 212.27C47.7819 213.978 44.6159 216.165 41.8248 218.727L32.8683 215.269C30.9728 217.352 29.244 219.601 27.7027 221.976L33.3473 229.745C31.5977 233.078 30.3063 236.702 29.5356 240.493L20.2667 242.951C20.0584 244.763 19.9542 246.617 19.9542 248.471C19.9542 249.449 19.9959 250.428 20.0375 251.407L29.1607 254.365C29.7231 258.219 30.827 261.884 32.3892 265.3L26.3279 272.757C27.7235 275.215 29.3273 277.548 31.1186 279.735L40.2418 276.756C42.9079 279.485 45.9489 281.818 49.2816 283.713L48.7609 293.316C51.302 294.482 53.9681 295.419 56.7384 296.148L62.3831 288.358C64.591 288.733 66.8405 288.921 69.1317 288.921C70.6939 288.921 72.2561 288.837 73.7766 288.65L79.0047 296.711C81.7958 296.148 84.5036 295.336 87.1073 294.315L87.0864 284.713C90.5232 283.005 93.6892 280.818 96.4803 278.256L105.437 281.714C107.332 279.631 109.061 277.381 110.602 275.007L104.958 267.238C106.707 263.905 107.999 260.281 108.77 256.49L118.038 254.032ZM69.1526 267.8C58.4881 267.8 49.844 259.156 49.844 248.491C49.844 237.827 58.4881 229.183 69.1526 229.183C79.8171 229.183 88.4611 237.827 88.4611 248.491C88.4611 259.156 79.8171 267.8 69.1526 267.8Z" fill="#457FFF"/>
<path d="M95.4804 270.842C95.2513 270.842 95.0014 270.758 94.8139 270.592C94.3765 270.217 94.314 269.571 94.6889 269.134C99.5005 263.364 102.146 256.032 102.146 248.513C102.146 244.909 101.563 241.368 100.396 237.994C100.209 237.453 100.5 236.849 101.042 236.661C101.583 236.474 102.187 236.765 102.375 237.307C103.604 240.91 104.249 244.659 104.249 248.492C104.249 256.511 101.438 264.301 96.3136 270.446C96.0637 270.717 95.772 270.842 95.4804 270.842Z" fill="white"/>
<path d="M92.6893 225.288C92.4393 225.288 92.1685 225.184 91.9811 224.997C88.7526 221.956 85.0242 219.664 80.8792 218.144C80.3376 217.956 80.0668 217.352 80.2543 216.811C80.4418 216.269 81.0458 215.998 81.5874 216.186C86.0031 217.79 89.9815 220.248 93.4183 223.476C93.8349 223.872 93.8557 224.538 93.4599 224.955C93.2308 225.184 92.9601 225.288 92.6893 225.288Z" fill="white"/>
<path d="M61.6749 217.249C61.2166 217.249 60.7792 216.936 60.6751 216.457C60.5293 215.895 60.8625 215.332 61.4249 215.186C64.1744 214.499 67.0071 214.145 69.8607 214.145C70.4439 214.145 70.9022 214.603 70.9022 215.186C70.9022 215.77 70.4439 216.228 69.8607 216.228C67.1738 216.228 64.5076 216.561 61.9457 217.207C61.8415 217.228 61.7582 217.249 61.6749 217.249Z" fill="white"/>
<path d="M384.547 130.661C384.547 130.119 384.526 129.578 384.505 129.057L391.337 123.558C390.796 120.809 389.963 118.184 388.859 115.705L380.027 115.039C378.028 111.873 375.424 109.123 372.383 106.936L372.362 98.1257C369.904 96.8343 367.28 95.8137 364.53 95.1055L358.49 101.604C357.448 101.5 356.386 101.438 355.324 101.438C352.658 101.438 350.096 101.792 347.638 102.458L340.723 96.9801C338.119 98.1049 335.661 99.5421 333.412 101.229L334.724 109.957C332.141 112.519 330.037 115.58 328.558 118.955L319.956 120.954C319.227 123.621 318.79 126.391 318.685 129.244L326.267 133.639C326.663 137.472 327.788 141.096 329.517 144.366L325.726 152.323C327.35 154.552 329.225 156.593 331.308 158.384L339.431 155.197C342.618 157.28 346.263 158.759 350.158 159.447L353.991 167.341C354.449 167.362 354.907 167.362 355.365 167.362C357.657 167.362 359.906 167.153 362.093 166.737L364.676 158.384C368.446 157.114 371.862 155.114 374.757 152.531L383.297 154.448C385.047 152.386 386.588 150.136 387.859 147.72L382.902 140.45C383.943 137.389 384.547 134.098 384.547 130.661ZM354.991 143.554C348.2 143.554 342.681 138.034 342.681 131.244C342.681 124.454 348.2 118.934 354.991 118.934C361.781 118.934 367.301 124.454 367.301 131.244C367.301 138.034 361.802 143.554 354.991 143.554Z" fill="#457FFF"/>
<path d="M90.5441 64.7992H0V213.227H90.5441V64.7992Z" fill="#457FFF"/>
<path d="M87.5863 67.8195H4.7489V207.562H87.5863V67.8195Z" fill="white"/>
<path d="M56.9258 142.054H35.6801C34.3262 142.054 33.2014 140.951 33.2014 139.576C33.2014 138.222 34.3054 137.097 35.6801 137.097H56.9258C58.2797 137.097 59.4044 138.201 59.4044 139.576C59.3836 140.93 58.2797 142.054 56.9258 142.054Z" fill="#457FFF"/>
<path d="M60.7998 149.636H31.7641C30.4102 149.636 29.2854 148.532 29.2854 147.158C29.2854 145.804 30.3893 144.679 31.7641 144.679H60.7998C62.1537 144.679 63.2785 145.783 63.2785 147.158C63.2785 148.532 62.1746 149.636 60.7998 149.636Z" fill="#457FFF"/>
<path d="M81.6083 176.943H10.9768C10.1853 176.943 9.53955 176.298 9.53955 175.506C9.53955 174.715 10.1853 174.069 10.9768 174.069H81.6083C82.3998 174.069 83.0455 174.715 83.0455 175.506C83.0455 176.298 82.3998 176.943 81.6083 176.943Z" fill="#457FFF"/>
<path d="M81.6083 183.608H10.9768C10.1853 183.608 9.53955 182.963 9.53955 182.171C9.53955 181.38 10.1853 180.734 10.9768 180.734H81.6083C82.3998 180.734 83.0455 181.38 83.0455 182.171C83.0455 182.963 82.3998 183.608 81.6083 183.608Z" fill="#457FFF"/>
<path d="M81.6083 190.274H10.9768C10.1853 190.274 9.53955 189.628 9.53955 188.837C9.53955 188.045 10.1853 187.399 10.9768 187.399H81.6083C82.3998 187.399 83.0455 188.045 83.0455 188.837C83.0455 189.628 82.3998 190.274 81.6083 190.274Z" fill="#457FFF"/>
<path d="M28.2025 156.093L29.6605 159.072L32.9515 159.551L30.577 161.884L31.1394 165.154L28.2025 163.613L25.2447 165.154L25.8071 161.884L23.4326 159.551L26.7236 159.072L28.2025 156.093Z" fill="#457FFF"/>
<path d="M40.2624 156.093L41.7413 159.072L45.0323 159.551L42.6369 161.884L43.1993 165.154L40.2624 163.613L37.3047 165.154L37.8671 161.884L35.4926 159.551L38.7835 159.072L40.2624 156.093Z" fill="#457FFF"/>
<path d="M52.3223 156.093L53.8012 159.072L57.0922 159.551L54.6969 161.884L55.2593 165.154L52.3223 163.613L49.3854 165.154L49.9478 161.884L47.5525 159.551L50.8435 159.072L52.3223 156.093Z" fill="#457FFF"/>
<path d="M292.42 64.7992H201.876V213.227H292.42V64.7992Z" fill="#457FFF"/>
<path d="M289.462 67.8195H206.625V207.562H289.462V67.8195Z" fill="white"/>
<path d="M258.802 142.054H237.556C236.202 142.054 235.078 140.951 235.078 139.576C235.078 138.222 236.181 137.097 237.556 137.097H258.802C260.156 137.097 261.281 138.201 261.281 139.576C261.26 140.93 260.156 142.054 258.802 142.054Z" fill="#457FFF"/>
<path d="M262.697 149.636H233.661C232.307 149.636 231.182 148.532 231.182 147.158C231.182 145.804 232.286 144.679 233.661 144.679H262.697C264.051 144.679 265.175 145.783 265.175 147.158C265.155 148.532 264.051 149.636 262.697 149.636Z" fill="#457FFF"/>
<path d="M283.484 176.943H212.853C212.061 176.943 211.416 176.298 211.416 175.506C211.416 174.715 212.061 174.069 212.853 174.069H283.484C284.276 174.069 284.922 174.715 284.922 175.506C284.922 176.298 284.276 176.943 283.484 176.943Z" fill="#457FFF"/>
<path d="M283.484 183.608H212.853C212.061 183.608 211.416 182.963 211.416 182.171C211.416 181.38 212.061 180.734 212.853 180.734H283.484C284.276 180.734 284.922 181.38 284.922 182.171C284.922 182.963 284.276 183.608 283.484 183.608Z" fill="#457FFF"/>
<path d="M283.484 190.274H212.853C212.061 190.274 211.416 189.628 211.416 188.837C211.416 188.045 212.061 187.399 212.853 187.399H283.484C284.276 187.399 284.922 188.045 284.922 188.837C284.922 189.628 284.276 190.274 283.484 190.274Z" fill="#457FFF"/>
<path d="M242.139 156.093L243.617 159.072L246.908 159.551L244.513 161.884L245.075 165.154L242.139 163.613L239.202 165.154L239.764 161.884L237.369 159.551L240.66 159.072L242.139 156.093Z" fill="#457FFF"/>
<path d="M254.199 156.093L255.678 159.072L258.969 159.551L256.594 161.884L257.156 165.154L254.199 163.613L251.262 165.154L251.824 161.884L249.429 159.551L252.72 159.072L254.199 156.093Z" fill="#457FFF"/>
<path opacity="0.2" d="M212.061 211.728H69.1527L79.2548 65.3408H217.206L212.061 211.728Z" fill="#457FFF"/>
<path d="M207.854 37.6591H84.1704V240.389H207.854V37.6591Z" fill="#457FFF"/>
<path d="M203.792 41.7832H90.6483V232.64H203.792V41.7832Z" fill="white"/>
<path d="M173.777 143.158H120.975C119.122 143.158 117.601 141.637 117.601 139.783C117.601 137.93 119.122 136.409 120.975 136.409H173.777C175.631 136.409 177.151 137.93 177.151 139.783C177.151 141.637 175.652 143.158 173.777 143.158Z" fill="#457FFF"/>
<path d="M167.216 153.531H127.557C125.704 153.531 124.183 152.01 124.183 150.157C124.183 148.303 125.704 146.782 127.557 146.782H167.216C169.07 146.782 170.59 148.303 170.59 150.157C170.59 152.01 169.07 153.531 167.216 153.531Z" fill="#457FFF"/>
<path d="M195.627 190.836H99.1464C98.0633 190.836 97.1885 189.961 97.1885 188.878C97.1885 187.795 98.0633 186.92 99.1464 186.92H195.606C196.689 186.92 197.564 187.795 197.564 188.878C197.564 189.961 196.689 190.836 195.627 190.836Z" fill="#457FFF"/>
<path d="M195.627 199.938H99.1464C98.0633 199.938 97.1885 199.063 97.1885 197.98C97.1885 196.897 98.0633 196.022 99.1464 196.022H195.606C196.689 196.022 197.564 196.897 197.564 197.98C197.564 199.063 196.689 199.938 195.627 199.938Z" fill="#457FFF"/>
<path d="M195.627 209.04H99.1464C98.0633 209.04 97.1885 208.166 97.1885 207.082C97.1885 205.999 98.0633 205.125 99.1464 205.125H195.606C196.689 205.125 197.564 205.999 197.564 207.082C197.564 208.166 196.689 209.04 195.627 209.04Z" fill="#457FFF"/>
<path d="M114.31 162.341L116.31 166.403L120.809 167.069L117.559 170.235L118.33 174.714L114.31 172.61L110.29 174.714L111.04 170.235L107.79 167.069L112.289 166.403L114.31 162.341Z" fill="#457FFF"/>
<path d="M130.786 162.341L132.785 166.402L137.284 167.069L134.035 170.235L134.806 174.713L130.786 172.61L126.766 174.713L127.516 170.235L124.266 167.069L128.765 166.402L130.786 162.341Z" fill="#457FFF"/>
<path d="M147.262 162.341L149.261 166.402L153.76 167.069L150.511 170.235L151.282 174.713L147.262 172.61L143.242 174.713L143.992 170.235L140.742 167.069L145.241 166.402L147.262 162.341Z" fill="#457FFF"/>
<path d="M163.738 162.341L165.737 166.402L170.236 167.069L166.987 170.235L167.758 174.713L163.738 172.61L159.718 174.713L160.488 170.235L157.218 167.069L161.717 166.402L163.738 162.341Z" fill="#457FFF"/>
<path d="M180.463 162.341L182.484 166.402L186.983 167.069L183.734 170.235L184.504 174.713L180.463 172.61L176.443 174.713L177.214 170.235L173.965 167.069L178.464 166.402L180.463 162.341Z" fill="#457FFF"/>
<path d="M406.48 233.848H247.762C246.804 233.848 246.033 233.078 246.033 232.12V229.537C246.033 228.579 246.804 227.808 247.762 227.808H406.48C407.438 227.808 408.209 228.579 408.209 229.537V232.12C408.209 233.078 407.438 233.848 406.48 233.848Z" fill="#407BFF"/>
<path d="M447.347 146.825C449.492 154.406 444.243 162.217 438.453 163.863C432.662 165.508 428.538 160.343 426.393 152.761C424.247 145.179 427.184 137.701 432.975 136.056C438.765 134.431 445.202 139.243 447.347 146.825Z" fill="#FFB27D"/>
<path d="M414.916 293.732C414.916 293.732 429.746 316.769 431.746 317.769C433.745 318.769 438.765 319.019 436.87 322.768C434.995 326.517 434.245 341.285 432.496 342.035C430.746 342.785 415.728 344.535 417.978 342.035C420.227 339.536 421.623 340.785 422.748 336.286C423.893 331.787 425.476 323.268 423.352 321.518C421.227 319.769 408.209 304.001 408.209 304.001L414.916 293.732Z" fill="#FFB27D"/>
<path d="M340.285 303.626C340.285 303.626 322.268 333.329 318.914 335.995C315.582 338.661 304.563 342.681 313.582 343.348C322.601 344.014 326.934 340.348 332.599 338.682C338.265 337.016 345.284 336.016 342.618 331.662C339.952 327.33 341.056 317.853 346.805 311.833C352.574 305.834 340.285 303.626 340.285 303.626Z" fill="#FFB27D"/>
<path d="M432.266 234.745C432.266 234.745 387.65 233.578 369.946 248.096C359.594 263.78 334.557 310.063 332.62 315.166C333.953 316.499 341.472 318.915 344.805 318.582C354.657 306.834 367.675 296.69 372.841 287.484C379.215 276.132 381.193 270.466 391.525 269.467C401.877 268.467 425.247 265.134 432.246 265.134C439.244 265.134 432.266 234.745 432.266 234.745Z" fill="#2A4E96"/>
<path d="M471.175 343.431H468.842L452.054 273.445H457.199L471.175 343.431Z" fill="#407BFF"/>
<path d="M401.106 343.431H403.439L422.685 270.966H417.54L401.106 343.431Z" fill="#407BFF"/>
<path d="M457.678 231.683L431.746 236.161C431.746 236.161 397.274 236.473 381.506 239.41C367.176 242.076 365.051 258.365 381.506 280.798C390.858 293.545 398.752 303.71 414.916 315.166C419.019 312.145 420.602 311 421.727 303.751C420.561 302.147 417.54 292.108 416.582 290.15C407.647 271.466 395.711 264.676 395.545 262.843C397.544 259.594 448.597 279.798 458.74 267.904C468.447 256.553 457.678 231.683 457.678 231.683Z" fill="#2A4E96"/>
<path d="M458.761 172.945C451.929 171.987 444.972 173.278 438.453 178.006C432.766 183.797 426.33 193.357 426.726 209.125C427.226 229.142 423.622 230.433 427.372 235.953C443.035 242.41 469.821 270.217 463.51 240.41C458.949 218.831 473.529 202.772 461.761 178.839C460.823 176.881 459.636 175.007 458.761 172.945Z" fill="#F99746"/>
<path d="M426.726 216.664C426.414 227.1 424.956 230.183 426.08 233.453C432.475 234.098 444.139 236.66 447.055 240.743C450.388 245.409 453.742 246.075 452.179 242.638C450.617 239.181 446.514 234.286 452.846 217.498C459.178 200.689 462.198 189.357 455.97 177.672L426.726 216.664Z" fill="#F99746"/>
<path d="M458.761 172.945C454.554 162.988 453.512 151.803 453.512 151.803L442.494 155.052C442.494 155.052 448.742 169.07 442.743 174.069C441.473 175.132 439.994 176.423 438.453 177.985C444.972 173.299 451.929 171.986 458.761 172.945Z" fill="#FFB27D"/>
<path d="M453.845 154.448C453.2 153.865 452.367 153.136 451.513 152.386L442.535 155.031C442.535 155.052 442.514 155.073 442.514 155.073C442.723 155.573 445.014 160.905 445.326 166.05C448.013 164.425 450.929 161.78 454.283 157.156C454.116 156.135 453.97 155.219 453.845 154.448Z" fill="#E38540"/>
<path d="M451.013 176.09C439.661 180.047 440.931 192.003 430.496 209.624C425.101 218.748 420.081 218.602 420.081 218.602C420.081 218.602 407.417 218.706 392.087 216.831C382.485 215.665 381.881 218.518 388.546 220.893C402.002 225.704 415.978 230.891 427.247 229.641C438.515 228.391 457.782 199.647 458.782 192.17C460.136 181.838 456.72 174.09 451.013 176.09Z" fill="#FFB27D"/>
<path d="M445.181 276.361C444.472 276.361 443.743 276.361 443.014 276.34C433.766 276.111 427.476 274.841 422.414 273.799C416.52 272.591 413.25 271.945 409.479 273.737C408.021 274.424 406.293 273.82 405.584 272.362C404.876 270.904 405.501 269.175 406.959 268.467C412.5 265.822 417.145 266.759 423.581 268.071C428.413 269.05 434.433 270.279 443.16 270.487C452.929 270.737 458.886 269.279 461.906 265.926C464.593 262.947 465.385 257.927 464.385 250.137C464.052 247.471 463.698 245.263 463.406 243.305C462.552 237.786 461.99 234.141 462.698 228.517C463.344 223.289 465.072 216.332 469.092 202.814C469.551 201.272 471.175 200.397 472.717 200.856C474.258 201.314 475.133 202.939 474.675 204.48C467.197 229.641 467.572 232.099 469.176 242.41C469.488 244.388 469.821 246.659 470.175 249.387C471.404 258.99 470.155 265.468 466.239 269.821C462.198 274.32 455.658 276.361 445.181 276.361Z" fill="#407BFF"/>
<path d="M341.514 328.663C329.558 334.516 323.122 337.869 319.289 337.536C318.394 337.453 317.644 337.369 316.998 337.265C312.728 339.786 305.917 342.764 313.582 343.327C322.601 343.993 326.934 340.327 332.599 338.661C338.265 336.994 345.284 335.995 342.618 331.641C342.097 330.829 341.722 329.808 341.514 328.663Z" fill="#233862"/>
<path d="M433.037 318.248C432.746 327.725 431.433 337.098 425.643 338.869C424.102 339.348 422.706 339.41 421.477 339.244C420.561 340.369 419.457 340.389 417.957 342.035C415.707 344.534 430.725 342.785 432.475 342.035C434.224 341.285 434.974 326.517 436.849 322.768C438.411 319.685 435.308 318.977 433.037 318.248Z" fill="#233862"/>
<path d="M386.984 228.642H348.992C347.867 228.642 346.825 227.975 346.346 226.955L330.995 193.899C330.308 192.441 330.954 190.712 332.412 190.025C333.87 189.337 335.598 189.983 336.286 191.441L350.866 222.789H387.005C388.608 222.789 389.921 224.101 389.921 225.705C389.921 227.309 388.588 228.642 386.984 228.642Z" fill="#75A1DE"/>
<path d="M394.92 217.165C387.234 217.06 379.631 212.478 375.84 213.145C372.049 213.811 359.698 222.372 361.26 222.705C362.822 223.038 372.612 217.956 372.945 217.894C373.278 217.81 375.403 221.414 380.631 222.726C385.859 224.038 380.673 218.81 396.878 223.705C407.417 226.892 394.92 217.165 394.92 217.165Z" fill="#FFB27D"/>
<path d="M457.636 163.863L458.761 172.945C458.761 172.945 448.825 173.528 443.889 176.319C438.952 179.11 431.641 187.129 431.641 187.129L437.599 176.86L438.452 170.299L457.636 163.863Z" fill="#F99746"/>
<path d="M453.408 174.986C446.035 173.611 442.619 180.214 437.828 191.003C433.037 201.793 424.872 214.894 423.247 216.602C421.623 218.29 395.878 216.602 395.878 216.602C395.878 216.602 395.107 224.059 395.878 224.955C396.649 225.851 401.106 225.726 401.106 225.726C401.106 225.726 402.877 227.142 404.564 228.267C406.23 229.391 420.373 231.516 426.934 231.162C433.495 230.808 439.515 230.266 440.39 229.266C441.285 228.267 459.199 200.668 460.302 190.774C461.406 180.88 457.178 175.694 453.408 174.986Z" fill="#F99746"/>
<path d="M431.642 129.599C417.686 130.266 419.873 151.261 419.873 151.261C419.873 151.261 423.497 152.386 431.1 151.136C430.517 148.887 430.767 143.117 430.767 143.117C430.767 143.117 431.642 147.783 432.766 150.636C434.37 151.365 436.182 150.72 439.286 149.97C440.869 156.635 445.347 159.468 448.409 160.426C451.804 161.488 455.387 162.759 459.386 160.759C463.385 158.76 461.198 138.285 459.053 134.161C455.866 127.974 450.554 122.455 441.369 125.371C436.786 126.829 431.642 129.599 431.642 129.599Z" fill="#A9453D"/>
<path d="M455.907 154.532L461.615 162.863C461.615 162.863 455.283 178.672 473.675 185.817C488.088 191.42 486.38 201.293 479.882 211.228C473.383 221.164 483.777 229.829 483.777 229.829C483.777 229.829 485.36 218.831 499.357 216.748C518.436 213.915 523.852 188.295 509.584 175.486C497.795 164.884 494.212 173.673 486.214 164.155C478.236 154.636 463.156 161.072 463.156 161.072L457.636 153.011L455.907 154.532Z" fill="#A9453D"/>
<path d="M516.145 201.313C516.062 201.313 515.979 201.292 515.895 201.251C515.645 201.126 515.562 200.813 515.687 200.563C520.478 191.794 516.562 181.172 514.604 178.297C514.396 177.985 514.187 177.693 513.979 177.36C512.042 174.34 509.647 170.59 496.795 168.278C493.691 167.716 491.192 165.883 488.547 163.925C483.069 159.905 476.861 155.343 463.364 161.551C463.114 161.676 462.802 161.551 462.698 161.301C462.573 161.051 462.698 160.738 462.948 160.634C476.986 154.177 483.444 158.926 489.151 163.113C491.713 164.987 494.129 166.758 496.982 167.279C510.271 169.674 512.813 173.631 514.854 176.818C515.062 177.131 515.25 177.443 515.458 177.735C517.52 180.755 521.623 191.878 516.603 201.063C516.499 201.209 516.333 201.313 516.145 201.313Z" fill="#A9453D"/>
<path d="M452.867 163.071C451.95 163.071 450.971 162.988 449.909 162.842C445.035 162.113 438.474 159.343 437.953 143.763C437.953 143.492 438.161 143.242 438.453 143.242C438.744 143.242 438.973 143.45 438.973 143.742C439.182 150.157 440.452 154.906 442.764 157.864C444.514 160.114 446.826 161.364 450.055 161.863C454.575 162.53 457.574 161.697 458.949 159.385C459.094 159.135 459.407 159.072 459.636 159.218C459.886 159.364 459.948 159.676 459.803 159.905C458.553 161.988 456.22 163.071 452.867 163.071Z" fill="#A9453D"/>
<path d="M263.051 343.43H266.8L281.401 231.932H273.153L263.051 343.43Z" fill="#407BFF"/>
<path d="M390.296 343.43H386.546L371.966 231.932H380.214L390.296 343.43Z" fill="#407BFF"/>
</svg>
