<svg width="121" height="104" viewBox="0 0 121 104" fill="none" xmlns="http://www.w3.org/2000/svg">
<path d="M27.2266 21.25H19.9883C19.6216 21.25 19.3242 20.9527 19.3242 20.5859C19.3242 20.2192 19.6216 19.9219 19.9883 19.9219H27.2266C30.1782 19.9219 32.6719 17.489 32.6719 14.6094C32.6719 10.8799 28.8383 8.3986 25.4491 9.60128C25.2412 9.67506 25.0101 9.64073 24.8326 9.50964C24.655 9.37855 24.5542 9.16791 24.5635 8.94738C24.7394 4.78869 21.1013 1.32812 17 1.32812C12.8679 1.32812 9.25929 4.76518 9.43646 8.94738C9.44582 9.16785 9.34495 9.37862 9.16745 9.50971C8.98994 9.64079 8.75898 9.67513 8.55087 9.60135C5.13692 8.38963 1.32812 10.9029 1.32812 14.6094C1.32812 17.489 3.82181 19.9219 6.77344 19.9219H14.0117C14.3784 19.9219 14.6758 20.2192 14.6758 20.5859C14.6758 20.9527 14.3784 21.25 14.0117 21.25H6.77344C3.08836 21.25 0 18.2672 0 14.6094C0 10.3034 4.08126 7.27175 8.11989 8.10535C8.41918 3.56754 12.4299 0 17 0C21.5328 0 25.5741 3.58009 25.8793 8.10555C29.9154 7.27202 34 10.301 34 14.6094C34 18.2649 30.9136 21.25 27.2266 21.25Z" fill="#006AFF"/>
<path d="M60.6334 99.7249V100.225H61.1334H111.644H112.144V99.7249V12.4775V11.9775H111.644H61.1334H60.6334V12.4775V99.7249ZM112.795 101.522H59.9867C59.6296 101.522 59.34 101.232 59.34 100.875V11.3308C59.34 10.9737 59.6296 10.6841 59.9867 10.6841H112.795C113.152 10.6841 113.441 10.9737 113.441 11.3308V100.872C113.441 101.233 113.151 101.522 112.795 101.522Z" fill="#006AFF" stroke="#006AFF"/>
<path d="M118.032 11.3308L118.032 11.3336C118.034 11.6871 117.747 11.9776 117.385 11.9776H55.3932C55.0361 11.9776 54.7465 11.688 54.7465 11.3308V2.14673C54.7465 1.7896 55.0361 1.5 55.3932 1.5H117.385C117.742 1.5 118.032 1.7896 118.032 2.14673L118.032 11.3308ZM56.0433 10.1807V10.6807H56.5433H116.238H116.738V10.1807V3.29346V2.79346H116.238H56.5433H56.0433V3.29346V10.1807Z" fill="#006AFF" stroke="#006AFF"/>
<path d="M71.4649 18.2183H66.8745V29.6993H71.4649V18.2183Z" fill="#006AFF"/>
<path d="M78.3511 18.2183H73.7607V29.6993H78.3511V18.2183Z" fill="#006AFF"/>
<path d="M85.2422 18.2183H80.6519V29.6993H85.2422V18.2183Z" fill="#006AFF"/>
<path d="M92.1299 18.2183H87.5396V29.6993H92.1299V18.2183Z" fill="#006AFF"/>
<path d="M99.0166 18.2183H94.4263V29.6993H99.0166V18.2183Z" fill="#006AFF"/>
<path d="M105.908 18.2183H101.318V29.6993H105.908V18.2183Z" fill="#006AFF"/>
<path d="M71.4649 31.9923H66.8745V43.4733H71.4649V31.9923Z" fill="#006AFF"/>
<path d="M78.3511 31.9923H73.7607V43.4733H78.3511V31.9923Z" fill="#006AFF"/>
<path d="M85.2422 31.9923H80.6519V43.4733H85.2422V31.9923Z" fill="#006AFF"/>
<path d="M92.1299 31.9923H87.5396V43.4733H92.1299V31.9923Z" fill="#006AFF"/>
<path d="M99.0166 31.9923H94.4263V43.4733H99.0166V31.9923Z" fill="#006AFF"/>
<path d="M105.908 31.9923H101.318V43.4733H105.908V31.9923Z" fill="#006AFF"/>
<path d="M71.4649 45.7704H66.8745V57.2514H71.4649V45.7704Z" fill="#006AFF"/>
<path d="M78.3511 45.7704H73.7607V57.2514H78.3511V45.7704Z" fill="#006AFF"/>
<path d="M85.2422 45.7704H80.6519V57.2514H85.2422V45.7704Z" fill="#006AFF"/>
<path d="M92.1299 45.7704H87.5396V57.2514H92.1299V45.7704Z" fill="#006AFF"/>
<path d="M99.0166 45.7704H94.4263V57.2514H99.0166V45.7704Z" fill="#006AFF"/>
<path d="M105.908 45.7704H101.318V57.2514H105.908V45.7704Z" fill="#006AFF"/>
<path d="M39.9713 99.7252V100.225H40.4713H58.8396H59.3396V99.7252V40.0302V39.5302H58.8396H40.4713H39.9713V40.0302V99.7252ZM59.9863 101.522H39.3212C38.964 101.522 38.6744 101.232 38.6744 100.875V38.8834C38.6744 38.5263 38.964 38.2367 39.3212 38.2367H59.9863C60.3434 38.2367 60.633 38.5263 60.633 38.8834V100.875C60.633 101.232 60.3434 101.522 59.9863 101.522Z" fill="#006AFF" stroke="#006AFF"/>
<path d="M35.3779 37.7329V38.2329H35.8779H58.8365H59.3365V37.7329V33.1392V32.6392H58.8365H35.8779H35.3779V33.1392V37.7329ZM59.9867 39.5298H34.7312C34.3741 39.5298 34.0845 39.2402 34.0845 38.8831V31.9958C34.0845 31.6387 34.3741 31.3491 34.7312 31.3491H59.9867C60.3438 31.3491 60.6334 31.6387 60.6334 31.9958V38.8831C60.6334 39.2402 60.3438 39.5298 59.9867 39.5298Z" fill="#006AFF" stroke="#006AFF"/>
<path d="M55.3922 45.7704H50.8019V50.3642H55.3922V45.7704Z" fill="#006AFF"/>
<path d="M48.5061 45.7704H43.9158V50.3642H48.5061V45.7704Z" fill="#006AFF"/>
<path d="M55.3922 52.6575H50.8019V57.2478H55.3922V52.6575Z" fill="#006AFF"/>
<path d="M48.5061 52.6575H43.9158V57.2478H48.5061V52.6575Z" fill="#006AFF"/>
<path d="M55.3922 59.545H50.8019V64.1388H55.3922V59.545Z" fill="#006AFF"/>
<path d="M48.5061 59.545H43.9158V64.1388H48.5061V59.545Z" fill="#006AFF"/>
<path d="M55.3922 66.432H50.8019V71.0258H55.3922V66.432Z" fill="#006AFF"/>
<path d="M48.5061 66.432H43.9158V71.0258H48.5061V66.432Z" fill="#006AFF"/>
<path d="M55.3922 73.323H50.8019V77.9133H55.3922V73.323Z" fill="#006AFF"/>
<path d="M48.5061 73.323H43.9158V77.9133H48.5061V73.323Z" fill="#006AFF"/>
<path d="M55.3922 80.2101H50.8019V84.8039H55.3922V80.2101Z" fill="#006AFF"/>
<path d="M48.5061 80.2101H43.9158V84.8039H48.5061V80.2101Z" fill="#006AFF"/>
<path d="M71.4649 59.545H66.8745V71.026H71.4649V59.545Z" fill="#006AFF"/>
<path d="M78.3511 59.545H73.7607V71.026H78.3511V59.545Z" fill="#006AFF"/>
<path d="M85.2422 59.545H80.6519V71.026H85.2422V59.545Z" fill="#006AFF"/>
<path d="M92.1299 59.545H87.5396V71.026H92.1299V59.545Z" fill="#006AFF"/>
<path d="M99.0166 59.545H94.4263V71.026H99.0166V59.545Z" fill="#006AFF"/>
<path d="M105.908 59.545H101.318V71.026H105.908V59.545Z" fill="#006AFF"/>
<path d="M71.4649 73.323H66.8745V84.8006H71.4649V73.323Z" fill="#006AFF"/>
<path d="M78.3511 73.323H73.7607V84.8006H78.3511V73.323Z" fill="#006AFF"/>
<path d="M85.2422 73.323H80.6519V84.8006H85.2422V73.323Z" fill="#006AFF"/>
<path d="M92.1299 73.323H87.5396V84.8006H92.1299V73.323Z" fill="#006AFF"/>
<path d="M99.0166 73.323H94.4263V84.8006H99.0166V73.323Z" fill="#006AFF"/>
<path d="M105.908 73.323H101.318V84.8006H105.908V73.323Z" fill="#006AFF"/>
<path d="M120.034 102.734H32.9664C32.9595 102.734 32.8523 102.723 32.7185 102.486C32.5932 102.265 32.5 101.925 32.5 101.522C32.5 101.119 32.5932 100.779 32.7185 100.558C32.8523 100.32 32.9595 100.31 32.9664 100.31H120.034C120.041 100.31 120.148 100.32 120.282 100.558C120.407 100.779 120.5 101.119 120.5 101.522C120.5 101.925 120.407 102.265 120.282 102.486C120.148 102.723 120.041 102.734 120.034 102.734Z" fill="#006AFF" stroke="#006AFF"/>
<path d="M96.724 102.022H76.0588C75.4256 102.022 74.9121 101.509 74.9121 100.875V91.6912C74.9121 91.0579 75.4256 90.5444 76.0588 90.5444H96.724C97.3572 90.5444 97.8707 91.0579 97.8707 91.6912V100.875C97.8707 101.509 97.3572 102.022 96.724 102.022ZM77.209 99.7251H95.5772V92.8379H77.209V99.7251Z" fill="#006AFF"/>
</svg>
