<svg width="286" height="160" viewBox="0 0 286 160" fill="none" xmlns="http://www.w3.org/2000/svg">
<g opacity="0.34">
<g opacity="0.6">
<path opacity="0.6" d="M248.48 102.896C250.467 111.167 250.136 118.771 247.486 126.885C244.173 137.038 236.72 146.484 226.036 152.286C222.309 154.324 218.293 155.853 214.11 156.95C213.448 157.97 212.702 158.989 211.916 159.929H247.61C256.679 149.699 261.896 136.567 262.725 123.24C262.932 119.634 262.849 115.988 262.435 112.421C260.778 98.5056 254.236 85.2565 244.463 74.7122C244.339 75.4569 244.215 76.2017 244.09 76.9465C242.972 85.8053 246.409 94.3898 248.48 102.896Z" fill="#53D0F7"/>
</g>
<g opacity="0.41">
<path opacity="0.41" d="M137.915 157.891C135.803 155.147 134.189 151.659 131.952 148.875C127.19 149.777 122.511 151.11 117.749 152.286C108.018 154.638 97.9969 156.402 87.9759 156.519C76.8369 156.676 65.4494 154.638 55.7596 149.189C48.3474 145.034 41.8462 138.723 38.3264 131.197C39.3202 141.585 43.2955 151.737 50.0038 159.969H139.613C138.992 159.263 138.454 158.597 137.915 157.891Z" fill="#53D0F7"/>
</g>
<g opacity="0.41">
<path opacity="0.41" d="M152.038 15.0914C154.73 15.013 157.67 14.8562 160.858 14.621C175.683 13.5626 190.383 16.7769 204.628 21.1671C205.994 21.5983 207.361 22.0687 208.727 22.5391C202.599 16.1497 194.772 11.1715 186.159 8.34925C169.099 2.74388 148.436 4.97819 133.446 13.7978C139.616 13.837 145.827 14.2682 152.038 15.0914Z" fill="#53D0F7"/>
</g>
<g opacity="0.35">
<path opacity="0.35" d="M55.3893 149.307C65.0791 154.598 76.4252 156.637 87.5642 156.558C97.5852 156.48 107.648 154.834 117.379 152.599C122.141 151.502 126.861 150.247 131.624 149.385C129.677 146.994 127.276 145.112 123.714 144.72C109.884 143.153 95.3491 148.562 81.6013 149.463C72.3671 150.091 62.5531 148.875 55.0581 143.662C50.2132 140.252 46.6934 135.391 44.2503 130.139C39.2398 119.242 39.1156 106.737 43.3393 95.5657C46.1965 88.0396 53.1532 82.2774 55.555 74.5945C57.584 68.166 55.2237 61.4631 55.8862 54.9953C56.0105 53.6626 56.3003 52.369 56.7144 51.0755C59.0748 44.1766 70.5037 34.2202 77.5018 30.8883C94.2725 22.8919 111.789 19.0112 129.677 18.6192C119.532 17.0121 109.925 14.1114 92.906 10.7012C72.7398 6.54613 50.0062 20.5792 38.0803 36.9249C36.8795 38.6104 35.8028 40.3351 34.8918 42.1383C30.7509 50.2523 29.5915 59.6208 31.4963 68.4012C33.7324 78.7104 40.6891 86.6676 38.2046 97.6432C36.6724 104.346 36.2997 110.539 35.513 117.164C34.8918 122.338 35.9271 127.277 38.0389 131.785C41.5173 139.076 48.0185 145.23 55.3893 149.307Z" fill="#53D0F7"/>
</g>
<g opacity="0.47">
<path opacity="0.47" d="M160.857 14.621C157.669 14.8562 154.77 15.013 152.037 15.0914C161.23 16.3066 170.506 18.4233 179.74 21.2848L214.317 32.0643C230.59 37.1209 241.357 51.8595 240.322 68.0484C240.322 68.166 240.322 68.2444 240.28 68.362C239.618 77.7304 236.346 86.9421 230.88 94.625C225.953 101.602 219.12 109.403 217.422 117.987C216.056 124.808 218.996 131.707 219.369 138.645C219.7 145.23 217.629 151.502 214.027 156.911C218.209 155.814 222.226 154.285 225.953 152.247C236.595 146.445 244.09 136.998 247.402 126.846C250.053 118.732 250.384 111.127 248.396 102.857C246.367 94.3506 242.93 85.7661 244.007 76.9073C244.09 76.1625 244.214 75.4177 244.38 74.673C245.415 69.2636 247.692 64.011 247.195 58.5624C246.823 54.4466 244.918 50.566 242.558 47.1165C234.773 35.553 222.267 27.4389 208.644 22.5391C207.277 22.0687 205.911 21.5983 204.544 21.1672C190.382 16.7769 175.682 13.5627 160.857 14.621Z" fill="#53D0F7"/>
</g>
<g opacity="0.7">
<path opacity="0.7" d="M56.5892 47.7045C56.1337 49.0372 55.8853 50.4092 55.7611 51.7811C55.1399 58.484 57.5002 65.3829 55.5126 72.0075C53.1109 79.9647 46.1956 85.8837 43.3797 93.6842C39.1974 105.209 39.4045 118.105 44.4564 129.355C46.8995 134.764 50.4607 139.781 55.3056 143.27C62.8006 148.64 72.6146 149.816 81.8488 149.111C95.5966 148.092 110.09 142.447 123.92 144.015C127.482 144.407 129.925 146.328 131.871 148.797C134.107 151.58 135.722 155.069 137.834 157.813C138.372 158.518 138.952 159.224 139.532 159.89H211.832C212.619 158.91 213.364 157.93 214.027 156.911C217.629 151.502 219.7 145.23 219.368 138.645C218.996 131.707 216.056 124.808 217.422 117.987C219.12 109.442 225.952 101.602 230.88 94.6249C236.346 86.9029 239.617 77.7304 240.28 68.362C240.28 68.2444 240.28 68.166 240.321 68.0484C241.315 51.8595 230.549 37.1209 214.317 32.0643L179.74 21.2847C170.464 18.3841 161.23 16.3065 152.037 15.0914C145.826 14.2682 139.615 13.7979 133.445 13.7979C132.078 13.7979 130.753 13.7979 129.386 13.837C111.539 14.3466 94.0231 18.4233 77.2938 26.7333C70.2957 30.2612 58.9496 40.6096 56.5892 47.7045Z" fill="#53D0F7"/>
</g>
<g opacity="0.35">
<path opacity="0.35" d="M120.483 10.662C123.593 10.662 126.115 8.2752 126.115 5.33098C126.115 2.38676 123.593 0 120.483 0C117.373 0 114.851 2.38676 114.851 5.33098C114.851 8.2752 117.373 10.662 120.483 10.662Z" fill="#53D0F7"/>
</g>
<g opacity="0.35">
<path opacity="0.35" d="M272.539 80.6703C279.56 80.6703 285.251 75.2826 285.251 68.6364C285.251 61.9903 279.56 56.6025 272.539 56.6025C265.518 56.6025 259.826 61.9903 259.826 68.6364C259.826 75.2826 265.518 80.6703 272.539 80.6703Z" fill="#53D0F7"/>
</g>
<g opacity="0.35">
<path opacity="0.35" d="M26.0252 100.94C31.4258 96.6929 32.1668 89.1058 27.6804 83.9936C23.194 78.8814 15.1791 78.1799 9.77853 82.4268C4.378 86.6737 3.63695 94.2607 8.12335 99.3729C12.6098 104.485 20.6247 105.187 26.0252 100.94Z" fill="#53D0F7"/>
</g>
<g opacity="0.35">
<path opacity="0.35" d="M219.741 20.1872C221.867 20.1872 223.592 18.555 223.592 16.5417C223.592 14.5284 221.867 12.8962 219.741 12.8962C217.614 12.8962 215.89 14.5284 215.89 16.5417C215.89 18.555 217.614 20.1872 219.741 20.1872Z" fill="#53D0F7"/>
</g>
</g>
<path d="M58.3906 57.5938C58.0239 57.5938 57.7266 57.2964 57.7266 56.9297C57.7266 56.5629 58.0239 56.2656 58.3906 56.2656C58.7574 56.2656 59.0547 56.5629 59.0547 56.9297C59.0547 57.2964 58.7574 57.5938 58.3906 57.5938Z" fill="#006AFF"/>
<path d="M109.227 49.25H101.988C101.622 49.25 101.324 48.9527 101.324 48.5859C101.324 48.2192 101.622 47.9219 101.988 47.9219H109.227C112.178 47.9219 114.672 45.489 114.672 42.6094C114.672 38.8799 110.838 36.3986 107.449 37.6013C107.241 37.6751 107.01 37.6407 106.833 37.5096C106.655 37.3786 106.554 37.1679 106.564 36.9474C106.739 32.7887 103.101 29.3281 99 29.3281C94.8679 29.3281 91.2593 32.7652 91.4365 36.9474C91.4458 37.1678 91.345 37.3786 91.1674 37.5097C90.9899 37.6408 90.759 37.6751 90.5509 37.6013C87.1369 36.3896 83.3281 38.9029 83.3281 42.6094C83.3281 45.489 85.8218 47.9219 88.7734 47.9219H96.0117C96.3784 47.9219 96.6758 48.2192 96.6758 48.5859C96.6758 48.9527 96.3784 49.25 96.0117 49.25H88.7734C85.0884 49.25 82 46.2672 82 42.6094C82 38.3034 86.0813 35.2718 90.1199 36.1053C90.4192 31.5675 94.4299 28 99 28C103.533 28 107.574 31.5801 107.879 36.1055C111.915 35.272 116 38.301 116 42.6094C116 46.2649 112.914 49.25 109.227 49.25Z" fill="#006AFF"/>
<path d="M142.633 127.725V128.225H143.133H193.644H194.144V127.725V40.4775V39.9775H193.644H143.133H142.633V40.4775V127.725ZM194.795 129.522H141.987C141.63 129.522 141.34 129.232 141.34 128.875V39.3308C141.34 38.9737 141.63 38.6841 141.987 38.6841H194.795C195.152 38.6841 195.441 38.9737 195.441 39.3308V128.872C195.441 129.233 195.151 129.522 194.795 129.522Z" fill="#006AFF" stroke="#006AFF"/>
<path d="M200.032 39.3308L200.032 39.3336C200.034 39.6871 199.747 39.9776 199.385 39.9776H137.393C137.036 39.9776 136.746 39.688 136.746 39.3308V30.1467C136.746 29.7896 137.036 29.5 137.393 29.5H199.385C199.742 29.5 200.032 29.7896 200.032 30.1467L200.032 39.3308ZM138.043 38.1807V38.6807H138.543H198.238H198.738V38.1807V31.2935V30.7935H198.238H138.543H138.043V31.2935V38.1807Z" fill="#006AFF" stroke="#006AFF"/>
<path d="M153.465 46.2183H148.875V57.6993H153.465V46.2183Z" fill="#006AFF"/>
<path d="M160.351 46.2183H155.761V57.6993H160.351V46.2183Z" fill="#006AFF"/>
<path d="M167.242 46.2183H162.652V57.6993H167.242V46.2183Z" fill="#006AFF"/>
<path d="M174.13 46.2183H169.54V57.6993H174.13V46.2183Z" fill="#006AFF"/>
<path d="M181.017 46.2183H176.426V57.6993H181.017V46.2183Z" fill="#006AFF"/>
<path d="M187.908 46.2183H183.318V57.6993H187.908V46.2183Z" fill="#006AFF"/>
<path d="M153.465 59.9923H148.875V71.4733H153.465V59.9923Z" fill="#006AFF"/>
<path d="M160.351 59.9923H155.761V71.4733H160.351V59.9923Z" fill="#006AFF"/>
<path d="M167.242 59.9923H162.652V71.4733H167.242V59.9923Z" fill="#006AFF"/>
<path d="M174.13 59.9923H169.54V71.4733H174.13V59.9923Z" fill="#006AFF"/>
<path d="M181.017 59.9923H176.426V71.4733H181.017V59.9923Z" fill="#006AFF"/>
<path d="M187.908 59.9923H183.318V71.4733H187.908V59.9923Z" fill="#006AFF"/>
<path d="M153.465 73.7704H148.875V85.2514H153.465V73.7704Z" fill="#006AFF"/>
<path d="M160.351 73.7704H155.761V85.2514H160.351V73.7704Z" fill="#006AFF"/>
<path d="M167.242 73.7704H162.652V85.2514H167.242V73.7704Z" fill="#006AFF"/>
<path d="M174.13 73.7704H169.54V85.2514H174.13V73.7704Z" fill="#006AFF"/>
<path d="M181.017 73.7704H176.426V85.2514H181.017V73.7704Z" fill="#006AFF"/>
<path d="M187.908 73.7704H183.318V85.2514H187.908V73.7704Z" fill="#006AFF"/>
<path d="M121.971 127.725V128.225H122.471H140.84H141.34V127.725V68.0302V67.5302H140.84H122.471H121.971V68.0302V127.725ZM141.986 129.522H121.321C120.964 129.522 120.674 129.232 120.674 128.875V66.8834C120.674 66.5263 120.964 66.2367 121.321 66.2367H141.986C142.343 66.2367 142.633 66.5263 142.633 66.8834V128.875C142.633 129.232 142.343 129.522 141.986 129.522Z" fill="#006AFF" stroke="#006AFF"/>
<path d="M117.378 65.7329V66.2329H117.878H140.837H141.337V65.7329V61.1392V60.6392H140.837H117.878H117.378V61.1392V65.7329ZM141.987 67.5298H116.731C116.374 67.5298 116.084 67.2402 116.084 66.8831V59.9958C116.084 59.6387 116.374 59.3491 116.731 59.3491H141.987C142.344 59.3491 142.633 59.6387 142.633 59.9958V66.8831C142.633 67.2402 142.344 67.5298 141.987 67.5298Z" fill="#006AFF" stroke="#006AFF"/>
<path d="M137.392 73.7704H132.802V78.3642H137.392V73.7704Z" fill="#006AFF"/>
<path d="M130.506 73.7704H125.916V78.3642H130.506V73.7704Z" fill="#006AFF"/>
<path d="M137.392 80.6575H132.802V85.2478H137.392V80.6575Z" fill="#006AFF"/>
<path d="M130.506 80.6575H125.916V85.2478H130.506V80.6575Z" fill="#006AFF"/>
<path d="M137.392 87.545H132.802V92.1388H137.392V87.545Z" fill="#006AFF"/>
<path d="M130.506 87.545H125.916V92.1388H130.506V87.545Z" fill="#006AFF"/>
<path d="M137.392 94.432H132.802V99.0258H137.392V94.432Z" fill="#006AFF"/>
<path d="M130.506 94.432H125.916V99.0258H130.506V94.432Z" fill="#006AFF"/>
<path d="M137.392 101.323H132.802V105.913H137.392V101.323Z" fill="#006AFF"/>
<path d="M130.506 101.323H125.916V105.913H130.506V101.323Z" fill="#006AFF"/>
<path d="M137.392 108.21H132.802V112.804H137.392V108.21Z" fill="#006AFF"/>
<path d="M130.506 108.21H125.916V112.804H130.506V108.21Z" fill="#006AFF"/>
<path d="M153.465 87.545H148.875V99.026H153.465V87.545Z" fill="#006AFF"/>
<path d="M160.351 87.545H155.761V99.026H160.351V87.545Z" fill="#006AFF"/>
<path d="M167.242 87.545H162.652V99.026H167.242V87.545Z" fill="#006AFF"/>
<path d="M174.13 87.545H169.54V99.026H174.13V87.545Z" fill="#006AFF"/>
<path d="M181.017 87.545H176.426V99.026H181.017V87.545Z" fill="#006AFF"/>
<path d="M187.908 87.545H183.318V99.026H187.908V87.545Z" fill="#006AFF"/>
<path d="M153.465 101.323H148.875V112.801H153.465V101.323Z" fill="#006AFF"/>
<path d="M160.351 101.323H155.761V112.801H160.351V101.323Z" fill="#006AFF"/>
<path d="M167.242 101.323H162.652V112.801H167.242V101.323Z" fill="#006AFF"/>
<path d="M174.13 101.323H169.54V112.801H174.13V101.323Z" fill="#006AFF"/>
<path d="M181.017 101.323H176.426V112.801H181.017V101.323Z" fill="#006AFF"/>
<path d="M187.908 101.323H183.318V112.801H187.908V101.323Z" fill="#006AFF"/>
<path d="M202.034 130.734H114.966C114.959 130.734 114.852 130.723 114.718 130.486C114.593 130.265 114.5 129.925 114.5 129.522C114.5 129.119 114.593 128.779 114.718 128.558C114.852 128.32 114.959 128.31 114.966 128.31H202.034C202.041 128.31 202.148 128.32 202.282 128.558C202.407 128.779 202.5 129.119 202.5 129.522C202.5 129.925 202.407 130.265 202.282 130.486C202.148 130.723 202.041 130.734 202.034 130.734Z" fill="#006AFF" stroke="#006AFF"/>
<path d="M178.724 130.022H158.059C157.426 130.022 156.912 129.509 156.912 128.875V119.691C156.912 119.058 157.426 118.544 158.059 118.544H178.724C179.357 118.544 179.871 119.058 179.871 119.691V128.875C179.871 129.509 179.357 130.022 178.724 130.022ZM159.209 127.725H177.577V120.838H159.209V127.725Z" fill="#006AFF"/>
</svg>
