<svg width="31" height="21" viewBox="0 0 31 21" fill="none" xmlns="http://www.w3.org/2000/svg">
<path d="M26.8106 9.31919C27.7184 8.68128 28.3196 7.62014 28.3196 6.42406C28.3196 4.46739 26.737 2.88488 24.7804 2.88488C22.8237 2.88488 21.2412 4.46739 21.2412 6.42406C21.2412 7.62014 21.8362 8.68128 22.7501 9.31919C21.9711 9.58907 21.2596 10.0062 20.6585 10.5459C19.8304 9.84056 18.8552 9.30079 17.7879 8.98183C19.0821 8.19671 19.9531 6.76755 19.9531 5.1421C19.9531 2.66406 17.9474 0.658325 15.4693 0.658325C12.9913 0.658325 10.9856 2.6702 10.9856 5.1421C10.9856 6.76755 11.8504 8.19671 13.1508 8.98183C12.0958 9.30079 11.1328 9.83442 10.3108 10.5275C9.70974 10 9.01049 9.58908 8.24377 9.32532C9.15156 8.68741 9.75267 7.62627 9.75267 6.43019C9.75267 4.47352 8.17016 2.89101 6.21349 2.89101C4.25683 2.89101 2.67432 4.47352 2.67432 6.43019C2.67432 7.62627 3.26929 8.68741 4.18322 9.32532C1.74812 10.1656 0 12.4781 0 15.1953V15.6002C0 15.6124 0.0122675 15.6247 0.024535 15.6247H7.52612C7.48318 15.962 7.45865 16.3117 7.45865 16.6613V17.0784C7.45865 18.8817 8.91848 20.3415 10.7218 20.3415H20.2291C22.0324 20.3415 23.4923 18.8817 23.4923 17.0784V16.6613C23.4923 16.3117 23.4677 15.962 23.4248 15.6247H30.9755C30.9877 15.6247 31 15.6124 31 15.6002V15.1953C30.9877 12.4719 29.2457 10.1595 26.8106 9.31919ZM22.2226 6.41792C22.2226 5.00716 23.3696 3.86015 24.7804 3.86015C26.1911 3.86015 27.3382 5.00716 27.3382 6.41792C27.3382 7.81028 26.2157 8.94503 24.8294 8.9757C24.811 8.9757 24.7988 8.9757 24.7804 8.9757C24.762 8.9757 24.7497 8.9757 24.7313 8.9757C23.3389 8.95116 22.2226 7.81642 22.2226 6.41792ZM11.9547 5.1421C11.9547 3.20997 13.5249 1.63973 15.4571 1.63973C17.3892 1.63973 18.9594 3.20997 18.9594 5.1421C18.9594 7.00676 17.4935 8.53407 15.6595 8.63834C15.592 8.63834 15.5245 8.63834 15.4571 8.63834C15.3896 8.63834 15.3221 8.63834 15.2547 8.63834C13.4207 8.53407 11.9547 7.00676 11.9547 5.1421ZM3.63732 6.41792C3.63732 5.00716 4.78433 3.86015 6.19509 3.86015C7.60586 3.86015 8.75287 5.00716 8.75287 6.41792C8.75287 7.81028 7.63039 8.94503 6.24416 8.9757C6.22576 8.9757 6.21349 8.9757 6.19509 8.9757C6.17669 8.9757 6.16442 8.9757 6.14602 8.9757C4.75979 8.95116 3.63732 7.81642 3.63732 6.41792ZM7.69786 14.6372H0.993668C1.26969 12.0242 3.47784 9.9755 6.15829 9.9571C6.17056 9.9571 6.18283 9.9571 6.19509 9.9571C6.20736 9.9571 6.21963 9.9571 6.2319 9.9571C7.50772 9.96323 8.67313 10.4355 9.57479 11.2023C8.69153 12.1591 8.03522 13.3368 7.69786 14.6372ZM22.4986 17.0784C22.4986 18.3358 21.4743 19.3601 20.2169 19.3601H10.7095C9.45212 19.3601 8.42778 18.3358 8.42778 17.0784V16.6613C8.42778 12.8522 11.4701 9.73628 15.2547 9.62588C15.3221 9.63201 15.3957 9.63201 15.4632 9.63201C15.5307 9.63201 15.6043 9.63201 15.6717 9.62588C19.4563 9.73628 22.4986 12.8522 22.4986 16.6613V17.0784ZM23.2285 14.6372C22.8912 13.3429 22.2471 12.1837 21.37 11.2268C22.2778 10.4417 23.4555 9.96937 24.7436 9.9571C24.7558 9.9571 24.7681 9.9571 24.7804 9.9571C24.7926 9.9571 24.8049 9.9571 24.8172 9.9571C27.4976 9.9755 29.7058 12.0242 29.9818 14.6372H23.2285Z" fill="white"/>
</svg>
