<svg width="135" height="135" viewBox="0 0 135 135" fill="none" xmlns="http://www.w3.org/2000/svg">
<path d="M67.067 0.865967C30.0269 0.865967 0 30.8929 0 67.933C0 104.973 30.0269 135 67.067 135C104.107 135 134.134 104.973 134.134 67.933C134.095 30.9095 104.091 0.905545 67.067 0.865967ZM103.987 47.3674L56.0823 95.2725C54.2115 97.1428 51.1792 97.1428 49.3086 95.2725L30.1465 76.1104C28.2434 74.2724 28.1906 71.2398 30.0286 69.3367C31.8666 67.4336 34.8992 67.3809 36.8023 69.2188C36.8422 69.2576 36.8815 69.2966 36.9202 69.3367L52.6955 85.112L97.2138 40.5937C99.1169 38.7557 102.15 38.8085 103.987 40.7113C105.781 42.5678 105.781 45.5109 103.987 47.3674Z" fill="#006AFF"/>
</svg>
