<svg width="30" height="24" viewBox="0 0 30 24" fill="none" xmlns="http://www.w3.org/2000/svg">
<path d="M29.3135 2.96652C28.2421 3.44158 27.0897 3.76289 25.8811 3.90639C27.1151 3.16706 28.0621 1.99724 28.5091 0.601038C27.3544 1.28599 26.075 1.78289 24.7144 2.05072C23.6244 0.889817 22.0713 0.164307 20.3515 0.164307C17.052 0.164307 14.3759 2.8404 14.3759 6.13996C14.3759 6.60833 14.4289 7.06423 14.5314 7.50185C9.56516 7.25273 5.16174 4.87388 2.21425 1.25747C1.69998 2.13985 1.40496 3.16706 1.40496 4.26201C1.40496 6.3347 2.46069 8.16452 4.06323 9.23585C3.08415 9.2051 2.16211 8.93638 1.35683 8.48762C1.35638 8.51302 1.35638 8.53842 1.35638 8.56337C1.35638 11.4587 3.41704 13.8737 6.15018 14.4223C5.64928 14.5595 5.1203 14.6322 4.57617 14.6322C4.19024 14.6322 3.81634 14.5952 3.4518 14.5257C4.21207 16.8992 6.41846 18.6269 9.03395 18.6755C6.98844 20.2785 4.41217 21.2335 1.61174 21.2335C1.13044 21.2335 0.653602 21.2054 0.187012 21.1497C2.83013 22.8458 5.97192 23.8347 9.34635 23.8347C20.3377 23.8347 26.3486 14.7293 26.3486 6.83205C26.3486 6.57313 26.3428 6.3151 26.3312 6.0593C27.4997 5.21703 28.5126 4.16486 29.3135 2.96652Z" fill="#F1F2F2"/>
</svg>
