<svg width="286" height="160" viewBox="0 0 286 160" fill="none" xmlns="http://www.w3.org/2000/svg">
<g opacity="0.34">
<g opacity="0.6">
<path opacity="0.6" d="M248.48 102.896C250.467 111.167 250.136 118.771 247.486 126.885C244.173 137.038 236.72 146.484 226.036 152.286C222.309 154.324 218.293 155.853 214.11 156.95C213.448 157.97 212.702 158.989 211.916 159.929H247.61C256.679 149.699 261.896 136.567 262.725 123.24C262.932 119.634 262.849 115.988 262.435 112.421C260.778 98.5056 254.236 85.2565 244.463 74.7122C244.339 75.4569 244.215 76.2017 244.09 76.9465C242.972 85.8053 246.409 94.3898 248.48 102.896Z" fill="#53D0F7"/>
</g>
<g opacity="0.41">
<path opacity="0.41" d="M137.915 157.891C135.803 155.147 134.189 151.659 131.952 148.875C127.19 149.777 122.511 151.11 117.749 152.286C108.018 154.638 97.9969 156.402 87.9759 156.519C76.8369 156.676 65.4494 154.638 55.7596 149.189C48.3474 145.034 41.8462 138.723 38.3264 131.197C39.3202 141.585 43.2955 151.737 50.0038 159.969H139.613C138.992 159.263 138.454 158.597 137.915 157.891Z" fill="#53D0F7"/>
</g>
<g opacity="0.41">
<path opacity="0.41" d="M152.038 15.0914C154.73 15.013 157.67 14.8562 160.858 14.621C175.683 13.5626 190.383 16.7769 204.628 21.1671C205.994 21.5983 207.361 22.0687 208.727 22.5391C202.599 16.1497 194.772 11.1715 186.159 8.34925C169.099 2.74388 148.436 4.97819 133.446 13.7978C139.616 13.837 145.827 14.2682 152.038 15.0914Z" fill="#53D0F7"/>
</g>
<g opacity="0.35">
<path opacity="0.35" d="M55.3893 149.307C65.0791 154.598 76.4252 156.637 87.5642 156.558C97.5852 156.48 107.648 154.834 117.379 152.599C122.141 151.502 126.861 150.247 131.624 149.385C129.677 146.994 127.276 145.112 123.714 144.72C109.884 143.153 95.3491 148.562 81.6013 149.463C72.3671 150.091 62.5531 148.875 55.0581 143.662C50.2132 140.252 46.6934 135.391 44.2503 130.139C39.2398 119.242 39.1156 106.737 43.3393 95.5657C46.1965 88.0396 53.1532 82.2774 55.555 74.5945C57.584 68.166 55.2237 61.4631 55.8862 54.9953C56.0105 53.6626 56.3003 52.369 56.7144 51.0755C59.0748 44.1766 70.5037 34.2202 77.5018 30.8883C94.2725 22.8919 111.789 19.0112 129.677 18.6192C119.532 17.0121 109.925 14.1114 92.906 10.7012C72.7398 6.54613 50.0062 20.5792 38.0803 36.9249C36.8795 38.6104 35.8028 40.3351 34.8918 42.1383C30.7509 50.2523 29.5915 59.6208 31.4963 68.4012C33.7324 78.7104 40.6891 86.6676 38.2046 97.6432C36.6724 104.346 36.2997 110.539 35.513 117.164C34.8918 122.338 35.9271 127.277 38.0389 131.785C41.5173 139.076 48.0185 145.23 55.3893 149.307Z" fill="#53D0F7"/>
</g>
<g opacity="0.47">
<path opacity="0.47" d="M160.857 14.621C157.669 14.8562 154.77 15.013 152.037 15.0914C161.23 16.3066 170.506 18.4233 179.74 21.2848L214.317 32.0643C230.59 37.1209 241.357 51.8595 240.322 68.0484C240.322 68.166 240.322 68.2444 240.28 68.362C239.618 77.7304 236.346 86.9421 230.88 94.625C225.953 101.602 219.12 109.403 217.422 117.987C216.056 124.808 218.996 131.707 219.369 138.645C219.7 145.23 217.629 151.502 214.027 156.911C218.209 155.814 222.226 154.285 225.953 152.247C236.595 146.445 244.09 136.998 247.402 126.846C250.053 118.732 250.384 111.127 248.396 102.857C246.367 94.3506 242.93 85.7661 244.007 76.9073C244.09 76.1625 244.214 75.4177 244.38 74.673C245.415 69.2636 247.692 64.011 247.195 58.5624C246.823 54.4466 244.918 50.566 242.558 47.1165C234.773 35.553 222.267 27.4389 208.644 22.5391C207.277 22.0687 205.911 21.5983 204.544 21.1672C190.382 16.7769 175.682 13.5627 160.857 14.621Z" fill="#53D0F7"/>
</g>
<g opacity="0.7">
<path opacity="0.7" d="M56.5892 47.7045C56.1337 49.0372 55.8853 50.4092 55.7611 51.7811C55.1399 58.484 57.5002 65.3829 55.5126 72.0075C53.1109 79.9647 46.1956 85.8837 43.3797 93.6842C39.1974 105.209 39.4045 118.105 44.4564 129.355C46.8995 134.764 50.4607 139.781 55.3056 143.27C62.8006 148.64 72.6146 149.816 81.8488 149.111C95.5966 148.092 110.09 142.447 123.92 144.015C127.482 144.407 129.925 146.328 131.871 148.797C134.107 151.58 135.722 155.069 137.834 157.813C138.372 158.518 138.952 159.224 139.532 159.89H211.832C212.619 158.91 213.364 157.93 214.027 156.911C217.629 151.502 219.7 145.23 219.368 138.645C218.996 131.707 216.056 124.808 217.422 117.987C219.12 109.442 225.952 101.602 230.88 94.6249C236.346 86.9029 239.617 77.7304 240.28 68.362C240.28 68.2444 240.28 68.166 240.321 68.0484C241.315 51.8595 230.549 37.1209 214.317 32.0643L179.74 21.2847C170.464 18.3841 161.23 16.3065 152.037 15.0914C145.826 14.2682 139.615 13.7979 133.445 13.7979C132.078 13.7979 130.753 13.7979 129.386 13.837C111.539 14.3466 94.0231 18.4233 77.2938 26.7333C70.2957 30.2612 58.9496 40.6096 56.5892 47.7045Z" fill="#53D0F7"/>
</g>
<g opacity="0.35">
<path opacity="0.35" d="M120.483 10.662C123.593 10.662 126.115 8.2752 126.115 5.33098C126.115 2.38676 123.593 0 120.483 0C117.373 0 114.851 2.38676 114.851 5.33098C114.851 8.2752 117.373 10.662 120.483 10.662Z" fill="#53D0F7"/>
</g>
<g opacity="0.35">
<path opacity="0.35" d="M272.539 80.6703C279.56 80.6703 285.251 75.2826 285.251 68.6364C285.251 61.9903 279.56 56.6025 272.539 56.6025C265.518 56.6025 259.826 61.9903 259.826 68.6364C259.826 75.2826 265.518 80.6703 272.539 80.6703Z" fill="#53D0F7"/>
</g>
<g opacity="0.35">
<path opacity="0.35" d="M26.0252 100.94C31.4258 96.6929 32.1668 89.1058 27.6804 83.9936C23.194 78.8814 15.1791 78.1799 9.77853 82.4268C4.378 86.6737 3.63695 94.2607 8.12335 99.3729C12.6098 104.485 20.6247 105.187 26.0252 100.94Z" fill="#53D0F7"/>
</g>
<g opacity="0.35">
<path opacity="0.35" d="M219.741 20.1872C221.867 20.1872 223.592 18.555 223.592 16.5417C223.592 14.5284 221.867 12.8962 219.741 12.8962C217.614 12.8962 215.89 14.5284 215.89 16.5417C215.89 18.555 217.614 20.1872 219.741 20.1872Z" fill="#53D0F7"/>
</g>
</g>
<path d="M125.502 136.4H174.502L175.667 134.806H176.067V134.806V46.6352C176.067 45.765 175.374 45.045 174.502 45.045H166.734V37.1029C166.734 36.2327 166.041 35.5127 165.168 35.5127H134.836C133.96 35.5127 133.267 36.2319 133.267 37.1029V45.045H125.502C124.629 45.045 123.936 45.765 123.936 46.6352V134.81C123.936 135.68 124.629 136.4 125.502 136.4ZM172.937 133.216H127.071V48.2254H134.839C135.711 48.2254 136.404 47.5054 136.404 46.6352V38.6931H163.606V46.6352C163.606 47.5054 164.299 48.2254 165.172 48.2254H172.937V133.216Z" fill="#006AFF" stroke="#006AFF" stroke-width="0.8"/>
<path d="M174.502 136.4H200.17L201.335 134.806H201.735V134.805V79.9965C201.735 79.1263 201.042 78.4063 200.17 78.4063H174.502C173.63 78.4063 172.937 79.1263 172.937 79.9965V134.81C172.937 135.68 173.63 136.4 174.502 136.4ZM198.604 81.5902V133.216H176.071V81.5902H198.604Z" fill="#006AFF" stroke="#006AFF" stroke-width="0.8"/>
<path d="M174.502 81.59H190.836C191.711 81.59 192.405 80.8708 192.405 79.9997V68.0835C192.405 67.2117 191.707 66.4933 190.836 66.4933H174.502C173.63 66.4933 172.937 67.2133 172.937 68.0835V79.9997C172.937 80.87 173.63 81.59 174.502 81.59ZM189.27 69.6737V78.406H176.071V69.6737H189.27Z" fill="#006AFF" stroke="#006AFF" stroke-width="0.8"/>
<path d="M134.835 53.7837H130.167V58.5516H134.835V53.7837Z" fill="#006AFF"/>
<path d="M141.832 53.7837H137.167V58.5516H141.832V53.7837Z" fill="#006AFF"/>
<path d="M148.834 53.7837H144.169V58.5516H148.834V53.7837Z" fill="#006AFF"/>
<path d="M155.834 53.7837H151.169V58.5516H155.834V53.7837Z" fill="#006AFF"/>
<path d="M162.833 53.7837H158.168V58.5516H162.833V53.7837Z" fill="#006AFF"/>
<path d="M169.837 53.7837H165.171V58.5516H169.837V53.7837Z" fill="#006AFF"/>
<path d="M134.835 60.9354H130.167V65.7033H134.835V60.9354Z" fill="#006AFF"/>
<path d="M141.832 60.9354H137.167V65.7033H141.832V60.9354Z" fill="#006AFF"/>
<path d="M148.834 60.9354H144.169V65.7033H148.834V60.9354Z" fill="#006AFF"/>
<path d="M155.834 60.9354H151.169V65.7033H155.834V60.9354Z" fill="#006AFF"/>
<path d="M162.833 60.9354H158.168V65.7033H162.833V60.9354Z" fill="#006AFF"/>
<path d="M169.837 60.9354H165.171V65.7033H169.837V60.9354Z" fill="#006AFF"/>
<path d="M134.835 68.0836H130.167V72.8515H134.835V68.0836Z" fill="#006AFF"/>
<path d="M141.832 68.0836H137.167V72.8515H141.832V68.0836Z" fill="#006AFF"/>
<path d="M148.834 68.0836H144.169V72.8515H148.834V68.0836Z" fill="#006AFF"/>
<path d="M155.834 68.0836H151.169V72.8515H155.834V68.0836Z" fill="#006AFF"/>
<path d="M162.833 68.0836H158.168V72.8515H162.833V68.0836Z" fill="#006AFF"/>
<path d="M169.837 68.0836H165.171V72.8515H169.837V68.0836Z" fill="#006AFF"/>
<path d="M134.835 75.2323H130.167V80.0002H134.835V75.2323Z" fill="#006AFF"/>
<path d="M141.832 75.2323H137.167V80.0002H141.832V75.2323Z" fill="#006AFF"/>
<path d="M148.834 75.2323H144.169V80.0002H148.834V75.2323Z" fill="#006AFF"/>
<path d="M155.834 75.2323H151.169V80.0002H155.834V75.2323Z" fill="#006AFF"/>
<path d="M162.833 75.2323H158.168V80.0002H162.833V75.2323Z" fill="#006AFF"/>
<path d="M169.837 75.2323H165.171V80.0002H169.837V75.2323Z" fill="#006AFF"/>
<path d="M134.835 82.3805H130.167V87.1484H134.835V82.3805Z" fill="#006AFF"/>
<path d="M141.832 82.3805H137.167V87.1484H141.832V82.3805Z" fill="#006AFF"/>
<path d="M148.834 82.3805H144.169V87.1484H148.834V82.3805Z" fill="#006AFF"/>
<path d="M155.834 82.3805H151.169V87.1484H155.834V82.3805Z" fill="#006AFF"/>
<path d="M162.833 82.3805H158.168V87.1484H162.833V82.3805Z" fill="#006AFF"/>
<path d="M169.837 82.3805H165.171V87.1484H169.837V82.3805Z" fill="#006AFF"/>
<path d="M134.835 89.5288H130.167V94.2967H134.835V89.5288Z" fill="#006AFF"/>
<path d="M141.832 89.5288H137.167V94.2967H141.832V89.5288Z" fill="#006AFF"/>
<path d="M148.834 89.5288H144.169V94.2967H148.834V89.5288Z" fill="#006AFF"/>
<path d="M155.834 89.5288H151.169V94.2967H155.834V89.5288Z" fill="#006AFF"/>
<path d="M162.833 89.5288H158.168V94.2967H162.833V89.5288Z" fill="#006AFF"/>
<path d="M169.837 89.5288H165.171V94.2967H169.837V89.5288Z" fill="#006AFF"/>
<path d="M134.835 96.6807H130.167V101.445H134.835V96.6807Z" fill="#006AFF"/>
<path d="M141.832 96.6807H137.167V101.445H141.832V96.6807Z" fill="#006AFF"/>
<path d="M148.834 96.6807H144.169V101.445H148.834V96.6807Z" fill="#006AFF"/>
<path d="M155.834 96.6807H151.169V101.445H155.834V96.6807Z" fill="#006AFF"/>
<path d="M162.833 96.6807H158.168V101.445H162.833V96.6807Z" fill="#006AFF"/>
<path d="M169.837 96.6807H165.171V101.445H169.837V96.6807Z" fill="#006AFF"/>
<path d="M186.167 84.7643H181.502V94.2966H186.167V84.7643Z" fill="#006AFF"/>
<path d="M193.17 84.7643H188.505V94.2966H193.17V84.7643Z" fill="#006AFF"/>
<path d="M186.167 96.6807H181.502V106.213H186.167V96.6807Z" fill="#006AFF"/>
<path d="M193.17 96.6807H188.505V106.213H193.17V96.6807Z" fill="#006AFF"/>
<path d="M186.167 108.594H181.502V118.126H186.167V108.594Z" fill="#006AFF"/>
<path d="M193.17 108.594H188.505V118.126H193.17V108.594Z" fill="#006AFF"/>
<path d="M186.167 120.51H181.502V130.042H186.167V120.51Z" fill="#006AFF"/>
<path d="M193.17 120.51H188.505V130.042H193.17V120.51Z" fill="#006AFF"/>
<path d="M99.8336 136.4H125.501C126.374 136.4 127.066 135.679 127.066 134.806V79.9965C127.066 79.1263 126.373 78.4063 125.501 78.4063H99.8336C98.9612 78.4063 98.2682 79.1263 98.2682 79.9965V134.81C98.2682 135.68 98.9612 136.4 99.8336 136.4ZM123.932 81.5902V133.216H101.399V81.5902H123.932Z" fill="#006AFF" stroke="#006AFF" stroke-width="0.8"/>
<path d="M109.168 81.59H125.501C126.374 81.59 127.067 80.87 127.067 79.9997V68.0835C127.067 67.2133 126.374 66.4933 125.501 66.4933H109.168C108.295 66.4933 107.602 67.2133 107.602 68.0835V79.9997C107.602 80.87 108.295 81.59 109.168 81.59ZM123.932 69.6737V78.406H110.733V69.6737H123.932Z" fill="#006AFF" stroke="#006AFF" stroke-width="0.8"/>
<path d="M118.499 84.7643H113.834V94.2966H118.499V84.7643Z" fill="#006AFF"/>
<path d="M111.499 84.7643H106.833V94.2966H111.499V84.7643Z" fill="#006AFF"/>
<path d="M118.499 96.6807H113.834V106.213H118.499V96.6807Z" fill="#006AFF"/>
<path d="M111.499 96.6807H106.833V106.213H111.499V96.6807Z" fill="#006AFF"/>
<path d="M118.499 108.594H113.834V118.126H118.499V108.594Z" fill="#006AFF"/>
<path d="M111.499 108.594H106.833V118.126H111.499V108.594Z" fill="#006AFF"/>
<path d="M118.499 120.51H113.834V130.042H118.499V120.51Z" fill="#006AFF"/>
<path d="M111.499 120.51H106.833V130.042H111.499V120.51Z" fill="#006AFF"/>
<path d="M134.835 103.829H130.167V108.593H134.835V103.829Z" fill="#006AFF"/>
<path d="M141.832 103.829H137.167V108.593H141.832V103.829Z" fill="#006AFF"/>
<path d="M148.834 103.829H144.169V108.593H148.834V103.829Z" fill="#006AFF"/>
<path d="M155.834 103.829H151.169V108.593H155.834V103.829Z" fill="#006AFF"/>
<path d="M162.833 103.829H158.168V108.593H162.833V103.829Z" fill="#006AFF"/>
<path d="M169.837 103.829H165.171V108.593H169.837V103.829Z" fill="#006AFF"/>
<path d="M158.169 136H141.835C141.192 136 140.67 135.467 140.67 134.81V115.745C140.67 115.088 141.192 114.555 141.835 114.555H158.169C158.812 114.555 159.334 115.088 159.334 115.745V134.81C159.334 135.467 158.812 136 158.169 136ZM143.001 133.616H157V116.935H143.001V133.616Z" fill="#006AFF"/>
<path d="M139.501 38.6966H160.503C161.376 38.6966 162.069 37.9723 162.069 37.1064V25.1902C162.069 24.32 161.376 23.6 160.503 23.6H139.501C138.629 23.6 137.936 24.32 137.936 25.1902V37.1064C137.936 37.9767 138.629 38.6966 139.501 38.6966ZM158.938 26.7804V35.5127H141.07V26.7804H158.938Z" fill="#006AFF" stroke="#006AFF" stroke-width="0.8"/>
<path d="M206.4 134.81C206.4 133.937 205.708 133.216 204.835 133.216H95.1654C94.2915 133.216 93.6 133.941 93.6 134.81C93.6 135.68 94.293 136.4 95.1654 136.4H204.838C205.709 136.4 206.403 135.681 206.4 134.81ZM206.4 134.81H206L206.4 134.807C206.4 134.808 206.4 134.809 206.4 134.81Z" fill="#006AFF" stroke="#006AFF" stroke-width="0.8"/>
<path d="M195.505 38.2968H187.34C184.765 38.2968 182.674 36.1579 182.674 33.5324H178.009C175.435 33.5324 173.344 31.3936 173.344 28.768C173.344 26.1389 175.438 24.0037 178.009 24.0037H187.343C189.917 24.0037 192.008 26.1425 192.008 28.768H195.508C198.082 28.768 200.173 30.9068 200.173 33.5324C200.17 36.1579 198.079 38.2968 195.505 38.2968ZM178.002 26.3805C176.715 26.3805 175.668 27.4499 175.668 28.7645C175.668 30.079 176.715 31.1484 178.002 31.1484H184.038C184.417 31.1484 184.772 31.3367 184.991 31.6529C185.21 31.9691 185.266 32.3742 185.137 32.7401C185.047 33.003 185.002 33.2695 185.002 33.5324C185.002 34.8469 186.049 35.9163 187.336 35.9163H195.501C196.788 35.9163 197.835 34.8469 197.835 33.5324C197.835 32.2178 196.788 31.1484 195.501 31.1484H190.631C190.251 31.1484 189.897 30.9601 189.677 30.6439C189.458 30.3277 189.403 29.9227 189.531 29.5568C189.622 29.2938 189.667 29.0274 189.667 28.7645C189.667 27.4499 188.62 26.3805 187.333 26.3805H178.002Z" fill="#006AFF"/>
<path d="M106.227 60.25H98.9883C98.6216 60.25 98.3242 59.9527 98.3242 59.5859C98.3242 59.2192 98.6216 58.9219 98.9883 58.9219H106.227C109.178 58.9219 111.672 56.489 111.672 53.6094C111.672 49.8799 107.838 47.3986 104.449 48.6013C104.241 48.6751 104.01 48.6407 103.833 48.5096C103.655 48.3786 103.554 48.1679 103.564 47.9474C103.739 43.7887 100.101 40.3281 96 40.3281C91.8679 40.3281 88.2593 43.7652 88.4365 47.9474C88.4458 48.1678 88.345 48.3786 88.1674 48.5097C87.9899 48.6408 87.759 48.6751 87.5509 48.6013C84.1369 47.3896 80.3281 49.9029 80.3281 53.6094C80.3281 56.489 82.8218 58.9219 85.7734 58.9219H93.0117C93.3784 58.9219 93.6758 59.2192 93.6758 59.5859C93.6758 59.9527 93.3784 60.25 93.0117 60.25H85.7734C82.0884 60.25 79 57.2672 79 53.6094C79 49.3034 83.0813 46.2718 87.1199 47.1053C87.4192 42.5675 91.4299 39 96 39C100.533 39 104.574 42.5801 104.879 47.1055C108.915 46.272 113 49.301 113 53.6094C113 57.2649 109.914 60.25 106.227 60.25Z" fill="#006AFF"/>
</svg>
