<svg width="16" height="16" viewBox="0 0 16 16" fill="none" xmlns="http://www.w3.org/2000/svg">
<g clip-path="url(#clip0)">
<path d="M12.5686 3.8238L8.35197 0.132002C8.15036 -0.0440007 7.85062 -0.0440007 7.64902 0.132002L3.43135 3.8238C3.20948 4.01793 3.18708 4.35607 3.38228 4.57794L4.08523 5.37689C4.28043 5.59769 4.61644 5.61903 4.83724 5.42596L6.93328 3.58913V11.1999C6.93328 11.4943 7.17221 11.7333 7.46662 11.7333H8.5333C8.82771 11.7333 9.06664 11.4943 9.06664 11.1999V3.58913L11.1627 5.42596C11.3845 5.61903 11.7206 5.59769 11.9147 5.37689L12.6176 4.57688C12.8128 4.35607 12.7904 4.01793 12.5686 3.8238Z" fill="#407BFF"/>
<path d="M13.8667 13.8667H2.1332C1.83879 13.8667 1.59985 14.1056 1.59985 14.4V15.4667C1.59985 15.7611 1.83879 16.0001 2.1332 16.0001H13.8667C14.1611 16.0001 14.4001 15.7611 14.4001 15.4667V14.4C14.4001 14.1056 14.1611 13.8667 13.8667 13.8667Z" fill="#407BFF"/>
</g>
<defs>
<clipPath id="clip0">
<rect width="16" height="16" fill="white"/>
</clipPath>
</defs>
</svg>
