<svg width="24" height="24" viewBox="0 0 24 24" fill="none" xmlns="http://www.w3.org/2000/svg">
<g clip-path="url(#clip0)">
<path d="M12 13.5182C4.7889 13.5182 0.817505 16.9296 0.817505 23.1241C0.817505 23.6079 1.20961 24 1.69341 24H22.3066C22.7903 24 23.1825 23.6079 23.1825 23.1241C23.1825 16.9299 19.2111 13.5182 12 13.5182ZM2.60119 22.2482C2.94572 17.6166 6.10336 15.2701 12 15.2701C17.8966 15.2701 21.0543 17.6166 21.3991 22.2482H2.60119Z" fill="white"/>
<path d="M11.9999 0C8.68748 0 6.1897 2.54803 6.1897 5.92673C6.1897 9.40439 8.79614 12.2333 11.9999 12.2333C15.2037 12.2333 17.8101 9.40439 17.8101 5.92702C17.8101 2.54803 15.3123 0 11.9999 0ZM11.9999 10.4818C9.76195 10.4818 7.94151 8.43853 7.94151 5.92702C7.94151 3.50775 9.64837 1.75181 11.9999 1.75181C14.3138 1.75181 16.0583 3.54656 16.0583 5.92702C16.0583 8.43853 14.2379 10.4818 11.9999 10.4818Z" fill="white"/>
</g>
<defs>
<clipPath id="clip0">
<rect width="24" height="24" fill="white"/>
</clipPath>
</defs>
</svg>
